<?xml version="1.0" encoding="utf-8" standalone="no"?>
<!DOCTYPE svg PUBLIC "-//W3C//DTD SVG 1.1//EN"
  "http://www.w3.org/Graphics/SVG/1.1/DTD/svg11.dtd">
<!-- Created with matplotlib (https://matplotlib.org/) -->
<svg height="252pt" version="1.1" viewBox="0 0 360 252" width="360pt" xmlns="http://www.w3.org/2000/svg" xmlns:xlink="http://www.w3.org/1999/xlink">
 <defs>
  <style type="text/css">
*{stroke-linecap:butt;stroke-linejoin:round;}
  </style>
 </defs>
 <g id="figure_1">
  <g id="patch_1">
   <path d="M 0 252 
L 360 252 
L 360 0 
L 0 0 
z
" style="fill:#ffffff;"/>
  </g>
  <g id="axes_1">
   <g id="patch_2">
    <path d="M 63.05 202.2 
L 342.185294 202.2 
L 342.185294 27.8 
L 63.05 27.8 
z
" style="fill:#ffffff;"/>
   </g>
   <g id="PathCollection_1">
    <defs>
     <path d="M 0 5 
C 1.326016 5 2.597899 4.473168 3.535534 3.535534 
C 4.473168 2.597899 5 1.326016 5 0 
C 5 -1.326016 4.473168 -2.597899 3.535534 -3.535534 
C 2.597899 -4.473168 1.326016 -5 0 -5 
C -1.326016 -5 -2.597899 -4.473168 -3.535534 -3.535534 
C -4.473168 -2.597899 -5 -1.326016 -5 0 
C -5 1.326016 -4.473168 2.597899 -3.535534 3.535534 
C -2.597899 4.473168 -1.326016 5 0 5 
z
" id="mc7217c99d2" style="stroke:#000000;stroke-opacity:0.3;"/>
    </defs>
    <g clip-path="url(#pfe732185db)">
     <use style="fill-opacity:0.3;stroke:#000000;stroke-opacity:0.3;" x="212.73356" xlink:href="#mc7217c99d2" y="201.977842"/>
     <use style="fill-opacity:0.3;stroke:#000000;stroke-opacity:0.3;" x="83.748921" xlink:href="#mc7217c99d2" y="197.980568"/>
     <use style="fill-opacity:0.3;stroke:#000000;stroke-opacity:0.3;" x="205.693831" xlink:href="#mc7217c99d2" y="197.855281"/>
     <use style="fill-opacity:0.3;stroke:#000000;stroke-opacity:0.3;" x="94.39241" xlink:href="#mc7217c99d2" y="199.788465"/>
     <use style="fill-opacity:0.3;stroke:#000000;stroke-opacity:0.3;" x="170.586374" xlink:href="#mc7217c99d2" y="201.703256"/>
     <use style="fill-opacity:0.3;stroke:#000000;stroke-opacity:0.3;" x="142.336274" xlink:href="#mc7217c99d2" y="201.257848"/>
     <use style="fill-opacity:0.3;stroke:#000000;stroke-opacity:0.3;" x="191.614374" xlink:href="#mc7217c99d2" y="201.462502"/>
     <use style="fill-opacity:0.3;stroke:#000000;stroke-opacity:0.3;" x="191.694162" xlink:href="#mc7217c99d2" y="201.809564"/>
     <use style="fill-opacity:0.3;stroke:#000000;stroke-opacity:0.3;" x="89.402577" xlink:href="#mc7217c99d2" y="201.344151"/>
     <use style="fill-opacity:0.3;stroke:#000000;stroke-opacity:0.3;" x="339.448674" xlink:href="#mc7217c99d2" y="202.005875"/>
     <use style="fill-opacity:0.3;stroke:#000000;stroke-opacity:0.3;" x="339.448674" xlink:href="#mc7217c99d2" y="27.8"/>
     <use style="fill-opacity:0.3;stroke:#000000;stroke-opacity:0.3;" x="339.448674" xlink:href="#mc7217c99d2" y="202.182517"/>
     <use style="fill-opacity:0.3;stroke:#000000;stroke-opacity:0.3;" x="157.823677" xlink:href="#mc7217c99d2" y="199.022032"/>
     <use style="fill-opacity:0.3;stroke:#000000;stroke-opacity:0.3;" x="100.768308" xlink:href="#mc7217c99d2" y="199.504956"/>
     <use style="fill-opacity:0.3;stroke:#000000;stroke-opacity:0.3;" x="90.788641" xlink:href="#mc7217c99d2" y="198.729113"/>
     <use style="fill-opacity:0.3;stroke:#000000;stroke-opacity:0.3;" x="115.260395" xlink:href="#mc7217c99d2" y="199.728424"/>
     <use style="fill-opacity:0.3;stroke:#000000;stroke-opacity:0.3;" x="339.448674" xlink:href="#mc7217c99d2" y="202.165297"/>
     <use style="fill-opacity:0.3;stroke:#000000;stroke-opacity:0.3;" x="138.004133" xlink:href="#mc7217c99d2" y="198.48475"/>
     <use style="fill-opacity:0.3;stroke:#000000;stroke-opacity:0.3;" x="100.612613" xlink:href="#mc7217c99d2" y="198.986013"/>
     <use style="fill-opacity:0.3;stroke:#000000;stroke-opacity:0.3;" x="115.833766" xlink:href="#mc7217c99d2" y="198.946172"/>
     <use style="fill-opacity:0.3;stroke:#000000;stroke-opacity:0.3;" x="174.311278" xlink:href="#mc7217c99d2" y="200.296157"/>
     <use style="fill-opacity:0.3;stroke:#000000;stroke-opacity:0.3;" x="339.448674" xlink:href="#mc7217c99d2" y="202.056681"/>
     <use style="fill-opacity:0.3;stroke:#000000;stroke-opacity:0.3;" x="162.143259" xlink:href="#mc7217c99d2" y="201.328824"/>
     <use style="fill-opacity:0.3;stroke:#000000;stroke-opacity:0.3;" x="150.849434" xlink:href="#mc7217c99d2" y="199.815259"/>
     <use style="fill-opacity:0.3;stroke:#000000;stroke-opacity:0.3;" x="107.741036" xlink:href="#mc7217c99d2" y="200.175521"/>
     <use style="fill-opacity:0.3;stroke:#000000;stroke-opacity:0.3;" x="157.596967" xlink:href="#mc7217c99d2" y="201.356545"/>
     <use style="fill-opacity:0.3;stroke:#000000;stroke-opacity:0.3;" x="86.018445" xlink:href="#mc7217c99d2" y="202.167681"/>
     <use style="fill-opacity:0.3;stroke:#000000;stroke-opacity:0.3;" x="154.755534" xlink:href="#mc7217c99d2" y="201.777951"/>
     <use style="fill-opacity:0.3;stroke:#000000;stroke-opacity:0.3;" x="229.418718" xlink:href="#mc7217c99d2" y="176.317628"/>
     <use style="fill-opacity:0.3;stroke:#000000;stroke-opacity:0.3;" x="175.295003" xlink:href="#mc7217c99d2" y="199.023565"/>
     <use style="fill-opacity:0.3;stroke:#000000;stroke-opacity:0.3;" x="339.448674" xlink:href="#mc7217c99d2" y="201.670261"/>
     <use style="fill-opacity:0.3;stroke:#000000;stroke-opacity:0.3;" x="138.679272" xlink:href="#mc7217c99d2" y="198.783664"/>
     <use style="fill-opacity:0.3;stroke:#000000;stroke-opacity:0.3;" x="339.448674" xlink:href="#mc7217c99d2" y="202.150896"/>
     <use style="fill-opacity:0.3;stroke:#000000;stroke-opacity:0.3;" x="157.498766" xlink:href="#mc7217c99d2" y="199.955078"/>
     <use style="fill-opacity:0.3;stroke:#000000;stroke-opacity:0.3;" x="119.364528" xlink:href="#mc7217c99d2" y="199.790475"/>
     <use style="fill-opacity:0.3;stroke:#000000;stroke-opacity:0.3;" x="191.694162" xlink:href="#mc7217c99d2" y="199.664373"/>
     <use style="fill-opacity:0.3;stroke:#000000;stroke-opacity:0.3;" x="195.609895" xlink:href="#mc7217c99d2" y="197.674624"/>
     <use style="fill-opacity:0.3;stroke:#000000;stroke-opacity:0.3;" x="254.971931" xlink:href="#mc7217c99d2" y="201.793866"/>
     <use style="fill-opacity:0.3;stroke:#000000;stroke-opacity:0.3;" x="86.018445" xlink:href="#mc7217c99d2" y="202.095275"/>
     <use style="fill-opacity:0.3;stroke:#000000;stroke-opacity:0.3;" x="77.279472" xlink:href="#mc7217c99d2" y="200.424558"/>
     <use style="fill-opacity:0.3;stroke:#000000;stroke-opacity:0.3;" x="162.143259" xlink:href="#mc7217c99d2" y="201.706955"/>
     <use style="fill-opacity:0.3;stroke:#000000;stroke-opacity:0.3;" x="339.448674" xlink:href="#mc7217c99d2" y="201.995565"/>
     <use style="fill-opacity:0.3;stroke:#000000;stroke-opacity:0.3;" x="339.448674" xlink:href="#mc7217c99d2" y="168.087536"/>
     <use style="fill-opacity:0.3;stroke:#000000;stroke-opacity:0.3;" x="339.448674" xlink:href="#mc7217c99d2" y="200.181545"/>
     <use style="fill-opacity:0.3;stroke:#000000;stroke-opacity:0.3;" x="250.795966" xlink:href="#mc7217c99d2" y="200.869265"/>
     <use style="fill-opacity:0.3;stroke:#000000;stroke-opacity:0.3;" x="104.229001" xlink:href="#mc7217c99d2" y="197.699946"/>
     <use style="fill-opacity:0.3;stroke:#000000;stroke-opacity:0.3;" x="95.21551" xlink:href="#mc7217c99d2" y="198.130561"/>
     <use style="fill-opacity:0.3;stroke:#000000;stroke-opacity:0.3;" x="191.614374" xlink:href="#mc7217c99d2" y="201.321288"/>
     <use style="fill-opacity:0.3;stroke:#000000;stroke-opacity:0.3;" x="218.767613" xlink:href="#mc7217c99d2" y="200.310624"/>
     <use style="fill-opacity:0.3;stroke:#000000;stroke-opacity:0.3;" x="91.469073" xlink:href="#mc7217c99d2" y="198.238357"/>
     <use style="fill-opacity:0.3;stroke:#000000;stroke-opacity:0.3;" x="93.651886" xlink:href="#mc7217c99d2" y="197.87669"/>
     <use style="fill-opacity:0.3;stroke:#000000;stroke-opacity:0.3;" x="66.299228" xlink:href="#mc7217c99d2" y="200.2097"/>
     <use style="fill-opacity:0.3;stroke:#000000;stroke-opacity:0.3;" x="171.51298" xlink:href="#mc7217c99d2" y="199.173017"/>
     <use style="fill-opacity:0.3;stroke:#000000;stroke-opacity:0.3;" x="189.989821" xlink:href="#mc7217c99d2" y="199.328531"/>
     <use style="fill-opacity:0.3;stroke:#000000;stroke-opacity:0.3;" x="339.448674" xlink:href="#mc7217c99d2" y="201.97033"/>
     <use style="fill-opacity:0.3;stroke:#000000;stroke-opacity:0.3;" x="122.363091" xlink:href="#mc7217c99d2" y="197.582404"/>
     <use style="fill-opacity:0.3;stroke:#000000;stroke-opacity:0.3;" x="339.448674" xlink:href="#mc7217c99d2" y="202.150142"/>
     <use style="fill-opacity:0.3;stroke:#000000;stroke-opacity:0.3;" x="100.097903" xlink:href="#mc7217c99d2" y="200.24853"/>
     <use style="fill-opacity:0.3;stroke:#000000;stroke-opacity:0.3;" x="93.191154" xlink:href="#mc7217c99d2" y="200.937976"/>
     <use style="fill-opacity:0.3;stroke:#000000;stroke-opacity:0.3;" x="182.918239" xlink:href="#mc7217c99d2" y="200.290593"/>
     <use style="fill-opacity:0.3;stroke:#000000;stroke-opacity:0.3;" x="170.495188" xlink:href="#mc7217c99d2" y="199.183319"/>
     <use style="fill-opacity:0.3;stroke:#000000;stroke-opacity:0.3;" x="314.105651" xlink:href="#mc7217c99d2" y="200.751127"/>
     <use style="fill-opacity:0.3;stroke:#000000;stroke-opacity:0.3;" x="100.166249" xlink:href="#mc7217c99d2" y="199.140881"/>
     <use style="fill-opacity:0.3;stroke:#000000;stroke-opacity:0.3;" x="339.448674" xlink:href="#mc7217c99d2" y="202.182517"/>
     <use style="fill-opacity:0.3;stroke:#000000;stroke-opacity:0.3;" x="339.448674" xlink:href="#mc7217c99d2" y="202.016141"/>
     <use style="fill-opacity:0.3;stroke:#000000;stroke-opacity:0.3;" x="254.971931" xlink:href="#mc7217c99d2" y="201.882521"/>
     <use style="fill-opacity:0.3;stroke:#000000;stroke-opacity:0.3;" x="85.560639" xlink:href="#mc7217c99d2" y="196.958233"/>
     <use style="fill-opacity:0.3;stroke:#000000;stroke-opacity:0.3;" x="103.103629" xlink:href="#mc7217c99d2" y="198.372264"/>
     <use style="fill-opacity:0.3;stroke:#000000;stroke-opacity:0.3;" x="97.668563" xlink:href="#mc7217c99d2" y="199.243294"/>
     <use style="fill-opacity:0.3;stroke:#000000;stroke-opacity:0.3;" x="111.100792" xlink:href="#mc7217c99d2" y="197.994729"/>
     <use style="fill-opacity:0.3;stroke:#000000;stroke-opacity:0.3;" x="244.412338" xlink:href="#mc7217c99d2" y="199.790602"/>
     <use style="fill-opacity:0.3;stroke:#000000;stroke-opacity:0.3;" x="113.565209" xlink:href="#mc7217c99d2" y="199.483743"/>
     <use style="fill-opacity:0.3;stroke:#000000;stroke-opacity:0.3;" x="113.565209" xlink:href="#mc7217c99d2" y="199.483743"/>
     <use style="fill-opacity:0.3;stroke:#000000;stroke-opacity:0.3;" x="93.191154" xlink:href="#mc7217c99d2" y="198.657816"/>
     <use style="fill-opacity:0.3;stroke:#000000;stroke-opacity:0.3;" x="339.448674" xlink:href="#mc7217c99d2" y="202.188451"/>
     <use style="fill-opacity:0.3;stroke:#000000;stroke-opacity:0.3;" x="99.791827" xlink:href="#mc7217c99d2" y="198.12898"/>
     <use style="fill-opacity:0.3;stroke:#000000;stroke-opacity:0.3;" x="105.729685" xlink:href="#mc7217c99d2" y="197.972475"/>
     <use style="fill-opacity:0.3;stroke:#000000;stroke-opacity:0.3;" x="238.076582" xlink:href="#mc7217c99d2" y="200.230814"/>
     <use style="fill-opacity:0.3;stroke:#000000;stroke-opacity:0.3;" x="105.729685" xlink:href="#mc7217c99d2" y="197.972475"/>
     <use style="fill-opacity:0.3;stroke:#000000;stroke-opacity:0.3;" x="208.893708" xlink:href="#mc7217c99d2" y="199.450858"/>
     <use style="fill-opacity:0.3;stroke:#000000;stroke-opacity:0.3;" x="182.918239" xlink:href="#mc7217c99d2" y="200.290593"/>
     <use style="fill-opacity:0.3;stroke:#000000;stroke-opacity:0.3;" x="140.736336" xlink:href="#mc7217c99d2" y="198.612961"/>
     <use style="fill-opacity:0.3;stroke:#000000;stroke-opacity:0.3;" x="339.448674" xlink:href="#mc7217c99d2" y="201.832613"/>
     <use style="fill-opacity:0.3;stroke:#000000;stroke-opacity:0.3;" x="123.287597" xlink:href="#mc7217c99d2" y="200.30212"/>
     <use style="fill-opacity:0.3;stroke:#000000;stroke-opacity:0.3;" x="96.656084" xlink:href="#mc7217c99d2" y="197.648267"/>
     <use style="fill-opacity:0.3;stroke:#000000;stroke-opacity:0.3;" x="339.448674" xlink:href="#mc7217c99d2" y="201.5678"/>
     <use style="fill-opacity:0.3;stroke:#000000;stroke-opacity:0.3;" x="201.544463" xlink:href="#mc7217c99d2" y="196.43336"/>
     <use style="fill-opacity:0.3;stroke:#000000;stroke-opacity:0.3;" x="105.729685" xlink:href="#mc7217c99d2" y="197.972475"/>
     <use style="fill-opacity:0.3;stroke:#000000;stroke-opacity:0.3;" x="99.791827" xlink:href="#mc7217c99d2" y="198.12898"/>
     <use style="fill-opacity:0.3;stroke:#000000;stroke-opacity:0.3;" x="66.299228" xlink:href="#mc7217c99d2" y="200.2097"/>
     <use style="fill-opacity:0.3;stroke:#000000;stroke-opacity:0.3;" x="99.791827" xlink:href="#mc7217c99d2" y="198.12898"/>
     <use style="fill-opacity:0.3;stroke:#000000;stroke-opacity:0.3;" x="131.578936" xlink:href="#mc7217c99d2" y="199.951513"/>
     <use style="fill-opacity:0.3;stroke:#000000;stroke-opacity:0.3;" x="86.018445" xlink:href="#mc7217c99d2" y="201.017811"/>
     <use style="fill-opacity:0.3;stroke:#000000;stroke-opacity:0.3;" x="74.045127" xlink:href="#mc7217c99d2" y="198.374542"/>
     <use style="fill-opacity:0.3;stroke:#000000;stroke-opacity:0.3;" x="87.790685" xlink:href="#mc7217c99d2" y="198.697735"/>
     <use style="fill-opacity:0.3;stroke:#000000;stroke-opacity:0.3;" x="148.082991" xlink:href="#mc7217c99d2" y="200.179068"/>
     <use style="fill-opacity:0.3;stroke:#000000;stroke-opacity:0.3;" x="156.514516" xlink:href="#mc7217c99d2" y="200.899245"/>
     <use style="fill-opacity:0.3;stroke:#000000;stroke-opacity:0.3;" x="131.072708" xlink:href="#mc7217c99d2" y="200.096793"/>
     <use style="fill-opacity:0.3;stroke:#000000;stroke-opacity:0.3;" x="86.018445" xlink:href="#mc7217c99d2" y="201.813029"/>
     <use style="fill-opacity:0.3;stroke:#000000;stroke-opacity:0.3;" x="115.820223" xlink:href="#mc7217c99d2" y="199.853014"/>
     <use style="fill-opacity:0.3;stroke:#000000;stroke-opacity:0.3;" x="191.614374" xlink:href="#mc7217c99d2" y="200.198564"/>
     <use style="fill-opacity:0.3;stroke:#000000;stroke-opacity:0.3;" x="339.448674" xlink:href="#mc7217c99d2" y="165.135975"/>
     <use style="fill-opacity:0.3;stroke:#000000;stroke-opacity:0.3;" x="339.448674" xlink:href="#mc7217c99d2" y="202.135631"/>
     <use style="fill-opacity:0.3;stroke:#000000;stroke-opacity:0.3;" x="212.73356" xlink:href="#mc7217c99d2" y="202.027879"/>
     <use style="fill-opacity:0.3;stroke:#000000;stroke-opacity:0.3;" x="168.530613" xlink:href="#mc7217c99d2" y="199.392995"/>
     <use style="fill-opacity:0.3;stroke:#000000;stroke-opacity:0.3;" x="238.076582" xlink:href="#mc7217c99d2" y="201.206037"/>
     <use style="fill-opacity:0.3;stroke:#000000;stroke-opacity:0.3;" x="212.73356" xlink:href="#mc7217c99d2" y="201.959607"/>
     <use style="fill-opacity:0.3;stroke:#000000;stroke-opacity:0.3;" x="129.88137" xlink:href="#mc7217c99d2" y="199.364339"/>
     <use style="fill-opacity:0.3;stroke:#000000;stroke-opacity:0.3;" x="208.11133" xlink:href="#mc7217c99d2" y="200.186005"/>
     <use style="fill-opacity:0.3;stroke:#000000;stroke-opacity:0.3;" x="196.89417" xlink:href="#mc7217c99d2" y="201.136495"/>
     <use style="fill-opacity:0.3;stroke:#000000;stroke-opacity:0.3;" x="65.904935" xlink:href="#mc7217c99d2" y="198.97302"/>
     <use style="fill-opacity:0.3;stroke:#000000;stroke-opacity:0.3;" x="139.776373" xlink:href="#mc7217c99d2" y="200.134926"/>
     <use style="fill-opacity:0.3;stroke:#000000;stroke-opacity:0.3;" x="150.618308" xlink:href="#mc7217c99d2" y="197.348368"/>
     <use style="fill-opacity:0.3;stroke:#000000;stroke-opacity:0.3;" x="124.719613" xlink:href="#mc7217c99d2" y="196.989707"/>
     <use style="fill-opacity:0.3;stroke:#000000;stroke-opacity:0.3;" x="122.65896" xlink:href="#mc7217c99d2" y="198.559703"/>
     <use style="fill-opacity:0.3;stroke:#000000;stroke-opacity:0.3;" x="339.448674" xlink:href="#mc7217c99d2" y="202.038878"/>
     <use style="fill-opacity:0.3;stroke:#000000;stroke-opacity:0.3;" x="86.018445" xlink:href="#mc7217c99d2" y="200.860483"/>
     <use style="fill-opacity:0.3;stroke:#000000;stroke-opacity:0.3;" x="113.320029" xlink:href="#mc7217c99d2" y="197.229111"/>
     <use style="fill-opacity:0.3;stroke:#000000;stroke-opacity:0.3;" x="190.525756" xlink:href="#mc7217c99d2" y="197.888087"/>
     <use style="fill-opacity:0.3;stroke:#000000;stroke-opacity:0.3;" x="109.057557" xlink:href="#mc7217c99d2" y="201.016831"/>
     <use style="fill-opacity:0.3;stroke:#000000;stroke-opacity:0.3;" x="120.381866" xlink:href="#mc7217c99d2" y="198.463284"/>
     <use style="fill-opacity:0.3;stroke:#000000;stroke-opacity:0.3;" x="105.729685" xlink:href="#mc7217c99d2" y="197.972475"/>
     <use style="fill-opacity:0.3;stroke:#000000;stroke-opacity:0.3;" x="141.649471" xlink:href="#mc7217c99d2" y="200.160713"/>
     <use style="fill-opacity:0.3;stroke:#000000;stroke-opacity:0.3;" x="99.791827" xlink:href="#mc7217c99d2" y="198.12898"/>
     <use style="fill-opacity:0.3;stroke:#000000;stroke-opacity:0.3;" x="148.027969" xlink:href="#mc7217c99d2" y="198.235414"/>
     <use style="fill-opacity:0.3;stroke:#000000;stroke-opacity:0.3;" x="187.390537" xlink:href="#mc7217c99d2" y="201.708141"/>
     <use style="fill-opacity:0.3;stroke:#000000;stroke-opacity:0.3;" x="339.448674" xlink:href="#mc7217c99d2" y="202.120211"/>
     <use style="fill-opacity:0.3;stroke:#000000;stroke-opacity:0.3;" x="176.804172" xlink:href="#mc7217c99d2" y="198.852457"/>
     <use style="fill-opacity:0.3;stroke:#000000;stroke-opacity:0.3;" x="191.694162" xlink:href="#mc7217c99d2" y="201.983947"/>
     <use style="fill-opacity:0.3;stroke:#000000;stroke-opacity:0.3;" x="203.059893" xlink:href="#mc7217c99d2" y="201.00128"/>
     <use style="fill-opacity:0.3;stroke:#000000;stroke-opacity:0.3;" x="221.245064" xlink:href="#mc7217c99d2" y="201.845943"/>
     <use style="fill-opacity:0.3;stroke:#000000;stroke-opacity:0.3;" x="265.571418" xlink:href="#mc7217c99d2" y="202.035165"/>
     <use style="fill-opacity:0.3;stroke:#000000;stroke-opacity:0.3;" x="248.889457" xlink:href="#mc7217c99d2" y="168.689906"/>
     <use style="fill-opacity:0.3;stroke:#000000;stroke-opacity:0.3;" x="339.448674" xlink:href="#mc7217c99d2" y="202.189091"/>
     <use style="fill-opacity:0.3;stroke:#000000;stroke-opacity:0.3;" x="149.376002" xlink:href="#mc7217c99d2" y="201.861983"/>
     <use style="fill-opacity:0.3;stroke:#000000;stroke-opacity:0.3;" x="225.791357" xlink:href="#mc7217c99d2" y="139.188112"/>
     <use style="fill-opacity:0.3;stroke:#000000;stroke-opacity:0.3;" x="118.407924" xlink:href="#mc7217c99d2" y="198.527105"/>
     <use style="fill-opacity:0.3;stroke:#000000;stroke-opacity:0.3;" x="139.372178" xlink:href="#mc7217c99d2" y="200.256"/>
     <use style="fill-opacity:0.3;stroke:#000000;stroke-opacity:0.3;" x="78.098751" xlink:href="#mc7217c99d2" y="200.415051"/>
     <use style="fill-opacity:0.3;stroke:#000000;stroke-opacity:0.3;" x="212.73356" xlink:href="#mc7217c99d2" y="202.025081"/>
     <use style="fill-opacity:0.3;stroke:#000000;stroke-opacity:0.3;" x="102.222424" xlink:href="#mc7217c99d2" y="198.857761"/>
     <use style="fill-opacity:0.3;stroke:#000000;stroke-opacity:0.3;" x="112.13404" xlink:href="#mc7217c99d2" y="201.415862"/>
     <use style="fill-opacity:0.3;stroke:#000000;stroke-opacity:0.3;" x="86.018445" xlink:href="#mc7217c99d2" y="201.083154"/>
     <use style="fill-opacity:0.3;stroke:#000000;stroke-opacity:0.3;" x="140.928328" xlink:href="#mc7217c99d2" y="199.300003"/>
     <use style="fill-opacity:0.3;stroke:#000000;stroke-opacity:0.3;" x="339.448674" xlink:href="#mc7217c99d2" y="202.033193"/>
     <use style="fill-opacity:0.3;stroke:#000000;stroke-opacity:0.3;" x="100.056855" xlink:href="#mc7217c99d2" y="198.194136"/>
     <use style="fill-opacity:0.3;stroke:#000000;stroke-opacity:0.3;" x="191.694162" xlink:href="#mc7217c99d2" y="202.100981"/>
     <use style="fill-opacity:0.3;stroke:#000000;stroke-opacity:0.3;" x="76.885825" xlink:href="#mc7217c99d2" y="198.779471"/>
     <use style="fill-opacity:0.3;stroke:#000000;stroke-opacity:0.3;" x="90.598969" xlink:href="#mc7217c99d2" y="200.00666"/>
     <use style="fill-opacity:0.3;stroke:#000000;stroke-opacity:0.3;" x="339.448674" xlink:href="#mc7217c99d2" y="155.28267"/>
     <use style="fill-opacity:0.3;stroke:#000000;stroke-opacity:0.3;" x="126.336891" xlink:href="#mc7217c99d2" y="200.301761"/>
     <use style="fill-opacity:0.3;stroke:#000000;stroke-opacity:0.3;" x="140.928328" xlink:href="#mc7217c99d2" y="199.300003"/>
     <use style="fill-opacity:0.3;stroke:#000000;stroke-opacity:0.3;" x="126.336891" xlink:href="#mc7217c99d2" y="200.301761"/>
     <use style="fill-opacity:0.3;stroke:#000000;stroke-opacity:0.3;" x="76.773986" xlink:href="#mc7217c99d2" y="200.141014"/>
     <use style="fill-opacity:0.3;stroke:#000000;stroke-opacity:0.3;" x="126.180369" xlink:href="#mc7217c99d2" y="197.847483"/>
     <use style="fill-opacity:0.3;stroke:#000000;stroke-opacity:0.3;" x="77.10903" xlink:href="#mc7217c99d2" y="199.060611"/>
     <use style="fill-opacity:0.3;stroke:#000000;stroke-opacity:0.3;" x="201.618199" xlink:href="#mc7217c99d2" y="198.045805"/>
     <use style="fill-opacity:0.3;stroke:#000000;stroke-opacity:0.3;" x="339.448674" xlink:href="#mc7217c99d2" y="139.420375"/>
     <use style="fill-opacity:0.3;stroke:#000000;stroke-opacity:0.3;" x="141.456308" xlink:href="#mc7217c99d2" y="199.910578"/>
     <use style="fill-opacity:0.3;stroke:#000000;stroke-opacity:0.3;" x="339.448674" xlink:href="#mc7217c99d2" y="202.093726"/>
     <use style="fill-opacity:0.3;stroke:#000000;stroke-opacity:0.3;" x="150.618308" xlink:href="#mc7217c99d2" y="197.348368"/>
     <use style="fill-opacity:0.3;stroke:#000000;stroke-opacity:0.3;" x="97.037151" xlink:href="#mc7217c99d2" y="200.281701"/>
     <use style="fill-opacity:0.3;stroke:#000000;stroke-opacity:0.3;" x="72.441826" xlink:href="#mc7217c99d2" y="198.409562"/>
     <use style="fill-opacity:0.3;stroke:#000000;stroke-opacity:0.3;" x="162.143259" xlink:href="#mc7217c99d2" y="201.842012"/>
     <use style="fill-opacity:0.3;stroke:#000000;stroke-opacity:0.3;" x="187.390537" xlink:href="#mc7217c99d2" y="201.412854"/>
     <use style="fill-opacity:0.3;stroke:#000000;stroke-opacity:0.3;" x="101.857835" xlink:href="#mc7217c99d2" y="201.159605"/>
     <use style="fill-opacity:0.3;stroke:#000000;stroke-opacity:0.3;" x="101.857835" xlink:href="#mc7217c99d2" y="198.728815"/>
     <use style="fill-opacity:0.3;stroke:#000000;stroke-opacity:0.3;" x="138.09315" xlink:href="#mc7217c99d2" y="198.747632"/>
     <use style="fill-opacity:0.3;stroke:#000000;stroke-opacity:0.3;" x="83.036913" xlink:href="#mc7217c99d2" y="197.976077"/>
     <use style="fill-opacity:0.3;stroke:#000000;stroke-opacity:0.3;" x="75.23418" xlink:href="#mc7217c99d2" y="198.52025"/>
     <use style="fill-opacity:0.3;stroke:#000000;stroke-opacity:0.3;" x="156.978909" xlink:href="#mc7217c99d2" y="200.582198"/>
     <use style="fill-opacity:0.3;stroke:#000000;stroke-opacity:0.3;" x="149.376002" xlink:href="#mc7217c99d2" y="201.861983"/>
     <use style="fill-opacity:0.3;stroke:#000000;stroke-opacity:0.3;" x="86.018445" xlink:href="#mc7217c99d2" y="202.126334"/>
     <use style="fill-opacity:0.3;stroke:#000000;stroke-opacity:0.3;" x="130.854069" xlink:href="#mc7217c99d2" y="200.271074"/>
     <use style="fill-opacity:0.3;stroke:#000000;stroke-opacity:0.3;" x="175.464408" xlink:href="#mc7217c99d2" y="201.224"/>
     <use style="fill-opacity:0.3;stroke:#000000;stroke-opacity:0.3;" x="75.045863" xlink:href="#mc7217c99d2" y="200.402881"/>
     <use style="fill-opacity:0.3;stroke:#000000;stroke-opacity:0.3;" x="140.979218" xlink:href="#mc7217c99d2" y="197.919824"/>
     <use style="fill-opacity:0.3;stroke:#000000;stroke-opacity:0.3;" x="86.018445" xlink:href="#mc7217c99d2" y="202.089184"/>
     <use style="fill-opacity:0.3;stroke:#000000;stroke-opacity:0.3;" x="230.835719" xlink:href="#mc7217c99d2" y="200.738156"/>
     <use style="fill-opacity:0.3;stroke:#000000;stroke-opacity:0.3;" x="191.694162" xlink:href="#mc7217c99d2" y="200.500762"/>
     <use style="fill-opacity:0.3;stroke:#000000;stroke-opacity:0.3;" x="96.656084" xlink:href="#mc7217c99d2" y="197.648267"/>
     <use style="fill-opacity:0.3;stroke:#000000;stroke-opacity:0.3;" x="339.448674" xlink:href="#mc7217c99d2" y="202.079421"/>
     <use style="fill-opacity:0.3;stroke:#000000;stroke-opacity:0.3;" x="156.514516" xlink:href="#mc7217c99d2" y="200.899245"/>
     <use style="fill-opacity:0.3;stroke:#000000;stroke-opacity:0.3;" x="339.448674" xlink:href="#mc7217c99d2" y="198.600767"/>
     <use style="fill-opacity:0.3;stroke:#000000;stroke-opacity:0.3;" x="339.448674" xlink:href="#mc7217c99d2" y="202.078833"/>
     <use style="fill-opacity:0.3;stroke:#000000;stroke-opacity:0.3;" x="131.072708" xlink:href="#mc7217c99d2" y="200.096793"/>
     <use style="fill-opacity:0.3;stroke:#000000;stroke-opacity:0.3;" x="212.801949" xlink:href="#mc7217c99d2" y="200.295781"/>
     <use style="fill-opacity:0.3;stroke:#000000;stroke-opacity:0.3;" x="129.713312" xlink:href="#mc7217c99d2" y="199.052339"/>
     <use style="fill-opacity:0.3;stroke:#000000;stroke-opacity:0.3;" x="119.529881" xlink:href="#mc7217c99d2" y="196.787555"/>
     <use style="fill-opacity:0.3;stroke:#000000;stroke-opacity:0.3;" x="131.578936" xlink:href="#mc7217c99d2" y="199.951513"/>
     <use style="fill-opacity:0.3;stroke:#000000;stroke-opacity:0.3;" x="95.282917" xlink:href="#mc7217c99d2" y="197.022918"/>
     <use style="fill-opacity:0.3;stroke:#000000;stroke-opacity:0.3;" x="218.242912" xlink:href="#mc7217c99d2" y="199.896953"/>
     <use style="fill-opacity:0.3;stroke:#000000;stroke-opacity:0.3;" x="212.73356" xlink:href="#mc7217c99d2" y="201.590866"/>
     <use style="fill-opacity:0.3;stroke:#000000;stroke-opacity:0.3;" x="83.748921" xlink:href="#mc7217c99d2" y="197.980568"/>
     <use style="fill-opacity:0.3;stroke:#000000;stroke-opacity:0.3;" x="238.076582" xlink:href="#mc7217c99d2" y="200.633164"/>
     <use style="fill-opacity:0.3;stroke:#000000;stroke-opacity:0.3;" x="267.040037" xlink:href="#mc7217c99d2" y="201.6836"/>
     <use style="fill-opacity:0.3;stroke:#000000;stroke-opacity:0.3;" x="196.89417" xlink:href="#mc7217c99d2" y="198.80423"/>
     <use style="fill-opacity:0.3;stroke:#000000;stroke-opacity:0.3;" x="132.592357" xlink:href="#mc7217c99d2" y="199.356592"/>
     <use style="fill-opacity:0.3;stroke:#000000;stroke-opacity:0.3;" x="212.73356" xlink:href="#mc7217c99d2" y="200.732468"/>
     <use style="fill-opacity:0.3;stroke:#000000;stroke-opacity:0.3;" x="66.671113" xlink:href="#mc7217c99d2" y="198.637408"/>
     <use style="fill-opacity:0.3;stroke:#000000;stroke-opacity:0.3;" x="339.448674" xlink:href="#mc7217c99d2" y="202.151276"/>
     <use style="fill-opacity:0.3;stroke:#000000;stroke-opacity:0.3;" x="171.51298" xlink:href="#mc7217c99d2" y="199.173017"/>
     <use style="fill-opacity:0.3;stroke:#000000;stroke-opacity:0.3;" x="133.8886" xlink:href="#mc7217c99d2" y="200.078904"/>
     <use style="fill-opacity:0.3;stroke:#000000;stroke-opacity:0.3;" x="170.495188" xlink:href="#mc7217c99d2" y="201.582915"/>
     <use style="fill-opacity:0.3;stroke:#000000;stroke-opacity:0.3;" x="156.514516" xlink:href="#mc7217c99d2" y="200.899245"/>
     <use style="fill-opacity:0.3;stroke:#000000;stroke-opacity:0.3;" x="163.009907" xlink:href="#mc7217c99d2" y="199.552155"/>
     <use style="fill-opacity:0.3;stroke:#000000;stroke-opacity:0.3;" x="339.448674" xlink:href="#mc7217c99d2" y="201.743361"/>
     <use style="fill-opacity:0.3;stroke:#000000;stroke-opacity:0.3;" x="339.448674" xlink:href="#mc7217c99d2" y="202.151276"/>
     <use style="fill-opacity:0.3;stroke:#000000;stroke-opacity:0.3;" x="109.777529" xlink:href="#mc7217c99d2" y="199.707061"/>
     <use style="fill-opacity:0.3;stroke:#000000;stroke-opacity:0.3;" x="102.705649" xlink:href="#mc7217c99d2" y="198.057882"/>
     <use style="fill-opacity:0.3;stroke:#000000;stroke-opacity:0.3;" x="102.705649" xlink:href="#mc7217c99d2" y="198.057882"/>
     <use style="fill-opacity:0.3;stroke:#000000;stroke-opacity:0.3;" x="339.448674" xlink:href="#mc7217c99d2" y="202.182517"/>
     <use style="fill-opacity:0.3;stroke:#000000;stroke-opacity:0.3;" x="126.682177" xlink:href="#mc7217c99d2" y="201.123381"/>
     <use style="fill-opacity:0.3;stroke:#000000;stroke-opacity:0.3;" x="118.371241" xlink:href="#mc7217c99d2" y="199.666203"/>
     <use style="fill-opacity:0.3;stroke:#000000;stroke-opacity:0.3;" x="139.776373" xlink:href="#mc7217c99d2" y="199.488828"/>
     <use style="fill-opacity:0.3;stroke:#000000;stroke-opacity:0.3;" x="83.340853" xlink:href="#mc7217c99d2" y="201.287464"/>
     <use style="fill-opacity:0.3;stroke:#000000;stroke-opacity:0.3;" x="206.064343" xlink:href="#mc7217c99d2" y="189.402217"/>
     <use style="fill-opacity:0.3;stroke:#000000;stroke-opacity:0.3;" x="183.49161" xlink:href="#mc7217c99d2" y="199.559929"/>
     <use style="fill-opacity:0.3;stroke:#000000;stroke-opacity:0.3;" x="130.368735" xlink:href="#mc7217c99d2" y="199.254638"/>
     <use style="fill-opacity:0.3;stroke:#000000;stroke-opacity:0.3;" x="89.309747" xlink:href="#mc7217c99d2" y="198.958098"/>
     <use style="fill-opacity:0.3;stroke:#000000;stroke-opacity:0.3;" x="168.870635" xlink:href="#mc7217c99d2" y="197.928329"/>
     <use style="fill-opacity:0.3;stroke:#000000;stroke-opacity:0.3;" x="123.287597" xlink:href="#mc7217c99d2" y="200.30212"/>
     <use style="fill-opacity:0.3;stroke:#000000;stroke-opacity:0.3;" x="71.893206" xlink:href="#mc7217c99d2" y="199.338433"/>
     <use style="fill-opacity:0.3;stroke:#000000;stroke-opacity:0.3;" x="100.526484" xlink:href="#mc7217c99d2" y="200.182938"/>
     <use style="fill-opacity:0.3;stroke:#000000;stroke-opacity:0.3;" x="339.448674" xlink:href="#mc7217c99d2" y="193.564922"/>
     <use style="fill-opacity:0.3;stroke:#000000;stroke-opacity:0.3;" x="119.605584" xlink:href="#mc7217c99d2" y="199.984489"/>
     <use style="fill-opacity:0.3;stroke:#000000;stroke-opacity:0.3;" x="221.784639" xlink:href="#mc7217c99d2" y="197.94772"/>
     <use style="fill-opacity:0.3;stroke:#000000;stroke-opacity:0.3;" x="154.655799" xlink:href="#mc7217c99d2" y="199.449628"/>
     <use style="fill-opacity:0.3;stroke:#000000;stroke-opacity:0.3;" x="142.442658" xlink:href="#mc7217c99d2" y="202.031664"/>
     <use style="fill-opacity:0.3;stroke:#000000;stroke-opacity:0.3;" x="179.387477" xlink:href="#mc7217c99d2" y="196.89222"/>
     <use style="fill-opacity:0.3;stroke:#000000;stroke-opacity:0.3;" x="339.448674" xlink:href="#mc7217c99d2" y="202.182517"/>
     <use style="fill-opacity:0.3;stroke:#000000;stroke-opacity:0.3;" x="115.833766" xlink:href="#mc7217c99d2" y="200.214151"/>
     <use style="fill-opacity:0.3;stroke:#000000;stroke-opacity:0.3;" x="86.018445" xlink:href="#mc7217c99d2" y="201.759661"/>
     <use style="fill-opacity:0.3;stroke:#000000;stroke-opacity:0.3;" x="122.65896" xlink:href="#mc7217c99d2" y="198.559703"/>
     <use style="fill-opacity:0.3;stroke:#000000;stroke-opacity:0.3;" x="339.448674" xlink:href="#mc7217c99d2" y="201.832613"/>
     <use style="fill-opacity:0.3;stroke:#000000;stroke-opacity:0.3;" x="106.292864" xlink:href="#mc7217c99d2" y="199.847773"/>
     <use style="fill-opacity:0.3;stroke:#000000;stroke-opacity:0.3;" x="106.026095" xlink:href="#mc7217c99d2" y="197.021975"/>
     <use style="fill-opacity:0.3;stroke:#000000;stroke-opacity:0.3;" x="272.756508" xlink:href="#mc7217c99d2" y="200.36383"/>
     <use style="fill-opacity:0.3;stroke:#000000;stroke-opacity:0.3;" x="339.448674" xlink:href="#mc7217c99d2" y="179.656867"/>
    </g>
   </g>
   <g id="matplotlib.axis_1">
    <g id="xtick_1">
     <g id="line2d_1">
      <defs>
       <path d="M 0 0 
L 0 3.5 
" id="m1de8d2622a" style="stroke:#000000;stroke-width:0.8;"/>
      </defs>
      <g>
       <use style="stroke:#000000;stroke-width:0.8;" x="65.786621" xlink:href="#m1de8d2622a" y="202.2"/>
      </g>
     </g>
     <g id="text_1">
      <!-- 0.0 -->
      <defs>
       <path d="M 4.15625 35.296875 
Q 4.15625 48 6.765625 55.734375 
Q 9.375 63.484375 14.515625 67.671875 
Q 19.671875 71.875 27.484375 71.875 
Q 33.25 71.875 37.59375 69.546875 
Q 41.9375 67.234375 44.765625 62.859375 
Q 47.609375 58.5 49.21875 52.21875 
Q 50.828125 45.953125 50.828125 35.296875 
Q 50.828125 22.703125 48.234375 14.96875 
Q 45.65625 7.234375 40.5 3 
Q 35.359375 -1.21875 27.484375 -1.21875 
Q 17.140625 -1.21875 11.234375 6.203125 
Q 4.15625 15.140625 4.15625 35.296875 
z
M 13.1875 35.296875 
Q 13.1875 17.671875 17.3125 11.828125 
Q 21.4375 6 27.484375 6 
Q 33.546875 6 37.671875 11.859375 
Q 41.796875 17.71875 41.796875 35.296875 
Q 41.796875 52.984375 37.671875 58.78125 
Q 33.546875 64.59375 27.390625 64.59375 
Q 21.34375 64.59375 17.71875 59.46875 
Q 13.1875 52.9375 13.1875 35.296875 
z
" id="ArialMT-48"/>
       <path d="M 9.078125 0 
L 9.078125 10.015625 
L 19.09375 10.015625 
L 19.09375 0 
z
" id="ArialMT-46"/>
      </defs>
      <g transform="translate(56.056621 219.220938)scale(0.14 -0.14)">
       <use xlink:href="#ArialMT-48"/>
       <use x="55.615234" xlink:href="#ArialMT-46"/>
       <use x="83.398438" xlink:href="#ArialMT-48"/>
      </g>
     </g>
    </g>
    <g id="xtick_2">
     <g id="line2d_2">
      <g>
       <use style="stroke:#000000;stroke-width:0.8;" x="120.519031" xlink:href="#m1de8d2622a" y="202.2"/>
      </g>
     </g>
     <g id="text_2">
      <!-- 0.2 -->
      <defs>
       <path d="M 50.34375 8.453125 
L 50.34375 0 
L 3.03125 0 
Q 2.9375 3.171875 4.046875 6.109375 
Q 5.859375 10.9375 9.828125 15.625 
Q 13.8125 20.3125 21.34375 26.46875 
Q 33.015625 36.03125 37.109375 41.625 
Q 41.21875 47.21875 41.21875 52.203125 
Q 41.21875 57.421875 37.46875 61 
Q 33.734375 64.59375 27.734375 64.59375 
Q 21.390625 64.59375 17.578125 60.78125 
Q 13.765625 56.984375 13.71875 50.25 
L 4.6875 51.171875 
Q 5.609375 61.28125 11.65625 66.578125 
Q 17.71875 71.875 27.9375 71.875 
Q 38.234375 71.875 44.234375 66.15625 
Q 50.25 60.453125 50.25 52 
Q 50.25 47.703125 48.484375 43.546875 
Q 46.734375 39.40625 42.65625 34.8125 
Q 38.578125 30.21875 29.109375 22.21875 
Q 21.1875 15.578125 18.9375 13.203125 
Q 16.703125 10.84375 15.234375 8.453125 
z
" id="ArialMT-50"/>
      </defs>
      <g transform="translate(110.789031 219.220938)scale(0.14 -0.14)">
       <use xlink:href="#ArialMT-48"/>
       <use x="55.615234" xlink:href="#ArialMT-46"/>
       <use x="83.398438" xlink:href="#ArialMT-50"/>
      </g>
     </g>
    </g>
    <g id="xtick_3">
     <g id="line2d_3">
      <g>
       <use style="stroke:#000000;stroke-width:0.8;" x="175.251442" xlink:href="#m1de8d2622a" y="202.2"/>
      </g>
     </g>
     <g id="text_3">
      <!-- 0.4 -->
      <defs>
       <path d="M 32.328125 0 
L 32.328125 17.140625 
L 1.265625 17.140625 
L 1.265625 25.203125 
L 33.9375 71.578125 
L 41.109375 71.578125 
L 41.109375 25.203125 
L 50.78125 25.203125 
L 50.78125 17.140625 
L 41.109375 17.140625 
L 41.109375 0 
z
M 32.328125 25.203125 
L 32.328125 57.46875 
L 9.90625 25.203125 
z
" id="ArialMT-52"/>
      </defs>
      <g transform="translate(165.521442 219.220938)scale(0.14 -0.14)">
       <use xlink:href="#ArialMT-48"/>
       <use x="55.615234" xlink:href="#ArialMT-46"/>
       <use x="83.398438" xlink:href="#ArialMT-52"/>
      </g>
     </g>
    </g>
    <g id="xtick_4">
     <g id="line2d_4">
      <g>
       <use style="stroke:#000000;stroke-width:0.8;" x="229.983852" xlink:href="#m1de8d2622a" y="202.2"/>
      </g>
     </g>
     <g id="text_4">
      <!-- 0.6 -->
      <defs>
       <path d="M 49.75 54.046875 
L 41.015625 53.375 
Q 39.84375 58.546875 37.703125 60.890625 
Q 34.125 64.65625 28.90625 64.65625 
Q 24.703125 64.65625 21.53125 62.3125 
Q 17.390625 59.28125 14.984375 53.46875 
Q 12.59375 47.65625 12.5 36.921875 
Q 15.671875 41.75 20.265625 44.09375 
Q 24.859375 46.4375 29.890625 46.4375 
Q 38.671875 46.4375 44.84375 39.96875 
Q 51.03125 33.5 51.03125 23.25 
Q 51.03125 16.5 48.125 10.71875 
Q 45.21875 4.9375 40.140625 1.859375 
Q 35.0625 -1.21875 28.609375 -1.21875 
Q 17.625 -1.21875 10.6875 6.859375 
Q 3.765625 14.9375 3.765625 33.5 
Q 3.765625 54.25 11.421875 63.671875 
Q 18.109375 71.875 29.4375 71.875 
Q 37.890625 71.875 43.28125 67.140625 
Q 48.6875 62.40625 49.75 54.046875 
z
M 13.875 23.1875 
Q 13.875 18.65625 15.796875 14.5 
Q 17.71875 10.359375 21.1875 8.171875 
Q 24.65625 6 28.46875 6 
Q 34.03125 6 38.03125 10.484375 
Q 42.046875 14.984375 42.046875 22.703125 
Q 42.046875 30.125 38.078125 34.390625 
Q 34.125 38.671875 28.125 38.671875 
Q 22.171875 38.671875 18.015625 34.390625 
Q 13.875 30.125 13.875 23.1875 
z
" id="ArialMT-54"/>
      </defs>
      <g transform="translate(220.253852 219.220938)scale(0.14 -0.14)">
       <use xlink:href="#ArialMT-48"/>
       <use x="55.615234" xlink:href="#ArialMT-46"/>
       <use x="83.398438" xlink:href="#ArialMT-54"/>
      </g>
     </g>
    </g>
    <g id="xtick_5">
     <g id="line2d_5">
      <g>
       <use style="stroke:#000000;stroke-width:0.8;" x="284.716263" xlink:href="#m1de8d2622a" y="202.2"/>
      </g>
     </g>
     <g id="text_5">
      <!-- 0.8 -->
      <defs>
       <path d="M 17.671875 38.8125 
Q 12.203125 40.828125 9.5625 44.53125 
Q 6.9375 48.25 6.9375 53.421875 
Q 6.9375 61.234375 12.546875 66.546875 
Q 18.171875 71.875 27.484375 71.875 
Q 36.859375 71.875 42.578125 66.421875 
Q 48.296875 60.984375 48.296875 53.171875 
Q 48.296875 48.1875 45.671875 44.5 
Q 43.0625 40.828125 37.75 38.8125 
Q 44.34375 36.671875 47.78125 31.875 
Q 51.21875 27.09375 51.21875 20.453125 
Q 51.21875 11.28125 44.71875 5.03125 
Q 38.234375 -1.21875 27.640625 -1.21875 
Q 17.046875 -1.21875 10.546875 5.046875 
Q 4.046875 11.328125 4.046875 20.703125 
Q 4.046875 27.6875 7.59375 32.390625 
Q 11.140625 37.109375 17.671875 38.8125 
z
M 15.921875 53.71875 
Q 15.921875 48.640625 19.1875 45.40625 
Q 22.46875 42.1875 27.6875 42.1875 
Q 32.765625 42.1875 36.015625 45.375 
Q 39.265625 48.578125 39.265625 53.21875 
Q 39.265625 58.0625 35.90625 61.359375 
Q 32.5625 64.65625 27.59375 64.65625 
Q 22.5625 64.65625 19.234375 61.421875 
Q 15.921875 58.203125 15.921875 53.71875 
z
M 13.09375 20.65625 
Q 13.09375 16.890625 14.875 13.375 
Q 16.65625 9.859375 20.171875 7.921875 
Q 23.6875 6 27.734375 6 
Q 34.03125 6 38.125 10.046875 
Q 42.234375 14.109375 42.234375 20.359375 
Q 42.234375 26.703125 38.015625 30.859375 
Q 33.796875 35.015625 27.4375 35.015625 
Q 21.234375 35.015625 17.15625 30.90625 
Q 13.09375 26.8125 13.09375 20.65625 
z
" id="ArialMT-56"/>
      </defs>
      <g transform="translate(274.986263 219.220938)scale(0.14 -0.14)">
       <use xlink:href="#ArialMT-48"/>
       <use x="55.615234" xlink:href="#ArialMT-46"/>
       <use x="83.398438" xlink:href="#ArialMT-56"/>
      </g>
     </g>
    </g>
    <g id="xtick_6">
     <g id="line2d_6">
      <g>
       <use style="stroke:#000000;stroke-width:0.8;" x="339.448674" xlink:href="#m1de8d2622a" y="202.2"/>
      </g>
     </g>
     <g id="text_6">
      <!-- 1.0 -->
      <defs>
       <path d="M 37.25 0 
L 28.46875 0 
L 28.46875 56 
Q 25.296875 52.984375 20.140625 49.953125 
Q 14.984375 46.921875 10.890625 45.40625 
L 10.890625 53.90625 
Q 18.265625 57.375 23.78125 62.296875 
Q 29.296875 67.234375 31.59375 71.875 
L 37.25 71.875 
z
" id="ArialMT-49"/>
      </defs>
      <g transform="translate(329.718674 219.220938)scale(0.14 -0.14)">
       <use xlink:href="#ArialMT-49"/>
       <use x="55.615234" xlink:href="#ArialMT-46"/>
       <use x="83.398438" xlink:href="#ArialMT-48"/>
      </g>
     </g>
    </g>
    <g id="text_7">
     <!-- cluster ratio -->
     <defs>
      <path d="M 40.4375 19 
L 49.078125 17.875 
Q 47.65625 8.9375 41.8125 3.875 
Q 35.984375 -1.171875 27.484375 -1.171875 
Q 16.84375 -1.171875 10.375 5.78125 
Q 3.90625 12.75 3.90625 25.734375 
Q 3.90625 34.125 6.6875 40.421875 
Q 9.46875 46.734375 15.15625 49.875 
Q 20.84375 53.03125 27.546875 53.03125 
Q 35.984375 53.03125 41.359375 48.75 
Q 46.734375 44.484375 48.25 36.625 
L 39.703125 35.296875 
Q 38.484375 40.53125 35.375 43.15625 
Q 32.28125 45.796875 27.875 45.796875 
Q 21.234375 45.796875 17.078125 41.03125 
Q 12.9375 36.28125 12.9375 25.984375 
Q 12.9375 15.53125 16.9375 10.796875 
Q 20.953125 6.0625 27.390625 6.0625 
Q 32.5625 6.0625 36.03125 9.234375 
Q 39.5 12.40625 40.4375 19 
z
" id="ArialMT-99"/>
      <path d="M 6.390625 0 
L 6.390625 71.578125 
L 15.1875 71.578125 
L 15.1875 0 
z
" id="ArialMT-108"/>
      <path d="M 40.578125 0 
L 40.578125 7.625 
Q 34.515625 -1.171875 24.125 -1.171875 
Q 19.53125 -1.171875 15.546875 0.578125 
Q 11.578125 2.34375 9.640625 5 
Q 7.71875 7.671875 6.9375 11.53125 
Q 6.390625 14.109375 6.390625 19.734375 
L 6.390625 51.859375 
L 15.1875 51.859375 
L 15.1875 23.09375 
Q 15.1875 16.21875 15.71875 13.8125 
Q 16.546875 10.359375 19.234375 8.375 
Q 21.921875 6.390625 25.875 6.390625 
Q 29.828125 6.390625 33.296875 8.421875 
Q 36.765625 10.453125 38.203125 13.9375 
Q 39.65625 17.4375 39.65625 24.078125 
L 39.65625 51.859375 
L 48.4375 51.859375 
L 48.4375 0 
z
" id="ArialMT-117"/>
      <path d="M 3.078125 15.484375 
L 11.765625 16.84375 
Q 12.5 11.625 15.84375 8.84375 
Q 19.1875 6.0625 25.203125 6.0625 
Q 31.25 6.0625 34.171875 8.515625 
Q 37.109375 10.984375 37.109375 14.3125 
Q 37.109375 17.28125 34.515625 19 
Q 32.71875 20.171875 25.53125 21.96875 
Q 15.875 24.421875 12.140625 26.203125 
Q 8.40625 27.984375 6.46875 31.125 
Q 4.546875 34.28125 4.546875 38.09375 
Q 4.546875 41.546875 6.125 44.5 
Q 7.71875 47.46875 10.453125 49.421875 
Q 12.5 50.921875 16.03125 51.96875 
Q 19.578125 53.03125 23.640625 53.03125 
Q 29.734375 53.03125 34.34375 51.265625 
Q 38.96875 49.515625 41.15625 46.5 
Q 43.359375 43.5 44.1875 38.484375 
L 35.59375 37.3125 
Q 35.015625 41.3125 32.203125 43.546875 
Q 29.390625 45.796875 24.265625 45.796875 
Q 18.21875 45.796875 15.625 43.796875 
Q 13.03125 41.796875 13.03125 39.109375 
Q 13.03125 37.40625 14.109375 36.03125 
Q 15.1875 34.625 17.484375 33.6875 
Q 18.796875 33.203125 25.25 31.453125 
Q 34.578125 28.953125 38.25 27.359375 
Q 41.9375 25.78125 44.03125 22.75 
Q 46.140625 19.734375 46.140625 15.234375 
Q 46.140625 10.84375 43.578125 6.953125 
Q 41.015625 3.078125 36.171875 0.953125 
Q 31.34375 -1.171875 25.25 -1.171875 
Q 15.140625 -1.171875 9.84375 3.03125 
Q 4.546875 7.234375 3.078125 15.484375 
z
" id="ArialMT-115"/>
      <path d="M 25.78125 7.859375 
L 27.046875 0.09375 
Q 23.34375 -0.6875 20.40625 -0.6875 
Q 15.625 -0.6875 12.984375 0.828125 
Q 10.359375 2.34375 9.28125 4.8125 
Q 8.203125 7.28125 8.203125 15.1875 
L 8.203125 45.015625 
L 1.765625 45.015625 
L 1.765625 51.859375 
L 8.203125 51.859375 
L 8.203125 64.703125 
L 16.9375 69.96875 
L 16.9375 51.859375 
L 25.78125 51.859375 
L 25.78125 45.015625 
L 16.9375 45.015625 
L 16.9375 14.703125 
Q 16.9375 10.9375 17.40625 9.859375 
Q 17.875 8.796875 18.921875 8.15625 
Q 19.96875 7.515625 21.921875 7.515625 
Q 23.390625 7.515625 25.78125 7.859375 
z
" id="ArialMT-116"/>
      <path d="M 42.09375 16.703125 
L 51.171875 15.578125 
Q 49.03125 7.625 43.21875 3.21875 
Q 37.40625 -1.171875 28.375 -1.171875 
Q 17 -1.171875 10.328125 5.828125 
Q 3.65625 12.84375 3.65625 25.484375 
Q 3.65625 38.578125 10.390625 45.796875 
Q 17.140625 53.03125 27.875 53.03125 
Q 38.28125 53.03125 44.875 45.953125 
Q 51.46875 38.875 51.46875 26.03125 
Q 51.46875 25.25 51.421875 23.6875 
L 12.75 23.6875 
Q 13.234375 15.140625 17.578125 10.59375 
Q 21.921875 6.0625 28.421875 6.0625 
Q 33.25 6.0625 36.671875 8.59375 
Q 40.09375 11.140625 42.09375 16.703125 
z
M 13.234375 30.90625 
L 42.1875 30.90625 
Q 41.609375 37.453125 38.875 40.71875 
Q 34.671875 45.796875 27.984375 45.796875 
Q 21.921875 45.796875 17.796875 41.75 
Q 13.671875 37.703125 13.234375 30.90625 
z
" id="ArialMT-101"/>
      <path d="M 6.5 0 
L 6.5 51.859375 
L 14.40625 51.859375 
L 14.40625 44 
Q 17.4375 49.515625 20 51.265625 
Q 22.5625 53.03125 25.640625 53.03125 
Q 30.078125 53.03125 34.671875 50.203125 
L 31.640625 42.046875 
Q 28.421875 43.953125 25.203125 43.953125 
Q 22.3125 43.953125 20.015625 42.21875 
Q 17.71875 40.484375 16.75 37.40625 
Q 15.28125 32.71875 15.28125 27.15625 
L 15.28125 0 
z
" id="ArialMT-114"/>
      <path id="ArialMT-32"/>
      <path d="M 40.4375 6.390625 
Q 35.546875 2.25 31.03125 0.53125 
Q 26.515625 -1.171875 21.34375 -1.171875 
Q 12.796875 -1.171875 8.203125 3 
Q 3.609375 7.171875 3.609375 13.671875 
Q 3.609375 17.484375 5.34375 20.625 
Q 7.078125 23.78125 9.890625 25.6875 
Q 12.703125 27.59375 16.21875 28.5625 
Q 18.796875 29.25 24.03125 29.890625 
Q 34.671875 31.15625 39.703125 32.90625 
Q 39.75 34.71875 39.75 35.203125 
Q 39.75 40.578125 37.25 42.78125 
Q 33.890625 45.75 27.25 45.75 
Q 21.046875 45.75 18.09375 43.578125 
Q 15.140625 41.40625 13.71875 35.890625 
L 5.125 37.0625 
Q 6.296875 42.578125 8.984375 45.96875 
Q 11.671875 49.359375 16.75 51.1875 
Q 21.828125 53.03125 28.515625 53.03125 
Q 35.15625 53.03125 39.296875 51.46875 
Q 43.453125 49.90625 45.40625 47.53125 
Q 47.359375 45.171875 48.140625 41.546875 
Q 48.578125 39.3125 48.578125 33.453125 
L 48.578125 21.734375 
Q 48.578125 9.46875 49.140625 6.21875 
Q 49.703125 2.984375 51.375 0 
L 42.1875 0 
Q 40.828125 2.734375 40.4375 6.390625 
z
M 39.703125 26.03125 
Q 34.90625 24.078125 25.34375 22.703125 
Q 19.921875 21.921875 17.671875 20.9375 
Q 15.4375 19.96875 14.203125 18.09375 
Q 12.984375 16.21875 12.984375 13.921875 
Q 12.984375 10.40625 15.640625 8.0625 
Q 18.3125 5.71875 23.4375 5.71875 
Q 28.515625 5.71875 32.46875 7.9375 
Q 36.421875 10.15625 38.28125 14.015625 
Q 39.703125 17 39.703125 22.796875 
z
" id="ArialMT-97"/>
      <path d="M 6.640625 61.46875 
L 6.640625 71.578125 
L 15.4375 71.578125 
L 15.4375 61.46875 
z
M 6.640625 0 
L 6.640625 51.859375 
L 15.4375 51.859375 
L 15.4375 0 
z
" id="ArialMT-105"/>
      <path d="M 3.328125 25.921875 
Q 3.328125 40.328125 11.328125 47.265625 
Q 18.015625 53.03125 27.640625 53.03125 
Q 38.328125 53.03125 45.109375 46.015625 
Q 51.90625 39.015625 51.90625 26.65625 
Q 51.90625 16.65625 48.90625 10.90625 
Q 45.90625 5.171875 40.15625 2 
Q 34.421875 -1.171875 27.640625 -1.171875 
Q 16.75 -1.171875 10.03125 5.8125 
Q 3.328125 12.796875 3.328125 25.921875 
z
M 12.359375 25.921875 
Q 12.359375 15.96875 16.703125 11.015625 
Q 21.046875 6.0625 27.640625 6.0625 
Q 34.1875 6.0625 38.53125 11.03125 
Q 42.875 16.015625 42.875 26.21875 
Q 42.875 35.84375 38.5 40.796875 
Q 34.125 45.75 27.640625 45.75 
Q 21.046875 45.75 16.703125 40.8125 
Q 12.359375 35.890625 12.359375 25.921875 
z
" id="ArialMT-111"/>
     </defs>
     <g transform="translate(166.440772 236.024375)scale(0.14 -0.14)">
      <use xlink:href="#ArialMT-99"/>
      <use x="50" xlink:href="#ArialMT-108"/>
      <use x="72.216797" xlink:href="#ArialMT-117"/>
      <use x="127.832031" xlink:href="#ArialMT-115"/>
      <use x="177.832031" xlink:href="#ArialMT-116"/>
      <use x="205.615234" xlink:href="#ArialMT-101"/>
      <use x="261.230469" xlink:href="#ArialMT-114"/>
      <use x="294.53125" xlink:href="#ArialMT-32"/>
      <use x="322.314453" xlink:href="#ArialMT-114"/>
      <use x="355.615234" xlink:href="#ArialMT-97"/>
      <use x="411.230469" xlink:href="#ArialMT-116"/>
      <use x="439.013672" xlink:href="#ArialMT-105"/>
      <use x="461.230469" xlink:href="#ArialMT-111"/>
     </g>
    </g>
   </g>
   <g id="matplotlib.axis_2">
    <g id="ytick_1">
     <g id="line2d_7">
      <defs>
       <path d="M 0 0 
L -3.5 0 
" id="m4048c8486d" style="stroke:#000000;stroke-width:0.8;"/>
      </defs>
      <g>
       <use style="stroke:#000000;stroke-width:0.8;" x="63.05" xlink:href="#m4048c8486d" y="202.2"/>
      </g>
     </g>
     <g id="text_8">
      <!-- 0.00 -->
      <g transform="translate(28.804688 207.210469)scale(0.14 -0.14)">
       <use xlink:href="#ArialMT-48"/>
       <use x="55.615234" xlink:href="#ArialMT-46"/>
       <use x="83.398438" xlink:href="#ArialMT-48"/>
       <use x="139.013672" xlink:href="#ArialMT-48"/>
      </g>
     </g>
    </g>
    <g id="ytick_2">
     <g id="line2d_8">
      <g>
       <use style="stroke:#000000;stroke-width:0.8;" x="63.05" xlink:href="#m4048c8486d" y="154.654534"/>
      </g>
     </g>
     <g id="text_9">
      <!-- 0.05 -->
      <defs>
       <path d="M 4.15625 18.75 
L 13.375 19.53125 
Q 14.40625 12.796875 18.140625 9.390625 
Q 21.875 6 27.15625 6 
Q 33.5 6 37.890625 10.78125 
Q 42.28125 15.578125 42.28125 23.484375 
Q 42.28125 31 38.0625 35.34375 
Q 33.84375 39.703125 27 39.703125 
Q 22.75 39.703125 19.328125 37.765625 
Q 15.921875 35.84375 13.96875 32.765625 
L 5.71875 33.84375 
L 12.640625 70.609375 
L 48.25 70.609375 
L 48.25 62.203125 
L 19.671875 62.203125 
L 15.828125 42.96875 
Q 22.265625 47.46875 29.34375 47.46875 
Q 38.71875 47.46875 45.15625 40.96875 
Q 51.609375 34.46875 51.609375 24.265625 
Q 51.609375 14.546875 45.953125 7.46875 
Q 39.0625 -1.21875 27.15625 -1.21875 
Q 17.390625 -1.21875 11.203125 4.25 
Q 5.03125 9.71875 4.15625 18.75 
z
" id="ArialMT-53"/>
      </defs>
      <g transform="translate(28.804688 159.665003)scale(0.14 -0.14)">
       <use xlink:href="#ArialMT-48"/>
       <use x="55.615234" xlink:href="#ArialMT-46"/>
       <use x="83.398438" xlink:href="#ArialMT-48"/>
       <use x="139.013672" xlink:href="#ArialMT-53"/>
      </g>
     </g>
    </g>
    <g id="ytick_3">
     <g id="line2d_9">
      <g>
       <use style="stroke:#000000;stroke-width:0.8;" x="63.05" xlink:href="#m4048c8486d" y="107.109069"/>
      </g>
     </g>
     <g id="text_10">
      <!-- 0.10 -->
      <g transform="translate(28.804688 112.119537)scale(0.14 -0.14)">
       <use xlink:href="#ArialMT-48"/>
       <use x="55.615234" xlink:href="#ArialMT-46"/>
       <use x="83.398438" xlink:href="#ArialMT-49"/>
       <use x="139.013672" xlink:href="#ArialMT-48"/>
      </g>
     </g>
    </g>
    <g id="ytick_4">
     <g id="line2d_10">
      <g>
       <use style="stroke:#000000;stroke-width:0.8;" x="63.05" xlink:href="#m4048c8486d" y="59.563603"/>
      </g>
     </g>
     <g id="text_11">
      <!-- 0.15 -->
      <g transform="translate(28.804688 64.574072)scale(0.14 -0.14)">
       <use xlink:href="#ArialMT-48"/>
       <use x="55.615234" xlink:href="#ArialMT-46"/>
       <use x="83.398438" xlink:href="#ArialMT-49"/>
       <use x="139.013672" xlink:href="#ArialMT-53"/>
      </g>
     </g>
    </g>
    <g id="text_12">
     <!-- fractional importance -->
     <defs>
      <path d="M 8.6875 0 
L 8.6875 45.015625 
L 0.921875 45.015625 
L 0.921875 51.859375 
L 8.6875 51.859375 
L 8.6875 57.375 
Q 8.6875 62.59375 9.625 65.140625 
Q 10.890625 68.5625 14.078125 70.671875 
Q 17.28125 72.796875 23.046875 72.796875 
Q 26.765625 72.796875 31.25 71.921875 
L 29.9375 64.265625 
Q 27.203125 64.75 24.75 64.75 
Q 20.75 64.75 19.09375 63.03125 
Q 17.4375 61.328125 17.4375 56.640625 
L 17.4375 51.859375 
L 27.546875 51.859375 
L 27.546875 45.015625 
L 17.4375 45.015625 
L 17.4375 0 
z
" id="ArialMT-102"/>
      <path d="M 6.59375 0 
L 6.59375 51.859375 
L 14.5 51.859375 
L 14.5 44.484375 
Q 20.21875 53.03125 31 53.03125 
Q 35.6875 53.03125 39.625 51.34375 
Q 43.5625 49.65625 45.515625 46.921875 
Q 47.46875 44.1875 48.25 40.4375 
Q 48.734375 37.984375 48.734375 31.890625 
L 48.734375 0 
L 39.9375 0 
L 39.9375 31.546875 
Q 39.9375 36.921875 38.90625 39.578125 
Q 37.890625 42.234375 35.28125 43.8125 
Q 32.671875 45.40625 29.15625 45.40625 
Q 23.53125 45.40625 19.453125 41.84375 
Q 15.375 38.28125 15.375 28.328125 
L 15.375 0 
z
" id="ArialMT-110"/>
      <path d="M 6.59375 0 
L 6.59375 51.859375 
L 14.453125 51.859375 
L 14.453125 44.578125 
Q 16.890625 48.390625 20.9375 50.703125 
Q 25 53.03125 30.171875 53.03125 
Q 35.9375 53.03125 39.625 50.640625 
Q 43.3125 48.25 44.828125 43.953125 
Q 50.984375 53.03125 60.84375 53.03125 
Q 68.5625 53.03125 72.703125 48.75 
Q 76.859375 44.484375 76.859375 35.59375 
L 76.859375 0 
L 68.109375 0 
L 68.109375 32.671875 
Q 68.109375 37.9375 67.25 40.25 
Q 66.40625 42.578125 64.15625 43.984375 
Q 61.921875 45.40625 58.890625 45.40625 
Q 53.421875 45.40625 49.796875 41.765625 
Q 46.1875 38.140625 46.1875 30.125 
L 46.1875 0 
L 37.40625 0 
L 37.40625 33.6875 
Q 37.40625 39.546875 35.25 42.46875 
Q 33.109375 45.40625 28.21875 45.40625 
Q 24.515625 45.40625 21.359375 43.453125 
Q 18.21875 41.5 16.796875 37.734375 
Q 15.375 33.984375 15.375 26.90625 
L 15.375 0 
z
" id="ArialMT-109"/>
      <path d="M 6.59375 -19.875 
L 6.59375 51.859375 
L 14.59375 51.859375 
L 14.59375 45.125 
Q 17.4375 49.078125 21 51.046875 
Q 24.5625 53.03125 29.640625 53.03125 
Q 36.28125 53.03125 41.359375 49.609375 
Q 46.4375 46.1875 49.015625 39.953125 
Q 51.609375 33.734375 51.609375 26.3125 
Q 51.609375 18.359375 48.75 11.984375 
Q 45.90625 5.609375 40.453125 2.21875 
Q 35.015625 -1.171875 29 -1.171875 
Q 24.609375 -1.171875 21.109375 0.6875 
Q 17.625 2.546875 15.375 5.375 
L 15.375 -19.875 
z
M 14.546875 25.640625 
Q 14.546875 15.625 18.59375 10.84375 
Q 22.65625 6.0625 28.421875 6.0625 
Q 34.28125 6.0625 38.453125 11.015625 
Q 42.625 15.96875 42.625 26.375 
Q 42.625 36.28125 38.546875 41.203125 
Q 34.46875 46.140625 28.8125 46.140625 
Q 23.1875 46.140625 18.859375 40.890625 
Q 14.546875 35.640625 14.546875 25.640625 
z
" id="ArialMT-112"/>
     </defs>
     <g transform="translate(22.022187 179.970937)rotate(-90)scale(0.14 -0.14)">
      <use xlink:href="#ArialMT-102"/>
      <use x="27.783203" xlink:href="#ArialMT-114"/>
      <use x="61.083984" xlink:href="#ArialMT-97"/>
      <use x="116.699219" xlink:href="#ArialMT-99"/>
      <use x="166.699219" xlink:href="#ArialMT-116"/>
      <use x="194.482422" xlink:href="#ArialMT-105"/>
      <use x="216.699219" xlink:href="#ArialMT-111"/>
      <use x="272.314453" xlink:href="#ArialMT-110"/>
      <use x="327.929688" xlink:href="#ArialMT-97"/>
      <use x="383.544922" xlink:href="#ArialMT-108"/>
      <use x="405.761719" xlink:href="#ArialMT-32"/>
      <use x="433.544922" xlink:href="#ArialMT-105"/>
      <use x="455.761719" xlink:href="#ArialMT-109"/>
      <use x="539.0625" xlink:href="#ArialMT-112"/>
      <use x="594.677734" xlink:href="#ArialMT-111"/>
      <use x="650.292969" xlink:href="#ArialMT-114"/>
      <use x="683.59375" xlink:href="#ArialMT-116"/>
      <use x="711.376953" xlink:href="#ArialMT-97"/>
      <use x="766.992188" xlink:href="#ArialMT-110"/>
      <use x="822.607422" xlink:href="#ArialMT-99"/>
      <use x="872.607422" xlink:href="#ArialMT-101"/>
     </g>
    </g>
   </g>
   <g id="patch_3">
    <path d="M 63.05 202.2 
L 63.05 27.8 
" style="fill:none;stroke:#000000;stroke-linecap:square;stroke-linejoin:miter;stroke-width:0.8;"/>
   </g>
   <g id="patch_4">
    <path d="M 342.185294 202.2 
L 342.185294 27.8 
" style="fill:none;stroke:#000000;stroke-linecap:square;stroke-linejoin:miter;stroke-width:0.8;"/>
   </g>
   <g id="patch_5">
    <path d="M 63.05 202.2 
L 342.185294 202.2 
" style="fill:none;stroke:#000000;stroke-linecap:square;stroke-linejoin:miter;stroke-width:0.8;"/>
   </g>
   <g id="patch_6">
    <path d="M 63.05 27.8 
L 342.185294 27.8 
" style="fill:none;stroke:#000000;stroke-linecap:square;stroke-linejoin:miter;stroke-width:0.8;"/>
   </g>
   <g id="text_13">
    <!-- Chryseobacterium gleum -->
    <defs>
     <path d="M 60.296875 25.203125 
L 69.78125 23.875 
Q 65.28125 11.46875 56.6875 5.125 
Q 48.09375 -1.21875 37.40625 -1.21875 
Q 24.359375 -1.21875 16.71875 6.734375 
Q 9.078125 14.703125 9.078125 29.546875 
Q 9.078125 48.875 20.703125 61.53125 
Q 31.0625 72.796875 46.4375 72.796875 
Q 57.8125 72.796875 64.859375 66.6875 
Q 71.921875 60.59375 73.046875 50.296875 
L 64.109375 49.46875 
Q 62.703125 57.234375 58.28125 61.0625 
Q 53.859375 64.890625 46.875 64.890625 
Q 33.734375 64.890625 25.640625 53.21875 
Q 18.609375 43.171875 18.609375 29.34375 
Q 18.609375 18.3125 24.015625 12.5 
Q 29.4375 6.6875 38.140625 6.6875 
Q 45.5625 6.6875 51.5625 11.515625 
Q 57.5625 16.359375 60.296875 25.203125 
z
" id="Arial-ItalicMT-67"/>
     <path d="M 3.328125 0 
L 18.265625 71.578125 
L 27.09375 71.578125 
L 21.390625 44.09375 
Q 26.3125 48.875 30.5625 50.953125 
Q 34.8125 53.03125 39.3125 53.03125 
Q 45.75 53.03125 49.3125 49.625 
Q 52.875 46.234375 52.875 40.671875 
Q 52.875 37.9375 51.3125 30.609375 
L 44.921875 0 
L 36.078125 0 
L 42.671875 31.390625 
Q 44.09375 38.234375 44.09375 39.984375 
Q 44.09375 42.53125 42.328125 44.140625 
Q 40.578125 45.75 37.25 45.75 
Q 32.46875 45.75 28.125 43.234375 
Q 23.78125 40.71875 21.3125 36.34375 
Q 18.84375 31.984375 16.796875 22.265625 
L 12.15625 0 
z
" id="Arial-ItalicMT-104"/>
     <path d="M 3.328125 0 
L 14.15625 51.859375 
L 21.96875 51.859375 
L 19.78125 41.265625 
Q 23.78125 47.265625 27.609375 50.140625 
Q 31.453125 53.03125 35.453125 53.03125 
Q 38.09375 53.03125 41.9375 51.125 
L 38.328125 42.921875 
Q 36.03125 44.578125 33.296875 44.578125 
Q 28.65625 44.578125 23.765625 39.40625 
Q 18.890625 34.234375 16.109375 20.796875 
L 11.71875 0 
z
" id="Arial-ItalicMT-114"/>
     <path d="M 0 -20.015625 
L 0.53125 -11.71875 
Q 3.265625 -12.5 5.859375 -12.5 
Q 8.546875 -12.5 10.203125 -11.28125 
Q 12.359375 -9.671875 14.890625 -5.21875 
L 17.71875 -0.140625 
L 9.078125 51.859375 
L 17.78125 51.859375 
L 21.6875 25.640625 
Q 22.859375 17.875 23.6875 10.109375 
L 46.875 51.859375 
L 56.109375 51.859375 
L 23.046875 -6.890625 
Q 18.265625 -15.484375 14.546875 -18.265625 
Q 10.84375 -21.046875 6 -21.046875 
Q 2.9375 -21.046875 0 -20.015625 
z
" id="Arial-ItalicMT-121"/>
     <path d="M 4.15625 17.71875 
L 12.984375 18.265625 
Q 12.984375 14.453125 14.15625 11.765625 
Q 15.328125 9.078125 18.46875 7.375 
Q 21.625 5.671875 25.828125 5.671875 
Q 31.6875 5.671875 34.609375 8.015625 
Q 37.546875 10.359375 37.546875 13.53125 
Q 37.546875 15.828125 35.796875 17.875 
Q 33.984375 19.921875 26.96875 22.921875 
Q 19.96875 25.921875 18.015625 27.15625 
Q 14.75 29.15625 13.078125 31.859375 
Q 11.421875 34.578125 11.421875 38.09375 
Q 11.421875 44.234375 16.296875 48.625 
Q 21.1875 53.03125 29.984375 53.03125 
Q 39.75 53.03125 44.84375 48.515625 
Q 49.953125 44 50.140625 36.625 
L 41.5 36.03125 
Q 41.3125 40.71875 38.1875 43.453125 
Q 35.0625 46.1875 29.34375 46.1875 
Q 24.75 46.1875 22.203125 44.09375 
Q 19.671875 42 19.671875 39.546875 
Q 19.671875 37.109375 21.875 35.25 
Q 23.34375 33.984375 29.4375 31.34375 
Q 39.59375 26.953125 42.234375 24.421875 
Q 46.4375 20.359375 46.4375 14.546875 
Q 46.4375 10.6875 44.0625 6.96875 
Q 41.703125 3.265625 36.84375 1.046875 
Q 31.984375 -1.171875 25.390625 -1.171875 
Q 16.40625 -1.171875 10.109375 3.265625 
Q 3.8125 7.71875 4.15625 17.71875 
z
" id="Arial-ItalicMT-115"/>
     <path d="M 41.40625 17.625 
L 50 16.75 
Q 48.140625 10.359375 41.46875 4.59375 
Q 34.8125 -1.171875 25.59375 -1.171875 
Q 19.828125 -1.171875 15.015625 1.484375 
Q 10.203125 4.15625 7.6875 9.234375 
Q 5.171875 14.3125 5.171875 20.796875 
Q 5.171875 29.296875 9.09375 37.28125 
Q 13.03125 45.265625 19.28125 49.140625 
Q 25.53125 53.03125 32.8125 53.03125 
Q 42.09375 53.03125 47.625 47.265625 
Q 53.171875 41.5 53.171875 31.546875 
Q 53.171875 27.734375 52.484375 23.734375 
L 14.3125 23.734375 
Q 14.109375 22.21875 14.109375 21 
Q 14.109375 13.71875 17.453125 9.890625 
Q 20.796875 6.0625 25.640625 6.0625 
Q 30.171875 6.0625 34.5625 9.03125 
Q 38.96875 12.015625 41.40625 17.625 
z
M 15.71875 30.46875 
L 44.828125 30.46875 
Q 44.875 31.84375 44.875 32.421875 
Q 44.875 39.0625 41.546875 42.59375 
Q 38.234375 46.140625 33.015625 46.140625 
Q 27.34375 46.140625 22.671875 42.234375 
Q 18.015625 38.328125 15.71875 30.46875 
z
" id="Arial-ItalicMT-101"/>
     <path d="M 4.890625 19.671875 
Q 4.890625 34.859375 13.8125 44.828125 
Q 21.1875 53.03125 33.15625 53.03125 
Q 42.53125 53.03125 48.265625 47.171875 
Q 54 41.3125 54 31.34375 
Q 54 22.40625 50.390625 14.71875 
Q 46.78125 7.03125 40.109375 2.921875 
Q 33.453125 -1.171875 26.078125 -1.171875 
Q 20.015625 -1.171875 15.0625 1.40625 
Q 10.109375 4 7.5 8.734375 
Q 4.890625 13.484375 4.890625 19.671875 
z
M 13.71875 20.5625 
Q 13.71875 13.234375 17.234375 9.453125 
Q 20.75 5.671875 26.171875 5.671875 
Q 29 5.671875 31.78125 6.8125 
Q 34.578125 7.953125 36.96875 10.296875 
Q 39.359375 12.640625 41.03125 15.640625 
Q 42.71875 18.65625 43.75 22.125 
Q 45.265625 26.953125 45.265625 31.390625 
Q 45.265625 38.421875 41.71875 42.296875 
Q 38.1875 46.1875 32.8125 46.1875 
Q 28.65625 46.1875 25.234375 44.203125 
Q 21.828125 42.234375 19.0625 38.421875 
Q 16.3125 34.625 15.015625 29.5625 
Q 13.71875 24.515625 13.71875 20.5625 
z
" id="Arial-ItalicMT-111"/>
     <path d="M 3.328125 0 
L 18.265625 71.578125 
L 27.09375 71.578125 
L 21.78125 46 
Q 25.984375 49.859375 29.390625 51.4375 
Q 32.8125 53.03125 36.53125 53.03125 
Q 43.796875 53.03125 48.65625 47.609375 
Q 53.515625 42.1875 53.515625 31.84375 
Q 53.515625 24.953125 51.5625 19.234375 
Q 49.609375 13.53125 46.71875 9.640625 
Q 43.84375 5.765625 40.765625 3.4375 
Q 37.703125 1.125 34.46875 -0.015625 
Q 31.25 -1.171875 28.265625 -1.171875 
Q 23.140625 -1.171875 19.234375 1.53125 
Q 15.328125 4.25 13.140625 9.8125 
L 11.078125 0 
z
M 16.40625 21.296875 
L 16.359375 19.625 
Q 16.359375 12.984375 19.53125 9.515625 
Q 22.703125 6.0625 27.4375 6.0625 
Q 32.078125 6.0625 35.953125 9.296875 
Q 39.84375 12.546875 42.328125 19.421875 
Q 44.828125 26.3125 44.828125 32.125 
Q 44.828125 38.671875 41.671875 42.28125 
Q 38.53125 45.90625 33.890625 45.90625 
Q 29.109375 45.90625 25.09375 42.21875 
Q 21.09375 38.53125 18.40625 30.859375 
Q 16.40625 25.140625 16.40625 21.296875 
z
" id="Arial-ItalicMT-98"/>
     <path d="M 38.28125 6.453125 
Q 33.6875 2.484375 29.4375 0.65625 
Q 25.203125 -1.171875 20.359375 -1.171875 
Q 13.1875 -1.171875 8.78125 3.046875 
Q 4.390625 7.28125 4.390625 13.875 
Q 4.390625 18.21875 6.359375 21.5625 
Q 8.34375 24.90625 11.609375 26.921875 
Q 14.890625 28.953125 19.625 29.828125 
Q 22.609375 30.421875 30.9375 30.765625 
Q 39.265625 31.109375 42.875 32.515625 
Q 43.890625 36.140625 43.890625 38.53125 
Q 43.890625 41.609375 41.65625 43.359375 
Q 38.578125 45.796875 32.671875 45.796875 
Q 27.09375 45.796875 23.546875 43.328125 
Q 20.015625 40.875 18.40625 36.328125 
L 9.46875 37.109375 
Q 12.203125 44.828125 18.140625 48.921875 
Q 24.078125 53.03125 33.109375 53.03125 
Q 42.71875 53.03125 48.34375 48.4375 
Q 52.640625 45.015625 52.640625 39.546875 
Q 52.640625 35.40625 51.421875 29.9375 
L 48.53125 17.046875 
Q 47.171875 10.890625 47.171875 7.03125 
Q 47.171875 4.59375 48.25 0 
L 39.3125 0 
Q 38.578125 2.546875 38.28125 6.453125 
z
M 41.546875 26.265625 
Q 39.703125 25.53125 37.578125 25.140625 
Q 35.453125 24.75 30.46875 24.3125 
Q 22.75 23.640625 19.578125 22.578125 
Q 16.40625 21.53125 14.796875 19.234375 
Q 13.1875 16.9375 13.1875 14.15625 
Q 13.1875 10.453125 15.75 8.0625 
Q 18.3125 5.671875 23.046875 5.671875 
Q 27.4375 5.671875 31.484375 7.984375 
Q 35.546875 10.296875 37.890625 14.453125 
Q 40.234375 18.609375 41.546875 26.265625 
z
" id="Arial-ItalicMT-97"/>
     <path d="M 39.109375 18.890625 
L 47.953125 17.96875 
Q 44.625 8.25 38.5 3.53125 
Q 32.375 -1.171875 24.5625 -1.171875 
Q 16.109375 -1.171875 10.859375 4.296875 
Q 5.609375 9.765625 5.609375 19.578125 
Q 5.609375 28.078125 8.984375 36.28125 
Q 12.359375 44.484375 18.625 48.75 
Q 24.90625 53.03125 32.953125 53.03125 
Q 41.3125 53.03125 46.1875 48.3125 
Q 51.078125 43.609375 51.078125 35.84375 
L 42.390625 35.25 
Q 42.328125 40.1875 39.515625 42.96875 
Q 36.71875 45.75 32.125 45.75 
Q 26.8125 45.75 22.90625 42.375 
Q 19 39.015625 16.765625 32.15625 
Q 14.546875 25.296875 14.546875 18.953125 
Q 14.546875 12.3125 17.46875 8.984375 
Q 20.40625 5.671875 24.703125 5.671875 
Q 29 5.671875 32.921875 8.9375 
Q 36.859375 12.203125 39.109375 18.890625 
z
" id="Arial-ItalicMT-99"/>
     <path d="M 23.96875 7.171875 
L 22.515625 -0.046875 
Q 19.34375 -0.875 16.359375 -0.875 
Q 11.078125 -0.875 7.953125 1.703125 
Q 5.609375 3.65625 5.609375 7.03125 
Q 5.609375 8.734375 6.890625 14.890625 
L 13.1875 45.015625 
L 6.203125 45.015625 
L 7.625 51.859375 
L 14.59375 51.859375 
L 17.28125 64.59375 
L 27.390625 70.703125 
L 23.4375 51.859375 
L 32.125 51.859375 
L 30.671875 45.015625 
L 22.015625 45.015625 
L 16.015625 16.359375 
Q 14.890625 10.890625 14.890625 9.8125 
Q 14.890625 8.25 15.796875 7.421875 
Q 16.703125 6.59375 18.75 6.59375 
Q 21.6875 6.59375 23.96875 7.171875 
z
" id="Arial-ItalicMT-116"/>
     <path d="M 15.875 61.578125 
L 17.96875 71.578125 
L 26.765625 71.578125 
L 24.65625 61.578125 
z
M 2.984375 0 
L 13.8125 51.859375 
L 22.65625 51.859375 
L 11.8125 0 
z
" id="Arial-ItalicMT-105"/>
     <path d="M 38.71875 9.375 
Q 29.390625 -1.171875 19.625 -1.171875 
Q 13.625 -1.171875 9.9375 2.265625 
Q 6.25 5.71875 6.25 10.6875 
Q 6.25 13.96875 7.90625 21.921875 
L 14.15625 51.859375 
L 23 51.859375 
L 16.0625 18.703125 
Q 15.1875 14.546875 15.1875 12.25 
Q 15.1875 9.328125 16.96875 7.6875 
Q 18.75 6.0625 22.21875 6.0625 
Q 25.921875 6.0625 29.46875 7.859375 
Q 33.015625 9.671875 35.578125 12.75 
Q 38.140625 15.828125 39.75 20.015625 
Q 40.828125 22.703125 42.234375 29.4375 
L 46.921875 51.859375 
L 55.765625 51.859375 
L 44.921875 0 
L 36.765625 0 
z
" id="Arial-ItalicMT-117"/>
     <path d="M 3.265625 0 
L 14.109375 51.859375 
L 22.953125 51.859375 
L 21.140625 43.3125 
Q 26.078125 48.828125 29.953125 50.921875 
Q 33.84375 53.03125 38.375 53.03125 
Q 43.21875 53.03125 46.453125 50.46875 
Q 49.703125 47.90625 50.734375 43.3125 
Q 54.6875 48.1875 59.046875 50.609375 
Q 63.421875 53.03125 68.265625 53.03125 
Q 74.75 53.03125 78 49.953125 
Q 81.25 46.875 81.25 41.3125 
Q 81.25 38.921875 80.125 33.40625 
L 73.140625 0 
L 64.3125 0 
L 71.4375 34.28125 
Q 72.359375 38.484375 72.359375 40.28125 
Q 72.359375 42.828125 70.75 44.28125 
Q 69.140625 45.75 66.21875 45.75 
Q 62.25 45.75 58.140625 43.359375 
Q 54.046875 40.96875 51.78125 37.078125 
Q 49.515625 33.203125 47.796875 25.140625 
L 42.53125 0 
L 33.6875 0 
L 41.015625 35.015625 
Q 41.796875 38.578125 41.796875 40.09375 
Q 41.796875 42.625 40.203125 44.1875 
Q 38.625 45.75 36.078125 45.75 
Q 32.328125 45.75 28.203125 43.359375 
Q 24.078125 40.96875 21.484375 36.6875 
Q 18.890625 32.421875 17.234375 24.515625 
L 12.109375 0 
z
" id="Arial-ItalicMT-109"/>
     <path id="Arial-ItalicMT-32"/>
     <path d="M 2.828125 -4.6875 
L 11.765625 -5.515625 
Q 11.671875 -8.546875 12.5 -10.0625 
Q 13.328125 -11.578125 15.140625 -12.40625 
Q 17.53125 -13.484375 21.34375 -13.484375 
Q 29.34375 -13.484375 32.859375 -9.328125 
Q 35.15625 -6.546875 37.109375 2.78125 
L 37.984375 6.984375 
Q 31.109375 0 23.34375 0 
Q 15.484375 0 10.1875 5.78125 
Q 4.890625 11.578125 4.890625 22.171875 
Q 4.890625 30.90625 9.0625 38.234375 
Q 13.234375 45.5625 18.984375 49.296875 
Q 24.75 53.03125 30.859375 53.03125 
Q 41.0625 53.03125 46.578125 43.359375 
L 48.34375 51.859375 
L 56.453125 51.859375 
L 46 1.8125 
Q 44.28125 -6.453125 41.5 -11.0625 
Q 38.71875 -15.671875 33.765625 -18.203125 
Q 28.8125 -20.75 22.3125 -20.75 
Q 16.0625 -20.75 11.546875 -19.140625 
Q 7.03125 -17.53125 4.8125 -14.421875 
Q 2.59375 -11.328125 2.59375 -7.328125 
Q 2.59375 -6.109375 2.828125 -4.6875 
z
M 13.875 22.953125 
Q 13.875 17.625 14.890625 14.9375 
Q 16.359375 11.1875 19.0625 9.203125 
Q 21.78125 7.234375 25.09375 7.234375 
Q 29.4375 7.234375 33.734375 10.28125 
Q 38.03125 13.328125 40.6875 19.71875 
Q 43.359375 26.125 43.359375 31.9375 
Q 43.359375 38.328125 39.8125 42.109375 
Q 36.28125 45.90625 31.0625 45.90625 
Q 27.828125 45.90625 24.796875 44.171875 
Q 21.78125 42.4375 19.15625 38.890625 
Q 16.546875 35.359375 15.203125 30.421875 
Q 13.875 25.484375 13.875 22.953125 
z
" id="Arial-ItalicMT-103"/>
     <path d="M 2.640625 0 
L 17.578125 71.578125 
L 26.421875 71.578125 
L 11.46875 0 
z
" id="Arial-ItalicMT-108"/>
    </defs>
    <g transform="translate(124.812647 21.8)scale(0.14 -0.14)">
     <use xlink:href="#Arial-ItalicMT-67"/>
     <use x="72.216797" xlink:href="#Arial-ItalicMT-104"/>
     <use x="127.832031" xlink:href="#Arial-ItalicMT-114"/>
     <use x="161.132812" xlink:href="#Arial-ItalicMT-121"/>
     <use x="211.132812" xlink:href="#Arial-ItalicMT-115"/>
     <use x="261.132812" xlink:href="#Arial-ItalicMT-101"/>
     <use x="316.748047" xlink:href="#Arial-ItalicMT-111"/>
     <use x="372.363281" xlink:href="#Arial-ItalicMT-98"/>
     <use x="427.978516" xlink:href="#Arial-ItalicMT-97"/>
     <use x="483.59375" xlink:href="#Arial-ItalicMT-99"/>
     <use x="533.59375" xlink:href="#Arial-ItalicMT-116"/>
     <use x="561.376953" xlink:href="#Arial-ItalicMT-101"/>
     <use x="616.992188" xlink:href="#Arial-ItalicMT-114"/>
     <use x="650.292969" xlink:href="#Arial-ItalicMT-105"/>
     <use x="672.509766" xlink:href="#Arial-ItalicMT-117"/>
     <use x="728.125" xlink:href="#Arial-ItalicMT-109"/>
     <use x="811.425781" xlink:href="#Arial-ItalicMT-32"/>
     <use x="839.208984" xlink:href="#Arial-ItalicMT-103"/>
     <use x="894.824219" xlink:href="#Arial-ItalicMT-108"/>
     <use x="917.041016" xlink:href="#Arial-ItalicMT-101"/>
     <use x="972.65625" xlink:href="#Arial-ItalicMT-117"/>
     <use x="1028.271484" xlink:href="#Arial-ItalicMT-109"/>
    </g>
   </g>
  </g>
 </g>
 <defs>
  <clipPath id="pfe732185db">
   <rect height="174.4" width="279.135294" x="63.05" y="27.8"/>
  </clipPath>
 </defs>
</svg>
