<?xml version="1.0" encoding="utf-8" standalone="no"?>
<!DOCTYPE svg PUBLIC "-//W3C//DTD SVG 1.1//EN"
  "http://www.w3.org/Graphics/SVG/1.1/DTD/svg11.dtd">
<!-- Created with matplotlib (https://matplotlib.org/) -->
<svg height="252pt" version="1.1" viewBox="0 0 360 252" width="360pt" xmlns="http://www.w3.org/2000/svg" xmlns:xlink="http://www.w3.org/1999/xlink">
 <defs>
  <style type="text/css">
*{stroke-linecap:butt;stroke-linejoin:round;}
  </style>
 </defs>
 <g id="figure_1">
  <g id="patch_1">
   <path d="M 0 252 
L 360 252 
L 360 0 
L 0 0 
z
" style="fill:#ffffff;"/>
  </g>
  <g id="axes_1">
   <g id="patch_2">
    <path d="M 45 220.5 
L 324 220.5 
L 324 30.24 
L 45 30.24 
z
" style="fill:#ffffff;"/>
   </g>
   <g id="PathCollection_1">
    <defs>
     <path d="M 0 5 
C 1.326016 5 2.597899 4.473168 3.535534 3.535534 
C 4.473168 2.597899 5 1.326016 5 0 
C 5 -1.326016 4.473168 -2.597899 3.535534 -3.535534 
C 2.597899 -4.473168 1.326016 -5 0 -5 
C -1.326016 -5 -2.597899 -4.473168 -3.535534 -3.535534 
C -4.473168 -2.597899 -5 -1.326016 -5 0 
C -5 1.326016 -4.473168 2.597899 -3.535534 3.535534 
C -2.597899 4.473168 -1.326016 5 0 5 
z
" id="m0d403a6017" style="stroke:#000000;stroke-opacity:0.3;"/>
    </defs>
    <g clip-path="url(#p104f741b78)">
     <use style="fill-opacity:0.3;stroke:#000000;stroke-opacity:0.3;" x="45" xlink:href="#m0d403a6017" y="220.30971"/>
     <use style="fill-opacity:0.3;stroke:#000000;stroke-opacity:0.3;" x="94.6" xlink:href="#m0d403a6017" y="216.785015"/>
     <use style="fill-opacity:0.3;stroke:#000000;stroke-opacity:0.3;" x="45" xlink:href="#m0d403a6017" y="219.867525"/>
     <use style="fill-opacity:0.3;stroke:#000000;stroke-opacity:0.3;" x="184.520984" xlink:href="#m0d403a6017" y="215.343153"/>
     <use style="fill-opacity:0.3;stroke:#000000;stroke-opacity:0.3;" x="250.959548" xlink:href="#m0d403a6017" y="217.342045"/>
     <use style="fill-opacity:0.3;stroke:#000000;stroke-opacity:0.3;" x="45" xlink:href="#m0d403a6017" y="220.5"/>
     <use style="fill-opacity:0.3;stroke:#000000;stroke-opacity:0.3;" x="155.901295" xlink:href="#m0d403a6017" y="206.56682"/>
     <use style="fill-opacity:0.3;stroke:#000000;stroke-opacity:0.3;" x="58.34923" xlink:href="#m0d403a6017" y="215.944409"/>
     <use style="fill-opacity:0.3;stroke:#000000;stroke-opacity:0.3;" x="153.128763" xlink:href="#m0d403a6017" y="219.453949"/>
     <use style="fill-opacity:0.3;stroke:#000000;stroke-opacity:0.3;" x="160.32" xlink:href="#m0d403a6017" y="206.974243"/>
     <use style="fill-opacity:0.3;stroke:#000000;stroke-opacity:0.3;" x="45" xlink:href="#m0d403a6017" y="216.684123"/>
     <use style="fill-opacity:0.3;stroke:#000000;stroke-opacity:0.3;" x="45" xlink:href="#m0d403a6017" y="220.499141"/>
     <use style="fill-opacity:0.3;stroke:#000000;stroke-opacity:0.3;" x="45" xlink:href="#m0d403a6017" y="220.499959"/>
     <use style="fill-opacity:0.3;stroke:#000000;stroke-opacity:0.3;" x="45" xlink:href="#m0d403a6017" y="220.49808"/>
     <use style="fill-opacity:0.3;stroke:#000000;stroke-opacity:0.3;" x="45" xlink:href="#m0d403a6017" y="220.229302"/>
     <use style="fill-opacity:0.3;stroke:#000000;stroke-opacity:0.3;" x="45" xlink:href="#m0d403a6017" y="219.680826"/>
     <use style="fill-opacity:0.3;stroke:#000000;stroke-opacity:0.3;" x="45" xlink:href="#m0d403a6017" y="220.499965"/>
     <use style="fill-opacity:0.3;stroke:#000000;stroke-opacity:0.3;" x="97.426067" xlink:href="#m0d403a6017" y="214.92364"/>
     <use style="fill-opacity:0.3;stroke:#000000;stroke-opacity:0.3;" x="125.09538" xlink:href="#m0d403a6017" y="212.507435"/>
     <use style="fill-opacity:0.3;stroke:#000000;stroke-opacity:0.3;" x="65.290909" xlink:href="#m0d403a6017" y="214.497616"/>
     <use style="fill-opacity:0.3;stroke:#000000;stroke-opacity:0.3;" x="45" xlink:href="#m0d403a6017" y="215.026979"/>
     <use style="fill-opacity:0.3;stroke:#000000;stroke-opacity:0.3;" x="80.037209" xlink:href="#m0d403a6017" y="104.331642"/>
     <use style="fill-opacity:0.3;stroke:#000000;stroke-opacity:0.3;" x="120.494118" xlink:href="#m0d403a6017" y="200.349161"/>
     <use style="fill-opacity:0.3;stroke:#000000;stroke-opacity:0.3;" x="212.4" xlink:href="#m0d403a6017" y="219.061086"/>
     <use style="fill-opacity:0.3;stroke:#000000;stroke-opacity:0.3;" x="285.28614" xlink:href="#m0d403a6017" y="219.576474"/>
     <use style="fill-opacity:0.3;stroke:#000000;stroke-opacity:0.3;" x="120.454339" xlink:href="#m0d403a6017" y="30.24"/>
     <use style="fill-opacity:0.3;stroke:#000000;stroke-opacity:0.3;" x="45" xlink:href="#m0d403a6017" y="220.207389"/>
     <use style="fill-opacity:0.3;stroke:#000000;stroke-opacity:0.3;" x="87.113208" xlink:href="#m0d403a6017" y="155.917694"/>
     <use style="fill-opacity:0.3;stroke:#000000;stroke-opacity:0.3;" x="65.290909" xlink:href="#m0d403a6017" y="214.497616"/>
     <use style="fill-opacity:0.3;stroke:#000000;stroke-opacity:0.3;" x="45" xlink:href="#m0d403a6017" y="219.680826"/>
     <use style="fill-opacity:0.3;stroke:#000000;stroke-opacity:0.3;" x="45" xlink:href="#m0d403a6017" y="217.775434"/>
     <use style="fill-opacity:0.3;stroke:#000000;stroke-opacity:0.3;" x="248.990164" xlink:href="#m0d403a6017" y="202.452548"/>
     <use style="fill-opacity:0.3;stroke:#000000;stroke-opacity:0.3;" x="210.912" xlink:href="#m0d403a6017" y="200.425129"/>
     <use style="fill-opacity:0.3;stroke:#000000;stroke-opacity:0.3;" x="236.642848" xlink:href="#m0d403a6017" y="197.750148"/>
     <use style="fill-opacity:0.3;stroke:#000000;stroke-opacity:0.3;" x="45" xlink:href="#m0d403a6017" y="220.465979"/>
     <use style="fill-opacity:0.3;stroke:#000000;stroke-opacity:0.3;" x="45" xlink:href="#m0d403a6017" y="219.989177"/>
     <use style="fill-opacity:0.3;stroke:#000000;stroke-opacity:0.3;" x="45" xlink:href="#m0d403a6017" y="220.489088"/>
     <use style="fill-opacity:0.3;stroke:#000000;stroke-opacity:0.3;" x="45" xlink:href="#m0d403a6017" y="220.489088"/>
     <use style="fill-opacity:0.3;stroke:#000000;stroke-opacity:0.3;" x="202.435714" xlink:href="#m0d403a6017" y="204.702248"/>
     <use style="fill-opacity:0.3;stroke:#000000;stroke-opacity:0.3;" x="129.806873" xlink:href="#m0d403a6017" y="216.994423"/>
     <use style="fill-opacity:0.3;stroke:#000000;stroke-opacity:0.3;" x="45" xlink:href="#m0d403a6017" y="219.989177"/>
     <use style="fill-opacity:0.3;stroke:#000000;stroke-opacity:0.3;" x="45" xlink:href="#m0d403a6017" y="220.446169"/>
     <use style="fill-opacity:0.3;stroke:#000000;stroke-opacity:0.3;" x="236.642848" xlink:href="#m0d403a6017" y="197.750148"/>
     <use style="fill-opacity:0.3;stroke:#000000;stroke-opacity:0.3;" x="45" xlink:href="#m0d403a6017" y="219.989177"/>
     <use style="fill-opacity:0.3;stroke:#000000;stroke-opacity:0.3;" x="45" xlink:href="#m0d403a6017" y="220.489088"/>
     <use style="fill-opacity:0.3;stroke:#000000;stroke-opacity:0.3;" x="45" xlink:href="#m0d403a6017" y="218.050189"/>
     <use style="fill-opacity:0.3;stroke:#000000;stroke-opacity:0.3;" x="45" xlink:href="#m0d403a6017" y="218.050189"/>
     <use style="fill-opacity:0.3;stroke:#000000;stroke-opacity:0.3;" x="96.870423" xlink:href="#m0d403a6017" y="163.283541"/>
     <use style="fill-opacity:0.3;stroke:#000000;stroke-opacity:0.3;" x="45" xlink:href="#m0d403a6017" y="220.5"/>
     <use style="fill-opacity:0.3;stroke:#000000;stroke-opacity:0.3;" x="320.801274" xlink:href="#m0d403a6017" y="205.329627"/>
     <use style="fill-opacity:0.3;stroke:#000000;stroke-opacity:0.3;" x="317.880158" xlink:href="#m0d403a6017" y="204.535677"/>
     <use style="fill-opacity:0.3;stroke:#000000;stroke-opacity:0.3;" x="45" xlink:href="#m0d403a6017" y="220.446169"/>
     <use style="fill-opacity:0.3;stroke:#000000;stroke-opacity:0.3;" x="95.22" xlink:href="#m0d403a6017" y="179.573632"/>
     <use style="fill-opacity:0.3;stroke:#000000;stroke-opacity:0.3;" x="45" xlink:href="#m0d403a6017" y="220.271044"/>
     <use style="fill-opacity:0.3;stroke:#000000;stroke-opacity:0.3;" x="274.364042" xlink:href="#m0d403a6017" y="216.320128"/>
     <use style="fill-opacity:0.3;stroke:#000000;stroke-opacity:0.3;" x="311.309025" xlink:href="#m0d403a6017" y="220.393236"/>
     <use style="fill-opacity:0.3;stroke:#000000;stroke-opacity:0.3;" x="45" xlink:href="#m0d403a6017" y="219.867525"/>
     <use style="fill-opacity:0.3;stroke:#000000;stroke-opacity:0.3;" x="45" xlink:href="#m0d403a6017" y="220.298244"/>
     <use style="fill-opacity:0.3;stroke:#000000;stroke-opacity:0.3;" x="145.08" xlink:href="#m0d403a6017" y="146.28184"/>
     <use style="fill-opacity:0.3;stroke:#000000;stroke-opacity:0.3;" x="88.2" xlink:href="#m0d403a6017" y="205.783784"/>
     <use style="fill-opacity:0.3;stroke:#000000;stroke-opacity:0.3;" x="90.952941" xlink:href="#m0d403a6017" y="205.298225"/>
     <use style="fill-opacity:0.3;stroke:#000000;stroke-opacity:0.3;" x="79.875" xlink:href="#m0d403a6017" y="178.8915"/>
     <use style="fill-opacity:0.3;stroke:#000000;stroke-opacity:0.3;" x="324" xlink:href="#m0d403a6017" y="220.128672"/>
     <use style="fill-opacity:0.3;stroke:#000000;stroke-opacity:0.3;" x="45" xlink:href="#m0d403a6017" y="218.050189"/>
     <use style="fill-opacity:0.3;stroke:#000000;stroke-opacity:0.3;" x="74.228571" xlink:href="#m0d403a6017" y="160.877522"/>
     <use style="fill-opacity:0.3;stroke:#000000;stroke-opacity:0.3;" x="138" xlink:href="#m0d403a6017" y="216.464445"/>
     <use style="fill-opacity:0.3;stroke:#000000;stroke-opacity:0.3;" x="45" xlink:href="#m0d403a6017" y="220.379672"/>
     <use style="fill-opacity:0.3;stroke:#000000;stroke-opacity:0.3;" x="74.272131" xlink:href="#m0d403a6017" y="126.765251"/>
     <use style="fill-opacity:0.3;stroke:#000000;stroke-opacity:0.3;" x="310.278689" xlink:href="#m0d403a6017" y="204.288283"/>
     <use style="fill-opacity:0.3;stroke:#000000;stroke-opacity:0.3;" x="308.062077" xlink:href="#m0d403a6017" y="203.43954"/>
     <use style="fill-opacity:0.3;stroke:#000000;stroke-opacity:0.3;" x="202.435714" xlink:href="#m0d403a6017" y="204.702248"/>
     <use style="fill-opacity:0.3;stroke:#000000;stroke-opacity:0.3;" x="286.367442" xlink:href="#m0d403a6017" y="208.416746"/>
     <use style="fill-opacity:0.3;stroke:#000000;stroke-opacity:0.3;" x="190.478571" xlink:href="#m0d403a6017" y="206.874249"/>
     <use style="fill-opacity:0.3;stroke:#000000;stroke-opacity:0.3;" x="301.939634" xlink:href="#m0d403a6017" y="208.011863"/>
     <use style="fill-opacity:0.3;stroke:#000000;stroke-opacity:0.3;" x="285.28614" xlink:href="#m0d403a6017" y="215.802391"/>
     <use style="fill-opacity:0.3;stroke:#000000;stroke-opacity:0.3;" x="118.307636" xlink:href="#m0d403a6017" y="207.709763"/>
     <use style="fill-opacity:0.3;stroke:#000000;stroke-opacity:0.3;" x="98.442254" xlink:href="#m0d403a6017" y="111.847174"/>
     <use style="fill-opacity:0.3;stroke:#000000;stroke-opacity:0.3;" x="163.467692" xlink:href="#m0d403a6017" y="204.809829"/>
     <use style="fill-opacity:0.3;stroke:#000000;stroke-opacity:0.3;" x="225.529412" xlink:href="#m0d403a6017" y="209.961727"/>
     <use style="fill-opacity:0.3;stroke:#000000;stroke-opacity:0.3;" x="86.85" xlink:href="#m0d403a6017" y="217.725875"/>
     <use style="fill-opacity:0.3;stroke:#000000;stroke-opacity:0.3;" x="156.6" xlink:href="#m0d403a6017" y="218.450883"/>
     <use style="fill-opacity:0.3;stroke:#000000;stroke-opacity:0.3;" x="193.8" xlink:href="#m0d403a6017" y="208.344218"/>
     <use style="fill-opacity:0.3;stroke:#000000;stroke-opacity:0.3;" x="172.542857" xlink:href="#m0d403a6017" y="216.512673"/>
     <use style="fill-opacity:0.3;stroke:#000000;stroke-opacity:0.3;" x="155.901295" xlink:href="#m0d403a6017" y="206.56682"/>
     <use style="fill-opacity:0.3;stroke:#000000;stroke-opacity:0.3;" x="250.344" xlink:href="#m0d403a6017" y="211.340864"/>
     <use style="fill-opacity:0.3;stroke:#000000;stroke-opacity:0.3;" x="45" xlink:href="#m0d403a6017" y="220.059174"/>
     <use style="fill-opacity:0.3;stroke:#000000;stroke-opacity:0.3;" x="45" xlink:href="#m0d403a6017" y="220.489088"/>
     <use style="fill-opacity:0.3;stroke:#000000;stroke-opacity:0.3;" x="45" xlink:href="#m0d403a6017" y="220.489088"/>
     <use style="fill-opacity:0.3;stroke:#000000;stroke-opacity:0.3;" x="45" xlink:href="#m0d403a6017" y="220.494289"/>
     <use style="fill-opacity:0.3;stroke:#000000;stroke-opacity:0.3;" x="45" xlink:href="#m0d403a6017" y="220.499399"/>
     <use style="fill-opacity:0.3;stroke:#000000;stroke-opacity:0.3;" x="45" xlink:href="#m0d403a6017" y="220.499995"/>
     <use style="fill-opacity:0.3;stroke:#000000;stroke-opacity:0.3;" x="45" xlink:href="#m0d403a6017" y="220.440206"/>
     <use style="fill-opacity:0.3;stroke:#000000;stroke-opacity:0.3;" x="270.617329" xlink:href="#m0d403a6017" y="210.737512"/>
     <use style="fill-opacity:0.3;stroke:#000000;stroke-opacity:0.3;" x="62.621053" xlink:href="#m0d403a6017" y="204.574454"/>
     <use style="fill-opacity:0.3;stroke:#000000;stroke-opacity:0.3;" x="45" xlink:href="#m0d403a6017" y="217.075265"/>
     <use style="fill-opacity:0.3;stroke:#000000;stroke-opacity:0.3;" x="134.28" xlink:href="#m0d403a6017" y="216.630076"/>
     <use style="fill-opacity:0.3;stroke:#000000;stroke-opacity:0.3;" x="268.2" xlink:href="#m0d403a6017" y="219.264202"/>
     <use style="fill-opacity:0.3;stroke:#000000;stroke-opacity:0.3;" x="228.477966" xlink:href="#m0d403a6017" y="191.66782"/>
     <use style="fill-opacity:0.3;stroke:#000000;stroke-opacity:0.3;" x="190.478571" xlink:href="#m0d403a6017" y="206.874249"/>
     <use style="fill-opacity:0.3;stroke:#000000;stroke-opacity:0.3;" x="314.886606" xlink:href="#m0d403a6017" y="205.364253"/>
     <use style="fill-opacity:0.3;stroke:#000000;stroke-opacity:0.3;" x="45" xlink:href="#m0d403a6017" y="220.430884"/>
     <use style="fill-opacity:0.3;stroke:#000000;stroke-opacity:0.3;" x="45" xlink:href="#m0d403a6017" y="214.998095"/>
     <use style="fill-opacity:0.3;stroke:#000000;stroke-opacity:0.3;" x="268.2" xlink:href="#m0d403a6017" y="217.049772"/>
     <use style="fill-opacity:0.3;stroke:#000000;stroke-opacity:0.3;" x="72.9" xlink:href="#m0d403a6017" y="140.035985"/>
     <use style="fill-opacity:0.3;stroke:#000000;stroke-opacity:0.3;" x="212.4" xlink:href="#m0d403a6017" y="210.849476"/>
     <use style="fill-opacity:0.3;stroke:#000000;stroke-opacity:0.3;" x="277.248649" xlink:href="#m0d403a6017" y="210.908994"/>
     <use style="fill-opacity:0.3;stroke:#000000;stroke-opacity:0.3;" x="172.542857" xlink:href="#m0d403a6017" y="216.512673"/>
     <use style="fill-opacity:0.3;stroke:#000000;stroke-opacity:0.3;" x="124.464708" xlink:href="#m0d403a6017" y="210.941253"/>
     <use style="fill-opacity:0.3;stroke:#000000;stroke-opacity:0.3;" x="186.492857" xlink:href="#m0d403a6017" y="206.58799"/>
     <use style="fill-opacity:0.3;stroke:#000000;stroke-opacity:0.3;" x="123.776471" xlink:href="#m0d403a6017" y="215.618768"/>
     <use style="fill-opacity:0.3;stroke:#000000;stroke-opacity:0.3;" x="323.114286" xlink:href="#m0d403a6017" y="203.321549"/>
     <use style="fill-opacity:0.3;stroke:#000000;stroke-opacity:0.3;" x="285.28614" xlink:href="#m0d403a6017" y="215.681392"/>
     <use style="fill-opacity:0.3;stroke:#000000;stroke-opacity:0.3;" x="309.315789" xlink:href="#m0d403a6017" y="214.009611"/>
     <use style="fill-opacity:0.3;stroke:#000000;stroke-opacity:0.3;" x="55.145455" xlink:href="#m0d403a6017" y="199.436546"/>
     <use style="fill-opacity:0.3;stroke:#000000;stroke-opacity:0.3;" x="188.13913" xlink:href="#m0d403a6017" y="210.094883"/>
     <use style="fill-opacity:0.3;stroke:#000000;stroke-opacity:0.3;" x="45" xlink:href="#m0d403a6017" y="220.291582"/>
     <use style="fill-opacity:0.3;stroke:#000000;stroke-opacity:0.3;" x="87.923077" xlink:href="#m0d403a6017" y="206.068625"/>
     <use style="fill-opacity:0.3;stroke:#000000;stroke-opacity:0.3;" x="45" xlink:href="#m0d403a6017" y="220.3177"/>
     <use style="fill-opacity:0.3;stroke:#000000;stroke-opacity:0.3;" x="236.642848" xlink:href="#m0d403a6017" y="197.750148"/>
     <use style="fill-opacity:0.3;stroke:#000000;stroke-opacity:0.3;" x="45" xlink:href="#m0d403a6017" y="220.076127"/>
     <use style="fill-opacity:0.3;stroke:#000000;stroke-opacity:0.3;" x="45" xlink:href="#m0d403a6017" y="220.491593"/>
     <use style="fill-opacity:0.3;stroke:#000000;stroke-opacity:0.3;" x="45" xlink:href="#m0d403a6017" y="220.493145"/>
     <use style="fill-opacity:0.3;stroke:#000000;stroke-opacity:0.3;" x="71.04" xlink:href="#m0d403a6017" y="128.637676"/>
     <use style="fill-opacity:0.3;stroke:#000000;stroke-opacity:0.3;" x="184.916418" xlink:href="#m0d403a6017" y="208.307951"/>
     <use style="fill-opacity:0.3;stroke:#000000;stroke-opacity:0.3;" x="85.829268" xlink:href="#m0d403a6017" y="195.536512"/>
     <use style="fill-opacity:0.3;stroke:#000000;stroke-opacity:0.3;" x="153.700873" xlink:href="#m0d403a6017" y="207.016017"/>
     <use style="fill-opacity:0.3;stroke:#000000;stroke-opacity:0.3;" x="285.28614" xlink:href="#m0d403a6017" y="215.802391"/>
     <use style="fill-opacity:0.3;stroke:#000000;stroke-opacity:0.3;" x="301.939634" xlink:href="#m0d403a6017" y="208.011863"/>
     <use style="fill-opacity:0.3;stroke:#000000;stroke-opacity:0.3;" x="159.052747" xlink:href="#m0d403a6017" y="197.324353"/>
     <use style="fill-opacity:0.3;stroke:#000000;stroke-opacity:0.3;" x="45" xlink:href="#m0d403a6017" y="220.147634"/>
     <use style="fill-opacity:0.3;stroke:#000000;stroke-opacity:0.3;" x="45" xlink:href="#m0d403a6017" y="220.463974"/>
     <use style="fill-opacity:0.3;stroke:#000000;stroke-opacity:0.3;" x="125.09538" xlink:href="#m0d403a6017" y="217.557862"/>
     <use style="fill-opacity:0.3;stroke:#000000;stroke-opacity:0.3;" x="45" xlink:href="#m0d403a6017" y="220.49729"/>
     <use style="fill-opacity:0.3;stroke:#000000;stroke-opacity:0.3;" x="156.6" xlink:href="#m0d403a6017" y="220.292038"/>
     <use style="fill-opacity:0.3;stroke:#000000;stroke-opacity:0.3;" x="96.814286" xlink:href="#m0d403a6017" y="207.194012"/>
     <use style="fill-opacity:0.3;stroke:#000000;stroke-opacity:0.3;" x="109.9422" xlink:href="#m0d403a6017" y="209.950972"/>
     <use style="fill-opacity:0.3;stroke:#000000;stroke-opacity:0.3;" x="45" xlink:href="#m0d403a6017" y="220.446169"/>
     <use style="fill-opacity:0.3;stroke:#000000;stroke-opacity:0.3;" x="45" xlink:href="#m0d403a6017" y="220.496372"/>
     <use style="fill-opacity:0.3;stroke:#000000;stroke-opacity:0.3;" x="89.64" xlink:href="#m0d403a6017" y="216.103784"/>
     <use style="fill-opacity:0.3;stroke:#000000;stroke-opacity:0.3;" x="45" xlink:href="#m0d403a6017" y="220.271044"/>
     <use style="fill-opacity:0.3;stroke:#000000;stroke-opacity:0.3;" x="87.403436" xlink:href="#m0d403a6017" y="220.328818"/>
     <use style="fill-opacity:0.3;stroke:#000000;stroke-opacity:0.3;" x="51.975" xlink:href="#m0d403a6017" y="201.903128"/>
     <use style="fill-opacity:0.3;stroke:#000000;stroke-opacity:0.3;" x="202.996366" xlink:href="#m0d403a6017" y="214.339812"/>
     <use style="fill-opacity:0.3;stroke:#000000;stroke-opacity:0.3;" x="88.669565" xlink:href="#m0d403a6017" y="209.389676"/>
     <use style="fill-opacity:0.3;stroke:#000000;stroke-opacity:0.3;" x="100.8" xlink:href="#m0d403a6017" y="181.723742"/>
     <use style="fill-opacity:0.3;stroke:#000000;stroke-opacity:0.3;" x="139.430769" xlink:href="#m0d403a6017" y="216.652911"/>
     <use style="fill-opacity:0.3;stroke:#000000;stroke-opacity:0.3;" x="169.925373" xlink:href="#m0d403a6017" y="203.39493"/>
     <use style="fill-opacity:0.3;stroke:#000000;stroke-opacity:0.3;" x="97.7" xlink:href="#m0d403a6017" y="202.526659"/>
     <use style="fill-opacity:0.3;stroke:#000000;stroke-opacity:0.3;" x="163.467692" xlink:href="#m0d403a6017" y="204.809829"/>
     <use style="fill-opacity:0.3;stroke:#000000;stroke-opacity:0.3;" x="111.394854" xlink:href="#m0d403a6017" y="210.68083"/>
     <use style="fill-opacity:0.3;stroke:#000000;stroke-opacity:0.3;" x="117.085842" xlink:href="#m0d403a6017" y="220.012941"/>
     <use style="fill-opacity:0.3;stroke:#000000;stroke-opacity:0.3;" x="45" xlink:href="#m0d403a6017" y="220.215722"/>
    </g>
   </g>
   <g id="matplotlib.axis_1">
    <g id="xtick_1">
     <g id="line2d_1">
      <defs>
       <path d="M 0 0 
L 0 3.5 
" id="m2ac15e98b6" style="stroke:#000000;stroke-width:0.8;"/>
      </defs>
      <g>
       <use style="stroke:#000000;stroke-width:0.8;" x="45" xlink:href="#m2ac15e98b6" y="220.5"/>
      </g>
     </g>
     <g id="text_1">
      <!-- 0.0 -->
      <defs>
       <path d="M 31.78125 66.40625 
Q 24.171875 66.40625 20.328125 58.90625 
Q 16.5 51.421875 16.5 36.375 
Q 16.5 21.390625 20.328125 13.890625 
Q 24.171875 6.390625 31.78125 6.390625 
Q 39.453125 6.390625 43.28125 13.890625 
Q 47.125 21.390625 47.125 36.375 
Q 47.125 51.421875 43.28125 58.90625 
Q 39.453125 66.40625 31.78125 66.40625 
z
M 31.78125 74.21875 
Q 44.046875 74.21875 50.515625 64.515625 
Q 56.984375 54.828125 56.984375 36.375 
Q 56.984375 17.96875 50.515625 8.265625 
Q 44.046875 -1.421875 31.78125 -1.421875 
Q 19.53125 -1.421875 13.0625 8.265625 
Q 6.59375 17.96875 6.59375 36.375 
Q 6.59375 54.828125 13.0625 64.515625 
Q 19.53125 74.21875 31.78125 74.21875 
z
" id="DejaVuSans-48"/>
       <path d="M 10.6875 12.40625 
L 21 12.40625 
L 21 0 
L 10.6875 0 
z
" id="DejaVuSans-46"/>
      </defs>
      <g transform="translate(37.048437 235.098437)scale(0.1 -0.1)">
       <use xlink:href="#DejaVuSans-48"/>
       <use x="63.623047" xlink:href="#DejaVuSans-46"/>
       <use x="95.410156" xlink:href="#DejaVuSans-48"/>
      </g>
     </g>
    </g>
    <g id="xtick_2">
     <g id="line2d_2">
      <g>
       <use style="stroke:#000000;stroke-width:0.8;" x="101.726643" xlink:href="#m2ac15e98b6" y="220.5"/>
      </g>
     </g>
     <g id="text_2">
      <!-- 0.2 -->
      <defs>
       <path d="M 19.1875 8.296875 
L 53.609375 8.296875 
L 53.609375 0 
L 7.328125 0 
L 7.328125 8.296875 
Q 12.9375 14.109375 22.625 23.890625 
Q 32.328125 33.6875 34.8125 36.53125 
Q 39.546875 41.84375 41.421875 45.53125 
Q 43.3125 49.21875 43.3125 52.78125 
Q 43.3125 58.59375 39.234375 62.25 
Q 35.15625 65.921875 28.609375 65.921875 
Q 23.96875 65.921875 18.8125 64.3125 
Q 13.671875 62.703125 7.8125 59.421875 
L 7.8125 69.390625 
Q 13.765625 71.78125 18.9375 73 
Q 24.125 74.21875 28.421875 74.21875 
Q 39.75 74.21875 46.484375 68.546875 
Q 53.21875 62.890625 53.21875 53.421875 
Q 53.21875 48.921875 51.53125 44.890625 
Q 49.859375 40.875 45.40625 35.40625 
Q 44.1875 33.984375 37.640625 27.21875 
Q 31.109375 20.453125 19.1875 8.296875 
z
" id="DejaVuSans-50"/>
      </defs>
      <g transform="translate(93.77508 235.098437)scale(0.1 -0.1)">
       <use xlink:href="#DejaVuSans-48"/>
       <use x="63.623047" xlink:href="#DejaVuSans-46"/>
       <use x="95.410156" xlink:href="#DejaVuSans-50"/>
      </g>
     </g>
    </g>
    <g id="xtick_3">
     <g id="line2d_3">
      <g>
       <use style="stroke:#000000;stroke-width:0.8;" x="158.453285" xlink:href="#m2ac15e98b6" y="220.5"/>
      </g>
     </g>
     <g id="text_3">
      <!-- 0.4 -->
      <defs>
       <path d="M 37.796875 64.3125 
L 12.890625 25.390625 
L 37.796875 25.390625 
z
M 35.203125 72.90625 
L 47.609375 72.90625 
L 47.609375 25.390625 
L 58.015625 25.390625 
L 58.015625 17.1875 
L 47.609375 17.1875 
L 47.609375 0 
L 37.796875 0 
L 37.796875 17.1875 
L 4.890625 17.1875 
L 4.890625 26.703125 
z
" id="DejaVuSans-52"/>
      </defs>
      <g transform="translate(150.501723 235.098437)scale(0.1 -0.1)">
       <use xlink:href="#DejaVuSans-48"/>
       <use x="63.623047" xlink:href="#DejaVuSans-46"/>
       <use x="95.410156" xlink:href="#DejaVuSans-52"/>
      </g>
     </g>
    </g>
    <g id="xtick_4">
     <g id="line2d_4">
      <g>
       <use style="stroke:#000000;stroke-width:0.8;" x="215.179928" xlink:href="#m2ac15e98b6" y="220.5"/>
      </g>
     </g>
     <g id="text_4">
      <!-- 0.6 -->
      <defs>
       <path d="M 33.015625 40.375 
Q 26.375 40.375 22.484375 35.828125 
Q 18.609375 31.296875 18.609375 23.390625 
Q 18.609375 15.53125 22.484375 10.953125 
Q 26.375 6.390625 33.015625 6.390625 
Q 39.65625 6.390625 43.53125 10.953125 
Q 47.40625 15.53125 47.40625 23.390625 
Q 47.40625 31.296875 43.53125 35.828125 
Q 39.65625 40.375 33.015625 40.375 
z
M 52.59375 71.296875 
L 52.59375 62.3125 
Q 48.875 64.0625 45.09375 64.984375 
Q 41.3125 65.921875 37.59375 65.921875 
Q 27.828125 65.921875 22.671875 59.328125 
Q 17.53125 52.734375 16.796875 39.40625 
Q 19.671875 43.65625 24.015625 45.921875 
Q 28.375 48.1875 33.59375 48.1875 
Q 44.578125 48.1875 50.953125 41.515625 
Q 57.328125 34.859375 57.328125 23.390625 
Q 57.328125 12.15625 50.6875 5.359375 
Q 44.046875 -1.421875 33.015625 -1.421875 
Q 20.359375 -1.421875 13.671875 8.265625 
Q 6.984375 17.96875 6.984375 36.375 
Q 6.984375 53.65625 15.1875 63.9375 
Q 23.390625 74.21875 37.203125 74.21875 
Q 40.921875 74.21875 44.703125 73.484375 
Q 48.484375 72.75 52.59375 71.296875 
z
" id="DejaVuSans-54"/>
      </defs>
      <g transform="translate(207.228365 235.098437)scale(0.1 -0.1)">
       <use xlink:href="#DejaVuSans-48"/>
       <use x="63.623047" xlink:href="#DejaVuSans-46"/>
       <use x="95.410156" xlink:href="#DejaVuSans-54"/>
      </g>
     </g>
    </g>
    <g id="xtick_5">
     <g id="line2d_5">
      <g>
       <use style="stroke:#000000;stroke-width:0.8;" x="271.90657" xlink:href="#m2ac15e98b6" y="220.5"/>
      </g>
     </g>
     <g id="text_5">
      <!-- 0.8 -->
      <defs>
       <path d="M 31.78125 34.625 
Q 24.75 34.625 20.71875 30.859375 
Q 16.703125 27.09375 16.703125 20.515625 
Q 16.703125 13.921875 20.71875 10.15625 
Q 24.75 6.390625 31.78125 6.390625 
Q 38.8125 6.390625 42.859375 10.171875 
Q 46.921875 13.96875 46.921875 20.515625 
Q 46.921875 27.09375 42.890625 30.859375 
Q 38.875 34.625 31.78125 34.625 
z
M 21.921875 38.8125 
Q 15.578125 40.375 12.03125 44.71875 
Q 8.5 49.078125 8.5 55.328125 
Q 8.5 64.0625 14.71875 69.140625 
Q 20.953125 74.21875 31.78125 74.21875 
Q 42.671875 74.21875 48.875 69.140625 
Q 55.078125 64.0625 55.078125 55.328125 
Q 55.078125 49.078125 51.53125 44.71875 
Q 48 40.375 41.703125 38.8125 
Q 48.828125 37.15625 52.796875 32.3125 
Q 56.78125 27.484375 56.78125 20.515625 
Q 56.78125 9.90625 50.3125 4.234375 
Q 43.84375 -1.421875 31.78125 -1.421875 
Q 19.734375 -1.421875 13.25 4.234375 
Q 6.78125 9.90625 6.78125 20.515625 
Q 6.78125 27.484375 10.78125 32.3125 
Q 14.796875 37.15625 21.921875 38.8125 
z
M 18.3125 54.390625 
Q 18.3125 48.734375 21.84375 45.5625 
Q 25.390625 42.390625 31.78125 42.390625 
Q 38.140625 42.390625 41.71875 45.5625 
Q 45.3125 48.734375 45.3125 54.390625 
Q 45.3125 60.0625 41.71875 63.234375 
Q 38.140625 66.40625 31.78125 66.40625 
Q 25.390625 66.40625 21.84375 63.234375 
Q 18.3125 60.0625 18.3125 54.390625 
z
" id="DejaVuSans-56"/>
      </defs>
      <g transform="translate(263.955008 235.098437)scale(0.1 -0.1)">
       <use xlink:href="#DejaVuSans-48"/>
       <use x="63.623047" xlink:href="#DejaVuSans-46"/>
       <use x="95.410156" xlink:href="#DejaVuSans-56"/>
      </g>
     </g>
    </g>
    <g id="text_6">
     <!-- fractional ratio -->
     <defs>
      <path d="M 37.109375 75.984375 
L 37.109375 68.5 
L 28.515625 68.5 
Q 23.6875 68.5 21.796875 66.546875 
Q 19.921875 64.59375 19.921875 59.515625 
L 19.921875 54.6875 
L 34.71875 54.6875 
L 34.71875 47.703125 
L 19.921875 47.703125 
L 19.921875 0 
L 10.890625 0 
L 10.890625 47.703125 
L 2.296875 47.703125 
L 2.296875 54.6875 
L 10.890625 54.6875 
L 10.890625 58.5 
Q 10.890625 67.625 15.140625 71.796875 
Q 19.390625 75.984375 28.609375 75.984375 
z
" id="DejaVuSans-102"/>
      <path d="M 41.109375 46.296875 
Q 39.59375 47.171875 37.8125 47.578125 
Q 36.03125 48 33.890625 48 
Q 26.265625 48 22.1875 43.046875 
Q 18.109375 38.09375 18.109375 28.8125 
L 18.109375 0 
L 9.078125 0 
L 9.078125 54.6875 
L 18.109375 54.6875 
L 18.109375 46.1875 
Q 20.953125 51.171875 25.484375 53.578125 
Q 30.03125 56 36.53125 56 
Q 37.453125 56 38.578125 55.875 
Q 39.703125 55.765625 41.0625 55.515625 
z
" id="DejaVuSans-114"/>
      <path d="M 34.28125 27.484375 
Q 23.390625 27.484375 19.1875 25 
Q 14.984375 22.515625 14.984375 16.5 
Q 14.984375 11.71875 18.140625 8.90625 
Q 21.296875 6.109375 26.703125 6.109375 
Q 34.1875 6.109375 38.703125 11.40625 
Q 43.21875 16.703125 43.21875 25.484375 
L 43.21875 27.484375 
z
M 52.203125 31.203125 
L 52.203125 0 
L 43.21875 0 
L 43.21875 8.296875 
Q 40.140625 3.328125 35.546875 0.953125 
Q 30.953125 -1.421875 24.3125 -1.421875 
Q 15.921875 -1.421875 10.953125 3.296875 
Q 6 8.015625 6 15.921875 
Q 6 25.140625 12.171875 29.828125 
Q 18.359375 34.515625 30.609375 34.515625 
L 43.21875 34.515625 
L 43.21875 35.40625 
Q 43.21875 41.609375 39.140625 45 
Q 35.0625 48.390625 27.6875 48.390625 
Q 23 48.390625 18.546875 47.265625 
Q 14.109375 46.140625 10.015625 43.890625 
L 10.015625 52.203125 
Q 14.9375 54.109375 19.578125 55.046875 
Q 24.21875 56 28.609375 56 
Q 40.484375 56 46.34375 49.84375 
Q 52.203125 43.703125 52.203125 31.203125 
z
" id="DejaVuSans-97"/>
      <path d="M 48.78125 52.59375 
L 48.78125 44.1875 
Q 44.96875 46.296875 41.140625 47.34375 
Q 37.3125 48.390625 33.40625 48.390625 
Q 24.65625 48.390625 19.8125 42.84375 
Q 14.984375 37.3125 14.984375 27.296875 
Q 14.984375 17.28125 19.8125 11.734375 
Q 24.65625 6.203125 33.40625 6.203125 
Q 37.3125 6.203125 41.140625 7.25 
Q 44.96875 8.296875 48.78125 10.40625 
L 48.78125 2.09375 
Q 45.015625 0.34375 40.984375 -0.53125 
Q 36.96875 -1.421875 32.421875 -1.421875 
Q 20.0625 -1.421875 12.78125 6.34375 
Q 5.515625 14.109375 5.515625 27.296875 
Q 5.515625 40.671875 12.859375 48.328125 
Q 20.21875 56 33.015625 56 
Q 37.15625 56 41.109375 55.140625 
Q 45.0625 54.296875 48.78125 52.59375 
z
" id="DejaVuSans-99"/>
      <path d="M 18.3125 70.21875 
L 18.3125 54.6875 
L 36.8125 54.6875 
L 36.8125 47.703125 
L 18.3125 47.703125 
L 18.3125 18.015625 
Q 18.3125 11.328125 20.140625 9.421875 
Q 21.96875 7.515625 27.59375 7.515625 
L 36.8125 7.515625 
L 36.8125 0 
L 27.59375 0 
Q 17.1875 0 13.234375 3.875 
Q 9.28125 7.765625 9.28125 18.015625 
L 9.28125 47.703125 
L 2.6875 47.703125 
L 2.6875 54.6875 
L 9.28125 54.6875 
L 9.28125 70.21875 
z
" id="DejaVuSans-116"/>
      <path d="M 9.421875 54.6875 
L 18.40625 54.6875 
L 18.40625 0 
L 9.421875 0 
z
M 9.421875 75.984375 
L 18.40625 75.984375 
L 18.40625 64.59375 
L 9.421875 64.59375 
z
" id="DejaVuSans-105"/>
      <path d="M 30.609375 48.390625 
Q 23.390625 48.390625 19.1875 42.75 
Q 14.984375 37.109375 14.984375 27.296875 
Q 14.984375 17.484375 19.15625 11.84375 
Q 23.34375 6.203125 30.609375 6.203125 
Q 37.796875 6.203125 41.984375 11.859375 
Q 46.1875 17.53125 46.1875 27.296875 
Q 46.1875 37.015625 41.984375 42.703125 
Q 37.796875 48.390625 30.609375 48.390625 
z
M 30.609375 56 
Q 42.328125 56 49.015625 48.375 
Q 55.71875 40.765625 55.71875 27.296875 
Q 55.71875 13.875 49.015625 6.21875 
Q 42.328125 -1.421875 30.609375 -1.421875 
Q 18.84375 -1.421875 12.171875 6.21875 
Q 5.515625 13.875 5.515625 27.296875 
Q 5.515625 40.765625 12.171875 48.375 
Q 18.84375 56 30.609375 56 
z
" id="DejaVuSans-111"/>
      <path d="M 54.890625 33.015625 
L 54.890625 0 
L 45.90625 0 
L 45.90625 32.71875 
Q 45.90625 40.484375 42.875 44.328125 
Q 39.84375 48.1875 33.796875 48.1875 
Q 26.515625 48.1875 22.3125 43.546875 
Q 18.109375 38.921875 18.109375 30.90625 
L 18.109375 0 
L 9.078125 0 
L 9.078125 54.6875 
L 18.109375 54.6875 
L 18.109375 46.1875 
Q 21.34375 51.125 25.703125 53.5625 
Q 30.078125 56 35.796875 56 
Q 45.21875 56 50.046875 50.171875 
Q 54.890625 44.34375 54.890625 33.015625 
z
" id="DejaVuSans-110"/>
      <path d="M 9.421875 75.984375 
L 18.40625 75.984375 
L 18.40625 0 
L 9.421875 0 
z
" id="DejaVuSans-108"/>
      <path id="DejaVuSans-32"/>
     </defs>
     <g transform="translate(147.723437 248.776563)scale(0.1 -0.1)">
      <use xlink:href="#DejaVuSans-102"/>
      <use x="35.205078" xlink:href="#DejaVuSans-114"/>
      <use x="76.318359" xlink:href="#DejaVuSans-97"/>
      <use x="137.597656" xlink:href="#DejaVuSans-99"/>
      <use x="192.578125" xlink:href="#DejaVuSans-116"/>
      <use x="231.787109" xlink:href="#DejaVuSans-105"/>
      <use x="259.570312" xlink:href="#DejaVuSans-111"/>
      <use x="320.751953" xlink:href="#DejaVuSans-110"/>
      <use x="384.130859" xlink:href="#DejaVuSans-97"/>
      <use x="445.410156" xlink:href="#DejaVuSans-108"/>
      <use x="473.193359" xlink:href="#DejaVuSans-32"/>
      <use x="504.980469" xlink:href="#DejaVuSans-114"/>
      <use x="546.09375" xlink:href="#DejaVuSans-97"/>
      <use x="607.373047" xlink:href="#DejaVuSans-116"/>
      <use x="646.582031" xlink:href="#DejaVuSans-105"/>
      <use x="674.365234" xlink:href="#DejaVuSans-111"/>
     </g>
    </g>
   </g>
   <g id="matplotlib.axis_2">
    <g id="ytick_1">
     <g id="line2d_6">
      <defs>
       <path d="M 0 0 
L -3.5 0 
" id="me38993b6a7" style="stroke:#000000;stroke-width:0.8;"/>
      </defs>
      <g>
       <use style="stroke:#000000;stroke-width:0.8;" x="45" xlink:href="#me38993b6a7" y="220.5"/>
      </g>
     </g>
     <g id="text_7">
      <!-- 0.00 -->
      <g transform="translate(15.734375 224.299219)scale(0.1 -0.1)">
       <use xlink:href="#DejaVuSans-48"/>
       <use x="63.623047" xlink:href="#DejaVuSans-46"/>
       <use x="95.410156" xlink:href="#DejaVuSans-48"/>
       <use x="159.033203" xlink:href="#DejaVuSans-48"/>
      </g>
     </g>
    </g>
    <g id="ytick_2">
     <g id="line2d_7">
      <g>
       <use style="stroke:#000000;stroke-width:0.8;" x="45" xlink:href="#me38993b6a7" y="183.299525"/>
      </g>
     </g>
     <g id="text_8">
      <!-- 0.02 -->
      <g transform="translate(15.734375 187.098744)scale(0.1 -0.1)">
       <use xlink:href="#DejaVuSans-48"/>
       <use x="63.623047" xlink:href="#DejaVuSans-46"/>
       <use x="95.410156" xlink:href="#DejaVuSans-48"/>
       <use x="159.033203" xlink:href="#DejaVuSans-50"/>
      </g>
     </g>
    </g>
    <g id="ytick_3">
     <g id="line2d_8">
      <g>
       <use style="stroke:#000000;stroke-width:0.8;" x="45" xlink:href="#me38993b6a7" y="146.099051"/>
      </g>
     </g>
     <g id="text_9">
      <!-- 0.04 -->
      <g transform="translate(15.734375 149.898269)scale(0.1 -0.1)">
       <use xlink:href="#DejaVuSans-48"/>
       <use x="63.623047" xlink:href="#DejaVuSans-46"/>
       <use x="95.410156" xlink:href="#DejaVuSans-48"/>
       <use x="159.033203" xlink:href="#DejaVuSans-52"/>
      </g>
     </g>
    </g>
    <g id="ytick_4">
     <g id="line2d_9">
      <g>
       <use style="stroke:#000000;stroke-width:0.8;" x="45" xlink:href="#me38993b6a7" y="108.898576"/>
      </g>
     </g>
     <g id="text_10">
      <!-- 0.06 -->
      <g transform="translate(15.734375 112.697795)scale(0.1 -0.1)">
       <use xlink:href="#DejaVuSans-48"/>
       <use x="63.623047" xlink:href="#DejaVuSans-46"/>
       <use x="95.410156" xlink:href="#DejaVuSans-48"/>
       <use x="159.033203" xlink:href="#DejaVuSans-54"/>
      </g>
     </g>
    </g>
    <g id="ytick_5">
     <g id="line2d_10">
      <g>
       <use style="stroke:#000000;stroke-width:0.8;" x="45" xlink:href="#me38993b6a7" y="71.698101"/>
      </g>
     </g>
     <g id="text_11">
      <!-- 0.08 -->
      <g transform="translate(15.734375 75.49732)scale(0.1 -0.1)">
       <use xlink:href="#DejaVuSans-48"/>
       <use x="63.623047" xlink:href="#DejaVuSans-46"/>
       <use x="95.410156" xlink:href="#DejaVuSans-48"/>
       <use x="159.033203" xlink:href="#DejaVuSans-56"/>
      </g>
     </g>
    </g>
    <g id="ytick_6">
     <g id="line2d_11">
      <g>
       <use style="stroke:#000000;stroke-width:0.8;" x="45" xlink:href="#me38993b6a7" y="34.497627"/>
      </g>
     </g>
     <g id="text_12">
      <!-- 0.10 -->
      <defs>
       <path d="M 12.40625 8.296875 
L 28.515625 8.296875 
L 28.515625 63.921875 
L 10.984375 60.40625 
L 10.984375 69.390625 
L 28.421875 72.90625 
L 38.28125 72.90625 
L 38.28125 8.296875 
L 54.390625 8.296875 
L 54.390625 0 
L 12.40625 0 
z
" id="DejaVuSans-49"/>
      </defs>
      <g transform="translate(15.734375 38.296845)scale(0.1 -0.1)">
       <use xlink:href="#DejaVuSans-48"/>
       <use x="63.623047" xlink:href="#DejaVuSans-46"/>
       <use x="95.410156" xlink:href="#DejaVuSans-49"/>
       <use x="159.033203" xlink:href="#DejaVuSans-48"/>
      </g>
     </g>
    </g>
    <g id="text_13">
     <!-- fractional importance -->
     <defs>
      <path d="M 52 44.1875 
Q 55.375 50.25 60.0625 53.125 
Q 64.75 56 71.09375 56 
Q 79.640625 56 84.28125 50.015625 
Q 88.921875 44.046875 88.921875 33.015625 
L 88.921875 0 
L 79.890625 0 
L 79.890625 32.71875 
Q 79.890625 40.578125 77.09375 44.375 
Q 74.3125 48.1875 68.609375 48.1875 
Q 61.625 48.1875 57.5625 43.546875 
Q 53.515625 38.921875 53.515625 30.90625 
L 53.515625 0 
L 44.484375 0 
L 44.484375 32.71875 
Q 44.484375 40.625 41.703125 44.40625 
Q 38.921875 48.1875 33.109375 48.1875 
Q 26.21875 48.1875 22.15625 43.53125 
Q 18.109375 38.875 18.109375 30.90625 
L 18.109375 0 
L 9.078125 0 
L 9.078125 54.6875 
L 18.109375 54.6875 
L 18.109375 46.1875 
Q 21.1875 51.21875 25.484375 53.609375 
Q 29.78125 56 35.6875 56 
Q 41.65625 56 45.828125 52.96875 
Q 50 49.953125 52 44.1875 
z
" id="DejaVuSans-109"/>
      <path d="M 18.109375 8.203125 
L 18.109375 -20.796875 
L 9.078125 -20.796875 
L 9.078125 54.6875 
L 18.109375 54.6875 
L 18.109375 46.390625 
Q 20.953125 51.265625 25.265625 53.625 
Q 29.59375 56 35.59375 56 
Q 45.5625 56 51.78125 48.09375 
Q 58.015625 40.1875 58.015625 27.296875 
Q 58.015625 14.40625 51.78125 6.484375 
Q 45.5625 -1.421875 35.59375 -1.421875 
Q 29.59375 -1.421875 25.265625 0.953125 
Q 20.953125 3.328125 18.109375 8.203125 
z
M 48.6875 27.296875 
Q 48.6875 37.203125 44.609375 42.84375 
Q 40.53125 48.484375 33.40625 48.484375 
Q 26.265625 48.484375 22.1875 42.84375 
Q 18.109375 37.203125 18.109375 27.296875 
Q 18.109375 17.390625 22.1875 11.75 
Q 26.265625 6.109375 33.40625 6.109375 
Q 40.53125 6.109375 44.609375 11.75 
Q 48.6875 17.390625 48.6875 27.296875 
z
" id="DejaVuSans-112"/>
      <path d="M 56.203125 29.59375 
L 56.203125 25.203125 
L 14.890625 25.203125 
Q 15.484375 15.921875 20.484375 11.0625 
Q 25.484375 6.203125 34.421875 6.203125 
Q 39.59375 6.203125 44.453125 7.46875 
Q 49.3125 8.734375 54.109375 11.28125 
L 54.109375 2.78125 
Q 49.265625 0.734375 44.1875 -0.34375 
Q 39.109375 -1.421875 33.890625 -1.421875 
Q 20.796875 -1.421875 13.15625 6.1875 
Q 5.515625 13.8125 5.515625 26.8125 
Q 5.515625 40.234375 12.765625 48.109375 
Q 20.015625 56 32.328125 56 
Q 43.359375 56 49.78125 48.890625 
Q 56.203125 41.796875 56.203125 29.59375 
z
M 47.21875 32.234375 
Q 47.125 39.59375 43.09375 43.984375 
Q 39.0625 48.390625 32.421875 48.390625 
Q 24.90625 48.390625 20.390625 44.140625 
Q 15.875 39.890625 15.1875 32.171875 
z
" id="DejaVuSans-101"/>
     </defs>
     <g transform="translate(9.654687 179.185625)rotate(-90)scale(0.1 -0.1)">
      <use xlink:href="#DejaVuSans-102"/>
      <use x="35.205078" xlink:href="#DejaVuSans-114"/>
      <use x="76.318359" xlink:href="#DejaVuSans-97"/>
      <use x="137.597656" xlink:href="#DejaVuSans-99"/>
      <use x="192.578125" xlink:href="#DejaVuSans-116"/>
      <use x="231.787109" xlink:href="#DejaVuSans-105"/>
      <use x="259.570312" xlink:href="#DejaVuSans-111"/>
      <use x="320.751953" xlink:href="#DejaVuSans-110"/>
      <use x="384.130859" xlink:href="#DejaVuSans-97"/>
      <use x="445.410156" xlink:href="#DejaVuSans-108"/>
      <use x="473.193359" xlink:href="#DejaVuSans-32"/>
      <use x="504.980469" xlink:href="#DejaVuSans-105"/>
      <use x="532.763672" xlink:href="#DejaVuSans-109"/>
      <use x="630.175781" xlink:href="#DejaVuSans-112"/>
      <use x="693.652344" xlink:href="#DejaVuSans-111"/>
      <use x="754.833984" xlink:href="#DejaVuSans-114"/>
      <use x="795.947266" xlink:href="#DejaVuSans-116"/>
      <use x="835.15625" xlink:href="#DejaVuSans-97"/>
      <use x="896.435547" xlink:href="#DejaVuSans-110"/>
      <use x="959.814453" xlink:href="#DejaVuSans-99"/>
      <use x="1014.794922" xlink:href="#DejaVuSans-101"/>
     </g>
    </g>
   </g>
   <g id="patch_3">
    <path d="M 45 220.5 
L 45 30.24 
" style="fill:none;stroke:#000000;stroke-linecap:square;stroke-linejoin:miter;stroke-width:0.8;"/>
   </g>
   <g id="patch_4">
    <path d="M 324 220.5 
L 324 30.24 
" style="fill:none;stroke:#000000;stroke-linecap:square;stroke-linejoin:miter;stroke-width:0.8;"/>
   </g>
   <g id="patch_5">
    <path d="M 45 220.5 
L 324 220.5 
" style="fill:none;stroke:#000000;stroke-linecap:square;stroke-linejoin:miter;stroke-width:0.8;"/>
   </g>
   <g id="patch_6">
    <path d="M 45 30.24 
L 324 30.24 
" style="fill:none;stroke:#000000;stroke-linecap:square;stroke-linejoin:miter;stroke-width:0.8;"/>
   </g>
   <g id="text_14">
    <!-- Corynebacterium glutamicum -->
    <defs>
     <path d="M 64.40625 67.28125 
L 64.40625 56.890625 
Q 59.421875 61.53125 53.78125 63.8125 
Q 48.140625 66.109375 41.796875 66.109375 
Q 29.296875 66.109375 22.65625 58.46875 
Q 16.015625 50.828125 16.015625 36.375 
Q 16.015625 21.96875 22.65625 14.328125 
Q 29.296875 6.6875 41.796875 6.6875 
Q 48.140625 6.6875 53.78125 8.984375 
Q 59.421875 11.28125 64.40625 15.921875 
L 64.40625 5.609375 
Q 59.234375 2.09375 53.4375 0.328125 
Q 47.65625 -1.421875 41.21875 -1.421875 
Q 24.65625 -1.421875 15.125 8.703125 
Q 5.609375 18.84375 5.609375 36.375 
Q 5.609375 53.953125 15.125 64.078125 
Q 24.65625 74.21875 41.21875 74.21875 
Q 47.75 74.21875 53.53125 72.484375 
Q 59.328125 70.75 64.40625 67.28125 
z
" id="DejaVuSans-67"/>
     <path d="M 32.171875 -5.078125 
Q 28.375 -14.84375 24.75 -17.8125 
Q 21.140625 -20.796875 15.09375 -20.796875 
L 7.90625 -20.796875 
L 7.90625 -13.28125 
L 13.1875 -13.28125 
Q 16.890625 -13.28125 18.9375 -11.515625 
Q 21 -9.765625 23.484375 -3.21875 
L 25.09375 0.875 
L 2.984375 54.6875 
L 12.5 54.6875 
L 29.59375 11.921875 
L 46.6875 54.6875 
L 56.203125 54.6875 
z
" id="DejaVuSans-121"/>
     <path d="M 48.6875 27.296875 
Q 48.6875 37.203125 44.609375 42.84375 
Q 40.53125 48.484375 33.40625 48.484375 
Q 26.265625 48.484375 22.1875 42.84375 
Q 18.109375 37.203125 18.109375 27.296875 
Q 18.109375 17.390625 22.1875 11.75 
Q 26.265625 6.109375 33.40625 6.109375 
Q 40.53125 6.109375 44.609375 11.75 
Q 48.6875 17.390625 48.6875 27.296875 
z
M 18.109375 46.390625 
Q 20.953125 51.265625 25.265625 53.625 
Q 29.59375 56 35.59375 56 
Q 45.5625 56 51.78125 48.09375 
Q 58.015625 40.1875 58.015625 27.296875 
Q 58.015625 14.40625 51.78125 6.484375 
Q 45.5625 -1.421875 35.59375 -1.421875 
Q 29.59375 -1.421875 25.265625 0.953125 
Q 20.953125 3.328125 18.109375 8.203125 
L 18.109375 0 
L 9.078125 0 
L 9.078125 75.984375 
L 18.109375 75.984375 
z
" id="DejaVuSans-98"/>
     <path d="M 8.5 21.578125 
L 8.5 54.6875 
L 17.484375 54.6875 
L 17.484375 21.921875 
Q 17.484375 14.15625 20.5 10.265625 
Q 23.53125 6.390625 29.59375 6.390625 
Q 36.859375 6.390625 41.078125 11.03125 
Q 45.3125 15.671875 45.3125 23.6875 
L 45.3125 54.6875 
L 54.296875 54.6875 
L 54.296875 0 
L 45.3125 0 
L 45.3125 8.40625 
Q 42.046875 3.421875 37.71875 1 
Q 33.40625 -1.421875 27.6875 -1.421875 
Q 18.265625 -1.421875 13.375 4.4375 
Q 8.5 10.296875 8.5 21.578125 
z
M 31.109375 56 
z
" id="DejaVuSans-117"/>
     <path d="M 45.40625 27.984375 
Q 45.40625 37.75 41.375 43.109375 
Q 37.359375 48.484375 30.078125 48.484375 
Q 22.859375 48.484375 18.828125 43.109375 
Q 14.796875 37.75 14.796875 27.984375 
Q 14.796875 18.265625 18.828125 12.890625 
Q 22.859375 7.515625 30.078125 7.515625 
Q 37.359375 7.515625 41.375 12.890625 
Q 45.40625 18.265625 45.40625 27.984375 
z
M 54.390625 6.78125 
Q 54.390625 -7.171875 48.1875 -13.984375 
Q 42 -20.796875 29.203125 -20.796875 
Q 24.46875 -20.796875 20.265625 -20.09375 
Q 16.0625 -19.390625 12.109375 -17.921875 
L 12.109375 -9.1875 
Q 16.0625 -11.328125 19.921875 -12.34375 
Q 23.78125 -13.375 27.78125 -13.375 
Q 36.625 -13.375 41.015625 -8.765625 
Q 45.40625 -4.15625 45.40625 5.171875 
L 45.40625 9.625 
Q 42.625 4.78125 38.28125 2.390625 
Q 33.9375 0 27.875 0 
Q 17.828125 0 11.671875 7.65625 
Q 5.515625 15.328125 5.515625 27.984375 
Q 5.515625 40.671875 11.671875 48.328125 
Q 17.828125 56 27.875 56 
Q 33.9375 56 38.28125 53.609375 
Q 42.625 51.21875 45.40625 46.390625 
L 45.40625 54.6875 
L 54.390625 54.6875 
z
" id="DejaVuSans-103"/>
    </defs>
    <g transform="translate(94.845938 24.24)scale(0.12 -0.12)">
     <use xlink:href="#DejaVuSans-67"/>
     <use x="69.824219" xlink:href="#DejaVuSans-111"/>
     <use x="131.005859" xlink:href="#DejaVuSans-114"/>
     <use x="172.119141" xlink:href="#DejaVuSans-121"/>
     <use x="231.298828" xlink:href="#DejaVuSans-110"/>
     <use x="294.677734" xlink:href="#DejaVuSans-101"/>
     <use x="356.201172" xlink:href="#DejaVuSans-98"/>
     <use x="419.677734" xlink:href="#DejaVuSans-97"/>
     <use x="480.957031" xlink:href="#DejaVuSans-99"/>
     <use x="535.9375" xlink:href="#DejaVuSans-116"/>
     <use x="575.146484" xlink:href="#DejaVuSans-101"/>
     <use x="636.669922" xlink:href="#DejaVuSans-114"/>
     <use x="677.783203" xlink:href="#DejaVuSans-105"/>
     <use x="705.566406" xlink:href="#DejaVuSans-117"/>
     <use x="768.945312" xlink:href="#DejaVuSans-109"/>
     <use x="866.357422" xlink:href="#DejaVuSans-32"/>
     <use x="898.144531" xlink:href="#DejaVuSans-103"/>
     <use x="961.621094" xlink:href="#DejaVuSans-108"/>
     <use x="989.404297" xlink:href="#DejaVuSans-117"/>
     <use x="1052.783203" xlink:href="#DejaVuSans-116"/>
     <use x="1091.992188" xlink:href="#DejaVuSans-97"/>
     <use x="1153.271484" xlink:href="#DejaVuSans-109"/>
     <use x="1250.683594" xlink:href="#DejaVuSans-105"/>
     <use x="1278.466797" xlink:href="#DejaVuSans-99"/>
     <use x="1333.447266" xlink:href="#DejaVuSans-117"/>
     <use x="1396.826172" xlink:href="#DejaVuSans-109"/>
    </g>
   </g>
  </g>
 </g>
 <defs>
  <clipPath id="p104f741b78">
   <rect height="190.26" width="279" x="45" y="30.24"/>
  </clipPath>
 </defs>
</svg>
