<?xml version="1.0" encoding="utf-8" standalone="no"?>
<!DOCTYPE svg PUBLIC "-//W3C//DTD SVG 1.1//EN"
  "http://www.w3.org/Graphics/SVG/1.1/DTD/svg11.dtd">
<!-- Created with matplotlib (https://matplotlib.org/) -->
<svg height="252pt" version="1.1" viewBox="0 0 360 252" width="360pt" xmlns="http://www.w3.org/2000/svg" xmlns:xlink="http://www.w3.org/1999/xlink">
 <defs>
  <style type="text/css">
*{stroke-linecap:butt;stroke-linejoin:round;}
  </style>
 </defs>
 <g id="figure_1">
  <g id="patch_1">
   <path d="M 0 252 
L 360 252 
L 360 0 
L 0 0 
z
" style="fill:#ffffff;"/>
  </g>
  <g id="axes_1">
   <g id="patch_2">
    <path d="M 55.3 202.2 
L 342.185294 202.2 
L 342.185294 29.003125 
L 55.3 29.003125 
z
" style="fill:#ffffff;"/>
   </g>
   <g id="PathCollection_1">
    <defs>
     <path d="M 0 5 
C 1.326016 5 2.597899 4.473168 3.535534 3.535534 
C 4.473168 2.597899 5 1.326016 5 0 
C 5 -1.326016 4.473168 -2.597899 3.535534 -3.535534 
C 2.597899 -4.473168 1.326016 -5 0 -5 
C -1.326016 -5 -2.597899 -4.473168 -3.535534 -3.535534 
C -4.473168 -2.597899 -5 -1.326016 -5 0 
C -5 1.326016 -4.473168 2.597899 -3.535534 3.535534 
C -2.597899 4.473168 -1.326016 5 0 5 
z
" id="m4cd07ded91" style="stroke:#000000;stroke-opacity:0.3;"/>
    </defs>
    <g clip-path="url(#p2b88e46cba)">
     <use style="fill-opacity:0.3;stroke:#000000;stroke-opacity:0.3;" x="339.372693" xlink:href="#m4cd07ded91" y="202.16519"/>
     <use style="fill-opacity:0.3;stroke:#000000;stroke-opacity:0.3;" x="69.559233" xlink:href="#m4cd07ded91" y="202.164285"/>
     <use style="fill-opacity:0.3;stroke:#000000;stroke-opacity:0.3;" x="339.372693" xlink:href="#m4cd07ded91" y="202.15047"/>
     <use style="fill-opacity:0.3;stroke:#000000;stroke-opacity:0.3;" x="247.370726" xlink:href="#m4cd07ded91" y="198.643099"/>
     <use style="fill-opacity:0.3;stroke:#000000;stroke-opacity:0.3;" x="216.029397" xlink:href="#m4cd07ded91" y="201.861892"/>
     <use style="fill-opacity:0.3;stroke:#000000;stroke-opacity:0.3;" x="339.372693" xlink:href="#m4cd07ded91" y="202.199986"/>
     <use style="fill-opacity:0.3;stroke:#000000;stroke-opacity:0.3;" x="330.562458" xlink:href="#m4cd07ded91" y="187.021021"/>
     <use style="fill-opacity:0.3;stroke:#000000;stroke-opacity:0.3;" x="318.815477" xlink:href="#m4cd07ded91" y="197.682915"/>
     <use style="fill-opacity:0.3;stroke:#000000;stroke-opacity:0.3;" x="219.4556" xlink:href="#m4cd07ded91" y="201.191011"/>
     <use style="fill-opacity:0.3;stroke:#000000;stroke-opacity:0.3;" x="299.058747" xlink:href="#m4cd07ded91" y="194.911643"/>
     <use style="fill-opacity:0.3;stroke:#000000;stroke-opacity:0.3;" x="326.675589" xlink:href="#m4cd07ded91" y="198.402743"/>
     <use style="fill-opacity:0.3;stroke:#000000;stroke-opacity:0.3;" x="339.372693" xlink:href="#m4cd07ded91" y="202.166037"/>
     <use style="fill-opacity:0.3;stroke:#000000;stroke-opacity:0.3;" x="339.372693" xlink:href="#m4cd07ded91" y="202.198774"/>
     <use style="fill-opacity:0.3;stroke:#000000;stroke-opacity:0.3;" x="339.372693" xlink:href="#m4cd07ded91" y="202.132198"/>
     <use style="fill-opacity:0.3;stroke:#000000;stroke-opacity:0.3;" x="326.675589" xlink:href="#m4cd07ded91" y="200.642414"/>
     <use style="fill-opacity:0.3;stroke:#000000;stroke-opacity:0.3;" x="339.372693" xlink:href="#m4cd07ded91" y="202.183197"/>
     <use style="fill-opacity:0.3;stroke:#000000;stroke-opacity:0.3;" x="339.372693" xlink:href="#m4cd07ded91" y="202.196505"/>
     <use style="fill-opacity:0.3;stroke:#000000;stroke-opacity:0.3;" x="339.372693" xlink:href="#m4cd07ded91" y="200.454526"/>
     <use style="fill-opacity:0.3;stroke:#000000;stroke-opacity:0.3;" x="334.522114" xlink:href="#m4cd07ded91" y="199.410344"/>
     <use style="fill-opacity:0.3;stroke:#000000;stroke-opacity:0.3;" x="209.862232" xlink:href="#m4cd07ded91" y="201.920716"/>
     <use style="fill-opacity:0.3;stroke:#000000;stroke-opacity:0.3;" x="330.28424" xlink:href="#m4cd07ded91" y="196.358094"/>
     <use style="fill-opacity:0.3;stroke:#000000;stroke-opacity:0.3;" x="165.605682" xlink:href="#m4cd07ded91" y="201.849208"/>
     <use style="fill-opacity:0.3;stroke:#000000;stroke-opacity:0.3;" x="135.766902" xlink:href="#m4cd07ded91" y="202.008725"/>
     <use style="fill-opacity:0.3;stroke:#000000;stroke-opacity:0.3;" x="231.447309" xlink:href="#m4cd07ded91" y="201.989165"/>
     <use style="fill-opacity:0.3;stroke:#000000;stroke-opacity:0.3;" x="156.127482" xlink:href="#m4cd07ded91" y="202.018071"/>
     <use style="fill-opacity:0.3;stroke:#000000;stroke-opacity:0.3;" x="339.372693" xlink:href="#m4cd07ded91" y="29.003125"/>
     <use style="fill-opacity:0.3;stroke:#000000;stroke-opacity:0.3;" x="339.372693" xlink:href="#m4cd07ded91" y="200.125588"/>
     <use style="fill-opacity:0.3;stroke:#000000;stroke-opacity:0.3;" x="211.527197" xlink:href="#m4cd07ded91" y="201.955618"/>
     <use style="fill-opacity:0.3;stroke:#000000;stroke-opacity:0.3;" x="209.862232" xlink:href="#m4cd07ded91" y="201.920716"/>
     <use style="fill-opacity:0.3;stroke:#000000;stroke-opacity:0.3;" x="339.372693" xlink:href="#m4cd07ded91" y="202.183197"/>
     <use style="fill-opacity:0.3;stroke:#000000;stroke-opacity:0.3;" x="306.164883" xlink:href="#m4cd07ded91" y="197.865429"/>
     <use style="fill-opacity:0.3;stroke:#000000;stroke-opacity:0.3;" x="148.537443" xlink:href="#m4cd07ded91" y="199.629699"/>
     <use style="fill-opacity:0.3;stroke:#000000;stroke-opacity:0.3;" x="175.661235" xlink:href="#m4cd07ded91" y="198.464626"/>
     <use style="fill-opacity:0.3;stroke:#000000;stroke-opacity:0.3;" x="130.922522" xlink:href="#m4cd07ded91" y="198.36517"/>
     <use style="fill-opacity:0.3;stroke:#000000;stroke-opacity:0.3;" x="296.202539" xlink:href="#m4cd07ded91" y="201.742088"/>
     <use style="fill-opacity:0.3;stroke:#000000;stroke-opacity:0.3;" x="339.372693" xlink:href="#m4cd07ded91" y="199.75076"/>
     <use style="fill-opacity:0.3;stroke:#000000;stroke-opacity:0.3;" x="339.372693" xlink:href="#m4cd07ded91" y="202.085332"/>
     <use style="fill-opacity:0.3;stroke:#000000;stroke-opacity:0.3;" x="339.372693" xlink:href="#m4cd07ded91" y="202.085332"/>
     <use style="fill-opacity:0.3;stroke:#000000;stroke-opacity:0.3;" x="110.316179" xlink:href="#m4cd07ded91" y="201.693844"/>
     <use style="fill-opacity:0.3;stroke:#000000;stroke-opacity:0.3;" x="315.389274" xlink:href="#m4cd07ded91" y="201.01202"/>
     <use style="fill-opacity:0.3;stroke:#000000;stroke-opacity:0.3;" x="339.372693" xlink:href="#m4cd07ded91" y="199.75076"/>
     <use style="fill-opacity:0.3;stroke:#000000;stroke-opacity:0.3;" x="339.372693" xlink:href="#m4cd07ded91" y="202.066067"/>
     <use style="fill-opacity:0.3;stroke:#000000;stroke-opacity:0.3;" x="130.922522" xlink:href="#m4cd07ded91" y="198.36517"/>
     <use style="fill-opacity:0.3;stroke:#000000;stroke-opacity:0.3;" x="339.372693" xlink:href="#m4cd07ded91" y="199.75076"/>
     <use style="fill-opacity:0.3;stroke:#000000;stroke-opacity:0.3;" x="339.372693" xlink:href="#m4cd07ded91" y="202.085332"/>
     <use style="fill-opacity:0.3;stroke:#000000;stroke-opacity:0.3;" x="307.976218" xlink:href="#m4cd07ded91" y="197.769894"/>
     <use style="fill-opacity:0.3;stroke:#000000;stroke-opacity:0.3;" x="307.976218" xlink:href="#m4cd07ded91" y="197.769894"/>
     <use style="fill-opacity:0.3;stroke:#000000;stroke-opacity:0.3;" x="163.042395" xlink:href="#m4cd07ded91" y="201.808324"/>
     <use style="fill-opacity:0.3;stroke:#000000;stroke-opacity:0.3;" x="339.372693" xlink:href="#m4cd07ded91" y="202.199992"/>
     <use style="fill-opacity:0.3;stroke:#000000;stroke-opacity:0.3;" x="70.723605" xlink:href="#m4cd07ded91" y="201.632225"/>
     <use style="fill-opacity:0.3;stroke:#000000;stroke-opacity:0.3;" x="72.357298" xlink:href="#m4cd07ded91" y="201.564342"/>
     <use style="fill-opacity:0.3;stroke:#000000;stroke-opacity:0.3;" x="339.372693" xlink:href="#m4cd07ded91" y="202.066067"/>
     <use style="fill-opacity:0.3;stroke:#000000;stroke-opacity:0.3;" x="151.865965" xlink:href="#m4cd07ded91" y="201.815198"/>
     <use style="fill-opacity:0.3;stroke:#000000;stroke-opacity:0.3;" x="339.372693" xlink:href="#m4cd07ded91" y="201.411732"/>
     <use style="fill-opacity:0.3;stroke:#000000;stroke-opacity:0.3;" x="307.394802" xlink:href="#m4cd07ded91" y="201.284935"/>
     <use style="fill-opacity:0.3;stroke:#000000;stroke-opacity:0.3;" x="77.322546" xlink:href="#m4cd07ded91" y="201.840802"/>
     <use style="fill-opacity:0.3;stroke:#000000;stroke-opacity:0.3;" x="339.372693" xlink:href="#m4cd07ded91" y="202.15047"/>
     <use style="fill-opacity:0.3;stroke:#000000;stroke-opacity:0.3;" x="339.372693" xlink:href="#m4cd07ded91" y="201.401807"/>
     <use style="fill-opacity:0.3;stroke:#000000;stroke-opacity:0.3;" x="299.997689" xlink:href="#m4cd07ded91" y="161.170509"/>
     <use style="fill-opacity:0.3;stroke:#000000;stroke-opacity:0.3;" x="59.115311" xlink:href="#m4cd07ded91" y="202.009371"/>
     <use style="fill-opacity:0.3;stroke:#000000;stroke-opacity:0.3;" x="208.483256" xlink:href="#m4cd07ded91" y="201.961487"/>
     <use style="fill-opacity:0.3;stroke:#000000;stroke-opacity:0.3;" x="218.816633" xlink:href="#m4cd07ded91" y="201.827134"/>
     <use style="fill-opacity:0.3;stroke:#000000;stroke-opacity:0.3;" x="339.372693" xlink:href="#m4cd07ded91" y="202.117288"/>
     <use style="fill-opacity:0.3;stroke:#000000;stroke-opacity:0.3;" x="307.976218" xlink:href="#m4cd07ded91" y="197.769894"/>
     <use style="fill-opacity:0.3;stroke:#000000;stroke-opacity:0.3;" x="209.327704" xlink:href="#m4cd07ded91" y="201.691914"/>
     <use style="fill-opacity:0.3;stroke:#000000;stroke-opacity:0.3;" x="234.661144" xlink:href="#m4cd07ded91" y="201.897335"/>
     <use style="fill-opacity:0.3;stroke:#000000;stroke-opacity:0.3;" x="339.372693" xlink:href="#m4cd07ded91" y="202.2"/>
     <use style="fill-opacity:0.3;stroke:#000000;stroke-opacity:0.3;" x="151.305239" xlink:href="#m4cd07ded91" y="201.935568"/>
     <use style="fill-opacity:0.3;stroke:#000000;stroke-opacity:0.3;" x="91.206321" xlink:href="#m4cd07ded91" y="201.402063"/>
     <use style="fill-opacity:0.3;stroke:#000000;stroke-opacity:0.3;" x="76.492986" xlink:href="#m4cd07ded91" y="201.523846"/>
     <use style="fill-opacity:0.3;stroke:#000000;stroke-opacity:0.3;" x="110.316179" xlink:href="#m4cd07ded91" y="201.693844"/>
     <use style="fill-opacity:0.3;stroke:#000000;stroke-opacity:0.3;" x="145.021711" xlink:href="#m4cd07ded91" y="198.515636"/>
     <use style="fill-opacity:0.3;stroke:#000000;stroke-opacity:0.3;" x="174.990959" xlink:href="#m4cd07ded91" y="201.38204"/>
     <use style="fill-opacity:0.3;stroke:#000000;stroke-opacity:0.3;" x="104.208005" xlink:href="#m4cd07ded91" y="201.735211"/>
     <use style="fill-opacity:0.3;stroke:#000000;stroke-opacity:0.3;" x="184.319053" xlink:href="#m4cd07ded91" y="202.065609"/>
     <use style="fill-opacity:0.3;stroke:#000000;stroke-opacity:0.3;" x="336.02617" xlink:href="#m4cd07ded91" y="194.260992"/>
     <use style="fill-opacity:0.3;stroke:#000000;stroke-opacity:0.3;" x="113.240304" xlink:href="#m4cd07ded91" y="201.632645"/>
     <use style="fill-opacity:0.3;stroke:#000000;stroke-opacity:0.3;" x="266.83813" xlink:href="#m4cd07ded91" y="194.769394"/>
     <use style="fill-opacity:0.3;stroke:#000000;stroke-opacity:0.3;" x="189.784765" xlink:href="#m4cd07ded91" y="201.624047"/>
     <use style="fill-opacity:0.3;stroke:#000000;stroke-opacity:0.3;" x="234.661144" xlink:href="#m4cd07ded91" y="202.156786"/>
     <use style="fill-opacity:0.3;stroke:#000000;stroke-opacity:0.3;" x="302.723651" xlink:href="#m4cd07ded91" y="202.120343"/>
     <use style="fill-opacity:0.3;stroke:#000000;stroke-opacity:0.3;" x="172.786137" xlink:href="#m4cd07ded91" y="201.592251"/>
     <use style="fill-opacity:0.3;stroke:#000000;stroke-opacity:0.3;" x="123.521925" xlink:href="#m4cd07ded91" y="202.078858"/>
     <use style="fill-opacity:0.3;stroke:#000000;stroke-opacity:0.3;" x="330.562458" xlink:href="#m4cd07ded91" y="187.021021"/>
     <use style="fill-opacity:0.3;stroke:#000000;stroke-opacity:0.3;" x="325.49048" xlink:href="#m4cd07ded91" y="187.69177"/>
     <use style="fill-opacity:0.3;stroke:#000000;stroke-opacity:0.3;" x="271.209293" xlink:href="#m4cd07ded91" y="201.035013"/>
     <use style="fill-opacity:0.3;stroke:#000000;stroke-opacity:0.3;" x="339.372693" xlink:href="#m4cd07ded91" y="202.085332"/>
     <use style="fill-opacity:0.3;stroke:#000000;stroke-opacity:0.3;" x="339.372693" xlink:href="#m4cd07ded91" y="202.085332"/>
     <use style="fill-opacity:0.3;stroke:#000000;stroke-opacity:0.3;" x="339.372693" xlink:href="#m4cd07ded91" y="202.162675"/>
     <use style="fill-opacity:0.3;stroke:#000000;stroke-opacity:0.3;" x="339.372693" xlink:href="#m4cd07ded91" y="202.2"/>
     <use style="fill-opacity:0.3;stroke:#000000;stroke-opacity:0.3;" x="339.372693" xlink:href="#m4cd07ded91" y="202.186786"/>
     <use style="fill-opacity:0.3;stroke:#000000;stroke-opacity:0.3;" x="339.372693" xlink:href="#m4cd07ded91" y="201.901344"/>
     <use style="fill-opacity:0.3;stroke:#000000;stroke-opacity:0.3;" x="122.157743" xlink:href="#m4cd07ded91" y="192.384233"/>
     <use style="fill-opacity:0.3;stroke:#000000;stroke-opacity:0.3;" x="212.510624" xlink:href="#m4cd07ded91" y="202.006036"/>
     <use style="fill-opacity:0.3;stroke:#000000;stroke-opacity:0.3;" x="278.290956" xlink:href="#m4cd07ded91" y="202.048122"/>
     <use style="fill-opacity:0.3;stroke:#000000;stroke-opacity:0.3;" x="216.029397" xlink:href="#m4cd07ded91" y="202.119002"/>
     <use style="fill-opacity:0.3;stroke:#000000;stroke-opacity:0.3;" x="123.521925" xlink:href="#m4cd07ded91" y="202.187684"/>
     <use style="fill-opacity:0.3;stroke:#000000;stroke-opacity:0.3;" x="125.586613" xlink:href="#m4cd07ded91" y="191.02505"/>
     <use style="fill-opacity:0.3;stroke:#000000;stroke-opacity:0.3;" x="174.990959" xlink:href="#m4cd07ded91" y="201.38204"/>
     <use style="fill-opacity:0.3;stroke:#000000;stroke-opacity:0.3;" x="83.012117" xlink:href="#m4cd07ded91" y="201.489383"/>
     <use style="fill-opacity:0.3;stroke:#000000;stroke-opacity:0.3;" x="339.372693" xlink:href="#m4cd07ded91" y="202.196372"/>
     <use style="fill-opacity:0.3;stroke:#000000;stroke-opacity:0.3;" x="302.723651" xlink:href="#m4cd07ded91" y="202.039873"/>
     <use style="fill-opacity:0.3;stroke:#000000;stroke-opacity:0.3;" x="172.786137" xlink:href="#m4cd07ded91" y="201.952661"/>
     <use style="fill-opacity:0.3;stroke:#000000;stroke-opacity:0.3;" x="181.696581" xlink:href="#m4cd07ded91" y="201.768994"/>
     <use style="fill-opacity:0.3;stroke:#000000;stroke-opacity:0.3;" x="192.776524" xlink:href="#m4cd07ded91" y="201.634239"/>
     <use style="fill-opacity:0.3;stroke:#000000;stroke-opacity:0.3;" x="78.150796" xlink:href="#m4cd07ded91" y="201.834548"/>
     <use style="fill-opacity:0.3;stroke:#000000;stroke-opacity:0.3;" x="123.521925" xlink:href="#m4cd07ded91" y="202.078858"/>
     <use style="fill-opacity:0.3;stroke:#000000;stroke-opacity:0.3;" x="336.289111" xlink:href="#m4cd07ded91" y="192.825043"/>
     <use style="fill-opacity:0.3;stroke:#000000;stroke-opacity:0.3;" x="170.009695" xlink:href="#m4cd07ded91" y="201.29919"/>
     <use style="fill-opacity:0.3;stroke:#000000;stroke-opacity:0.3;" x="143.038538" xlink:href="#m4cd07ded91" y="202.022568"/>
     <use style="fill-opacity:0.3;stroke:#000000;stroke-opacity:0.3;" x="67.560614" xlink:href="#m4cd07ded91" y="201.324428"/>
     <use style="fill-opacity:0.3;stroke:#000000;stroke-opacity:0.3;" x="92.686101" xlink:href="#m4cd07ded91" y="201.383008"/>
     <use style="fill-opacity:0.3;stroke:#000000;stroke-opacity:0.3;" x="118.214679" xlink:href="#m4cd07ded91" y="200.410407"/>
     <use style="fill-opacity:0.3;stroke:#000000;stroke-opacity:0.3;" x="247.750087" xlink:href="#m4cd07ded91" y="202.112895"/>
     <use style="fill-opacity:0.3;stroke:#000000;stroke-opacity:0.3;" x="196.503545" xlink:href="#m4cd07ded91" y="201.491742"/>
     <use style="fill-opacity:0.3;stroke:#000000;stroke-opacity:0.3;" x="156.127482" xlink:href="#m4cd07ded91" y="202.163696"/>
     <use style="fill-opacity:0.3;stroke:#000000;stroke-opacity:0.3;" x="156.127482" xlink:href="#m4cd07ded91" y="202.109094"/>
     <use style="fill-opacity:0.3;stroke:#000000;stroke-opacity:0.3;" x="339.372693" xlink:href="#m4cd07ded91" y="202.119875"/>
     <use style="fill-opacity:0.3;stroke:#000000;stroke-opacity:0.3;" x="130.922522" xlink:href="#m4cd07ded91" y="198.36517"/>
     <use style="fill-opacity:0.3;stroke:#000000;stroke-opacity:0.3;" x="339.372693" xlink:href="#m4cd07ded91" y="200.49009"/>
     <use style="fill-opacity:0.3;stroke:#000000;stroke-opacity:0.3;" x="231.447309" xlink:href="#m4cd07ded91" y="201.914283"/>
     <use style="fill-opacity:0.3;stroke:#000000;stroke-opacity:0.3;" x="339.372693" xlink:href="#m4cd07ded91" y="202.086338"/>
     <use style="fill-opacity:0.3;stroke:#000000;stroke-opacity:0.3;" x="183.614263" xlink:href="#m4cd07ded91" y="201.801298"/>
     <use style="fill-opacity:0.3;stroke:#000000;stroke-opacity:0.3;" x="284.08319" xlink:href="#m4cd07ded91" y="190.827111"/>
     <use style="fill-opacity:0.3;stroke:#000000;stroke-opacity:0.3;" x="229.425566" xlink:href="#m4cd07ded91" y="201.644853"/>
     <use style="fill-opacity:0.3;stroke:#000000;stroke-opacity:0.3;" x="307.394802" xlink:href="#m4cd07ded91" y="190.748529"/>
     <use style="fill-opacity:0.3;stroke:#000000;stroke-opacity:0.3;" x="184.319053" xlink:href="#m4cd07ded91" y="202.065609"/>
     <use style="fill-opacity:0.3;stroke:#000000;stroke-opacity:0.3;" x="104.208005" xlink:href="#m4cd07ded91" y="201.735211"/>
     <use style="fill-opacity:0.3;stroke:#000000;stroke-opacity:0.3;" x="280.048704" xlink:href="#m4cd07ded91" y="187.272555"/>
     <use style="fill-opacity:0.3;stroke:#000000;stroke-opacity:0.3;" x="224.252283" xlink:href="#m4cd07ded91" y="201.344848"/>
     <use style="fill-opacity:0.3;stroke:#000000;stroke-opacity:0.3;" x="339.372693" xlink:href="#m4cd07ded91" y="201.74989"/>
     <use style="fill-opacity:0.3;stroke:#000000;stroke-opacity:0.3;" x="339.372693" xlink:href="#m4cd07ded91" y="201.817949"/>
     <use style="fill-opacity:0.3;stroke:#000000;stroke-opacity:0.3;" x="339.372693" xlink:href="#m4cd07ded91" y="202.077982"/>
     <use style="fill-opacity:0.3;stroke:#000000;stroke-opacity:0.3;" x="339.372693" xlink:href="#m4cd07ded91" y="202.197278"/>
     <use style="fill-opacity:0.3;stroke:#000000;stroke-opacity:0.3;" x="181.115465" xlink:href="#m4cd07ded91" y="202.050181"/>
     <use style="fill-opacity:0.3;stroke:#000000;stroke-opacity:0.3;" x="335.77518" xlink:href="#m4cd07ded91" y="196.780108"/>
     <use style="fill-opacity:0.3;stroke:#000000;stroke-opacity:0.3;" x="339.372693" xlink:href="#m4cd07ded91" y="202.066067"/>
     <use style="fill-opacity:0.3;stroke:#000000;stroke-opacity:0.3;" x="339.372693" xlink:href="#m4cd07ded91" y="202.189913"/>
     <use style="fill-opacity:0.3;stroke:#000000;stroke-opacity:0.3;" x="95.045744" xlink:href="#m4cd07ded91" y="202.137404"/>
     <use style="fill-opacity:0.3;stroke:#000000;stroke-opacity:0.3;" x="339.372693" xlink:href="#m4cd07ded91" y="201.411732"/>
     <use style="fill-opacity:0.3;stroke:#000000;stroke-opacity:0.3;" x="313.978485" xlink:href="#m4cd07ded91" y="201.927622"/>
     <use style="fill-opacity:0.3;stroke:#000000;stroke-opacity:0.3;" x="263.020522" xlink:href="#m4cd07ded91" y="202.027561"/>
     <use style="fill-opacity:0.3;stroke:#000000;stroke-opacity:0.3;" x="324.313337" xlink:href="#m4cd07ded91" y="196.873778"/>
     <use style="fill-opacity:0.3;stroke:#000000;stroke-opacity:0.3;" x="243.387106" xlink:href="#m4cd07ded91" y="201.968502"/>
     <use style="fill-opacity:0.3;stroke:#000000;stroke-opacity:0.3;" x="131.694787" xlink:href="#m4cd07ded91" y="201.816424"/>
     <use style="fill-opacity:0.3;stroke:#000000;stroke-opacity:0.3;" x="229.425566" xlink:href="#m4cd07ded91" y="202.044649"/>
     <use style="fill-opacity:0.3;stroke:#000000;stroke-opacity:0.3;" x="161.217626" xlink:href="#m4cd07ded91" y="201.566271"/>
     <use style="fill-opacity:0.3;stroke:#000000;stroke-opacity:0.3;" x="60.141895" xlink:href="#m4cd07ded91" y="201.97254"/>
     <use style="fill-opacity:0.3;stroke:#000000;stroke-opacity:0.3;" x="266.83813" xlink:href="#m4cd07ded91" y="194.769394"/>
     <use style="fill-opacity:0.3;stroke:#000000;stroke-opacity:0.3;" x="305.733612" xlink:href="#m4cd07ded91" y="199.042469"/>
     <use style="fill-opacity:0.3;stroke:#000000;stroke-opacity:0.3;" x="339.372693" xlink:href="#m4cd07ded91" y="202.103352"/>
     <use style="fill-opacity:0.3;stroke:#000000;stroke-opacity:0.3;" x="324.486433" xlink:href="#m4cd07ded91" y="200.466488"/>
    </g>
   </g>
   <g id="matplotlib.axis_1">
    <g id="xtick_1">
     <g id="line2d_1">
      <defs>
       <path d="M 0 0 
L 0 3.5 
" id="m6d3f8d7194" style="stroke:#000000;stroke-width:0.8;"/>
      </defs>
      <g>
       <use style="stroke:#000000;stroke-width:0.8;" x="58.112601" xlink:href="#m6d3f8d7194" y="202.2"/>
      </g>
     </g>
     <g id="text_1">
      <!-- 0.0 -->
      <defs>
       <path d="M 4.15625 35.296875 
Q 4.15625 48 6.765625 55.734375 
Q 9.375 63.484375 14.515625 67.671875 
Q 19.671875 71.875 27.484375 71.875 
Q 33.25 71.875 37.59375 69.546875 
Q 41.9375 67.234375 44.765625 62.859375 
Q 47.609375 58.5 49.21875 52.21875 
Q 50.828125 45.953125 50.828125 35.296875 
Q 50.828125 22.703125 48.234375 14.96875 
Q 45.65625 7.234375 40.5 3 
Q 35.359375 -1.21875 27.484375 -1.21875 
Q 17.140625 -1.21875 11.234375 6.203125 
Q 4.15625 15.140625 4.15625 35.296875 
z
M 13.1875 35.296875 
Q 13.1875 17.671875 17.3125 11.828125 
Q 21.4375 6 27.484375 6 
Q 33.546875 6 37.671875 11.859375 
Q 41.796875 17.71875 41.796875 35.296875 
Q 41.796875 52.984375 37.671875 58.78125 
Q 33.546875 64.59375 27.390625 64.59375 
Q 21.34375 64.59375 17.71875 59.46875 
Q 13.1875 52.9375 13.1875 35.296875 
z
" id="ArialMT-48"/>
       <path d="M 9.078125 0 
L 9.078125 10.015625 
L 19.09375 10.015625 
L 19.09375 0 
z
" id="ArialMT-46"/>
      </defs>
      <g transform="translate(48.382601 219.220938)scale(0.14 -0.14)">
       <use xlink:href="#ArialMT-48"/>
       <use x="55.615234" xlink:href="#ArialMT-46"/>
       <use x="83.398438" xlink:href="#ArialMT-48"/>
      </g>
     </g>
    </g>
    <g id="xtick_2">
     <g id="line2d_2">
      <g>
       <use style="stroke:#000000;stroke-width:0.8;" x="114.364619" xlink:href="#m6d3f8d7194" y="202.2"/>
      </g>
     </g>
     <g id="text_2">
      <!-- 0.2 -->
      <defs>
       <path d="M 50.34375 8.453125 
L 50.34375 0 
L 3.03125 0 
Q 2.9375 3.171875 4.046875 6.109375 
Q 5.859375 10.9375 9.828125 15.625 
Q 13.8125 20.3125 21.34375 26.46875 
Q 33.015625 36.03125 37.109375 41.625 
Q 41.21875 47.21875 41.21875 52.203125 
Q 41.21875 57.421875 37.46875 61 
Q 33.734375 64.59375 27.734375 64.59375 
Q 21.390625 64.59375 17.578125 60.78125 
Q 13.765625 56.984375 13.71875 50.25 
L 4.6875 51.171875 
Q 5.609375 61.28125 11.65625 66.578125 
Q 17.71875 71.875 27.9375 71.875 
Q 38.234375 71.875 44.234375 66.15625 
Q 50.25 60.453125 50.25 52 
Q 50.25 47.703125 48.484375 43.546875 
Q 46.734375 39.40625 42.65625 34.8125 
Q 38.578125 30.21875 29.109375 22.21875 
Q 21.1875 15.578125 18.9375 13.203125 
Q 16.703125 10.84375 15.234375 8.453125 
z
" id="ArialMT-50"/>
      </defs>
      <g transform="translate(104.634619 219.220938)scale(0.14 -0.14)">
       <use xlink:href="#ArialMT-48"/>
       <use x="55.615234" xlink:href="#ArialMT-46"/>
       <use x="83.398438" xlink:href="#ArialMT-50"/>
      </g>
     </g>
    </g>
    <g id="xtick_3">
     <g id="line2d_3">
      <g>
       <use style="stroke:#000000;stroke-width:0.8;" x="170.616638" xlink:href="#m6d3f8d7194" y="202.2"/>
      </g>
     </g>
     <g id="text_3">
      <!-- 0.4 -->
      <defs>
       <path d="M 32.328125 0 
L 32.328125 17.140625 
L 1.265625 17.140625 
L 1.265625 25.203125 
L 33.9375 71.578125 
L 41.109375 71.578125 
L 41.109375 25.203125 
L 50.78125 25.203125 
L 50.78125 17.140625 
L 41.109375 17.140625 
L 41.109375 0 
z
M 32.328125 25.203125 
L 32.328125 57.46875 
L 9.90625 25.203125 
z
" id="ArialMT-52"/>
      </defs>
      <g transform="translate(160.886638 219.220938)scale(0.14 -0.14)">
       <use xlink:href="#ArialMT-48"/>
       <use x="55.615234" xlink:href="#ArialMT-46"/>
       <use x="83.398438" xlink:href="#ArialMT-52"/>
      </g>
     </g>
    </g>
    <g id="xtick_4">
     <g id="line2d_4">
      <g>
       <use style="stroke:#000000;stroke-width:0.8;" x="226.868656" xlink:href="#m6d3f8d7194" y="202.2"/>
      </g>
     </g>
     <g id="text_4">
      <!-- 0.6 -->
      <defs>
       <path d="M 49.75 54.046875 
L 41.015625 53.375 
Q 39.84375 58.546875 37.703125 60.890625 
Q 34.125 64.65625 28.90625 64.65625 
Q 24.703125 64.65625 21.53125 62.3125 
Q 17.390625 59.28125 14.984375 53.46875 
Q 12.59375 47.65625 12.5 36.921875 
Q 15.671875 41.75 20.265625 44.09375 
Q 24.859375 46.4375 29.890625 46.4375 
Q 38.671875 46.4375 44.84375 39.96875 
Q 51.03125 33.5 51.03125 23.25 
Q 51.03125 16.5 48.125 10.71875 
Q 45.21875 4.9375 40.140625 1.859375 
Q 35.0625 -1.21875 28.609375 -1.21875 
Q 17.625 -1.21875 10.6875 6.859375 
Q 3.765625 14.9375 3.765625 33.5 
Q 3.765625 54.25 11.421875 63.671875 
Q 18.109375 71.875 29.4375 71.875 
Q 37.890625 71.875 43.28125 67.140625 
Q 48.6875 62.40625 49.75 54.046875 
z
M 13.875 23.1875 
Q 13.875 18.65625 15.796875 14.5 
Q 17.71875 10.359375 21.1875 8.171875 
Q 24.65625 6 28.46875 6 
Q 34.03125 6 38.03125 10.484375 
Q 42.046875 14.984375 42.046875 22.703125 
Q 42.046875 30.125 38.078125 34.390625 
Q 34.125 38.671875 28.125 38.671875 
Q 22.171875 38.671875 18.015625 34.390625 
Q 13.875 30.125 13.875 23.1875 
z
" id="ArialMT-54"/>
      </defs>
      <g transform="translate(217.138656 219.220938)scale(0.14 -0.14)">
       <use xlink:href="#ArialMT-48"/>
       <use x="55.615234" xlink:href="#ArialMT-46"/>
       <use x="83.398438" xlink:href="#ArialMT-54"/>
      </g>
     </g>
    </g>
    <g id="xtick_5">
     <g id="line2d_5">
      <g>
       <use style="stroke:#000000;stroke-width:0.8;" x="283.120675" xlink:href="#m6d3f8d7194" y="202.2"/>
      </g>
     </g>
     <g id="text_5">
      <!-- 0.8 -->
      <defs>
       <path d="M 17.671875 38.8125 
Q 12.203125 40.828125 9.5625 44.53125 
Q 6.9375 48.25 6.9375 53.421875 
Q 6.9375 61.234375 12.546875 66.546875 
Q 18.171875 71.875 27.484375 71.875 
Q 36.859375 71.875 42.578125 66.421875 
Q 48.296875 60.984375 48.296875 53.171875 
Q 48.296875 48.1875 45.671875 44.5 
Q 43.0625 40.828125 37.75 38.8125 
Q 44.34375 36.671875 47.78125 31.875 
Q 51.21875 27.09375 51.21875 20.453125 
Q 51.21875 11.28125 44.71875 5.03125 
Q 38.234375 -1.21875 27.640625 -1.21875 
Q 17.046875 -1.21875 10.546875 5.046875 
Q 4.046875 11.328125 4.046875 20.703125 
Q 4.046875 27.6875 7.59375 32.390625 
Q 11.140625 37.109375 17.671875 38.8125 
z
M 15.921875 53.71875 
Q 15.921875 48.640625 19.1875 45.40625 
Q 22.46875 42.1875 27.6875 42.1875 
Q 32.765625 42.1875 36.015625 45.375 
Q 39.265625 48.578125 39.265625 53.21875 
Q 39.265625 58.0625 35.90625 61.359375 
Q 32.5625 64.65625 27.59375 64.65625 
Q 22.5625 64.65625 19.234375 61.421875 
Q 15.921875 58.203125 15.921875 53.71875 
z
M 13.09375 20.65625 
Q 13.09375 16.890625 14.875 13.375 
Q 16.65625 9.859375 20.171875 7.921875 
Q 23.6875 6 27.734375 6 
Q 34.03125 6 38.125 10.046875 
Q 42.234375 14.109375 42.234375 20.359375 
Q 42.234375 26.703125 38.015625 30.859375 
Q 33.796875 35.015625 27.4375 35.015625 
Q 21.234375 35.015625 17.15625 30.90625 
Q 13.09375 26.8125 13.09375 20.65625 
z
" id="ArialMT-56"/>
      </defs>
      <g transform="translate(273.390675 219.220938)scale(0.14 -0.14)">
       <use xlink:href="#ArialMT-48"/>
       <use x="55.615234" xlink:href="#ArialMT-46"/>
       <use x="83.398438" xlink:href="#ArialMT-56"/>
      </g>
     </g>
    </g>
    <g id="xtick_6">
     <g id="line2d_6">
      <g>
       <use style="stroke:#000000;stroke-width:0.8;" x="339.372693" xlink:href="#m6d3f8d7194" y="202.2"/>
      </g>
     </g>
     <g id="text_6">
      <!-- 1.0 -->
      <defs>
       <path d="M 37.25 0 
L 28.46875 0 
L 28.46875 56 
Q 25.296875 52.984375 20.140625 49.953125 
Q 14.984375 46.921875 10.890625 45.40625 
L 10.890625 53.90625 
Q 18.265625 57.375 23.78125 62.296875 
Q 29.296875 67.234375 31.59375 71.875 
L 37.25 71.875 
z
" id="ArialMT-49"/>
      </defs>
      <g transform="translate(329.642693 219.220938)scale(0.14 -0.14)">
       <use xlink:href="#ArialMT-49"/>
       <use x="55.615234" xlink:href="#ArialMT-46"/>
       <use x="83.398438" xlink:href="#ArialMT-48"/>
      </g>
     </g>
    </g>
    <g id="text_7">
     <!-- cluster ratio -->
     <defs>
      <path d="M 40.4375 19 
L 49.078125 17.875 
Q 47.65625 8.9375 41.8125 3.875 
Q 35.984375 -1.171875 27.484375 -1.171875 
Q 16.84375 -1.171875 10.375 5.78125 
Q 3.90625 12.75 3.90625 25.734375 
Q 3.90625 34.125 6.6875 40.421875 
Q 9.46875 46.734375 15.15625 49.875 
Q 20.84375 53.03125 27.546875 53.03125 
Q 35.984375 53.03125 41.359375 48.75 
Q 46.734375 44.484375 48.25 36.625 
L 39.703125 35.296875 
Q 38.484375 40.53125 35.375 43.15625 
Q 32.28125 45.796875 27.875 45.796875 
Q 21.234375 45.796875 17.078125 41.03125 
Q 12.9375 36.28125 12.9375 25.984375 
Q 12.9375 15.53125 16.9375 10.796875 
Q 20.953125 6.0625 27.390625 6.0625 
Q 32.5625 6.0625 36.03125 9.234375 
Q 39.5 12.40625 40.4375 19 
z
" id="ArialMT-99"/>
      <path d="M 6.390625 0 
L 6.390625 71.578125 
L 15.1875 71.578125 
L 15.1875 0 
z
" id="ArialMT-108"/>
      <path d="M 40.578125 0 
L 40.578125 7.625 
Q 34.515625 -1.171875 24.125 -1.171875 
Q 19.53125 -1.171875 15.546875 0.578125 
Q 11.578125 2.34375 9.640625 5 
Q 7.71875 7.671875 6.9375 11.53125 
Q 6.390625 14.109375 6.390625 19.734375 
L 6.390625 51.859375 
L 15.1875 51.859375 
L 15.1875 23.09375 
Q 15.1875 16.21875 15.71875 13.8125 
Q 16.546875 10.359375 19.234375 8.375 
Q 21.921875 6.390625 25.875 6.390625 
Q 29.828125 6.390625 33.296875 8.421875 
Q 36.765625 10.453125 38.203125 13.9375 
Q 39.65625 17.4375 39.65625 24.078125 
L 39.65625 51.859375 
L 48.4375 51.859375 
L 48.4375 0 
z
" id="ArialMT-117"/>
      <path d="M 3.078125 15.484375 
L 11.765625 16.84375 
Q 12.5 11.625 15.84375 8.84375 
Q 19.1875 6.0625 25.203125 6.0625 
Q 31.25 6.0625 34.171875 8.515625 
Q 37.109375 10.984375 37.109375 14.3125 
Q 37.109375 17.28125 34.515625 19 
Q 32.71875 20.171875 25.53125 21.96875 
Q 15.875 24.421875 12.140625 26.203125 
Q 8.40625 27.984375 6.46875 31.125 
Q 4.546875 34.28125 4.546875 38.09375 
Q 4.546875 41.546875 6.125 44.5 
Q 7.71875 47.46875 10.453125 49.421875 
Q 12.5 50.921875 16.03125 51.96875 
Q 19.578125 53.03125 23.640625 53.03125 
Q 29.734375 53.03125 34.34375 51.265625 
Q 38.96875 49.515625 41.15625 46.5 
Q 43.359375 43.5 44.1875 38.484375 
L 35.59375 37.3125 
Q 35.015625 41.3125 32.203125 43.546875 
Q 29.390625 45.796875 24.265625 45.796875 
Q 18.21875 45.796875 15.625 43.796875 
Q 13.03125 41.796875 13.03125 39.109375 
Q 13.03125 37.40625 14.109375 36.03125 
Q 15.1875 34.625 17.484375 33.6875 
Q 18.796875 33.203125 25.25 31.453125 
Q 34.578125 28.953125 38.25 27.359375 
Q 41.9375 25.78125 44.03125 22.75 
Q 46.140625 19.734375 46.140625 15.234375 
Q 46.140625 10.84375 43.578125 6.953125 
Q 41.015625 3.078125 36.171875 0.953125 
Q 31.34375 -1.171875 25.25 -1.171875 
Q 15.140625 -1.171875 9.84375 3.03125 
Q 4.546875 7.234375 3.078125 15.484375 
z
" id="ArialMT-115"/>
      <path d="M 25.78125 7.859375 
L 27.046875 0.09375 
Q 23.34375 -0.6875 20.40625 -0.6875 
Q 15.625 -0.6875 12.984375 0.828125 
Q 10.359375 2.34375 9.28125 4.8125 
Q 8.203125 7.28125 8.203125 15.1875 
L 8.203125 45.015625 
L 1.765625 45.015625 
L 1.765625 51.859375 
L 8.203125 51.859375 
L 8.203125 64.703125 
L 16.9375 69.96875 
L 16.9375 51.859375 
L 25.78125 51.859375 
L 25.78125 45.015625 
L 16.9375 45.015625 
L 16.9375 14.703125 
Q 16.9375 10.9375 17.40625 9.859375 
Q 17.875 8.796875 18.921875 8.15625 
Q 19.96875 7.515625 21.921875 7.515625 
Q 23.390625 7.515625 25.78125 7.859375 
z
" id="ArialMT-116"/>
      <path d="M 42.09375 16.703125 
L 51.171875 15.578125 
Q 49.03125 7.625 43.21875 3.21875 
Q 37.40625 -1.171875 28.375 -1.171875 
Q 17 -1.171875 10.328125 5.828125 
Q 3.65625 12.84375 3.65625 25.484375 
Q 3.65625 38.578125 10.390625 45.796875 
Q 17.140625 53.03125 27.875 53.03125 
Q 38.28125 53.03125 44.875 45.953125 
Q 51.46875 38.875 51.46875 26.03125 
Q 51.46875 25.25 51.421875 23.6875 
L 12.75 23.6875 
Q 13.234375 15.140625 17.578125 10.59375 
Q 21.921875 6.0625 28.421875 6.0625 
Q 33.25 6.0625 36.671875 8.59375 
Q 40.09375 11.140625 42.09375 16.703125 
z
M 13.234375 30.90625 
L 42.1875 30.90625 
Q 41.609375 37.453125 38.875 40.71875 
Q 34.671875 45.796875 27.984375 45.796875 
Q 21.921875 45.796875 17.796875 41.75 
Q 13.671875 37.703125 13.234375 30.90625 
z
" id="ArialMT-101"/>
      <path d="M 6.5 0 
L 6.5 51.859375 
L 14.40625 51.859375 
L 14.40625 44 
Q 17.4375 49.515625 20 51.265625 
Q 22.5625 53.03125 25.640625 53.03125 
Q 30.078125 53.03125 34.671875 50.203125 
L 31.640625 42.046875 
Q 28.421875 43.953125 25.203125 43.953125 
Q 22.3125 43.953125 20.015625 42.21875 
Q 17.71875 40.484375 16.75 37.40625 
Q 15.28125 32.71875 15.28125 27.15625 
L 15.28125 0 
z
" id="ArialMT-114"/>
      <path id="ArialMT-32"/>
      <path d="M 40.4375 6.390625 
Q 35.546875 2.25 31.03125 0.53125 
Q 26.515625 -1.171875 21.34375 -1.171875 
Q 12.796875 -1.171875 8.203125 3 
Q 3.609375 7.171875 3.609375 13.671875 
Q 3.609375 17.484375 5.34375 20.625 
Q 7.078125 23.78125 9.890625 25.6875 
Q 12.703125 27.59375 16.21875 28.5625 
Q 18.796875 29.25 24.03125 29.890625 
Q 34.671875 31.15625 39.703125 32.90625 
Q 39.75 34.71875 39.75 35.203125 
Q 39.75 40.578125 37.25 42.78125 
Q 33.890625 45.75 27.25 45.75 
Q 21.046875 45.75 18.09375 43.578125 
Q 15.140625 41.40625 13.71875 35.890625 
L 5.125 37.0625 
Q 6.296875 42.578125 8.984375 45.96875 
Q 11.671875 49.359375 16.75 51.1875 
Q 21.828125 53.03125 28.515625 53.03125 
Q 35.15625 53.03125 39.296875 51.46875 
Q 43.453125 49.90625 45.40625 47.53125 
Q 47.359375 45.171875 48.140625 41.546875 
Q 48.578125 39.3125 48.578125 33.453125 
L 48.578125 21.734375 
Q 48.578125 9.46875 49.140625 6.21875 
Q 49.703125 2.984375 51.375 0 
L 42.1875 0 
Q 40.828125 2.734375 40.4375 6.390625 
z
M 39.703125 26.03125 
Q 34.90625 24.078125 25.34375 22.703125 
Q 19.921875 21.921875 17.671875 20.9375 
Q 15.4375 19.96875 14.203125 18.09375 
Q 12.984375 16.21875 12.984375 13.921875 
Q 12.984375 10.40625 15.640625 8.0625 
Q 18.3125 5.71875 23.4375 5.71875 
Q 28.515625 5.71875 32.46875 7.9375 
Q 36.421875 10.15625 38.28125 14.015625 
Q 39.703125 17 39.703125 22.796875 
z
" id="ArialMT-97"/>
      <path d="M 6.640625 61.46875 
L 6.640625 71.578125 
L 15.4375 71.578125 
L 15.4375 61.46875 
z
M 6.640625 0 
L 6.640625 51.859375 
L 15.4375 51.859375 
L 15.4375 0 
z
" id="ArialMT-105"/>
      <path d="M 3.328125 25.921875 
Q 3.328125 40.328125 11.328125 47.265625 
Q 18.015625 53.03125 27.640625 53.03125 
Q 38.328125 53.03125 45.109375 46.015625 
Q 51.90625 39.015625 51.90625 26.65625 
Q 51.90625 16.65625 48.90625 10.90625 
Q 45.90625 5.171875 40.15625 2 
Q 34.421875 -1.171875 27.640625 -1.171875 
Q 16.75 -1.171875 10.03125 5.8125 
Q 3.328125 12.796875 3.328125 25.921875 
z
M 12.359375 25.921875 
Q 12.359375 15.96875 16.703125 11.015625 
Q 21.046875 6.0625 27.640625 6.0625 
Q 34.1875 6.0625 38.53125 11.03125 
Q 42.875 16.015625 42.875 26.21875 
Q 42.875 35.84375 38.5 40.796875 
Q 34.125 45.75 27.640625 45.75 
Q 21.046875 45.75 16.703125 40.8125 
Q 12.359375 35.890625 12.359375 25.921875 
z
" id="ArialMT-111"/>
     </defs>
     <g transform="translate(162.565772 236.024375)scale(0.14 -0.14)">
      <use xlink:href="#ArialMT-99"/>
      <use x="50" xlink:href="#ArialMT-108"/>
      <use x="72.216797" xlink:href="#ArialMT-117"/>
      <use x="127.832031" xlink:href="#ArialMT-115"/>
      <use x="177.832031" xlink:href="#ArialMT-116"/>
      <use x="205.615234" xlink:href="#ArialMT-101"/>
      <use x="261.230469" xlink:href="#ArialMT-114"/>
      <use x="294.53125" xlink:href="#ArialMT-32"/>
      <use x="322.314453" xlink:href="#ArialMT-114"/>
      <use x="355.615234" xlink:href="#ArialMT-97"/>
      <use x="411.230469" xlink:href="#ArialMT-116"/>
      <use x="439.013672" xlink:href="#ArialMT-105"/>
      <use x="461.230469" xlink:href="#ArialMT-111"/>
     </g>
    </g>
   </g>
   <g id="matplotlib.axis_2">
    <g id="ytick_1">
     <g id="line2d_7">
      <defs>
       <path d="M 0 0 
L -3.5 0 
" id="m1ab814fad9" style="stroke:#000000;stroke-width:0.8;"/>
      </defs>
      <g>
       <use style="stroke:#000000;stroke-width:0.8;" x="55.3" xlink:href="#m1ab814fad9" y="202.2"/>
      </g>
     </g>
     <g id="text_8">
      <!-- 0.0 -->
      <g transform="translate(28.84 207.210469)scale(0.14 -0.14)">
       <use xlink:href="#ArialMT-48"/>
       <use x="55.615234" xlink:href="#ArialMT-46"/>
       <use x="83.398438" xlink:href="#ArialMT-48"/>
      </g>
     </g>
    </g>
    <g id="ytick_2">
     <g id="line2d_8">
      <g>
       <use style="stroke:#000000;stroke-width:0.8;" x="55.3" xlink:href="#m1ab814fad9" y="158.634718"/>
      </g>
     </g>
     <g id="text_9">
      <!-- 0.1 -->
      <g transform="translate(28.84 163.645186)scale(0.14 -0.14)">
       <use xlink:href="#ArialMT-48"/>
       <use x="55.615234" xlink:href="#ArialMT-46"/>
       <use x="83.398438" xlink:href="#ArialMT-49"/>
      </g>
     </g>
    </g>
    <g id="ytick_3">
     <g id="line2d_9">
      <g>
       <use style="stroke:#000000;stroke-width:0.8;" x="55.3" xlink:href="#m1ab814fad9" y="115.069435"/>
      </g>
     </g>
     <g id="text_10">
      <!-- 0.2 -->
      <g transform="translate(28.84 120.079904)scale(0.14 -0.14)">
       <use xlink:href="#ArialMT-48"/>
       <use x="55.615234" xlink:href="#ArialMT-46"/>
       <use x="83.398438" xlink:href="#ArialMT-50"/>
      </g>
     </g>
    </g>
    <g id="ytick_4">
     <g id="line2d_10">
      <g>
       <use style="stroke:#000000;stroke-width:0.8;" x="55.3" xlink:href="#m1ab814fad9" y="71.504153"/>
      </g>
     </g>
     <g id="text_11">
      <!-- 0.3 -->
      <defs>
       <path d="M 4.203125 18.890625 
L 12.984375 20.0625 
Q 14.5 12.59375 18.140625 9.296875 
Q 21.78125 6 27 6 
Q 33.203125 6 37.46875 10.296875 
Q 41.75 14.59375 41.75 20.953125 
Q 41.75 27 37.796875 30.921875 
Q 33.84375 34.859375 27.734375 34.859375 
Q 25.25 34.859375 21.53125 33.890625 
L 22.515625 41.609375 
Q 23.390625 41.5 23.921875 41.5 
Q 29.546875 41.5 34.03125 44.421875 
Q 38.53125 47.359375 38.53125 53.46875 
Q 38.53125 58.296875 35.25 61.46875 
Q 31.984375 64.65625 26.8125 64.65625 
Q 21.6875 64.65625 18.265625 61.421875 
Q 14.84375 58.203125 13.875 51.765625 
L 5.078125 53.328125 
Q 6.6875 62.15625 12.390625 67.015625 
Q 18.109375 71.875 26.609375 71.875 
Q 32.46875 71.875 37.390625 69.359375 
Q 42.328125 66.84375 44.9375 62.5 
Q 47.5625 58.15625 47.5625 53.265625 
Q 47.5625 48.640625 45.0625 44.828125 
Q 42.578125 41.015625 37.703125 38.765625 
Q 44.046875 37.3125 47.5625 32.6875 
Q 51.078125 28.078125 51.078125 21.140625 
Q 51.078125 11.765625 44.234375 5.25 
Q 37.40625 -1.265625 26.953125 -1.265625 
Q 17.53125 -1.265625 11.296875 4.34375 
Q 5.078125 9.96875 4.203125 18.890625 
z
" id="ArialMT-51"/>
      </defs>
      <g transform="translate(28.84 76.514621)scale(0.14 -0.14)">
       <use xlink:href="#ArialMT-48"/>
       <use x="55.615234" xlink:href="#ArialMT-46"/>
       <use x="83.398438" xlink:href="#ArialMT-51"/>
      </g>
     </g>
    </g>
    <g id="text_12">
     <!-- fractional importance -->
     <defs>
      <path d="M 8.6875 0 
L 8.6875 45.015625 
L 0.921875 45.015625 
L 0.921875 51.859375 
L 8.6875 51.859375 
L 8.6875 57.375 
Q 8.6875 62.59375 9.625 65.140625 
Q 10.890625 68.5625 14.078125 70.671875 
Q 17.28125 72.796875 23.046875 72.796875 
Q 26.765625 72.796875 31.25 71.921875 
L 29.9375 64.265625 
Q 27.203125 64.75 24.75 64.75 
Q 20.75 64.75 19.09375 63.03125 
Q 17.4375 61.328125 17.4375 56.640625 
L 17.4375 51.859375 
L 27.546875 51.859375 
L 27.546875 45.015625 
L 17.4375 45.015625 
L 17.4375 0 
z
" id="ArialMT-102"/>
      <path d="M 6.59375 0 
L 6.59375 51.859375 
L 14.5 51.859375 
L 14.5 44.484375 
Q 20.21875 53.03125 31 53.03125 
Q 35.6875 53.03125 39.625 51.34375 
Q 43.5625 49.65625 45.515625 46.921875 
Q 47.46875 44.1875 48.25 40.4375 
Q 48.734375 37.984375 48.734375 31.890625 
L 48.734375 0 
L 39.9375 0 
L 39.9375 31.546875 
Q 39.9375 36.921875 38.90625 39.578125 
Q 37.890625 42.234375 35.28125 43.8125 
Q 32.671875 45.40625 29.15625 45.40625 
Q 23.53125 45.40625 19.453125 41.84375 
Q 15.375 38.28125 15.375 28.328125 
L 15.375 0 
z
" id="ArialMT-110"/>
      <path d="M 6.59375 0 
L 6.59375 51.859375 
L 14.453125 51.859375 
L 14.453125 44.578125 
Q 16.890625 48.390625 20.9375 50.703125 
Q 25 53.03125 30.171875 53.03125 
Q 35.9375 53.03125 39.625 50.640625 
Q 43.3125 48.25 44.828125 43.953125 
Q 50.984375 53.03125 60.84375 53.03125 
Q 68.5625 53.03125 72.703125 48.75 
Q 76.859375 44.484375 76.859375 35.59375 
L 76.859375 0 
L 68.109375 0 
L 68.109375 32.671875 
Q 68.109375 37.9375 67.25 40.25 
Q 66.40625 42.578125 64.15625 43.984375 
Q 61.921875 45.40625 58.890625 45.40625 
Q 53.421875 45.40625 49.796875 41.765625 
Q 46.1875 38.140625 46.1875 30.125 
L 46.1875 0 
L 37.40625 0 
L 37.40625 33.6875 
Q 37.40625 39.546875 35.25 42.46875 
Q 33.109375 45.40625 28.21875 45.40625 
Q 24.515625 45.40625 21.359375 43.453125 
Q 18.21875 41.5 16.796875 37.734375 
Q 15.375 33.984375 15.375 26.90625 
L 15.375 0 
z
" id="ArialMT-109"/>
      <path d="M 6.59375 -19.875 
L 6.59375 51.859375 
L 14.59375 51.859375 
L 14.59375 45.125 
Q 17.4375 49.078125 21 51.046875 
Q 24.5625 53.03125 29.640625 53.03125 
Q 36.28125 53.03125 41.359375 49.609375 
Q 46.4375 46.1875 49.015625 39.953125 
Q 51.609375 33.734375 51.609375 26.3125 
Q 51.609375 18.359375 48.75 11.984375 
Q 45.90625 5.609375 40.453125 2.21875 
Q 35.015625 -1.171875 29 -1.171875 
Q 24.609375 -1.171875 21.109375 0.6875 
Q 17.625 2.546875 15.375 5.375 
L 15.375 -19.875 
z
M 14.546875 25.640625 
Q 14.546875 15.625 18.59375 10.84375 
Q 22.65625 6.0625 28.421875 6.0625 
Q 34.28125 6.0625 38.453125 11.015625 
Q 42.625 15.96875 42.625 26.375 
Q 42.625 36.28125 38.546875 41.203125 
Q 34.46875 46.140625 28.8125 46.140625 
Q 23.1875 46.140625 18.859375 40.890625 
Q 14.546875 35.640625 14.546875 25.640625 
z
" id="ArialMT-112"/>
     </defs>
     <g transform="translate(22.0575 180.5725)rotate(-90)scale(0.14 -0.14)">
      <use xlink:href="#ArialMT-102"/>
      <use x="27.783203" xlink:href="#ArialMT-114"/>
      <use x="61.083984" xlink:href="#ArialMT-97"/>
      <use x="116.699219" xlink:href="#ArialMT-99"/>
      <use x="166.699219" xlink:href="#ArialMT-116"/>
      <use x="194.482422" xlink:href="#ArialMT-105"/>
      <use x="216.699219" xlink:href="#ArialMT-111"/>
      <use x="272.314453" xlink:href="#ArialMT-110"/>
      <use x="327.929688" xlink:href="#ArialMT-97"/>
      <use x="383.544922" xlink:href="#ArialMT-108"/>
      <use x="405.761719" xlink:href="#ArialMT-32"/>
      <use x="433.544922" xlink:href="#ArialMT-105"/>
      <use x="455.761719" xlink:href="#ArialMT-109"/>
      <use x="539.0625" xlink:href="#ArialMT-112"/>
      <use x="594.677734" xlink:href="#ArialMT-111"/>
      <use x="650.292969" xlink:href="#ArialMT-114"/>
      <use x="683.59375" xlink:href="#ArialMT-116"/>
      <use x="711.376953" xlink:href="#ArialMT-97"/>
      <use x="766.992188" xlink:href="#ArialMT-110"/>
      <use x="822.607422" xlink:href="#ArialMT-99"/>
      <use x="872.607422" xlink:href="#ArialMT-101"/>
     </g>
    </g>
   </g>
   <g id="patch_3">
    <path d="M 55.3 202.2 
L 55.3 29.003125 
" style="fill:none;stroke:#000000;stroke-linecap:square;stroke-linejoin:miter;stroke-width:0.8;"/>
   </g>
   <g id="patch_4">
    <path d="M 342.185294 202.2 
L 342.185294 29.003125 
" style="fill:none;stroke:#000000;stroke-linecap:square;stroke-linejoin:miter;stroke-width:0.8;"/>
   </g>
   <g id="patch_5">
    <path d="M 55.3 202.2 
L 342.185294 202.2 
" style="fill:none;stroke:#000000;stroke-linecap:square;stroke-linejoin:miter;stroke-width:0.8;"/>
   </g>
   <g id="patch_6">
    <path d="M 55.3 29.003125 
L 342.185294 29.003125 
" style="fill:none;stroke:#000000;stroke-linecap:square;stroke-linejoin:miter;stroke-width:0.8;"/>
   </g>
   <g id="text_13">
    <!-- Corynebacterium glutamicum -->
    <defs>
     <path d="M 60.296875 25.203125 
L 69.78125 23.875 
Q 65.28125 11.46875 56.6875 5.125 
Q 48.09375 -1.21875 37.40625 -1.21875 
Q 24.359375 -1.21875 16.71875 6.734375 
Q 9.078125 14.703125 9.078125 29.546875 
Q 9.078125 48.875 20.703125 61.53125 
Q 31.0625 72.796875 46.4375 72.796875 
Q 57.8125 72.796875 64.859375 66.6875 
Q 71.921875 60.59375 73.046875 50.296875 
L 64.109375 49.46875 
Q 62.703125 57.234375 58.28125 61.0625 
Q 53.859375 64.890625 46.875 64.890625 
Q 33.734375 64.890625 25.640625 53.21875 
Q 18.609375 43.171875 18.609375 29.34375 
Q 18.609375 18.3125 24.015625 12.5 
Q 29.4375 6.6875 38.140625 6.6875 
Q 45.5625 6.6875 51.5625 11.515625 
Q 57.5625 16.359375 60.296875 25.203125 
z
" id="Arial-ItalicMT-67"/>
     <path d="M 4.890625 19.671875 
Q 4.890625 34.859375 13.8125 44.828125 
Q 21.1875 53.03125 33.15625 53.03125 
Q 42.53125 53.03125 48.265625 47.171875 
Q 54 41.3125 54 31.34375 
Q 54 22.40625 50.390625 14.71875 
Q 46.78125 7.03125 40.109375 2.921875 
Q 33.453125 -1.171875 26.078125 -1.171875 
Q 20.015625 -1.171875 15.0625 1.40625 
Q 10.109375 4 7.5 8.734375 
Q 4.890625 13.484375 4.890625 19.671875 
z
M 13.71875 20.5625 
Q 13.71875 13.234375 17.234375 9.453125 
Q 20.75 5.671875 26.171875 5.671875 
Q 29 5.671875 31.78125 6.8125 
Q 34.578125 7.953125 36.96875 10.296875 
Q 39.359375 12.640625 41.03125 15.640625 
Q 42.71875 18.65625 43.75 22.125 
Q 45.265625 26.953125 45.265625 31.390625 
Q 45.265625 38.421875 41.71875 42.296875 
Q 38.1875 46.1875 32.8125 46.1875 
Q 28.65625 46.1875 25.234375 44.203125 
Q 21.828125 42.234375 19.0625 38.421875 
Q 16.3125 34.625 15.015625 29.5625 
Q 13.71875 24.515625 13.71875 20.5625 
z
" id="Arial-ItalicMT-111"/>
     <path d="M 3.328125 0 
L 14.15625 51.859375 
L 21.96875 51.859375 
L 19.78125 41.265625 
Q 23.78125 47.265625 27.609375 50.140625 
Q 31.453125 53.03125 35.453125 53.03125 
Q 38.09375 53.03125 41.9375 51.125 
L 38.328125 42.921875 
Q 36.03125 44.578125 33.296875 44.578125 
Q 28.65625 44.578125 23.765625 39.40625 
Q 18.890625 34.234375 16.109375 20.796875 
L 11.71875 0 
z
" id="Arial-ItalicMT-114"/>
     <path d="M 0 -20.015625 
L 0.53125 -11.71875 
Q 3.265625 -12.5 5.859375 -12.5 
Q 8.546875 -12.5 10.203125 -11.28125 
Q 12.359375 -9.671875 14.890625 -5.21875 
L 17.71875 -0.140625 
L 9.078125 51.859375 
L 17.78125 51.859375 
L 21.6875 25.640625 
Q 22.859375 17.875 23.6875 10.109375 
L 46.875 51.859375 
L 56.109375 51.859375 
L 23.046875 -6.890625 
Q 18.265625 -15.484375 14.546875 -18.265625 
Q 10.84375 -21.046875 6 -21.046875 
Q 2.9375 -21.046875 0 -20.015625 
z
" id="Arial-ItalicMT-121"/>
     <path d="M 3.328125 0 
L 14.15625 51.859375 
L 22.171875 51.859375 
L 20.265625 42.828125 
Q 25.484375 48.140625 30.03125 50.578125 
Q 34.578125 53.03125 39.3125 53.03125 
Q 45.609375 53.03125 49.1875 49.609375 
Q 52.78125 46.1875 52.78125 40.484375 
Q 52.78125 37.59375 51.515625 31.390625 
L 44.921875 0 
L 36.078125 0 
L 42.96875 32.859375 
Q 44 37.640625 44 39.9375 
Q 44 42.53125 42.21875 44.140625 
Q 40.4375 45.75 37.0625 45.75 
Q 30.28125 45.75 24.96875 40.859375 
Q 19.671875 35.984375 17.1875 24.125 
L 12.15625 0 
z
" id="Arial-ItalicMT-110"/>
     <path d="M 41.40625 17.625 
L 50 16.75 
Q 48.140625 10.359375 41.46875 4.59375 
Q 34.8125 -1.171875 25.59375 -1.171875 
Q 19.828125 -1.171875 15.015625 1.484375 
Q 10.203125 4.15625 7.6875 9.234375 
Q 5.171875 14.3125 5.171875 20.796875 
Q 5.171875 29.296875 9.09375 37.28125 
Q 13.03125 45.265625 19.28125 49.140625 
Q 25.53125 53.03125 32.8125 53.03125 
Q 42.09375 53.03125 47.625 47.265625 
Q 53.171875 41.5 53.171875 31.546875 
Q 53.171875 27.734375 52.484375 23.734375 
L 14.3125 23.734375 
Q 14.109375 22.21875 14.109375 21 
Q 14.109375 13.71875 17.453125 9.890625 
Q 20.796875 6.0625 25.640625 6.0625 
Q 30.171875 6.0625 34.5625 9.03125 
Q 38.96875 12.015625 41.40625 17.625 
z
M 15.71875 30.46875 
L 44.828125 30.46875 
Q 44.875 31.84375 44.875 32.421875 
Q 44.875 39.0625 41.546875 42.59375 
Q 38.234375 46.140625 33.015625 46.140625 
Q 27.34375 46.140625 22.671875 42.234375 
Q 18.015625 38.328125 15.71875 30.46875 
z
" id="Arial-ItalicMT-101"/>
     <path d="M 3.328125 0 
L 18.265625 71.578125 
L 27.09375 71.578125 
L 21.78125 46 
Q 25.984375 49.859375 29.390625 51.4375 
Q 32.8125 53.03125 36.53125 53.03125 
Q 43.796875 53.03125 48.65625 47.609375 
Q 53.515625 42.1875 53.515625 31.84375 
Q 53.515625 24.953125 51.5625 19.234375 
Q 49.609375 13.53125 46.71875 9.640625 
Q 43.84375 5.765625 40.765625 3.4375 
Q 37.703125 1.125 34.46875 -0.015625 
Q 31.25 -1.171875 28.265625 -1.171875 
Q 23.140625 -1.171875 19.234375 1.53125 
Q 15.328125 4.25 13.140625 9.8125 
L 11.078125 0 
z
M 16.40625 21.296875 
L 16.359375 19.625 
Q 16.359375 12.984375 19.53125 9.515625 
Q 22.703125 6.0625 27.4375 6.0625 
Q 32.078125 6.0625 35.953125 9.296875 
Q 39.84375 12.546875 42.328125 19.421875 
Q 44.828125 26.3125 44.828125 32.125 
Q 44.828125 38.671875 41.671875 42.28125 
Q 38.53125 45.90625 33.890625 45.90625 
Q 29.109375 45.90625 25.09375 42.21875 
Q 21.09375 38.53125 18.40625 30.859375 
Q 16.40625 25.140625 16.40625 21.296875 
z
" id="Arial-ItalicMT-98"/>
     <path d="M 38.28125 6.453125 
Q 33.6875 2.484375 29.4375 0.65625 
Q 25.203125 -1.171875 20.359375 -1.171875 
Q 13.1875 -1.171875 8.78125 3.046875 
Q 4.390625 7.28125 4.390625 13.875 
Q 4.390625 18.21875 6.359375 21.5625 
Q 8.34375 24.90625 11.609375 26.921875 
Q 14.890625 28.953125 19.625 29.828125 
Q 22.609375 30.421875 30.9375 30.765625 
Q 39.265625 31.109375 42.875 32.515625 
Q 43.890625 36.140625 43.890625 38.53125 
Q 43.890625 41.609375 41.65625 43.359375 
Q 38.578125 45.796875 32.671875 45.796875 
Q 27.09375 45.796875 23.546875 43.328125 
Q 20.015625 40.875 18.40625 36.328125 
L 9.46875 37.109375 
Q 12.203125 44.828125 18.140625 48.921875 
Q 24.078125 53.03125 33.109375 53.03125 
Q 42.71875 53.03125 48.34375 48.4375 
Q 52.640625 45.015625 52.640625 39.546875 
Q 52.640625 35.40625 51.421875 29.9375 
L 48.53125 17.046875 
Q 47.171875 10.890625 47.171875 7.03125 
Q 47.171875 4.59375 48.25 0 
L 39.3125 0 
Q 38.578125 2.546875 38.28125 6.453125 
z
M 41.546875 26.265625 
Q 39.703125 25.53125 37.578125 25.140625 
Q 35.453125 24.75 30.46875 24.3125 
Q 22.75 23.640625 19.578125 22.578125 
Q 16.40625 21.53125 14.796875 19.234375 
Q 13.1875 16.9375 13.1875 14.15625 
Q 13.1875 10.453125 15.75 8.0625 
Q 18.3125 5.671875 23.046875 5.671875 
Q 27.4375 5.671875 31.484375 7.984375 
Q 35.546875 10.296875 37.890625 14.453125 
Q 40.234375 18.609375 41.546875 26.265625 
z
" id="Arial-ItalicMT-97"/>
     <path d="M 39.109375 18.890625 
L 47.953125 17.96875 
Q 44.625 8.25 38.5 3.53125 
Q 32.375 -1.171875 24.5625 -1.171875 
Q 16.109375 -1.171875 10.859375 4.296875 
Q 5.609375 9.765625 5.609375 19.578125 
Q 5.609375 28.078125 8.984375 36.28125 
Q 12.359375 44.484375 18.625 48.75 
Q 24.90625 53.03125 32.953125 53.03125 
Q 41.3125 53.03125 46.1875 48.3125 
Q 51.078125 43.609375 51.078125 35.84375 
L 42.390625 35.25 
Q 42.328125 40.1875 39.515625 42.96875 
Q 36.71875 45.75 32.125 45.75 
Q 26.8125 45.75 22.90625 42.375 
Q 19 39.015625 16.765625 32.15625 
Q 14.546875 25.296875 14.546875 18.953125 
Q 14.546875 12.3125 17.46875 8.984375 
Q 20.40625 5.671875 24.703125 5.671875 
Q 29 5.671875 32.921875 8.9375 
Q 36.859375 12.203125 39.109375 18.890625 
z
" id="Arial-ItalicMT-99"/>
     <path d="M 23.96875 7.171875 
L 22.515625 -0.046875 
Q 19.34375 -0.875 16.359375 -0.875 
Q 11.078125 -0.875 7.953125 1.703125 
Q 5.609375 3.65625 5.609375 7.03125 
Q 5.609375 8.734375 6.890625 14.890625 
L 13.1875 45.015625 
L 6.203125 45.015625 
L 7.625 51.859375 
L 14.59375 51.859375 
L 17.28125 64.59375 
L 27.390625 70.703125 
L 23.4375 51.859375 
L 32.125 51.859375 
L 30.671875 45.015625 
L 22.015625 45.015625 
L 16.015625 16.359375 
Q 14.890625 10.890625 14.890625 9.8125 
Q 14.890625 8.25 15.796875 7.421875 
Q 16.703125 6.59375 18.75 6.59375 
Q 21.6875 6.59375 23.96875 7.171875 
z
" id="Arial-ItalicMT-116"/>
     <path d="M 15.875 61.578125 
L 17.96875 71.578125 
L 26.765625 71.578125 
L 24.65625 61.578125 
z
M 2.984375 0 
L 13.8125 51.859375 
L 22.65625 51.859375 
L 11.8125 0 
z
" id="Arial-ItalicMT-105"/>
     <path d="M 38.71875 9.375 
Q 29.390625 -1.171875 19.625 -1.171875 
Q 13.625 -1.171875 9.9375 2.265625 
Q 6.25 5.71875 6.25 10.6875 
Q 6.25 13.96875 7.90625 21.921875 
L 14.15625 51.859375 
L 23 51.859375 
L 16.0625 18.703125 
Q 15.1875 14.546875 15.1875 12.25 
Q 15.1875 9.328125 16.96875 7.6875 
Q 18.75 6.0625 22.21875 6.0625 
Q 25.921875 6.0625 29.46875 7.859375 
Q 33.015625 9.671875 35.578125 12.75 
Q 38.140625 15.828125 39.75 20.015625 
Q 40.828125 22.703125 42.234375 29.4375 
L 46.921875 51.859375 
L 55.765625 51.859375 
L 44.921875 0 
L 36.765625 0 
z
" id="Arial-ItalicMT-117"/>
     <path d="M 3.265625 0 
L 14.109375 51.859375 
L 22.953125 51.859375 
L 21.140625 43.3125 
Q 26.078125 48.828125 29.953125 50.921875 
Q 33.84375 53.03125 38.375 53.03125 
Q 43.21875 53.03125 46.453125 50.46875 
Q 49.703125 47.90625 50.734375 43.3125 
Q 54.6875 48.1875 59.046875 50.609375 
Q 63.421875 53.03125 68.265625 53.03125 
Q 74.75 53.03125 78 49.953125 
Q 81.25 46.875 81.25 41.3125 
Q 81.25 38.921875 80.125 33.40625 
L 73.140625 0 
L 64.3125 0 
L 71.4375 34.28125 
Q 72.359375 38.484375 72.359375 40.28125 
Q 72.359375 42.828125 70.75 44.28125 
Q 69.140625 45.75 66.21875 45.75 
Q 62.25 45.75 58.140625 43.359375 
Q 54.046875 40.96875 51.78125 37.078125 
Q 49.515625 33.203125 47.796875 25.140625 
L 42.53125 0 
L 33.6875 0 
L 41.015625 35.015625 
Q 41.796875 38.578125 41.796875 40.09375 
Q 41.796875 42.625 40.203125 44.1875 
Q 38.625 45.75 36.078125 45.75 
Q 32.328125 45.75 28.203125 43.359375 
Q 24.078125 40.96875 21.484375 36.6875 
Q 18.890625 32.421875 17.234375 24.515625 
L 12.109375 0 
z
" id="Arial-ItalicMT-109"/>
     <path id="Arial-ItalicMT-32"/>
     <path d="M 2.828125 -4.6875 
L 11.765625 -5.515625 
Q 11.671875 -8.546875 12.5 -10.0625 
Q 13.328125 -11.578125 15.140625 -12.40625 
Q 17.53125 -13.484375 21.34375 -13.484375 
Q 29.34375 -13.484375 32.859375 -9.328125 
Q 35.15625 -6.546875 37.109375 2.78125 
L 37.984375 6.984375 
Q 31.109375 0 23.34375 0 
Q 15.484375 0 10.1875 5.78125 
Q 4.890625 11.578125 4.890625 22.171875 
Q 4.890625 30.90625 9.0625 38.234375 
Q 13.234375 45.5625 18.984375 49.296875 
Q 24.75 53.03125 30.859375 53.03125 
Q 41.0625 53.03125 46.578125 43.359375 
L 48.34375 51.859375 
L 56.453125 51.859375 
L 46 1.8125 
Q 44.28125 -6.453125 41.5 -11.0625 
Q 38.71875 -15.671875 33.765625 -18.203125 
Q 28.8125 -20.75 22.3125 -20.75 
Q 16.0625 -20.75 11.546875 -19.140625 
Q 7.03125 -17.53125 4.8125 -14.421875 
Q 2.59375 -11.328125 2.59375 -7.328125 
Q 2.59375 -6.109375 2.828125 -4.6875 
z
M 13.875 22.953125 
Q 13.875 17.625 14.890625 14.9375 
Q 16.359375 11.1875 19.0625 9.203125 
Q 21.78125 7.234375 25.09375 7.234375 
Q 29.4375 7.234375 33.734375 10.28125 
Q 38.03125 13.328125 40.6875 19.71875 
Q 43.359375 26.125 43.359375 31.9375 
Q 43.359375 38.328125 39.8125 42.109375 
Q 36.28125 45.90625 31.0625 45.90625 
Q 27.828125 45.90625 24.796875 44.171875 
Q 21.78125 42.4375 19.15625 38.890625 
Q 16.546875 35.359375 15.203125 30.421875 
Q 13.875 25.484375 13.875 22.953125 
z
" id="Arial-ItalicMT-103"/>
     <path d="M 2.640625 0 
L 17.578125 71.578125 
L 26.421875 71.578125 
L 11.46875 0 
z
" id="Arial-ItalicMT-108"/>
    </defs>
    <g transform="translate(94.710147 23.003125)scale(0.16 -0.16)">
     <use xlink:href="#Arial-ItalicMT-67"/>
     <use x="72.216797" xlink:href="#Arial-ItalicMT-111"/>
     <use x="127.832031" xlink:href="#Arial-ItalicMT-114"/>
     <use x="161.132812" xlink:href="#Arial-ItalicMT-121"/>
     <use x="211.132812" xlink:href="#Arial-ItalicMT-110"/>
     <use x="266.748047" xlink:href="#Arial-ItalicMT-101"/>
     <use x="322.363281" xlink:href="#Arial-ItalicMT-98"/>
     <use x="377.978516" xlink:href="#Arial-ItalicMT-97"/>
     <use x="433.59375" xlink:href="#Arial-ItalicMT-99"/>
     <use x="483.59375" xlink:href="#Arial-ItalicMT-116"/>
     <use x="511.376953" xlink:href="#Arial-ItalicMT-101"/>
     <use x="566.992188" xlink:href="#Arial-ItalicMT-114"/>
     <use x="600.292969" xlink:href="#Arial-ItalicMT-105"/>
     <use x="622.509766" xlink:href="#Arial-ItalicMT-117"/>
     <use x="678.125" xlink:href="#Arial-ItalicMT-109"/>
     <use x="761.425781" xlink:href="#Arial-ItalicMT-32"/>
     <use x="789.208984" xlink:href="#Arial-ItalicMT-103"/>
     <use x="844.824219" xlink:href="#Arial-ItalicMT-108"/>
     <use x="867.041016" xlink:href="#Arial-ItalicMT-117"/>
     <use x="922.65625" xlink:href="#Arial-ItalicMT-116"/>
     <use x="950.439453" xlink:href="#Arial-ItalicMT-97"/>
     <use x="1006.054688" xlink:href="#Arial-ItalicMT-109"/>
     <use x="1089.355469" xlink:href="#Arial-ItalicMT-105"/>
     <use x="1111.572266" xlink:href="#Arial-ItalicMT-99"/>
     <use x="1161.572266" xlink:href="#Arial-ItalicMT-117"/>
     <use x="1217.1875" xlink:href="#Arial-ItalicMT-109"/>
    </g>
   </g>
  </g>
 </g>
 <defs>
  <clipPath id="p2b88e46cba">
   <rect height="173.196875" width="286.885294" x="55.3" y="29.003125"/>
  </clipPath>
 </defs>
</svg>
