<?xml version="1.0" encoding="utf-8" standalone="no"?>
<!DOCTYPE svg PUBLIC "-//W3C//DTD SVG 1.1//EN"
  "http://www.w3.org/Graphics/SVG/1.1/DTD/svg11.dtd">
<!-- Created with matplotlib (https://matplotlib.org/) -->
<svg height="252pt" version="1.1" viewBox="0 0 360 252" width="360pt" xmlns="http://www.w3.org/2000/svg" xmlns:xlink="http://www.w3.org/1999/xlink">
 <defs>
  <style type="text/css">
*{stroke-linecap:butt;stroke-linejoin:round;}
  </style>
 </defs>
 <g id="figure_1">
  <g id="patch_1">
   <path d="M 0 252 
L 360 252 
L 360 0 
L 0 0 
z
" style="fill:#ffffff;"/>
  </g>
  <g id="axes_1">
   <g id="patch_2">
    <path d="M 58.616194 202.2 
L 345.7 202.2 
L 345.7 46.371875 
L 58.616194 46.371875 
z
" style="fill:#ffffff;"/>
   </g>
   <g id="patch_3">
    <path clip-path="url(#p5cb147968b)" d="M 71.665458 85557.347359 
L 76.885163 85557.347359 
L 76.885163 118.350618 
L 71.665458 118.350618 
z
" style="opacity:0.5;"/>
   </g>
   <g id="patch_4">
    <path clip-path="url(#p5cb147968b)" d="M 76.885163 85557.347359 
L 82.104869 85557.347359 
L 82.104869 127.486247 
L 76.885163 127.486247 
z
" style="opacity:0.5;"/>
   </g>
   <g id="patch_5">
    <path clip-path="url(#p5cb147968b)" d="M 82.104869 85557.347359 
L 87.324574 85557.347359 
L 87.324574 129.935298 
L 82.104869 129.935298 
z
" style="opacity:0.5;"/>
   </g>
   <g id="patch_6">
    <path clip-path="url(#p5cb147968b)" d="M 87.324574 85557.347359 
L 92.54428 85557.347359 
L 92.54428 131.201226 
L 87.324574 131.201226 
z
" style="opacity:0.5;"/>
   </g>
   <g id="patch_7">
    <path clip-path="url(#p5cb147968b)" d="M 92.54428 85557.347359 
L 97.763986 85557.347359 
L 97.763986 137.215749 
L 92.54428 137.215749 
z
" style="opacity:0.5;"/>
   </g>
   <g id="patch_8">
    <path clip-path="url(#p5cb147968b)" d="M 97.763986 85557.347359 
L 102.983691 85557.347359 
L 102.983691 139.367056 
L 97.763986 139.367056 
z
" style="opacity:0.5;"/>
   </g>
   <g id="patch_9">
    <path clip-path="url(#p5cb147968b)" d="M 102.983691 85557.347359 
L 108.203397 85557.347359 
L 108.203397 140.605871 
L 102.983691 140.605871 
z
" style="opacity:0.5;"/>
   </g>
   <g id="patch_10">
    <path clip-path="url(#p5cb147968b)" d="M 108.203397 85557.347359 
L 113.423102 85557.347359 
L 113.423102 138.817387 
L 108.203397 138.817387 
z
" style="opacity:0.5;"/>
   </g>
   <g id="patch_11">
    <path clip-path="url(#p5cb147968b)" d="M 113.423102 85557.347359 
L 118.642808 85557.347359 
L 118.642808 146.895029 
L 113.423102 146.895029 
z
" style="opacity:0.5;"/>
   </g>
   <g id="patch_12">
    <path clip-path="url(#p5cb147968b)" d="M 118.642808 85557.347359 
L 123.862513 85557.347359 
L 123.862513 148.06729 
L 118.642808 148.06729 
z
" style="opacity:0.5;"/>
   </g>
   <g id="patch_13">
    <path clip-path="url(#p5cb147968b)" d="M 123.862513 85557.347359 
L 129.082219 85557.347359 
L 129.082219 141.416372 
L 123.862513 141.416372 
z
" style="opacity:0.5;"/>
   </g>
   <g id="patch_14">
    <path clip-path="url(#p5cb147968b)" d="M 129.082219 85557.347359 
L 134.301924 85557.347359 
L 134.301924 143.648028 
L 129.082219 143.648028 
z
" style="opacity:0.5;"/>
   </g>
   <g id="patch_15">
    <path clip-path="url(#p5cb147968b)" d="M 134.301924 85557.347359 
L 139.52163 85557.347359 
L 139.52163 154.310711 
L 134.301924 154.310711 
z
" style="opacity:0.5;"/>
   </g>
   <g id="patch_16">
    <path clip-path="url(#p5cb147968b)" d="M 139.52163 85557.347359 
L 144.741336 85557.347359 
L 144.741336 149.061378 
L 139.52163 149.061378 
z
" style="opacity:0.5;"/>
   </g>
   <g id="patch_17">
    <path clip-path="url(#p5cb147968b)" d="M 144.741336 85557.347359 
L 149.961041 85557.347359 
L 149.961041 150.305541 
L 144.741336 150.305541 
z
" style="opacity:0.5;"/>
   </g>
   <g id="patch_18">
    <path clip-path="url(#p5cb147968b)" d="M 149.961041 85557.347359 
L 155.180747 85557.347359 
L 155.180747 159.368992 
L 149.961041 159.368992 
z
" style="opacity:0.5;"/>
   </g>
   <g id="patch_19">
    <path clip-path="url(#p5cb147968b)" d="M 155.180747 85557.347359 
L 160.400452 85557.347359 
L 160.400452 157.7867 
L 155.180747 157.7867 
z
" style="opacity:0.5;"/>
   </g>
   <g id="patch_20">
    <path clip-path="url(#p5cb147968b)" d="M 160.400452 85557.347359 
L 165.620158 85557.347359 
L 165.620158 153.816378 
L 160.400452 153.816378 
z
" style="opacity:0.5;"/>
   </g>
   <g id="patch_21">
    <path clip-path="url(#p5cb147968b)" d="M 165.620158 85557.347359 
L 170.839863 85557.347359 
L 170.839863 169.852792 
L 165.620158 169.852792 
z
" style="opacity:0.5;"/>
   </g>
   <g id="patch_22">
    <path clip-path="url(#p5cb147968b)" d="M 170.839863 85557.347359 
L 176.059569 85557.347359 
L 176.059569 159.368992 
L 170.839863 159.368992 
z
" style="opacity:0.5;"/>
   </g>
   <g id="patch_23">
    <path clip-path="url(#p5cb147968b)" d="M 176.059569 85557.347359 
L 181.279275 85557.347359 
L 181.279275 156.532612 
L 176.059569 156.532612 
z
" style="opacity:0.5;"/>
   </g>
   <g id="patch_24">
    <path clip-path="url(#p5cb147968b)" d="M 181.279275 85557.347359 
L 186.49898 85557.347359 
L 186.49898 159.274018 
L 181.279275 159.274018 
z
" style="opacity:0.5;"/>
   </g>
   <g id="patch_25">
    <path clip-path="url(#p5cb147968b)" d="M 186.49898 85557.347359 
L 191.718686 85557.347359 
L 191.718686 156.356877 
L 186.49898 156.356877 
z
" style="opacity:0.5;"/>
   </g>
   <g id="patch_26">
    <path clip-path="url(#p5cb147968b)" d="M 191.718686 85557.347359 
L 196.938391 85557.347359 
L 196.938391 163.066281 
L 191.718686 163.066281 
z
" style="opacity:0.5;"/>
   </g>
   <g id="patch_27">
    <path clip-path="url(#p5cb147968b)" d="M 196.938391 85557.347359 
L 202.158097 85557.347359 
L 202.158097 158.245096 
L 196.938391 158.245096 
z
" style="opacity:0.5;"/>
   </g>
   <g id="patch_28">
    <path clip-path="url(#p5cb147968b)" d="M 202.158097 85557.347359 
L 207.377802 85557.347359 
L 207.377802 160.922693 
L 202.158097 160.922693 
z
" style="opacity:0.5;"/>
   </g>
   <g id="patch_29">
    <path clip-path="url(#p5cb147968b)" d="M 207.377802 85557.347359 
L 212.597508 85557.347359 
L 212.597508 160.724874 
L 207.377802 160.724874 
z
" style="opacity:0.5;"/>
   </g>
   <g id="patch_30">
    <path clip-path="url(#p5cb147968b)" d="M 212.597508 85557.347359 
L 217.817214 85557.347359 
L 217.817214 168.367961 
L 212.597508 168.367961 
z
" style="opacity:0.5;"/>
   </g>
   <g id="patch_31">
    <path clip-path="url(#p5cb147968b)" d="M 217.817214 85557.347359 
L 223.036919 85557.347359 
L 223.036919 165.565961 
L 217.817214 165.565961 
z
" style="opacity:0.5;"/>
   </g>
   <g id="patch_32">
    <path clip-path="url(#p5cb147968b)" d="M 223.036919 85557.347359 
L 228.256625 85557.347359 
L 228.256625 174.702322 
L 223.036919 174.702322 
z
" style="opacity:0.5;"/>
   </g>
   <g id="patch_33">
    <path clip-path="url(#p5cb147968b)" d="M 228.256625 85557.347359 
L 233.47633 85557.347359 
L 233.47633 168.367961 
L 228.256625 168.367961 
z
" style="opacity:0.5;"/>
   </g>
   <g id="patch_34">
    <path clip-path="url(#p5cb147968b)" d="M 233.47633 85557.347359 
L 238.696036 85557.347359 
L 238.696036 163.066281 
L 233.47633 163.066281 
z
" style="opacity:0.5;"/>
   </g>
   <g id="patch_35">
    <path clip-path="url(#p5cb147968b)" d="M 238.696036 85557.347359 
L 243.915741 85557.347359 
L 243.915741 181.822918 
L 238.696036 181.822918 
z
" style="opacity:0.5;"/>
   </g>
   <g id="patch_36">
    <path clip-path="url(#p5cb147968b)" d="M 243.915741 85557.347359 
L 249.135447 85557.347359 
L 249.135447 168.126182 
L 243.915741 168.126182 
z
" style="opacity:0.5;"/>
   </g>
   <g id="patch_37">
    <path clip-path="url(#p5cb147968b)" d="M 249.135447 85557.347359 
L 254.355153 85557.347359 
L 254.355153 182.173556 
L 249.135447 182.173556 
z
" style="opacity:0.5;"/>
   </g>
   <g id="patch_38">
    <path clip-path="url(#p5cb147968b)" d="M 254.355153 85557.347359 
L 259.574858 85557.347359 
L 259.574858 183.427644 
L 254.355153 183.427644 
z
" style="opacity:0.5;"/>
   </g>
   <g id="patch_39">
    <path clip-path="url(#p5cb147968b)" d="M 259.574858 85557.347359 
L 264.794564 85557.347359 
L 264.794564 175.429105 
L 259.574858 175.429105 
z
" style="opacity:0.5;"/>
   </g>
   <g id="patch_40">
    <path clip-path="url(#p5cb147968b)" d="M 264.794564 85557.347359 
L 270.014269 85557.347359 
L 270.014269 173.014179 
L 264.794564 173.014179 
z
" style="opacity:0.5;"/>
   </g>
   <g id="patch_41">
    <path clip-path="url(#p5cb147968b)" d="M 270.014269 85557.347359 
L 275.233975 85557.347359 
L 275.233975 186.464595 
L 270.014269 186.464595 
z
" style="opacity:0.5;"/>
   </g>
   <g id="patch_42">
    <path clip-path="url(#p5cb147968b)" d="M 275.233975 85557.347359 
L 280.45368 85557.347359 
L 280.45368 182.884964 
L 275.233975 182.884964 
z
" style="opacity:0.5;"/>
   </g>
   <g id="patch_43">
    <path clip-path="url(#p5cb147968b)" d="M 280.45368 85557.347359 
L 285.673386 85557.347359 
L 285.673386 192.933131 
L 280.45368 192.933131 
z
" style="opacity:0.5;"/>
   </g>
   <g id="patch_44">
    <path clip-path="url(#p5cb147968b)" d="M 285.673386 85557.347359 
L 290.893092 85557.347359 
L 290.893092 174.415561 
L 285.673386 174.415561 
z
" style="opacity:0.5;"/>
   </g>
   <g id="patch_45">
    <path clip-path="url(#p5cb147968b)" d="M 290.893092 85557.347359 
L 296.112797 85557.347359 
L 296.112797 195.116903 
L 290.893092 195.116903 
z
" style="opacity:0.5;"/>
   </g>
   <g id="patch_46">
    <path clip-path="url(#p5cb147968b)" d="M 296.112797 85557.347359 
L 301.332503 85557.347359 
L 301.332503 176.77442 
L 296.112797 176.77442 
z
" style="opacity:0.5;"/>
   </g>
   <g id="patch_47">
    <path clip-path="url(#p5cb147968b)" d="M 301.332503 85557.347359 
L 306.552208 85557.347359 
L 306.552208 171.930085 
L 301.332503 171.930085 
z
" style="opacity:0.5;"/>
   </g>
   <g id="patch_48">
    <path clip-path="url(#p5cb147968b)" d="M 306.552208 85557.347359 
L 311.771914 85557.347359 
L 311.771914 184.163829 
L 306.552208 184.163829 
z
" style="opacity:0.5;"/>
   </g>
   <g id="patch_49">
    <path clip-path="url(#p5cb147968b)" d="M 311.771914 85557.347359 
L 316.991619 85557.347359 
L 316.991619 185.87585 
L 311.771914 185.87585 
z
" style="opacity:0.5;"/>
   </g>
   <g id="patch_50">
    <path clip-path="url(#p5cb147968b)" d="M 316.991619 85557.347359 
L 322.211325 85557.347359 
L 322.211325 170.876859 
L 316.991619 170.876859 
z
" style="opacity:0.5;"/>
   </g>
   <g id="patch_51">
    <path clip-path="url(#p5cb147968b)" d="M 322.211325 85557.347359 
L 327.431031 85557.347359 
L 327.431031 181.648837 
L 322.211325 181.648837 
z
" style="opacity:0.5;"/>
   </g>
   <g id="patch_52">
    <path clip-path="url(#p5cb147968b)" d="M 327.431031 85557.347359 
L 332.650736 85557.347359 
L 332.650736 53.454972 
L 327.431031 53.454972 
z
" style="opacity:0.5;"/>
   </g>
   <g id="matplotlib.axis_1">
    <g id="xtick_1">
     <g id="line2d_1">
      <defs>
       <path d="M 0 0 
L 0 3.5 
" id="ma8f50e1c18" style="stroke:#000000;stroke-width:0.8;"/>
      </defs>
      <g>
       <use style="stroke:#000000;stroke-width:0.8;" x="71.659707" xlink:href="#ma8f50e1c18" y="202.2"/>
      </g>
     </g>
     <g id="text_1">
      <!-- 0.0 -->
      <defs>
       <path d="M 4.15625 35.296875 
Q 4.15625 48 6.765625 55.734375 
Q 9.375 63.484375 14.515625 67.671875 
Q 19.671875 71.875 27.484375 71.875 
Q 33.25 71.875 37.59375 69.546875 
Q 41.9375 67.234375 44.765625 62.859375 
Q 47.609375 58.5 49.21875 52.21875 
Q 50.828125 45.953125 50.828125 35.296875 
Q 50.828125 22.703125 48.234375 14.96875 
Q 45.65625 7.234375 40.5 3 
Q 35.359375 -1.21875 27.484375 -1.21875 
Q 17.140625 -1.21875 11.234375 6.203125 
Q 4.15625 15.140625 4.15625 35.296875 
z
M 13.1875 35.296875 
Q 13.1875 17.671875 17.3125 11.828125 
Q 21.4375 6 27.484375 6 
Q 33.546875 6 37.671875 11.859375 
Q 41.796875 17.71875 41.796875 35.296875 
Q 41.796875 52.984375 37.671875 58.78125 
Q 33.546875 64.59375 27.390625 64.59375 
Q 21.34375 64.59375 17.71875 59.46875 
Q 13.1875 52.9375 13.1875 35.296875 
z
" id="ArialMT-48"/>
       <path d="M 9.078125 0 
L 9.078125 10.015625 
L 19.09375 10.015625 
L 19.09375 0 
z
" id="ArialMT-46"/>
      </defs>
      <g transform="translate(61.929707 219.220938)scale(0.14 -0.14)">
       <use xlink:href="#ArialMT-48"/>
       <use x="55.615234" xlink:href="#ArialMT-46"/>
       <use x="83.398438" xlink:href="#ArialMT-48"/>
      </g>
     </g>
    </g>
    <g id="xtick_2">
     <g id="line2d_2">
      <g>
       <use style="stroke:#000000;stroke-width:0.8;" x="123.857913" xlink:href="#ma8f50e1c18" y="202.2"/>
      </g>
     </g>
     <g id="text_2">
      <!-- 0.2 -->
      <defs>
       <path d="M 50.34375 8.453125 
L 50.34375 0 
L 3.03125 0 
Q 2.9375 3.171875 4.046875 6.109375 
Q 5.859375 10.9375 9.828125 15.625 
Q 13.8125 20.3125 21.34375 26.46875 
Q 33.015625 36.03125 37.109375 41.625 
Q 41.21875 47.21875 41.21875 52.203125 
Q 41.21875 57.421875 37.46875 61 
Q 33.734375 64.59375 27.734375 64.59375 
Q 21.390625 64.59375 17.578125 60.78125 
Q 13.765625 56.984375 13.71875 50.25 
L 4.6875 51.171875 
Q 5.609375 61.28125 11.65625 66.578125 
Q 17.71875 71.875 27.9375 71.875 
Q 38.234375 71.875 44.234375 66.15625 
Q 50.25 60.453125 50.25 52 
Q 50.25 47.703125 48.484375 43.546875 
Q 46.734375 39.40625 42.65625 34.8125 
Q 38.578125 30.21875 29.109375 22.21875 
Q 21.1875 15.578125 18.9375 13.203125 
Q 16.703125 10.84375 15.234375 8.453125 
z
" id="ArialMT-50"/>
      </defs>
      <g transform="translate(114.127913 219.220938)scale(0.14 -0.14)">
       <use xlink:href="#ArialMT-48"/>
       <use x="55.615234" xlink:href="#ArialMT-46"/>
       <use x="83.398438" xlink:href="#ArialMT-50"/>
      </g>
     </g>
    </g>
    <g id="xtick_3">
     <g id="line2d_3">
      <g>
       <use style="stroke:#000000;stroke-width:0.8;" x="176.056119" xlink:href="#ma8f50e1c18" y="202.2"/>
      </g>
     </g>
     <g id="text_3">
      <!-- 0.4 -->
      <defs>
       <path d="M 32.328125 0 
L 32.328125 17.140625 
L 1.265625 17.140625 
L 1.265625 25.203125 
L 33.9375 71.578125 
L 41.109375 71.578125 
L 41.109375 25.203125 
L 50.78125 25.203125 
L 50.78125 17.140625 
L 41.109375 17.140625 
L 41.109375 0 
z
M 32.328125 25.203125 
L 32.328125 57.46875 
L 9.90625 25.203125 
z
" id="ArialMT-52"/>
      </defs>
      <g transform="translate(166.326119 219.220938)scale(0.14 -0.14)">
       <use xlink:href="#ArialMT-48"/>
       <use x="55.615234" xlink:href="#ArialMT-46"/>
       <use x="83.398438" xlink:href="#ArialMT-52"/>
      </g>
     </g>
    </g>
    <g id="xtick_4">
     <g id="line2d_4">
      <g>
       <use style="stroke:#000000;stroke-width:0.8;" x="228.254324" xlink:href="#ma8f50e1c18" y="202.2"/>
      </g>
     </g>
     <g id="text_4">
      <!-- 0.6 -->
      <defs>
       <path d="M 49.75 54.046875 
L 41.015625 53.375 
Q 39.84375 58.546875 37.703125 60.890625 
Q 34.125 64.65625 28.90625 64.65625 
Q 24.703125 64.65625 21.53125 62.3125 
Q 17.390625 59.28125 14.984375 53.46875 
Q 12.59375 47.65625 12.5 36.921875 
Q 15.671875 41.75 20.265625 44.09375 
Q 24.859375 46.4375 29.890625 46.4375 
Q 38.671875 46.4375 44.84375 39.96875 
Q 51.03125 33.5 51.03125 23.25 
Q 51.03125 16.5 48.125 10.71875 
Q 45.21875 4.9375 40.140625 1.859375 
Q 35.0625 -1.21875 28.609375 -1.21875 
Q 17.625 -1.21875 10.6875 6.859375 
Q 3.765625 14.9375 3.765625 33.5 
Q 3.765625 54.25 11.421875 63.671875 
Q 18.109375 71.875 29.4375 71.875 
Q 37.890625 71.875 43.28125 67.140625 
Q 48.6875 62.40625 49.75 54.046875 
z
M 13.875 23.1875 
Q 13.875 18.65625 15.796875 14.5 
Q 17.71875 10.359375 21.1875 8.171875 
Q 24.65625 6 28.46875 6 
Q 34.03125 6 38.03125 10.484375 
Q 42.046875 14.984375 42.046875 22.703125 
Q 42.046875 30.125 38.078125 34.390625 
Q 34.125 38.671875 28.125 38.671875 
Q 22.171875 38.671875 18.015625 34.390625 
Q 13.875 30.125 13.875 23.1875 
z
" id="ArialMT-54"/>
      </defs>
      <g transform="translate(218.524324 219.220938)scale(0.14 -0.14)">
       <use xlink:href="#ArialMT-48"/>
       <use x="55.615234" xlink:href="#ArialMT-46"/>
       <use x="83.398438" xlink:href="#ArialMT-54"/>
      </g>
     </g>
    </g>
    <g id="xtick_5">
     <g id="line2d_5">
      <g>
       <use style="stroke:#000000;stroke-width:0.8;" x="280.45253" xlink:href="#ma8f50e1c18" y="202.2"/>
      </g>
     </g>
     <g id="text_5">
      <!-- 0.8 -->
      <defs>
       <path d="M 17.671875 38.8125 
Q 12.203125 40.828125 9.5625 44.53125 
Q 6.9375 48.25 6.9375 53.421875 
Q 6.9375 61.234375 12.546875 66.546875 
Q 18.171875 71.875 27.484375 71.875 
Q 36.859375 71.875 42.578125 66.421875 
Q 48.296875 60.984375 48.296875 53.171875 
Q 48.296875 48.1875 45.671875 44.5 
Q 43.0625 40.828125 37.75 38.8125 
Q 44.34375 36.671875 47.78125 31.875 
Q 51.21875 27.09375 51.21875 20.453125 
Q 51.21875 11.28125 44.71875 5.03125 
Q 38.234375 -1.21875 27.640625 -1.21875 
Q 17.046875 -1.21875 10.546875 5.046875 
Q 4.046875 11.328125 4.046875 20.703125 
Q 4.046875 27.6875 7.59375 32.390625 
Q 11.140625 37.109375 17.671875 38.8125 
z
M 15.921875 53.71875 
Q 15.921875 48.640625 19.1875 45.40625 
Q 22.46875 42.1875 27.6875 42.1875 
Q 32.765625 42.1875 36.015625 45.375 
Q 39.265625 48.578125 39.265625 53.21875 
Q 39.265625 58.0625 35.90625 61.359375 
Q 32.5625 64.65625 27.59375 64.65625 
Q 22.5625 64.65625 19.234375 61.421875 
Q 15.921875 58.203125 15.921875 53.71875 
z
M 13.09375 20.65625 
Q 13.09375 16.890625 14.875 13.375 
Q 16.65625 9.859375 20.171875 7.921875 
Q 23.6875 6 27.734375 6 
Q 34.03125 6 38.125 10.046875 
Q 42.234375 14.109375 42.234375 20.359375 
Q 42.234375 26.703125 38.015625 30.859375 
Q 33.796875 35.015625 27.4375 35.015625 
Q 21.234375 35.015625 17.15625 30.90625 
Q 13.09375 26.8125 13.09375 20.65625 
z
" id="ArialMT-56"/>
      </defs>
      <g transform="translate(270.72253 219.220938)scale(0.14 -0.14)">
       <use xlink:href="#ArialMT-48"/>
       <use x="55.615234" xlink:href="#ArialMT-46"/>
       <use x="83.398438" xlink:href="#ArialMT-56"/>
      </g>
     </g>
    </g>
    <g id="xtick_6">
     <g id="line2d_6">
      <g>
       <use style="stroke:#000000;stroke-width:0.8;" x="332.650736" xlink:href="#ma8f50e1c18" y="202.2"/>
      </g>
     </g>
     <g id="text_6">
      <!-- 1.0 -->
      <defs>
       <path d="M 37.25 0 
L 28.46875 0 
L 28.46875 56 
Q 25.296875 52.984375 20.140625 49.953125 
Q 14.984375 46.921875 10.890625 45.40625 
L 10.890625 53.90625 
Q 18.265625 57.375 23.78125 62.296875 
Q 29.296875 67.234375 31.59375 71.875 
L 37.25 71.875 
z
" id="ArialMT-49"/>
      </defs>
      <g transform="translate(322.920736 219.220938)scale(0.14 -0.14)">
       <use xlink:href="#ArialMT-49"/>
       <use x="55.615234" xlink:href="#ArialMT-46"/>
       <use x="83.398438" xlink:href="#ArialMT-48"/>
      </g>
     </g>
    </g>
    <g id="text_7">
     <!-- Cluster ratio -->
     <defs>
      <path d="M 58.796875 25.09375 
L 68.265625 22.703125 
Q 65.28125 11.03125 57.546875 4.90625 
Q 49.8125 -1.21875 38.625 -1.21875 
Q 27.046875 -1.21875 19.796875 3.484375 
Q 12.546875 8.203125 8.765625 17.140625 
Q 4.984375 26.078125 4.984375 36.328125 
Q 4.984375 47.515625 9.25 55.828125 
Q 13.53125 64.15625 21.40625 68.46875 
Q 29.296875 72.796875 38.765625 72.796875 
Q 49.515625 72.796875 56.828125 67.328125 
Q 64.15625 61.859375 67.046875 51.953125 
L 57.71875 49.75 
Q 55.21875 57.5625 50.484375 61.125 
Q 45.75 64.703125 38.578125 64.703125 
Q 30.328125 64.703125 24.78125 60.734375 
Q 19.234375 56.78125 16.984375 50.109375 
Q 14.75 43.453125 14.75 36.375 
Q 14.75 27.25 17.40625 20.4375 
Q 20.0625 13.625 25.671875 10.25 
Q 31.296875 6.890625 37.84375 6.890625 
Q 45.796875 6.890625 51.3125 11.46875 
Q 56.84375 16.0625 58.796875 25.09375 
z
" id="ArialMT-67"/>
      <path d="M 6.390625 0 
L 6.390625 71.578125 
L 15.1875 71.578125 
L 15.1875 0 
z
" id="ArialMT-108"/>
      <path d="M 40.578125 0 
L 40.578125 7.625 
Q 34.515625 -1.171875 24.125 -1.171875 
Q 19.53125 -1.171875 15.546875 0.578125 
Q 11.578125 2.34375 9.640625 5 
Q 7.71875 7.671875 6.9375 11.53125 
Q 6.390625 14.109375 6.390625 19.734375 
L 6.390625 51.859375 
L 15.1875 51.859375 
L 15.1875 23.09375 
Q 15.1875 16.21875 15.71875 13.8125 
Q 16.546875 10.359375 19.234375 8.375 
Q 21.921875 6.390625 25.875 6.390625 
Q 29.828125 6.390625 33.296875 8.421875 
Q 36.765625 10.453125 38.203125 13.9375 
Q 39.65625 17.4375 39.65625 24.078125 
L 39.65625 51.859375 
L 48.4375 51.859375 
L 48.4375 0 
z
" id="ArialMT-117"/>
      <path d="M 3.078125 15.484375 
L 11.765625 16.84375 
Q 12.5 11.625 15.84375 8.84375 
Q 19.1875 6.0625 25.203125 6.0625 
Q 31.25 6.0625 34.171875 8.515625 
Q 37.109375 10.984375 37.109375 14.3125 
Q 37.109375 17.28125 34.515625 19 
Q 32.71875 20.171875 25.53125 21.96875 
Q 15.875 24.421875 12.140625 26.203125 
Q 8.40625 27.984375 6.46875 31.125 
Q 4.546875 34.28125 4.546875 38.09375 
Q 4.546875 41.546875 6.125 44.5 
Q 7.71875 47.46875 10.453125 49.421875 
Q 12.5 50.921875 16.03125 51.96875 
Q 19.578125 53.03125 23.640625 53.03125 
Q 29.734375 53.03125 34.34375 51.265625 
Q 38.96875 49.515625 41.15625 46.5 
Q 43.359375 43.5 44.1875 38.484375 
L 35.59375 37.3125 
Q 35.015625 41.3125 32.203125 43.546875 
Q 29.390625 45.796875 24.265625 45.796875 
Q 18.21875 45.796875 15.625 43.796875 
Q 13.03125 41.796875 13.03125 39.109375 
Q 13.03125 37.40625 14.109375 36.03125 
Q 15.1875 34.625 17.484375 33.6875 
Q 18.796875 33.203125 25.25 31.453125 
Q 34.578125 28.953125 38.25 27.359375 
Q 41.9375 25.78125 44.03125 22.75 
Q 46.140625 19.734375 46.140625 15.234375 
Q 46.140625 10.84375 43.578125 6.953125 
Q 41.015625 3.078125 36.171875 0.953125 
Q 31.34375 -1.171875 25.25 -1.171875 
Q 15.140625 -1.171875 9.84375 3.03125 
Q 4.546875 7.234375 3.078125 15.484375 
z
" id="ArialMT-115"/>
      <path d="M 25.78125 7.859375 
L 27.046875 0.09375 
Q 23.34375 -0.6875 20.40625 -0.6875 
Q 15.625 -0.6875 12.984375 0.828125 
Q 10.359375 2.34375 9.28125 4.8125 
Q 8.203125 7.28125 8.203125 15.1875 
L 8.203125 45.015625 
L 1.765625 45.015625 
L 1.765625 51.859375 
L 8.203125 51.859375 
L 8.203125 64.703125 
L 16.9375 69.96875 
L 16.9375 51.859375 
L 25.78125 51.859375 
L 25.78125 45.015625 
L 16.9375 45.015625 
L 16.9375 14.703125 
Q 16.9375 10.9375 17.40625 9.859375 
Q 17.875 8.796875 18.921875 8.15625 
Q 19.96875 7.515625 21.921875 7.515625 
Q 23.390625 7.515625 25.78125 7.859375 
z
" id="ArialMT-116"/>
      <path d="M 42.09375 16.703125 
L 51.171875 15.578125 
Q 49.03125 7.625 43.21875 3.21875 
Q 37.40625 -1.171875 28.375 -1.171875 
Q 17 -1.171875 10.328125 5.828125 
Q 3.65625 12.84375 3.65625 25.484375 
Q 3.65625 38.578125 10.390625 45.796875 
Q 17.140625 53.03125 27.875 53.03125 
Q 38.28125 53.03125 44.875 45.953125 
Q 51.46875 38.875 51.46875 26.03125 
Q 51.46875 25.25 51.421875 23.6875 
L 12.75 23.6875 
Q 13.234375 15.140625 17.578125 10.59375 
Q 21.921875 6.0625 28.421875 6.0625 
Q 33.25 6.0625 36.671875 8.59375 
Q 40.09375 11.140625 42.09375 16.703125 
z
M 13.234375 30.90625 
L 42.1875 30.90625 
Q 41.609375 37.453125 38.875 40.71875 
Q 34.671875 45.796875 27.984375 45.796875 
Q 21.921875 45.796875 17.796875 41.75 
Q 13.671875 37.703125 13.234375 30.90625 
z
" id="ArialMT-101"/>
      <path d="M 6.5 0 
L 6.5 51.859375 
L 14.40625 51.859375 
L 14.40625 44 
Q 17.4375 49.515625 20 51.265625 
Q 22.5625 53.03125 25.640625 53.03125 
Q 30.078125 53.03125 34.671875 50.203125 
L 31.640625 42.046875 
Q 28.421875 43.953125 25.203125 43.953125 
Q 22.3125 43.953125 20.015625 42.21875 
Q 17.71875 40.484375 16.75 37.40625 
Q 15.28125 32.71875 15.28125 27.15625 
L 15.28125 0 
z
" id="ArialMT-114"/>
      <path id="ArialMT-32"/>
      <path d="M 40.4375 6.390625 
Q 35.546875 2.25 31.03125 0.53125 
Q 26.515625 -1.171875 21.34375 -1.171875 
Q 12.796875 -1.171875 8.203125 3 
Q 3.609375 7.171875 3.609375 13.671875 
Q 3.609375 17.484375 5.34375 20.625 
Q 7.078125 23.78125 9.890625 25.6875 
Q 12.703125 27.59375 16.21875 28.5625 
Q 18.796875 29.25 24.03125 29.890625 
Q 34.671875 31.15625 39.703125 32.90625 
Q 39.75 34.71875 39.75 35.203125 
Q 39.75 40.578125 37.25 42.78125 
Q 33.890625 45.75 27.25 45.75 
Q 21.046875 45.75 18.09375 43.578125 
Q 15.140625 41.40625 13.71875 35.890625 
L 5.125 37.0625 
Q 6.296875 42.578125 8.984375 45.96875 
Q 11.671875 49.359375 16.75 51.1875 
Q 21.828125 53.03125 28.515625 53.03125 
Q 35.15625 53.03125 39.296875 51.46875 
Q 43.453125 49.90625 45.40625 47.53125 
Q 47.359375 45.171875 48.140625 41.546875 
Q 48.578125 39.3125 48.578125 33.453125 
L 48.578125 21.734375 
Q 48.578125 9.46875 49.140625 6.21875 
Q 49.703125 2.984375 51.375 0 
L 42.1875 0 
Q 40.828125 2.734375 40.4375 6.390625 
z
M 39.703125 26.03125 
Q 34.90625 24.078125 25.34375 22.703125 
Q 19.921875 21.921875 17.671875 20.9375 
Q 15.4375 19.96875 14.203125 18.09375 
Q 12.984375 16.21875 12.984375 13.921875 
Q 12.984375 10.40625 15.640625 8.0625 
Q 18.3125 5.71875 23.4375 5.71875 
Q 28.515625 5.71875 32.46875 7.9375 
Q 36.421875 10.15625 38.28125 14.015625 
Q 39.703125 17 39.703125 22.796875 
z
" id="ArialMT-97"/>
      <path d="M 6.640625 61.46875 
L 6.640625 71.578125 
L 15.4375 71.578125 
L 15.4375 61.46875 
z
M 6.640625 0 
L 6.640625 51.859375 
L 15.4375 51.859375 
L 15.4375 0 
z
" id="ArialMT-105"/>
      <path d="M 3.328125 25.921875 
Q 3.328125 40.328125 11.328125 47.265625 
Q 18.015625 53.03125 27.640625 53.03125 
Q 38.328125 53.03125 45.109375 46.015625 
Q 51.90625 39.015625 51.90625 26.65625 
Q 51.90625 16.65625 48.90625 10.90625 
Q 45.90625 5.171875 40.15625 2 
Q 34.421875 -1.171875 27.640625 -1.171875 
Q 16.75 -1.171875 10.03125 5.8125 
Q 3.328125 12.796875 3.328125 25.921875 
z
M 12.359375 25.921875 
Q 12.359375 15.96875 16.703125 11.015625 
Q 21.046875 6.0625 27.640625 6.0625 
Q 34.1875 6.0625 38.53125 11.03125 
Q 42.875 16.015625 42.875 26.21875 
Q 42.875 35.84375 38.5 40.796875 
Q 34.125 45.75 27.640625 45.75 
Q 21.046875 45.75 16.703125 40.8125 
Q 12.359375 35.890625 12.359375 25.921875 
z
" id="ArialMT-111"/>
     </defs>
     <g transform="translate(164.425909 236.024375)scale(0.14 -0.14)">
      <use xlink:href="#ArialMT-67"/>
      <use x="72.216797" xlink:href="#ArialMT-108"/>
      <use x="94.433594" xlink:href="#ArialMT-117"/>
      <use x="150.048828" xlink:href="#ArialMT-115"/>
      <use x="200.048828" xlink:href="#ArialMT-116"/>
      <use x="227.832031" xlink:href="#ArialMT-101"/>
      <use x="283.447266" xlink:href="#ArialMT-114"/>
      <use x="316.748047" xlink:href="#ArialMT-32"/>
      <use x="344.53125" xlink:href="#ArialMT-114"/>
      <use x="377.832031" xlink:href="#ArialMT-97"/>
      <use x="433.447266" xlink:href="#ArialMT-116"/>
      <use x="461.230469" xlink:href="#ArialMT-105"/>
      <use x="483.447266" xlink:href="#ArialMT-111"/>
     </g>
    </g>
   </g>
   <g id="matplotlib.axis_2">
    <g id="ytick_1">
     <g id="line2d_7">
      <defs>
       <path d="M 0 0 
L -3.5 0 
" id="m1f911bb25a" style="stroke:#000000;stroke-width:0.8;"/>
      </defs>
      <g>
       <use style="stroke:#000000;stroke-width:0.8;" x="58.616194" xlink:href="#m1f911bb25a" y="124.441976"/>
      </g>
     </g>
     <g id="text_8">
      <!-- $\mathdefault{10^{3}}$ -->
      <defs>
       <path d="M 4.203125 18.890625 
L 12.984375 20.0625 
Q 14.5 12.59375 18.140625 9.296875 
Q 21.78125 6 27 6 
Q 33.203125 6 37.46875 10.296875 
Q 41.75 14.59375 41.75 20.953125 
Q 41.75 27 37.796875 30.921875 
Q 33.84375 34.859375 27.734375 34.859375 
Q 25.25 34.859375 21.53125 33.890625 
L 22.515625 41.609375 
Q 23.390625 41.5 23.921875 41.5 
Q 29.546875 41.5 34.03125 44.421875 
Q 38.53125 47.359375 38.53125 53.46875 
Q 38.53125 58.296875 35.25 61.46875 
Q 31.984375 64.65625 26.8125 64.65625 
Q 21.6875 64.65625 18.265625 61.421875 
Q 14.84375 58.203125 13.875 51.765625 
L 5.078125 53.328125 
Q 6.6875 62.15625 12.390625 67.015625 
Q 18.109375 71.875 26.609375 71.875 
Q 32.46875 71.875 37.390625 69.359375 
Q 42.328125 66.84375 44.9375 62.5 
Q 47.5625 58.15625 47.5625 53.265625 
Q 47.5625 48.640625 45.0625 44.828125 
Q 42.578125 41.015625 37.703125 38.765625 
Q 44.046875 37.3125 47.5625 32.6875 
Q 51.078125 28.078125 51.078125 21.140625 
Q 51.078125 11.765625 44.234375 5.25 
Q 37.40625 -1.265625 26.953125 -1.265625 
Q 17.53125 -1.265625 11.296875 4.34375 
Q 5.078125 9.96875 4.203125 18.890625 
z
" id="ArialMT-51"/>
      </defs>
      <g transform="translate(29.636194 131.660726)scale(0.14 -0.14)">
       <use transform="translate(0 0.99375)" xlink:href="#ArialMT-49"/>
       <use transform="translate(55.615234 0.99375)" xlink:href="#ArialMT-48"/>
       <use transform="translate(112.972813 70.6875)scale(0.7)" xlink:href="#ArialMT-51"/>
      </g>
     </g>
    </g>
    <g id="ytick_2">
     <g id="line2d_8">
      <defs>
       <path d="M 0 0 
L -2 0 
" id="m4a3944fea2" style="stroke:#000000;stroke-width:0.6;"/>
      </defs>
      <g>
       <use style="stroke:#000000;stroke-width:0.6;" x="58.616194" xlink:href="#m4a3944fea2" y="183.978405"/>
      </g>
     </g>
    </g>
    <g id="ytick_3">
     <g id="line2d_9">
      <g>
       <use style="stroke:#000000;stroke-width:0.6;" x="58.616194" xlink:href="#m4a3944fea2" y="168.979414"/>
      </g>
     </g>
    </g>
    <g id="ytick_4">
     <g id="line2d_10">
      <g>
       <use style="stroke:#000000;stroke-width:0.6;" x="58.616194" xlink:href="#m4a3944fea2" y="158.33746"/>
      </g>
     </g>
    </g>
    <g id="ytick_5">
     <g id="line2d_11">
      <g>
       <use style="stroke:#000000;stroke-width:0.6;" x="58.616194" xlink:href="#m4a3944fea2" y="150.08292"/>
      </g>
     </g>
    </g>
    <g id="ytick_6">
     <g id="line2d_12">
      <g>
       <use style="stroke:#000000;stroke-width:0.6;" x="58.616194" xlink:href="#m4a3944fea2" y="143.33847"/>
      </g>
     </g>
    </g>
    <g id="ytick_7">
     <g id="line2d_13">
      <g>
       <use style="stroke:#000000;stroke-width:0.6;" x="58.616194" xlink:href="#m4a3944fea2" y="137.636118"/>
      </g>
     </g>
    </g>
    <g id="ytick_8">
     <g id="line2d_14">
      <g>
       <use style="stroke:#000000;stroke-width:0.6;" x="58.616194" xlink:href="#m4a3944fea2" y="132.696516"/>
      </g>
     </g>
    </g>
    <g id="ytick_9">
     <g id="line2d_15">
      <g>
       <use style="stroke:#000000;stroke-width:0.6;" x="58.616194" xlink:href="#m4a3944fea2" y="128.339479"/>
      </g>
     </g>
    </g>
    <g id="ytick_10">
     <g id="line2d_16">
      <g>
       <use style="stroke:#000000;stroke-width:0.6;" x="58.616194" xlink:href="#m4a3944fea2" y="98.801032"/>
      </g>
     </g>
    </g>
    <g id="ytick_11">
     <g id="line2d_17">
      <g>
       <use style="stroke:#000000;stroke-width:0.6;" x="58.616194" xlink:href="#m4a3944fea2" y="83.802041"/>
      </g>
     </g>
    </g>
    <g id="ytick_12">
     <g id="line2d_18">
      <g>
       <use style="stroke:#000000;stroke-width:0.6;" x="58.616194" xlink:href="#m4a3944fea2" y="73.160087"/>
      </g>
     </g>
    </g>
    <g id="ytick_13">
     <g id="line2d_19">
      <g>
       <use style="stroke:#000000;stroke-width:0.6;" x="58.616194" xlink:href="#m4a3944fea2" y="64.905547"/>
      </g>
     </g>
    </g>
    <g id="ytick_14">
     <g id="line2d_20">
      <g>
       <use style="stroke:#000000;stroke-width:0.6;" x="58.616194" xlink:href="#m4a3944fea2" y="58.161096"/>
      </g>
     </g>
    </g>
    <g id="ytick_15">
     <g id="line2d_21">
      <g>
       <use style="stroke:#000000;stroke-width:0.6;" x="58.616194" xlink:href="#m4a3944fea2" y="52.458745"/>
      </g>
     </g>
    </g>
    <g id="ytick_16">
     <g id="line2d_22">
      <g>
       <use style="stroke:#000000;stroke-width:0.6;" x="58.616194" xlink:href="#m4a3944fea2" y="47.519143"/>
      </g>
     </g>
    </g>
    <g id="text_9">
     <!-- Feature count -->
     <defs>
      <path d="M 8.203125 0 
L 8.203125 71.578125 
L 56.5 71.578125 
L 56.5 63.140625 
L 17.671875 63.140625 
L 17.671875 40.96875 
L 51.265625 40.96875 
L 51.265625 32.515625 
L 17.671875 32.515625 
L 17.671875 0 
z
" id="ArialMT-70"/>
      <path d="M 40.4375 19 
L 49.078125 17.875 
Q 47.65625 8.9375 41.8125 3.875 
Q 35.984375 -1.171875 27.484375 -1.171875 
Q 16.84375 -1.171875 10.375 5.78125 
Q 3.90625 12.75 3.90625 25.734375 
Q 3.90625 34.125 6.6875 40.421875 
Q 9.46875 46.734375 15.15625 49.875 
Q 20.84375 53.03125 27.546875 53.03125 
Q 35.984375 53.03125 41.359375 48.75 
Q 46.734375 44.484375 48.25 36.625 
L 39.703125 35.296875 
Q 38.484375 40.53125 35.375 43.15625 
Q 32.28125 45.796875 27.875 45.796875 
Q 21.234375 45.796875 17.078125 41.03125 
Q 12.9375 36.28125 12.9375 25.984375 
Q 12.9375 15.53125 16.9375 10.796875 
Q 20.953125 6.0625 27.390625 6.0625 
Q 32.5625 6.0625 36.03125 9.234375 
Q 39.5 12.40625 40.4375 19 
z
" id="ArialMT-99"/>
      <path d="M 6.59375 0 
L 6.59375 51.859375 
L 14.5 51.859375 
L 14.5 44.484375 
Q 20.21875 53.03125 31 53.03125 
Q 35.6875 53.03125 39.625 51.34375 
Q 43.5625 49.65625 45.515625 46.921875 
Q 47.46875 44.1875 48.25 40.4375 
Q 48.734375 37.984375 48.734375 31.890625 
L 48.734375 0 
L 39.9375 0 
L 39.9375 31.546875 
Q 39.9375 36.921875 38.90625 39.578125 
Q 37.890625 42.234375 35.28125 43.8125 
Q 32.671875 45.40625 29.15625 45.40625 
Q 23.53125 45.40625 19.453125 41.84375 
Q 15.375 38.28125 15.375 28.328125 
L 15.375 0 
z
" id="ArialMT-110"/>
     </defs>
     <g transform="translate(22.853694 167.474844)rotate(-90)scale(0.14 -0.14)">
      <use xlink:href="#ArialMT-70"/>
      <use x="61.083984" xlink:href="#ArialMT-101"/>
      <use x="116.699219" xlink:href="#ArialMT-97"/>
      <use x="172.314453" xlink:href="#ArialMT-116"/>
      <use x="200.097656" xlink:href="#ArialMT-117"/>
      <use x="255.712891" xlink:href="#ArialMT-114"/>
      <use x="289.013672" xlink:href="#ArialMT-101"/>
      <use x="344.628906" xlink:href="#ArialMT-32"/>
      <use x="372.412109" xlink:href="#ArialMT-99"/>
      <use x="422.412109" xlink:href="#ArialMT-111"/>
      <use x="478.027344" xlink:href="#ArialMT-117"/>
      <use x="533.642578" xlink:href="#ArialMT-110"/>
      <use x="589.257812" xlink:href="#ArialMT-116"/>
     </g>
    </g>
   </g>
   <g id="patch_53">
    <path d="M 58.616194 202.2 
L 58.616194 46.371875 
" style="fill:none;stroke:#000000;stroke-linecap:square;stroke-linejoin:miter;stroke-width:0.8;"/>
   </g>
   <g id="patch_54">
    <path d="M 345.7 202.2 
L 345.7 46.371875 
" style="fill:none;stroke:#000000;stroke-linecap:square;stroke-linejoin:miter;stroke-width:0.8;"/>
   </g>
   <g id="patch_55">
    <path d="M 58.616194 202.2 
L 345.7 202.2 
" style="fill:none;stroke:#000000;stroke-linecap:square;stroke-linejoin:miter;stroke-width:0.8;"/>
   </g>
   <g id="patch_56">
    <path d="M 58.616194 46.371875 
L 345.7 46.371875 
" style="fill:none;stroke:#000000;stroke-linecap:square;stroke-linejoin:miter;stroke-width:0.8;"/>
   </g>
   <g id="text_10">
    <!-- Pan-species distribution of  -->
    <defs>
     <path d="M 7.71875 0 
L 7.71875 71.578125 
L 34.71875 71.578125 
Q 41.84375 71.578125 45.609375 70.90625 
Q 50.875 70.015625 54.4375 67.546875 
Q 58.015625 65.09375 60.1875 60.640625 
Q 62.359375 56.203125 62.359375 50.875 
Q 62.359375 41.75 56.546875 35.421875 
Q 50.734375 29.109375 35.546875 29.109375 
L 17.1875 29.109375 
L 17.1875 0 
z
M 17.1875 37.546875 
L 35.6875 37.546875 
Q 44.875 37.546875 48.734375 40.96875 
Q 52.59375 44.390625 52.59375 50.59375 
Q 52.59375 55.078125 50.3125 58.265625 
Q 48.046875 61.46875 44.34375 62.5 
Q 41.9375 63.140625 35.5 63.140625 
L 17.1875 63.140625 
z
" id="ArialMT-80"/>
     <path d="M 3.171875 21.484375 
L 3.171875 30.328125 
L 30.171875 30.328125 
L 30.171875 21.484375 
z
" id="ArialMT-45"/>
     <path d="M 6.59375 -19.875 
L 6.59375 51.859375 
L 14.59375 51.859375 
L 14.59375 45.125 
Q 17.4375 49.078125 21 51.046875 
Q 24.5625 53.03125 29.640625 53.03125 
Q 36.28125 53.03125 41.359375 49.609375 
Q 46.4375 46.1875 49.015625 39.953125 
Q 51.609375 33.734375 51.609375 26.3125 
Q 51.609375 18.359375 48.75 11.984375 
Q 45.90625 5.609375 40.453125 2.21875 
Q 35.015625 -1.171875 29 -1.171875 
Q 24.609375 -1.171875 21.109375 0.6875 
Q 17.625 2.546875 15.375 5.375 
L 15.375 -19.875 
z
M 14.546875 25.640625 
Q 14.546875 15.625 18.59375 10.84375 
Q 22.65625 6.0625 28.421875 6.0625 
Q 34.28125 6.0625 38.453125 11.015625 
Q 42.625 15.96875 42.625 26.375 
Q 42.625 36.28125 38.546875 41.203125 
Q 34.46875 46.140625 28.8125 46.140625 
Q 23.1875 46.140625 18.859375 40.890625 
Q 14.546875 35.640625 14.546875 25.640625 
z
" id="ArialMT-112"/>
     <path d="M 40.234375 0 
L 40.234375 6.546875 
Q 35.296875 -1.171875 25.734375 -1.171875 
Q 19.53125 -1.171875 14.328125 2.25 
Q 9.125 5.671875 6.265625 11.796875 
Q 3.421875 17.921875 3.421875 25.875 
Q 3.421875 33.640625 6 39.96875 
Q 8.59375 46.296875 13.765625 49.65625 
Q 18.953125 53.03125 25.34375 53.03125 
Q 30.03125 53.03125 33.6875 51.046875 
Q 37.359375 49.078125 39.65625 45.90625 
L 39.65625 71.578125 
L 48.390625 71.578125 
L 48.390625 0 
z
M 12.453125 25.875 
Q 12.453125 15.921875 16.640625 10.984375 
Q 20.84375 6.0625 26.5625 6.0625 
Q 32.328125 6.0625 36.34375 10.765625 
Q 40.375 15.484375 40.375 25.140625 
Q 40.375 35.796875 36.265625 40.765625 
Q 32.171875 45.75 26.171875 45.75 
Q 20.3125 45.75 16.375 40.96875 
Q 12.453125 36.1875 12.453125 25.875 
z
" id="ArialMT-100"/>
     <path d="M 14.703125 0 
L 6.546875 0 
L 6.546875 71.578125 
L 15.328125 71.578125 
L 15.328125 46.046875 
Q 20.90625 53.03125 29.546875 53.03125 
Q 34.328125 53.03125 38.59375 51.09375 
Q 42.875 49.171875 45.625 45.671875 
Q 48.390625 42.1875 49.953125 37.25 
Q 51.515625 32.328125 51.515625 26.703125 
Q 51.515625 13.375 44.921875 6.09375 
Q 38.328125 -1.171875 29.109375 -1.171875 
Q 19.921875 -1.171875 14.703125 6.5 
z
M 14.59375 26.3125 
Q 14.59375 17 17.140625 12.84375 
Q 21.296875 6.0625 28.375 6.0625 
Q 34.125 6.0625 38.328125 11.0625 
Q 42.53125 16.0625 42.53125 25.984375 
Q 42.53125 36.140625 38.5 40.96875 
Q 34.46875 45.796875 28.765625 45.796875 
Q 23 45.796875 18.796875 40.796875 
Q 14.59375 35.796875 14.59375 26.3125 
z
" id="ArialMT-98"/>
     <path d="M 8.6875 0 
L 8.6875 45.015625 
L 0.921875 45.015625 
L 0.921875 51.859375 
L 8.6875 51.859375 
L 8.6875 57.375 
Q 8.6875 62.59375 9.625 65.140625 
Q 10.890625 68.5625 14.078125 70.671875 
Q 17.28125 72.796875 23.046875 72.796875 
Q 26.765625 72.796875 31.25 71.921875 
L 29.9375 64.265625 
Q 27.203125 64.75 24.75 64.75 
Q 20.75 64.75 19.09375 63.03125 
Q 17.4375 61.328125 17.4375 56.640625 
L 17.4375 51.859375 
L 27.546875 51.859375 
L 27.546875 45.015625 
L 17.4375 45.015625 
L 17.4375 0 
z
" id="ArialMT-102"/>
    </defs>
    <g transform="translate(106.113097 23.409875)scale(0.16 -0.16)">
     <use xlink:href="#ArialMT-80"/>
     <use x="66.699219" xlink:href="#ArialMT-97"/>
     <use x="122.314453" xlink:href="#ArialMT-110"/>
     <use x="177.929688" xlink:href="#ArialMT-45"/>
     <use x="211.230469" xlink:href="#ArialMT-115"/>
     <use x="261.230469" xlink:href="#ArialMT-112"/>
     <use x="316.845703" xlink:href="#ArialMT-101"/>
     <use x="372.460938" xlink:href="#ArialMT-99"/>
     <use x="422.460938" xlink:href="#ArialMT-105"/>
     <use x="444.677734" xlink:href="#ArialMT-101"/>
     <use x="500.292969" xlink:href="#ArialMT-115"/>
     <use x="550.292969" xlink:href="#ArialMT-32"/>
     <use x="578.076172" xlink:href="#ArialMT-100"/>
     <use x="633.691406" xlink:href="#ArialMT-105"/>
     <use x="655.908203" xlink:href="#ArialMT-115"/>
     <use x="705.908203" xlink:href="#ArialMT-116"/>
     <use x="733.691406" xlink:href="#ArialMT-114"/>
     <use x="766.992188" xlink:href="#ArialMT-105"/>
     <use x="789.208984" xlink:href="#ArialMT-98"/>
     <use x="844.824219" xlink:href="#ArialMT-117"/>
     <use x="900.439453" xlink:href="#ArialMT-116"/>
     <use x="928.222656" xlink:href="#ArialMT-105"/>
     <use x="950.439453" xlink:href="#ArialMT-111"/>
     <use x="1006.054688" xlink:href="#ArialMT-110"/>
     <use x="1061.669922" xlink:href="#ArialMT-32"/>
     <use x="1089.453125" xlink:href="#ArialMT-111"/>
     <use x="1145.068359" xlink:href="#ArialMT-102"/>
     <use x="1172.851562" xlink:href="#ArialMT-32"/>
    </g>
    <!-- cluster membership ratios -->
    <defs>
     <path d="M 6.59375 0 
L 6.59375 51.859375 
L 14.453125 51.859375 
L 14.453125 44.578125 
Q 16.890625 48.390625 20.9375 50.703125 
Q 25 53.03125 30.171875 53.03125 
Q 35.9375 53.03125 39.625 50.640625 
Q 43.3125 48.25 44.828125 43.953125 
Q 50.984375 53.03125 60.84375 53.03125 
Q 68.5625 53.03125 72.703125 48.75 
Q 76.859375 44.484375 76.859375 35.59375 
L 76.859375 0 
L 68.109375 0 
L 68.109375 32.671875 
Q 68.109375 37.9375 67.25 40.25 
Q 66.40625 42.578125 64.15625 43.984375 
Q 61.921875 45.40625 58.890625 45.40625 
Q 53.421875 45.40625 49.796875 41.765625 
Q 46.1875 38.140625 46.1875 30.125 
L 46.1875 0 
L 37.40625 0 
L 37.40625 33.6875 
Q 37.40625 39.546875 35.25 42.46875 
Q 33.109375 45.40625 28.21875 45.40625 
Q 24.515625 45.40625 21.359375 43.453125 
Q 18.21875 41.5 16.796875 37.734375 
Q 15.375 33.984375 15.375 26.90625 
L 15.375 0 
z
" id="ArialMT-109"/>
     <path d="M 6.59375 0 
L 6.59375 71.578125 
L 15.375 71.578125 
L 15.375 45.90625 
Q 21.53125 53.03125 30.90625 53.03125 
Q 36.671875 53.03125 40.921875 50.75 
Q 45.171875 48.484375 47 44.484375 
Q 48.828125 40.484375 48.828125 32.859375 
L 48.828125 0 
L 40.046875 0 
L 40.046875 32.859375 
Q 40.046875 39.453125 37.1875 42.453125 
Q 34.328125 45.453125 29.109375 45.453125 
Q 25.203125 45.453125 21.75 43.421875 
Q 18.3125 41.40625 16.84375 37.9375 
Q 15.375 34.46875 15.375 28.375 
L 15.375 0 
z
" id="ArialMT-104"/>
    </defs>
    <g transform="translate(110.578097 40.332875)scale(0.16 -0.16)">
     <use xlink:href="#ArialMT-99"/>
     <use x="50" xlink:href="#ArialMT-108"/>
     <use x="72.216797" xlink:href="#ArialMT-117"/>
     <use x="127.832031" xlink:href="#ArialMT-115"/>
     <use x="177.832031" xlink:href="#ArialMT-116"/>
     <use x="205.615234" xlink:href="#ArialMT-101"/>
     <use x="261.230469" xlink:href="#ArialMT-114"/>
     <use x="294.53125" xlink:href="#ArialMT-32"/>
     <use x="322.314453" xlink:href="#ArialMT-109"/>
     <use x="405.615234" xlink:href="#ArialMT-101"/>
     <use x="461.230469" xlink:href="#ArialMT-109"/>
     <use x="544.53125" xlink:href="#ArialMT-98"/>
     <use x="600.146484" xlink:href="#ArialMT-101"/>
     <use x="655.761719" xlink:href="#ArialMT-114"/>
     <use x="689.0625" xlink:href="#ArialMT-115"/>
     <use x="739.0625" xlink:href="#ArialMT-104"/>
     <use x="794.677734" xlink:href="#ArialMT-105"/>
     <use x="816.894531" xlink:href="#ArialMT-112"/>
     <use x="872.509766" xlink:href="#ArialMT-32"/>
     <use x="900.292969" xlink:href="#ArialMT-114"/>
     <use x="933.59375" xlink:href="#ArialMT-97"/>
     <use x="989.208984" xlink:href="#ArialMT-116"/>
     <use x="1016.992188" xlink:href="#ArialMT-105"/>
     <use x="1039.208984" xlink:href="#ArialMT-111"/>
     <use x="1094.824219" xlink:href="#ArialMT-115"/>
    </g>
   </g>
  </g>
 </g>
 <defs>
  <clipPath id="p5cb147968b">
   <rect height="155.828125" width="287.083806" x="58.616194" y="46.371875"/>
  </clipPath>
 </defs>
</svg>
