<?xml version="1.0" encoding="utf-8" standalone="no"?>
<!DOCTYPE svg PUBLIC "-//W3C//DTD SVG 1.1//EN"
  "http://www.w3.org/Graphics/SVG/1.1/DTD/svg11.dtd">
<!-- Created with matplotlib (https://matplotlib.org/) -->
<svg height="252pt" version="1.1" viewBox="0 0 360 252" width="360pt" xmlns="http://www.w3.org/2000/svg" xmlns:xlink="http://www.w3.org/1999/xlink">
 <defs>
  <style type="text/css">
*{stroke-linecap:butt;stroke-linejoin:round;}
  </style>
 </defs>
 <g id="figure_1">
  <g id="patch_1">
   <path d="M 0 252 
L 360 252 
L 360 0 
L 0 0 
z
" style="fill:#ffffff;"/>
  </g>
  <g id="axes_1">
   <g id="patch_2">
    <path d="M 45 220.5 
L 324 220.5 
L 324 30.24 
L 45 30.24 
z
" style="fill:#ffffff;"/>
   </g>
   <g id="PathCollection_1">
    <defs>
     <path d="M 0 5 
C 1.326016 5 2.597899 4.473168 3.535534 3.535534 
C 4.473168 2.597899 5 1.326016 5 0 
C 5 -1.326016 4.473168 -2.597899 3.535534 -3.535534 
C 2.597899 -4.473168 1.326016 -5 0 -5 
C -1.326016 -5 -2.597899 -4.473168 -3.535534 -3.535534 
C -4.473168 -2.597899 -5 -1.326016 -5 0 
C -5 1.326016 -4.473168 2.597899 -3.535534 3.535534 
C -2.597899 4.473168 -1.326016 5 0 5 
z
" id="mbdd868358f" style="stroke:#000000;stroke-opacity:0.3;"/>
    </defs>
    <g clip-path="url(#p519d4e92e2)">
     <use style="fill-opacity:0.3;stroke:#000000;stroke-opacity:0.3;" x="319.182096" xlink:href="#mbdd868358f" y="219.492678"/>
     <use style="fill-opacity:0.3;stroke:#000000;stroke-opacity:0.3;" x="45" xlink:href="#mbdd868358f" y="220.396628"/>
     <use style="fill-opacity:0.3;stroke:#000000;stroke-opacity:0.3;" x="45" xlink:href="#mbdd868358f" y="220.49899"/>
     <use style="fill-opacity:0.3;stroke:#000000;stroke-opacity:0.3;" x="90.820218" xlink:href="#mbdd868358f" y="220.412265"/>
     <use style="fill-opacity:0.3;stroke:#000000;stroke-opacity:0.3;" x="280.161964" xlink:href="#mbdd868358f" y="218.881647"/>
     <use style="fill-opacity:0.3;stroke:#000000;stroke-opacity:0.3;" x="45" xlink:href="#mbdd868358f" y="220.5"/>
     <use style="fill-opacity:0.3;stroke:#000000;stroke-opacity:0.3;" x="45" xlink:href="#mbdd868358f" y="220.5"/>
     <use style="fill-opacity:0.3;stroke:#000000;stroke-opacity:0.3;" x="45" xlink:href="#mbdd868358f" y="220.5"/>
     <use style="fill-opacity:0.3;stroke:#000000;stroke-opacity:0.3;" x="118.072418" xlink:href="#mbdd868358f" y="218.112885"/>
     <use style="fill-opacity:0.3;stroke:#000000;stroke-opacity:0.3;" x="45" xlink:href="#mbdd868358f" y="220.49507"/>
     <use style="fill-opacity:0.3;stroke:#000000;stroke-opacity:0.3;" x="165.914463" xlink:href="#mbdd868358f" y="219.690844"/>
     <use style="fill-opacity:0.3;stroke:#000000;stroke-opacity:0.3;" x="87.625577" xlink:href="#mbdd868358f" y="218.751305"/>
     <use style="fill-opacity:0.3;stroke:#000000;stroke-opacity:0.3;" x="234.701538" xlink:href="#mbdd868358f" y="217.235615"/>
     <use style="fill-opacity:0.3;stroke:#000000;stroke-opacity:0.3;" x="79.38702" xlink:href="#mbdd868358f" y="220.452109"/>
     <use style="fill-opacity:0.3;stroke:#000000;stroke-opacity:0.3;" x="71.533501" xlink:href="#mbdd868358f" y="214.807829"/>
     <use style="fill-opacity:0.3;stroke:#000000;stroke-opacity:0.3;" x="45" xlink:href="#mbdd868358f" y="220.371872"/>
     <use style="fill-opacity:0.3;stroke:#000000;stroke-opacity:0.3;" x="45" xlink:href="#mbdd868358f" y="220.462699"/>
     <use style="fill-opacity:0.3;stroke:#000000;stroke-opacity:0.3;" x="45" xlink:href="#mbdd868358f" y="219.359562"/>
     <use style="fill-opacity:0.3;stroke:#000000;stroke-opacity:0.3;" x="198.452078" xlink:href="#mbdd868358f" y="219.051096"/>
     <use style="fill-opacity:0.3;stroke:#000000;stroke-opacity:0.3;" x="191.144836" xlink:href="#mbdd868358f" y="220.5"/>
     <use style="fill-opacity:0.3;stroke:#000000;stroke-opacity:0.3;" x="89.478863" xlink:href="#mbdd868358f" y="220.483686"/>
     <use style="fill-opacity:0.3;stroke:#000000;stroke-opacity:0.3;" x="74.062894" xlink:href="#mbdd868358f" y="183.02042"/>
     <use style="fill-opacity:0.3;stroke:#000000;stroke-opacity:0.3;" x="45" xlink:href="#mbdd868358f" y="220.303613"/>
     <use style="fill-opacity:0.3;stroke:#000000;stroke-opacity:0.3;" x="300.829549" xlink:href="#mbdd868358f" y="219.240047"/>
     <use style="fill-opacity:0.3;stroke:#000000;stroke-opacity:0.3;" x="257.444905" xlink:href="#mbdd868358f" y="219.234626"/>
     <use style="fill-opacity:0.3;stroke:#000000;stroke-opacity:0.3;" x="312.648973" xlink:href="#mbdd868358f" y="219.81084"/>
     <use style="fill-opacity:0.3;stroke:#000000;stroke-opacity:0.3;" x="62.050231" xlink:href="#mbdd868358f" y="219.342925"/>
     <use style="fill-opacity:0.3;stroke:#000000;stroke-opacity:0.3;" x="262.707494" xlink:href="#mbdd868358f" y="219.046734"/>
     <use style="fill-opacity:0.3;stroke:#000000;stroke-opacity:0.3;" x="284.294082" xlink:href="#mbdd868358f" y="218.72113"/>
     <use style="fill-opacity:0.3;stroke:#000000;stroke-opacity:0.3;" x="50.140089" xlink:href="#mbdd868358f" y="180.391996"/>
     <use style="fill-opacity:0.3;stroke:#000000;stroke-opacity:0.3;" x="45" xlink:href="#mbdd868358f" y="220.5"/>
     <use style="fill-opacity:0.3;stroke:#000000;stroke-opacity:0.3;" x="45" xlink:href="#mbdd868358f" y="220.428121"/>
     <use style="fill-opacity:0.3;stroke:#000000;stroke-opacity:0.3;" x="91.975126" xlink:href="#mbdd868358f" y="201.409832"/>
     <use style="fill-opacity:0.3;stroke:#000000;stroke-opacity:0.3;" x="103.610169" xlink:href="#mbdd868358f" y="219.17343"/>
     <use style="fill-opacity:0.3;stroke:#000000;stroke-opacity:0.3;" x="54.836672" xlink:href="#mbdd868358f" y="220.5"/>
     <use style="fill-opacity:0.3;stroke:#000000;stroke-opacity:0.3;" x="45" xlink:href="#mbdd868358f" y="220.5"/>
     <use style="fill-opacity:0.3;stroke:#000000;stroke-opacity:0.3;" x="129.172026" xlink:href="#mbdd868358f" y="217.175252"/>
     <use style="fill-opacity:0.3;stroke:#000000;stroke-opacity:0.3;" x="184.956293" xlink:href="#mbdd868358f" y="219.386843"/>
     <use style="fill-opacity:0.3;stroke:#000000;stroke-opacity:0.3;" x="79.100462" xlink:href="#mbdd868358f" y="219.803112"/>
     <use style="fill-opacity:0.3;stroke:#000000;stroke-opacity:0.3;" x="165.798756" xlink:href="#mbdd868358f" y="219.089885"/>
     <use style="fill-opacity:0.3;stroke:#000000;stroke-opacity:0.3;" x="165.798756" xlink:href="#mbdd868358f" y="219.089885"/>
     <use style="fill-opacity:0.3;stroke:#000000;stroke-opacity:0.3;" x="215.502309" xlink:href="#mbdd868358f" y="220.455238"/>
     <use style="fill-opacity:0.3;stroke:#000000;stroke-opacity:0.3;" x="74.182646" xlink:href="#mbdd868358f" y="63.087225"/>
     <use style="fill-opacity:0.3;stroke:#000000;stroke-opacity:0.3;" x="98.716245" xlink:href="#mbdd868358f" y="141.284731"/>
     <use style="fill-opacity:0.3;stroke:#000000;stroke-opacity:0.3;" x="258.596299" xlink:href="#mbdd868358f" y="220.384697"/>
     <use style="fill-opacity:0.3;stroke:#000000;stroke-opacity:0.3;" x="60.665032" xlink:href="#mbdd868358f" y="215.117169"/>
     <use style="fill-opacity:0.3;stroke:#000000;stroke-opacity:0.3;" x="112.575227" xlink:href="#mbdd868358f" y="201.956675"/>
     <use style="fill-opacity:0.3;stroke:#000000;stroke-opacity:0.3;" x="64.091757" xlink:href="#mbdd868358f" y="218.694405"/>
     <use style="fill-opacity:0.3;stroke:#000000;stroke-opacity:0.3;" x="76.464937" xlink:href="#mbdd868358f" y="52.132724"/>
     <use style="fill-opacity:0.3;stroke:#000000;stroke-opacity:0.3;" x="56.748774" xlink:href="#mbdd868358f" y="216.919119"/>
     <use style="fill-opacity:0.3;stroke:#000000;stroke-opacity:0.3;" x="51.942457" xlink:href="#mbdd868358f" y="44.79635"/>
     <use style="fill-opacity:0.3;stroke:#000000;stroke-opacity:0.3;" x="97.91451" xlink:href="#mbdd868358f" y="220.434684"/>
     <use style="fill-opacity:0.3;stroke:#000000;stroke-opacity:0.3;" x="98.716245" xlink:href="#mbdd868358f" y="141.284731"/>
     <use style="fill-opacity:0.3;stroke:#000000;stroke-opacity:0.3;" x="74.182646" xlink:href="#mbdd868358f" y="63.087225"/>
     <use style="fill-opacity:0.3;stroke:#000000;stroke-opacity:0.3;" x="45" xlink:href="#mbdd868358f" y="220.428121"/>
     <use style="fill-opacity:0.3;stroke:#000000;stroke-opacity:0.3;" x="74.182646" xlink:href="#mbdd868358f" y="63.087225"/>
     <use style="fill-opacity:0.3;stroke:#000000;stroke-opacity:0.3;" x="100.581068" xlink:href="#mbdd868358f" y="175.710438"/>
     <use style="fill-opacity:0.3;stroke:#000000;stroke-opacity:0.3;" x="312.29789" xlink:href="#mbdd868358f" y="219.108325"/>
     <use style="fill-opacity:0.3;stroke:#000000;stroke-opacity:0.3;" x="249.606004" xlink:href="#mbdd868358f" y="219.486051"/>
     <use style="fill-opacity:0.3;stroke:#000000;stroke-opacity:0.3;" x="117.162803" xlink:href="#mbdd868358f" y="219.359389"/>
     <use style="fill-opacity:0.3;stroke:#000000;stroke-opacity:0.3;" x="101.033623" xlink:href="#mbdd868358f" y="118.187172"/>
     <use style="fill-opacity:0.3;stroke:#000000;stroke-opacity:0.3;" x="256.710577" xlink:href="#mbdd868358f" y="218.368221"/>
     <use style="fill-opacity:0.3;stroke:#000000;stroke-opacity:0.3;" x="108.149003" xlink:href="#mbdd868358f" y="220.134669"/>
     <use style="fill-opacity:0.3;stroke:#000000;stroke-opacity:0.3;" x="96.72542" xlink:href="#mbdd868358f" y="218.940417"/>
     <use style="fill-opacity:0.3;stroke:#000000;stroke-opacity:0.3;" x="116.706578" xlink:href="#mbdd868358f" y="218.848542"/>
     <use style="fill-opacity:0.3;stroke:#000000;stroke-opacity:0.3;" x="71.13539" xlink:href="#mbdd868358f" y="218.170471"/>
     <use style="fill-opacity:0.3;stroke:#000000;stroke-opacity:0.3;" x="89.31829" xlink:href="#mbdd868358f" y="219.259281"/>
     <use style="fill-opacity:0.3;stroke:#000000;stroke-opacity:0.3;" x="317.433037" xlink:href="#mbdd868358f" y="218.903502"/>
     <use style="fill-opacity:0.3;stroke:#000000;stroke-opacity:0.3;" x="266.772234" xlink:href="#mbdd868358f" y="218.946845"/>
     <use style="fill-opacity:0.3;stroke:#000000;stroke-opacity:0.3;" x="96.150693" xlink:href="#mbdd868358f" y="220.499828"/>
     <use style="fill-opacity:0.3;stroke:#000000;stroke-opacity:0.3;" x="45" xlink:href="#mbdd868358f" y="220.5"/>
     <use style="fill-opacity:0.3;stroke:#000000;stroke-opacity:0.3;" x="97.085562" xlink:href="#mbdd868358f" y="210.829999"/>
     <use style="fill-opacity:0.3;stroke:#000000;stroke-opacity:0.3;" x="146.822706" xlink:href="#mbdd868358f" y="220.299054"/>
     <use style="fill-opacity:0.3;stroke:#000000;stroke-opacity:0.3;" x="66.378772" xlink:href="#mbdd868358f" y="30.24"/>
     <use style="fill-opacity:0.3;stroke:#000000;stroke-opacity:0.3;" x="107.00084" xlink:href="#mbdd868358f" y="211.408767"/>
     <use style="fill-opacity:0.3;stroke:#000000;stroke-opacity:0.3;" x="69.971204" xlink:href="#mbdd868358f" y="85.018797"/>
     <use style="fill-opacity:0.3;stroke:#000000;stroke-opacity:0.3;" x="323.86283" xlink:href="#mbdd868358f" y="219.312812"/>
     <use style="fill-opacity:0.3;stroke:#000000;stroke-opacity:0.3;" x="76.969183" xlink:href="#mbdd868358f" y="220.466478"/>
     <use style="fill-opacity:0.3;stroke:#000000;stroke-opacity:0.3;" x="121.36703" xlink:href="#mbdd868358f" y="220.5"/>
     <use style="fill-opacity:0.3;stroke:#000000;stroke-opacity:0.3;" x="293.050046" xlink:href="#mbdd868358f" y="218.641572"/>
     <use style="fill-opacity:0.3;stroke:#000000;stroke-opacity:0.3;" x="79.997842" xlink:href="#mbdd868358f" y="210.164878"/>
     <use style="fill-opacity:0.3;stroke:#000000;stroke-opacity:0.3;" x="70.050102" xlink:href="#mbdd868358f" y="58.281013"/>
     <use style="fill-opacity:0.3;stroke:#000000;stroke-opacity:0.3;" x="67.943582" xlink:href="#mbdd868358f" y="210.335464"/>
     <use style="fill-opacity:0.3;stroke:#000000;stroke-opacity:0.3;" x="61.174132" xlink:href="#mbdd868358f" y="217.740513"/>
     <use style="fill-opacity:0.3;stroke:#000000;stroke-opacity:0.3;" x="101.401904" xlink:href="#mbdd868358f" y="204.421459"/>
     <use style="fill-opacity:0.3;stroke:#000000;stroke-opacity:0.3;" x="75.461951" xlink:href="#mbdd868358f" y="210.354133"/>
     <use style="fill-opacity:0.3;stroke:#000000;stroke-opacity:0.3;" x="74.182646" xlink:href="#mbdd868358f" y="63.087225"/>
     <use style="fill-opacity:0.3;stroke:#000000;stroke-opacity:0.3;" x="57.629801" xlink:href="#mbdd868358f" y="217.513832"/>
     <use style="fill-opacity:0.3;stroke:#000000;stroke-opacity:0.3;" x="45" xlink:href="#mbdd868358f" y="220.5"/>
     <use style="fill-opacity:0.3;stroke:#000000;stroke-opacity:0.3;" x="45" xlink:href="#mbdd868358f" y="220.5"/>
     <use style="fill-opacity:0.3;stroke:#000000;stroke-opacity:0.3;" x="259.554988" xlink:href="#mbdd868358f" y="219.819874"/>
     <use style="fill-opacity:0.3;stroke:#000000;stroke-opacity:0.3;" x="45" xlink:href="#mbdd868358f" y="220.5"/>
     <use style="fill-opacity:0.3;stroke:#000000;stroke-opacity:0.3;" x="270.851428" xlink:href="#mbdd868358f" y="218.997979"/>
     <use style="fill-opacity:0.3;stroke:#000000;stroke-opacity:0.3;" x="78.651771" xlink:href="#mbdd868358f" y="218.205863"/>
     <use style="fill-opacity:0.3;stroke:#000000;stroke-opacity:0.3;" x="75.629157" xlink:href="#mbdd868358f" y="216.628545"/>
     <use style="fill-opacity:0.3;stroke:#000000;stroke-opacity:0.3;" x="45" xlink:href="#mbdd868358f" y="220.5"/>
     <use style="fill-opacity:0.3;stroke:#000000;stroke-opacity:0.3;" x="324" xlink:href="#mbdd868358f" y="220.410303"/>
     <use style="fill-opacity:0.3;stroke:#000000;stroke-opacity:0.3;" x="215.502309" xlink:href="#mbdd868358f" y="218.953126"/>
     <use style="fill-opacity:0.3;stroke:#000000;stroke-opacity:0.3;" x="202.433569" xlink:href="#mbdd868358f" y="219.476894"/>
     <use style="fill-opacity:0.3;stroke:#000000;stroke-opacity:0.3;" x="112.881804" xlink:href="#mbdd868358f" y="219.098609"/>
     <use style="fill-opacity:0.3;stroke:#000000;stroke-opacity:0.3;" x="65.779969" xlink:href="#mbdd868358f" y="215.894593"/>
     <use style="fill-opacity:0.3;stroke:#000000;stroke-opacity:0.3;" x="62.050231" xlink:href="#mbdd868358f" y="220.407848"/>
     <use style="fill-opacity:0.3;stroke:#000000;stroke-opacity:0.3;" x="68.91461" xlink:href="#mbdd868358f" y="206.948767"/>
     <use style="fill-opacity:0.3;stroke:#000000;stroke-opacity:0.3;" x="71.640986" xlink:href="#mbdd868358f" y="218.673279"/>
     <use style="fill-opacity:0.3;stroke:#000000;stroke-opacity:0.3;" x="69.971204" xlink:href="#mbdd868358f" y="85.018797"/>
     <use style="fill-opacity:0.3;stroke:#000000;stroke-opacity:0.3;" x="111.093592" xlink:href="#mbdd868358f" y="217.982668"/>
     <use style="fill-opacity:0.3;stroke:#000000;stroke-opacity:0.3;" x="304.171959" xlink:href="#mbdd868358f" y="220.5"/>
     <use style="fill-opacity:0.3;stroke:#000000;stroke-opacity:0.3;" x="80.27634" xlink:href="#mbdd868358f" y="220.468104"/>
     <use style="fill-opacity:0.3;stroke:#000000;stroke-opacity:0.3;" x="118.598119" xlink:href="#mbdd868358f" y="220.356547"/>
     <use style="fill-opacity:0.3;stroke:#000000;stroke-opacity:0.3;" x="71.366336" xlink:href="#mbdd868358f" y="216.910085"/>
     <use style="fill-opacity:0.3;stroke:#000000;stroke-opacity:0.3;" x="68.671347" xlink:href="#mbdd868358f" y="192.905546"/>
     <use style="fill-opacity:0.3;stroke:#000000;stroke-opacity:0.3;" x="203.608446" xlink:href="#mbdd868358f" y="219.670063"/>
     <use style="fill-opacity:0.3;stroke:#000000;stroke-opacity:0.3;" x="74.652575" xlink:href="#mbdd868358f" y="214.508751"/>
     <use style="fill-opacity:0.3;stroke:#000000;stroke-opacity:0.3;" x="81.912871" xlink:href="#mbdd868358f" y="220.042297"/>
     <use style="fill-opacity:0.3;stroke:#000000;stroke-opacity:0.3;" x="116.61097" xlink:href="#mbdd868358f" y="217.805373"/>
     <use style="fill-opacity:0.3;stroke:#000000;stroke-opacity:0.3;" x="101.209552" xlink:href="#mbdd868358f" y="220.442161"/>
     <use style="fill-opacity:0.3;stroke:#000000;stroke-opacity:0.3;" x="108.938366" xlink:href="#mbdd868358f" y="219.740545"/>
     <use style="fill-opacity:0.3;stroke:#000000;stroke-opacity:0.3;" x="45" xlink:href="#mbdd868358f" y="220.5"/>
     <use style="fill-opacity:0.3;stroke:#000000;stroke-opacity:0.3;" x="45" xlink:href="#mbdd868358f" y="220.5"/>
     <use style="fill-opacity:0.3;stroke:#000000;stroke-opacity:0.3;" x="51.942457" xlink:href="#mbdd868358f" y="44.79635"/>
     <use style="fill-opacity:0.3;stroke:#000000;stroke-opacity:0.3;" x="45" xlink:href="#mbdd868358f" y="220.063395"/>
     <use style="fill-opacity:0.3;stroke:#000000;stroke-opacity:0.3;" x="45" xlink:href="#mbdd868358f" y="220.481835"/>
     <use style="fill-opacity:0.3;stroke:#000000;stroke-opacity:0.3;" x="245.94915" xlink:href="#mbdd868358f" y="219.026796"/>
     <use style="fill-opacity:0.3;stroke:#000000;stroke-opacity:0.3;" x="101.033623" xlink:href="#mbdd868358f" y="118.187172"/>
     <use style="fill-opacity:0.3;stroke:#000000;stroke-opacity:0.3;" x="108.938366" xlink:href="#mbdd868358f" y="220.5"/>
     <use style="fill-opacity:0.3;stroke:#000000;stroke-opacity:0.3;" x="80.443" xlink:href="#mbdd868358f" y="109.809639"/>
     <use style="fill-opacity:0.3;stroke:#000000;stroke-opacity:0.3;" x="178.680214" xlink:href="#mbdd868358f" y="195.3142"/>
     <use style="fill-opacity:0.3;stroke:#000000;stroke-opacity:0.3;" x="100.581068" xlink:href="#mbdd868358f" y="175.710438"/>
     <use style="fill-opacity:0.3;stroke:#000000;stroke-opacity:0.3;" x="194.607418" xlink:href="#mbdd868358f" y="208.800702"/>
     <use style="fill-opacity:0.3;stroke:#000000;stroke-opacity:0.3;" x="121.36703" xlink:href="#mbdd868358f" y="220.5"/>
     <use style="fill-opacity:0.3;stroke:#000000;stroke-opacity:0.3;" x="77.580059" xlink:href="#mbdd868358f" y="218.623926"/>
     <use style="fill-opacity:0.3;stroke:#000000;stroke-opacity:0.3;" x="319.182096" xlink:href="#mbdd868358f" y="219.492678"/>
     <use style="fill-opacity:0.3;stroke:#000000;stroke-opacity:0.3;" x="45" xlink:href="#mbdd868358f" y="220.463815"/>
     <use style="fill-opacity:0.3;stroke:#000000;stroke-opacity:0.3;" x="45" xlink:href="#mbdd868358f" y="220.5"/>
     <use style="fill-opacity:0.3;stroke:#000000;stroke-opacity:0.3;" x="68.118957" xlink:href="#mbdd868358f" y="220.375495"/>
     <use style="fill-opacity:0.3;stroke:#000000;stroke-opacity:0.3;" x="122.076386" xlink:href="#mbdd868358f" y="220.24028"/>
     <use style="fill-opacity:0.3;stroke:#000000;stroke-opacity:0.3;" x="72.649023" xlink:href="#mbdd868358f" y="219.54403"/>
     <use style="fill-opacity:0.3;stroke:#000000;stroke-opacity:0.3;" x="78.359147" xlink:href="#mbdd868358f" y="219.415466"/>
     <use style="fill-opacity:0.3;stroke:#000000;stroke-opacity:0.3;" x="68.46362" xlink:href="#mbdd868358f" y="219.011818"/>
     <use style="fill-opacity:0.3;stroke:#000000;stroke-opacity:0.3;" x="91.975126" xlink:href="#mbdd868358f" y="201.409832"/>
     <use style="fill-opacity:0.3;stroke:#000000;stroke-opacity:0.3;" x="127.093704" xlink:href="#mbdd868358f" y="218.339335"/>
     <use style="fill-opacity:0.3;stroke:#000000;stroke-opacity:0.3;" x="163.04006" xlink:href="#mbdd868358f" y="220.329343"/>
     <use style="fill-opacity:0.3;stroke:#000000;stroke-opacity:0.3;" x="162.03972" xlink:href="#mbdd868358f" y="220.292632"/>
     <use style="fill-opacity:0.3;stroke:#000000;stroke-opacity:0.3;" x="290.010886" xlink:href="#mbdd868358f" y="219.549897"/>
     <use style="fill-opacity:0.3;stroke:#000000;stroke-opacity:0.3;" x="290.010886" xlink:href="#mbdd868358f" y="219.549897"/>
     <use style="fill-opacity:0.3;stroke:#000000;stroke-opacity:0.3;" x="77.456023" xlink:href="#mbdd868358f" y="213.555999"/>
     <use style="fill-opacity:0.3;stroke:#000000;stroke-opacity:0.3;" x="58.63697" xlink:href="#mbdd868358f" y="214.581984"/>
     <use style="fill-opacity:0.3;stroke:#000000;stroke-opacity:0.3;" x="45" xlink:href="#mbdd868358f" y="220.5"/>
     <use style="fill-opacity:0.3;stroke:#000000;stroke-opacity:0.3;" x="88.031535" xlink:href="#mbdd868358f" y="150.238729"/>
     <use style="fill-opacity:0.3;stroke:#000000;stroke-opacity:0.3;" x="87.95859" xlink:href="#mbdd868358f" y="206.578844"/>
     <use style="fill-opacity:0.3;stroke:#000000;stroke-opacity:0.3;" x="92.58204" xlink:href="#mbdd868358f" y="220.476064"/>
     <use style="fill-opacity:0.3;stroke:#000000;stroke-opacity:0.3;" x="82.963405" xlink:href="#mbdd868358f" y="219.274673"/>
     <use style="fill-opacity:0.3;stroke:#000000;stroke-opacity:0.3;" x="77.712652" xlink:href="#mbdd868358f" y="219.780813"/>
     <use style="fill-opacity:0.3;stroke:#000000;stroke-opacity:0.3;" x="74.12495" xlink:href="#mbdd868358f" y="218.15507"/>
     <use style="fill-opacity:0.3;stroke:#000000;stroke-opacity:0.3;" x="77.813652" xlink:href="#mbdd868358f" y="218.07512"/>
     <use style="fill-opacity:0.3;stroke:#000000;stroke-opacity:0.3;" x="45" xlink:href="#mbdd868358f" y="220.5"/>
     <use style="fill-opacity:0.3;stroke:#000000;stroke-opacity:0.3;" x="66.009763" xlink:href="#mbdd868358f" y="60.059263"/>
     <use style="fill-opacity:0.3;stroke:#000000;stroke-opacity:0.3;" x="76.464937" xlink:href="#mbdd868358f" y="52.132724"/>
     <use style="fill-opacity:0.3;stroke:#000000;stroke-opacity:0.3;" x="45" xlink:href="#mbdd868358f" y="220.5"/>
     <use style="fill-opacity:0.3;stroke:#000000;stroke-opacity:0.3;" x="45" xlink:href="#mbdd868358f" y="220.5"/>
     <use style="fill-opacity:0.3;stroke:#000000;stroke-opacity:0.3;" x="45" xlink:href="#mbdd868358f" y="220.5"/>
     <use style="fill-opacity:0.3;stroke:#000000;stroke-opacity:0.3;" x="91.50063" xlink:href="#mbdd868358f" y="219.807309"/>
     <use style="fill-opacity:0.3;stroke:#000000;stroke-opacity:0.3;" x="85.382126" xlink:href="#mbdd868358f" y="220.494585"/>
     <use style="fill-opacity:0.3;stroke:#000000;stroke-opacity:0.3;" x="71.921417" xlink:href="#mbdd868358f" y="143.158985"/>
     <use style="fill-opacity:0.3;stroke:#000000;stroke-opacity:0.3;" x="102.350777" xlink:href="#mbdd868358f" y="219.352751"/>
     <use style="fill-opacity:0.3;stroke:#000000;stroke-opacity:0.3;" x="71.366336" xlink:href="#mbdd868358f" y="219.515078"/>
     <use style="fill-opacity:0.3;stroke:#000000;stroke-opacity:0.3;" x="45" xlink:href="#mbdd868358f" y="220.465635"/>
     <use style="fill-opacity:0.3;stroke:#000000;stroke-opacity:0.3;" x="45" xlink:href="#mbdd868358f" y="220.5"/>
     <use style="fill-opacity:0.3;stroke:#000000;stroke-opacity:0.3;" x="45" xlink:href="#mbdd868358f" y="220.33531"/>
     <use style="fill-opacity:0.3;stroke:#000000;stroke-opacity:0.3;" x="62.570849" xlink:href="#mbdd868358f" y="215.765489"/>
     <use style="fill-opacity:0.3;stroke:#000000;stroke-opacity:0.3;" x="74.510015" xlink:href="#mbdd868358f" y="219.931857"/>
     <use style="fill-opacity:0.3;stroke:#000000;stroke-opacity:0.3;" x="285.772905" xlink:href="#mbdd868358f" y="219.09514"/>
     <use style="fill-opacity:0.3;stroke:#000000;stroke-opacity:0.3;" x="74.13647" xlink:href="#mbdd868358f" y="99.656514"/>
     <use style="fill-opacity:0.3;stroke:#000000;stroke-opacity:0.3;" x="97.462249" xlink:href="#mbdd868358f" y="219.499899"/>
     <use style="fill-opacity:0.3;stroke:#000000;stroke-opacity:0.3;" x="45" xlink:href="#mbdd868358f" y="220.5"/>
     <use style="fill-opacity:0.3;stroke:#000000;stroke-opacity:0.3;" x="68.55624" xlink:href="#mbdd868358f" y="218.218867"/>
     <use style="fill-opacity:0.3;stroke:#000000;stroke-opacity:0.3;" x="276.003128" xlink:href="#mbdd868358f" y="220.377007"/>
    </g>
   </g>
   <g id="matplotlib.axis_1">
    <g id="xtick_1">
     <g id="line2d_1">
      <defs>
       <path d="M 0 0 
L 0 3.5 
" id="m3cf64e2e22" style="stroke:#000000;stroke-width:0.8;"/>
      </defs>
      <g>
       <use style="stroke:#000000;stroke-width:0.8;" x="45" xlink:href="#m3cf64e2e22" y="220.5"/>
      </g>
     </g>
     <g id="text_1">
      <!-- 0.0 -->
      <defs>
       <path d="M 31.78125 66.40625 
Q 24.171875 66.40625 20.328125 58.90625 
Q 16.5 51.421875 16.5 36.375 
Q 16.5 21.390625 20.328125 13.890625 
Q 24.171875 6.390625 31.78125 6.390625 
Q 39.453125 6.390625 43.28125 13.890625 
Q 47.125 21.390625 47.125 36.375 
Q 47.125 51.421875 43.28125 58.90625 
Q 39.453125 66.40625 31.78125 66.40625 
z
M 31.78125 74.21875 
Q 44.046875 74.21875 50.515625 64.515625 
Q 56.984375 54.828125 56.984375 36.375 
Q 56.984375 17.96875 50.515625 8.265625 
Q 44.046875 -1.421875 31.78125 -1.421875 
Q 19.53125 -1.421875 13.0625 8.265625 
Q 6.59375 17.96875 6.59375 36.375 
Q 6.59375 54.828125 13.0625 64.515625 
Q 19.53125 74.21875 31.78125 74.21875 
z
" id="DejaVuSans-48"/>
       <path d="M 10.6875 12.40625 
L 21 12.40625 
L 21 0 
L 10.6875 0 
z
" id="DejaVuSans-46"/>
      </defs>
      <g transform="translate(37.048437 235.098437)scale(0.1 -0.1)">
       <use xlink:href="#DejaVuSans-48"/>
       <use x="63.623047" xlink:href="#DejaVuSans-46"/>
       <use x="95.410156" xlink:href="#DejaVuSans-48"/>
      </g>
     </g>
    </g>
    <g id="xtick_2">
     <g id="line2d_2">
      <g>
       <use style="stroke:#000000;stroke-width:0.8;" x="100.901531" xlink:href="#m3cf64e2e22" y="220.5"/>
      </g>
     </g>
     <g id="text_2">
      <!-- 0.2 -->
      <defs>
       <path d="M 19.1875 8.296875 
L 53.609375 8.296875 
L 53.609375 0 
L 7.328125 0 
L 7.328125 8.296875 
Q 12.9375 14.109375 22.625 23.890625 
Q 32.328125 33.6875 34.8125 36.53125 
Q 39.546875 41.84375 41.421875 45.53125 
Q 43.3125 49.21875 43.3125 52.78125 
Q 43.3125 58.59375 39.234375 62.25 
Q 35.15625 65.921875 28.609375 65.921875 
Q 23.96875 65.921875 18.8125 64.3125 
Q 13.671875 62.703125 7.8125 59.421875 
L 7.8125 69.390625 
Q 13.765625 71.78125 18.9375 73 
Q 24.125 74.21875 28.421875 74.21875 
Q 39.75 74.21875 46.484375 68.546875 
Q 53.21875 62.890625 53.21875 53.421875 
Q 53.21875 48.921875 51.53125 44.890625 
Q 49.859375 40.875 45.40625 35.40625 
Q 44.1875 33.984375 37.640625 27.21875 
Q 31.109375 20.453125 19.1875 8.296875 
z
" id="DejaVuSans-50"/>
      </defs>
      <g transform="translate(92.949968 235.098437)scale(0.1 -0.1)">
       <use xlink:href="#DejaVuSans-48"/>
       <use x="63.623047" xlink:href="#DejaVuSans-46"/>
       <use x="95.410156" xlink:href="#DejaVuSans-50"/>
      </g>
     </g>
    </g>
    <g id="xtick_3">
     <g id="line2d_3">
      <g>
       <use style="stroke:#000000;stroke-width:0.8;" x="156.803062" xlink:href="#m3cf64e2e22" y="220.5"/>
      </g>
     </g>
     <g id="text_3">
      <!-- 0.4 -->
      <defs>
       <path d="M 37.796875 64.3125 
L 12.890625 25.390625 
L 37.796875 25.390625 
z
M 35.203125 72.90625 
L 47.609375 72.90625 
L 47.609375 25.390625 
L 58.015625 25.390625 
L 58.015625 17.1875 
L 47.609375 17.1875 
L 47.609375 0 
L 37.796875 0 
L 37.796875 17.1875 
L 4.890625 17.1875 
L 4.890625 26.703125 
z
" id="DejaVuSans-52"/>
      </defs>
      <g transform="translate(148.851499 235.098437)scale(0.1 -0.1)">
       <use xlink:href="#DejaVuSans-48"/>
       <use x="63.623047" xlink:href="#DejaVuSans-46"/>
       <use x="95.410156" xlink:href="#DejaVuSans-52"/>
      </g>
     </g>
    </g>
    <g id="xtick_4">
     <g id="line2d_4">
      <g>
       <use style="stroke:#000000;stroke-width:0.8;" x="212.704593" xlink:href="#m3cf64e2e22" y="220.5"/>
      </g>
     </g>
     <g id="text_4">
      <!-- 0.6 -->
      <defs>
       <path d="M 33.015625 40.375 
Q 26.375 40.375 22.484375 35.828125 
Q 18.609375 31.296875 18.609375 23.390625 
Q 18.609375 15.53125 22.484375 10.953125 
Q 26.375 6.390625 33.015625 6.390625 
Q 39.65625 6.390625 43.53125 10.953125 
Q 47.40625 15.53125 47.40625 23.390625 
Q 47.40625 31.296875 43.53125 35.828125 
Q 39.65625 40.375 33.015625 40.375 
z
M 52.59375 71.296875 
L 52.59375 62.3125 
Q 48.875 64.0625 45.09375 64.984375 
Q 41.3125 65.921875 37.59375 65.921875 
Q 27.828125 65.921875 22.671875 59.328125 
Q 17.53125 52.734375 16.796875 39.40625 
Q 19.671875 43.65625 24.015625 45.921875 
Q 28.375 48.1875 33.59375 48.1875 
Q 44.578125 48.1875 50.953125 41.515625 
Q 57.328125 34.859375 57.328125 23.390625 
Q 57.328125 12.15625 50.6875 5.359375 
Q 44.046875 -1.421875 33.015625 -1.421875 
Q 20.359375 -1.421875 13.671875 8.265625 
Q 6.984375 17.96875 6.984375 36.375 
Q 6.984375 53.65625 15.1875 63.9375 
Q 23.390625 74.21875 37.203125 74.21875 
Q 40.921875 74.21875 44.703125 73.484375 
Q 48.484375 72.75 52.59375 71.296875 
z
" id="DejaVuSans-54"/>
      </defs>
      <g transform="translate(204.75303 235.098437)scale(0.1 -0.1)">
       <use xlink:href="#DejaVuSans-48"/>
       <use x="63.623047" xlink:href="#DejaVuSans-46"/>
       <use x="95.410156" xlink:href="#DejaVuSans-54"/>
      </g>
     </g>
    </g>
    <g id="xtick_5">
     <g id="line2d_5">
      <g>
       <use style="stroke:#000000;stroke-width:0.8;" x="268.606124" xlink:href="#m3cf64e2e22" y="220.5"/>
      </g>
     </g>
     <g id="text_5">
      <!-- 0.8 -->
      <defs>
       <path d="M 31.78125 34.625 
Q 24.75 34.625 20.71875 30.859375 
Q 16.703125 27.09375 16.703125 20.515625 
Q 16.703125 13.921875 20.71875 10.15625 
Q 24.75 6.390625 31.78125 6.390625 
Q 38.8125 6.390625 42.859375 10.171875 
Q 46.921875 13.96875 46.921875 20.515625 
Q 46.921875 27.09375 42.890625 30.859375 
Q 38.875 34.625 31.78125 34.625 
z
M 21.921875 38.8125 
Q 15.578125 40.375 12.03125 44.71875 
Q 8.5 49.078125 8.5 55.328125 
Q 8.5 64.0625 14.71875 69.140625 
Q 20.953125 74.21875 31.78125 74.21875 
Q 42.671875 74.21875 48.875 69.140625 
Q 55.078125 64.0625 55.078125 55.328125 
Q 55.078125 49.078125 51.53125 44.71875 
Q 48 40.375 41.703125 38.8125 
Q 48.828125 37.15625 52.796875 32.3125 
Q 56.78125 27.484375 56.78125 20.515625 
Q 56.78125 9.90625 50.3125 4.234375 
Q 43.84375 -1.421875 31.78125 -1.421875 
Q 19.734375 -1.421875 13.25 4.234375 
Q 6.78125 9.90625 6.78125 20.515625 
Q 6.78125 27.484375 10.78125 32.3125 
Q 14.796875 37.15625 21.921875 38.8125 
z
M 18.3125 54.390625 
Q 18.3125 48.734375 21.84375 45.5625 
Q 25.390625 42.390625 31.78125 42.390625 
Q 38.140625 42.390625 41.71875 45.5625 
Q 45.3125 48.734375 45.3125 54.390625 
Q 45.3125 60.0625 41.71875 63.234375 
Q 38.140625 66.40625 31.78125 66.40625 
Q 25.390625 66.40625 21.84375 63.234375 
Q 18.3125 60.0625 18.3125 54.390625 
z
" id="DejaVuSans-56"/>
      </defs>
      <g transform="translate(260.654561 235.098437)scale(0.1 -0.1)">
       <use xlink:href="#DejaVuSans-48"/>
       <use x="63.623047" xlink:href="#DejaVuSans-46"/>
       <use x="95.410156" xlink:href="#DejaVuSans-56"/>
      </g>
     </g>
    </g>
    <g id="text_6">
     <!-- fractional ratio -->
     <defs>
      <path d="M 37.109375 75.984375 
L 37.109375 68.5 
L 28.515625 68.5 
Q 23.6875 68.5 21.796875 66.546875 
Q 19.921875 64.59375 19.921875 59.515625 
L 19.921875 54.6875 
L 34.71875 54.6875 
L 34.71875 47.703125 
L 19.921875 47.703125 
L 19.921875 0 
L 10.890625 0 
L 10.890625 47.703125 
L 2.296875 47.703125 
L 2.296875 54.6875 
L 10.890625 54.6875 
L 10.890625 58.5 
Q 10.890625 67.625 15.140625 71.796875 
Q 19.390625 75.984375 28.609375 75.984375 
z
" id="DejaVuSans-102"/>
      <path d="M 41.109375 46.296875 
Q 39.59375 47.171875 37.8125 47.578125 
Q 36.03125 48 33.890625 48 
Q 26.265625 48 22.1875 43.046875 
Q 18.109375 38.09375 18.109375 28.8125 
L 18.109375 0 
L 9.078125 0 
L 9.078125 54.6875 
L 18.109375 54.6875 
L 18.109375 46.1875 
Q 20.953125 51.171875 25.484375 53.578125 
Q 30.03125 56 36.53125 56 
Q 37.453125 56 38.578125 55.875 
Q 39.703125 55.765625 41.0625 55.515625 
z
" id="DejaVuSans-114"/>
      <path d="M 34.28125 27.484375 
Q 23.390625 27.484375 19.1875 25 
Q 14.984375 22.515625 14.984375 16.5 
Q 14.984375 11.71875 18.140625 8.90625 
Q 21.296875 6.109375 26.703125 6.109375 
Q 34.1875 6.109375 38.703125 11.40625 
Q 43.21875 16.703125 43.21875 25.484375 
L 43.21875 27.484375 
z
M 52.203125 31.203125 
L 52.203125 0 
L 43.21875 0 
L 43.21875 8.296875 
Q 40.140625 3.328125 35.546875 0.953125 
Q 30.953125 -1.421875 24.3125 -1.421875 
Q 15.921875 -1.421875 10.953125 3.296875 
Q 6 8.015625 6 15.921875 
Q 6 25.140625 12.171875 29.828125 
Q 18.359375 34.515625 30.609375 34.515625 
L 43.21875 34.515625 
L 43.21875 35.40625 
Q 43.21875 41.609375 39.140625 45 
Q 35.0625 48.390625 27.6875 48.390625 
Q 23 48.390625 18.546875 47.265625 
Q 14.109375 46.140625 10.015625 43.890625 
L 10.015625 52.203125 
Q 14.9375 54.109375 19.578125 55.046875 
Q 24.21875 56 28.609375 56 
Q 40.484375 56 46.34375 49.84375 
Q 52.203125 43.703125 52.203125 31.203125 
z
" id="DejaVuSans-97"/>
      <path d="M 48.78125 52.59375 
L 48.78125 44.1875 
Q 44.96875 46.296875 41.140625 47.34375 
Q 37.3125 48.390625 33.40625 48.390625 
Q 24.65625 48.390625 19.8125 42.84375 
Q 14.984375 37.3125 14.984375 27.296875 
Q 14.984375 17.28125 19.8125 11.734375 
Q 24.65625 6.203125 33.40625 6.203125 
Q 37.3125 6.203125 41.140625 7.25 
Q 44.96875 8.296875 48.78125 10.40625 
L 48.78125 2.09375 
Q 45.015625 0.34375 40.984375 -0.53125 
Q 36.96875 -1.421875 32.421875 -1.421875 
Q 20.0625 -1.421875 12.78125 6.34375 
Q 5.515625 14.109375 5.515625 27.296875 
Q 5.515625 40.671875 12.859375 48.328125 
Q 20.21875 56 33.015625 56 
Q 37.15625 56 41.109375 55.140625 
Q 45.0625 54.296875 48.78125 52.59375 
z
" id="DejaVuSans-99"/>
      <path d="M 18.3125 70.21875 
L 18.3125 54.6875 
L 36.8125 54.6875 
L 36.8125 47.703125 
L 18.3125 47.703125 
L 18.3125 18.015625 
Q 18.3125 11.328125 20.140625 9.421875 
Q 21.96875 7.515625 27.59375 7.515625 
L 36.8125 7.515625 
L 36.8125 0 
L 27.59375 0 
Q 17.1875 0 13.234375 3.875 
Q 9.28125 7.765625 9.28125 18.015625 
L 9.28125 47.703125 
L 2.6875 47.703125 
L 2.6875 54.6875 
L 9.28125 54.6875 
L 9.28125 70.21875 
z
" id="DejaVuSans-116"/>
      <path d="M 9.421875 54.6875 
L 18.40625 54.6875 
L 18.40625 0 
L 9.421875 0 
z
M 9.421875 75.984375 
L 18.40625 75.984375 
L 18.40625 64.59375 
L 9.421875 64.59375 
z
" id="DejaVuSans-105"/>
      <path d="M 30.609375 48.390625 
Q 23.390625 48.390625 19.1875 42.75 
Q 14.984375 37.109375 14.984375 27.296875 
Q 14.984375 17.484375 19.15625 11.84375 
Q 23.34375 6.203125 30.609375 6.203125 
Q 37.796875 6.203125 41.984375 11.859375 
Q 46.1875 17.53125 46.1875 27.296875 
Q 46.1875 37.015625 41.984375 42.703125 
Q 37.796875 48.390625 30.609375 48.390625 
z
M 30.609375 56 
Q 42.328125 56 49.015625 48.375 
Q 55.71875 40.765625 55.71875 27.296875 
Q 55.71875 13.875 49.015625 6.21875 
Q 42.328125 -1.421875 30.609375 -1.421875 
Q 18.84375 -1.421875 12.171875 6.21875 
Q 5.515625 13.875 5.515625 27.296875 
Q 5.515625 40.765625 12.171875 48.375 
Q 18.84375 56 30.609375 56 
z
" id="DejaVuSans-111"/>
      <path d="M 54.890625 33.015625 
L 54.890625 0 
L 45.90625 0 
L 45.90625 32.71875 
Q 45.90625 40.484375 42.875 44.328125 
Q 39.84375 48.1875 33.796875 48.1875 
Q 26.515625 48.1875 22.3125 43.546875 
Q 18.109375 38.921875 18.109375 30.90625 
L 18.109375 0 
L 9.078125 0 
L 9.078125 54.6875 
L 18.109375 54.6875 
L 18.109375 46.1875 
Q 21.34375 51.125 25.703125 53.5625 
Q 30.078125 56 35.796875 56 
Q 45.21875 56 50.046875 50.171875 
Q 54.890625 44.34375 54.890625 33.015625 
z
" id="DejaVuSans-110"/>
      <path d="M 9.421875 75.984375 
L 18.40625 75.984375 
L 18.40625 0 
L 9.421875 0 
z
" id="DejaVuSans-108"/>
      <path id="DejaVuSans-32"/>
     </defs>
     <g transform="translate(147.723437 248.776563)scale(0.1 -0.1)">
      <use xlink:href="#DejaVuSans-102"/>
      <use x="35.205078" xlink:href="#DejaVuSans-114"/>
      <use x="76.318359" xlink:href="#DejaVuSans-97"/>
      <use x="137.597656" xlink:href="#DejaVuSans-99"/>
      <use x="192.578125" xlink:href="#DejaVuSans-116"/>
      <use x="231.787109" xlink:href="#DejaVuSans-105"/>
      <use x="259.570312" xlink:href="#DejaVuSans-111"/>
      <use x="320.751953" xlink:href="#DejaVuSans-110"/>
      <use x="384.130859" xlink:href="#DejaVuSans-97"/>
      <use x="445.410156" xlink:href="#DejaVuSans-108"/>
      <use x="473.193359" xlink:href="#DejaVuSans-32"/>
      <use x="504.980469" xlink:href="#DejaVuSans-114"/>
      <use x="546.09375" xlink:href="#DejaVuSans-97"/>
      <use x="607.373047" xlink:href="#DejaVuSans-116"/>
      <use x="646.582031" xlink:href="#DejaVuSans-105"/>
      <use x="674.365234" xlink:href="#DejaVuSans-111"/>
     </g>
    </g>
   </g>
   <g id="matplotlib.axis_2">
    <g id="ytick_1">
     <g id="line2d_6">
      <defs>
       <path d="M 0 0 
L -3.5 0 
" id="m434ba0738c" style="stroke:#000000;stroke-width:0.8;"/>
      </defs>
      <g>
       <use style="stroke:#000000;stroke-width:0.8;" x="45" xlink:href="#m434ba0738c" y="220.5"/>
      </g>
     </g>
     <g id="text_7">
      <!-- 0.00 -->
      <g transform="translate(15.734375 224.299219)scale(0.1 -0.1)">
       <use xlink:href="#DejaVuSans-48"/>
       <use x="63.623047" xlink:href="#DejaVuSans-46"/>
       <use x="95.410156" xlink:href="#DejaVuSans-48"/>
       <use x="159.033203" xlink:href="#DejaVuSans-48"/>
      </g>
     </g>
    </g>
    <g id="ytick_2">
     <g id="line2d_7">
      <g>
       <use style="stroke:#000000;stroke-width:0.8;" x="45" xlink:href="#m434ba0738c" y="198.707319"/>
      </g>
     </g>
     <g id="text_8">
      <!-- 0.01 -->
      <defs>
       <path d="M 12.40625 8.296875 
L 28.515625 8.296875 
L 28.515625 63.921875 
L 10.984375 60.40625 
L 10.984375 69.390625 
L 28.421875 72.90625 
L 38.28125 72.90625 
L 38.28125 8.296875 
L 54.390625 8.296875 
L 54.390625 0 
L 12.40625 0 
z
" id="DejaVuSans-49"/>
      </defs>
      <g transform="translate(15.734375 202.506538)scale(0.1 -0.1)">
       <use xlink:href="#DejaVuSans-48"/>
       <use x="63.623047" xlink:href="#DejaVuSans-46"/>
       <use x="95.410156" xlink:href="#DejaVuSans-48"/>
       <use x="159.033203" xlink:href="#DejaVuSans-49"/>
      </g>
     </g>
    </g>
    <g id="ytick_3">
     <g id="line2d_8">
      <g>
       <use style="stroke:#000000;stroke-width:0.8;" x="45" xlink:href="#m434ba0738c" y="176.914639"/>
      </g>
     </g>
     <g id="text_9">
      <!-- 0.02 -->
      <g transform="translate(15.734375 180.713857)scale(0.1 -0.1)">
       <use xlink:href="#DejaVuSans-48"/>
       <use x="63.623047" xlink:href="#DejaVuSans-46"/>
       <use x="95.410156" xlink:href="#DejaVuSans-48"/>
       <use x="159.033203" xlink:href="#DejaVuSans-50"/>
      </g>
     </g>
    </g>
    <g id="ytick_4">
     <g id="line2d_9">
      <g>
       <use style="stroke:#000000;stroke-width:0.8;" x="45" xlink:href="#m434ba0738c" y="155.121958"/>
      </g>
     </g>
     <g id="text_10">
      <!-- 0.03 -->
      <defs>
       <path d="M 40.578125 39.3125 
Q 47.65625 37.796875 51.625 33 
Q 55.609375 28.21875 55.609375 21.1875 
Q 55.609375 10.40625 48.1875 4.484375 
Q 40.765625 -1.421875 27.09375 -1.421875 
Q 22.515625 -1.421875 17.65625 -0.515625 
Q 12.796875 0.390625 7.625 2.203125 
L 7.625 11.71875 
Q 11.71875 9.328125 16.59375 8.109375 
Q 21.484375 6.890625 26.8125 6.890625 
Q 36.078125 6.890625 40.9375 10.546875 
Q 45.796875 14.203125 45.796875 21.1875 
Q 45.796875 27.640625 41.28125 31.265625 
Q 36.765625 34.90625 28.71875 34.90625 
L 20.21875 34.90625 
L 20.21875 43.015625 
L 29.109375 43.015625 
Q 36.375 43.015625 40.234375 45.921875 
Q 44.09375 48.828125 44.09375 54.296875 
Q 44.09375 59.90625 40.109375 62.90625 
Q 36.140625 65.921875 28.71875 65.921875 
Q 24.65625 65.921875 20.015625 65.03125 
Q 15.375 64.15625 9.8125 62.3125 
L 9.8125 71.09375 
Q 15.4375 72.65625 20.34375 73.4375 
Q 25.25 74.21875 29.59375 74.21875 
Q 40.828125 74.21875 47.359375 69.109375 
Q 53.90625 64.015625 53.90625 55.328125 
Q 53.90625 49.265625 50.4375 45.09375 
Q 46.96875 40.921875 40.578125 39.3125 
z
" id="DejaVuSans-51"/>
      </defs>
      <g transform="translate(15.734375 158.921177)scale(0.1 -0.1)">
       <use xlink:href="#DejaVuSans-48"/>
       <use x="63.623047" xlink:href="#DejaVuSans-46"/>
       <use x="95.410156" xlink:href="#DejaVuSans-48"/>
       <use x="159.033203" xlink:href="#DejaVuSans-51"/>
      </g>
     </g>
    </g>
    <g id="ytick_5">
     <g id="line2d_10">
      <g>
       <use style="stroke:#000000;stroke-width:0.8;" x="45" xlink:href="#m434ba0738c" y="133.329277"/>
      </g>
     </g>
     <g id="text_11">
      <!-- 0.04 -->
      <g transform="translate(15.734375 137.128496)scale(0.1 -0.1)">
       <use xlink:href="#DejaVuSans-48"/>
       <use x="63.623047" xlink:href="#DejaVuSans-46"/>
       <use x="95.410156" xlink:href="#DejaVuSans-48"/>
       <use x="159.033203" xlink:href="#DejaVuSans-52"/>
      </g>
     </g>
    </g>
    <g id="ytick_6">
     <g id="line2d_11">
      <g>
       <use style="stroke:#000000;stroke-width:0.8;" x="45" xlink:href="#m434ba0738c" y="111.536597"/>
      </g>
     </g>
     <g id="text_12">
      <!-- 0.05 -->
      <defs>
       <path d="M 10.796875 72.90625 
L 49.515625 72.90625 
L 49.515625 64.59375 
L 19.828125 64.59375 
L 19.828125 46.734375 
Q 21.96875 47.46875 24.109375 47.828125 
Q 26.265625 48.1875 28.421875 48.1875 
Q 40.625 48.1875 47.75 41.5 
Q 54.890625 34.8125 54.890625 23.390625 
Q 54.890625 11.625 47.5625 5.09375 
Q 40.234375 -1.421875 26.90625 -1.421875 
Q 22.3125 -1.421875 17.546875 -0.640625 
Q 12.796875 0.140625 7.71875 1.703125 
L 7.71875 11.625 
Q 12.109375 9.234375 16.796875 8.0625 
Q 21.484375 6.890625 26.703125 6.890625 
Q 35.15625 6.890625 40.078125 11.328125 
Q 45.015625 15.765625 45.015625 23.390625 
Q 45.015625 31 40.078125 35.4375 
Q 35.15625 39.890625 26.703125 39.890625 
Q 22.75 39.890625 18.8125 39.015625 
Q 14.890625 38.140625 10.796875 36.28125 
z
" id="DejaVuSans-53"/>
      </defs>
      <g transform="translate(15.734375 115.335816)scale(0.1 -0.1)">
       <use xlink:href="#DejaVuSans-48"/>
       <use x="63.623047" xlink:href="#DejaVuSans-46"/>
       <use x="95.410156" xlink:href="#DejaVuSans-48"/>
       <use x="159.033203" xlink:href="#DejaVuSans-53"/>
      </g>
     </g>
    </g>
    <g id="ytick_7">
     <g id="line2d_12">
      <g>
       <use style="stroke:#000000;stroke-width:0.8;" x="45" xlink:href="#m434ba0738c" y="89.743916"/>
      </g>
     </g>
     <g id="text_13">
      <!-- 0.06 -->
      <g transform="translate(15.734375 93.543135)scale(0.1 -0.1)">
       <use xlink:href="#DejaVuSans-48"/>
       <use x="63.623047" xlink:href="#DejaVuSans-46"/>
       <use x="95.410156" xlink:href="#DejaVuSans-48"/>
       <use x="159.033203" xlink:href="#DejaVuSans-54"/>
      </g>
     </g>
    </g>
    <g id="ytick_8">
     <g id="line2d_13">
      <g>
       <use style="stroke:#000000;stroke-width:0.8;" x="45" xlink:href="#m434ba0738c" y="67.951235"/>
      </g>
     </g>
     <g id="text_14">
      <!-- 0.07 -->
      <defs>
       <path d="M 8.203125 72.90625 
L 55.078125 72.90625 
L 55.078125 68.703125 
L 28.609375 0 
L 18.3125 0 
L 43.21875 64.59375 
L 8.203125 64.59375 
z
" id="DejaVuSans-55"/>
      </defs>
      <g transform="translate(15.734375 71.750454)scale(0.1 -0.1)">
       <use xlink:href="#DejaVuSans-48"/>
       <use x="63.623047" xlink:href="#DejaVuSans-46"/>
       <use x="95.410156" xlink:href="#DejaVuSans-48"/>
       <use x="159.033203" xlink:href="#DejaVuSans-55"/>
      </g>
     </g>
    </g>
    <g id="ytick_9">
     <g id="line2d_14">
      <g>
       <use style="stroke:#000000;stroke-width:0.8;" x="45" xlink:href="#m434ba0738c" y="46.158555"/>
      </g>
     </g>
     <g id="text_15">
      <!-- 0.08 -->
      <g transform="translate(15.734375 49.957774)scale(0.1 -0.1)">
       <use xlink:href="#DejaVuSans-48"/>
       <use x="63.623047" xlink:href="#DejaVuSans-46"/>
       <use x="95.410156" xlink:href="#DejaVuSans-48"/>
       <use x="159.033203" xlink:href="#DejaVuSans-56"/>
      </g>
     </g>
    </g>
    <g id="text_16">
     <!-- fractional importance -->
     <defs>
      <path d="M 52 44.1875 
Q 55.375 50.25 60.0625 53.125 
Q 64.75 56 71.09375 56 
Q 79.640625 56 84.28125 50.015625 
Q 88.921875 44.046875 88.921875 33.015625 
L 88.921875 0 
L 79.890625 0 
L 79.890625 32.71875 
Q 79.890625 40.578125 77.09375 44.375 
Q 74.3125 48.1875 68.609375 48.1875 
Q 61.625 48.1875 57.5625 43.546875 
Q 53.515625 38.921875 53.515625 30.90625 
L 53.515625 0 
L 44.484375 0 
L 44.484375 32.71875 
Q 44.484375 40.625 41.703125 44.40625 
Q 38.921875 48.1875 33.109375 48.1875 
Q 26.21875 48.1875 22.15625 43.53125 
Q 18.109375 38.875 18.109375 30.90625 
L 18.109375 0 
L 9.078125 0 
L 9.078125 54.6875 
L 18.109375 54.6875 
L 18.109375 46.1875 
Q 21.1875 51.21875 25.484375 53.609375 
Q 29.78125 56 35.6875 56 
Q 41.65625 56 45.828125 52.96875 
Q 50 49.953125 52 44.1875 
z
" id="DejaVuSans-109"/>
      <path d="M 18.109375 8.203125 
L 18.109375 -20.796875 
L 9.078125 -20.796875 
L 9.078125 54.6875 
L 18.109375 54.6875 
L 18.109375 46.390625 
Q 20.953125 51.265625 25.265625 53.625 
Q 29.59375 56 35.59375 56 
Q 45.5625 56 51.78125 48.09375 
Q 58.015625 40.1875 58.015625 27.296875 
Q 58.015625 14.40625 51.78125 6.484375 
Q 45.5625 -1.421875 35.59375 -1.421875 
Q 29.59375 -1.421875 25.265625 0.953125 
Q 20.953125 3.328125 18.109375 8.203125 
z
M 48.6875 27.296875 
Q 48.6875 37.203125 44.609375 42.84375 
Q 40.53125 48.484375 33.40625 48.484375 
Q 26.265625 48.484375 22.1875 42.84375 
Q 18.109375 37.203125 18.109375 27.296875 
Q 18.109375 17.390625 22.1875 11.75 
Q 26.265625 6.109375 33.40625 6.109375 
Q 40.53125 6.109375 44.609375 11.75 
Q 48.6875 17.390625 48.6875 27.296875 
z
" id="DejaVuSans-112"/>
      <path d="M 56.203125 29.59375 
L 56.203125 25.203125 
L 14.890625 25.203125 
Q 15.484375 15.921875 20.484375 11.0625 
Q 25.484375 6.203125 34.421875 6.203125 
Q 39.59375 6.203125 44.453125 7.46875 
Q 49.3125 8.734375 54.109375 11.28125 
L 54.109375 2.78125 
Q 49.265625 0.734375 44.1875 -0.34375 
Q 39.109375 -1.421875 33.890625 -1.421875 
Q 20.796875 -1.421875 13.15625 6.1875 
Q 5.515625 13.8125 5.515625 26.8125 
Q 5.515625 40.234375 12.765625 48.109375 
Q 20.015625 56 32.328125 56 
Q 43.359375 56 49.78125 48.890625 
Q 56.203125 41.796875 56.203125 29.59375 
z
M 47.21875 32.234375 
Q 47.125 39.59375 43.09375 43.984375 
Q 39.0625 48.390625 32.421875 48.390625 
Q 24.90625 48.390625 20.390625 44.140625 
Q 15.875 39.890625 15.1875 32.171875 
z
" id="DejaVuSans-101"/>
     </defs>
     <g transform="translate(9.654687 179.185625)rotate(-90)scale(0.1 -0.1)">
      <use xlink:href="#DejaVuSans-102"/>
      <use x="35.205078" xlink:href="#DejaVuSans-114"/>
      <use x="76.318359" xlink:href="#DejaVuSans-97"/>
      <use x="137.597656" xlink:href="#DejaVuSans-99"/>
      <use x="192.578125" xlink:href="#DejaVuSans-116"/>
      <use x="231.787109" xlink:href="#DejaVuSans-105"/>
      <use x="259.570312" xlink:href="#DejaVuSans-111"/>
      <use x="320.751953" xlink:href="#DejaVuSans-110"/>
      <use x="384.130859" xlink:href="#DejaVuSans-97"/>
      <use x="445.410156" xlink:href="#DejaVuSans-108"/>
      <use x="473.193359" xlink:href="#DejaVuSans-32"/>
      <use x="504.980469" xlink:href="#DejaVuSans-105"/>
      <use x="532.763672" xlink:href="#DejaVuSans-109"/>
      <use x="630.175781" xlink:href="#DejaVuSans-112"/>
      <use x="693.652344" xlink:href="#DejaVuSans-111"/>
      <use x="754.833984" xlink:href="#DejaVuSans-114"/>
      <use x="795.947266" xlink:href="#DejaVuSans-116"/>
      <use x="835.15625" xlink:href="#DejaVuSans-97"/>
      <use x="896.435547" xlink:href="#DejaVuSans-110"/>
      <use x="959.814453" xlink:href="#DejaVuSans-99"/>
      <use x="1014.794922" xlink:href="#DejaVuSans-101"/>
     </g>
    </g>
   </g>
   <g id="patch_3">
    <path d="M 45 220.5 
L 45 30.24 
" style="fill:none;stroke:#000000;stroke-linecap:square;stroke-linejoin:miter;stroke-width:0.8;"/>
   </g>
   <g id="patch_4">
    <path d="M 324 220.5 
L 324 30.24 
" style="fill:none;stroke:#000000;stroke-linecap:square;stroke-linejoin:miter;stroke-width:0.8;"/>
   </g>
   <g id="patch_5">
    <path d="M 45 220.5 
L 324 220.5 
" style="fill:none;stroke:#000000;stroke-linecap:square;stroke-linejoin:miter;stroke-width:0.8;"/>
   </g>
   <g id="patch_6">
    <path d="M 45 30.24 
L 324 30.24 
" style="fill:none;stroke:#000000;stroke-linecap:square;stroke-linejoin:miter;stroke-width:0.8;"/>
   </g>
   <g id="text_17">
    <!-- Flavobacterium johnsoniae -->
    <defs>
     <path d="M 9.8125 72.90625 
L 51.703125 72.90625 
L 51.703125 64.59375 
L 19.671875 64.59375 
L 19.671875 43.109375 
L 48.578125 43.109375 
L 48.578125 34.8125 
L 19.671875 34.8125 
L 19.671875 0 
L 9.8125 0 
z
" id="DejaVuSans-70"/>
     <path d="M 2.984375 54.6875 
L 12.5 54.6875 
L 29.59375 8.796875 
L 46.6875 54.6875 
L 56.203125 54.6875 
L 35.6875 0 
L 23.484375 0 
z
" id="DejaVuSans-118"/>
     <path d="M 48.6875 27.296875 
Q 48.6875 37.203125 44.609375 42.84375 
Q 40.53125 48.484375 33.40625 48.484375 
Q 26.265625 48.484375 22.1875 42.84375 
Q 18.109375 37.203125 18.109375 27.296875 
Q 18.109375 17.390625 22.1875 11.75 
Q 26.265625 6.109375 33.40625 6.109375 
Q 40.53125 6.109375 44.609375 11.75 
Q 48.6875 17.390625 48.6875 27.296875 
z
M 18.109375 46.390625 
Q 20.953125 51.265625 25.265625 53.625 
Q 29.59375 56 35.59375 56 
Q 45.5625 56 51.78125 48.09375 
Q 58.015625 40.1875 58.015625 27.296875 
Q 58.015625 14.40625 51.78125 6.484375 
Q 45.5625 -1.421875 35.59375 -1.421875 
Q 29.59375 -1.421875 25.265625 0.953125 
Q 20.953125 3.328125 18.109375 8.203125 
L 18.109375 0 
L 9.078125 0 
L 9.078125 75.984375 
L 18.109375 75.984375 
z
" id="DejaVuSans-98"/>
     <path d="M 8.5 21.578125 
L 8.5 54.6875 
L 17.484375 54.6875 
L 17.484375 21.921875 
Q 17.484375 14.15625 20.5 10.265625 
Q 23.53125 6.390625 29.59375 6.390625 
Q 36.859375 6.390625 41.078125 11.03125 
Q 45.3125 15.671875 45.3125 23.6875 
L 45.3125 54.6875 
L 54.296875 54.6875 
L 54.296875 0 
L 45.3125 0 
L 45.3125 8.40625 
Q 42.046875 3.421875 37.71875 1 
Q 33.40625 -1.421875 27.6875 -1.421875 
Q 18.265625 -1.421875 13.375 4.4375 
Q 8.5 10.296875 8.5 21.578125 
z
M 31.109375 56 
z
" id="DejaVuSans-117"/>
     <path d="M 9.421875 54.6875 
L 18.40625 54.6875 
L 18.40625 -0.984375 
Q 18.40625 -11.421875 14.421875 -16.109375 
Q 10.453125 -20.796875 1.609375 -20.796875 
L -1.8125 -20.796875 
L -1.8125 -13.1875 
L 0.59375 -13.1875 
Q 5.71875 -13.1875 7.5625 -10.8125 
Q 9.421875 -8.453125 9.421875 -0.984375 
z
M 9.421875 75.984375 
L 18.40625 75.984375 
L 18.40625 64.59375 
L 9.421875 64.59375 
z
" id="DejaVuSans-106"/>
     <path d="M 54.890625 33.015625 
L 54.890625 0 
L 45.90625 0 
L 45.90625 32.71875 
Q 45.90625 40.484375 42.875 44.328125 
Q 39.84375 48.1875 33.796875 48.1875 
Q 26.515625 48.1875 22.3125 43.546875 
Q 18.109375 38.921875 18.109375 30.90625 
L 18.109375 0 
L 9.078125 0 
L 9.078125 75.984375 
L 18.109375 75.984375 
L 18.109375 46.1875 
Q 21.34375 51.125 25.703125 53.5625 
Q 30.078125 56 35.796875 56 
Q 45.21875 56 50.046875 50.171875 
Q 54.890625 44.34375 54.890625 33.015625 
z
" id="DejaVuSans-104"/>
     <path d="M 44.28125 53.078125 
L 44.28125 44.578125 
Q 40.484375 46.53125 36.375 47.5 
Q 32.28125 48.484375 27.875 48.484375 
Q 21.1875 48.484375 17.84375 46.4375 
Q 14.5 44.390625 14.5 40.28125 
Q 14.5 37.15625 16.890625 35.375 
Q 19.28125 33.59375 26.515625 31.984375 
L 29.59375 31.296875 
Q 39.15625 29.25 43.1875 25.515625 
Q 47.21875 21.78125 47.21875 15.09375 
Q 47.21875 7.46875 41.1875 3.015625 
Q 35.15625 -1.421875 24.609375 -1.421875 
Q 20.21875 -1.421875 15.453125 -0.5625 
Q 10.6875 0.296875 5.421875 2 
L 5.421875 11.28125 
Q 10.40625 8.6875 15.234375 7.390625 
Q 20.0625 6.109375 24.8125 6.109375 
Q 31.15625 6.109375 34.5625 8.28125 
Q 37.984375 10.453125 37.984375 14.40625 
Q 37.984375 18.0625 35.515625 20.015625 
Q 33.0625 21.96875 24.703125 23.78125 
L 21.578125 24.515625 
Q 13.234375 26.265625 9.515625 29.90625 
Q 5.8125 33.546875 5.8125 39.890625 
Q 5.8125 47.609375 11.28125 51.796875 
Q 16.75 56 26.8125 56 
Q 31.78125 56 36.171875 55.265625 
Q 40.578125 54.546875 44.28125 53.078125 
z
" id="DejaVuSans-115"/>
    </defs>
    <g transform="translate(103.388438 24.24)scale(0.12 -0.12)">
     <use xlink:href="#DejaVuSans-70"/>
     <use x="57.519531" xlink:href="#DejaVuSans-108"/>
     <use x="85.302734" xlink:href="#DejaVuSans-97"/>
     <use x="146.582031" xlink:href="#DejaVuSans-118"/>
     <use x="205.761719" xlink:href="#DejaVuSans-111"/>
     <use x="266.943359" xlink:href="#DejaVuSans-98"/>
     <use x="330.419922" xlink:href="#DejaVuSans-97"/>
     <use x="391.699219" xlink:href="#DejaVuSans-99"/>
     <use x="446.679688" xlink:href="#DejaVuSans-116"/>
     <use x="485.888672" xlink:href="#DejaVuSans-101"/>
     <use x="547.412109" xlink:href="#DejaVuSans-114"/>
     <use x="588.525391" xlink:href="#DejaVuSans-105"/>
     <use x="616.308594" xlink:href="#DejaVuSans-117"/>
     <use x="679.6875" xlink:href="#DejaVuSans-109"/>
     <use x="777.099609" xlink:href="#DejaVuSans-32"/>
     <use x="808.886719" xlink:href="#DejaVuSans-106"/>
     <use x="836.669922" xlink:href="#DejaVuSans-111"/>
     <use x="897.851562" xlink:href="#DejaVuSans-104"/>
     <use x="961.230469" xlink:href="#DejaVuSans-110"/>
     <use x="1024.609375" xlink:href="#DejaVuSans-115"/>
     <use x="1076.708984" xlink:href="#DejaVuSans-111"/>
     <use x="1137.890625" xlink:href="#DejaVuSans-110"/>
     <use x="1201.269531" xlink:href="#DejaVuSans-105"/>
     <use x="1229.052734" xlink:href="#DejaVuSans-97"/>
     <use x="1290.332031" xlink:href="#DejaVuSans-101"/>
    </g>
   </g>
  </g>
 </g>
 <defs>
  <clipPath id="p519d4e92e2">
   <rect height="190.26" width="279" x="45" y="30.24"/>
  </clipPath>
 </defs>
</svg>
