<?xml version="1.0" encoding="utf-8" standalone="no"?>
<!DOCTYPE svg PUBLIC "-//W3C//DTD SVG 1.1//EN"
  "http://www.w3.org/Graphics/SVG/1.1/DTD/svg11.dtd">
<!-- Created with matplotlib (https://matplotlib.org/) -->
<svg height="252pt" version="1.1" viewBox="0 0 360 252" width="360pt" xmlns="http://www.w3.org/2000/svg" xmlns:xlink="http://www.w3.org/1999/xlink">
 <defs>
  <style type="text/css">
*{stroke-linecap:butt;stroke-linejoin:round;}
  </style>
 </defs>
 <g id="figure_1">
  <g id="patch_1">
   <path d="M 0 252 
L 360 252 
L 360 0 
L 0 0 
z
" style="fill:#ffffff;"/>
  </g>
  <g id="axes_1">
   <g id="patch_2">
    <path d="M 58.506819 202.2 
L 342.8875 202.2 
L 342.8875 46.371875 
L 58.506819 46.371875 
z
" style="fill:#ffffff;"/>
   </g>
   <g id="patch_3">
    <path clip-path="url(#p0672c952d6)" d="M 71.433213 59144.275121 
L 76.603771 59144.275121 
L 76.603771 53.454972 
L 71.433213 53.454972 
z
" style="opacity:0.5;"/>
   </g>
   <g id="patch_4">
    <path clip-path="url(#p0672c952d6)" d="M 76.603771 59144.275121 
L 81.774329 59144.275121 
L 81.774329 72.765157 
L 76.603771 72.765157 
z
" style="opacity:0.5;"/>
   </g>
   <g id="patch_5">
    <path clip-path="url(#p0672c952d6)" d="M 81.774329 59144.275121 
L 86.944887 59144.275121 
L 86.944887 87.471331 
L 81.774329 87.471331 
z
" style="opacity:0.5;"/>
   </g>
   <g id="patch_6">
    <path clip-path="url(#p0672c952d6)" d="M 86.944887 59144.275121 
L 92.115445 59144.275121 
L 92.115445 90.726668 
L 86.944887 90.726668 
z
" style="opacity:0.5;"/>
   </g>
   <g id="patch_7">
    <path clip-path="url(#p0672c952d6)" d="M 92.115445 59144.275121 
L 97.286003 59144.275121 
L 97.286003 90.726668 
L 92.115445 90.726668 
z
" style="opacity:0.5;"/>
   </g>
   <g id="patch_8">
    <path clip-path="url(#p0672c952d6)" d="M 97.286003 59144.275121 
L 102.45656 59144.275121 
L 102.45656 93.472292 
L 97.286003 93.472292 
z
" style="opacity:0.5;"/>
   </g>
   <g id="patch_9">
    <path clip-path="url(#p0672c952d6)" d="M 102.45656 59144.275121 
L 107.627118 59144.275121 
L 107.627118 117.173189 
L 102.45656 117.173189 
z
" style="opacity:0.5;"/>
   </g>
   <g id="patch_10">
    <path clip-path="url(#p0672c952d6)" d="M 107.627118 59144.275121 
L 112.797676 59144.275121 
L 112.797676 108.909772 
L 107.627118 108.909772 
z
" style="opacity:0.5;"/>
   </g>
   <g id="patch_11">
    <path clip-path="url(#p0672c952d6)" d="M 112.797676 59144.275121 
L 117.968234 59144.275121 
L 117.968234 195.116903 
L 112.797676 195.116903 
z
" style="opacity:0.5;"/>
   </g>
   <g id="patch_12">
    <path clip-path="url(#p0672c952d6)" d="M 117.968234 59144.275121 
L 123.138792 59144.275121 
L 123.138792 138.865111 
L 117.968234 138.865111 
z
" style="opacity:0.5;"/>
   </g>
   <g id="patch_13">
    <path clip-path="url(#p0672c952d6)" d="M 123.138792 59144.275121 
L 128.30935 59144.275121 
L 128.30935 149.245542 
L 123.138792 149.245542 
z
" style="opacity:0.5;"/>
   </g>
   <g id="patch_14">
    <path clip-path="url(#p0672c952d6)" d="M 128.30935 59144.275121 
L 133.479907 59144.275121 
L 133.479907 131.500077 
L 128.30935 131.500077 
z
" style="opacity:0.5;"/>
   </g>
   <g id="patch_15">
    <path clip-path="url(#p0672c952d6)" d="M 133.479907 59144.275121 
L 138.650465 59144.275121 
L 138.650465 129.45088 
L 133.479907 129.45088 
z
" style="opacity:0.5;"/>
   </g>
   <g id="patch_16">
    <path clip-path="url(#p0672c952d6)" d="M 138.650465 59144.275121 
L 143.821023 59144.275121 
L 143.821023 145.299085 
L 138.650465 145.299085 
z
" style="opacity:0.5;"/>
   </g>
   <g id="patch_17">
    <path clip-path="url(#p0672c952d6)" d="M 143.821023 59144.275121 
L 148.991581 59144.275121 
L 148.991581 166.991007 
L 143.821023 166.991007 
z
" style="opacity:0.5;"/>
   </g>
   <g id="patch_18">
    <path clip-path="url(#p0672c952d6)" d="M 148.991581 59144.275121 
L 154.162139 59144.275121 
L 154.162139 195.116903 
L 148.991581 195.116903 
z
" style="opacity:0.5;"/>
   </g>
   <g id="patch_19">
    <path clip-path="url(#p0672c952d6)" d="M 154.162139 59144.275121 
L 159.332697 59144.275121 
L 159.332697 195.116903 
L 154.162139 195.116903 
z
" style="opacity:0.5;"/>
   </g>
   <g id="patch_20">
    <path clip-path="url(#p0672c952d6)" d="M 159.332697 59144.275121 
L 164.503254 59144.275121 
L 164.503254 195.116903 
L 159.332697 195.116903 
z
" style="opacity:0.5;"/>
   </g>
   <g id="patch_21">
    <path clip-path="url(#p0672c952d6)" d="M 164.503254 59144.275121 
L 169.673812 59144.275121 
L 169.673812 177.371439 
L 164.503254 177.371439 
z
" style="opacity:0.5;"/>
   </g>
   <g id="patch_22">
    <path clip-path="url(#p0672c952d6)" d="M 169.673812 59144.275121 
L 174.84437 59144.275121 
L 174.84437 166.991007 
L 169.673812 166.991007 
z
" style="opacity:0.5;"/>
   </g>
   <g id="patch_23">
    <path clip-path="url(#p0672c952d6)" d="M 174.84437 59144.275121 
L 180.014928 59144.275121 
L 180.014928 166.991007 
L 174.84437 166.991007 
z
" style="opacity:0.5;"/>
   </g>
   <g id="patch_24">
    <path clip-path="url(#p0672c952d6)" d="M 180.014928 59144.275121 
L 185.185486 59144.275121 
L 185.185486 166.991007 
L 180.014928 166.991007 
z
" style="opacity:0.5;"/>
   </g>
   <g id="patch_25">
    <path clip-path="url(#p0672c952d6)" d="M 185.185486 59144.275121 
L 190.356044 59144.275121 
L 190.356044 177.371439 
L 185.185486 177.371439 
z
" style="opacity:0.5;"/>
   </g>
   <g id="patch_26">
    <path clip-path="url(#p0672c952d6)" d="M 190.356044 59144.275121 
L 195.526602 59144.275121 
L 195.526602 59144.275121 
L 190.356044 59144.275121 
z
" style="opacity:0.5;"/>
   </g>
   <g id="patch_27">
    <path clip-path="url(#p0672c952d6)" d="M 195.526602 59144.275121 
L 200.697159 59144.275121 
L 200.697159 177.371439 
L 195.526602 177.371439 
z
" style="opacity:0.5;"/>
   </g>
   <g id="patch_28">
    <path clip-path="url(#p0672c952d6)" d="M 200.697159 59144.275121 
L 205.867717 59144.275121 
L 205.867717 59144.275121 
L 200.697159 59144.275121 
z
" style="opacity:0.5;"/>
   </g>
   <g id="patch_29">
    <path clip-path="url(#p0672c952d6)" d="M 205.867717 59144.275121 
L 211.038275 59144.275121 
L 211.038275 59144.275121 
L 205.867717 59144.275121 
z
" style="opacity:0.5;"/>
   </g>
   <g id="patch_30">
    <path clip-path="url(#p0672c952d6)" d="M 211.038275 59144.275121 
L 216.208833 59144.275121 
L 216.208833 166.991007 
L 211.038275 166.991007 
z
" style="opacity:0.5;"/>
   </g>
   <g id="patch_31">
    <path clip-path="url(#p0672c952d6)" d="M 216.208833 59144.275121 
L 221.379391 59144.275121 
L 221.379391 177.371439 
L 216.208833 177.371439 
z
" style="opacity:0.5;"/>
   </g>
   <g id="patch_32">
    <path clip-path="url(#p0672c952d6)" d="M 221.379391 59144.275121 
L 226.549949 59144.275121 
L 226.549949 59144.275121 
L 221.379391 59144.275121 
z
" style="opacity:0.5;"/>
   </g>
   <g id="patch_33">
    <path clip-path="url(#p0672c952d6)" d="M 226.549949 59144.275121 
L 231.720506 59144.275121 
L 231.720506 59144.275121 
L 226.549949 59144.275121 
z
" style="opacity:0.5;"/>
   </g>
   <g id="patch_34">
    <path clip-path="url(#p0672c952d6)" d="M 231.720506 59144.275121 
L 236.891064 59144.275121 
L 236.891064 59144.275121 
L 231.720506 59144.275121 
z
" style="opacity:0.5;"/>
   </g>
   <g id="patch_35">
    <path clip-path="url(#p0672c952d6)" d="M 236.891064 59144.275121 
L 242.061622 59144.275121 
L 242.061622 195.116903 
L 236.891064 195.116903 
z
" style="opacity:0.5;"/>
   </g>
   <g id="patch_36">
    <path clip-path="url(#p0672c952d6)" d="M 242.061622 59144.275121 
L 247.23218 59144.275121 
L 247.23218 59144.275121 
L 242.061622 59144.275121 
z
" style="opacity:0.5;"/>
   </g>
   <g id="patch_37">
    <path clip-path="url(#p0672c952d6)" d="M 247.23218 59144.275121 
L 252.402738 59144.275121 
L 252.402738 59144.275121 
L 247.23218 59144.275121 
z
" style="opacity:0.5;"/>
   </g>
   <g id="patch_38">
    <path clip-path="url(#p0672c952d6)" d="M 252.402738 59144.275121 
L 257.573296 59144.275121 
L 257.573296 59144.275121 
L 252.402738 59144.275121 
z
" style="opacity:0.5;"/>
   </g>
   <g id="patch_39">
    <path clip-path="url(#p0672c952d6)" d="M 257.573296 59144.275121 
L 262.743853 59144.275121 
L 262.743853 59144.275121 
L 257.573296 59144.275121 
z
" style="opacity:0.5;"/>
   </g>
   <g id="patch_40">
    <path clip-path="url(#p0672c952d6)" d="M 262.743853 59144.275121 
L 267.914411 59144.275121 
L 267.914411 195.116903 
L 262.743853 195.116903 
z
" style="opacity:0.5;"/>
   </g>
   <g id="patch_41">
    <path clip-path="url(#p0672c952d6)" d="M 267.914411 59144.275121 
L 273.084969 59144.275121 
L 273.084969 59144.275121 
L 267.914411 59144.275121 
z
" style="opacity:0.5;"/>
   </g>
   <g id="patch_42">
    <path clip-path="url(#p0672c952d6)" d="M 273.084969 59144.275121 
L 278.255527 59144.275121 
L 278.255527 59144.275121 
L 273.084969 59144.275121 
z
" style="opacity:0.5;"/>
   </g>
   <g id="patch_43">
    <path clip-path="url(#p0672c952d6)" d="M 278.255527 59144.275121 
L 283.426085 59144.275121 
L 283.426085 59144.275121 
L 278.255527 59144.275121 
z
" style="opacity:0.5;"/>
   </g>
   <g id="patch_44">
    <path clip-path="url(#p0672c952d6)" d="M 283.426085 59144.275121 
L 288.596643 59144.275121 
L 288.596643 59144.275121 
L 283.426085 59144.275121 
z
" style="opacity:0.5;"/>
   </g>
   <g id="patch_45">
    <path clip-path="url(#p0672c952d6)" d="M 288.596643 59144.275121 
L 293.767201 59144.275121 
L 293.767201 59144.275121 
L 288.596643 59144.275121 
z
" style="opacity:0.5;"/>
   </g>
   <g id="patch_46">
    <path clip-path="url(#p0672c952d6)" d="M 293.767201 59144.275121 
L 298.937758 59144.275121 
L 298.937758 59144.275121 
L 293.767201 59144.275121 
z
" style="opacity:0.5;"/>
   </g>
   <g id="patch_47">
    <path clip-path="url(#p0672c952d6)" d="M 298.937758 59144.275121 
L 304.108316 59144.275121 
L 304.108316 59144.275121 
L 298.937758 59144.275121 
z
" style="opacity:0.5;"/>
   </g>
   <g id="patch_48">
    <path clip-path="url(#p0672c952d6)" d="M 304.108316 59144.275121 
L 309.278874 59144.275121 
L 309.278874 59144.275121 
L 304.108316 59144.275121 
z
" style="opacity:0.5;"/>
   </g>
   <g id="patch_49">
    <path clip-path="url(#p0672c952d6)" d="M 309.278874 59144.275121 
L 314.449432 59144.275121 
L 314.449432 59144.275121 
L 309.278874 59144.275121 
z
" style="opacity:0.5;"/>
   </g>
   <g id="patch_50">
    <path clip-path="url(#p0672c952d6)" d="M 314.449432 59144.275121 
L 319.61999 59144.275121 
L 319.61999 59144.275121 
L 314.449432 59144.275121 
z
" style="opacity:0.5;"/>
   </g>
   <g id="patch_51">
    <path clip-path="url(#p0672c952d6)" d="M 319.61999 59144.275121 
L 324.790548 59144.275121 
L 324.790548 59144.275121 
L 319.61999 59144.275121 
z
" style="opacity:0.5;"/>
   </g>
   <g id="patch_52">
    <path clip-path="url(#p0672c952d6)" d="M 324.790548 59144.275121 
L 329.961105 59144.275121 
L 329.961105 177.371439 
L 324.790548 177.371439 
z
" style="opacity:0.5;"/>
   </g>
   <g id="matplotlib.axis_1">
    <g id="xtick_1">
     <g id="line2d_1">
      <defs>
       <path d="M 0 0 
L 0 3.5 
" id="m5c784fb24a" style="stroke:#000000;stroke-width:0.8;"/>
      </defs>
      <g>
       <use style="stroke:#000000;stroke-width:0.8;" x="71.432559" xlink:href="#m5c784fb24a" y="202.2"/>
      </g>
     </g>
     <g id="text_1">
      <!-- 0.00 -->
      <defs>
       <path d="M 4.15625 35.296875 
Q 4.15625 48 6.765625 55.734375 
Q 9.375 63.484375 14.515625 67.671875 
Q 19.671875 71.875 27.484375 71.875 
Q 33.25 71.875 37.59375 69.546875 
Q 41.9375 67.234375 44.765625 62.859375 
Q 47.609375 58.5 49.21875 52.21875 
Q 50.828125 45.953125 50.828125 35.296875 
Q 50.828125 22.703125 48.234375 14.96875 
Q 45.65625 7.234375 40.5 3 
Q 35.359375 -1.21875 27.484375 -1.21875 
Q 17.140625 -1.21875 11.234375 6.203125 
Q 4.15625 15.140625 4.15625 35.296875 
z
M 13.1875 35.296875 
Q 13.1875 17.671875 17.3125 11.828125 
Q 21.4375 6 27.484375 6 
Q 33.546875 6 37.671875 11.859375 
Q 41.796875 17.71875 41.796875 35.296875 
Q 41.796875 52.984375 37.671875 58.78125 
Q 33.546875 64.59375 27.390625 64.59375 
Q 21.34375 64.59375 17.71875 59.46875 
Q 13.1875 52.9375 13.1875 35.296875 
z
" id="ArialMT-48"/>
       <path d="M 9.078125 0 
L 9.078125 10.015625 
L 19.09375 10.015625 
L 19.09375 0 
z
" id="ArialMT-46"/>
      </defs>
      <g transform="translate(57.809903 219.220938)scale(0.14 -0.14)">
       <use xlink:href="#ArialMT-48"/>
       <use x="55.615234" xlink:href="#ArialMT-46"/>
       <use x="83.398438" xlink:href="#ArialMT-48"/>
       <use x="139.013672" xlink:href="#ArialMT-48"/>
      </g>
     </g>
    </g>
    <g id="xtick_2">
     <g id="line2d_2">
      <g>
       <use style="stroke:#000000;stroke-width:0.8;" x="136.289718" xlink:href="#m5c784fb24a" y="202.2"/>
      </g>
     </g>
     <g id="text_2">
      <!-- 0.02 -->
      <defs>
       <path d="M 50.34375 8.453125 
L 50.34375 0 
L 3.03125 0 
Q 2.9375 3.171875 4.046875 6.109375 
Q 5.859375 10.9375 9.828125 15.625 
Q 13.8125 20.3125 21.34375 26.46875 
Q 33.015625 36.03125 37.109375 41.625 
Q 41.21875 47.21875 41.21875 52.203125 
Q 41.21875 57.421875 37.46875 61 
Q 33.734375 64.59375 27.734375 64.59375 
Q 21.390625 64.59375 17.578125 60.78125 
Q 13.765625 56.984375 13.71875 50.25 
L 4.6875 51.171875 
Q 5.609375 61.28125 11.65625 66.578125 
Q 17.71875 71.875 27.9375 71.875 
Q 38.234375 71.875 44.234375 66.15625 
Q 50.25 60.453125 50.25 52 
Q 50.25 47.703125 48.484375 43.546875 
Q 46.734375 39.40625 42.65625 34.8125 
Q 38.578125 30.21875 29.109375 22.21875 
Q 21.1875 15.578125 18.9375 13.203125 
Q 16.703125 10.84375 15.234375 8.453125 
z
" id="ArialMT-50"/>
      </defs>
      <g transform="translate(122.667062 219.220938)scale(0.14 -0.14)">
       <use xlink:href="#ArialMT-48"/>
       <use x="55.615234" xlink:href="#ArialMT-46"/>
       <use x="83.398438" xlink:href="#ArialMT-48"/>
       <use x="139.013672" xlink:href="#ArialMT-50"/>
      </g>
     </g>
    </g>
    <g id="xtick_3">
     <g id="line2d_3">
      <g>
       <use style="stroke:#000000;stroke-width:0.8;" x="201.146878" xlink:href="#m5c784fb24a" y="202.2"/>
      </g>
     </g>
     <g id="text_3">
      <!-- 0.04 -->
      <defs>
       <path d="M 32.328125 0 
L 32.328125 17.140625 
L 1.265625 17.140625 
L 1.265625 25.203125 
L 33.9375 71.578125 
L 41.109375 71.578125 
L 41.109375 25.203125 
L 50.78125 25.203125 
L 50.78125 17.140625 
L 41.109375 17.140625 
L 41.109375 0 
z
M 32.328125 25.203125 
L 32.328125 57.46875 
L 9.90625 25.203125 
z
" id="ArialMT-52"/>
      </defs>
      <g transform="translate(187.524221 219.220938)scale(0.14 -0.14)">
       <use xlink:href="#ArialMT-48"/>
       <use x="55.615234" xlink:href="#ArialMT-46"/>
       <use x="83.398438" xlink:href="#ArialMT-48"/>
       <use x="139.013672" xlink:href="#ArialMT-52"/>
      </g>
     </g>
    </g>
    <g id="xtick_4">
     <g id="line2d_4">
      <g>
       <use style="stroke:#000000;stroke-width:0.8;" x="266.004037" xlink:href="#m5c784fb24a" y="202.2"/>
      </g>
     </g>
     <g id="text_4">
      <!-- 0.06 -->
      <defs>
       <path d="M 49.75 54.046875 
L 41.015625 53.375 
Q 39.84375 58.546875 37.703125 60.890625 
Q 34.125 64.65625 28.90625 64.65625 
Q 24.703125 64.65625 21.53125 62.3125 
Q 17.390625 59.28125 14.984375 53.46875 
Q 12.59375 47.65625 12.5 36.921875 
Q 15.671875 41.75 20.265625 44.09375 
Q 24.859375 46.4375 29.890625 46.4375 
Q 38.671875 46.4375 44.84375 39.96875 
Q 51.03125 33.5 51.03125 23.25 
Q 51.03125 16.5 48.125 10.71875 
Q 45.21875 4.9375 40.140625 1.859375 
Q 35.0625 -1.21875 28.609375 -1.21875 
Q 17.625 -1.21875 10.6875 6.859375 
Q 3.765625 14.9375 3.765625 33.5 
Q 3.765625 54.25 11.421875 63.671875 
Q 18.109375 71.875 29.4375 71.875 
Q 37.890625 71.875 43.28125 67.140625 
Q 48.6875 62.40625 49.75 54.046875 
z
M 13.875 23.1875 
Q 13.875 18.65625 15.796875 14.5 
Q 17.71875 10.359375 21.1875 8.171875 
Q 24.65625 6 28.46875 6 
Q 34.03125 6 38.03125 10.484375 
Q 42.046875 14.984375 42.046875 22.703125 
Q 42.046875 30.125 38.078125 34.390625 
Q 34.125 38.671875 28.125 38.671875 
Q 22.171875 38.671875 18.015625 34.390625 
Q 13.875 30.125 13.875 23.1875 
z
" id="ArialMT-54"/>
      </defs>
      <g transform="translate(252.381381 219.220938)scale(0.14 -0.14)">
       <use xlink:href="#ArialMT-48"/>
       <use x="55.615234" xlink:href="#ArialMT-46"/>
       <use x="83.398438" xlink:href="#ArialMT-48"/>
       <use x="139.013672" xlink:href="#ArialMT-54"/>
      </g>
     </g>
    </g>
    <g id="xtick_5">
     <g id="line2d_5">
      <g>
       <use style="stroke:#000000;stroke-width:0.8;" x="330.861196" xlink:href="#m5c784fb24a" y="202.2"/>
      </g>
     </g>
     <g id="text_5">
      <!-- 0.08 -->
      <defs>
       <path d="M 17.671875 38.8125 
Q 12.203125 40.828125 9.5625 44.53125 
Q 6.9375 48.25 6.9375 53.421875 
Q 6.9375 61.234375 12.546875 66.546875 
Q 18.171875 71.875 27.484375 71.875 
Q 36.859375 71.875 42.578125 66.421875 
Q 48.296875 60.984375 48.296875 53.171875 
Q 48.296875 48.1875 45.671875 44.5 
Q 43.0625 40.828125 37.75 38.8125 
Q 44.34375 36.671875 47.78125 31.875 
Q 51.21875 27.09375 51.21875 20.453125 
Q 51.21875 11.28125 44.71875 5.03125 
Q 38.234375 -1.21875 27.640625 -1.21875 
Q 17.046875 -1.21875 10.546875 5.046875 
Q 4.046875 11.328125 4.046875 20.703125 
Q 4.046875 27.6875 7.59375 32.390625 
Q 11.140625 37.109375 17.671875 38.8125 
z
M 15.921875 53.71875 
Q 15.921875 48.640625 19.1875 45.40625 
Q 22.46875 42.1875 27.6875 42.1875 
Q 32.765625 42.1875 36.015625 45.375 
Q 39.265625 48.578125 39.265625 53.21875 
Q 39.265625 58.0625 35.90625 61.359375 
Q 32.5625 64.65625 27.59375 64.65625 
Q 22.5625 64.65625 19.234375 61.421875 
Q 15.921875 58.203125 15.921875 53.71875 
z
M 13.09375 20.65625 
Q 13.09375 16.890625 14.875 13.375 
Q 16.65625 9.859375 20.171875 7.921875 
Q 23.6875 6 27.734375 6 
Q 34.03125 6 38.125 10.046875 
Q 42.234375 14.109375 42.234375 20.359375 
Q 42.234375 26.703125 38.015625 30.859375 
Q 33.796875 35.015625 27.4375 35.015625 
Q 21.234375 35.015625 17.15625 30.90625 
Q 13.09375 26.8125 13.09375 20.65625 
z
" id="ArialMT-56"/>
      </defs>
      <g transform="translate(317.23854 219.220938)scale(0.14 -0.14)">
       <use xlink:href="#ArialMT-48"/>
       <use x="55.615234" xlink:href="#ArialMT-46"/>
       <use x="83.398438" xlink:href="#ArialMT-48"/>
       <use x="139.013672" xlink:href="#ArialMT-56"/>
      </g>
     </g>
    </g>
    <g id="text_6">
     <!-- Fractional importance in classifier (metabolites) -->
     <defs>
      <path d="M 8.203125 0 
L 8.203125 71.578125 
L 56.5 71.578125 
L 56.5 63.140625 
L 17.671875 63.140625 
L 17.671875 40.96875 
L 51.265625 40.96875 
L 51.265625 32.515625 
L 17.671875 32.515625 
L 17.671875 0 
z
" id="ArialMT-70"/>
      <path d="M 6.5 0 
L 6.5 51.859375 
L 14.40625 51.859375 
L 14.40625 44 
Q 17.4375 49.515625 20 51.265625 
Q 22.5625 53.03125 25.640625 53.03125 
Q 30.078125 53.03125 34.671875 50.203125 
L 31.640625 42.046875 
Q 28.421875 43.953125 25.203125 43.953125 
Q 22.3125 43.953125 20.015625 42.21875 
Q 17.71875 40.484375 16.75 37.40625 
Q 15.28125 32.71875 15.28125 27.15625 
L 15.28125 0 
z
" id="ArialMT-114"/>
      <path d="M 40.4375 6.390625 
Q 35.546875 2.25 31.03125 0.53125 
Q 26.515625 -1.171875 21.34375 -1.171875 
Q 12.796875 -1.171875 8.203125 3 
Q 3.609375 7.171875 3.609375 13.671875 
Q 3.609375 17.484375 5.34375 20.625 
Q 7.078125 23.78125 9.890625 25.6875 
Q 12.703125 27.59375 16.21875 28.5625 
Q 18.796875 29.25 24.03125 29.890625 
Q 34.671875 31.15625 39.703125 32.90625 
Q 39.75 34.71875 39.75 35.203125 
Q 39.75 40.578125 37.25 42.78125 
Q 33.890625 45.75 27.25 45.75 
Q 21.046875 45.75 18.09375 43.578125 
Q 15.140625 41.40625 13.71875 35.890625 
L 5.125 37.0625 
Q 6.296875 42.578125 8.984375 45.96875 
Q 11.671875 49.359375 16.75 51.1875 
Q 21.828125 53.03125 28.515625 53.03125 
Q 35.15625 53.03125 39.296875 51.46875 
Q 43.453125 49.90625 45.40625 47.53125 
Q 47.359375 45.171875 48.140625 41.546875 
Q 48.578125 39.3125 48.578125 33.453125 
L 48.578125 21.734375 
Q 48.578125 9.46875 49.140625 6.21875 
Q 49.703125 2.984375 51.375 0 
L 42.1875 0 
Q 40.828125 2.734375 40.4375 6.390625 
z
M 39.703125 26.03125 
Q 34.90625 24.078125 25.34375 22.703125 
Q 19.921875 21.921875 17.671875 20.9375 
Q 15.4375 19.96875 14.203125 18.09375 
Q 12.984375 16.21875 12.984375 13.921875 
Q 12.984375 10.40625 15.640625 8.0625 
Q 18.3125 5.71875 23.4375 5.71875 
Q 28.515625 5.71875 32.46875 7.9375 
Q 36.421875 10.15625 38.28125 14.015625 
Q 39.703125 17 39.703125 22.796875 
z
" id="ArialMT-97"/>
      <path d="M 40.4375 19 
L 49.078125 17.875 
Q 47.65625 8.9375 41.8125 3.875 
Q 35.984375 -1.171875 27.484375 -1.171875 
Q 16.84375 -1.171875 10.375 5.78125 
Q 3.90625 12.75 3.90625 25.734375 
Q 3.90625 34.125 6.6875 40.421875 
Q 9.46875 46.734375 15.15625 49.875 
Q 20.84375 53.03125 27.546875 53.03125 
Q 35.984375 53.03125 41.359375 48.75 
Q 46.734375 44.484375 48.25 36.625 
L 39.703125 35.296875 
Q 38.484375 40.53125 35.375 43.15625 
Q 32.28125 45.796875 27.875 45.796875 
Q 21.234375 45.796875 17.078125 41.03125 
Q 12.9375 36.28125 12.9375 25.984375 
Q 12.9375 15.53125 16.9375 10.796875 
Q 20.953125 6.0625 27.390625 6.0625 
Q 32.5625 6.0625 36.03125 9.234375 
Q 39.5 12.40625 40.4375 19 
z
" id="ArialMT-99"/>
      <path d="M 25.78125 7.859375 
L 27.046875 0.09375 
Q 23.34375 -0.6875 20.40625 -0.6875 
Q 15.625 -0.6875 12.984375 0.828125 
Q 10.359375 2.34375 9.28125 4.8125 
Q 8.203125 7.28125 8.203125 15.1875 
L 8.203125 45.015625 
L 1.765625 45.015625 
L 1.765625 51.859375 
L 8.203125 51.859375 
L 8.203125 64.703125 
L 16.9375 69.96875 
L 16.9375 51.859375 
L 25.78125 51.859375 
L 25.78125 45.015625 
L 16.9375 45.015625 
L 16.9375 14.703125 
Q 16.9375 10.9375 17.40625 9.859375 
Q 17.875 8.796875 18.921875 8.15625 
Q 19.96875 7.515625 21.921875 7.515625 
Q 23.390625 7.515625 25.78125 7.859375 
z
" id="ArialMT-116"/>
      <path d="M 6.640625 61.46875 
L 6.640625 71.578125 
L 15.4375 71.578125 
L 15.4375 61.46875 
z
M 6.640625 0 
L 6.640625 51.859375 
L 15.4375 51.859375 
L 15.4375 0 
z
" id="ArialMT-105"/>
      <path d="M 3.328125 25.921875 
Q 3.328125 40.328125 11.328125 47.265625 
Q 18.015625 53.03125 27.640625 53.03125 
Q 38.328125 53.03125 45.109375 46.015625 
Q 51.90625 39.015625 51.90625 26.65625 
Q 51.90625 16.65625 48.90625 10.90625 
Q 45.90625 5.171875 40.15625 2 
Q 34.421875 -1.171875 27.640625 -1.171875 
Q 16.75 -1.171875 10.03125 5.8125 
Q 3.328125 12.796875 3.328125 25.921875 
z
M 12.359375 25.921875 
Q 12.359375 15.96875 16.703125 11.015625 
Q 21.046875 6.0625 27.640625 6.0625 
Q 34.1875 6.0625 38.53125 11.03125 
Q 42.875 16.015625 42.875 26.21875 
Q 42.875 35.84375 38.5 40.796875 
Q 34.125 45.75 27.640625 45.75 
Q 21.046875 45.75 16.703125 40.8125 
Q 12.359375 35.890625 12.359375 25.921875 
z
" id="ArialMT-111"/>
      <path d="M 6.59375 0 
L 6.59375 51.859375 
L 14.5 51.859375 
L 14.5 44.484375 
Q 20.21875 53.03125 31 53.03125 
Q 35.6875 53.03125 39.625 51.34375 
Q 43.5625 49.65625 45.515625 46.921875 
Q 47.46875 44.1875 48.25 40.4375 
Q 48.734375 37.984375 48.734375 31.890625 
L 48.734375 0 
L 39.9375 0 
L 39.9375 31.546875 
Q 39.9375 36.921875 38.90625 39.578125 
Q 37.890625 42.234375 35.28125 43.8125 
Q 32.671875 45.40625 29.15625 45.40625 
Q 23.53125 45.40625 19.453125 41.84375 
Q 15.375 38.28125 15.375 28.328125 
L 15.375 0 
z
" id="ArialMT-110"/>
      <path d="M 6.390625 0 
L 6.390625 71.578125 
L 15.1875 71.578125 
L 15.1875 0 
z
" id="ArialMT-108"/>
      <path id="ArialMT-32"/>
      <path d="M 6.59375 0 
L 6.59375 51.859375 
L 14.453125 51.859375 
L 14.453125 44.578125 
Q 16.890625 48.390625 20.9375 50.703125 
Q 25 53.03125 30.171875 53.03125 
Q 35.9375 53.03125 39.625 50.640625 
Q 43.3125 48.25 44.828125 43.953125 
Q 50.984375 53.03125 60.84375 53.03125 
Q 68.5625 53.03125 72.703125 48.75 
Q 76.859375 44.484375 76.859375 35.59375 
L 76.859375 0 
L 68.109375 0 
L 68.109375 32.671875 
Q 68.109375 37.9375 67.25 40.25 
Q 66.40625 42.578125 64.15625 43.984375 
Q 61.921875 45.40625 58.890625 45.40625 
Q 53.421875 45.40625 49.796875 41.765625 
Q 46.1875 38.140625 46.1875 30.125 
L 46.1875 0 
L 37.40625 0 
L 37.40625 33.6875 
Q 37.40625 39.546875 35.25 42.46875 
Q 33.109375 45.40625 28.21875 45.40625 
Q 24.515625 45.40625 21.359375 43.453125 
Q 18.21875 41.5 16.796875 37.734375 
Q 15.375 33.984375 15.375 26.90625 
L 15.375 0 
z
" id="ArialMT-109"/>
      <path d="M 6.59375 -19.875 
L 6.59375 51.859375 
L 14.59375 51.859375 
L 14.59375 45.125 
Q 17.4375 49.078125 21 51.046875 
Q 24.5625 53.03125 29.640625 53.03125 
Q 36.28125 53.03125 41.359375 49.609375 
Q 46.4375 46.1875 49.015625 39.953125 
Q 51.609375 33.734375 51.609375 26.3125 
Q 51.609375 18.359375 48.75 11.984375 
Q 45.90625 5.609375 40.453125 2.21875 
Q 35.015625 -1.171875 29 -1.171875 
Q 24.609375 -1.171875 21.109375 0.6875 
Q 17.625 2.546875 15.375 5.375 
L 15.375 -19.875 
z
M 14.546875 25.640625 
Q 14.546875 15.625 18.59375 10.84375 
Q 22.65625 6.0625 28.421875 6.0625 
Q 34.28125 6.0625 38.453125 11.015625 
Q 42.625 15.96875 42.625 26.375 
Q 42.625 36.28125 38.546875 41.203125 
Q 34.46875 46.140625 28.8125 46.140625 
Q 23.1875 46.140625 18.859375 40.890625 
Q 14.546875 35.640625 14.546875 25.640625 
z
" id="ArialMT-112"/>
      <path d="M 42.09375 16.703125 
L 51.171875 15.578125 
Q 49.03125 7.625 43.21875 3.21875 
Q 37.40625 -1.171875 28.375 -1.171875 
Q 17 -1.171875 10.328125 5.828125 
Q 3.65625 12.84375 3.65625 25.484375 
Q 3.65625 38.578125 10.390625 45.796875 
Q 17.140625 53.03125 27.875 53.03125 
Q 38.28125 53.03125 44.875 45.953125 
Q 51.46875 38.875 51.46875 26.03125 
Q 51.46875 25.25 51.421875 23.6875 
L 12.75 23.6875 
Q 13.234375 15.140625 17.578125 10.59375 
Q 21.921875 6.0625 28.421875 6.0625 
Q 33.25 6.0625 36.671875 8.59375 
Q 40.09375 11.140625 42.09375 16.703125 
z
M 13.234375 30.90625 
L 42.1875 30.90625 
Q 41.609375 37.453125 38.875 40.71875 
Q 34.671875 45.796875 27.984375 45.796875 
Q 21.921875 45.796875 17.796875 41.75 
Q 13.671875 37.703125 13.234375 30.90625 
z
" id="ArialMT-101"/>
      <path d="M 3.078125 15.484375 
L 11.765625 16.84375 
Q 12.5 11.625 15.84375 8.84375 
Q 19.1875 6.0625 25.203125 6.0625 
Q 31.25 6.0625 34.171875 8.515625 
Q 37.109375 10.984375 37.109375 14.3125 
Q 37.109375 17.28125 34.515625 19 
Q 32.71875 20.171875 25.53125 21.96875 
Q 15.875 24.421875 12.140625 26.203125 
Q 8.40625 27.984375 6.46875 31.125 
Q 4.546875 34.28125 4.546875 38.09375 
Q 4.546875 41.546875 6.125 44.5 
Q 7.71875 47.46875 10.453125 49.421875 
Q 12.5 50.921875 16.03125 51.96875 
Q 19.578125 53.03125 23.640625 53.03125 
Q 29.734375 53.03125 34.34375 51.265625 
Q 38.96875 49.515625 41.15625 46.5 
Q 43.359375 43.5 44.1875 38.484375 
L 35.59375 37.3125 
Q 35.015625 41.3125 32.203125 43.546875 
Q 29.390625 45.796875 24.265625 45.796875 
Q 18.21875 45.796875 15.625 43.796875 
Q 13.03125 41.796875 13.03125 39.109375 
Q 13.03125 37.40625 14.109375 36.03125 
Q 15.1875 34.625 17.484375 33.6875 
Q 18.796875 33.203125 25.25 31.453125 
Q 34.578125 28.953125 38.25 27.359375 
Q 41.9375 25.78125 44.03125 22.75 
Q 46.140625 19.734375 46.140625 15.234375 
Q 46.140625 10.84375 43.578125 6.953125 
Q 41.015625 3.078125 36.171875 0.953125 
Q 31.34375 -1.171875 25.25 -1.171875 
Q 15.140625 -1.171875 9.84375 3.03125 
Q 4.546875 7.234375 3.078125 15.484375 
z
" id="ArialMT-115"/>
      <path d="M 8.6875 0 
L 8.6875 45.015625 
L 0.921875 45.015625 
L 0.921875 51.859375 
L 8.6875 51.859375 
L 8.6875 57.375 
Q 8.6875 62.59375 9.625 65.140625 
Q 10.890625 68.5625 14.078125 70.671875 
Q 17.28125 72.796875 23.046875 72.796875 
Q 26.765625 72.796875 31.25 71.921875 
L 29.9375 64.265625 
Q 27.203125 64.75 24.75 64.75 
Q 20.75 64.75 19.09375 63.03125 
Q 17.4375 61.328125 17.4375 56.640625 
L 17.4375 51.859375 
L 27.546875 51.859375 
L 27.546875 45.015625 
L 17.4375 45.015625 
L 17.4375 0 
z
" id="ArialMT-102"/>
      <path d="M 23.390625 -21.046875 
Q 16.109375 -11.859375 11.078125 0.4375 
Q 6.0625 12.75 6.0625 25.921875 
Q 6.0625 37.546875 9.8125 48.1875 
Q 14.203125 60.546875 23.390625 72.796875 
L 29.6875 72.796875 
Q 23.78125 62.640625 21.875 58.296875 
Q 18.890625 51.5625 17.1875 44.234375 
Q 15.09375 35.109375 15.09375 25.875 
Q 15.09375 2.390625 29.6875 -21.046875 
z
" id="ArialMT-40"/>
      <path d="M 14.703125 0 
L 6.546875 0 
L 6.546875 71.578125 
L 15.328125 71.578125 
L 15.328125 46.046875 
Q 20.90625 53.03125 29.546875 53.03125 
Q 34.328125 53.03125 38.59375 51.09375 
Q 42.875 49.171875 45.625 45.671875 
Q 48.390625 42.1875 49.953125 37.25 
Q 51.515625 32.328125 51.515625 26.703125 
Q 51.515625 13.375 44.921875 6.09375 
Q 38.328125 -1.171875 29.109375 -1.171875 
Q 19.921875 -1.171875 14.703125 6.5 
z
M 14.59375 26.3125 
Q 14.59375 17 17.140625 12.84375 
Q 21.296875 6.0625 28.375 6.0625 
Q 34.125 6.0625 38.328125 11.0625 
Q 42.53125 16.0625 42.53125 25.984375 
Q 42.53125 36.140625 38.5 40.96875 
Q 34.46875 45.796875 28.765625 45.796875 
Q 23 45.796875 18.796875 40.796875 
Q 14.59375 35.796875 14.59375 26.3125 
z
" id="ArialMT-98"/>
      <path d="M 12.359375 -21.046875 
L 6.0625 -21.046875 
Q 20.65625 2.390625 20.65625 25.875 
Q 20.65625 35.0625 18.5625 44.09375 
Q 16.890625 51.421875 13.921875 58.15625 
Q 12.015625 62.546875 6.0625 72.796875 
L 12.359375 72.796875 
Q 21.53125 60.546875 25.921875 48.1875 
Q 29.6875 37.546875 29.6875 25.921875 
Q 29.6875 12.75 24.625 0.4375 
Q 19.578125 -11.859375 12.359375 -21.046875 
z
" id="ArialMT-41"/>
     </defs>
     <g transform="translate(54.431066 236.195)scale(0.14 -0.14)">
      <use xlink:href="#ArialMT-70"/>
      <use x="61.083984" xlink:href="#ArialMT-114"/>
      <use x="94.384766" xlink:href="#ArialMT-97"/>
      <use x="150" xlink:href="#ArialMT-99"/>
      <use x="200" xlink:href="#ArialMT-116"/>
      <use x="227.783203" xlink:href="#ArialMT-105"/>
      <use x="250" xlink:href="#ArialMT-111"/>
      <use x="305.615234" xlink:href="#ArialMT-110"/>
      <use x="361.230469" xlink:href="#ArialMT-97"/>
      <use x="416.845703" xlink:href="#ArialMT-108"/>
      <use x="439.0625" xlink:href="#ArialMT-32"/>
      <use x="466.845703" xlink:href="#ArialMT-105"/>
      <use x="489.0625" xlink:href="#ArialMT-109"/>
      <use x="572.363281" xlink:href="#ArialMT-112"/>
      <use x="627.978516" xlink:href="#ArialMT-111"/>
      <use x="683.59375" xlink:href="#ArialMT-114"/>
      <use x="716.894531" xlink:href="#ArialMT-116"/>
      <use x="744.677734" xlink:href="#ArialMT-97"/>
      <use x="800.292969" xlink:href="#ArialMT-110"/>
      <use x="855.908203" xlink:href="#ArialMT-99"/>
      <use x="905.908203" xlink:href="#ArialMT-101"/>
      <use x="961.523438" xlink:href="#ArialMT-32"/>
      <use x="989.306641" xlink:href="#ArialMT-105"/>
      <use x="1011.523438" xlink:href="#ArialMT-110"/>
      <use x="1067.138672" xlink:href="#ArialMT-32"/>
      <use x="1094.921875" xlink:href="#ArialMT-99"/>
      <use x="1144.921875" xlink:href="#ArialMT-108"/>
      <use x="1167.138672" xlink:href="#ArialMT-97"/>
      <use x="1222.753906" xlink:href="#ArialMT-115"/>
      <use x="1272.753906" xlink:href="#ArialMT-115"/>
      <use x="1322.753906" xlink:href="#ArialMT-105"/>
      <use x="1344.970703" xlink:href="#ArialMT-102"/>
      <use x="1372.753906" xlink:href="#ArialMT-105"/>
      <use x="1394.970703" xlink:href="#ArialMT-101"/>
      <use x="1450.585938" xlink:href="#ArialMT-114"/>
      <use x="1483.886719" xlink:href="#ArialMT-32"/>
      <use x="1511.669922" xlink:href="#ArialMT-40"/>
      <use x="1544.970703" xlink:href="#ArialMT-109"/>
      <use x="1628.271484" xlink:href="#ArialMT-101"/>
      <use x="1683.886719" xlink:href="#ArialMT-116"/>
      <use x="1711.669922" xlink:href="#ArialMT-97"/>
      <use x="1767.285156" xlink:href="#ArialMT-98"/>
      <use x="1822.900391" xlink:href="#ArialMT-111"/>
      <use x="1878.515625" xlink:href="#ArialMT-108"/>
      <use x="1900.732422" xlink:href="#ArialMT-105"/>
      <use x="1922.949219" xlink:href="#ArialMT-116"/>
      <use x="1950.732422" xlink:href="#ArialMT-101"/>
      <use x="2006.347656" xlink:href="#ArialMT-115"/>
      <use x="2056.347656" xlink:href="#ArialMT-41"/>
     </g>
    </g>
   </g>
   <g id="matplotlib.axis_2">
    <g id="ytick_1">
     <g id="line2d_6">
      <defs>
       <path d="M 0 0 
L -3.5 0 
" id="mb31ba6c633" style="stroke:#000000;stroke-width:0.8;"/>
      </defs>
      <g>
       <use style="stroke:#000000;stroke-width:0.8;" x="58.506819" xlink:href="#mb31ba6c633" y="195.116903"/>
      </g>
     </g>
     <g id="text_7">
      <!-- $\mathdefault{10^{0}}$ -->
      <defs>
       <path d="M 37.25 0 
L 28.46875 0 
L 28.46875 56 
Q 25.296875 52.984375 20.140625 49.953125 
Q 14.984375 46.921875 10.890625 45.40625 
L 10.890625 53.90625 
Q 18.265625 57.375 23.78125 62.296875 
Q 29.296875 67.234375 31.59375 71.875 
L 37.25 71.875 
z
" id="ArialMT-49"/>
      </defs>
      <g transform="translate(29.526819 202.335653)scale(0.14 -0.14)">
       <use transform="translate(0 0.99375)" xlink:href="#ArialMT-49"/>
       <use transform="translate(55.615234 0.99375)" xlink:href="#ArialMT-48"/>
       <use transform="translate(112.972813 70.6875)scale(0.7)" xlink:href="#ArialMT-48"/>
      </g>
     </g>
    </g>
    <g id="ytick_2">
     <g id="line2d_7">
      <g>
       <use style="stroke:#000000;stroke-width:0.8;" x="58.506819" xlink:href="#mb31ba6c633" y="136.167745"/>
      </g>
     </g>
     <g id="text_8">
      <!-- $\mathdefault{10^{1}}$ -->
      <g transform="translate(29.526819 143.386495)scale(0.14 -0.14)">
       <use transform="translate(0 0.99375)" xlink:href="#ArialMT-49"/>
       <use transform="translate(55.615234 0.99375)" xlink:href="#ArialMT-48"/>
       <use transform="translate(112.972813 70.6875)scale(0.7)" xlink:href="#ArialMT-49"/>
      </g>
     </g>
    </g>
    <g id="ytick_3">
     <g id="line2d_8">
      <g>
       <use style="stroke:#000000;stroke-width:0.8;" x="58.506819" xlink:href="#mb31ba6c633" y="77.218587"/>
      </g>
     </g>
     <g id="text_9">
      <!-- $\mathdefault{10^{2}}$ -->
      <g transform="translate(29.526819 84.437337)scale(0.14 -0.14)">
       <use transform="translate(0 0.99375)" xlink:href="#ArialMT-49"/>
       <use transform="translate(55.615234 0.99375)" xlink:href="#ArialMT-48"/>
       <use transform="translate(112.972813 70.6875)scale(0.7)" xlink:href="#ArialMT-50"/>
      </g>
     </g>
    </g>
    <g id="ytick_4">
     <g id="line2d_9">
      <defs>
       <path d="M 0 0 
L -2 0 
" id="m8fcd126f10" style="stroke:#000000;stroke-width:0.6;"/>
      </defs>
      <g>
       <use style="stroke:#000000;stroke-width:0.6;" x="58.506819" xlink:href="#m8fcd126f10" y="200.829667"/>
      </g>
     </g>
    </g>
    <g id="ytick_5">
     <g id="line2d_10">
      <g>
       <use style="stroke:#000000;stroke-width:0.6;" x="58.506819" xlink:href="#m8fcd126f10" y="197.814269"/>
      </g>
     </g>
    </g>
    <g id="ytick_6">
     <g id="line2d_11">
      <g>
       <use style="stroke:#000000;stroke-width:0.6;" x="58.506819" xlink:href="#m8fcd126f10" y="177.371439"/>
      </g>
     </g>
    </g>
    <g id="ytick_7">
     <g id="line2d_12">
      <g>
       <use style="stroke:#000000;stroke-width:0.6;" x="58.506819" xlink:href="#m8fcd126f10" y="166.991007"/>
      </g>
     </g>
    </g>
    <g id="ytick_8">
     <g id="line2d_13">
      <g>
       <use style="stroke:#000000;stroke-width:0.6;" x="58.506819" xlink:href="#m8fcd126f10" y="159.625974"/>
      </g>
     </g>
    </g>
    <g id="ytick_9">
     <g id="line2d_14">
      <g>
       <use style="stroke:#000000;stroke-width:0.6;" x="58.506819" xlink:href="#m8fcd126f10" y="153.91321"/>
      </g>
     </g>
    </g>
    <g id="ytick_10">
     <g id="line2d_15">
      <g>
       <use style="stroke:#000000;stroke-width:0.6;" x="58.506819" xlink:href="#m8fcd126f10" y="149.245542"/>
      </g>
     </g>
    </g>
    <g id="ytick_11">
     <g id="line2d_16">
      <g>
       <use style="stroke:#000000;stroke-width:0.6;" x="58.506819" xlink:href="#m8fcd126f10" y="145.299085"/>
      </g>
     </g>
    </g>
    <g id="ytick_12">
     <g id="line2d_17">
      <g>
       <use style="stroke:#000000;stroke-width:0.6;" x="58.506819" xlink:href="#m8fcd126f10" y="141.880509"/>
      </g>
     </g>
    </g>
    <g id="ytick_13">
     <g id="line2d_18">
      <g>
       <use style="stroke:#000000;stroke-width:0.6;" x="58.506819" xlink:href="#m8fcd126f10" y="138.865111"/>
      </g>
     </g>
    </g>
    <g id="ytick_14">
     <g id="line2d_19">
      <g>
       <use style="stroke:#000000;stroke-width:0.6;" x="58.506819" xlink:href="#m8fcd126f10" y="118.42228"/>
      </g>
     </g>
    </g>
    <g id="ytick_15">
     <g id="line2d_20">
      <g>
       <use style="stroke:#000000;stroke-width:0.6;" x="58.506819" xlink:href="#m8fcd126f10" y="108.041849"/>
      </g>
     </g>
    </g>
    <g id="ytick_16">
     <g id="line2d_21">
      <g>
       <use style="stroke:#000000;stroke-width:0.6;" x="58.506819" xlink:href="#m8fcd126f10" y="100.676816"/>
      </g>
     </g>
    </g>
    <g id="ytick_17">
     <g id="line2d_22">
      <g>
       <use style="stroke:#000000;stroke-width:0.6;" x="58.506819" xlink:href="#m8fcd126f10" y="94.964052"/>
      </g>
     </g>
    </g>
    <g id="ytick_18">
     <g id="line2d_23">
      <g>
       <use style="stroke:#000000;stroke-width:0.6;" x="58.506819" xlink:href="#m8fcd126f10" y="90.296384"/>
      </g>
     </g>
    </g>
    <g id="ytick_19">
     <g id="line2d_24">
      <g>
       <use style="stroke:#000000;stroke-width:0.6;" x="58.506819" xlink:href="#m8fcd126f10" y="86.349927"/>
      </g>
     </g>
    </g>
    <g id="ytick_20">
     <g id="line2d_25">
      <g>
       <use style="stroke:#000000;stroke-width:0.6;" x="58.506819" xlink:href="#m8fcd126f10" y="82.931351"/>
      </g>
     </g>
    </g>
    <g id="ytick_21">
     <g id="line2d_26">
      <g>
       <use style="stroke:#000000;stroke-width:0.6;" x="58.506819" xlink:href="#m8fcd126f10" y="79.915953"/>
      </g>
     </g>
    </g>
    <g id="ytick_22">
     <g id="line2d_27">
      <g>
       <use style="stroke:#000000;stroke-width:0.6;" x="58.506819" xlink:href="#m8fcd126f10" y="59.473122"/>
      </g>
     </g>
    </g>
    <g id="ytick_23">
     <g id="line2d_28">
      <g>
       <use style="stroke:#000000;stroke-width:0.6;" x="58.506819" xlink:href="#m8fcd126f10" y="49.092691"/>
      </g>
     </g>
    </g>
    <g id="text_10">
     <!-- Feature count -->
     <defs>
      <path d="M 40.578125 0 
L 40.578125 7.625 
Q 34.515625 -1.171875 24.125 -1.171875 
Q 19.53125 -1.171875 15.546875 0.578125 
Q 11.578125 2.34375 9.640625 5 
Q 7.71875 7.671875 6.9375 11.53125 
Q 6.390625 14.109375 6.390625 19.734375 
L 6.390625 51.859375 
L 15.1875 51.859375 
L 15.1875 23.09375 
Q 15.1875 16.21875 15.71875 13.8125 
Q 16.546875 10.359375 19.234375 8.375 
Q 21.921875 6.390625 25.875 6.390625 
Q 29.828125 6.390625 33.296875 8.421875 
Q 36.765625 10.453125 38.203125 13.9375 
Q 39.65625 17.4375 39.65625 24.078125 
L 39.65625 51.859375 
L 48.4375 51.859375 
L 48.4375 0 
z
" id="ArialMT-117"/>
     </defs>
     <g transform="translate(22.744319 167.474844)rotate(-90)scale(0.14 -0.14)">
      <use xlink:href="#ArialMT-70"/>
      <use x="61.083984" xlink:href="#ArialMT-101"/>
      <use x="116.699219" xlink:href="#ArialMT-97"/>
      <use x="172.314453" xlink:href="#ArialMT-116"/>
      <use x="200.097656" xlink:href="#ArialMT-117"/>
      <use x="255.712891" xlink:href="#ArialMT-114"/>
      <use x="289.013672" xlink:href="#ArialMT-101"/>
      <use x="344.628906" xlink:href="#ArialMT-32"/>
      <use x="372.412109" xlink:href="#ArialMT-99"/>
      <use x="422.412109" xlink:href="#ArialMT-111"/>
      <use x="478.027344" xlink:href="#ArialMT-117"/>
      <use x="533.642578" xlink:href="#ArialMT-110"/>
      <use x="589.257812" xlink:href="#ArialMT-116"/>
     </g>
    </g>
   </g>
   <g id="patch_53">
    <path d="M 58.506819 202.2 
L 58.506819 46.371875 
" style="fill:none;stroke:#000000;stroke-linecap:square;stroke-linejoin:miter;stroke-width:0.8;"/>
   </g>
   <g id="patch_54">
    <path d="M 342.8875 202.2 
L 342.8875 46.371875 
" style="fill:none;stroke:#000000;stroke-linecap:square;stroke-linejoin:miter;stroke-width:0.8;"/>
   </g>
   <g id="patch_55">
    <path d="M 58.506819 202.2 
L 342.8875 202.2 
" style="fill:none;stroke:#000000;stroke-linecap:square;stroke-linejoin:miter;stroke-width:0.8;"/>
   </g>
   <g id="patch_56">
    <path d="M 58.506819 46.371875 
L 342.8875 46.371875 
" style="fill:none;stroke:#000000;stroke-linecap:square;stroke-linejoin:miter;stroke-width:0.8;"/>
   </g>
   <g id="text_11">
    <!-- Pan-species distribution of  -->
    <defs>
     <path d="M 7.71875 0 
L 7.71875 71.578125 
L 34.71875 71.578125 
Q 41.84375 71.578125 45.609375 70.90625 
Q 50.875 70.015625 54.4375 67.546875 
Q 58.015625 65.09375 60.1875 60.640625 
Q 62.359375 56.203125 62.359375 50.875 
Q 62.359375 41.75 56.546875 35.421875 
Q 50.734375 29.109375 35.546875 29.109375 
L 17.1875 29.109375 
L 17.1875 0 
z
M 17.1875 37.546875 
L 35.6875 37.546875 
Q 44.875 37.546875 48.734375 40.96875 
Q 52.59375 44.390625 52.59375 50.59375 
Q 52.59375 55.078125 50.3125 58.265625 
Q 48.046875 61.46875 44.34375 62.5 
Q 41.9375 63.140625 35.5 63.140625 
L 17.1875 63.140625 
z
" id="ArialMT-80"/>
     <path d="M 3.171875 21.484375 
L 3.171875 30.328125 
L 30.171875 30.328125 
L 30.171875 21.484375 
z
" id="ArialMT-45"/>
     <path d="M 40.234375 0 
L 40.234375 6.546875 
Q 35.296875 -1.171875 25.734375 -1.171875 
Q 19.53125 -1.171875 14.328125 2.25 
Q 9.125 5.671875 6.265625 11.796875 
Q 3.421875 17.921875 3.421875 25.875 
Q 3.421875 33.640625 6 39.96875 
Q 8.59375 46.296875 13.765625 49.65625 
Q 18.953125 53.03125 25.34375 53.03125 
Q 30.03125 53.03125 33.6875 51.046875 
Q 37.359375 49.078125 39.65625 45.90625 
L 39.65625 71.578125 
L 48.390625 71.578125 
L 48.390625 0 
z
M 12.453125 25.875 
Q 12.453125 15.921875 16.640625 10.984375 
Q 20.84375 6.0625 26.5625 6.0625 
Q 32.328125 6.0625 36.34375 10.765625 
Q 40.375 15.484375 40.375 25.140625 
Q 40.375 35.796875 36.265625 40.765625 
Q 32.171875 45.75 26.171875 45.75 
Q 20.3125 45.75 16.375 40.96875 
Q 12.453125 36.1875 12.453125 25.875 
z
" id="ArialMT-100"/>
    </defs>
    <g transform="translate(104.652159 23.409875)scale(0.16 -0.16)">
     <use xlink:href="#ArialMT-80"/>
     <use x="66.699219" xlink:href="#ArialMT-97"/>
     <use x="122.314453" xlink:href="#ArialMT-110"/>
     <use x="177.929688" xlink:href="#ArialMT-45"/>
     <use x="211.230469" xlink:href="#ArialMT-115"/>
     <use x="261.230469" xlink:href="#ArialMT-112"/>
     <use x="316.845703" xlink:href="#ArialMT-101"/>
     <use x="372.460938" xlink:href="#ArialMT-99"/>
     <use x="422.460938" xlink:href="#ArialMT-105"/>
     <use x="444.677734" xlink:href="#ArialMT-101"/>
     <use x="500.292969" xlink:href="#ArialMT-115"/>
     <use x="550.292969" xlink:href="#ArialMT-32"/>
     <use x="578.076172" xlink:href="#ArialMT-100"/>
     <use x="633.691406" xlink:href="#ArialMT-105"/>
     <use x="655.908203" xlink:href="#ArialMT-115"/>
     <use x="705.908203" xlink:href="#ArialMT-116"/>
     <use x="733.691406" xlink:href="#ArialMT-114"/>
     <use x="766.992188" xlink:href="#ArialMT-105"/>
     <use x="789.208984" xlink:href="#ArialMT-98"/>
     <use x="844.824219" xlink:href="#ArialMT-117"/>
     <use x="900.439453" xlink:href="#ArialMT-116"/>
     <use x="928.222656" xlink:href="#ArialMT-105"/>
     <use x="950.439453" xlink:href="#ArialMT-111"/>
     <use x="1006.054688" xlink:href="#ArialMT-110"/>
     <use x="1061.669922" xlink:href="#ArialMT-32"/>
     <use x="1089.453125" xlink:href="#ArialMT-111"/>
     <use x="1145.068359" xlink:href="#ArialMT-102"/>
     <use x="1172.851562" xlink:href="#ArialMT-32"/>
    </g>
    <!-- mean metabolite importances -->
    <g transform="translate(95.763409 40.332875)scale(0.16 -0.16)">
     <use xlink:href="#ArialMT-109"/>
     <use x="83.300781" xlink:href="#ArialMT-101"/>
     <use x="138.916016" xlink:href="#ArialMT-97"/>
     <use x="194.53125" xlink:href="#ArialMT-110"/>
     <use x="250.146484" xlink:href="#ArialMT-32"/>
     <use x="277.929688" xlink:href="#ArialMT-109"/>
     <use x="361.230469" xlink:href="#ArialMT-101"/>
     <use x="416.845703" xlink:href="#ArialMT-116"/>
     <use x="444.628906" xlink:href="#ArialMT-97"/>
     <use x="500.244141" xlink:href="#ArialMT-98"/>
     <use x="555.859375" xlink:href="#ArialMT-111"/>
     <use x="611.474609" xlink:href="#ArialMT-108"/>
     <use x="633.691406" xlink:href="#ArialMT-105"/>
     <use x="655.908203" xlink:href="#ArialMT-116"/>
     <use x="683.691406" xlink:href="#ArialMT-101"/>
     <use x="739.306641" xlink:href="#ArialMT-32"/>
     <use x="767.089844" xlink:href="#ArialMT-105"/>
     <use x="789.306641" xlink:href="#ArialMT-109"/>
     <use x="872.607422" xlink:href="#ArialMT-112"/>
     <use x="928.222656" xlink:href="#ArialMT-111"/>
     <use x="983.837891" xlink:href="#ArialMT-114"/>
     <use x="1017.138672" xlink:href="#ArialMT-116"/>
     <use x="1044.921875" xlink:href="#ArialMT-97"/>
     <use x="1100.537109" xlink:href="#ArialMT-110"/>
     <use x="1156.152344" xlink:href="#ArialMT-99"/>
     <use x="1206.152344" xlink:href="#ArialMT-101"/>
     <use x="1261.767578" xlink:href="#ArialMT-115"/>
    </g>
   </g>
  </g>
 </g>
 <defs>
  <clipPath id="p0672c952d6">
   <rect height="155.828125" width="284.380681" x="58.506819" y="46.371875"/>
  </clipPath>
 </defs>
</svg>
