<?xml version="1.0" encoding="utf-8" standalone="no"?>
<!DOCTYPE svg PUBLIC "-//W3C//DTD SVG 1.1//EN"
  "http://www.w3.org/Graphics/SVG/1.1/DTD/svg11.dtd">
<!-- Created with matplotlib (http://matplotlib.org/) -->
<svg height="252pt" version="1.1" viewBox="0 0 360 252" width="360pt" xmlns="http://www.w3.org/2000/svg" xmlns:xlink="http://www.w3.org/1999/xlink">
 <defs>
  <style type="text/css">
*{stroke-linecap:butt;stroke-linejoin:round;}
  </style>
 </defs>
 <g id="figure_1">
  <g id="patch_1">
   <path d="M 0 252 
L 360 252 
L 360 0 
L 0 0 
z
" style="fill:#ffffff;"/>
  </g>
  <g id="axes_1">
   <g id="patch_2">
    <path d="M 45 220.5 
L 324 220.5 
L 324 30.24 
L 45 30.24 
z
" style="fill:#ffffff;"/>
   </g>
   <g id="patch_3">
    <path clip-path="url(#p0686694d16)" d="M 57.681818 73447.909642 
L 62.754545 73447.909642 
L 62.754545 38.888182 
L 57.681818 38.888182 
z
" style="opacity:0.5;"/>
   </g>
   <g id="patch_4">
    <path clip-path="url(#p0686694d16)" d="M 62.754545 73447.909642 
L 67.827273 73447.909642 
L 67.827273 58.282395 
L 62.754545 58.282395 
z
" style="opacity:0.5;"/>
   </g>
   <g id="patch_5">
    <path clip-path="url(#p0686694d16)" d="M 67.827273 73447.909642 
L 72.9 73447.909642 
L 72.9 81.62703 
L 67.827273 81.62703 
z
" style="opacity:0.5;"/>
   </g>
   <g id="patch_6">
    <path clip-path="url(#p0686694d16)" d="M 72.9 73447.909642 
L 77.972727 73447.909642 
L 77.972727 86.178498 
L 72.9 86.178498 
z
" style="opacity:0.5;"/>
   </g>
   <g id="patch_7">
    <path clip-path="url(#p0686694d16)" d="M 77.972727 73447.909642 
L 83.045455 73447.909642 
L 83.045455 102.630367 
L 77.972727 102.630367 
z
" style="opacity:0.5;"/>
   </g>
   <g id="patch_8">
    <path clip-path="url(#p0686694d16)" d="M 83.045455 73447.909642 
L 88.118182 73447.909642 
L 88.118182 105.867669 
L 83.045455 105.867669 
z
" style="opacity:0.5;"/>
   </g>
   <g id="patch_9">
    <path clip-path="url(#p0686694d16)" d="M 88.118182 73447.909642 
L 93.190909 73447.909642 
L 93.190909 82.705304 
L 88.118182 82.705304 
z
" style="opacity:0.5;"/>
   </g>
   <g id="patch_10">
    <path clip-path="url(#p0686694d16)" d="M 93.190909 73447.909642 
L 98.263636 73447.909642 
L 98.263636 123.666818 
L 93.190909 123.666818 
z
" style="opacity:0.5;"/>
   </g>
   <g id="patch_11">
    <path clip-path="url(#p0686694d16)" d="M 98.263636 73447.909642 
L 103.336364 73447.909642 
L 103.336364 112.12424 
L 98.263636 112.12424 
z
" style="opacity:0.5;"/>
   </g>
   <g id="patch_12">
    <path clip-path="url(#p0686694d16)" d="M 103.336364 73447.909642 
L 108.409091 73447.909642 
L 108.409091 116.56951 
L 103.336364 116.56951 
z
" style="opacity:0.5;"/>
   </g>
   <g id="patch_13">
    <path clip-path="url(#p0686694d16)" d="M 108.409091 73447.909642 
L 113.481818 73447.909642 
L 113.481818 125.719531 
L 108.409091 125.719531 
z
" style="opacity:0.5;"/>
   </g>
   <g id="patch_14">
    <path clip-path="url(#p0686694d16)" d="M 113.481818 73447.909642 
L 118.554545 73447.909642 
L 118.554545 160.662011 
L 113.481818 160.662011 
z
" style="opacity:0.5;"/>
   </g>
   <g id="patch_15">
    <path clip-path="url(#p0686694d16)" d="M 118.554545 73447.909642 
L 123.627273 73447.909642 
L 123.627273 145.713068 
L 118.554545 145.713068 
z
" style="opacity:0.5;"/>
   </g>
   <g id="patch_16">
    <path clip-path="url(#p0686694d16)" d="M 123.627273 73447.909642 
L 128.7 73447.909642 
L 128.7 145.713068 
L 123.627273 145.713068 
z
" style="opacity:0.5;"/>
   </g>
   <g id="patch_17">
    <path clip-path="url(#p0686694d16)" d="M 128.7 73447.909642 
L 133.772727 73447.909642 
L 133.772727 149.960169 
L 128.7 149.960169 
z
" style="opacity:0.5;"/>
   </g>
   <g id="patch_18">
    <path clip-path="url(#p0686694d16)" d="M 133.772727 73447.909642 
L 138.845455 73447.909642 
L 138.845455 149.960169 
L 133.772727 149.960169 
z
" style="opacity:0.5;"/>
   </g>
   <g id="patch_19">
    <path clip-path="url(#p0686694d16)" d="M 138.845455 73447.909642 
L 143.918182 73447.909642 
L 143.918182 149.960169 
L 138.845455 149.960169 
z
" style="opacity:0.5;"/>
   </g>
   <g id="patch_20">
    <path clip-path="url(#p0686694d16)" d="M 143.918182 73447.909642 
L 148.990909 73447.909642 
L 148.990909 167.759318 
L 143.918182 167.759318 
z
" style="opacity:0.5;"/>
   </g>
   <g id="patch_21">
    <path clip-path="url(#p0686694d16)" d="M 148.990909 73447.909642 
L 154.063636 73447.909642 
L 154.063636 167.759318 
L 148.990909 167.759318 
z
" style="opacity:0.5;"/>
   </g>
   <g id="patch_22">
    <path clip-path="url(#p0686694d16)" d="M 154.063636 73447.909642 
L 159.136364 73447.909642 
L 159.136364 167.759318 
L 154.063636 167.759318 
z
" style="opacity:0.5;"/>
   </g>
   <g id="patch_23">
    <path clip-path="url(#p0686694d16)" d="M 159.136364 73447.909642 
L 164.209091 73447.909642 
L 164.209091 189.805568 
L 159.136364 189.805568 
z
" style="opacity:0.5;"/>
   </g>
   <g id="patch_24">
    <path clip-path="url(#p0686694d16)" d="M 164.209091 73447.909642 
L 169.281818 73447.909642 
L 169.281818 211.851818 
L 164.209091 211.851818 
z
" style="opacity:0.5;"/>
   </g>
   <g id="patch_25">
    <path clip-path="url(#p0686694d16)" d="M 169.281818 73447.909642 
L 174.354545 73447.909642 
L 174.354545 73447.909642 
L 169.281818 73447.909642 
z
" style="opacity:0.5;"/>
   </g>
   <g id="patch_26">
    <path clip-path="url(#p0686694d16)" d="M 174.354545 73447.909642 
L 179.427273 73447.909642 
L 179.427273 211.851818 
L 174.354545 211.851818 
z
" style="opacity:0.5;"/>
   </g>
   <g id="patch_27">
    <path clip-path="url(#p0686694d16)" d="M 179.427273 73447.909642 
L 184.5 73447.909642 
L 184.5 160.662011 
L 179.427273 160.662011 
z
" style="opacity:0.5;"/>
   </g>
   <g id="patch_28">
    <path clip-path="url(#p0686694d16)" d="M 184.5 73447.909642 
L 189.572727 73447.909642 
L 189.572727 160.662011 
L 184.5 160.662011 
z
" style="opacity:0.5;"/>
   </g>
   <g id="patch_29">
    <path clip-path="url(#p0686694d16)" d="M 189.572727 73447.909642 
L 194.645455 73447.909642 
L 194.645455 176.909338 
L 189.572727 176.909338 
z
" style="opacity:0.5;"/>
   </g>
   <g id="patch_30">
    <path clip-path="url(#p0686694d16)" d="M 194.645455 73447.909642 
L 199.718182 73447.909642 
L 199.718182 189.805568 
L 194.645455 189.805568 
z
" style="opacity:0.5;"/>
   </g>
   <g id="patch_31">
    <path clip-path="url(#p0686694d16)" d="M 199.718182 73447.909642 
L 204.790909 73447.909642 
L 204.790909 211.851818 
L 199.718182 211.851818 
z
" style="opacity:0.5;"/>
   </g>
   <g id="patch_32">
    <path clip-path="url(#p0686694d16)" d="M 204.790909 73447.909642 
L 209.863636 73447.909642 
L 209.863636 73447.909642 
L 204.790909 73447.909642 
z
" style="opacity:0.5;"/>
   </g>
   <g id="patch_33">
    <path clip-path="url(#p0686694d16)" d="M 209.863636 73447.909642 
L 214.936364 73447.909642 
L 214.936364 73447.909642 
L 209.863636 73447.909642 
z
" style="opacity:0.5;"/>
   </g>
   <g id="patch_34">
    <path clip-path="url(#p0686694d16)" d="M 214.936364 73447.909642 
L 220.009091 73447.909642 
L 220.009091 73447.909642 
L 214.936364 73447.909642 
z
" style="opacity:0.5;"/>
   </g>
   <g id="patch_35">
    <path clip-path="url(#p0686694d16)" d="M 220.009091 73447.909642 
L 225.081818 73447.909642 
L 225.081818 73447.909642 
L 220.009091 73447.909642 
z
" style="opacity:0.5;"/>
   </g>
   <g id="patch_36">
    <path clip-path="url(#p0686694d16)" d="M 225.081818 73447.909642 
L 230.154545 73447.909642 
L 230.154545 73447.909642 
L 225.081818 73447.909642 
z
" style="opacity:0.5;"/>
   </g>
   <g id="patch_37">
    <path clip-path="url(#p0686694d16)" d="M 230.154545 73447.909642 
L 235.227273 73447.909642 
L 235.227273 211.851818 
L 230.154545 211.851818 
z
" style="opacity:0.5;"/>
   </g>
   <g id="patch_38">
    <path clip-path="url(#p0686694d16)" d="M 235.227273 73447.909642 
L 240.3 73447.909642 
L 240.3 73447.909642 
L 235.227273 73447.909642 
z
" style="opacity:0.5;"/>
   </g>
   <g id="patch_39">
    <path clip-path="url(#p0686694d16)" d="M 240.3 73447.909642 
L 245.372727 73447.909642 
L 245.372727 73447.909642 
L 240.3 73447.909642 
z
" style="opacity:0.5;"/>
   </g>
   <g id="patch_40">
    <path clip-path="url(#p0686694d16)" d="M 245.372727 73447.909642 
L 250.445455 73447.909642 
L 250.445455 211.851818 
L 245.372727 211.851818 
z
" style="opacity:0.5;"/>
   </g>
   <g id="patch_41">
    <path clip-path="url(#p0686694d16)" d="M 250.445455 73447.909642 
L 255.518182 73447.909642 
L 255.518182 189.805568 
L 250.445455 189.805568 
z
" style="opacity:0.5;"/>
   </g>
   <g id="patch_42">
    <path clip-path="url(#p0686694d16)" d="M 255.518182 73447.909642 
L 260.590909 73447.909642 
L 260.590909 73447.909642 
L 255.518182 73447.909642 
z
" style="opacity:0.5;"/>
   </g>
   <g id="patch_43">
    <path clip-path="url(#p0686694d16)" d="M 260.590909 73447.909642 
L 265.663636 73447.909642 
L 265.663636 73447.909642 
L 260.590909 73447.909642 
z
" style="opacity:0.5;"/>
   </g>
   <g id="patch_44">
    <path clip-path="url(#p0686694d16)" d="M 265.663636 73447.909642 
L 270.736364 73447.909642 
L 270.736364 73447.909642 
L 265.663636 73447.909642 
z
" style="opacity:0.5;"/>
   </g>
   <g id="patch_45">
    <path clip-path="url(#p0686694d16)" d="M 270.736364 73447.909642 
L 275.809091 73447.909642 
L 275.809091 73447.909642 
L 270.736364 73447.909642 
z
" style="opacity:0.5;"/>
   </g>
   <g id="patch_46">
    <path clip-path="url(#p0686694d16)" d="M 275.809091 73447.909642 
L 280.881818 73447.909642 
L 280.881818 73447.909642 
L 275.809091 73447.909642 
z
" style="opacity:0.5;"/>
   </g>
   <g id="patch_47">
    <path clip-path="url(#p0686694d16)" d="M 280.881818 73447.909642 
L 285.954545 73447.909642 
L 285.954545 73447.909642 
L 280.881818 73447.909642 
z
" style="opacity:0.5;"/>
   </g>
   <g id="patch_48">
    <path clip-path="url(#p0686694d16)" d="M 285.954545 73447.909642 
L 291.027273 73447.909642 
L 291.027273 73447.909642 
L 285.954545 73447.909642 
z
" style="opacity:0.5;"/>
   </g>
   <g id="patch_49">
    <path clip-path="url(#p0686694d16)" d="M 291.027273 73447.909642 
L 296.1 73447.909642 
L 296.1 211.851818 
L 291.027273 211.851818 
z
" style="opacity:0.5;"/>
   </g>
   <g id="patch_50">
    <path clip-path="url(#p0686694d16)" d="M 296.1 73447.909642 
L 301.172727 73447.909642 
L 301.172727 73447.909642 
L 296.1 73447.909642 
z
" style="opacity:0.5;"/>
   </g>
   <g id="patch_51">
    <path clip-path="url(#p0686694d16)" d="M 301.172727 73447.909642 
L 306.245455 73447.909642 
L 306.245455 73447.909642 
L 301.172727 73447.909642 
z
" style="opacity:0.5;"/>
   </g>
   <g id="patch_52">
    <path clip-path="url(#p0686694d16)" d="M 306.245455 73447.909642 
L 311.318182 73447.909642 
L 311.318182 211.851818 
L 306.245455 211.851818 
z
" style="opacity:0.5;"/>
   </g>
   <g id="matplotlib.axis_1">
    <g id="xtick_1">
     <g id="line2d_1">
      <defs>
       <path d="M 0 0 
L 0 3.5 
" id="m7484fa3091" style="stroke:#000000;stroke-width:0.8;"/>
      </defs>
      <g>
       <use style="stroke:#000000;stroke-width:0.8;" x="57.681818" xlink:href="#m7484fa3091" y="220.5"/>
      </g>
     </g>
     <g id="text_1">
      <!-- 0.00 -->
      <defs>
       <path d="M 31.78125 66.40625 
Q 24.171875 66.40625 20.328125 58.90625 
Q 16.5 51.421875 16.5 36.375 
Q 16.5 21.390625 20.328125 13.890625 
Q 24.171875 6.390625 31.78125 6.390625 
Q 39.453125 6.390625 43.28125 13.890625 
Q 47.125 21.390625 47.125 36.375 
Q 47.125 51.421875 43.28125 58.90625 
Q 39.453125 66.40625 31.78125 66.40625 
z
M 31.78125 74.21875 
Q 44.046875 74.21875 50.515625 64.515625 
Q 56.984375 54.828125 56.984375 36.375 
Q 56.984375 17.96875 50.515625 8.265625 
Q 44.046875 -1.421875 31.78125 -1.421875 
Q 19.53125 -1.421875 13.0625 8.265625 
Q 6.59375 17.96875 6.59375 36.375 
Q 6.59375 54.828125 13.0625 64.515625 
Q 19.53125 74.21875 31.78125 74.21875 
z
" id="DejaVuSans-30"/>
       <path d="M 10.6875 12.40625 
L 21 12.40625 
L 21 0 
L 10.6875 0 
z
" id="DejaVuSans-2e"/>
      </defs>
      <g transform="translate(46.549006 235.098437)scale(0.1 -0.1)">
       <use xlink:href="#DejaVuSans-30"/>
       <use x="63.623047" xlink:href="#DejaVuSans-2e"/>
       <use x="95.410156" xlink:href="#DejaVuSans-30"/>
       <use x="159.033203" xlink:href="#DejaVuSans-30"/>
      </g>
     </g>
    </g>
    <g id="xtick_2">
     <g id="line2d_2">
      <g>
       <use style="stroke:#000000;stroke-width:0.8;" x="100.89618" xlink:href="#m7484fa3091" y="220.5"/>
      </g>
     </g>
     <g id="text_2">
      <!-- 0.01 -->
      <defs>
       <path d="M 12.40625 8.296875 
L 28.515625 8.296875 
L 28.515625 63.921875 
L 10.984375 60.40625 
L 10.984375 69.390625 
L 28.421875 72.90625 
L 38.28125 72.90625 
L 38.28125 8.296875 
L 54.390625 8.296875 
L 54.390625 0 
L 12.40625 0 
z
" id="DejaVuSans-31"/>
      </defs>
      <g transform="translate(89.763368 235.098437)scale(0.1 -0.1)">
       <use xlink:href="#DejaVuSans-30"/>
       <use x="63.623047" xlink:href="#DejaVuSans-2e"/>
       <use x="95.410156" xlink:href="#DejaVuSans-30"/>
       <use x="159.033203" xlink:href="#DejaVuSans-31"/>
      </g>
     </g>
    </g>
    <g id="xtick_3">
     <g id="line2d_3">
      <g>
       <use style="stroke:#000000;stroke-width:0.8;" x="144.110542" xlink:href="#m7484fa3091" y="220.5"/>
      </g>
     </g>
     <g id="text_3">
      <!-- 0.02 -->
      <defs>
       <path d="M 19.1875 8.296875 
L 53.609375 8.296875 
L 53.609375 0 
L 7.328125 0 
L 7.328125 8.296875 
Q 12.9375 14.109375 22.625 23.890625 
Q 32.328125 33.6875 34.8125 36.53125 
Q 39.546875 41.84375 41.421875 45.53125 
Q 43.3125 49.21875 43.3125 52.78125 
Q 43.3125 58.59375 39.234375 62.25 
Q 35.15625 65.921875 28.609375 65.921875 
Q 23.96875 65.921875 18.8125 64.3125 
Q 13.671875 62.703125 7.8125 59.421875 
L 7.8125 69.390625 
Q 13.765625 71.78125 18.9375 73 
Q 24.125 74.21875 28.421875 74.21875 
Q 39.75 74.21875 46.484375 68.546875 
Q 53.21875 62.890625 53.21875 53.421875 
Q 53.21875 48.921875 51.53125 44.890625 
Q 49.859375 40.875 45.40625 35.40625 
Q 44.1875 33.984375 37.640625 27.21875 
Q 31.109375 20.453125 19.1875 8.296875 
z
" id="DejaVuSans-32"/>
      </defs>
      <g transform="translate(132.977729 235.098437)scale(0.1 -0.1)">
       <use xlink:href="#DejaVuSans-30"/>
       <use x="63.623047" xlink:href="#DejaVuSans-2e"/>
       <use x="95.410156" xlink:href="#DejaVuSans-30"/>
       <use x="159.033203" xlink:href="#DejaVuSans-32"/>
      </g>
     </g>
    </g>
    <g id="xtick_4">
     <g id="line2d_4">
      <g>
       <use style="stroke:#000000;stroke-width:0.8;" x="187.324904" xlink:href="#m7484fa3091" y="220.5"/>
      </g>
     </g>
     <g id="text_4">
      <!-- 0.03 -->
      <defs>
       <path d="M 40.578125 39.3125 
Q 47.65625 37.796875 51.625 33 
Q 55.609375 28.21875 55.609375 21.1875 
Q 55.609375 10.40625 48.1875 4.484375 
Q 40.765625 -1.421875 27.09375 -1.421875 
Q 22.515625 -1.421875 17.65625 -0.515625 
Q 12.796875 0.390625 7.625 2.203125 
L 7.625 11.71875 
Q 11.71875 9.328125 16.59375 8.109375 
Q 21.484375 6.890625 26.8125 6.890625 
Q 36.078125 6.890625 40.9375 10.546875 
Q 45.796875 14.203125 45.796875 21.1875 
Q 45.796875 27.640625 41.28125 31.265625 
Q 36.765625 34.90625 28.71875 34.90625 
L 20.21875 34.90625 
L 20.21875 43.015625 
L 29.109375 43.015625 
Q 36.375 43.015625 40.234375 45.921875 
Q 44.09375 48.828125 44.09375 54.296875 
Q 44.09375 59.90625 40.109375 62.90625 
Q 36.140625 65.921875 28.71875 65.921875 
Q 24.65625 65.921875 20.015625 65.03125 
Q 15.375 64.15625 9.8125 62.3125 
L 9.8125 71.09375 
Q 15.4375 72.65625 20.34375 73.4375 
Q 25.25 74.21875 29.59375 74.21875 
Q 40.828125 74.21875 47.359375 69.109375 
Q 53.90625 64.015625 53.90625 55.328125 
Q 53.90625 49.265625 50.4375 45.09375 
Q 46.96875 40.921875 40.578125 39.3125 
z
" id="DejaVuSans-33"/>
      </defs>
      <g transform="translate(176.192091 235.098437)scale(0.1 -0.1)">
       <use xlink:href="#DejaVuSans-30"/>
       <use x="63.623047" xlink:href="#DejaVuSans-2e"/>
       <use x="95.410156" xlink:href="#DejaVuSans-30"/>
       <use x="159.033203" xlink:href="#DejaVuSans-33"/>
      </g>
     </g>
    </g>
    <g id="xtick_5">
     <g id="line2d_5">
      <g>
       <use style="stroke:#000000;stroke-width:0.8;" x="230.539266" xlink:href="#m7484fa3091" y="220.5"/>
      </g>
     </g>
     <g id="text_5">
      <!-- 0.04 -->
      <defs>
       <path d="M 37.796875 64.3125 
L 12.890625 25.390625 
L 37.796875 25.390625 
z
M 35.203125 72.90625 
L 47.609375 72.90625 
L 47.609375 25.390625 
L 58.015625 25.390625 
L 58.015625 17.1875 
L 47.609375 17.1875 
L 47.609375 0 
L 37.796875 0 
L 37.796875 17.1875 
L 4.890625 17.1875 
L 4.890625 26.703125 
z
" id="DejaVuSans-34"/>
      </defs>
      <g transform="translate(219.406453 235.098437)scale(0.1 -0.1)">
       <use xlink:href="#DejaVuSans-30"/>
       <use x="63.623047" xlink:href="#DejaVuSans-2e"/>
       <use x="95.410156" xlink:href="#DejaVuSans-30"/>
       <use x="159.033203" xlink:href="#DejaVuSans-34"/>
      </g>
     </g>
    </g>
    <g id="xtick_6">
     <g id="line2d_6">
      <g>
       <use style="stroke:#000000;stroke-width:0.8;" x="273.753627" xlink:href="#m7484fa3091" y="220.5"/>
      </g>
     </g>
     <g id="text_6">
      <!-- 0.05 -->
      <defs>
       <path d="M 10.796875 72.90625 
L 49.515625 72.90625 
L 49.515625 64.59375 
L 19.828125 64.59375 
L 19.828125 46.734375 
Q 21.96875 47.46875 24.109375 47.828125 
Q 26.265625 48.1875 28.421875 48.1875 
Q 40.625 48.1875 47.75 41.5 
Q 54.890625 34.8125 54.890625 23.390625 
Q 54.890625 11.625 47.5625 5.09375 
Q 40.234375 -1.421875 26.90625 -1.421875 
Q 22.3125 -1.421875 17.546875 -0.640625 
Q 12.796875 0.140625 7.71875 1.703125 
L 7.71875 11.625 
Q 12.109375 9.234375 16.796875 8.0625 
Q 21.484375 6.890625 26.703125 6.890625 
Q 35.15625 6.890625 40.078125 11.328125 
Q 45.015625 15.765625 45.015625 23.390625 
Q 45.015625 31 40.078125 35.4375 
Q 35.15625 39.890625 26.703125 39.890625 
Q 22.75 39.890625 18.8125 39.015625 
Q 14.890625 38.140625 10.796875 36.28125 
z
" id="DejaVuSans-35"/>
      </defs>
      <g transform="translate(262.620815 235.098437)scale(0.1 -0.1)">
       <use xlink:href="#DejaVuSans-30"/>
       <use x="63.623047" xlink:href="#DejaVuSans-2e"/>
       <use x="95.410156" xlink:href="#DejaVuSans-30"/>
       <use x="159.033203" xlink:href="#DejaVuSans-35"/>
      </g>
     </g>
    </g>
    <g id="xtick_7">
     <g id="line2d_7">
      <g>
       <use style="stroke:#000000;stroke-width:0.8;" x="316.967989" xlink:href="#m7484fa3091" y="220.5"/>
      </g>
     </g>
     <g id="text_7">
      <!-- 0.06 -->
      <defs>
       <path d="M 33.015625 40.375 
Q 26.375 40.375 22.484375 35.828125 
Q 18.609375 31.296875 18.609375 23.390625 
Q 18.609375 15.53125 22.484375 10.953125 
Q 26.375 6.390625 33.015625 6.390625 
Q 39.65625 6.390625 43.53125 10.953125 
Q 47.40625 15.53125 47.40625 23.390625 
Q 47.40625 31.296875 43.53125 35.828125 
Q 39.65625 40.375 33.015625 40.375 
z
M 52.59375 71.296875 
L 52.59375 62.3125 
Q 48.875 64.0625 45.09375 64.984375 
Q 41.3125 65.921875 37.59375 65.921875 
Q 27.828125 65.921875 22.671875 59.328125 
Q 17.53125 52.734375 16.796875 39.40625 
Q 19.671875 43.65625 24.015625 45.921875 
Q 28.375 48.1875 33.59375 48.1875 
Q 44.578125 48.1875 50.953125 41.515625 
Q 57.328125 34.859375 57.328125 23.390625 
Q 57.328125 12.15625 50.6875 5.359375 
Q 44.046875 -1.421875 33.015625 -1.421875 
Q 20.359375 -1.421875 13.671875 8.265625 
Q 6.984375 17.96875 6.984375 36.375 
Q 6.984375 53.65625 15.1875 63.9375 
Q 23.390625 74.21875 37.203125 74.21875 
Q 40.921875 74.21875 44.703125 73.484375 
Q 48.484375 72.75 52.59375 71.296875 
z
" id="DejaVuSans-36"/>
      </defs>
      <g transform="translate(305.835177 235.098437)scale(0.1 -0.1)">
       <use xlink:href="#DejaVuSans-30"/>
       <use x="63.623047" xlink:href="#DejaVuSans-2e"/>
       <use x="95.410156" xlink:href="#DejaVuSans-30"/>
       <use x="159.033203" xlink:href="#DejaVuSans-36"/>
      </g>
     </g>
    </g>
    <g id="text_8">
     <!-- Fractional importance in classifier (metabolites) -->
     <defs>
      <path d="M 9.8125 72.90625 
L 51.703125 72.90625 
L 51.703125 64.59375 
L 19.671875 64.59375 
L 19.671875 43.109375 
L 48.578125 43.109375 
L 48.578125 34.8125 
L 19.671875 34.8125 
L 19.671875 0 
L 9.8125 0 
z
" id="DejaVuSans-46"/>
      <path d="M 41.109375 46.296875 
Q 39.59375 47.171875 37.8125 47.578125 
Q 36.03125 48 33.890625 48 
Q 26.265625 48 22.1875 43.046875 
Q 18.109375 38.09375 18.109375 28.8125 
L 18.109375 0 
L 9.078125 0 
L 9.078125 54.6875 
L 18.109375 54.6875 
L 18.109375 46.1875 
Q 20.953125 51.171875 25.484375 53.578125 
Q 30.03125 56 36.53125 56 
Q 37.453125 56 38.578125 55.875 
Q 39.703125 55.765625 41.0625 55.515625 
z
" id="DejaVuSans-72"/>
      <path d="M 34.28125 27.484375 
Q 23.390625 27.484375 19.1875 25 
Q 14.984375 22.515625 14.984375 16.5 
Q 14.984375 11.71875 18.140625 8.90625 
Q 21.296875 6.109375 26.703125 6.109375 
Q 34.1875 6.109375 38.703125 11.40625 
Q 43.21875 16.703125 43.21875 25.484375 
L 43.21875 27.484375 
z
M 52.203125 31.203125 
L 52.203125 0 
L 43.21875 0 
L 43.21875 8.296875 
Q 40.140625 3.328125 35.546875 0.953125 
Q 30.953125 -1.421875 24.3125 -1.421875 
Q 15.921875 -1.421875 10.953125 3.296875 
Q 6 8.015625 6 15.921875 
Q 6 25.140625 12.171875 29.828125 
Q 18.359375 34.515625 30.609375 34.515625 
L 43.21875 34.515625 
L 43.21875 35.40625 
Q 43.21875 41.609375 39.140625 45 
Q 35.0625 48.390625 27.6875 48.390625 
Q 23 48.390625 18.546875 47.265625 
Q 14.109375 46.140625 10.015625 43.890625 
L 10.015625 52.203125 
Q 14.9375 54.109375 19.578125 55.046875 
Q 24.21875 56 28.609375 56 
Q 40.484375 56 46.34375 49.84375 
Q 52.203125 43.703125 52.203125 31.203125 
z
" id="DejaVuSans-61"/>
      <path d="M 48.78125 52.59375 
L 48.78125 44.1875 
Q 44.96875 46.296875 41.140625 47.34375 
Q 37.3125 48.390625 33.40625 48.390625 
Q 24.65625 48.390625 19.8125 42.84375 
Q 14.984375 37.3125 14.984375 27.296875 
Q 14.984375 17.28125 19.8125 11.734375 
Q 24.65625 6.203125 33.40625 6.203125 
Q 37.3125 6.203125 41.140625 7.25 
Q 44.96875 8.296875 48.78125 10.40625 
L 48.78125 2.09375 
Q 45.015625 0.34375 40.984375 -0.53125 
Q 36.96875 -1.421875 32.421875 -1.421875 
Q 20.0625 -1.421875 12.78125 6.34375 
Q 5.515625 14.109375 5.515625 27.296875 
Q 5.515625 40.671875 12.859375 48.328125 
Q 20.21875 56 33.015625 56 
Q 37.15625 56 41.109375 55.140625 
Q 45.0625 54.296875 48.78125 52.59375 
z
" id="DejaVuSans-63"/>
      <path d="M 18.3125 70.21875 
L 18.3125 54.6875 
L 36.8125 54.6875 
L 36.8125 47.703125 
L 18.3125 47.703125 
L 18.3125 18.015625 
Q 18.3125 11.328125 20.140625 9.421875 
Q 21.96875 7.515625 27.59375 7.515625 
L 36.8125 7.515625 
L 36.8125 0 
L 27.59375 0 
Q 17.1875 0 13.234375 3.875 
Q 9.28125 7.765625 9.28125 18.015625 
L 9.28125 47.703125 
L 2.6875 47.703125 
L 2.6875 54.6875 
L 9.28125 54.6875 
L 9.28125 70.21875 
z
" id="DejaVuSans-74"/>
      <path d="M 9.421875 54.6875 
L 18.40625 54.6875 
L 18.40625 0 
L 9.421875 0 
z
M 9.421875 75.984375 
L 18.40625 75.984375 
L 18.40625 64.59375 
L 9.421875 64.59375 
z
" id="DejaVuSans-69"/>
      <path d="M 30.609375 48.390625 
Q 23.390625 48.390625 19.1875 42.75 
Q 14.984375 37.109375 14.984375 27.296875 
Q 14.984375 17.484375 19.15625 11.84375 
Q 23.34375 6.203125 30.609375 6.203125 
Q 37.796875 6.203125 41.984375 11.859375 
Q 46.1875 17.53125 46.1875 27.296875 
Q 46.1875 37.015625 41.984375 42.703125 
Q 37.796875 48.390625 30.609375 48.390625 
z
M 30.609375 56 
Q 42.328125 56 49.015625 48.375 
Q 55.71875 40.765625 55.71875 27.296875 
Q 55.71875 13.875 49.015625 6.21875 
Q 42.328125 -1.421875 30.609375 -1.421875 
Q 18.84375 -1.421875 12.171875 6.21875 
Q 5.515625 13.875 5.515625 27.296875 
Q 5.515625 40.765625 12.171875 48.375 
Q 18.84375 56 30.609375 56 
z
" id="DejaVuSans-6f"/>
      <path d="M 54.890625 33.015625 
L 54.890625 0 
L 45.90625 0 
L 45.90625 32.71875 
Q 45.90625 40.484375 42.875 44.328125 
Q 39.84375 48.1875 33.796875 48.1875 
Q 26.515625 48.1875 22.3125 43.546875 
Q 18.109375 38.921875 18.109375 30.90625 
L 18.109375 0 
L 9.078125 0 
L 9.078125 54.6875 
L 18.109375 54.6875 
L 18.109375 46.1875 
Q 21.34375 51.125 25.703125 53.5625 
Q 30.078125 56 35.796875 56 
Q 45.21875 56 50.046875 50.171875 
Q 54.890625 44.34375 54.890625 33.015625 
z
" id="DejaVuSans-6e"/>
      <path d="M 9.421875 75.984375 
L 18.40625 75.984375 
L 18.40625 0 
L 9.421875 0 
z
" id="DejaVuSans-6c"/>
      <path id="DejaVuSans-20"/>
      <path d="M 52 44.1875 
Q 55.375 50.25 60.0625 53.125 
Q 64.75 56 71.09375 56 
Q 79.640625 56 84.28125 50.015625 
Q 88.921875 44.046875 88.921875 33.015625 
L 88.921875 0 
L 79.890625 0 
L 79.890625 32.71875 
Q 79.890625 40.578125 77.09375 44.375 
Q 74.3125 48.1875 68.609375 48.1875 
Q 61.625 48.1875 57.5625 43.546875 
Q 53.515625 38.921875 53.515625 30.90625 
L 53.515625 0 
L 44.484375 0 
L 44.484375 32.71875 
Q 44.484375 40.625 41.703125 44.40625 
Q 38.921875 48.1875 33.109375 48.1875 
Q 26.21875 48.1875 22.15625 43.53125 
Q 18.109375 38.875 18.109375 30.90625 
L 18.109375 0 
L 9.078125 0 
L 9.078125 54.6875 
L 18.109375 54.6875 
L 18.109375 46.1875 
Q 21.1875 51.21875 25.484375 53.609375 
Q 29.78125 56 35.6875 56 
Q 41.65625 56 45.828125 52.96875 
Q 50 49.953125 52 44.1875 
z
" id="DejaVuSans-6d"/>
      <path d="M 18.109375 8.203125 
L 18.109375 -20.796875 
L 9.078125 -20.796875 
L 9.078125 54.6875 
L 18.109375 54.6875 
L 18.109375 46.390625 
Q 20.953125 51.265625 25.265625 53.625 
Q 29.59375 56 35.59375 56 
Q 45.5625 56 51.78125 48.09375 
Q 58.015625 40.1875 58.015625 27.296875 
Q 58.015625 14.40625 51.78125 6.484375 
Q 45.5625 -1.421875 35.59375 -1.421875 
Q 29.59375 -1.421875 25.265625 0.953125 
Q 20.953125 3.328125 18.109375 8.203125 
z
M 48.6875 27.296875 
Q 48.6875 37.203125 44.609375 42.84375 
Q 40.53125 48.484375 33.40625 48.484375 
Q 26.265625 48.484375 22.1875 42.84375 
Q 18.109375 37.203125 18.109375 27.296875 
Q 18.109375 17.390625 22.1875 11.75 
Q 26.265625 6.109375 33.40625 6.109375 
Q 40.53125 6.109375 44.609375 11.75 
Q 48.6875 17.390625 48.6875 27.296875 
z
" id="DejaVuSans-70"/>
      <path d="M 56.203125 29.59375 
L 56.203125 25.203125 
L 14.890625 25.203125 
Q 15.484375 15.921875 20.484375 11.0625 
Q 25.484375 6.203125 34.421875 6.203125 
Q 39.59375 6.203125 44.453125 7.46875 
Q 49.3125 8.734375 54.109375 11.28125 
L 54.109375 2.78125 
Q 49.265625 0.734375 44.1875 -0.34375 
Q 39.109375 -1.421875 33.890625 -1.421875 
Q 20.796875 -1.421875 13.15625 6.1875 
Q 5.515625 13.8125 5.515625 26.8125 
Q 5.515625 40.234375 12.765625 48.109375 
Q 20.015625 56 32.328125 56 
Q 43.359375 56 49.78125 48.890625 
Q 56.203125 41.796875 56.203125 29.59375 
z
M 47.21875 32.234375 
Q 47.125 39.59375 43.09375 43.984375 
Q 39.0625 48.390625 32.421875 48.390625 
Q 24.90625 48.390625 20.390625 44.140625 
Q 15.875 39.890625 15.1875 32.171875 
z
" id="DejaVuSans-65"/>
      <path d="M 44.28125 53.078125 
L 44.28125 44.578125 
Q 40.484375 46.53125 36.375 47.5 
Q 32.28125 48.484375 27.875 48.484375 
Q 21.1875 48.484375 17.84375 46.4375 
Q 14.5 44.390625 14.5 40.28125 
Q 14.5 37.15625 16.890625 35.375 
Q 19.28125 33.59375 26.515625 31.984375 
L 29.59375 31.296875 
Q 39.15625 29.25 43.1875 25.515625 
Q 47.21875 21.78125 47.21875 15.09375 
Q 47.21875 7.46875 41.1875 3.015625 
Q 35.15625 -1.421875 24.609375 -1.421875 
Q 20.21875 -1.421875 15.453125 -0.5625 
Q 10.6875 0.296875 5.421875 2 
L 5.421875 11.28125 
Q 10.40625 8.6875 15.234375 7.390625 
Q 20.0625 6.109375 24.8125 6.109375 
Q 31.15625 6.109375 34.5625 8.28125 
Q 37.984375 10.453125 37.984375 14.40625 
Q 37.984375 18.0625 35.515625 20.015625 
Q 33.0625 21.96875 24.703125 23.78125 
L 21.578125 24.515625 
Q 13.234375 26.265625 9.515625 29.90625 
Q 5.8125 33.546875 5.8125 39.890625 
Q 5.8125 47.609375 11.28125 51.796875 
Q 16.75 56 26.8125 56 
Q 31.78125 56 36.171875 55.265625 
Q 40.578125 54.546875 44.28125 53.078125 
z
" id="DejaVuSans-73"/>
      <path d="M 37.109375 75.984375 
L 37.109375 68.5 
L 28.515625 68.5 
Q 23.6875 68.5 21.796875 66.546875 
Q 19.921875 64.59375 19.921875 59.515625 
L 19.921875 54.6875 
L 34.71875 54.6875 
L 34.71875 47.703125 
L 19.921875 47.703125 
L 19.921875 0 
L 10.890625 0 
L 10.890625 47.703125 
L 2.296875 47.703125 
L 2.296875 54.6875 
L 10.890625 54.6875 
L 10.890625 58.5 
Q 10.890625 67.625 15.140625 71.796875 
Q 19.390625 75.984375 28.609375 75.984375 
z
" id="DejaVuSans-66"/>
      <path d="M 31 75.875 
Q 24.46875 64.65625 21.28125 53.65625 
Q 18.109375 42.671875 18.109375 31.390625 
Q 18.109375 20.125 21.3125 9.0625 
Q 24.515625 -2 31 -13.1875 
L 23.1875 -13.1875 
Q 15.875 -1.703125 12.234375 9.375 
Q 8.59375 20.453125 8.59375 31.390625 
Q 8.59375 42.28125 12.203125 53.3125 
Q 15.828125 64.359375 23.1875 75.875 
z
" id="DejaVuSans-28"/>
      <path d="M 48.6875 27.296875 
Q 48.6875 37.203125 44.609375 42.84375 
Q 40.53125 48.484375 33.40625 48.484375 
Q 26.265625 48.484375 22.1875 42.84375 
Q 18.109375 37.203125 18.109375 27.296875 
Q 18.109375 17.390625 22.1875 11.75 
Q 26.265625 6.109375 33.40625 6.109375 
Q 40.53125 6.109375 44.609375 11.75 
Q 48.6875 17.390625 48.6875 27.296875 
z
M 18.109375 46.390625 
Q 20.953125 51.265625 25.265625 53.625 
Q 29.59375 56 35.59375 56 
Q 45.5625 56 51.78125 48.09375 
Q 58.015625 40.1875 58.015625 27.296875 
Q 58.015625 14.40625 51.78125 6.484375 
Q 45.5625 -1.421875 35.59375 -1.421875 
Q 29.59375 -1.421875 25.265625 0.953125 
Q 20.953125 3.328125 18.109375 8.203125 
L 18.109375 0 
L 9.078125 0 
L 9.078125 75.984375 
L 18.109375 75.984375 
z
" id="DejaVuSans-62"/>
      <path d="M 8.015625 75.875 
L 15.828125 75.875 
Q 23.140625 64.359375 26.78125 53.3125 
Q 30.421875 42.28125 30.421875 31.390625 
Q 30.421875 20.453125 26.78125 9.375 
Q 23.140625 -1.703125 15.828125 -13.1875 
L 8.015625 -13.1875 
Q 14.5 -2 17.703125 9.0625 
Q 20.90625 20.125 20.90625 31.390625 
Q 20.90625 42.671875 17.703125 53.65625 
Q 14.5 64.65625 8.015625 75.875 
z
" id="DejaVuSans-29"/>
     </defs>
     <g transform="translate(64.641406 248.776563)scale(0.1 -0.1)">
      <use xlink:href="#DejaVuSans-46"/>
      <use x="57.410156" xlink:href="#DejaVuSans-72"/>
      <use x="98.523438" xlink:href="#DejaVuSans-61"/>
      <use x="159.802734" xlink:href="#DejaVuSans-63"/>
      <use x="214.783203" xlink:href="#DejaVuSans-74"/>
      <use x="253.992188" xlink:href="#DejaVuSans-69"/>
      <use x="281.775391" xlink:href="#DejaVuSans-6f"/>
      <use x="342.957031" xlink:href="#DejaVuSans-6e"/>
      <use x="406.335938" xlink:href="#DejaVuSans-61"/>
      <use x="467.615234" xlink:href="#DejaVuSans-6c"/>
      <use x="495.398438" xlink:href="#DejaVuSans-20"/>
      <use x="527.185547" xlink:href="#DejaVuSans-69"/>
      <use x="554.96875" xlink:href="#DejaVuSans-6d"/>
      <use x="652.380859" xlink:href="#DejaVuSans-70"/>
      <use x="715.857422" xlink:href="#DejaVuSans-6f"/>
      <use x="777.039062" xlink:href="#DejaVuSans-72"/>
      <use x="818.152344" xlink:href="#DejaVuSans-74"/>
      <use x="857.361328" xlink:href="#DejaVuSans-61"/>
      <use x="918.640625" xlink:href="#DejaVuSans-6e"/>
      <use x="982.019531" xlink:href="#DejaVuSans-63"/>
      <use x="1037" xlink:href="#DejaVuSans-65"/>
      <use x="1098.523438" xlink:href="#DejaVuSans-20"/>
      <use x="1130.310547" xlink:href="#DejaVuSans-69"/>
      <use x="1158.09375" xlink:href="#DejaVuSans-6e"/>
      <use x="1221.472656" xlink:href="#DejaVuSans-20"/>
      <use x="1253.259766" xlink:href="#DejaVuSans-63"/>
      <use x="1308.240234" xlink:href="#DejaVuSans-6c"/>
      <use x="1336.023438" xlink:href="#DejaVuSans-61"/>
      <use x="1397.302734" xlink:href="#DejaVuSans-73"/>
      <use x="1449.402344" xlink:href="#DejaVuSans-73"/>
      <use x="1501.501953" xlink:href="#DejaVuSans-69"/>
      <use x="1529.285156" xlink:href="#DejaVuSans-66"/>
      <use x="1564.490234" xlink:href="#DejaVuSans-69"/>
      <use x="1592.273438" xlink:href="#DejaVuSans-65"/>
      <use x="1653.796875" xlink:href="#DejaVuSans-72"/>
      <use x="1694.910156" xlink:href="#DejaVuSans-20"/>
      <use x="1726.697266" xlink:href="#DejaVuSans-28"/>
      <use x="1765.710938" xlink:href="#DejaVuSans-6d"/>
      <use x="1863.123047" xlink:href="#DejaVuSans-65"/>
      <use x="1924.646484" xlink:href="#DejaVuSans-74"/>
      <use x="1963.855469" xlink:href="#DejaVuSans-61"/>
      <use x="2025.134766" xlink:href="#DejaVuSans-62"/>
      <use x="2088.611328" xlink:href="#DejaVuSans-6f"/>
      <use x="2149.792969" xlink:href="#DejaVuSans-6c"/>
      <use x="2177.576172" xlink:href="#DejaVuSans-69"/>
      <use x="2205.359375" xlink:href="#DejaVuSans-74"/>
      <use x="2244.568359" xlink:href="#DejaVuSans-65"/>
      <use x="2306.091797" xlink:href="#DejaVuSans-73"/>
      <use x="2358.191406" xlink:href="#DejaVuSans-29"/>
     </g>
    </g>
   </g>
   <g id="matplotlib.axis_2">
    <g id="ytick_1">
     <g id="line2d_8">
      <defs>
       <path d="M 0 0 
L -3.5 0 
" id="me17d82bcd1" style="stroke:#000000;stroke-width:0.8;"/>
      </defs>
      <g>
       <use style="stroke:#000000;stroke-width:0.8;" x="45" xlink:href="#me17d82bcd1" y="211.851818"/>
      </g>
     </g>
     <g id="text_9">
      <!-- $\mathdefault{10^{0}}$ -->
      <g transform="translate(20.4 215.651037)scale(0.1 -0.1)">
       <use transform="translate(0 0.765625)" xlink:href="#DejaVuSans-31"/>
       <use transform="translate(63.623047 0.765625)" xlink:href="#DejaVuSans-30"/>
       <use transform="translate(128.203125 39.046875)scale(0.7)" xlink:href="#DejaVuSans-30"/>
      </g>
     </g>
    </g>
    <g id="ytick_2">
     <g id="line2d_9">
      <g>
       <use style="stroke:#000000;stroke-width:0.8;" x="45" xlink:href="#me17d82bcd1" y="138.61576"/>
      </g>
     </g>
     <g id="text_10">
      <!-- $\mathdefault{10^{1}}$ -->
      <g transform="translate(20.4 142.414979)scale(0.1 -0.1)">
       <use transform="translate(0 0.684375)" xlink:href="#DejaVuSans-31"/>
       <use transform="translate(63.623047 0.684375)" xlink:href="#DejaVuSans-30"/>
       <use transform="translate(128.203125 38.965625)scale(0.7)" xlink:href="#DejaVuSans-31"/>
      </g>
     </g>
    </g>
    <g id="ytick_3">
     <g id="line2d_10">
      <g>
       <use style="stroke:#000000;stroke-width:0.8;" x="45" xlink:href="#me17d82bcd1" y="65.379703"/>
      </g>
     </g>
     <g id="text_11">
      <!-- $\mathdefault{10^{2}}$ -->
      <g transform="translate(20.4 69.178921)scale(0.1 -0.1)">
       <use transform="translate(0 0.765625)" xlink:href="#DejaVuSans-31"/>
       <use transform="translate(63.623047 0.765625)" xlink:href="#DejaVuSans-30"/>
       <use transform="translate(128.203125 39.046875)scale(0.7)" xlink:href="#DejaVuSans-32"/>
      </g>
     </g>
    </g>
    <g id="ytick_4">
     <g id="line2d_11">
      <defs>
       <path d="M 0 0 
L -2 0 
" id="m7ed9f57880" style="stroke:#000000;stroke-width:0.6;"/>
      </defs>
      <g>
       <use style="stroke:#000000;stroke-width:0.6;" x="45" xlink:href="#m7ed9f57880" y="218.949125"/>
      </g>
     </g>
    </g>
    <g id="ytick_5">
     <g id="line2d_12">
      <g>
       <use style="stroke:#000000;stroke-width:0.6;" x="45" xlink:href="#m7ed9f57880" y="215.202916"/>
      </g>
     </g>
    </g>
    <g id="ytick_6">
     <g id="line2d_13">
      <g>
       <use style="stroke:#000000;stroke-width:0.6;" x="45" xlink:href="#m7ed9f57880" y="189.805568"/>
      </g>
     </g>
    </g>
    <g id="ytick_7">
     <g id="line2d_14">
      <g>
       <use style="stroke:#000000;stroke-width:0.6;" x="45" xlink:href="#m7ed9f57880" y="176.909338"/>
      </g>
     </g>
    </g>
    <g id="ytick_8">
     <g id="line2d_15">
      <g>
       <use style="stroke:#000000;stroke-width:0.6;" x="45" xlink:href="#m7ed9f57880" y="167.759318"/>
      </g>
     </g>
    </g>
    <g id="ytick_9">
     <g id="line2d_16">
      <g>
       <use style="stroke:#000000;stroke-width:0.6;" x="45" xlink:href="#m7ed9f57880" y="160.662011"/>
      </g>
     </g>
    </g>
    <g id="ytick_10">
     <g id="line2d_17">
      <g>
       <use style="stroke:#000000;stroke-width:0.6;" x="45" xlink:href="#m7ed9f57880" y="154.863088"/>
      </g>
     </g>
    </g>
    <g id="ytick_11">
     <g id="line2d_18">
      <g>
       <use style="stroke:#000000;stroke-width:0.6;" x="45" xlink:href="#m7ed9f57880" y="149.960169"/>
      </g>
     </g>
    </g>
    <g id="ytick_12">
     <g id="line2d_19">
      <g>
       <use style="stroke:#000000;stroke-width:0.6;" x="45" xlink:href="#m7ed9f57880" y="145.713068"/>
      </g>
     </g>
    </g>
    <g id="ytick_13">
     <g id="line2d_20">
      <g>
       <use style="stroke:#000000;stroke-width:0.6;" x="45" xlink:href="#m7ed9f57880" y="141.966859"/>
      </g>
     </g>
    </g>
    <g id="ytick_14">
     <g id="line2d_21">
      <g>
       <use style="stroke:#000000;stroke-width:0.6;" x="45" xlink:href="#m7ed9f57880" y="116.56951"/>
      </g>
     </g>
    </g>
    <g id="ytick_15">
     <g id="line2d_22">
      <g>
       <use style="stroke:#000000;stroke-width:0.6;" x="45" xlink:href="#m7ed9f57880" y="103.673281"/>
      </g>
     </g>
    </g>
    <g id="ytick_16">
     <g id="line2d_23">
      <g>
       <use style="stroke:#000000;stroke-width:0.6;" x="45" xlink:href="#m7ed9f57880" y="94.52326"/>
      </g>
     </g>
    </g>
    <g id="ytick_17">
     <g id="line2d_24">
      <g>
       <use style="stroke:#000000;stroke-width:0.6;" x="45" xlink:href="#m7ed9f57880" y="87.425953"/>
      </g>
     </g>
    </g>
    <g id="ytick_18">
     <g id="line2d_25">
      <g>
       <use style="stroke:#000000;stroke-width:0.6;" x="45" xlink:href="#m7ed9f57880" y="81.62703"/>
      </g>
     </g>
    </g>
    <g id="ytick_19">
     <g id="line2d_26">
      <g>
       <use style="stroke:#000000;stroke-width:0.6;" x="45" xlink:href="#m7ed9f57880" y="76.724111"/>
      </g>
     </g>
    </g>
    <g id="ytick_20">
     <g id="line2d_27">
      <g>
       <use style="stroke:#000000;stroke-width:0.6;" x="45" xlink:href="#m7ed9f57880" y="72.47701"/>
      </g>
     </g>
    </g>
    <g id="ytick_21">
     <g id="line2d_28">
      <g>
       <use style="stroke:#000000;stroke-width:0.6;" x="45" xlink:href="#m7ed9f57880" y="68.730801"/>
      </g>
     </g>
    </g>
    <g id="ytick_22">
     <g id="line2d_29">
      <g>
       <use style="stroke:#000000;stroke-width:0.6;" x="45" xlink:href="#m7ed9f57880" y="43.333452"/>
      </g>
     </g>
    </g>
    <g id="ytick_23">
     <g id="line2d_30">
      <g>
       <use style="stroke:#000000;stroke-width:0.6;" x="45" xlink:href="#m7ed9f57880" y="30.437223"/>
      </g>
     </g>
    </g>
    <g id="text_12">
     <!-- Feature count -->
     <defs>
      <path d="M 8.5 21.578125 
L 8.5 54.6875 
L 17.484375 54.6875 
L 17.484375 21.921875 
Q 17.484375 14.15625 20.5 10.265625 
Q 23.53125 6.390625 29.59375 6.390625 
Q 36.859375 6.390625 41.078125 11.03125 
Q 45.3125 15.671875 45.3125 23.6875 
L 45.3125 54.6875 
L 54.296875 54.6875 
L 54.296875 0 
L 45.3125 0 
L 45.3125 8.40625 
Q 42.046875 3.421875 37.71875 1 
Q 33.40625 -1.421875 27.6875 -1.421875 
Q 18.265625 -1.421875 13.375 4.4375 
Q 8.5 10.296875 8.5 21.578125 
z
M 31.109375 56 
z
" id="DejaVuSans-75"/>
     </defs>
     <g transform="translate(14.320312 160.337187)rotate(-90)scale(0.1 -0.1)">
      <use xlink:href="#DejaVuSans-46"/>
      <use x="57.441406" xlink:href="#DejaVuSans-65"/>
      <use x="118.964844" xlink:href="#DejaVuSans-61"/>
      <use x="180.244141" xlink:href="#DejaVuSans-74"/>
      <use x="219.453125" xlink:href="#DejaVuSans-75"/>
      <use x="282.832031" xlink:href="#DejaVuSans-72"/>
      <use x="323.914062" xlink:href="#DejaVuSans-65"/>
      <use x="385.4375" xlink:href="#DejaVuSans-20"/>
      <use x="417.224609" xlink:href="#DejaVuSans-63"/>
      <use x="472.205078" xlink:href="#DejaVuSans-6f"/>
      <use x="533.386719" xlink:href="#DejaVuSans-75"/>
      <use x="596.765625" xlink:href="#DejaVuSans-6e"/>
      <use x="660.144531" xlink:href="#DejaVuSans-74"/>
     </g>
    </g>
   </g>
   <g id="patch_53">
    <path d="M 45 220.5 
L 45 30.24 
" style="fill:none;stroke:#000000;stroke-linecap:square;stroke-linejoin:miter;stroke-width:0.8;"/>
   </g>
   <g id="patch_54">
    <path d="M 324 220.5 
L 324 30.24 
" style="fill:none;stroke:#000000;stroke-linecap:square;stroke-linejoin:miter;stroke-width:0.8;"/>
   </g>
   <g id="patch_55">
    <path d="M 45 220.5 
L 324 220.5 
" style="fill:none;stroke:#000000;stroke-linecap:square;stroke-linejoin:miter;stroke-width:0.8;"/>
   </g>
   <g id="patch_56">
    <path d="M 45 30.24 
L 324 30.24 
" style="fill:none;stroke:#000000;stroke-linecap:square;stroke-linejoin:miter;stroke-width:0.8;"/>
   </g>
   <g id="text_13">
    <!-- Pan-species distribution of mean metabolite importances -->
    <defs>
     <path d="M 19.671875 64.796875 
L 19.671875 37.40625 
L 32.078125 37.40625 
Q 38.96875 37.40625 42.71875 40.96875 
Q 46.484375 44.53125 46.484375 51.125 
Q 46.484375 57.671875 42.71875 61.234375 
Q 38.96875 64.796875 32.078125 64.796875 
z
M 9.8125 72.90625 
L 32.078125 72.90625 
Q 44.34375 72.90625 50.609375 67.359375 
Q 56.890625 61.8125 56.890625 51.125 
Q 56.890625 40.328125 50.609375 34.8125 
Q 44.34375 29.296875 32.078125 29.296875 
L 19.671875 29.296875 
L 19.671875 0 
L 9.8125 0 
z
" id="DejaVuSans-50"/>
     <path d="M 4.890625 31.390625 
L 31.203125 31.390625 
L 31.203125 23.390625 
L 4.890625 23.390625 
z
" id="DejaVuSans-2d"/>
     <path d="M 45.40625 46.390625 
L 45.40625 75.984375 
L 54.390625 75.984375 
L 54.390625 0 
L 45.40625 0 
L 45.40625 8.203125 
Q 42.578125 3.328125 38.25 0.953125 
Q 33.9375 -1.421875 27.875 -1.421875 
Q 17.96875 -1.421875 11.734375 6.484375 
Q 5.515625 14.40625 5.515625 27.296875 
Q 5.515625 40.1875 11.734375 48.09375 
Q 17.96875 56 27.875 56 
Q 33.9375 56 38.25 53.625 
Q 42.578125 51.265625 45.40625 46.390625 
z
M 14.796875 27.296875 
Q 14.796875 17.390625 18.875 11.75 
Q 22.953125 6.109375 30.078125 6.109375 
Q 37.203125 6.109375 41.296875 11.75 
Q 45.40625 17.390625 45.40625 27.296875 
Q 45.40625 37.203125 41.296875 42.84375 
Q 37.203125 48.484375 30.078125 48.484375 
Q 22.953125 48.484375 18.875 42.84375 
Q 14.796875 37.203125 14.796875 27.296875 
z
" id="DejaVuSans-64"/>
    </defs>
    <g transform="translate(12.477188 24.24)scale(0.12 -0.12)">
     <use xlink:href="#DejaVuSans-50"/>
     <use x="60.240234" xlink:href="#DejaVuSans-61"/>
     <use x="121.519531" xlink:href="#DejaVuSans-6e"/>
     <use x="184.898438" xlink:href="#DejaVuSans-2d"/>
     <use x="220.982422" xlink:href="#DejaVuSans-73"/>
     <use x="273.082031" xlink:href="#DejaVuSans-70"/>
     <use x="336.558594" xlink:href="#DejaVuSans-65"/>
     <use x="398.082031" xlink:href="#DejaVuSans-63"/>
     <use x="453.0625" xlink:href="#DejaVuSans-69"/>
     <use x="480.845703" xlink:href="#DejaVuSans-65"/>
     <use x="542.369141" xlink:href="#DejaVuSans-73"/>
     <use x="594.46875" xlink:href="#DejaVuSans-20"/>
     <use x="626.255859" xlink:href="#DejaVuSans-64"/>
     <use x="689.732422" xlink:href="#DejaVuSans-69"/>
     <use x="717.515625" xlink:href="#DejaVuSans-73"/>
     <use x="769.615234" xlink:href="#DejaVuSans-74"/>
     <use x="808.824219" xlink:href="#DejaVuSans-72"/>
     <use x="849.9375" xlink:href="#DejaVuSans-69"/>
     <use x="877.720703" xlink:href="#DejaVuSans-62"/>
     <use x="941.197266" xlink:href="#DejaVuSans-75"/>
     <use x="1004.576172" xlink:href="#DejaVuSans-74"/>
     <use x="1043.785156" xlink:href="#DejaVuSans-69"/>
     <use x="1071.568359" xlink:href="#DejaVuSans-6f"/>
     <use x="1132.75" xlink:href="#DejaVuSans-6e"/>
     <use x="1196.128906" xlink:href="#DejaVuSans-20"/>
     <use x="1227.916016" xlink:href="#DejaVuSans-6f"/>
     <use x="1289.097656" xlink:href="#DejaVuSans-66"/>
     <use x="1324.302734" xlink:href="#DejaVuSans-20"/>
     <use x="1356.089844" xlink:href="#DejaVuSans-6d"/>
     <use x="1453.501953" xlink:href="#DejaVuSans-65"/>
     <use x="1515.025391" xlink:href="#DejaVuSans-61"/>
     <use x="1576.304688" xlink:href="#DejaVuSans-6e"/>
     <use x="1639.683594" xlink:href="#DejaVuSans-20"/>
     <use x="1671.470703" xlink:href="#DejaVuSans-6d"/>
     <use x="1768.882812" xlink:href="#DejaVuSans-65"/>
     <use x="1830.40625" xlink:href="#DejaVuSans-74"/>
     <use x="1869.615234" xlink:href="#DejaVuSans-61"/>
     <use x="1930.894531" xlink:href="#DejaVuSans-62"/>
     <use x="1994.371094" xlink:href="#DejaVuSans-6f"/>
     <use x="2055.552734" xlink:href="#DejaVuSans-6c"/>
     <use x="2083.335938" xlink:href="#DejaVuSans-69"/>
     <use x="2111.119141" xlink:href="#DejaVuSans-74"/>
     <use x="2150.328125" xlink:href="#DejaVuSans-65"/>
     <use x="2211.851562" xlink:href="#DejaVuSans-20"/>
     <use x="2243.638672" xlink:href="#DejaVuSans-69"/>
     <use x="2271.421875" xlink:href="#DejaVuSans-6d"/>
     <use x="2368.833984" xlink:href="#DejaVuSans-70"/>
     <use x="2432.310547" xlink:href="#DejaVuSans-6f"/>
     <use x="2493.492188" xlink:href="#DejaVuSans-72"/>
     <use x="2534.605469" xlink:href="#DejaVuSans-74"/>
     <use x="2573.814453" xlink:href="#DejaVuSans-61"/>
     <use x="2635.09375" xlink:href="#DejaVuSans-6e"/>
     <use x="2698.472656" xlink:href="#DejaVuSans-63"/>
     <use x="2753.453125" xlink:href="#DejaVuSans-65"/>
     <use x="2814.976562" xlink:href="#DejaVuSans-73"/>
    </g>
   </g>
  </g>
 </g>
 <defs>
  <clipPath id="p0686694d16">
   <rect height="190.26" width="279" x="45" y="30.24"/>
  </clipPath>
 </defs>
</svg>
