<?xml version="1.0" encoding="utf-8" standalone="no"?>
<!DOCTYPE svg PUBLIC "-//W3C//DTD SVG 1.1//EN"
  "http://www.w3.org/Graphics/SVG/1.1/DTD/svg11.dtd">
<!-- Created with matplotlib (https://matplotlib.org/) -->
<svg height="252pt" version="1.1" viewBox="0 0 360 252" width="360pt" xmlns="http://www.w3.org/2000/svg" xmlns:xlink="http://www.w3.org/1999/xlink">
 <defs>
  <style type="text/css">
*{stroke-linecap:butt;stroke-linejoin:round;}
  </style>
 </defs>
 <g id="figure_1">
  <g id="patch_1">
   <path d="M 0 252 
L 360 252 
L 360 0 
L 0 0 
z
" style="fill:#ffffff;"/>
  </g>
  <g id="axes_1">
   <g id="patch_2">
    <path d="M 45 220.5 
L 324 220.5 
L 324 30.24 
L 45 30.24 
z
" style="fill:#ffffff;"/>
   </g>
   <g id="PathCollection_1">
    <defs>
     <path d="M 0 5 
C 1.326016 5 2.597899 4.473168 3.535534 3.535534 
C 4.473168 2.597899 5 1.326016 5 0 
C 5 -1.326016 4.473168 -2.597899 3.535534 -3.535534 
C 2.597899 -4.473168 1.326016 -5 0 -5 
C -1.326016 -5 -2.597899 -4.473168 -3.535534 -3.535534 
C -4.473168 -2.597899 -5 -1.326016 -5 0 
C -5 1.326016 -4.473168 2.597899 -3.535534 3.535534 
C -2.597899 4.473168 -1.326016 5 0 5 
z
" id="m623cf3d764" style="stroke:#000000;stroke-opacity:0.3;"/>
    </defs>
    <g clip-path="url(#p30c9d5cf47)">
     <use style="fill-opacity:0.3;stroke:#000000;stroke-opacity:0.3;" x="73.184211" xlink:href="#m623cf3d764" y="215.882569"/>
     <use style="fill-opacity:0.3;stroke:#000000;stroke-opacity:0.3;" x="96.244019" xlink:href="#m623cf3d764" y="213.528841"/>
     <use style="fill-opacity:0.3;stroke:#000000;stroke-opacity:0.3;" x="45" xlink:href="#m623cf3d764" y="153.546232"/>
     <use style="fill-opacity:0.3;stroke:#000000;stroke-opacity:0.3;" x="310.557895" xlink:href="#m623cf3d764" y="217.616171"/>
     <use style="fill-opacity:0.3;stroke:#000000;stroke-opacity:0.3;" x="45" xlink:href="#m623cf3d764" y="220.490628"/>
     <use style="fill-opacity:0.3;stroke:#000000;stroke-opacity:0.3;" x="116.741627" xlink:href="#m623cf3d764" y="192.39566"/>
     <use style="fill-opacity:0.3;stroke:#000000;stroke-opacity:0.3;" x="172.376305" xlink:href="#m623cf3d764" y="216.154393"/>
     <use style="fill-opacity:0.3;stroke:#000000;stroke-opacity:0.3;" x="45" xlink:href="#m623cf3d764" y="206.274536"/>
     <use style="fill-opacity:0.3;stroke:#000000;stroke-opacity:0.3;" x="45" xlink:href="#m623cf3d764" y="200.757046"/>
     <use style="fill-opacity:0.3;stroke:#000000;stroke-opacity:0.3;" x="45" xlink:href="#m623cf3d764" y="210.877557"/>
     <use style="fill-opacity:0.3;stroke:#000000;stroke-opacity:0.3;" x="137.407372" xlink:href="#m623cf3d764" y="197.868516"/>
     <use style="fill-opacity:0.3;stroke:#000000;stroke-opacity:0.3;" x="130.184154" xlink:href="#m623cf3d764" y="219.220611"/>
     <use style="fill-opacity:0.3;stroke:#000000;stroke-opacity:0.3;" x="305.161943" xlink:href="#m623cf3d764" y="216.842059"/>
     <use style="fill-opacity:0.3;stroke:#000000;stroke-opacity:0.3;" x="45" xlink:href="#m623cf3d764" y="218.638658"/>
     <use style="fill-opacity:0.3;stroke:#000000;stroke-opacity:0.3;" x="262.956881" xlink:href="#m623cf3d764" y="215.584857"/>
     <use style="fill-opacity:0.3;stroke:#000000;stroke-opacity:0.3;" x="193.015019" xlink:href="#m623cf3d764" y="216.689961"/>
     <use style="fill-opacity:0.3;stroke:#000000;stroke-opacity:0.3;" x="108.242781" xlink:href="#m623cf3d764" y="219.595471"/>
     <use style="fill-opacity:0.3;stroke:#000000;stroke-opacity:0.3;" x="45" xlink:href="#m623cf3d764" y="220.5"/>
     <use style="fill-opacity:0.3;stroke:#000000;stroke-opacity:0.3;" x="237.224769" xlink:href="#m623cf3d764" y="213.305589"/>
     <use style="fill-opacity:0.3;stroke:#000000;stroke-opacity:0.3;" x="45" xlink:href="#m623cf3d764" y="153.546232"/>
     <use style="fill-opacity:0.3;stroke:#000000;stroke-opacity:0.3;" x="142.393883" xlink:href="#m623cf3d764" y="191.353687"/>
     <use style="fill-opacity:0.3;stroke:#000000;stroke-opacity:0.3;" x="45" xlink:href="#m623cf3d764" y="220.5"/>
     <use style="fill-opacity:0.3;stroke:#000000;stroke-opacity:0.3;" x="226.479285" xlink:href="#m623cf3d764" y="217.104018"/>
     <use style="fill-opacity:0.3;stroke:#000000;stroke-opacity:0.3;" x="75.246547" xlink:href="#m623cf3d764" y="218.068882"/>
     <use style="fill-opacity:0.3;stroke:#000000;stroke-opacity:0.3;" x="94.690757" xlink:href="#m623cf3d764" y="218.017529"/>
     <use style="fill-opacity:0.3;stroke:#000000;stroke-opacity:0.3;" x="57.969725" xlink:href="#m623cf3d764" y="100.797963"/>
     <use style="fill-opacity:0.3;stroke:#000000;stroke-opacity:0.3;" x="45" xlink:href="#m623cf3d764" y="220.29063"/>
     <use style="fill-opacity:0.3;stroke:#000000;stroke-opacity:0.3;" x="77.152842" xlink:href="#m623cf3d764" y="201.081618"/>
     <use style="fill-opacity:0.3;stroke:#000000;stroke-opacity:0.3;" x="76.621391" xlink:href="#m623cf3d764" y="190.075783"/>
     <use style="fill-opacity:0.3;stroke:#000000;stroke-opacity:0.3;" x="45" xlink:href="#m623cf3d764" y="219.459021"/>
     <use style="fill-opacity:0.3;stroke:#000000;stroke-opacity:0.3;" x="308.140331" xlink:href="#m623cf3d764" y="217.421563"/>
     <use style="fill-opacity:0.3;stroke:#000000;stroke-opacity:0.3;" x="150.625378" xlink:href="#m623cf3d764" y="203.417933"/>
     <use style="fill-opacity:0.3;stroke:#000000;stroke-opacity:0.3;" x="45" xlink:href="#m623cf3d764" y="220.29063"/>
     <use style="fill-opacity:0.3;stroke:#000000;stroke-opacity:0.3;" x="45" xlink:href="#m623cf3d764" y="220.5"/>
     <use style="fill-opacity:0.3;stroke:#000000;stroke-opacity:0.3;" x="283.343187" xlink:href="#m623cf3d764" y="217.314545"/>
     <use style="fill-opacity:0.3;stroke:#000000;stroke-opacity:0.3;" x="45" xlink:href="#m623cf3d764" y="220.387306"/>
     <use style="fill-opacity:0.3;stroke:#000000;stroke-opacity:0.3;" x="228.855799" xlink:href="#m623cf3d764" y="218.056972"/>
     <use style="fill-opacity:0.3;stroke:#000000;stroke-opacity:0.3;" x="270.473684" xlink:href="#m623cf3d764" y="220.451186"/>
     <use style="fill-opacity:0.3;stroke:#000000;stroke-opacity:0.3;" x="45" xlink:href="#m623cf3d764" y="220.5"/>
     <use style="fill-opacity:0.3;stroke:#000000;stroke-opacity:0.3;" x="45" xlink:href="#m623cf3d764" y="219.459021"/>
     <use style="fill-opacity:0.3;stroke:#000000;stroke-opacity:0.3;" x="45" xlink:href="#m623cf3d764" y="219.459021"/>
     <use style="fill-opacity:0.3;stroke:#000000;stroke-opacity:0.3;" x="323.872292" xlink:href="#m623cf3d764" y="220.009787"/>
     <use style="fill-opacity:0.3;stroke:#000000;stroke-opacity:0.3;" x="120.616369" xlink:href="#m623cf3d764" y="214.632451"/>
     <use style="fill-opacity:0.3;stroke:#000000;stroke-opacity:0.3;" x="45" xlink:href="#m623cf3d764" y="219.459021"/>
     <use style="fill-opacity:0.3;stroke:#000000;stroke-opacity:0.3;" x="45" xlink:href="#m623cf3d764" y="219.402288"/>
     <use style="fill-opacity:0.3;stroke:#000000;stroke-opacity:0.3;" x="269.526316" xlink:href="#m623cf3d764" y="217.26209"/>
     <use style="fill-opacity:0.3;stroke:#000000;stroke-opacity:0.3;" x="179.356981" xlink:href="#m623cf3d764" y="217.692791"/>
     <use style="fill-opacity:0.3;stroke:#000000;stroke-opacity:0.3;" x="322.260926" xlink:href="#m623cf3d764" y="219.822551"/>
     <use style="fill-opacity:0.3;stroke:#000000;stroke-opacity:0.3;" x="45" xlink:href="#m623cf3d764" y="219.826705"/>
     <use style="fill-opacity:0.3;stroke:#000000;stroke-opacity:0.3;" x="45" xlink:href="#m623cf3d764" y="191.222198"/>
     <use style="fill-opacity:0.3;stroke:#000000;stroke-opacity:0.3;" x="82.578947" xlink:href="#m623cf3d764" y="220.40224"/>
     <use style="fill-opacity:0.3;stroke:#000000;stroke-opacity:0.3;" x="50.56101" xlink:href="#m623cf3d764" y="30.24"/>
     <use style="fill-opacity:0.3;stroke:#000000;stroke-opacity:0.3;" x="256.185715" xlink:href="#m623cf3d764" y="219.831271"/>
     <use style="fill-opacity:0.3;stroke:#000000;stroke-opacity:0.3;" x="257.960385" xlink:href="#m623cf3d764" y="219.938999"/>
     <use style="fill-opacity:0.3;stroke:#000000;stroke-opacity:0.3;" x="120.157895" xlink:href="#m623cf3d764" y="220.236826"/>
     <use style="fill-opacity:0.3;stroke:#000000;stroke-opacity:0.3;" x="214.675754" xlink:href="#m623cf3d764" y="219.844743"/>
     <use style="fill-opacity:0.3;stroke:#000000;stroke-opacity:0.3;" x="298.399324" xlink:href="#m623cf3d764" y="217.15982"/>
     <use style="fill-opacity:0.3;stroke:#000000;stroke-opacity:0.3;" x="270.473684" xlink:href="#m623cf3d764" y="219.019449"/>
     <use style="fill-opacity:0.3;stroke:#000000;stroke-opacity:0.3;" x="82.268067" xlink:href="#m623cf3d764" y="220.140952"/>
     <use style="fill-opacity:0.3;stroke:#000000;stroke-opacity:0.3;" x="283.376636" xlink:href="#m623cf3d764" y="218.809957"/>
     <use style="fill-opacity:0.3;stroke:#000000;stroke-opacity:0.3;" x="232.295928" xlink:href="#m623cf3d764" y="217.709009"/>
     <use style="fill-opacity:0.3;stroke:#000000;stroke-opacity:0.3;" x="235.096034" xlink:href="#m623cf3d764" y="217.702775"/>
     <use style="fill-opacity:0.3;stroke:#000000;stroke-opacity:0.3;" x="313.581684" xlink:href="#m623cf3d764" y="217.629097"/>
     <use style="fill-opacity:0.3;stroke:#000000;stroke-opacity:0.3;" x="214.105263" xlink:href="#m623cf3d764" y="219.715034"/>
     <use style="fill-opacity:0.3;stroke:#000000;stroke-opacity:0.3;" x="318.942824" xlink:href="#m623cf3d764" y="217.360907"/>
     <use style="fill-opacity:0.3;stroke:#000000;stroke-opacity:0.3;" x="218.917648" xlink:href="#m623cf3d764" y="220.199677"/>
     <use style="fill-opacity:0.3;stroke:#000000;stroke-opacity:0.3;" x="218.917648" xlink:href="#m623cf3d764" y="220.429041"/>
     <use style="fill-opacity:0.3;stroke:#000000;stroke-opacity:0.3;" x="249.608997" xlink:href="#m623cf3d764" y="220.371883"/>
     <use style="fill-opacity:0.3;stroke:#000000;stroke-opacity:0.3;" x="45" xlink:href="#m623cf3d764" y="219.770329"/>
     <use style="fill-opacity:0.3;stroke:#000000;stroke-opacity:0.3;" x="45" xlink:href="#m623cf3d764" y="219.566781"/>
     <use style="fill-opacity:0.3;stroke:#000000;stroke-opacity:0.3;" x="129.552632" xlink:href="#m623cf3d764" y="220.351922"/>
     <use style="fill-opacity:0.3;stroke:#000000;stroke-opacity:0.3;" x="204.313876" xlink:href="#m623cf3d764" y="218.075603"/>
     <use style="fill-opacity:0.3;stroke:#000000;stroke-opacity:0.3;" x="301.573503" xlink:href="#m623cf3d764" y="216.397057"/>
     <use style="fill-opacity:0.3;stroke:#000000;stroke-opacity:0.3;" x="316.403509" xlink:href="#m623cf3d764" y="218.830241"/>
     <use style="fill-opacity:0.3;stroke:#000000;stroke-opacity:0.3;" x="268.739271" xlink:href="#m623cf3d764" y="217.452452"/>
     <use style="fill-opacity:0.3;stroke:#000000;stroke-opacity:0.3;" x="170.534543" xlink:href="#m623cf3d764" y="218.318577"/>
     <use style="fill-opacity:0.3;stroke:#000000;stroke-opacity:0.3;" x="287.106989" xlink:href="#m623cf3d764" y="217.237158"/>
     <use style="fill-opacity:0.3;stroke:#000000;stroke-opacity:0.3;" x="216.397102" xlink:href="#m623cf3d764" y="219.452328"/>
     <use style="fill-opacity:0.3;stroke:#000000;stroke-opacity:0.3;" x="232.894737" xlink:href="#m623cf3d764" y="215.126328"/>
     <use style="fill-opacity:0.3;stroke:#000000;stroke-opacity:0.3;" x="122.296732" xlink:href="#m623cf3d764" y="220.317826"/>
     <use style="fill-opacity:0.3;stroke:#000000;stroke-opacity:0.3;" x="218.917648" xlink:href="#m623cf3d764" y="218.552741"/>
     <use style="fill-opacity:0.3;stroke:#000000;stroke-opacity:0.3;" x="45" xlink:href="#m623cf3d764" y="220.383472"/>
     <use style="fill-opacity:0.3;stroke:#000000;stroke-opacity:0.3;" x="45" xlink:href="#m623cf3d764" y="220.08859"/>
     <use style="fill-opacity:0.3;stroke:#000000;stroke-opacity:0.3;" x="45" xlink:href="#m623cf3d764" y="172.415201"/>
     <use style="fill-opacity:0.3;stroke:#000000;stroke-opacity:0.3;" x="52.482534" xlink:href="#m623cf3d764" y="73.277593"/>
     <use style="fill-opacity:0.3;stroke:#000000;stroke-opacity:0.3;" x="319.01873" xlink:href="#m623cf3d764" y="218.984222"/>
     <use style="fill-opacity:0.3;stroke:#000000;stroke-opacity:0.3;" x="58.263158" xlink:href="#m623cf3d764" y="170.36046"/>
     <use style="fill-opacity:0.3;stroke:#000000;stroke-opacity:0.3;" x="50.511579" xlink:href="#m623cf3d764" y="50.479237"/>
     <use style="fill-opacity:0.3;stroke:#000000;stroke-opacity:0.3;" x="45" xlink:href="#m623cf3d764" y="171.006501"/>
     <use style="fill-opacity:0.3;stroke:#000000;stroke-opacity:0.3;" x="225.378947" xlink:href="#m623cf3d764" y="219.822871"/>
     <use style="fill-opacity:0.3;stroke:#000000;stroke-opacity:0.3;" x="45" xlink:href="#m623cf3d764" y="171.006501"/>
     <use style="fill-opacity:0.3;stroke:#000000;stroke-opacity:0.3;" x="225.378947" xlink:href="#m623cf3d764" y="219.822871"/>
     <use style="fill-opacity:0.3;stroke:#000000;stroke-opacity:0.3;" x="195.315789" xlink:href="#m623cf3d764" y="219.862598"/>
     <use style="fill-opacity:0.3;stroke:#000000;stroke-opacity:0.3;" x="297.971124" xlink:href="#m623cf3d764" y="219.945119"/>
     <use style="fill-opacity:0.3;stroke:#000000;stroke-opacity:0.3;" x="235.096034" xlink:href="#m623cf3d764" y="217.702775"/>
     <use style="fill-opacity:0.3;stroke:#000000;stroke-opacity:0.3;" x="251.684211" xlink:href="#m623cf3d764" y="218.544844"/>
     <use style="fill-opacity:0.3;stroke:#000000;stroke-opacity:0.3;" x="150.221053" xlink:href="#m623cf3d764" y="209.747297"/>
     <use style="fill-opacity:0.3;stroke:#000000;stroke-opacity:0.3;" x="102.972549" xlink:href="#m623cf3d764" y="220.212653"/>
     <use style="fill-opacity:0.3;stroke:#000000;stroke-opacity:0.3;" x="318.789474" xlink:href="#m623cf3d764" y="220.441096"/>
     <use style="fill-opacity:0.3;stroke:#000000;stroke-opacity:0.3;" x="173.827887" xlink:href="#m623cf3d764" y="218.852503"/>
     <use style="fill-opacity:0.3;stroke:#000000;stroke-opacity:0.3;" x="165.582903" xlink:href="#m623cf3d764" y="219.691395"/>
     <use style="fill-opacity:0.3;stroke:#000000;stroke-opacity:0.3;" x="249.608997" xlink:href="#m623cf3d764" y="220.371883"/>
     <use style="fill-opacity:0.3;stroke:#000000;stroke-opacity:0.3;" x="45" xlink:href="#m623cf3d764" y="178.172258"/>
     <use style="fill-opacity:0.3;stroke:#000000;stroke-opacity:0.3;" x="45" xlink:href="#m623cf3d764" y="178.172258"/>
     <use style="fill-opacity:0.3;stroke:#000000;stroke-opacity:0.3;" x="257.210526" xlink:href="#m623cf3d764" y="218.359423"/>
     <use style="fill-opacity:0.3;stroke:#000000;stroke-opacity:0.3;" x="100.337433" xlink:href="#m623cf3d764" y="219.354276"/>
     <use style="fill-opacity:0.3;stroke:#000000;stroke-opacity:0.3;" x="131.958824" xlink:href="#m623cf3d764" y="220.168235"/>
     <use style="fill-opacity:0.3;stroke:#000000;stroke-opacity:0.3;" x="206.052632" xlink:href="#m623cf3d764" y="189.254408"/>
     <use style="fill-opacity:0.3;stroke:#000000;stroke-opacity:0.3;" x="204.516824" xlink:href="#m623cf3d764" y="218.008934"/>
     <use style="fill-opacity:0.3;stroke:#000000;stroke-opacity:0.3;" x="176.613355" xlink:href="#m623cf3d764" y="219.423077"/>
     <use style="fill-opacity:0.3;stroke:#000000;stroke-opacity:0.3;" x="323.872292" xlink:href="#m623cf3d764" y="220.009787"/>
     <use style="fill-opacity:0.3;stroke:#000000;stroke-opacity:0.3;" x="324" xlink:href="#m623cf3d764" y="217.213402"/>
     <use style="fill-opacity:0.3;stroke:#000000;stroke-opacity:0.3;" x="216.241992" xlink:href="#m623cf3d764" y="215.259901"/>
     <use style="fill-opacity:0.3;stroke:#000000;stroke-opacity:0.3;" x="160.358629" xlink:href="#m623cf3d764" y="213.543043"/>
     <use style="fill-opacity:0.3;stroke:#000000;stroke-opacity:0.3;" x="302.924867" xlink:href="#m623cf3d764" y="217.75465"/>
     <use style="fill-opacity:0.3;stroke:#000000;stroke-opacity:0.3;" x="304.125623" xlink:href="#m623cf3d764" y="217.965374"/>
     <use style="fill-opacity:0.3;stroke:#000000;stroke-opacity:0.3;" x="214.105263" xlink:href="#m623cf3d764" y="219.715034"/>
     <use style="fill-opacity:0.3;stroke:#000000;stroke-opacity:0.3;" x="154.129263" xlink:href="#m623cf3d764" y="213.511532"/>
     <use style="fill-opacity:0.3;stroke:#000000;stroke-opacity:0.3;" x="45" xlink:href="#m623cf3d764" y="215.827904"/>
     <use style="fill-opacity:0.3;stroke:#000000;stroke-opacity:0.3;" x="48.860851" xlink:href="#m623cf3d764" y="144.630018"/>
     <use style="fill-opacity:0.3;stroke:#000000;stroke-opacity:0.3;" x="288.484707" xlink:href="#m623cf3d764" y="220.071613"/>
     <use style="fill-opacity:0.3;stroke:#000000;stroke-opacity:0.3;" x="45" xlink:href="#m623cf3d764" y="141.143316"/>
     <use style="fill-opacity:0.3;stroke:#000000;stroke-opacity:0.3;" x="198.982423" xlink:href="#m623cf3d764" y="213.368843"/>
     <use style="fill-opacity:0.3;stroke:#000000;stroke-opacity:0.3;" x="198.982423" xlink:href="#m623cf3d764" y="213.368843"/>
     <use style="fill-opacity:0.3;stroke:#000000;stroke-opacity:0.3;" x="45" xlink:href="#m623cf3d764" y="172.415201"/>
     <use style="fill-opacity:0.3;stroke:#000000;stroke-opacity:0.3;" x="139.252145" xlink:href="#m623cf3d764" y="205.073592"/>
     <use style="fill-opacity:0.3;stroke:#000000;stroke-opacity:0.3;" x="157.377557" xlink:href="#m623cf3d764" y="217.735155"/>
     <use style="fill-opacity:0.3;stroke:#000000;stroke-opacity:0.3;" x="45" xlink:href="#m623cf3d764" y="191.222198"/>
     <use style="fill-opacity:0.3;stroke:#000000;stroke-opacity:0.3;" x="184.134118" xlink:href="#m623cf3d764" y="220.16471"/>
     <use style="fill-opacity:0.3;stroke:#000000;stroke-opacity:0.3;" x="184.134118" xlink:href="#m623cf3d764" y="220.16471"/>
     <use style="fill-opacity:0.3;stroke:#000000;stroke-opacity:0.3;" x="180.284211" xlink:href="#m623cf3d764" y="218.825351"/>
     <use style="fill-opacity:0.3;stroke:#000000;stroke-opacity:0.3;" x="121.403129" xlink:href="#m623cf3d764" y="216.630917"/>
     <use style="fill-opacity:0.3;stroke:#000000;stroke-opacity:0.3;" x="321.065836" xlink:href="#m623cf3d764" y="219.493282"/>
     <use style="fill-opacity:0.3;stroke:#000000;stroke-opacity:0.3;" x="125.787553" xlink:href="#m623cf3d764" y="213.516445"/>
     <use style="fill-opacity:0.3;stroke:#000000;stroke-opacity:0.3;" x="102.972549" xlink:href="#m623cf3d764" y="218.765239"/>
     <use style="fill-opacity:0.3;stroke:#000000;stroke-opacity:0.3;" x="309.294068" xlink:href="#m623cf3d764" y="217.689242"/>
     <use style="fill-opacity:0.3;stroke:#000000;stroke-opacity:0.3;" x="202.954192" xlink:href="#m623cf3d764" y="215.526408"/>
     <use style="fill-opacity:0.3;stroke:#000000;stroke-opacity:0.3;" x="147" xlink:href="#m623cf3d764" y="216.319502"/>
     <use style="fill-opacity:0.3;stroke:#000000;stroke-opacity:0.3;" x="99.921362" xlink:href="#m623cf3d764" y="220.03099"/>
     <use style="fill-opacity:0.3;stroke:#000000;stroke-opacity:0.3;" x="270.473684" xlink:href="#m623cf3d764" y="220.477134"/>
     <use style="fill-opacity:0.3;stroke:#000000;stroke-opacity:0.3;" x="46.266706" xlink:href="#m623cf3d764" y="189.082316"/>
     <use style="fill-opacity:0.3;stroke:#000000;stroke-opacity:0.3;" x="176.613355" xlink:href="#m623cf3d764" y="219.558718"/>
     <use style="fill-opacity:0.3;stroke:#000000;stroke-opacity:0.3;" x="45" xlink:href="#m623cf3d764" y="220.326059"/>
     <use style="fill-opacity:0.3;stroke:#000000;stroke-opacity:0.3;" x="46.150376" xlink:href="#m623cf3d764" y="181.394965"/>
     <use style="fill-opacity:0.3;stroke:#000000;stroke-opacity:0.3;" x="283.644281" xlink:href="#m623cf3d764" y="214.257673"/>
     <use style="fill-opacity:0.3;stroke:#000000;stroke-opacity:0.3;" x="289.365303" xlink:href="#m623cf3d764" y="214.835551"/>
     <use style="fill-opacity:0.3;stroke:#000000;stroke-opacity:0.3;" x="176.526316" xlink:href="#m623cf3d764" y="218.122444"/>
     <use style="fill-opacity:0.3;stroke:#000000;stroke-opacity:0.3;" x="214.217171" xlink:href="#m623cf3d764" y="219.525694"/>
     <use style="fill-opacity:0.3;stroke:#000000;stroke-opacity:0.3;" x="311.805483" xlink:href="#m623cf3d764" y="216.666983"/>
     <use style="fill-opacity:0.3;stroke:#000000;stroke-opacity:0.3;" x="318.013316" xlink:href="#m623cf3d764" y="216.26682"/>
    </g>
   </g>
   <g id="matplotlib.axis_1">
    <g id="xtick_1">
     <g id="line2d_1">
      <defs>
       <path d="M 0 0 
L 0 3.5 
" id="mb8a1834ecd" style="stroke:#000000;stroke-width:0.8;"/>
      </defs>
      <g>
       <use style="stroke:#000000;stroke-width:0.8;" x="45" xlink:href="#mb8a1834ecd" y="220.5"/>
      </g>
     </g>
     <g id="text_1">
      <!-- 0.0 -->
      <defs>
       <path d="M 31.78125 66.40625 
Q 24.171875 66.40625 20.328125 58.90625 
Q 16.5 51.421875 16.5 36.375 
Q 16.5 21.390625 20.328125 13.890625 
Q 24.171875 6.390625 31.78125 6.390625 
Q 39.453125 6.390625 43.28125 13.890625 
Q 47.125 21.390625 47.125 36.375 
Q 47.125 51.421875 43.28125 58.90625 
Q 39.453125 66.40625 31.78125 66.40625 
z
M 31.78125 74.21875 
Q 44.046875 74.21875 50.515625 64.515625 
Q 56.984375 54.828125 56.984375 36.375 
Q 56.984375 17.96875 50.515625 8.265625 
Q 44.046875 -1.421875 31.78125 -1.421875 
Q 19.53125 -1.421875 13.0625 8.265625 
Q 6.59375 17.96875 6.59375 36.375 
Q 6.59375 54.828125 13.0625 64.515625 
Q 19.53125 74.21875 31.78125 74.21875 
z
" id="DejaVuSans-48"/>
       <path d="M 10.6875 12.40625 
L 21 12.40625 
L 21 0 
L 10.6875 0 
z
" id="DejaVuSans-46"/>
      </defs>
      <g transform="translate(37.048437 235.098437)scale(0.1 -0.1)">
       <use xlink:href="#DejaVuSans-48"/>
       <use x="63.623047" xlink:href="#DejaVuSans-46"/>
       <use x="95.410156" xlink:href="#DejaVuSans-48"/>
      </g>
     </g>
    </g>
    <g id="xtick_2">
     <g id="line2d_2">
      <g>
       <use style="stroke:#000000;stroke-width:0.8;" x="101.009894" xlink:href="#mb8a1834ecd" y="220.5"/>
      </g>
     </g>
     <g id="text_2">
      <!-- 0.2 -->
      <defs>
       <path d="M 19.1875 8.296875 
L 53.609375 8.296875 
L 53.609375 0 
L 7.328125 0 
L 7.328125 8.296875 
Q 12.9375 14.109375 22.625 23.890625 
Q 32.328125 33.6875 34.8125 36.53125 
Q 39.546875 41.84375 41.421875 45.53125 
Q 43.3125 49.21875 43.3125 52.78125 
Q 43.3125 58.59375 39.234375 62.25 
Q 35.15625 65.921875 28.609375 65.921875 
Q 23.96875 65.921875 18.8125 64.3125 
Q 13.671875 62.703125 7.8125 59.421875 
L 7.8125 69.390625 
Q 13.765625 71.78125 18.9375 73 
Q 24.125 74.21875 28.421875 74.21875 
Q 39.75 74.21875 46.484375 68.546875 
Q 53.21875 62.890625 53.21875 53.421875 
Q 53.21875 48.921875 51.53125 44.890625 
Q 49.859375 40.875 45.40625 35.40625 
Q 44.1875 33.984375 37.640625 27.21875 
Q 31.109375 20.453125 19.1875 8.296875 
z
" id="DejaVuSans-50"/>
      </defs>
      <g transform="translate(93.058331 235.098437)scale(0.1 -0.1)">
       <use xlink:href="#DejaVuSans-48"/>
       <use x="63.623047" xlink:href="#DejaVuSans-46"/>
       <use x="95.410156" xlink:href="#DejaVuSans-50"/>
      </g>
     </g>
    </g>
    <g id="xtick_3">
     <g id="line2d_3">
      <g>
       <use style="stroke:#000000;stroke-width:0.8;" x="157.019788" xlink:href="#mb8a1834ecd" y="220.5"/>
      </g>
     </g>
     <g id="text_3">
      <!-- 0.4 -->
      <defs>
       <path d="M 37.796875 64.3125 
L 12.890625 25.390625 
L 37.796875 25.390625 
z
M 35.203125 72.90625 
L 47.609375 72.90625 
L 47.609375 25.390625 
L 58.015625 25.390625 
L 58.015625 17.1875 
L 47.609375 17.1875 
L 47.609375 0 
L 37.796875 0 
L 37.796875 17.1875 
L 4.890625 17.1875 
L 4.890625 26.703125 
z
" id="DejaVuSans-52"/>
      </defs>
      <g transform="translate(149.068225 235.098437)scale(0.1 -0.1)">
       <use xlink:href="#DejaVuSans-48"/>
       <use x="63.623047" xlink:href="#DejaVuSans-46"/>
       <use x="95.410156" xlink:href="#DejaVuSans-52"/>
      </g>
     </g>
    </g>
    <g id="xtick_4">
     <g id="line2d_4">
      <g>
       <use style="stroke:#000000;stroke-width:0.8;" x="213.029682" xlink:href="#mb8a1834ecd" y="220.5"/>
      </g>
     </g>
     <g id="text_4">
      <!-- 0.6 -->
      <defs>
       <path d="M 33.015625 40.375 
Q 26.375 40.375 22.484375 35.828125 
Q 18.609375 31.296875 18.609375 23.390625 
Q 18.609375 15.53125 22.484375 10.953125 
Q 26.375 6.390625 33.015625 6.390625 
Q 39.65625 6.390625 43.53125 10.953125 
Q 47.40625 15.53125 47.40625 23.390625 
Q 47.40625 31.296875 43.53125 35.828125 
Q 39.65625 40.375 33.015625 40.375 
z
M 52.59375 71.296875 
L 52.59375 62.3125 
Q 48.875 64.0625 45.09375 64.984375 
Q 41.3125 65.921875 37.59375 65.921875 
Q 27.828125 65.921875 22.671875 59.328125 
Q 17.53125 52.734375 16.796875 39.40625 
Q 19.671875 43.65625 24.015625 45.921875 
Q 28.375 48.1875 33.59375 48.1875 
Q 44.578125 48.1875 50.953125 41.515625 
Q 57.328125 34.859375 57.328125 23.390625 
Q 57.328125 12.15625 50.6875 5.359375 
Q 44.046875 -1.421875 33.015625 -1.421875 
Q 20.359375 -1.421875 13.671875 8.265625 
Q 6.984375 17.96875 6.984375 36.375 
Q 6.984375 53.65625 15.1875 63.9375 
Q 23.390625 74.21875 37.203125 74.21875 
Q 40.921875 74.21875 44.703125 73.484375 
Q 48.484375 72.75 52.59375 71.296875 
z
" id="DejaVuSans-54"/>
      </defs>
      <g transform="translate(205.078119 235.098437)scale(0.1 -0.1)">
       <use xlink:href="#DejaVuSans-48"/>
       <use x="63.623047" xlink:href="#DejaVuSans-46"/>
       <use x="95.410156" xlink:href="#DejaVuSans-54"/>
      </g>
     </g>
    </g>
    <g id="xtick_5">
     <g id="line2d_5">
      <g>
       <use style="stroke:#000000;stroke-width:0.8;" x="269.039576" xlink:href="#mb8a1834ecd" y="220.5"/>
      </g>
     </g>
     <g id="text_5">
      <!-- 0.8 -->
      <defs>
       <path d="M 31.78125 34.625 
Q 24.75 34.625 20.71875 30.859375 
Q 16.703125 27.09375 16.703125 20.515625 
Q 16.703125 13.921875 20.71875 10.15625 
Q 24.75 6.390625 31.78125 6.390625 
Q 38.8125 6.390625 42.859375 10.171875 
Q 46.921875 13.96875 46.921875 20.515625 
Q 46.921875 27.09375 42.890625 30.859375 
Q 38.875 34.625 31.78125 34.625 
z
M 21.921875 38.8125 
Q 15.578125 40.375 12.03125 44.71875 
Q 8.5 49.078125 8.5 55.328125 
Q 8.5 64.0625 14.71875 69.140625 
Q 20.953125 74.21875 31.78125 74.21875 
Q 42.671875 74.21875 48.875 69.140625 
Q 55.078125 64.0625 55.078125 55.328125 
Q 55.078125 49.078125 51.53125 44.71875 
Q 48 40.375 41.703125 38.8125 
Q 48.828125 37.15625 52.796875 32.3125 
Q 56.78125 27.484375 56.78125 20.515625 
Q 56.78125 9.90625 50.3125 4.234375 
Q 43.84375 -1.421875 31.78125 -1.421875 
Q 19.734375 -1.421875 13.25 4.234375 
Q 6.78125 9.90625 6.78125 20.515625 
Q 6.78125 27.484375 10.78125 32.3125 
Q 14.796875 37.15625 21.921875 38.8125 
z
M 18.3125 54.390625 
Q 18.3125 48.734375 21.84375 45.5625 
Q 25.390625 42.390625 31.78125 42.390625 
Q 38.140625 42.390625 41.71875 45.5625 
Q 45.3125 48.734375 45.3125 54.390625 
Q 45.3125 60.0625 41.71875 63.234375 
Q 38.140625 66.40625 31.78125 66.40625 
Q 25.390625 66.40625 21.84375 63.234375 
Q 18.3125 60.0625 18.3125 54.390625 
z
" id="DejaVuSans-56"/>
      </defs>
      <g transform="translate(261.088013 235.098437)scale(0.1 -0.1)">
       <use xlink:href="#DejaVuSans-48"/>
       <use x="63.623047" xlink:href="#DejaVuSans-46"/>
       <use x="95.410156" xlink:href="#DejaVuSans-56"/>
      </g>
     </g>
    </g>
    <g id="text_6">
     <!-- cluster ratio -->
     <defs>
      <path d="M 48.78125 52.59375 
L 48.78125 44.1875 
Q 44.96875 46.296875 41.140625 47.34375 
Q 37.3125 48.390625 33.40625 48.390625 
Q 24.65625 48.390625 19.8125 42.84375 
Q 14.984375 37.3125 14.984375 27.296875 
Q 14.984375 17.28125 19.8125 11.734375 
Q 24.65625 6.203125 33.40625 6.203125 
Q 37.3125 6.203125 41.140625 7.25 
Q 44.96875 8.296875 48.78125 10.40625 
L 48.78125 2.09375 
Q 45.015625 0.34375 40.984375 -0.53125 
Q 36.96875 -1.421875 32.421875 -1.421875 
Q 20.0625 -1.421875 12.78125 6.34375 
Q 5.515625 14.109375 5.515625 27.296875 
Q 5.515625 40.671875 12.859375 48.328125 
Q 20.21875 56 33.015625 56 
Q 37.15625 56 41.109375 55.140625 
Q 45.0625 54.296875 48.78125 52.59375 
z
" id="DejaVuSans-99"/>
      <path d="M 9.421875 75.984375 
L 18.40625 75.984375 
L 18.40625 0 
L 9.421875 0 
z
" id="DejaVuSans-108"/>
      <path d="M 8.5 21.578125 
L 8.5 54.6875 
L 17.484375 54.6875 
L 17.484375 21.921875 
Q 17.484375 14.15625 20.5 10.265625 
Q 23.53125 6.390625 29.59375 6.390625 
Q 36.859375 6.390625 41.078125 11.03125 
Q 45.3125 15.671875 45.3125 23.6875 
L 45.3125 54.6875 
L 54.296875 54.6875 
L 54.296875 0 
L 45.3125 0 
L 45.3125 8.40625 
Q 42.046875 3.421875 37.71875 1 
Q 33.40625 -1.421875 27.6875 -1.421875 
Q 18.265625 -1.421875 13.375 4.4375 
Q 8.5 10.296875 8.5 21.578125 
z
M 31.109375 56 
z
" id="DejaVuSans-117"/>
      <path d="M 44.28125 53.078125 
L 44.28125 44.578125 
Q 40.484375 46.53125 36.375 47.5 
Q 32.28125 48.484375 27.875 48.484375 
Q 21.1875 48.484375 17.84375 46.4375 
Q 14.5 44.390625 14.5 40.28125 
Q 14.5 37.15625 16.890625 35.375 
Q 19.28125 33.59375 26.515625 31.984375 
L 29.59375 31.296875 
Q 39.15625 29.25 43.1875 25.515625 
Q 47.21875 21.78125 47.21875 15.09375 
Q 47.21875 7.46875 41.1875 3.015625 
Q 35.15625 -1.421875 24.609375 -1.421875 
Q 20.21875 -1.421875 15.453125 -0.5625 
Q 10.6875 0.296875 5.421875 2 
L 5.421875 11.28125 
Q 10.40625 8.6875 15.234375 7.390625 
Q 20.0625 6.109375 24.8125 6.109375 
Q 31.15625 6.109375 34.5625 8.28125 
Q 37.984375 10.453125 37.984375 14.40625 
Q 37.984375 18.0625 35.515625 20.015625 
Q 33.0625 21.96875 24.703125 23.78125 
L 21.578125 24.515625 
Q 13.234375 26.265625 9.515625 29.90625 
Q 5.8125 33.546875 5.8125 39.890625 
Q 5.8125 47.609375 11.28125 51.796875 
Q 16.75 56 26.8125 56 
Q 31.78125 56 36.171875 55.265625 
Q 40.578125 54.546875 44.28125 53.078125 
z
" id="DejaVuSans-115"/>
      <path d="M 18.3125 70.21875 
L 18.3125 54.6875 
L 36.8125 54.6875 
L 36.8125 47.703125 
L 18.3125 47.703125 
L 18.3125 18.015625 
Q 18.3125 11.328125 20.140625 9.421875 
Q 21.96875 7.515625 27.59375 7.515625 
L 36.8125 7.515625 
L 36.8125 0 
L 27.59375 0 
Q 17.1875 0 13.234375 3.875 
Q 9.28125 7.765625 9.28125 18.015625 
L 9.28125 47.703125 
L 2.6875 47.703125 
L 2.6875 54.6875 
L 9.28125 54.6875 
L 9.28125 70.21875 
z
" id="DejaVuSans-116"/>
      <path d="M 56.203125 29.59375 
L 56.203125 25.203125 
L 14.890625 25.203125 
Q 15.484375 15.921875 20.484375 11.0625 
Q 25.484375 6.203125 34.421875 6.203125 
Q 39.59375 6.203125 44.453125 7.46875 
Q 49.3125 8.734375 54.109375 11.28125 
L 54.109375 2.78125 
Q 49.265625 0.734375 44.1875 -0.34375 
Q 39.109375 -1.421875 33.890625 -1.421875 
Q 20.796875 -1.421875 13.15625 6.1875 
Q 5.515625 13.8125 5.515625 26.8125 
Q 5.515625 40.234375 12.765625 48.109375 
Q 20.015625 56 32.328125 56 
Q 43.359375 56 49.78125 48.890625 
Q 56.203125 41.796875 56.203125 29.59375 
z
M 47.21875 32.234375 
Q 47.125 39.59375 43.09375 43.984375 
Q 39.0625 48.390625 32.421875 48.390625 
Q 24.90625 48.390625 20.390625 44.140625 
Q 15.875 39.890625 15.1875 32.171875 
z
" id="DejaVuSans-101"/>
      <path d="M 41.109375 46.296875 
Q 39.59375 47.171875 37.8125 47.578125 
Q 36.03125 48 33.890625 48 
Q 26.265625 48 22.1875 43.046875 
Q 18.109375 38.09375 18.109375 28.8125 
L 18.109375 0 
L 9.078125 0 
L 9.078125 54.6875 
L 18.109375 54.6875 
L 18.109375 46.1875 
Q 20.953125 51.171875 25.484375 53.578125 
Q 30.03125 56 36.53125 56 
Q 37.453125 56 38.578125 55.875 
Q 39.703125 55.765625 41.0625 55.515625 
z
" id="DejaVuSans-114"/>
      <path id="DejaVuSans-32"/>
      <path d="M 34.28125 27.484375 
Q 23.390625 27.484375 19.1875 25 
Q 14.984375 22.515625 14.984375 16.5 
Q 14.984375 11.71875 18.140625 8.90625 
Q 21.296875 6.109375 26.703125 6.109375 
Q 34.1875 6.109375 38.703125 11.40625 
Q 43.21875 16.703125 43.21875 25.484375 
L 43.21875 27.484375 
z
M 52.203125 31.203125 
L 52.203125 0 
L 43.21875 0 
L 43.21875 8.296875 
Q 40.140625 3.328125 35.546875 0.953125 
Q 30.953125 -1.421875 24.3125 -1.421875 
Q 15.921875 -1.421875 10.953125 3.296875 
Q 6 8.015625 6 15.921875 
Q 6 25.140625 12.171875 29.828125 
Q 18.359375 34.515625 30.609375 34.515625 
L 43.21875 34.515625 
L 43.21875 35.40625 
Q 43.21875 41.609375 39.140625 45 
Q 35.0625 48.390625 27.6875 48.390625 
Q 23 48.390625 18.546875 47.265625 
Q 14.109375 46.140625 10.015625 43.890625 
L 10.015625 52.203125 
Q 14.9375 54.109375 19.578125 55.046875 
Q 24.21875 56 28.609375 56 
Q 40.484375 56 46.34375 49.84375 
Q 52.203125 43.703125 52.203125 31.203125 
z
" id="DejaVuSans-97"/>
      <path d="M 9.421875 54.6875 
L 18.40625 54.6875 
L 18.40625 0 
L 9.421875 0 
z
M 9.421875 75.984375 
L 18.40625 75.984375 
L 18.40625 64.59375 
L 9.421875 64.59375 
z
" id="DejaVuSans-105"/>
      <path d="M 30.609375 48.390625 
Q 23.390625 48.390625 19.1875 42.75 
Q 14.984375 37.109375 14.984375 27.296875 
Q 14.984375 17.484375 19.15625 11.84375 
Q 23.34375 6.203125 30.609375 6.203125 
Q 37.796875 6.203125 41.984375 11.859375 
Q 46.1875 17.53125 46.1875 27.296875 
Q 46.1875 37.015625 41.984375 42.703125 
Q 37.796875 48.390625 30.609375 48.390625 
z
M 30.609375 56 
Q 42.328125 56 49.015625 48.375 
Q 55.71875 40.765625 55.71875 27.296875 
Q 55.71875 13.875 49.015625 6.21875 
Q 42.328125 -1.421875 30.609375 -1.421875 
Q 18.84375 -1.421875 12.171875 6.21875 
Q 5.515625 13.875 5.515625 27.296875 
Q 5.515625 40.765625 12.171875 48.375 
Q 18.84375 56 30.609375 56 
z
" id="DejaVuSans-111"/>
     </defs>
     <g transform="translate(154.378906 248.776563)scale(0.1 -0.1)">
      <use xlink:href="#DejaVuSans-99"/>
      <use x="54.980469" xlink:href="#DejaVuSans-108"/>
      <use x="82.763672" xlink:href="#DejaVuSans-117"/>
      <use x="146.142578" xlink:href="#DejaVuSans-115"/>
      <use x="198.242188" xlink:href="#DejaVuSans-116"/>
      <use x="237.451172" xlink:href="#DejaVuSans-101"/>
      <use x="298.974609" xlink:href="#DejaVuSans-114"/>
      <use x="340.087891" xlink:href="#DejaVuSans-32"/>
      <use x="371.875" xlink:href="#DejaVuSans-114"/>
      <use x="412.988281" xlink:href="#DejaVuSans-97"/>
      <use x="474.267578" xlink:href="#DejaVuSans-116"/>
      <use x="513.476562" xlink:href="#DejaVuSans-105"/>
      <use x="541.259766" xlink:href="#DejaVuSans-111"/>
     </g>
    </g>
   </g>
   <g id="matplotlib.axis_2">
    <g id="ytick_1">
     <g id="line2d_6">
      <defs>
       <path d="M 0 0 
L -3.5 0 
" id="m691c7377c8" style="stroke:#000000;stroke-width:0.8;"/>
      </defs>
      <g>
       <use style="stroke:#000000;stroke-width:0.8;" x="45" xlink:href="#m691c7377c8" y="220.5"/>
      </g>
     </g>
     <g id="text_7">
      <!-- 0.00 -->
      <g transform="translate(15.734375 224.299219)scale(0.1 -0.1)">
       <use xlink:href="#DejaVuSans-48"/>
       <use x="63.623047" xlink:href="#DejaVuSans-46"/>
       <use x="95.410156" xlink:href="#DejaVuSans-48"/>
       <use x="159.033203" xlink:href="#DejaVuSans-48"/>
      </g>
     </g>
    </g>
    <g id="ytick_2">
     <g id="line2d_7">
      <g>
       <use style="stroke:#000000;stroke-width:0.8;" x="45" xlink:href="#m691c7377c8" y="188.041218"/>
      </g>
     </g>
     <g id="text_8">
      <!-- 0.02 -->
      <g transform="translate(15.734375 191.840437)scale(0.1 -0.1)">
       <use xlink:href="#DejaVuSans-48"/>
       <use x="63.623047" xlink:href="#DejaVuSans-46"/>
       <use x="95.410156" xlink:href="#DejaVuSans-48"/>
       <use x="159.033203" xlink:href="#DejaVuSans-50"/>
      </g>
     </g>
    </g>
    <g id="ytick_3">
     <g id="line2d_8">
      <g>
       <use style="stroke:#000000;stroke-width:0.8;" x="45" xlink:href="#m691c7377c8" y="155.582437"/>
      </g>
     </g>
     <g id="text_9">
      <!-- 0.04 -->
      <g transform="translate(15.734375 159.381656)scale(0.1 -0.1)">
       <use xlink:href="#DejaVuSans-48"/>
       <use x="63.623047" xlink:href="#DejaVuSans-46"/>
       <use x="95.410156" xlink:href="#DejaVuSans-48"/>
       <use x="159.033203" xlink:href="#DejaVuSans-52"/>
      </g>
     </g>
    </g>
    <g id="ytick_4">
     <g id="line2d_9">
      <g>
       <use style="stroke:#000000;stroke-width:0.8;" x="45" xlink:href="#m691c7377c8" y="123.123655"/>
      </g>
     </g>
     <g id="text_10">
      <!-- 0.06 -->
      <g transform="translate(15.734375 126.922874)scale(0.1 -0.1)">
       <use xlink:href="#DejaVuSans-48"/>
       <use x="63.623047" xlink:href="#DejaVuSans-46"/>
       <use x="95.410156" xlink:href="#DejaVuSans-48"/>
       <use x="159.033203" xlink:href="#DejaVuSans-54"/>
      </g>
     </g>
    </g>
    <g id="ytick_5">
     <g id="line2d_10">
      <g>
       <use style="stroke:#000000;stroke-width:0.8;" x="45" xlink:href="#m691c7377c8" y="90.664874"/>
      </g>
     </g>
     <g id="text_11">
      <!-- 0.08 -->
      <g transform="translate(15.734375 94.464092)scale(0.1 -0.1)">
       <use xlink:href="#DejaVuSans-48"/>
       <use x="63.623047" xlink:href="#DejaVuSans-46"/>
       <use x="95.410156" xlink:href="#DejaVuSans-48"/>
       <use x="159.033203" xlink:href="#DejaVuSans-56"/>
      </g>
     </g>
    </g>
    <g id="ytick_6">
     <g id="line2d_11">
      <g>
       <use style="stroke:#000000;stroke-width:0.8;" x="45" xlink:href="#m691c7377c8" y="58.206092"/>
      </g>
     </g>
     <g id="text_12">
      <!-- 0.10 -->
      <defs>
       <path d="M 12.40625 8.296875 
L 28.515625 8.296875 
L 28.515625 63.921875 
L 10.984375 60.40625 
L 10.984375 69.390625 
L 28.421875 72.90625 
L 38.28125 72.90625 
L 38.28125 8.296875 
L 54.390625 8.296875 
L 54.390625 0 
L 12.40625 0 
z
" id="DejaVuSans-49"/>
      </defs>
      <g transform="translate(15.734375 62.005311)scale(0.1 -0.1)">
       <use xlink:href="#DejaVuSans-48"/>
       <use x="63.623047" xlink:href="#DejaVuSans-46"/>
       <use x="95.410156" xlink:href="#DejaVuSans-49"/>
       <use x="159.033203" xlink:href="#DejaVuSans-48"/>
      </g>
     </g>
    </g>
    <g id="text_13">
     <!-- fractional importance -->
     <defs>
      <path d="M 37.109375 75.984375 
L 37.109375 68.5 
L 28.515625 68.5 
Q 23.6875 68.5 21.796875 66.546875 
Q 19.921875 64.59375 19.921875 59.515625 
L 19.921875 54.6875 
L 34.71875 54.6875 
L 34.71875 47.703125 
L 19.921875 47.703125 
L 19.921875 0 
L 10.890625 0 
L 10.890625 47.703125 
L 2.296875 47.703125 
L 2.296875 54.6875 
L 10.890625 54.6875 
L 10.890625 58.5 
Q 10.890625 67.625 15.140625 71.796875 
Q 19.390625 75.984375 28.609375 75.984375 
z
" id="DejaVuSans-102"/>
      <path d="M 54.890625 33.015625 
L 54.890625 0 
L 45.90625 0 
L 45.90625 32.71875 
Q 45.90625 40.484375 42.875 44.328125 
Q 39.84375 48.1875 33.796875 48.1875 
Q 26.515625 48.1875 22.3125 43.546875 
Q 18.109375 38.921875 18.109375 30.90625 
L 18.109375 0 
L 9.078125 0 
L 9.078125 54.6875 
L 18.109375 54.6875 
L 18.109375 46.1875 
Q 21.34375 51.125 25.703125 53.5625 
Q 30.078125 56 35.796875 56 
Q 45.21875 56 50.046875 50.171875 
Q 54.890625 44.34375 54.890625 33.015625 
z
" id="DejaVuSans-110"/>
      <path d="M 52 44.1875 
Q 55.375 50.25 60.0625 53.125 
Q 64.75 56 71.09375 56 
Q 79.640625 56 84.28125 50.015625 
Q 88.921875 44.046875 88.921875 33.015625 
L 88.921875 0 
L 79.890625 0 
L 79.890625 32.71875 
Q 79.890625 40.578125 77.09375 44.375 
Q 74.3125 48.1875 68.609375 48.1875 
Q 61.625 48.1875 57.5625 43.546875 
Q 53.515625 38.921875 53.515625 30.90625 
L 53.515625 0 
L 44.484375 0 
L 44.484375 32.71875 
Q 44.484375 40.625 41.703125 44.40625 
Q 38.921875 48.1875 33.109375 48.1875 
Q 26.21875 48.1875 22.15625 43.53125 
Q 18.109375 38.875 18.109375 30.90625 
L 18.109375 0 
L 9.078125 0 
L 9.078125 54.6875 
L 18.109375 54.6875 
L 18.109375 46.1875 
Q 21.1875 51.21875 25.484375 53.609375 
Q 29.78125 56 35.6875 56 
Q 41.65625 56 45.828125 52.96875 
Q 50 49.953125 52 44.1875 
z
" id="DejaVuSans-109"/>
      <path d="M 18.109375 8.203125 
L 18.109375 -20.796875 
L 9.078125 -20.796875 
L 9.078125 54.6875 
L 18.109375 54.6875 
L 18.109375 46.390625 
Q 20.953125 51.265625 25.265625 53.625 
Q 29.59375 56 35.59375 56 
Q 45.5625 56 51.78125 48.09375 
Q 58.015625 40.1875 58.015625 27.296875 
Q 58.015625 14.40625 51.78125 6.484375 
Q 45.5625 -1.421875 35.59375 -1.421875 
Q 29.59375 -1.421875 25.265625 0.953125 
Q 20.953125 3.328125 18.109375 8.203125 
z
M 48.6875 27.296875 
Q 48.6875 37.203125 44.609375 42.84375 
Q 40.53125 48.484375 33.40625 48.484375 
Q 26.265625 48.484375 22.1875 42.84375 
Q 18.109375 37.203125 18.109375 27.296875 
Q 18.109375 17.390625 22.1875 11.75 
Q 26.265625 6.109375 33.40625 6.109375 
Q 40.53125 6.109375 44.609375 11.75 
Q 48.6875 17.390625 48.6875 27.296875 
z
" id="DejaVuSans-112"/>
     </defs>
     <g transform="translate(9.654687 179.185625)rotate(-90)scale(0.1 -0.1)">
      <use xlink:href="#DejaVuSans-102"/>
      <use x="35.205078" xlink:href="#DejaVuSans-114"/>
      <use x="76.318359" xlink:href="#DejaVuSans-97"/>
      <use x="137.597656" xlink:href="#DejaVuSans-99"/>
      <use x="192.578125" xlink:href="#DejaVuSans-116"/>
      <use x="231.787109" xlink:href="#DejaVuSans-105"/>
      <use x="259.570312" xlink:href="#DejaVuSans-111"/>
      <use x="320.751953" xlink:href="#DejaVuSans-110"/>
      <use x="384.130859" xlink:href="#DejaVuSans-97"/>
      <use x="445.410156" xlink:href="#DejaVuSans-108"/>
      <use x="473.193359" xlink:href="#DejaVuSans-32"/>
      <use x="504.980469" xlink:href="#DejaVuSans-105"/>
      <use x="532.763672" xlink:href="#DejaVuSans-109"/>
      <use x="630.175781" xlink:href="#DejaVuSans-112"/>
      <use x="693.652344" xlink:href="#DejaVuSans-111"/>
      <use x="754.833984" xlink:href="#DejaVuSans-114"/>
      <use x="795.947266" xlink:href="#DejaVuSans-116"/>
      <use x="835.15625" xlink:href="#DejaVuSans-97"/>
      <use x="896.435547" xlink:href="#DejaVuSans-110"/>
      <use x="959.814453" xlink:href="#DejaVuSans-99"/>
      <use x="1014.794922" xlink:href="#DejaVuSans-101"/>
     </g>
    </g>
   </g>
   <g id="patch_3">
    <path d="M 45 220.5 
L 45 30.24 
" style="fill:none;stroke:#000000;stroke-linecap:square;stroke-linejoin:miter;stroke-width:0.8;"/>
   </g>
   <g id="patch_4">
    <path d="M 324 220.5 
L 324 30.24 
" style="fill:none;stroke:#000000;stroke-linecap:square;stroke-linejoin:miter;stroke-width:0.8;"/>
   </g>
   <g id="patch_5">
    <path d="M 45 220.5 
L 324 220.5 
" style="fill:none;stroke:#000000;stroke-linecap:square;stroke-linejoin:miter;stroke-width:0.8;"/>
   </g>
   <g id="patch_6">
    <path d="M 45 30.24 
L 324 30.24 
" style="fill:none;stroke:#000000;stroke-linecap:square;stroke-linejoin:miter;stroke-width:0.8;"/>
   </g>
   <g id="text_14">
    <!-- Neisseria meningitidis -->
    <defs>
     <path d="M 9.8125 72.90625 
L 23.09375 72.90625 
L 55.421875 11.921875 
L 55.421875 72.90625 
L 64.984375 72.90625 
L 64.984375 0 
L 51.703125 0 
L 19.390625 60.984375 
L 19.390625 0 
L 9.8125 0 
z
" id="DejaVuSans-78"/>
     <path d="M 45.40625 27.984375 
Q 45.40625 37.75 41.375 43.109375 
Q 37.359375 48.484375 30.078125 48.484375 
Q 22.859375 48.484375 18.828125 43.109375 
Q 14.796875 37.75 14.796875 27.984375 
Q 14.796875 18.265625 18.828125 12.890625 
Q 22.859375 7.515625 30.078125 7.515625 
Q 37.359375 7.515625 41.375 12.890625 
Q 45.40625 18.265625 45.40625 27.984375 
z
M 54.390625 6.78125 
Q 54.390625 -7.171875 48.1875 -13.984375 
Q 42 -20.796875 29.203125 -20.796875 
Q 24.46875 -20.796875 20.265625 -20.09375 
Q 16.0625 -19.390625 12.109375 -17.921875 
L 12.109375 -9.1875 
Q 16.0625 -11.328125 19.921875 -12.34375 
Q 23.78125 -13.375 27.78125 -13.375 
Q 36.625 -13.375 41.015625 -8.765625 
Q 45.40625 -4.15625 45.40625 5.171875 
L 45.40625 9.625 
Q 42.625 4.78125 38.28125 2.390625 
Q 33.9375 0 27.875 0 
Q 17.828125 0 11.671875 7.65625 
Q 5.515625 15.328125 5.515625 27.984375 
Q 5.515625 40.671875 11.671875 48.328125 
Q 17.828125 56 27.875 56 
Q 33.9375 56 38.28125 53.609375 
Q 42.625 51.21875 45.40625 46.390625 
L 45.40625 54.6875 
L 54.390625 54.6875 
z
" id="DejaVuSans-103"/>
     <path d="M 45.40625 46.390625 
L 45.40625 75.984375 
L 54.390625 75.984375 
L 54.390625 0 
L 45.40625 0 
L 45.40625 8.203125 
Q 42.578125 3.328125 38.25 0.953125 
Q 33.9375 -1.421875 27.875 -1.421875 
Q 17.96875 -1.421875 11.734375 6.484375 
Q 5.515625 14.40625 5.515625 27.296875 
Q 5.515625 40.1875 11.734375 48.09375 
Q 17.96875 56 27.875 56 
Q 33.9375 56 38.25 53.625 
Q 42.578125 51.265625 45.40625 46.390625 
z
M 14.796875 27.296875 
Q 14.796875 17.390625 18.875 11.75 
Q 22.953125 6.109375 30.078125 6.109375 
Q 37.203125 6.109375 41.296875 11.75 
Q 45.40625 17.390625 45.40625 27.296875 
Q 45.40625 37.203125 41.296875 42.84375 
Q 37.203125 48.484375 30.078125 48.484375 
Q 22.953125 48.484375 18.875 42.84375 
Q 14.796875 37.203125 14.796875 27.296875 
z
" id="DejaVuSans-100"/>
    </defs>
    <g transform="translate(118.0875 24.24)scale(0.12 -0.12)">
     <use xlink:href="#DejaVuSans-78"/>
     <use x="74.804688" xlink:href="#DejaVuSans-101"/>
     <use x="136.328125" xlink:href="#DejaVuSans-105"/>
     <use x="164.111328" xlink:href="#DejaVuSans-115"/>
     <use x="216.210938" xlink:href="#DejaVuSans-115"/>
     <use x="268.310547" xlink:href="#DejaVuSans-101"/>
     <use x="329.833984" xlink:href="#DejaVuSans-114"/>
     <use x="370.947266" xlink:href="#DejaVuSans-105"/>
     <use x="398.730469" xlink:href="#DejaVuSans-97"/>
     <use x="460.009766" xlink:href="#DejaVuSans-32"/>
     <use x="491.796875" xlink:href="#DejaVuSans-109"/>
     <use x="589.208984" xlink:href="#DejaVuSans-101"/>
     <use x="650.732422" xlink:href="#DejaVuSans-110"/>
     <use x="714.111328" xlink:href="#DejaVuSans-105"/>
     <use x="741.894531" xlink:href="#DejaVuSans-110"/>
     <use x="805.273438" xlink:href="#DejaVuSans-103"/>
     <use x="868.75" xlink:href="#DejaVuSans-105"/>
     <use x="896.533203" xlink:href="#DejaVuSans-116"/>
     <use x="935.742188" xlink:href="#DejaVuSans-105"/>
     <use x="963.525391" xlink:href="#DejaVuSans-100"/>
     <use x="1027.001953" xlink:href="#DejaVuSans-105"/>
     <use x="1054.785156" xlink:href="#DejaVuSans-115"/>
    </g>
   </g>
  </g>
 </g>
 <defs>
  <clipPath id="p30c9d5cf47">
   <rect height="190.26" width="279" x="45" y="30.24"/>
  </clipPath>
 </defs>
</svg>
