<?xml version="1.0" encoding="utf-8" standalone="no"?>
<!DOCTYPE svg PUBLIC "-//W3C//DTD SVG 1.1//EN"
  "http://www.w3.org/Graphics/SVG/1.1/DTD/svg11.dtd">
<!-- Created with matplotlib (https://matplotlib.org/) -->
<svg height="252pt" version="1.1" viewBox="0 0 360 252" width="360pt" xmlns="http://www.w3.org/2000/svg" xmlns:xlink="http://www.w3.org/1999/xlink">
 <defs>
  <style type="text/css">
*{stroke-linecap:butt;stroke-linejoin:round;}
  </style>
 </defs>
 <g id="figure_1">
  <g id="patch_1">
   <path d="M 0 252 
L 360 252 
L 360 0 
L 0 0 
z
" style="fill:#ffffff;"/>
  </g>
  <g id="axes_1">
   <g id="patch_2">
    <path d="M 63.05 202.2 
L 342.185294 202.2 
L 342.185294 28.8 
L 63.05 28.8 
z
" style="fill:#ffffff;"/>
   </g>
   <g id="PathCollection_1">
    <defs>
     <path d="M 0 5 
C 1.326016 5 2.597899 4.473168 3.535534 3.535534 
C 4.473168 2.597899 5 1.326016 5 0 
C 5 -1.326016 4.473168 -2.597899 3.535534 -3.535534 
C 2.597899 -4.473168 1.326016 -5 0 -5 
C -1.326016 -5 -2.597899 -4.473168 -3.535534 -3.535534 
C -4.473168 -2.597899 -5 -1.326016 -5 0 
C -5 1.326016 -4.473168 2.597899 -3.535534 3.535534 
C -2.597899 4.473168 -1.326016 5 0 5 
z
" id="m49573875b9" style="stroke:#000000;stroke-opacity:0.3;"/>
    </defs>
    <g clip-path="url(#p0ce6ed101a)">
     <use style="fill-opacity:0.3;stroke:#000000;stroke-opacity:0.3;" x="339.448674" xlink:href="#m49573875b9" y="202.145502"/>
     <use style="fill-opacity:0.3;stroke:#000000;stroke-opacity:0.3;" x="179.019528" xlink:href="#m49573875b9" y="201.962235"/>
     <use style="fill-opacity:0.3;stroke:#000000;stroke-opacity:0.3;" x="339.448674" xlink:href="#m49573875b9" y="202.139956"/>
     <use style="fill-opacity:0.3;stroke:#000000;stroke-opacity:0.3;" x="339.448674" xlink:href="#m49573875b9" y="202.018632"/>
     <use style="fill-opacity:0.3;stroke:#000000;stroke-opacity:0.3;" x="195.995023" xlink:href="#m49573875b9" y="199.181809"/>
     <use style="fill-opacity:0.3;stroke:#000000;stroke-opacity:0.3;" x="98.975263" xlink:href="#m49573875b9" y="200.441862"/>
     <use style="fill-opacity:0.3;stroke:#000000;stroke-opacity:0.3;" x="339.448674" xlink:href="#m49573875b9" y="202.2"/>
     <use style="fill-opacity:0.3;stroke:#000000;stroke-opacity:0.3;" x="219.41023" xlink:href="#m49573875b9" y="201.698538"/>
     <use style="fill-opacity:0.3;stroke:#000000;stroke-opacity:0.3;" x="115.720954" xlink:href="#m49573875b9" y="200.339667"/>
     <use style="fill-opacity:0.3;stroke:#000000;stroke-opacity:0.3;" x="250.687852" xlink:href="#m49573875b9" y="198.779189"/>
     <use style="fill-opacity:0.3;stroke:#000000;stroke-opacity:0.3;" x="339.448674" xlink:href="#m49573875b9" y="199.710174"/>
     <use style="fill-opacity:0.3;stroke:#000000;stroke-opacity:0.3;" x="161.194068" xlink:href="#m49573875b9" y="202.112048"/>
     <use style="fill-opacity:0.3;stroke:#000000;stroke-opacity:0.3;" x="205.757719" xlink:href="#m49573875b9" y="201.567311"/>
     <use style="fill-opacity:0.3;stroke:#000000;stroke-opacity:0.3;" x="179.019528" xlink:href="#m49573875b9" y="202.117959"/>
     <use style="fill-opacity:0.3;stroke:#000000;stroke-opacity:0.3;" x="256.169575" xlink:href="#m49573875b9" y="197.822398"/>
     <use style="fill-opacity:0.3;stroke:#000000;stroke-opacity:0.3;" x="339.448674" xlink:href="#m49573875b9" y="202.105016"/>
     <use style="fill-opacity:0.3;stroke:#000000;stroke-opacity:0.3;" x="339.448674" xlink:href="#m49573875b9" y="202.184195"/>
     <use style="fill-opacity:0.3;stroke:#000000;stroke-opacity:0.3;" x="285.972292" xlink:href="#m49573875b9" y="202.2"/>
     <use style="fill-opacity:0.3;stroke:#000000;stroke-opacity:0.3;" x="339.448674" xlink:href="#m49573875b9" y="202.166126"/>
     <use style="fill-opacity:0.3;stroke:#000000;stroke-opacity:0.3;" x="312.078344" xlink:href="#m49573875b9" y="132.052736"/>
     <use style="fill-opacity:0.3;stroke:#000000;stroke-opacity:0.3;" x="339.448674" xlink:href="#m49573875b9" y="202.199599"/>
     <use style="fill-opacity:0.3;stroke:#000000;stroke-opacity:0.3;" x="263.053843" xlink:href="#m49573875b9" y="202.125793"/>
     <use style="fill-opacity:0.3;stroke:#000000;stroke-opacity:0.3;" x="206.104969" xlink:href="#m49573875b9" y="199.848226"/>
     <use style="fill-opacity:0.3;stroke:#000000;stroke-opacity:0.3;" x="251.556799" xlink:href="#m49573875b9" y="199.988707"/>
     <use style="fill-opacity:0.3;stroke:#000000;stroke-opacity:0.3;" x="125.543147" xlink:href="#m49573875b9" y="202.2"/>
     <use style="fill-opacity:0.3;stroke:#000000;stroke-opacity:0.3;" x="320.137758" xlink:href="#m49573875b9" y="192.88708"/>
     <use style="fill-opacity:0.3;stroke:#000000;stroke-opacity:0.3;" x="100.278714" xlink:href="#m49573875b9" y="201.644133"/>
     <use style="fill-opacity:0.3;stroke:#000000;stroke-opacity:0.3;" x="91.55319" xlink:href="#m49573875b9" y="201.725895"/>
     <use style="fill-opacity:0.3;stroke:#000000;stroke-opacity:0.3;" x="279.12973" xlink:href="#m49573875b9" y="200.250142"/>
     <use style="fill-opacity:0.3;stroke:#000000;stroke-opacity:0.3;" x="100.033762" xlink:href="#m49573875b9" y="201.646935"/>
     <use style="fill-opacity:0.3;stroke:#000000;stroke-opacity:0.3;" x="127.041315" xlink:href="#m49573875b9" y="201.443066"/>
     <use style="fill-opacity:0.3;stroke:#000000;stroke-opacity:0.3;" x="259.234101" xlink:href="#m49573875b9" y="198.515122"/>
     <use style="fill-opacity:0.3;stroke:#000000;stroke-opacity:0.3;" x="282.977614" xlink:href="#m49573875b9" y="196.788941"/>
     <use style="fill-opacity:0.3;stroke:#000000;stroke-opacity:0.3;" x="339.448674" xlink:href="#m49573875b9" y="202.179188"/>
     <use style="fill-opacity:0.3;stroke:#000000;stroke-opacity:0.3;" x="301.817146" xlink:href="#m49573875b9" y="192.726029"/>
     <use style="fill-opacity:0.3;stroke:#000000;stroke-opacity:0.3;" x="270.217462" xlink:href="#m49573875b9" y="196.87003"/>
     <use style="fill-opacity:0.3;stroke:#000000;stroke-opacity:0.3;" x="130.526609" xlink:href="#m49573875b9" y="190.2292"/>
     <use style="fill-opacity:0.3;stroke:#000000;stroke-opacity:0.3;" x="275.277016" xlink:href="#m49573875b9" y="202.160219"/>
     <use style="fill-opacity:0.3;stroke:#000000;stroke-opacity:0.3;" x="339.448674" xlink:href="#m49573875b9" y="202.193488"/>
     <use style="fill-opacity:0.3;stroke:#000000;stroke-opacity:0.3;" x="275.277016" xlink:href="#m49573875b9" y="202.148923"/>
     <use style="fill-opacity:0.3;stroke:#000000;stroke-opacity:0.3;" x="272.424942" xlink:href="#m49573875b9" y="168.808112"/>
     <use style="fill-opacity:0.3;stroke:#000000;stroke-opacity:0.3;" x="339.448674" xlink:href="#m49573875b9" y="199.710174"/>
     <use style="fill-opacity:0.3;stroke:#000000;stroke-opacity:0.3;" x="232.49591" xlink:href="#m49573875b9" y="201.564011"/>
     <use style="fill-opacity:0.3;stroke:#000000;stroke-opacity:0.3;" x="339.448674" xlink:href="#m49573875b9" y="202.2"/>
     <use style="fill-opacity:0.3;stroke:#000000;stroke-opacity:0.3;" x="232.49591" xlink:href="#m49573875b9" y="202.17468"/>
     <use style="fill-opacity:0.3;stroke:#000000;stroke-opacity:0.3;" x="339.448674" xlink:href="#m49573875b9" y="202.131484"/>
     <use style="fill-opacity:0.3;stroke:#000000;stroke-opacity:0.3;" x="301.817146" xlink:href="#m49573875b9" y="192.726029"/>
     <use style="fill-opacity:0.3;stroke:#000000;stroke-opacity:0.3;" x="301.817146" xlink:href="#m49573875b9" y="192.726029"/>
     <use style="fill-opacity:0.3;stroke:#000000;stroke-opacity:0.3;" x="339.448674" xlink:href="#m49573875b9" y="202.131484"/>
     <use style="fill-opacity:0.3;stroke:#000000;stroke-opacity:0.3;" x="264.819412" xlink:href="#m49573875b9" y="172.343919"/>
     <use style="fill-opacity:0.3;stroke:#000000;stroke-opacity:0.3;" x="80.249984" xlink:href="#m49573875b9" y="202.146959"/>
     <use style="fill-opacity:0.3;stroke:#000000;stroke-opacity:0.3;" x="301.817146" xlink:href="#m49573875b9" y="192.726029"/>
     <use style="fill-opacity:0.3;stroke:#000000;stroke-opacity:0.3;" x="269.716797" xlink:href="#m49573875b9" y="201.279328"/>
     <use style="fill-opacity:0.3;stroke:#000000;stroke-opacity:0.3;" x="275.791923" xlink:href="#m49573875b9" y="202.193127"/>
     <use style="fill-opacity:0.3;stroke:#000000;stroke-opacity:0.3;" x="74.379554" xlink:href="#m49573875b9" y="201.33842"/>
     <use style="fill-opacity:0.3;stroke:#000000;stroke-opacity:0.3;" x="71.734614" xlink:href="#m49573875b9" y="201.167254"/>
     <use style="fill-opacity:0.3;stroke:#000000;stroke-opacity:0.3;" x="190.01057" xlink:href="#m49573875b9" y="201.986369"/>
     <use style="fill-opacity:0.3;stroke:#000000;stroke-opacity:0.3;" x="339.448674" xlink:href="#m49573875b9" y="202.18904"/>
     <use style="fill-opacity:0.3;stroke:#000000;stroke-opacity:0.3;" x="189.400619" xlink:href="#m49573875b9" y="201.807972"/>
     <use style="fill-opacity:0.3;stroke:#000000;stroke-opacity:0.3;" x="83.223708" xlink:href="#m49573875b9" y="201.176771"/>
     <use style="fill-opacity:0.3;stroke:#000000;stroke-opacity:0.3;" x="339.448674" xlink:href="#m49573875b9" y="202.2"/>
     <use style="fill-opacity:0.3;stroke:#000000;stroke-opacity:0.3;" x="315.509383" xlink:href="#m49573875b9" y="201.890289"/>
     <use style="fill-opacity:0.3;stroke:#000000;stroke-opacity:0.3;" x="182.60832" xlink:href="#m49573875b9" y="196.630741"/>
     <use style="fill-opacity:0.3;stroke:#000000;stroke-opacity:0.3;" x="339.448674" xlink:href="#m49573875b9" y="202.152257"/>
     <use style="fill-opacity:0.3;stroke:#000000;stroke-opacity:0.3;" x="110.725787" xlink:href="#m49573875b9" y="201.589189"/>
     <use style="fill-opacity:0.3;stroke:#000000;stroke-opacity:0.3;" x="129.381397" xlink:href="#m49573875b9" y="201.870039"/>
     <use style="fill-opacity:0.3;stroke:#000000;stroke-opacity:0.3;" x="233.405096" xlink:href="#m49573875b9" y="198.348363"/>
     <use style="fill-opacity:0.3;stroke:#000000;stroke-opacity:0.3;" x="232.49591" xlink:href="#m49573875b9" y="202.123053"/>
     <use style="fill-opacity:0.3;stroke:#000000;stroke-opacity:0.3;" x="257.069349" xlink:href="#m49573875b9" y="201.872231"/>
     <use style="fill-opacity:0.3;stroke:#000000;stroke-opacity:0.3;" x="81.471316" xlink:href="#m49573875b9" y="201.975612"/>
     <use style="fill-opacity:0.3;stroke:#000000;stroke-opacity:0.3;" x="275.791923" xlink:href="#m49573875b9" y="201.846099"/>
     <use style="fill-opacity:0.3;stroke:#000000;stroke-opacity:0.3;" x="322.561395" xlink:href="#m49573875b9" y="201.865787"/>
     <use style="fill-opacity:0.3;stroke:#000000;stroke-opacity:0.3;" x="339.448674" xlink:href="#m49573875b9" y="202.161844"/>
     <use style="fill-opacity:0.3;stroke:#000000;stroke-opacity:0.3;" x="104.152594" xlink:href="#m49573875b9" y="202.058304"/>
     <use style="fill-opacity:0.3;stroke:#000000;stroke-opacity:0.3;" x="339.448674" xlink:href="#m49573875b9" y="179.352469"/>
     <use style="fill-opacity:0.3;stroke:#000000;stroke-opacity:0.3;" x="339.448674" xlink:href="#m49573875b9" y="175.747481"/>
     <use style="fill-opacity:0.3;stroke:#000000;stroke-opacity:0.3;" x="339.448674" xlink:href="#m49573875b9" y="197.213558"/>
     <use style="fill-opacity:0.3;stroke:#000000;stroke-opacity:0.3;" x="339.448674" xlink:href="#m49573875b9" y="191.645427"/>
     <use style="fill-opacity:0.3;stroke:#000000;stroke-opacity:0.3;" x="339.448674" xlink:href="#m49573875b9" y="184.887934"/>
     <use style="fill-opacity:0.3;stroke:#000000;stroke-opacity:0.3;" x="339.448674" xlink:href="#m49573875b9" y="163.975456"/>
     <use style="fill-opacity:0.3;stroke:#000000;stroke-opacity:0.3;" x="339.448674" xlink:href="#m49573875b9" y="194.676015"/>
     <use style="fill-opacity:0.3;stroke:#000000;stroke-opacity:0.3;" x="339.448674" xlink:href="#m49573875b9" y="191.119836"/>
     <use style="fill-opacity:0.3;stroke:#000000;stroke-opacity:0.3;" x="299.341387" xlink:href="#m49573875b9" y="201.878791"/>
     <use style="fill-opacity:0.3;stroke:#000000;stroke-opacity:0.3;" x="339.448674" xlink:href="#m49573875b9" y="202.2"/>
     <use style="fill-opacity:0.3;stroke:#000000;stroke-opacity:0.3;" x="336.174609" xlink:href="#m49573875b9" y="185.532446"/>
     <use style="fill-opacity:0.3;stroke:#000000;stroke-opacity:0.3;" x="294.209466" xlink:href="#m49573875b9" y="194.352758"/>
     <use style="fill-opacity:0.3;stroke:#000000;stroke-opacity:0.3;" x="258.56325" xlink:href="#m49573875b9" y="163.175922"/>
     <use style="fill-opacity:0.3;stroke:#000000;stroke-opacity:0.3;" x="336.221834" xlink:href="#m49573875b9" y="179.068639"/>
     <use style="fill-opacity:0.3;stroke:#000000;stroke-opacity:0.3;" x="258.56325" xlink:href="#m49573875b9" y="163.175922"/>
     <use style="fill-opacity:0.3;stroke:#000000;stroke-opacity:0.3;" x="336.221834" xlink:href="#m49573875b9" y="179.068639"/>
     <use style="fill-opacity:0.3;stroke:#000000;stroke-opacity:0.3;" x="157.909051" xlink:href="#m49573875b9" y="202.086281"/>
     <use style="fill-opacity:0.3;stroke:#000000;stroke-opacity:0.3;" x="285.972292" xlink:href="#m49573875b9" y="202.181762"/>
     <use style="fill-opacity:0.3;stroke:#000000;stroke-opacity:0.3;" x="321.021719" xlink:href="#m49573875b9" y="200.945524"/>
     <use style="fill-opacity:0.3;stroke:#000000;stroke-opacity:0.3;" x="339.448674" xlink:href="#m49573875b9" y="202.155002"/>
     <use style="fill-opacity:0.3;stroke:#000000;stroke-opacity:0.3;" x="339.448674" xlink:href="#m49573875b9" y="202.108418"/>
     <use style="fill-opacity:0.3;stroke:#000000;stroke-opacity:0.3;" x="203.803137" xlink:href="#m49573875b9" y="201.796997"/>
     <use style="fill-opacity:0.3;stroke:#000000;stroke-opacity:0.3;" x="339.448674" xlink:href="#m49573875b9" y="202.182928"/>
     <use style="fill-opacity:0.3;stroke:#000000;stroke-opacity:0.3;" x="311.061204" xlink:href="#m49573875b9" y="201.895448"/>
     <use style="fill-opacity:0.3;stroke:#000000;stroke-opacity:0.3;" x="104.152594" xlink:href="#m49573875b9" y="202.058304"/>
     <use style="fill-opacity:0.3;stroke:#000000;stroke-opacity:0.3;" x="257.359468" xlink:href="#m49573875b9" y="161.548632"/>
     <use style="fill-opacity:0.3;stroke:#000000;stroke-opacity:0.3;" x="257.359468" xlink:href="#m49573875b9" y="161.548632"/>
     <use style="fill-opacity:0.3;stroke:#000000;stroke-opacity:0.3;" x="313.025117" xlink:href="#m49573875b9" y="201.487389"/>
     <use style="fill-opacity:0.3;stroke:#000000;stroke-opacity:0.3;" x="91.537653" xlink:href="#m49573875b9" y="201.629372"/>
     <use style="fill-opacity:0.3;stroke:#000000;stroke-opacity:0.3;" x="339.448674" xlink:href="#m49573875b9" y="200.404363"/>
     <use style="fill-opacity:0.3;stroke:#000000;stroke-opacity:0.3;" x="86.488078" xlink:href="#m49573875b9" y="201.832766"/>
     <use style="fill-opacity:0.3;stroke:#000000;stroke-opacity:0.3;" x="100.055765" xlink:href="#m49573875b9" y="201.451751"/>
     <use style="fill-opacity:0.3;stroke:#000000;stroke-opacity:0.3;" x="164.392609" xlink:href="#m49573875b9" y="202.067045"/>
     <use style="fill-opacity:0.3;stroke:#000000;stroke-opacity:0.3;" x="203.819651" xlink:href="#m49573875b9" y="199.924498"/>
     <use style="fill-opacity:0.3;stroke:#000000;stroke-opacity:0.3;" x="134.767737" xlink:href="#m49573875b9" y="201.773732"/>
     <use style="fill-opacity:0.3;stroke:#000000;stroke-opacity:0.3;" x="132.811781" xlink:href="#m49573875b9" y="201.548014"/>
     <use style="fill-opacity:0.3;stroke:#000000;stroke-opacity:0.3;" x="264.819412" xlink:href="#m49573875b9" y="172.343919"/>
     <use style="fill-opacity:0.3;stroke:#000000;stroke-opacity:0.3;" x="339.448674" xlink:href="#m49573875b9" y="202.193488"/>
     <use style="fill-opacity:0.3;stroke:#000000;stroke-opacity:0.3;" x="339.448674" xlink:href="#m49573875b9" y="28.8"/>
     <use style="fill-opacity:0.3;stroke:#000000;stroke-opacity:0.3;" x="339.448674" xlink:href="#m49573875b9" y="202.2"/>
     <use style="fill-opacity:0.3;stroke:#000000;stroke-opacity:0.3;" x="292.767056" xlink:href="#m49573875b9" y="191.425083"/>
     <use style="fill-opacity:0.3;stroke:#000000;stroke-opacity:0.3;" x="255.674665" xlink:href="#m49573875b9" y="191.81778"/>
     <use style="fill-opacity:0.3;stroke:#000000;stroke-opacity:0.3;" x="232.49591" xlink:href="#m49573875b9" y="202.123053"/>
     <use style="fill-opacity:0.3;stroke:#000000;stroke-opacity:0.3;" x="81.471316" xlink:href="#m49573875b9" y="201.975612"/>
     <use style="fill-opacity:0.3;stroke:#000000;stroke-opacity:0.3;" x="257.069349" xlink:href="#m49573875b9" y="201.872231"/>
     <use style="fill-opacity:0.3;stroke:#000000;stroke-opacity:0.3;" x="252.904103" xlink:href="#m49573875b9" y="198.996079"/>
     <use style="fill-opacity:0.3;stroke:#000000;stroke-opacity:0.3;" x="339.448674" xlink:href="#m49573875b9" y="202.188572"/>
     <use style="fill-opacity:0.3;stroke:#000000;stroke-opacity:0.3;" x="262.000121" xlink:href="#m49573875b9" y="197.475526"/>
     <use style="fill-opacity:0.3;stroke:#000000;stroke-opacity:0.3;" x="339.448674" xlink:href="#m49573875b9" y="202.193488"/>
     <use style="fill-opacity:0.3;stroke:#000000;stroke-opacity:0.3;" x="125.543147" xlink:href="#m49573875b9" y="202.2"/>
     <use style="fill-opacity:0.3;stroke:#000000;stroke-opacity:0.3;" x="339.448674" xlink:href="#m49573875b9" y="202.19907"/>
     <use style="fill-opacity:0.3;stroke:#000000;stroke-opacity:0.3;" x="339.448674" xlink:href="#m49573875b9" y="202.1351"/>
     <use style="fill-opacity:0.3;stroke:#000000;stroke-opacity:0.3;" x="137.819154" xlink:href="#m49573875b9" y="198.747176"/>
     <use style="fill-opacity:0.3;stroke:#000000;stroke-opacity:0.3;" x="74.755468" xlink:href="#m49573875b9" y="201.53487"/>
     <use style="fill-opacity:0.3;stroke:#000000;stroke-opacity:0.3;" x="97.063354" xlink:href="#m49573875b9" y="202.17188"/>
     <use style="fill-opacity:0.3;stroke:#000000;stroke-opacity:0.3;" x="232.49591" xlink:href="#m49573875b9" y="201.76114"/>
     <use style="fill-opacity:0.3;stroke:#000000;stroke-opacity:0.3;" x="69.010972" xlink:href="#m49573875b9" y="202.188552"/>
     <use style="fill-opacity:0.3;stroke:#000000;stroke-opacity:0.3;" x="147.74089" xlink:href="#m49573875b9" y="201.628655"/>
     <use style="fill-opacity:0.3;stroke:#000000;stroke-opacity:0.3;" x="232.49591" xlink:href="#m49573875b9" y="202.0774"/>
     <use style="fill-opacity:0.3;stroke:#000000;stroke-opacity:0.3;" x="339.448674" xlink:href="#m49573875b9" y="202.2"/>
     <use style="fill-opacity:0.3;stroke:#000000;stroke-opacity:0.3;" x="330.535943" xlink:href="#m49573875b9" y="202.000734"/>
     <use style="fill-opacity:0.3;stroke:#000000;stroke-opacity:0.3;" x="339.448674" xlink:href="#m49573875b9" y="202.2"/>
     <use style="fill-opacity:0.3;stroke:#000000;stroke-opacity:0.3;" x="293.280041" xlink:href="#m49573875b9" y="201.40717"/>
     <use style="fill-opacity:0.3;stroke:#000000;stroke-opacity:0.3;" x="179.019528" xlink:href="#m49573875b9" y="201.962235"/>
     <use style="fill-opacity:0.3;stroke:#000000;stroke-opacity:0.3;" x="105.489504" xlink:href="#m49573875b9" y="201.910917"/>
     <use style="fill-opacity:0.3;stroke:#000000;stroke-opacity:0.3;" x="85.635399" xlink:href="#m49573875b9" y="201.230421"/>
     <use style="fill-opacity:0.3;stroke:#000000;stroke-opacity:0.3;" x="239.416637" xlink:href="#m49573875b9" y="200.70821"/>
     <use style="fill-opacity:0.3;stroke:#000000;stroke-opacity:0.3;" x="339.448674" xlink:href="#m49573875b9" y="202.199067"/>
     <use style="fill-opacity:0.3;stroke:#000000;stroke-opacity:0.3;" x="104.152594" xlink:href="#m49573875b9" y="201.947151"/>
     <use style="fill-opacity:0.3;stroke:#000000;stroke-opacity:0.3;" x="173.077708" xlink:href="#m49573875b9" y="201.843794"/>
     <use style="fill-opacity:0.3;stroke:#000000;stroke-opacity:0.3;" x="127.454174" xlink:href="#m49573875b9" y="201.931522"/>
     <use style="fill-opacity:0.3;stroke:#000000;stroke-opacity:0.3;" x="127.028602" xlink:href="#m49573875b9" y="201.423267"/>
     <use style="fill-opacity:0.3;stroke:#000000;stroke-opacity:0.3;" x="299.341387" xlink:href="#m49573875b9" y="201.776874"/>
     <use style="fill-opacity:0.3;stroke:#000000;stroke-opacity:0.3;" x="86.290673" xlink:href="#m49573875b9" y="201.664907"/>
     <use style="fill-opacity:0.3;stroke:#000000;stroke-opacity:0.3;" x="169.123854" xlink:href="#m49573875b9" y="202.101973"/>
     <use style="fill-opacity:0.3;stroke:#000000;stroke-opacity:0.3;" x="146.10317" xlink:href="#m49573875b9" y="201.330157"/>
     <use style="fill-opacity:0.3;stroke:#000000;stroke-opacity:0.3;" x="339.448674" xlink:href="#m49573875b9" y="202.188918"/>
     <use style="fill-opacity:0.3;stroke:#000000;stroke-opacity:0.3;" x="208.728629" xlink:href="#m49573875b9" y="201.874885"/>
     <use style="fill-opacity:0.3;stroke:#000000;stroke-opacity:0.3;" x="339.448674" xlink:href="#m49573875b9" y="202.106505"/>
     <use style="fill-opacity:0.3;stroke:#000000;stroke-opacity:0.3;" x="339.448674" xlink:href="#m49573875b9" y="202.054974"/>
     <use style="fill-opacity:0.3;stroke:#000000;stroke-opacity:0.3;" x="139.3846" xlink:href="#m49573875b9" y="201.661882"/>
     <use style="fill-opacity:0.3;stroke:#000000;stroke-opacity:0.3;" x="318.748139" xlink:href="#m49573875b9" y="201.640198"/>
     <use style="fill-opacity:0.3;stroke:#000000;stroke-opacity:0.3;" x="339.448674" xlink:href="#m49573875b9" y="202.092562"/>
     <use style="fill-opacity:0.3;stroke:#000000;stroke-opacity:0.3;" x="82.518843" xlink:href="#m49573875b9" y="201.090894"/>
     <use style="fill-opacity:0.3;stroke:#000000;stroke-opacity:0.3;" x="248.902433" xlink:href="#m49573875b9" y="201.367209"/>
     <use style="fill-opacity:0.3;stroke:#000000;stroke-opacity:0.3;" x="205.757719" xlink:href="#m49573875b9" y="201.567311"/>
     <use style="fill-opacity:0.3;stroke:#000000;stroke-opacity:0.3;" x="146.933699" xlink:href="#m49573875b9" y="201.819782"/>
     <use style="fill-opacity:0.3;stroke:#000000;stroke-opacity:0.3;" x="69.362175" xlink:href="#m49573875b9" y="201.985319"/>
     <use style="fill-opacity:0.3;stroke:#000000;stroke-opacity:0.3;" x="210.459995" xlink:href="#m49573875b9" y="202.115341"/>
     <use style="fill-opacity:0.3;stroke:#000000;stroke-opacity:0.3;" x="339.448674" xlink:href="#m49573875b9" y="202.2"/>
     <use style="fill-opacity:0.3;stroke:#000000;stroke-opacity:0.3;" x="130.541989" xlink:href="#m49573875b9" y="201.657834"/>
     <use style="fill-opacity:0.3;stroke:#000000;stroke-opacity:0.3;" x="130.541989" xlink:href="#m49573875b9" y="201.657834"/>
     <use style="fill-opacity:0.3;stroke:#000000;stroke-opacity:0.3;" x="124.882944" xlink:href="#m49573875b9" y="200.971189"/>
     <use style="fill-opacity:0.3;stroke:#000000;stroke-opacity:0.3;" x="125.543147" xlink:href="#m49573875b9" y="202.193089"/>
     <use style="fill-opacity:0.3;stroke:#000000;stroke-opacity:0.3;" x="149.804604" xlink:href="#m49573875b9" y="202.130375"/>
    </g>
   </g>
   <g id="matplotlib.axis_1">
    <g id="xtick_1">
     <g id="line2d_1">
      <defs>
       <path d="M 0 0 
L 0 3.5 
" id="m776856bcee" style="stroke:#000000;stroke-width:0.8;"/>
      </defs>
      <g>
       <use style="stroke:#000000;stroke-width:0.8;" x="65.786621" xlink:href="#m776856bcee" y="202.2"/>
      </g>
     </g>
     <g id="text_1">
      <!-- 0.0 -->
      <defs>
       <path d="M 4.15625 35.296875 
Q 4.15625 48 6.765625 55.734375 
Q 9.375 63.484375 14.515625 67.671875 
Q 19.671875 71.875 27.484375 71.875 
Q 33.25 71.875 37.59375 69.546875 
Q 41.9375 67.234375 44.765625 62.859375 
Q 47.609375 58.5 49.21875 52.21875 
Q 50.828125 45.953125 50.828125 35.296875 
Q 50.828125 22.703125 48.234375 14.96875 
Q 45.65625 7.234375 40.5 3 
Q 35.359375 -1.21875 27.484375 -1.21875 
Q 17.140625 -1.21875 11.234375 6.203125 
Q 4.15625 15.140625 4.15625 35.296875 
z
M 13.1875 35.296875 
Q 13.1875 17.671875 17.3125 11.828125 
Q 21.4375 6 27.484375 6 
Q 33.546875 6 37.671875 11.859375 
Q 41.796875 17.71875 41.796875 35.296875 
Q 41.796875 52.984375 37.671875 58.78125 
Q 33.546875 64.59375 27.390625 64.59375 
Q 21.34375 64.59375 17.71875 59.46875 
Q 13.1875 52.9375 13.1875 35.296875 
z
" id="ArialMT-48"/>
       <path d="M 9.078125 0 
L 9.078125 10.015625 
L 19.09375 10.015625 
L 19.09375 0 
z
" id="ArialMT-46"/>
      </defs>
      <g transform="translate(56.056621 219.220938)scale(0.14 -0.14)">
       <use xlink:href="#ArialMT-48"/>
       <use x="55.615234" xlink:href="#ArialMT-46"/>
       <use x="83.398438" xlink:href="#ArialMT-48"/>
      </g>
     </g>
    </g>
    <g id="xtick_2">
     <g id="line2d_2">
      <g>
       <use style="stroke:#000000;stroke-width:0.8;" x="120.519031" xlink:href="#m776856bcee" y="202.2"/>
      </g>
     </g>
     <g id="text_2">
      <!-- 0.2 -->
      <defs>
       <path d="M 50.34375 8.453125 
L 50.34375 0 
L 3.03125 0 
Q 2.9375 3.171875 4.046875 6.109375 
Q 5.859375 10.9375 9.828125 15.625 
Q 13.8125 20.3125 21.34375 26.46875 
Q 33.015625 36.03125 37.109375 41.625 
Q 41.21875 47.21875 41.21875 52.203125 
Q 41.21875 57.421875 37.46875 61 
Q 33.734375 64.59375 27.734375 64.59375 
Q 21.390625 64.59375 17.578125 60.78125 
Q 13.765625 56.984375 13.71875 50.25 
L 4.6875 51.171875 
Q 5.609375 61.28125 11.65625 66.578125 
Q 17.71875 71.875 27.9375 71.875 
Q 38.234375 71.875 44.234375 66.15625 
Q 50.25 60.453125 50.25 52 
Q 50.25 47.703125 48.484375 43.546875 
Q 46.734375 39.40625 42.65625 34.8125 
Q 38.578125 30.21875 29.109375 22.21875 
Q 21.1875 15.578125 18.9375 13.203125 
Q 16.703125 10.84375 15.234375 8.453125 
z
" id="ArialMT-50"/>
      </defs>
      <g transform="translate(110.789031 219.220938)scale(0.14 -0.14)">
       <use xlink:href="#ArialMT-48"/>
       <use x="55.615234" xlink:href="#ArialMT-46"/>
       <use x="83.398438" xlink:href="#ArialMT-50"/>
      </g>
     </g>
    </g>
    <g id="xtick_3">
     <g id="line2d_3">
      <g>
       <use style="stroke:#000000;stroke-width:0.8;" x="175.251442" xlink:href="#m776856bcee" y="202.2"/>
      </g>
     </g>
     <g id="text_3">
      <!-- 0.4 -->
      <defs>
       <path d="M 32.328125 0 
L 32.328125 17.140625 
L 1.265625 17.140625 
L 1.265625 25.203125 
L 33.9375 71.578125 
L 41.109375 71.578125 
L 41.109375 25.203125 
L 50.78125 25.203125 
L 50.78125 17.140625 
L 41.109375 17.140625 
L 41.109375 0 
z
M 32.328125 25.203125 
L 32.328125 57.46875 
L 9.90625 25.203125 
z
" id="ArialMT-52"/>
      </defs>
      <g transform="translate(165.521442 219.220938)scale(0.14 -0.14)">
       <use xlink:href="#ArialMT-48"/>
       <use x="55.615234" xlink:href="#ArialMT-46"/>
       <use x="83.398438" xlink:href="#ArialMT-52"/>
      </g>
     </g>
    </g>
    <g id="xtick_4">
     <g id="line2d_4">
      <g>
       <use style="stroke:#000000;stroke-width:0.8;" x="229.983852" xlink:href="#m776856bcee" y="202.2"/>
      </g>
     </g>
     <g id="text_4">
      <!-- 0.6 -->
      <defs>
       <path d="M 49.75 54.046875 
L 41.015625 53.375 
Q 39.84375 58.546875 37.703125 60.890625 
Q 34.125 64.65625 28.90625 64.65625 
Q 24.703125 64.65625 21.53125 62.3125 
Q 17.390625 59.28125 14.984375 53.46875 
Q 12.59375 47.65625 12.5 36.921875 
Q 15.671875 41.75 20.265625 44.09375 
Q 24.859375 46.4375 29.890625 46.4375 
Q 38.671875 46.4375 44.84375 39.96875 
Q 51.03125 33.5 51.03125 23.25 
Q 51.03125 16.5 48.125 10.71875 
Q 45.21875 4.9375 40.140625 1.859375 
Q 35.0625 -1.21875 28.609375 -1.21875 
Q 17.625 -1.21875 10.6875 6.859375 
Q 3.765625 14.9375 3.765625 33.5 
Q 3.765625 54.25 11.421875 63.671875 
Q 18.109375 71.875 29.4375 71.875 
Q 37.890625 71.875 43.28125 67.140625 
Q 48.6875 62.40625 49.75 54.046875 
z
M 13.875 23.1875 
Q 13.875 18.65625 15.796875 14.5 
Q 17.71875 10.359375 21.1875 8.171875 
Q 24.65625 6 28.46875 6 
Q 34.03125 6 38.03125 10.484375 
Q 42.046875 14.984375 42.046875 22.703125 
Q 42.046875 30.125 38.078125 34.390625 
Q 34.125 38.671875 28.125 38.671875 
Q 22.171875 38.671875 18.015625 34.390625 
Q 13.875 30.125 13.875 23.1875 
z
" id="ArialMT-54"/>
      </defs>
      <g transform="translate(220.253852 219.220938)scale(0.14 -0.14)">
       <use xlink:href="#ArialMT-48"/>
       <use x="55.615234" xlink:href="#ArialMT-46"/>
       <use x="83.398438" xlink:href="#ArialMT-54"/>
      </g>
     </g>
    </g>
    <g id="xtick_5">
     <g id="line2d_5">
      <g>
       <use style="stroke:#000000;stroke-width:0.8;" x="284.716263" xlink:href="#m776856bcee" y="202.2"/>
      </g>
     </g>
     <g id="text_5">
      <!-- 0.8 -->
      <defs>
       <path d="M 17.671875 38.8125 
Q 12.203125 40.828125 9.5625 44.53125 
Q 6.9375 48.25 6.9375 53.421875 
Q 6.9375 61.234375 12.546875 66.546875 
Q 18.171875 71.875 27.484375 71.875 
Q 36.859375 71.875 42.578125 66.421875 
Q 48.296875 60.984375 48.296875 53.171875 
Q 48.296875 48.1875 45.671875 44.5 
Q 43.0625 40.828125 37.75 38.8125 
Q 44.34375 36.671875 47.78125 31.875 
Q 51.21875 27.09375 51.21875 20.453125 
Q 51.21875 11.28125 44.71875 5.03125 
Q 38.234375 -1.21875 27.640625 -1.21875 
Q 17.046875 -1.21875 10.546875 5.046875 
Q 4.046875 11.328125 4.046875 20.703125 
Q 4.046875 27.6875 7.59375 32.390625 
Q 11.140625 37.109375 17.671875 38.8125 
z
M 15.921875 53.71875 
Q 15.921875 48.640625 19.1875 45.40625 
Q 22.46875 42.1875 27.6875 42.1875 
Q 32.765625 42.1875 36.015625 45.375 
Q 39.265625 48.578125 39.265625 53.21875 
Q 39.265625 58.0625 35.90625 61.359375 
Q 32.5625 64.65625 27.59375 64.65625 
Q 22.5625 64.65625 19.234375 61.421875 
Q 15.921875 58.203125 15.921875 53.71875 
z
M 13.09375 20.65625 
Q 13.09375 16.890625 14.875 13.375 
Q 16.65625 9.859375 20.171875 7.921875 
Q 23.6875 6 27.734375 6 
Q 34.03125 6 38.125 10.046875 
Q 42.234375 14.109375 42.234375 20.359375 
Q 42.234375 26.703125 38.015625 30.859375 
Q 33.796875 35.015625 27.4375 35.015625 
Q 21.234375 35.015625 17.15625 30.90625 
Q 13.09375 26.8125 13.09375 20.65625 
z
" id="ArialMT-56"/>
      </defs>
      <g transform="translate(274.986263 219.220938)scale(0.14 -0.14)">
       <use xlink:href="#ArialMT-48"/>
       <use x="55.615234" xlink:href="#ArialMT-46"/>
       <use x="83.398438" xlink:href="#ArialMT-56"/>
      </g>
     </g>
    </g>
    <g id="xtick_6">
     <g id="line2d_6">
      <g>
       <use style="stroke:#000000;stroke-width:0.8;" x="339.448674" xlink:href="#m776856bcee" y="202.2"/>
      </g>
     </g>
     <g id="text_6">
      <!-- 1.0 -->
      <defs>
       <path d="M 37.25 0 
L 28.46875 0 
L 28.46875 56 
Q 25.296875 52.984375 20.140625 49.953125 
Q 14.984375 46.921875 10.890625 45.40625 
L 10.890625 53.90625 
Q 18.265625 57.375 23.78125 62.296875 
Q 29.296875 67.234375 31.59375 71.875 
L 37.25 71.875 
z
" id="ArialMT-49"/>
      </defs>
      <g transform="translate(329.718674 219.220938)scale(0.14 -0.14)">
       <use xlink:href="#ArialMT-49"/>
       <use x="55.615234" xlink:href="#ArialMT-46"/>
       <use x="83.398438" xlink:href="#ArialMT-48"/>
      </g>
     </g>
    </g>
    <g id="text_7">
     <!-- cluster ratio -->
     <defs>
      <path d="M 40.4375 19 
L 49.078125 17.875 
Q 47.65625 8.9375 41.8125 3.875 
Q 35.984375 -1.171875 27.484375 -1.171875 
Q 16.84375 -1.171875 10.375 5.78125 
Q 3.90625 12.75 3.90625 25.734375 
Q 3.90625 34.125 6.6875 40.421875 
Q 9.46875 46.734375 15.15625 49.875 
Q 20.84375 53.03125 27.546875 53.03125 
Q 35.984375 53.03125 41.359375 48.75 
Q 46.734375 44.484375 48.25 36.625 
L 39.703125 35.296875 
Q 38.484375 40.53125 35.375 43.15625 
Q 32.28125 45.796875 27.875 45.796875 
Q 21.234375 45.796875 17.078125 41.03125 
Q 12.9375 36.28125 12.9375 25.984375 
Q 12.9375 15.53125 16.9375 10.796875 
Q 20.953125 6.0625 27.390625 6.0625 
Q 32.5625 6.0625 36.03125 9.234375 
Q 39.5 12.40625 40.4375 19 
z
" id="ArialMT-99"/>
      <path d="M 6.390625 0 
L 6.390625 71.578125 
L 15.1875 71.578125 
L 15.1875 0 
z
" id="ArialMT-108"/>
      <path d="M 40.578125 0 
L 40.578125 7.625 
Q 34.515625 -1.171875 24.125 -1.171875 
Q 19.53125 -1.171875 15.546875 0.578125 
Q 11.578125 2.34375 9.640625 5 
Q 7.71875 7.671875 6.9375 11.53125 
Q 6.390625 14.109375 6.390625 19.734375 
L 6.390625 51.859375 
L 15.1875 51.859375 
L 15.1875 23.09375 
Q 15.1875 16.21875 15.71875 13.8125 
Q 16.546875 10.359375 19.234375 8.375 
Q 21.921875 6.390625 25.875 6.390625 
Q 29.828125 6.390625 33.296875 8.421875 
Q 36.765625 10.453125 38.203125 13.9375 
Q 39.65625 17.4375 39.65625 24.078125 
L 39.65625 51.859375 
L 48.4375 51.859375 
L 48.4375 0 
z
" id="ArialMT-117"/>
      <path d="M 3.078125 15.484375 
L 11.765625 16.84375 
Q 12.5 11.625 15.84375 8.84375 
Q 19.1875 6.0625 25.203125 6.0625 
Q 31.25 6.0625 34.171875 8.515625 
Q 37.109375 10.984375 37.109375 14.3125 
Q 37.109375 17.28125 34.515625 19 
Q 32.71875 20.171875 25.53125 21.96875 
Q 15.875 24.421875 12.140625 26.203125 
Q 8.40625 27.984375 6.46875 31.125 
Q 4.546875 34.28125 4.546875 38.09375 
Q 4.546875 41.546875 6.125 44.5 
Q 7.71875 47.46875 10.453125 49.421875 
Q 12.5 50.921875 16.03125 51.96875 
Q 19.578125 53.03125 23.640625 53.03125 
Q 29.734375 53.03125 34.34375 51.265625 
Q 38.96875 49.515625 41.15625 46.5 
Q 43.359375 43.5 44.1875 38.484375 
L 35.59375 37.3125 
Q 35.015625 41.3125 32.203125 43.546875 
Q 29.390625 45.796875 24.265625 45.796875 
Q 18.21875 45.796875 15.625 43.796875 
Q 13.03125 41.796875 13.03125 39.109375 
Q 13.03125 37.40625 14.109375 36.03125 
Q 15.1875 34.625 17.484375 33.6875 
Q 18.796875 33.203125 25.25 31.453125 
Q 34.578125 28.953125 38.25 27.359375 
Q 41.9375 25.78125 44.03125 22.75 
Q 46.140625 19.734375 46.140625 15.234375 
Q 46.140625 10.84375 43.578125 6.953125 
Q 41.015625 3.078125 36.171875 0.953125 
Q 31.34375 -1.171875 25.25 -1.171875 
Q 15.140625 -1.171875 9.84375 3.03125 
Q 4.546875 7.234375 3.078125 15.484375 
z
" id="ArialMT-115"/>
      <path d="M 25.78125 7.859375 
L 27.046875 0.09375 
Q 23.34375 -0.6875 20.40625 -0.6875 
Q 15.625 -0.6875 12.984375 0.828125 
Q 10.359375 2.34375 9.28125 4.8125 
Q 8.203125 7.28125 8.203125 15.1875 
L 8.203125 45.015625 
L 1.765625 45.015625 
L 1.765625 51.859375 
L 8.203125 51.859375 
L 8.203125 64.703125 
L 16.9375 69.96875 
L 16.9375 51.859375 
L 25.78125 51.859375 
L 25.78125 45.015625 
L 16.9375 45.015625 
L 16.9375 14.703125 
Q 16.9375 10.9375 17.40625 9.859375 
Q 17.875 8.796875 18.921875 8.15625 
Q 19.96875 7.515625 21.921875 7.515625 
Q 23.390625 7.515625 25.78125 7.859375 
z
" id="ArialMT-116"/>
      <path d="M 42.09375 16.703125 
L 51.171875 15.578125 
Q 49.03125 7.625 43.21875 3.21875 
Q 37.40625 -1.171875 28.375 -1.171875 
Q 17 -1.171875 10.328125 5.828125 
Q 3.65625 12.84375 3.65625 25.484375 
Q 3.65625 38.578125 10.390625 45.796875 
Q 17.140625 53.03125 27.875 53.03125 
Q 38.28125 53.03125 44.875 45.953125 
Q 51.46875 38.875 51.46875 26.03125 
Q 51.46875 25.25 51.421875 23.6875 
L 12.75 23.6875 
Q 13.234375 15.140625 17.578125 10.59375 
Q 21.921875 6.0625 28.421875 6.0625 
Q 33.25 6.0625 36.671875 8.59375 
Q 40.09375 11.140625 42.09375 16.703125 
z
M 13.234375 30.90625 
L 42.1875 30.90625 
Q 41.609375 37.453125 38.875 40.71875 
Q 34.671875 45.796875 27.984375 45.796875 
Q 21.921875 45.796875 17.796875 41.75 
Q 13.671875 37.703125 13.234375 30.90625 
z
" id="ArialMT-101"/>
      <path d="M 6.5 0 
L 6.5 51.859375 
L 14.40625 51.859375 
L 14.40625 44 
Q 17.4375 49.515625 20 51.265625 
Q 22.5625 53.03125 25.640625 53.03125 
Q 30.078125 53.03125 34.671875 50.203125 
L 31.640625 42.046875 
Q 28.421875 43.953125 25.203125 43.953125 
Q 22.3125 43.953125 20.015625 42.21875 
Q 17.71875 40.484375 16.75 37.40625 
Q 15.28125 32.71875 15.28125 27.15625 
L 15.28125 0 
z
" id="ArialMT-114"/>
      <path id="ArialMT-32"/>
      <path d="M 40.4375 6.390625 
Q 35.546875 2.25 31.03125 0.53125 
Q 26.515625 -1.171875 21.34375 -1.171875 
Q 12.796875 -1.171875 8.203125 3 
Q 3.609375 7.171875 3.609375 13.671875 
Q 3.609375 17.484375 5.34375 20.625 
Q 7.078125 23.78125 9.890625 25.6875 
Q 12.703125 27.59375 16.21875 28.5625 
Q 18.796875 29.25 24.03125 29.890625 
Q 34.671875 31.15625 39.703125 32.90625 
Q 39.75 34.71875 39.75 35.203125 
Q 39.75 40.578125 37.25 42.78125 
Q 33.890625 45.75 27.25 45.75 
Q 21.046875 45.75 18.09375 43.578125 
Q 15.140625 41.40625 13.71875 35.890625 
L 5.125 37.0625 
Q 6.296875 42.578125 8.984375 45.96875 
Q 11.671875 49.359375 16.75 51.1875 
Q 21.828125 53.03125 28.515625 53.03125 
Q 35.15625 53.03125 39.296875 51.46875 
Q 43.453125 49.90625 45.40625 47.53125 
Q 47.359375 45.171875 48.140625 41.546875 
Q 48.578125 39.3125 48.578125 33.453125 
L 48.578125 21.734375 
Q 48.578125 9.46875 49.140625 6.21875 
Q 49.703125 2.984375 51.375 0 
L 42.1875 0 
Q 40.828125 2.734375 40.4375 6.390625 
z
M 39.703125 26.03125 
Q 34.90625 24.078125 25.34375 22.703125 
Q 19.921875 21.921875 17.671875 20.9375 
Q 15.4375 19.96875 14.203125 18.09375 
Q 12.984375 16.21875 12.984375 13.921875 
Q 12.984375 10.40625 15.640625 8.0625 
Q 18.3125 5.71875 23.4375 5.71875 
Q 28.515625 5.71875 32.46875 7.9375 
Q 36.421875 10.15625 38.28125 14.015625 
Q 39.703125 17 39.703125 22.796875 
z
" id="ArialMT-97"/>
      <path d="M 6.640625 61.46875 
L 6.640625 71.578125 
L 15.4375 71.578125 
L 15.4375 61.46875 
z
M 6.640625 0 
L 6.640625 51.859375 
L 15.4375 51.859375 
L 15.4375 0 
z
" id="ArialMT-105"/>
      <path d="M 3.328125 25.921875 
Q 3.328125 40.328125 11.328125 47.265625 
Q 18.015625 53.03125 27.640625 53.03125 
Q 38.328125 53.03125 45.109375 46.015625 
Q 51.90625 39.015625 51.90625 26.65625 
Q 51.90625 16.65625 48.90625 10.90625 
Q 45.90625 5.171875 40.15625 2 
Q 34.421875 -1.171875 27.640625 -1.171875 
Q 16.75 -1.171875 10.03125 5.8125 
Q 3.328125 12.796875 3.328125 25.921875 
z
M 12.359375 25.921875 
Q 12.359375 15.96875 16.703125 11.015625 
Q 21.046875 6.0625 27.640625 6.0625 
Q 34.1875 6.0625 38.53125 11.03125 
Q 42.875 16.015625 42.875 26.21875 
Q 42.875 35.84375 38.5 40.796875 
Q 34.125 45.75 27.640625 45.75 
Q 21.046875 45.75 16.703125 40.8125 
Q 12.359375 35.890625 12.359375 25.921875 
z
" id="ArialMT-111"/>
     </defs>
     <g transform="translate(166.440772 236.024375)scale(0.14 -0.14)">
      <use xlink:href="#ArialMT-99"/>
      <use x="50" xlink:href="#ArialMT-108"/>
      <use x="72.216797" xlink:href="#ArialMT-117"/>
      <use x="127.832031" xlink:href="#ArialMT-115"/>
      <use x="177.832031" xlink:href="#ArialMT-116"/>
      <use x="205.615234" xlink:href="#ArialMT-101"/>
      <use x="261.230469" xlink:href="#ArialMT-114"/>
      <use x="294.53125" xlink:href="#ArialMT-32"/>
      <use x="322.314453" xlink:href="#ArialMT-114"/>
      <use x="355.615234" xlink:href="#ArialMT-97"/>
      <use x="411.230469" xlink:href="#ArialMT-116"/>
      <use x="439.013672" xlink:href="#ArialMT-105"/>
      <use x="461.230469" xlink:href="#ArialMT-111"/>
     </g>
    </g>
   </g>
   <g id="matplotlib.axis_2">
    <g id="ytick_1">
     <g id="line2d_7">
      <defs>
       <path d="M 0 0 
L -3.5 0 
" id="mf4936ed5e6" style="stroke:#000000;stroke-width:0.8;"/>
      </defs>
      <g>
       <use style="stroke:#000000;stroke-width:0.8;" x="63.05" xlink:href="#mf4936ed5e6" y="202.2"/>
      </g>
     </g>
     <g id="text_8">
      <!-- 0.00 -->
      <g transform="translate(28.804688 207.210469)scale(0.14 -0.14)">
       <use xlink:href="#ArialMT-48"/>
       <use x="55.615234" xlink:href="#ArialMT-46"/>
       <use x="83.398438" xlink:href="#ArialMT-48"/>
       <use x="139.013672" xlink:href="#ArialMT-48"/>
      </g>
     </g>
    </g>
    <g id="ytick_2">
     <g id="line2d_8">
      <g>
       <use style="stroke:#000000;stroke-width:0.8;" x="63.05" xlink:href="#mf4936ed5e6" y="166.101399"/>
      </g>
     </g>
     <g id="text_9">
      <!-- 0.05 -->
      <defs>
       <path d="M 4.15625 18.75 
L 13.375 19.53125 
Q 14.40625 12.796875 18.140625 9.390625 
Q 21.875 6 27.15625 6 
Q 33.5 6 37.890625 10.78125 
Q 42.28125 15.578125 42.28125 23.484375 
Q 42.28125 31 38.0625 35.34375 
Q 33.84375 39.703125 27 39.703125 
Q 22.75 39.703125 19.328125 37.765625 
Q 15.921875 35.84375 13.96875 32.765625 
L 5.71875 33.84375 
L 12.640625 70.609375 
L 48.25 70.609375 
L 48.25 62.203125 
L 19.671875 62.203125 
L 15.828125 42.96875 
Q 22.265625 47.46875 29.34375 47.46875 
Q 38.71875 47.46875 45.15625 40.96875 
Q 51.609375 34.46875 51.609375 24.265625 
Q 51.609375 14.546875 45.953125 7.46875 
Q 39.0625 -1.21875 27.15625 -1.21875 
Q 17.390625 -1.21875 11.203125 4.25 
Q 5.03125 9.71875 4.15625 18.75 
z
" id="ArialMT-53"/>
      </defs>
      <g transform="translate(28.804688 171.111868)scale(0.14 -0.14)">
       <use xlink:href="#ArialMT-48"/>
       <use x="55.615234" xlink:href="#ArialMT-46"/>
       <use x="83.398438" xlink:href="#ArialMT-48"/>
       <use x="139.013672" xlink:href="#ArialMT-53"/>
      </g>
     </g>
    </g>
    <g id="ytick_3">
     <g id="line2d_9">
      <g>
       <use style="stroke:#000000;stroke-width:0.8;" x="63.05" xlink:href="#mf4936ed5e6" y="130.002798"/>
      </g>
     </g>
     <g id="text_10">
      <!-- 0.10 -->
      <g transform="translate(28.804688 135.013267)scale(0.14 -0.14)">
       <use xlink:href="#ArialMT-48"/>
       <use x="55.615234" xlink:href="#ArialMT-46"/>
       <use x="83.398438" xlink:href="#ArialMT-49"/>
       <use x="139.013672" xlink:href="#ArialMT-48"/>
      </g>
     </g>
    </g>
    <g id="ytick_4">
     <g id="line2d_10">
      <g>
       <use style="stroke:#000000;stroke-width:0.8;" x="63.05" xlink:href="#mf4936ed5e6" y="93.904197"/>
      </g>
     </g>
     <g id="text_11">
      <!-- 0.15 -->
      <g transform="translate(28.804688 98.914666)scale(0.14 -0.14)">
       <use xlink:href="#ArialMT-48"/>
       <use x="55.615234" xlink:href="#ArialMT-46"/>
       <use x="83.398438" xlink:href="#ArialMT-49"/>
       <use x="139.013672" xlink:href="#ArialMT-53"/>
      </g>
     </g>
    </g>
    <g id="ytick_5">
     <g id="line2d_11">
      <g>
       <use style="stroke:#000000;stroke-width:0.8;" x="63.05" xlink:href="#mf4936ed5e6" y="57.805596"/>
      </g>
     </g>
     <g id="text_12">
      <!-- 0.20 -->
      <g transform="translate(28.804688 62.816065)scale(0.14 -0.14)">
       <use xlink:href="#ArialMT-48"/>
       <use x="55.615234" xlink:href="#ArialMT-46"/>
       <use x="83.398438" xlink:href="#ArialMT-50"/>
       <use x="139.013672" xlink:href="#ArialMT-48"/>
      </g>
     </g>
    </g>
    <g id="text_13">
     <!-- fractional importance -->
     <defs>
      <path d="M 8.6875 0 
L 8.6875 45.015625 
L 0.921875 45.015625 
L 0.921875 51.859375 
L 8.6875 51.859375 
L 8.6875 57.375 
Q 8.6875 62.59375 9.625 65.140625 
Q 10.890625 68.5625 14.078125 70.671875 
Q 17.28125 72.796875 23.046875 72.796875 
Q 26.765625 72.796875 31.25 71.921875 
L 29.9375 64.265625 
Q 27.203125 64.75 24.75 64.75 
Q 20.75 64.75 19.09375 63.03125 
Q 17.4375 61.328125 17.4375 56.640625 
L 17.4375 51.859375 
L 27.546875 51.859375 
L 27.546875 45.015625 
L 17.4375 45.015625 
L 17.4375 0 
z
" id="ArialMT-102"/>
      <path d="M 6.59375 0 
L 6.59375 51.859375 
L 14.5 51.859375 
L 14.5 44.484375 
Q 20.21875 53.03125 31 53.03125 
Q 35.6875 53.03125 39.625 51.34375 
Q 43.5625 49.65625 45.515625 46.921875 
Q 47.46875 44.1875 48.25 40.4375 
Q 48.734375 37.984375 48.734375 31.890625 
L 48.734375 0 
L 39.9375 0 
L 39.9375 31.546875 
Q 39.9375 36.921875 38.90625 39.578125 
Q 37.890625 42.234375 35.28125 43.8125 
Q 32.671875 45.40625 29.15625 45.40625 
Q 23.53125 45.40625 19.453125 41.84375 
Q 15.375 38.28125 15.375 28.328125 
L 15.375 0 
z
" id="ArialMT-110"/>
      <path d="M 6.59375 0 
L 6.59375 51.859375 
L 14.453125 51.859375 
L 14.453125 44.578125 
Q 16.890625 48.390625 20.9375 50.703125 
Q 25 53.03125 30.171875 53.03125 
Q 35.9375 53.03125 39.625 50.640625 
Q 43.3125 48.25 44.828125 43.953125 
Q 50.984375 53.03125 60.84375 53.03125 
Q 68.5625 53.03125 72.703125 48.75 
Q 76.859375 44.484375 76.859375 35.59375 
L 76.859375 0 
L 68.109375 0 
L 68.109375 32.671875 
Q 68.109375 37.9375 67.25 40.25 
Q 66.40625 42.578125 64.15625 43.984375 
Q 61.921875 45.40625 58.890625 45.40625 
Q 53.421875 45.40625 49.796875 41.765625 
Q 46.1875 38.140625 46.1875 30.125 
L 46.1875 0 
L 37.40625 0 
L 37.40625 33.6875 
Q 37.40625 39.546875 35.25 42.46875 
Q 33.109375 45.40625 28.21875 45.40625 
Q 24.515625 45.40625 21.359375 43.453125 
Q 18.21875 41.5 16.796875 37.734375 
Q 15.375 33.984375 15.375 26.90625 
L 15.375 0 
z
" id="ArialMT-109"/>
      <path d="M 6.59375 -19.875 
L 6.59375 51.859375 
L 14.59375 51.859375 
L 14.59375 45.125 
Q 17.4375 49.078125 21 51.046875 
Q 24.5625 53.03125 29.640625 53.03125 
Q 36.28125 53.03125 41.359375 49.609375 
Q 46.4375 46.1875 49.015625 39.953125 
Q 51.609375 33.734375 51.609375 26.3125 
Q 51.609375 18.359375 48.75 11.984375 
Q 45.90625 5.609375 40.453125 2.21875 
Q 35.015625 -1.171875 29 -1.171875 
Q 24.609375 -1.171875 21.109375 0.6875 
Q 17.625 2.546875 15.375 5.375 
L 15.375 -19.875 
z
M 14.546875 25.640625 
Q 14.546875 15.625 18.59375 10.84375 
Q 22.65625 6.0625 28.421875 6.0625 
Q 34.28125 6.0625 38.453125 11.015625 
Q 42.625 15.96875 42.625 26.375 
Q 42.625 36.28125 38.546875 41.203125 
Q 34.46875 46.140625 28.8125 46.140625 
Q 23.1875 46.140625 18.859375 40.890625 
Q 14.546875 35.640625 14.546875 25.640625 
z
" id="ArialMT-112"/>
     </defs>
     <g transform="translate(22.022187 180.470937)rotate(-90)scale(0.14 -0.14)">
      <use xlink:href="#ArialMT-102"/>
      <use x="27.783203" xlink:href="#ArialMT-114"/>
      <use x="61.083984" xlink:href="#ArialMT-97"/>
      <use x="116.699219" xlink:href="#ArialMT-99"/>
      <use x="166.699219" xlink:href="#ArialMT-116"/>
      <use x="194.482422" xlink:href="#ArialMT-105"/>
      <use x="216.699219" xlink:href="#ArialMT-111"/>
      <use x="272.314453" xlink:href="#ArialMT-110"/>
      <use x="327.929688" xlink:href="#ArialMT-97"/>
      <use x="383.544922" xlink:href="#ArialMT-108"/>
      <use x="405.761719" xlink:href="#ArialMT-32"/>
      <use x="433.544922" xlink:href="#ArialMT-105"/>
      <use x="455.761719" xlink:href="#ArialMT-109"/>
      <use x="539.0625" xlink:href="#ArialMT-112"/>
      <use x="594.677734" xlink:href="#ArialMT-111"/>
      <use x="650.292969" xlink:href="#ArialMT-114"/>
      <use x="683.59375" xlink:href="#ArialMT-116"/>
      <use x="711.376953" xlink:href="#ArialMT-97"/>
      <use x="766.992188" xlink:href="#ArialMT-110"/>
      <use x="822.607422" xlink:href="#ArialMT-99"/>
      <use x="872.607422" xlink:href="#ArialMT-101"/>
     </g>
    </g>
   </g>
   <g id="patch_3">
    <path d="M 63.05 202.2 
L 63.05 28.8 
" style="fill:none;stroke:#000000;stroke-linecap:square;stroke-linejoin:miter;stroke-width:0.8;"/>
   </g>
   <g id="patch_4">
    <path d="M 342.185294 202.2 
L 342.185294 28.8 
" style="fill:none;stroke:#000000;stroke-linecap:square;stroke-linejoin:miter;stroke-width:0.8;"/>
   </g>
   <g id="patch_5">
    <path d="M 63.05 202.2 
L 342.185294 202.2 
" style="fill:none;stroke:#000000;stroke-linecap:square;stroke-linejoin:miter;stroke-width:0.8;"/>
   </g>
   <g id="patch_6">
    <path d="M 63.05 28.8 
L 342.185294 28.8 
" style="fill:none;stroke:#000000;stroke-linecap:square;stroke-linejoin:miter;stroke-width:0.8;"/>
   </g>
   <g id="text_14">
    <!-- Neisseria flavescens -->
    <defs>
     <path d="M 4.890625 0 
L 19.875 71.578125 
L 29.15625 71.578125 
L 41.21875 44.734375 
Q 46.734375 32.421875 49.953125 24.03125 
Q 51.8125 19.140625 54.25 10.84375 
Q 55.5625 19.875 57.5625 29.5 
L 66.359375 71.578125 
L 75.6875 71.578125 
L 60.75 0 
L 51.265625 0 
L 33.5 41.359375 
Q 28.765625 52.296875 26.125 60.640625 
Q 25.390625 53.65625 23.296875 43.5 
L 14.203125 0 
z
" id="Arial-ItalicMT-78"/>
     <path d="M 41.40625 17.625 
L 50 16.75 
Q 48.140625 10.359375 41.46875 4.59375 
Q 34.8125 -1.171875 25.59375 -1.171875 
Q 19.828125 -1.171875 15.015625 1.484375 
Q 10.203125 4.15625 7.6875 9.234375 
Q 5.171875 14.3125 5.171875 20.796875 
Q 5.171875 29.296875 9.09375 37.28125 
Q 13.03125 45.265625 19.28125 49.140625 
Q 25.53125 53.03125 32.8125 53.03125 
Q 42.09375 53.03125 47.625 47.265625 
Q 53.171875 41.5 53.171875 31.546875 
Q 53.171875 27.734375 52.484375 23.734375 
L 14.3125 23.734375 
Q 14.109375 22.21875 14.109375 21 
Q 14.109375 13.71875 17.453125 9.890625 
Q 20.796875 6.0625 25.640625 6.0625 
Q 30.171875 6.0625 34.5625 9.03125 
Q 38.96875 12.015625 41.40625 17.625 
z
M 15.71875 30.46875 
L 44.828125 30.46875 
Q 44.875 31.84375 44.875 32.421875 
Q 44.875 39.0625 41.546875 42.59375 
Q 38.234375 46.140625 33.015625 46.140625 
Q 27.34375 46.140625 22.671875 42.234375 
Q 18.015625 38.328125 15.71875 30.46875 
z
" id="Arial-ItalicMT-101"/>
     <path d="M 15.875 61.578125 
L 17.96875 71.578125 
L 26.765625 71.578125 
L 24.65625 61.578125 
z
M 2.984375 0 
L 13.8125 51.859375 
L 22.65625 51.859375 
L 11.8125 0 
z
" id="Arial-ItalicMT-105"/>
     <path d="M 4.15625 17.71875 
L 12.984375 18.265625 
Q 12.984375 14.453125 14.15625 11.765625 
Q 15.328125 9.078125 18.46875 7.375 
Q 21.625 5.671875 25.828125 5.671875 
Q 31.6875 5.671875 34.609375 8.015625 
Q 37.546875 10.359375 37.546875 13.53125 
Q 37.546875 15.828125 35.796875 17.875 
Q 33.984375 19.921875 26.96875 22.921875 
Q 19.96875 25.921875 18.015625 27.15625 
Q 14.75 29.15625 13.078125 31.859375 
Q 11.421875 34.578125 11.421875 38.09375 
Q 11.421875 44.234375 16.296875 48.625 
Q 21.1875 53.03125 29.984375 53.03125 
Q 39.75 53.03125 44.84375 48.515625 
Q 49.953125 44 50.140625 36.625 
L 41.5 36.03125 
Q 41.3125 40.71875 38.1875 43.453125 
Q 35.0625 46.1875 29.34375 46.1875 
Q 24.75 46.1875 22.203125 44.09375 
Q 19.671875 42 19.671875 39.546875 
Q 19.671875 37.109375 21.875 35.25 
Q 23.34375 33.984375 29.4375 31.34375 
Q 39.59375 26.953125 42.234375 24.421875 
Q 46.4375 20.359375 46.4375 14.546875 
Q 46.4375 10.6875 44.0625 6.96875 
Q 41.703125 3.265625 36.84375 1.046875 
Q 31.984375 -1.171875 25.390625 -1.171875 
Q 16.40625 -1.171875 10.109375 3.265625 
Q 3.8125 7.71875 4.15625 17.71875 
z
" id="Arial-ItalicMT-115"/>
     <path d="M 3.328125 0 
L 14.15625 51.859375 
L 21.96875 51.859375 
L 19.78125 41.265625 
Q 23.78125 47.265625 27.609375 50.140625 
Q 31.453125 53.03125 35.453125 53.03125 
Q 38.09375 53.03125 41.9375 51.125 
L 38.328125 42.921875 
Q 36.03125 44.578125 33.296875 44.578125 
Q 28.65625 44.578125 23.765625 39.40625 
Q 18.890625 34.234375 16.109375 20.796875 
L 11.71875 0 
z
" id="Arial-ItalicMT-114"/>
     <path d="M 38.28125 6.453125 
Q 33.6875 2.484375 29.4375 0.65625 
Q 25.203125 -1.171875 20.359375 -1.171875 
Q 13.1875 -1.171875 8.78125 3.046875 
Q 4.390625 7.28125 4.390625 13.875 
Q 4.390625 18.21875 6.359375 21.5625 
Q 8.34375 24.90625 11.609375 26.921875 
Q 14.890625 28.953125 19.625 29.828125 
Q 22.609375 30.421875 30.9375 30.765625 
Q 39.265625 31.109375 42.875 32.515625 
Q 43.890625 36.140625 43.890625 38.53125 
Q 43.890625 41.609375 41.65625 43.359375 
Q 38.578125 45.796875 32.671875 45.796875 
Q 27.09375 45.796875 23.546875 43.328125 
Q 20.015625 40.875 18.40625 36.328125 
L 9.46875 37.109375 
Q 12.203125 44.828125 18.140625 48.921875 
Q 24.078125 53.03125 33.109375 53.03125 
Q 42.71875 53.03125 48.34375 48.4375 
Q 52.640625 45.015625 52.640625 39.546875 
Q 52.640625 35.40625 51.421875 29.9375 
L 48.53125 17.046875 
Q 47.171875 10.890625 47.171875 7.03125 
Q 47.171875 4.59375 48.25 0 
L 39.3125 0 
Q 38.578125 2.546875 38.28125 6.453125 
z
M 41.546875 26.265625 
Q 39.703125 25.53125 37.578125 25.140625 
Q 35.453125 24.75 30.46875 24.3125 
Q 22.75 23.640625 19.578125 22.578125 
Q 16.40625 21.53125 14.796875 19.234375 
Q 13.1875 16.9375 13.1875 14.15625 
Q 13.1875 10.453125 15.75 8.0625 
Q 18.3125 5.671875 23.046875 5.671875 
Q 27.4375 5.671875 31.484375 7.984375 
Q 35.546875 10.296875 37.890625 14.453125 
Q 40.234375 18.609375 41.546875 26.265625 
z
" id="Arial-ItalicMT-97"/>
     <path id="Arial-ItalicMT-32"/>
     <path d="M 4.546875 0 
L 13.96875 45.015625 
L 6.0625 45.015625 
L 7.46875 51.859375 
L 15.375 51.859375 
L 16.890625 59.234375 
Q 18.0625 64.75 19.3125 67.1875 
Q 20.5625 69.625 23.359375 71.203125 
Q 26.171875 72.796875 31 72.796875 
Q 34.375 72.796875 40.765625 71.390625 
L 39.15625 63.671875 
Q 34.671875 64.84375 31.640625 64.84375 
Q 29.046875 64.84375 27.703125 63.546875 
Q 26.375 62.25 25.390625 57.421875 
L 24.21875 51.859375 
L 34.078125 51.859375 
L 32.671875 45.015625 
L 22.796875 45.015625 
L 13.375 0 
z
" id="Arial-ItalicMT-102"/>
     <path d="M 2.640625 0 
L 17.578125 71.578125 
L 26.421875 71.578125 
L 11.46875 0 
z
" id="Arial-ItalicMT-108"/>
     <path d="M 16.40625 0 
L 7.90625 51.859375 
L 16.5 51.859375 
L 20.953125 23.296875 
Q 21.6875 18.609375 22.75 8.015625 
Q 25.296875 13.53125 29.25 20.65625 
L 46.578125 51.859375 
L 55.90625 51.859375 
L 26.21875 0 
z
" id="Arial-ItalicMT-118"/>
     <path d="M 39.109375 18.890625 
L 47.953125 17.96875 
Q 44.625 8.25 38.5 3.53125 
Q 32.375 -1.171875 24.5625 -1.171875 
Q 16.109375 -1.171875 10.859375 4.296875 
Q 5.609375 9.765625 5.609375 19.578125 
Q 5.609375 28.078125 8.984375 36.28125 
Q 12.359375 44.484375 18.625 48.75 
Q 24.90625 53.03125 32.953125 53.03125 
Q 41.3125 53.03125 46.1875 48.3125 
Q 51.078125 43.609375 51.078125 35.84375 
L 42.390625 35.25 
Q 42.328125 40.1875 39.515625 42.96875 
Q 36.71875 45.75 32.125 45.75 
Q 26.8125 45.75 22.90625 42.375 
Q 19 39.015625 16.765625 32.15625 
Q 14.546875 25.296875 14.546875 18.953125 
Q 14.546875 12.3125 17.46875 8.984375 
Q 20.40625 5.671875 24.703125 5.671875 
Q 29 5.671875 32.921875 8.9375 
Q 36.859375 12.203125 39.109375 18.890625 
z
" id="Arial-ItalicMT-99"/>
     <path d="M 3.328125 0 
L 14.15625 51.859375 
L 22.171875 51.859375 
L 20.265625 42.828125 
Q 25.484375 48.140625 30.03125 50.578125 
Q 34.578125 53.03125 39.3125 53.03125 
Q 45.609375 53.03125 49.1875 49.609375 
Q 52.78125 46.1875 52.78125 40.484375 
Q 52.78125 37.59375 51.515625 31.390625 
L 44.921875 0 
L 36.078125 0 
L 42.96875 32.859375 
Q 44 37.640625 44 39.9375 
Q 44 42.53125 42.21875 44.140625 
Q 40.4375 45.75 37.0625 45.75 
Q 30.28125 45.75 24.96875 40.859375 
Q 19.671875 35.984375 17.1875 24.125 
L 12.15625 0 
z
" id="Arial-ItalicMT-110"/>
    </defs>
    <g transform="translate(129.257647 22.8)scale(0.16 -0.16)">
     <use xlink:href="#Arial-ItalicMT-78"/>
     <use x="72.216797" xlink:href="#Arial-ItalicMT-101"/>
     <use x="127.832031" xlink:href="#Arial-ItalicMT-105"/>
     <use x="150.048828" xlink:href="#Arial-ItalicMT-115"/>
     <use x="200.048828" xlink:href="#Arial-ItalicMT-115"/>
     <use x="250.048828" xlink:href="#Arial-ItalicMT-101"/>
     <use x="305.664062" xlink:href="#Arial-ItalicMT-114"/>
     <use x="338.964844" xlink:href="#Arial-ItalicMT-105"/>
     <use x="361.181641" xlink:href="#Arial-ItalicMT-97"/>
     <use x="416.796875" xlink:href="#Arial-ItalicMT-32"/>
     <use x="444.580078" xlink:href="#Arial-ItalicMT-102"/>
     <use x="472.363281" xlink:href="#Arial-ItalicMT-108"/>
     <use x="494.580078" xlink:href="#Arial-ItalicMT-97"/>
     <use x="550.195312" xlink:href="#Arial-ItalicMT-118"/>
     <use x="600.195312" xlink:href="#Arial-ItalicMT-101"/>
     <use x="655.810547" xlink:href="#Arial-ItalicMT-115"/>
     <use x="705.810547" xlink:href="#Arial-ItalicMT-99"/>
     <use x="755.810547" xlink:href="#Arial-ItalicMT-101"/>
     <use x="811.425781" xlink:href="#Arial-ItalicMT-110"/>
     <use x="867.041016" xlink:href="#Arial-ItalicMT-115"/>
    </g>
   </g>
  </g>
 </g>
 <defs>
  <clipPath id="p0ce6ed101a">
   <rect height="173.4" width="279.135294" x="63.05" y="28.8"/>
  </clipPath>
 </defs>
</svg>
