<?xml version="1.0" encoding="utf-8" standalone="no"?>
<!DOCTYPE svg PUBLIC "-//W3C//DTD SVG 1.1//EN"
  "http://www.w3.org/Graphics/SVG/1.1/DTD/svg11.dtd">
<!-- Created with matplotlib (http://matplotlib.org/) -->
<svg height="288pt" version="1.1" viewBox="0 0 432 288" width="432pt" xmlns="http://www.w3.org/2000/svg" xmlns:xlink="http://www.w3.org/1999/xlink">
 <defs>
  <style type="text/css">
*{stroke-linecap:butt;stroke-linejoin:round;}
  </style>
 </defs>
 <g id="figure_1">
  <g id="patch_1">
   <path d="M 0 288 
L 432 288 
L 432 0 
L 0 0 
z
" style="fill:#ffffff;"/>
  </g>
  <g id="axes_1">
   <g id="patch_2">
    <path d="M 54 252 
L 388.8 252 
L 388.8 34.56 
L 54 34.56 
z
" style="fill:#ffffff;"/>
   </g>
   <g id="PathCollection_1">
    <defs>
     <path d="M 0 5 
C 1.326016 5 2.597899 4.473168 3.535534 3.535534 
C 4.473168 2.597899 5 1.326016 5 0 
C 5 -1.326016 4.473168 -2.597899 3.535534 -3.535534 
C 2.597899 -4.473168 1.326016 -5 0 -5 
C -1.326016 -5 -2.597899 -4.473168 -3.535534 -3.535534 
C -4.473168 -2.597899 -5 -1.326016 -5 0 
C -5 1.326016 -4.473168 2.597899 -3.535534 3.535534 
C -2.597899 4.473168 -1.326016 5 0 5 
z
" id="m7a0e91e0e6" style="stroke:#000000;stroke-opacity:0.3;"/>
    </defs>
    <g clip-path="url(#p4b56dab80d)">
     <use style="fill-opacity:0.3;stroke:#000000;stroke-opacity:0.3;" x="54" xlink:href="#m7a0e91e0e6" y="251.950082"/>
     <use style="fill-opacity:0.3;stroke:#000000;stroke-opacity:0.3;" x="252.610169" xlink:href="#m7a0e91e0e6" y="251.656238"/>
     <use style="fill-opacity:0.3;stroke:#000000;stroke-opacity:0.3;" x="54" xlink:href="#m7a0e91e0e6" y="251.980948"/>
     <use style="fill-opacity:0.3;stroke:#000000;stroke-opacity:0.3;" x="54" xlink:href="#m7a0e91e0e6" y="251.678802"/>
     <use style="fill-opacity:0.3;stroke:#000000;stroke-opacity:0.3;" x="231.594625" xlink:href="#m7a0e91e0e6" y="247.658707"/>
     <use style="fill-opacity:0.3;stroke:#000000;stroke-opacity:0.3;" x="351.704415" xlink:href="#m7a0e91e0e6" y="249.638826"/>
     <use style="fill-opacity:0.3;stroke:#000000;stroke-opacity:0.3;" x="54" xlink:href="#m7a0e91e0e6" y="252"/>
     <use style="fill-opacity:0.3;stroke:#000000;stroke-opacity:0.3;" x="202.606762" xlink:href="#m7a0e91e0e6" y="251.155803"/>
     <use style="fill-opacity:0.3;stroke:#000000;stroke-opacity:0.3;" x="330.973366" xlink:href="#m7a0e91e0e6" y="249.455901"/>
     <use style="fill-opacity:0.3;stroke:#000000;stroke-opacity:0.3;" x="163.885281" xlink:href="#m7a0e91e0e6" y="247.990632"/>
     <use style="fill-opacity:0.3;stroke:#000000;stroke-opacity:0.3;" x="54" xlink:href="#m7a0e91e0e6" y="249.748401"/>
     <use style="fill-opacity:0.3;stroke:#000000;stroke-opacity:0.3;" x="274.677966" xlink:href="#m7a0e91e0e6" y="251.807147"/>
     <use style="fill-opacity:0.3;stroke:#000000;stroke-opacity:0.3;" x="219.508475" xlink:href="#m7a0e91e0e6" y="251.278127"/>
     <use style="fill-opacity:0.3;stroke:#000000;stroke-opacity:0.3;" x="252.610169" xlink:href="#m7a0e91e0e6" y="251.920474"/>
     <use style="fill-opacity:0.3;stroke:#000000;stroke-opacity:0.3;" x="157.098947" xlink:href="#m7a0e91e0e6" y="244.727108"/>
     <use style="fill-opacity:0.3;stroke:#000000;stroke-opacity:0.3;" x="54" xlink:href="#m7a0e91e0e6" y="251.832897"/>
     <use style="fill-opacity:0.3;stroke:#000000;stroke-opacity:0.3;" x="54" xlink:href="#m7a0e91e0e6" y="251.986969"/>
     <use style="fill-opacity:0.3;stroke:#000000;stroke-opacity:0.3;" x="120.20339" xlink:href="#m7a0e91e0e6" y="251.977408"/>
     <use style="fill-opacity:0.3;stroke:#000000;stroke-opacity:0.3;" x="54" xlink:href="#m7a0e91e0e6" y="251.974578"/>
     <use style="fill-opacity:0.3;stroke:#000000;stroke-opacity:0.3;" x="87.884278" xlink:href="#m7a0e91e0e6" y="166.920144"/>
     <use style="fill-opacity:0.3;stroke:#000000;stroke-opacity:0.3;" x="54" xlink:href="#m7a0e91e0e6" y="252"/>
     <use style="fill-opacity:0.3;stroke:#000000;stroke-opacity:0.3;" x="148.576271" xlink:href="#m7a0e91e0e6" y="251.972644"/>
     <use style="fill-opacity:0.3;stroke:#000000;stroke-opacity:0.3;" x="219.078582" xlink:href="#m7a0e91e0e6" y="249.684899"/>
     <use style="fill-opacity:0.3;stroke:#000000;stroke-opacity:0.3;" x="162.809532" xlink:href="#m7a0e91e0e6" y="245.887987"/>
     <use style="fill-opacity:0.3;stroke:#000000;stroke-opacity:0.3;" x="318.813559" xlink:href="#m7a0e91e0e6" y="252"/>
     <use style="fill-opacity:0.3;stroke:#000000;stroke-opacity:0.3;" x="77.90678" xlink:href="#m7a0e91e0e6" y="232.639959"/>
     <use style="fill-opacity:0.3;stroke:#000000;stroke-opacity:0.3;" x="350.090751" xlink:href="#m7a0e91e0e6" y="251.14692"/>
     <use style="fill-opacity:0.3;stroke:#000000;stroke-opacity:0.3;" x="360.892891" xlink:href="#m7a0e91e0e6" y="251.150584"/>
     <use style="fill-opacity:0.3;stroke:#000000;stroke-opacity:0.3;" x="128.674434" xlink:href="#m7a0e91e0e6" y="248.425885"/>
     <use style="fill-opacity:0.3;stroke:#000000;stroke-opacity:0.3;" x="350.394" xlink:href="#m7a0e91e0e6" y="251.219389"/>
     <use style="fill-opacity:0.3;stroke:#000000;stroke-opacity:0.3;" x="316.958837" xlink:href="#m7a0e91e0e6" y="250.918262"/>
     <use style="fill-opacity:0.3;stroke:#000000;stroke-opacity:0.3;" x="153.305085" xlink:href="#m7a0e91e0e6" y="245.590579"/>
     <use style="fill-opacity:0.3;stroke:#000000;stroke-opacity:0.3;" x="123.91078" xlink:href="#m7a0e91e0e6" y="239.742932"/>
     <use style="fill-opacity:0.3;stroke:#000000;stroke-opacity:0.3;" x="54" xlink:href="#m7a0e91e0e6" y="251.923532"/>
     <use style="fill-opacity:0.3;stroke:#000000;stroke-opacity:0.3;" x="100.587571" xlink:href="#m7a0e91e0e6" y="239.705739"/>
     <use style="fill-opacity:0.3;stroke:#000000;stroke-opacity:0.3;" x="139.70776" xlink:href="#m7a0e91e0e6" y="244.161965"/>
     <use style="fill-opacity:0.3;stroke:#000000;stroke-opacity:0.3;" x="312.644068" xlink:href="#m7a0e91e0e6" y="238.357328"/>
     <use style="fill-opacity:0.3;stroke:#000000;stroke-opacity:0.3;" x="133.444068" xlink:href="#m7a0e91e0e6" y="251.888232"/>
     <use style="fill-opacity:0.3;stroke:#000000;stroke-opacity:0.3;" x="54" xlink:href="#m7a0e91e0e6" y="252"/>
     <use style="fill-opacity:0.3;stroke:#000000;stroke-opacity:0.3;" x="133.444068" xlink:href="#m7a0e91e0e6" y="251.947809"/>
     <use style="fill-opacity:0.3;stroke:#000000;stroke-opacity:0.3;" x="136.974915" xlink:href="#m7a0e91e0e6" y="210.54585"/>
     <use style="fill-opacity:0.3;stroke:#000000;stroke-opacity:0.3;" x="54" xlink:href="#m7a0e91e0e6" y="249.748401"/>
     <use style="fill-opacity:0.3;stroke:#000000;stroke-opacity:0.3;" x="186.40678" xlink:href="#m7a0e91e0e6" y="250.920288"/>
     <use style="fill-opacity:0.3;stroke:#000000;stroke-opacity:0.3;" x="54" xlink:href="#m7a0e91e0e6" y="252"/>
     <use style="fill-opacity:0.3;stroke:#000000;stroke-opacity:0.3;" x="186.40678" xlink:href="#m7a0e91e0e6" y="251.956362"/>
     <use style="fill-opacity:0.3;stroke:#000000;stroke-opacity:0.3;" x="54" xlink:href="#m7a0e91e0e6" y="251.90676"/>
     <use style="fill-opacity:0.3;stroke:#000000;stroke-opacity:0.3;" x="100.587571" xlink:href="#m7a0e91e0e6" y="239.705739"/>
     <use style="fill-opacity:0.3;stroke:#000000;stroke-opacity:0.3;" x="100.587571" xlink:href="#m7a0e91e0e6" y="239.705739"/>
     <use style="fill-opacity:0.3;stroke:#000000;stroke-opacity:0.3;" x="54" xlink:href="#m7a0e91e0e6" y="251.90676"/>
     <use style="fill-opacity:0.3;stroke:#000000;stroke-opacity:0.3;" x="146.390508" xlink:href="#m7a0e91e0e6" y="213.919091"/>
     <use style="fill-opacity:0.3;stroke:#000000;stroke-opacity:0.3;" x="374.886181" xlink:href="#m7a0e91e0e6" y="251.907926"/>
     <use style="fill-opacity:0.3;stroke:#000000;stroke-opacity:0.3;" x="100.587571" xlink:href="#m7a0e91e0e6" y="239.705739"/>
     <use style="fill-opacity:0.3;stroke:#000000;stroke-opacity:0.3;" x="140.327579" xlink:href="#m7a0e91e0e6" y="250.398981"/>
     <use style="fill-opacity:0.3;stroke:#000000;stroke-opacity:0.3;" x="132.806616" xlink:href="#m7a0e91e0e6" y="251.99365"/>
     <use style="fill-opacity:0.3;stroke:#000000;stroke-opacity:0.3;" x="382.153732" xlink:href="#m7a0e91e0e6" y="250.904543"/>
     <use style="fill-opacity:0.3;stroke:#000000;stroke-opacity:0.3;" x="385.42815" xlink:href="#m7a0e91e0e6" y="250.599342"/>
     <use style="fill-opacity:0.3;stroke:#000000;stroke-opacity:0.3;" x="239.003336" xlink:href="#m7a0e91e0e6" y="251.370017"/>
     <use style="fill-opacity:0.3;stroke:#000000;stroke-opacity:0.3;" x="54" xlink:href="#m7a0e91e0e6" y="251.96495"/>
     <use style="fill-opacity:0.3;stroke:#000000;stroke-opacity:0.3;" x="239.758452" xlink:href="#m7a0e91e0e6" y="251.324978"/>
     <use style="fill-opacity:0.3;stroke:#000000;stroke-opacity:0.3;" x="371.204731" xlink:href="#m7a0e91e0e6" y="250.624401"/>
     <use style="fill-opacity:0.3;stroke:#000000;stroke-opacity:0.3;" x="54" xlink:href="#m7a0e91e0e6" y="252"/>
     <use style="fill-opacity:0.3;stroke:#000000;stroke-opacity:0.3;" x="83.636676" xlink:href="#m7a0e91e0e6" y="251.104081"/>
     <use style="fill-opacity:0.3;stroke:#000000;stroke-opacity:0.3;" x="248.167271" xlink:href="#m7a0e91e0e6" y="242.691671"/>
     <use style="fill-opacity:0.3;stroke:#000000;stroke-opacity:0.3;" x="54" xlink:href="#m7a0e91e0e6" y="251.960385"/>
     <use style="fill-opacity:0.3;stroke:#000000;stroke-opacity:0.3;" x="337.157348" xlink:href="#m7a0e91e0e6" y="251.045526"/>
     <use style="fill-opacity:0.3;stroke:#000000;stroke-opacity:0.3;" x="314.061833" xlink:href="#m7a0e91e0e6" y="251.38852"/>
     <use style="fill-opacity:0.3;stroke:#000000;stroke-opacity:0.3;" x="185.281214" xlink:href="#m7a0e91e0e6" y="246.330501"/>
     <use style="fill-opacity:0.3;stroke:#000000;stroke-opacity:0.3;" x="186.40678" xlink:href="#m7a0e91e0e6" y="251.88342"/>
     <use style="fill-opacity:0.3;stroke:#000000;stroke-opacity:0.3;" x="155.985032" xlink:href="#m7a0e91e0e6" y="251.684284"/>
     <use style="fill-opacity:0.3;stroke:#000000;stroke-opacity:0.3;" x="373.37418" xlink:href="#m7a0e91e0e6" y="251.681908"/>
     <use style="fill-opacity:0.3;stroke:#000000;stroke-opacity:0.3;" x="132.806616" xlink:href="#m7a0e91e0e6" y="251.486895"/>
     <use style="fill-opacity:0.3;stroke:#000000;stroke-opacity:0.3;" x="74.906334" xlink:href="#m7a0e91e0e6" y="251.490437"/>
     <use style="fill-opacity:0.3;stroke:#000000;stroke-opacity:0.3;" x="54" xlink:href="#m7a0e91e0e6" y="251.886338"/>
     <use style="fill-opacity:0.3;stroke:#000000;stroke-opacity:0.3;" x="345.294915" xlink:href="#m7a0e91e0e6" y="251.845432"/>
     <use style="fill-opacity:0.3;stroke:#000000;stroke-opacity:0.3;" x="54" xlink:href="#m7a0e91e0e6" y="215.996598"/>
     <use style="fill-opacity:0.3;stroke:#000000;stroke-opacity:0.3;" x="54" xlink:href="#m7a0e91e0e6" y="207.941308"/>
     <use style="fill-opacity:0.3;stroke:#000000;stroke-opacity:0.3;" x="54" xlink:href="#m7a0e91e0e6" y="242.363501"/>
     <use style="fill-opacity:0.3;stroke:#000000;stroke-opacity:0.3;" x="54" xlink:href="#m7a0e91e0e6" y="233.107617"/>
     <use style="fill-opacity:0.3;stroke:#000000;stroke-opacity:0.3;" x="54" xlink:href="#m7a0e91e0e6" y="228.936006"/>
     <use style="fill-opacity:0.3;stroke:#000000;stroke-opacity:0.3;" x="54" xlink:href="#m7a0e91e0e6" y="200.93375"/>
     <use style="fill-opacity:0.3;stroke:#000000;stroke-opacity:0.3;" x="54" xlink:href="#m7a0e91e0e6" y="241.683769"/>
     <use style="fill-opacity:0.3;stroke:#000000;stroke-opacity:0.3;" x="54" xlink:href="#m7a0e91e0e6" y="238.072187"/>
     <use style="fill-opacity:0.3;stroke:#000000;stroke-opacity:0.3;" x="103.652542" xlink:href="#m7a0e91e0e6" y="251.14041"/>
     <use style="fill-opacity:0.3;stroke:#000000;stroke-opacity:0.3;" x="54" xlink:href="#m7a0e91e0e6" y="252"/>
     <use style="fill-opacity:0.3;stroke:#000000;stroke-opacity:0.3;" x="58.053269" xlink:href="#m7a0e91e0e6" y="225.196546"/>
     <use style="fill-opacity:0.3;stroke:#000000;stroke-opacity:0.3;" x="110.005825" xlink:href="#m7a0e91e0e6" y="237.940601"/>
     <use style="fill-opacity:0.3;stroke:#000000;stroke-opacity:0.3;" x="154.135593" xlink:href="#m7a0e91e0e6" y="186.27429"/>
     <use style="fill-opacity:0.3;stroke:#000000;stroke-opacity:0.3;" x="57.994805" xlink:href="#m7a0e91e0e6" y="215.611897"/>
     <use style="fill-opacity:0.3;stroke:#000000;stroke-opacity:0.3;" x="154.135593" xlink:href="#m7a0e91e0e6" y="186.27429"/>
     <use style="fill-opacity:0.3;stroke:#000000;stroke-opacity:0.3;" x="57.994805" xlink:href="#m7a0e91e0e6" y="215.611897"/>
     <use style="fill-opacity:0.3;stroke:#000000;stroke-opacity:0.3;" x="278.744794" xlink:href="#m7a0e91e0e6" y="251.88707"/>
     <use style="fill-opacity:0.3;stroke:#000000;stroke-opacity:0.3;" x="120.20339" xlink:href="#m7a0e91e0e6" y="251.995007"/>
     <use style="fill-opacity:0.3;stroke:#000000;stroke-opacity:0.3;" x="76.812441" xlink:href="#m7a0e91e0e6" y="250.024574"/>
     <use style="fill-opacity:0.3;stroke:#000000;stroke-opacity:0.3;" x="54" xlink:href="#m7a0e91e0e6" y="251.98032"/>
     <use style="fill-opacity:0.3;stroke:#000000;stroke-opacity:0.3;" x="54" xlink:href="#m7a0e91e0e6" y="251.951007"/>
     <use style="fill-opacity:0.3;stroke:#000000;stroke-opacity:0.3;" x="221.928234" xlink:href="#m7a0e91e0e6" y="251.30985"/>
     <use style="fill-opacity:0.3;stroke:#000000;stroke-opacity:0.3;" x="54" xlink:href="#m7a0e91e0e6" y="251.992242"/>
     <use style="fill-opacity:0.3;stroke:#000000;stroke-opacity:0.3;" x="89.143491" xlink:href="#m7a0e91e0e6" y="251.803997"/>
     <use style="fill-opacity:0.3;stroke:#000000;stroke-opacity:0.3;" x="345.294915" xlink:href="#m7a0e91e0e6" y="251.845432"/>
     <use style="fill-opacity:0.3;stroke:#000000;stroke-opacity:0.3;" x="155.625868" xlink:href="#m7a0e91e0e6" y="193.738498"/>
     <use style="fill-opacity:0.3;stroke:#000000;stroke-opacity:0.3;" x="155.625868" xlink:href="#m7a0e91e0e6" y="193.738498"/>
     <use style="fill-opacity:0.3;stroke:#000000;stroke-opacity:0.3;" x="86.71218" xlink:href="#m7a0e91e0e6" y="250.779433"/>
     <use style="fill-opacity:0.3;stroke:#000000;stroke-opacity:0.3;" x="360.912125" xlink:href="#m7a0e91e0e6" y="251.103336"/>
     <use style="fill-opacity:0.3;stroke:#000000;stroke-opacity:0.3;" x="54" xlink:href="#m7a0e91e0e6" y="248.407197"/>
     <use style="fill-opacity:0.3;stroke:#000000;stroke-opacity:0.3;" x="367.163463" xlink:href="#m7a0e91e0e6" y="251.401624"/>
     <use style="fill-opacity:0.3;stroke:#000000;stroke-opacity:0.3;" x="350.366761" xlink:href="#m7a0e91e0e6" y="251.14602"/>
     <use style="fill-opacity:0.3;stroke:#000000;stroke-opacity:0.3;" x="270.718194" xlink:href="#m7a0e91e0e6" y="251.860222"/>
     <use style="fill-opacity:0.3;stroke:#000000;stroke-opacity:0.3;" x="221.90779" xlink:href="#m7a0e91e0e6" y="248.319212"/>
     <use style="fill-opacity:0.3;stroke:#000000;stroke-opacity:0.3;" x="307.393581" xlink:href="#m7a0e91e0e6" y="251.295007"/>
     <use style="fill-opacity:0.3;stroke:#000000;stroke-opacity:0.3;" x="309.81504" xlink:href="#m7a0e91e0e6" y="251.14507"/>
     <use style="fill-opacity:0.3;stroke:#000000;stroke-opacity:0.3;" x="146.390508" xlink:href="#m7a0e91e0e6" y="213.919091"/>
     <use style="fill-opacity:0.3;stroke:#000000;stroke-opacity:0.3;" x="54" xlink:href="#m7a0e91e0e6" y="252"/>
     <use style="fill-opacity:0.3;stroke:#000000;stroke-opacity:0.3;" x="54" xlink:href="#m7a0e91e0e6" y="34.56"/>
     <use style="fill-opacity:0.3;stroke:#000000;stroke-opacity:0.3;" x="54" xlink:href="#m7a0e91e0e6" y="251.994567"/>
     <use style="fill-opacity:0.3;stroke:#000000;stroke-opacity:0.3;" x="111.791518" xlink:href="#m7a0e91e0e6" y="238.416202"/>
     <use style="fill-opacity:0.3;stroke:#000000;stroke-opacity:0.3;" x="157.711641" xlink:href="#m7a0e91e0e6" y="236.634921"/>
     <use style="fill-opacity:0.3;stroke:#000000;stroke-opacity:0.3;" x="186.40678" xlink:href="#m7a0e91e0e6" y="251.88342"/>
     <use style="fill-opacity:0.3;stroke:#000000;stroke-opacity:0.3;" x="373.37418" xlink:href="#m7a0e91e0e6" y="251.681908"/>
     <use style="fill-opacity:0.3;stroke:#000000;stroke-opacity:0.3;" x="155.985032" xlink:href="#m7a0e91e0e6" y="251.684284"/>
     <use style="fill-opacity:0.3;stroke:#000000;stroke-opacity:0.3;" x="161.141579" xlink:href="#m7a0e91e0e6" y="244.472046"/>
     <use style="fill-opacity:0.3;stroke:#000000;stroke-opacity:0.3;" x="54" xlink:href="#m7a0e91e0e6" y="251.990156"/>
     <use style="fill-opacity:0.3;stroke:#000000;stroke-opacity:0.3;" x="149.880771" xlink:href="#m7a0e91e0e6" y="245.576915"/>
     <use style="fill-opacity:0.3;stroke:#000000;stroke-opacity:0.3;" x="54" xlink:href="#m7a0e91e0e6" y="252"/>
     <use style="fill-opacity:0.3;stroke:#000000;stroke-opacity:0.3;" x="318.813559" xlink:href="#m7a0e91e0e6" y="251.985506"/>
     <use style="fill-opacity:0.3;stroke:#000000;stroke-opacity:0.3;" x="54" xlink:href="#m7a0e91e0e6" y="251.993121"/>
     <use style="fill-opacity:0.3;stroke:#000000;stroke-opacity:0.3;" x="54" xlink:href="#m7a0e91e0e6" y="251.897125"/>
     <use style="fill-opacity:0.3;stroke:#000000;stroke-opacity:0.3;" x="303.615948" xlink:href="#m7a0e91e0e6" y="245.494122"/>
     <use style="fill-opacity:0.3;stroke:#000000;stroke-opacity:0.3;" x="381.688353" xlink:href="#m7a0e91e0e6" y="251.049334"/>
     <use style="fill-opacity:0.3;stroke:#000000;stroke-opacity:0.3;" x="354.071345" xlink:href="#m7a0e91e0e6" y="251.891972"/>
     <use style="fill-opacity:0.3;stroke:#000000;stroke-opacity:0.3;" x="186.40678" xlink:href="#m7a0e91e0e6" y="251.25528"/>
     <use style="fill-opacity:0.3;stroke:#000000;stroke-opacity:0.3;" x="388.8" xlink:href="#m7a0e91e0e6" y="251.947877"/>
     <use style="fill-opacity:0.3;stroke:#000000;stroke-opacity:0.3;" x="291.332907" xlink:href="#m7a0e91e0e6" y="250.783075"/>
     <use style="fill-opacity:0.3;stroke:#000000;stroke-opacity:0.3;" x="186.40678" xlink:href="#m7a0e91e0e6" y="251.852677"/>
     <use style="fill-opacity:0.3;stroke:#000000;stroke-opacity:0.3;" x="54" xlink:href="#m7a0e91e0e6" y="252"/>
     <use style="fill-opacity:0.3;stroke:#000000;stroke-opacity:0.3;" x="65.033898" xlink:href="#m7a0e91e0e6" y="251.62355"/>
     <use style="fill-opacity:0.3;stroke:#000000;stroke-opacity:0.3;" x="54" xlink:href="#m7a0e91e0e6" y="252"/>
     <use style="fill-opacity:0.3;stroke:#000000;stroke-opacity:0.3;" x="111.156447" xlink:href="#m7a0e91e0e6" y="250.890515"/>
     <use style="fill-opacity:0.3;stroke:#000000;stroke-opacity:0.3;" x="252.610169" xlink:href="#m7a0e91e0e6" y="251.656238"/>
     <use style="fill-opacity:0.3;stroke:#000000;stroke-opacity:0.3;" x="343.639831" xlink:href="#m7a0e91e0e6" y="251.469829"/>
     <use style="fill-opacity:0.3;stroke:#000000;stroke-opacity:0.3;" x="368.219074" xlink:href="#m7a0e91e0e6" y="250.750759"/>
     <use style="fill-opacity:0.3;stroke:#000000;stroke-opacity:0.3;" x="177.838968" xlink:href="#m7a0e91e0e6" y="250.591671"/>
     <use style="fill-opacity:0.3;stroke:#000000;stroke-opacity:0.3;" x="54" xlink:href="#m7a0e91e0e6" y="252"/>
     <use style="fill-opacity:0.3;stroke:#000000;stroke-opacity:0.3;" x="345.294915" xlink:href="#m7a0e91e0e6" y="251.575676"/>
     <use style="fill-opacity:0.3;stroke:#000000;stroke-opacity:0.3;" x="259.966102" xlink:href="#m7a0e91e0e6" y="251.224649"/>
     <use style="fill-opacity:0.3;stroke:#000000;stroke-opacity:0.3;" x="316.447721" xlink:href="#m7a0e91e0e6" y="251.668287"/>
     <use style="fill-opacity:0.3;stroke:#000000;stroke-opacity:0.3;" x="316.974576" xlink:href="#m7a0e91e0e6" y="250.832485"/>
     <use style="fill-opacity:0.3;stroke:#000000;stroke-opacity:0.3;" x="103.652542" xlink:href="#m7a0e91e0e6" y="251.066272"/>
     <use style="fill-opacity:0.3;stroke:#000000;stroke-opacity:0.3;" x="367.40785" xlink:href="#m7a0e91e0e6" y="251.284568"/>
     <use style="fill-opacity:0.3;stroke:#000000;stroke-opacity:0.3;" x="264.860945" xlink:href="#m7a0e91e0e6" y="251.904199"/>
     <use style="fill-opacity:0.3;stroke:#000000;stroke-opacity:0.3;" x="293.360393" xlink:href="#m7a0e91e0e6" y="251.163075"/>
     <use style="fill-opacity:0.3;stroke:#000000;stroke-opacity:0.3;" x="54" xlink:href="#m7a0e91e0e6" y="251.988262"/>
     <use style="fill-opacity:0.3;stroke:#000000;stroke-opacity:0.3;" x="215.830508" xlink:href="#m7a0e91e0e6" y="251.595714"/>
     <use style="fill-opacity:0.3;stroke:#000000;stroke-opacity:0.3;" x="54" xlink:href="#m7a0e91e0e6" y="251.889077"/>
     <use style="fill-opacity:0.3;stroke:#000000;stroke-opacity:0.3;" x="54" xlink:href="#m7a0e91e0e6" y="251.880898"/>
     <use style="fill-opacity:0.3;stroke:#000000;stroke-opacity:0.3;" x="301.677936" xlink:href="#m7a0e91e0e6" y="251.519516"/>
     <use style="fill-opacity:0.3;stroke:#000000;stroke-opacity:0.3;" x="79.627119" xlink:href="#m7a0e91e0e6" y="250.808174"/>
     <use style="fill-opacity:0.3;stroke:#000000;stroke-opacity:0.3;" x="54" xlink:href="#m7a0e91e0e6" y="251.901105"/>
     <use style="fill-opacity:0.3;stroke:#000000;stroke-opacity:0.3;" x="372.077349" xlink:href="#m7a0e91e0e6" y="250.636803"/>
     <use style="fill-opacity:0.3;stroke:#000000;stroke-opacity:0.3;" x="166.095618" xlink:href="#m7a0e91e0e6" y="250.914386"/>
     <use style="fill-opacity:0.3;stroke:#000000;stroke-opacity:0.3;" x="219.508475" xlink:href="#m7a0e91e0e6" y="251.278127"/>
     <use style="fill-opacity:0.3;stroke:#000000;stroke-opacity:0.3;" x="292.332203" xlink:href="#m7a0e91e0e6" y="251.34525"/>
     <use style="fill-opacity:0.3;stroke:#000000;stroke-opacity:0.3;" x="388.365213" xlink:href="#m7a0e91e0e6" y="251.662907"/>
     <use style="fill-opacity:0.3;stroke:#000000;stroke-opacity:0.3;" x="213.68709" xlink:href="#m7a0e91e0e6" y="251.897123"/>
     <use style="fill-opacity:0.3;stroke:#000000;stroke-opacity:0.3;" x="54" xlink:href="#m7a0e91e0e6" y="252"/>
     <use style="fill-opacity:0.3;stroke:#000000;stroke-opacity:0.3;" x="312.625027" xlink:href="#m7a0e91e0e6" y="251.071989"/>
     <use style="fill-opacity:0.3;stroke:#000000;stroke-opacity:0.3;" x="312.625027" xlink:href="#m7a0e91e0e6" y="251.071989"/>
     <use style="fill-opacity:0.3;stroke:#000000;stroke-opacity:0.3;" x="319.630885" xlink:href="#m7a0e91e0e6" y="250.400275"/>
     <use style="fill-opacity:0.3;stroke:#000000;stroke-opacity:0.3;" x="318.813559" xlink:href="#m7a0e91e0e6" y="251.992019"/>
     <use style="fill-opacity:0.3;stroke:#000000;stroke-opacity:0.3;" x="288.778043" xlink:href="#m7a0e91e0e6" y="251.902194"/>
    </g>
   </g>
   <g id="matplotlib.axis_1">
    <g id="xtick_1">
     <g id="line2d_1">
      <defs>
       <path d="M 0 0 
L 0 3.5 
" id="m36a8942367" style="stroke:#000000;stroke-width:0.8;"/>
      </defs>
      <g>
       <use style="stroke:#000000;stroke-width:0.8;" x="54" xlink:href="#m36a8942367" y="252"/>
      </g>
     </g>
     <g id="text_1">
      <!-- 0.0 -->
      <defs>
       <path d="M 31.78125 66.40625 
Q 24.171875 66.40625 20.328125 58.90625 
Q 16.5 51.421875 16.5 36.375 
Q 16.5 21.390625 20.328125 13.890625 
Q 24.171875 6.390625 31.78125 6.390625 
Q 39.453125 6.390625 43.28125 13.890625 
Q 47.125 21.390625 47.125 36.375 
Q 47.125 51.421875 43.28125 58.90625 
Q 39.453125 66.40625 31.78125 66.40625 
z
M 31.78125 74.21875 
Q 44.046875 74.21875 50.515625 64.515625 
Q 56.984375 54.828125 56.984375 36.375 
Q 56.984375 17.96875 50.515625 8.265625 
Q 44.046875 -1.421875 31.78125 -1.421875 
Q 19.53125 -1.421875 13.0625 8.265625 
Q 6.59375 17.96875 6.59375 36.375 
Q 6.59375 54.828125 13.0625 64.515625 
Q 19.53125 74.21875 31.78125 74.21875 
z
" id="DejaVuSans-30"/>
       <path d="M 10.6875 12.40625 
L 21 12.40625 
L 21 0 
L 10.6875 0 
z
" id="DejaVuSans-2e"/>
      </defs>
      <g transform="translate(46.048437 266.598437)scale(0.1 -0.1)">
       <use xlink:href="#DejaVuSans-30"/>
       <use x="63.623047" xlink:href="#DejaVuSans-2e"/>
       <use x="95.410156" xlink:href="#DejaVuSans-30"/>
      </g>
     </g>
    </g>
    <g id="xtick_2">
     <g id="line2d_2">
      <g>
       <use style="stroke:#000000;stroke-width:0.8;" x="121.758345" xlink:href="#m36a8942367" y="252"/>
      </g>
     </g>
     <g id="text_2">
      <!-- 0.2 -->
      <defs>
       <path d="M 19.1875 8.296875 
L 53.609375 8.296875 
L 53.609375 0 
L 7.328125 0 
L 7.328125 8.296875 
Q 12.9375 14.109375 22.625 23.890625 
Q 32.328125 33.6875 34.8125 36.53125 
Q 39.546875 41.84375 41.421875 45.53125 
Q 43.3125 49.21875 43.3125 52.78125 
Q 43.3125 58.59375 39.234375 62.25 
Q 35.15625 65.921875 28.609375 65.921875 
Q 23.96875 65.921875 18.8125 64.3125 
Q 13.671875 62.703125 7.8125 59.421875 
L 7.8125 69.390625 
Q 13.765625 71.78125 18.9375 73 
Q 24.125 74.21875 28.421875 74.21875 
Q 39.75 74.21875 46.484375 68.546875 
Q 53.21875 62.890625 53.21875 53.421875 
Q 53.21875 48.921875 51.53125 44.890625 
Q 49.859375 40.875 45.40625 35.40625 
Q 44.1875 33.984375 37.640625 27.21875 
Q 31.109375 20.453125 19.1875 8.296875 
z
" id="DejaVuSans-32"/>
      </defs>
      <g transform="translate(113.806782 266.598437)scale(0.1 -0.1)">
       <use xlink:href="#DejaVuSans-30"/>
       <use x="63.623047" xlink:href="#DejaVuSans-2e"/>
       <use x="95.410156" xlink:href="#DejaVuSans-32"/>
      </g>
     </g>
    </g>
    <g id="xtick_3">
     <g id="line2d_3">
      <g>
       <use style="stroke:#000000;stroke-width:0.8;" x="189.51669" xlink:href="#m36a8942367" y="252"/>
      </g>
     </g>
     <g id="text_3">
      <!-- 0.4 -->
      <defs>
       <path d="M 37.796875 64.3125 
L 12.890625 25.390625 
L 37.796875 25.390625 
z
M 35.203125 72.90625 
L 47.609375 72.90625 
L 47.609375 25.390625 
L 58.015625 25.390625 
L 58.015625 17.1875 
L 47.609375 17.1875 
L 47.609375 0 
L 37.796875 0 
L 37.796875 17.1875 
L 4.890625 17.1875 
L 4.890625 26.703125 
z
" id="DejaVuSans-34"/>
      </defs>
      <g transform="translate(181.565127 266.598437)scale(0.1 -0.1)">
       <use xlink:href="#DejaVuSans-30"/>
       <use x="63.623047" xlink:href="#DejaVuSans-2e"/>
       <use x="95.410156" xlink:href="#DejaVuSans-34"/>
      </g>
     </g>
    </g>
    <g id="xtick_4">
     <g id="line2d_4">
      <g>
       <use style="stroke:#000000;stroke-width:0.8;" x="257.275035" xlink:href="#m36a8942367" y="252"/>
      </g>
     </g>
     <g id="text_4">
      <!-- 0.6 -->
      <defs>
       <path d="M 33.015625 40.375 
Q 26.375 40.375 22.484375 35.828125 
Q 18.609375 31.296875 18.609375 23.390625 
Q 18.609375 15.53125 22.484375 10.953125 
Q 26.375 6.390625 33.015625 6.390625 
Q 39.65625 6.390625 43.53125 10.953125 
Q 47.40625 15.53125 47.40625 23.390625 
Q 47.40625 31.296875 43.53125 35.828125 
Q 39.65625 40.375 33.015625 40.375 
z
M 52.59375 71.296875 
L 52.59375 62.3125 
Q 48.875 64.0625 45.09375 64.984375 
Q 41.3125 65.921875 37.59375 65.921875 
Q 27.828125 65.921875 22.671875 59.328125 
Q 17.53125 52.734375 16.796875 39.40625 
Q 19.671875 43.65625 24.015625 45.921875 
Q 28.375 48.1875 33.59375 48.1875 
Q 44.578125 48.1875 50.953125 41.515625 
Q 57.328125 34.859375 57.328125 23.390625 
Q 57.328125 12.15625 50.6875 5.359375 
Q 44.046875 -1.421875 33.015625 -1.421875 
Q 20.359375 -1.421875 13.671875 8.265625 
Q 6.984375 17.96875 6.984375 36.375 
Q 6.984375 53.65625 15.1875 63.9375 
Q 23.390625 74.21875 37.203125 74.21875 
Q 40.921875 74.21875 44.703125 73.484375 
Q 48.484375 72.75 52.59375 71.296875 
z
" id="DejaVuSans-36"/>
      </defs>
      <g transform="translate(249.323472 266.598437)scale(0.1 -0.1)">
       <use xlink:href="#DejaVuSans-30"/>
       <use x="63.623047" xlink:href="#DejaVuSans-2e"/>
       <use x="95.410156" xlink:href="#DejaVuSans-36"/>
      </g>
     </g>
    </g>
    <g id="xtick_5">
     <g id="line2d_5">
      <g>
       <use style="stroke:#000000;stroke-width:0.8;" x="325.03338" xlink:href="#m36a8942367" y="252"/>
      </g>
     </g>
     <g id="text_5">
      <!-- 0.8 -->
      <defs>
       <path d="M 31.78125 34.625 
Q 24.75 34.625 20.71875 30.859375 
Q 16.703125 27.09375 16.703125 20.515625 
Q 16.703125 13.921875 20.71875 10.15625 
Q 24.75 6.390625 31.78125 6.390625 
Q 38.8125 6.390625 42.859375 10.171875 
Q 46.921875 13.96875 46.921875 20.515625 
Q 46.921875 27.09375 42.890625 30.859375 
Q 38.875 34.625 31.78125 34.625 
z
M 21.921875 38.8125 
Q 15.578125 40.375 12.03125 44.71875 
Q 8.5 49.078125 8.5 55.328125 
Q 8.5 64.0625 14.71875 69.140625 
Q 20.953125 74.21875 31.78125 74.21875 
Q 42.671875 74.21875 48.875 69.140625 
Q 55.078125 64.0625 55.078125 55.328125 
Q 55.078125 49.078125 51.53125 44.71875 
Q 48 40.375 41.703125 38.8125 
Q 48.828125 37.15625 52.796875 32.3125 
Q 56.78125 27.484375 56.78125 20.515625 
Q 56.78125 9.90625 50.3125 4.234375 
Q 43.84375 -1.421875 31.78125 -1.421875 
Q 19.734375 -1.421875 13.25 4.234375 
Q 6.78125 9.90625 6.78125 20.515625 
Q 6.78125 27.484375 10.78125 32.3125 
Q 14.796875 37.15625 21.921875 38.8125 
z
M 18.3125 54.390625 
Q 18.3125 48.734375 21.84375 45.5625 
Q 25.390625 42.390625 31.78125 42.390625 
Q 38.140625 42.390625 41.71875 45.5625 
Q 45.3125 48.734375 45.3125 54.390625 
Q 45.3125 60.0625 41.71875 63.234375 
Q 38.140625 66.40625 31.78125 66.40625 
Q 25.390625 66.40625 21.84375 63.234375 
Q 18.3125 60.0625 18.3125 54.390625 
z
" id="DejaVuSans-38"/>
      </defs>
      <g transform="translate(317.081817 266.598437)scale(0.1 -0.1)">
       <use xlink:href="#DejaVuSans-30"/>
       <use x="63.623047" xlink:href="#DejaVuSans-2e"/>
       <use x="95.410156" xlink:href="#DejaVuSans-38"/>
      </g>
     </g>
    </g>
    <g id="text_6">
     <!-- fractional ratio -->
     <defs>
      <path d="M 37.109375 75.984375 
L 37.109375 68.5 
L 28.515625 68.5 
Q 23.6875 68.5 21.796875 66.546875 
Q 19.921875 64.59375 19.921875 59.515625 
L 19.921875 54.6875 
L 34.71875 54.6875 
L 34.71875 47.703125 
L 19.921875 47.703125 
L 19.921875 0 
L 10.890625 0 
L 10.890625 47.703125 
L 2.296875 47.703125 
L 2.296875 54.6875 
L 10.890625 54.6875 
L 10.890625 58.5 
Q 10.890625 67.625 15.140625 71.796875 
Q 19.390625 75.984375 28.609375 75.984375 
z
" id="DejaVuSans-66"/>
      <path d="M 41.109375 46.296875 
Q 39.59375 47.171875 37.8125 47.578125 
Q 36.03125 48 33.890625 48 
Q 26.265625 48 22.1875 43.046875 
Q 18.109375 38.09375 18.109375 28.8125 
L 18.109375 0 
L 9.078125 0 
L 9.078125 54.6875 
L 18.109375 54.6875 
L 18.109375 46.1875 
Q 20.953125 51.171875 25.484375 53.578125 
Q 30.03125 56 36.53125 56 
Q 37.453125 56 38.578125 55.875 
Q 39.703125 55.765625 41.0625 55.515625 
z
" id="DejaVuSans-72"/>
      <path d="M 34.28125 27.484375 
Q 23.390625 27.484375 19.1875 25 
Q 14.984375 22.515625 14.984375 16.5 
Q 14.984375 11.71875 18.140625 8.90625 
Q 21.296875 6.109375 26.703125 6.109375 
Q 34.1875 6.109375 38.703125 11.40625 
Q 43.21875 16.703125 43.21875 25.484375 
L 43.21875 27.484375 
z
M 52.203125 31.203125 
L 52.203125 0 
L 43.21875 0 
L 43.21875 8.296875 
Q 40.140625 3.328125 35.546875 0.953125 
Q 30.953125 -1.421875 24.3125 -1.421875 
Q 15.921875 -1.421875 10.953125 3.296875 
Q 6 8.015625 6 15.921875 
Q 6 25.140625 12.171875 29.828125 
Q 18.359375 34.515625 30.609375 34.515625 
L 43.21875 34.515625 
L 43.21875 35.40625 
Q 43.21875 41.609375 39.140625 45 
Q 35.0625 48.390625 27.6875 48.390625 
Q 23 48.390625 18.546875 47.265625 
Q 14.109375 46.140625 10.015625 43.890625 
L 10.015625 52.203125 
Q 14.9375 54.109375 19.578125 55.046875 
Q 24.21875 56 28.609375 56 
Q 40.484375 56 46.34375 49.84375 
Q 52.203125 43.703125 52.203125 31.203125 
z
" id="DejaVuSans-61"/>
      <path d="M 48.78125 52.59375 
L 48.78125 44.1875 
Q 44.96875 46.296875 41.140625 47.34375 
Q 37.3125 48.390625 33.40625 48.390625 
Q 24.65625 48.390625 19.8125 42.84375 
Q 14.984375 37.3125 14.984375 27.296875 
Q 14.984375 17.28125 19.8125 11.734375 
Q 24.65625 6.203125 33.40625 6.203125 
Q 37.3125 6.203125 41.140625 7.25 
Q 44.96875 8.296875 48.78125 10.40625 
L 48.78125 2.09375 
Q 45.015625 0.34375 40.984375 -0.53125 
Q 36.96875 -1.421875 32.421875 -1.421875 
Q 20.0625 -1.421875 12.78125 6.34375 
Q 5.515625 14.109375 5.515625 27.296875 
Q 5.515625 40.671875 12.859375 48.328125 
Q 20.21875 56 33.015625 56 
Q 37.15625 56 41.109375 55.140625 
Q 45.0625 54.296875 48.78125 52.59375 
z
" id="DejaVuSans-63"/>
      <path d="M 18.3125 70.21875 
L 18.3125 54.6875 
L 36.8125 54.6875 
L 36.8125 47.703125 
L 18.3125 47.703125 
L 18.3125 18.015625 
Q 18.3125 11.328125 20.140625 9.421875 
Q 21.96875 7.515625 27.59375 7.515625 
L 36.8125 7.515625 
L 36.8125 0 
L 27.59375 0 
Q 17.1875 0 13.234375 3.875 
Q 9.28125 7.765625 9.28125 18.015625 
L 9.28125 47.703125 
L 2.6875 47.703125 
L 2.6875 54.6875 
L 9.28125 54.6875 
L 9.28125 70.21875 
z
" id="DejaVuSans-74"/>
      <path d="M 9.421875 54.6875 
L 18.40625 54.6875 
L 18.40625 0 
L 9.421875 0 
z
M 9.421875 75.984375 
L 18.40625 75.984375 
L 18.40625 64.59375 
L 9.421875 64.59375 
z
" id="DejaVuSans-69"/>
      <path d="M 30.609375 48.390625 
Q 23.390625 48.390625 19.1875 42.75 
Q 14.984375 37.109375 14.984375 27.296875 
Q 14.984375 17.484375 19.15625 11.84375 
Q 23.34375 6.203125 30.609375 6.203125 
Q 37.796875 6.203125 41.984375 11.859375 
Q 46.1875 17.53125 46.1875 27.296875 
Q 46.1875 37.015625 41.984375 42.703125 
Q 37.796875 48.390625 30.609375 48.390625 
z
M 30.609375 56 
Q 42.328125 56 49.015625 48.375 
Q 55.71875 40.765625 55.71875 27.296875 
Q 55.71875 13.875 49.015625 6.21875 
Q 42.328125 -1.421875 30.609375 -1.421875 
Q 18.84375 -1.421875 12.171875 6.21875 
Q 5.515625 13.875 5.515625 27.296875 
Q 5.515625 40.765625 12.171875 48.375 
Q 18.84375 56 30.609375 56 
z
" id="DejaVuSans-6f"/>
      <path d="M 54.890625 33.015625 
L 54.890625 0 
L 45.90625 0 
L 45.90625 32.71875 
Q 45.90625 40.484375 42.875 44.328125 
Q 39.84375 48.1875 33.796875 48.1875 
Q 26.515625 48.1875 22.3125 43.546875 
Q 18.109375 38.921875 18.109375 30.90625 
L 18.109375 0 
L 9.078125 0 
L 9.078125 54.6875 
L 18.109375 54.6875 
L 18.109375 46.1875 
Q 21.34375 51.125 25.703125 53.5625 
Q 30.078125 56 35.796875 56 
Q 45.21875 56 50.046875 50.171875 
Q 54.890625 44.34375 54.890625 33.015625 
z
" id="DejaVuSans-6e"/>
      <path d="M 9.421875 75.984375 
L 18.40625 75.984375 
L 18.40625 0 
L 9.421875 0 
z
" id="DejaVuSans-6c"/>
      <path id="DejaVuSans-20"/>
     </defs>
     <g transform="translate(184.623437 280.276563)scale(0.1 -0.1)">
      <use xlink:href="#DejaVuSans-66"/>
      <use x="35.205078" xlink:href="#DejaVuSans-72"/>
      <use x="76.318359" xlink:href="#DejaVuSans-61"/>
      <use x="137.597656" xlink:href="#DejaVuSans-63"/>
      <use x="192.578125" xlink:href="#DejaVuSans-74"/>
      <use x="231.787109" xlink:href="#DejaVuSans-69"/>
      <use x="259.570312" xlink:href="#DejaVuSans-6f"/>
      <use x="320.751953" xlink:href="#DejaVuSans-6e"/>
      <use x="384.130859" xlink:href="#DejaVuSans-61"/>
      <use x="445.410156" xlink:href="#DejaVuSans-6c"/>
      <use x="473.193359" xlink:href="#DejaVuSans-20"/>
      <use x="504.980469" xlink:href="#DejaVuSans-72"/>
      <use x="546.09375" xlink:href="#DejaVuSans-61"/>
      <use x="607.373047" xlink:href="#DejaVuSans-74"/>
      <use x="646.582031" xlink:href="#DejaVuSans-69"/>
      <use x="674.365234" xlink:href="#DejaVuSans-6f"/>
     </g>
    </g>
   </g>
   <g id="matplotlib.axis_2">
    <g id="ytick_1">
     <g id="line2d_6">
      <defs>
       <path d="M 0 0 
L -3.5 0 
" id="mf16731622e" style="stroke:#000000;stroke-width:0.8;"/>
      </defs>
      <g>
       <use style="stroke:#000000;stroke-width:0.8;" x="54" xlink:href="#mf16731622e" y="252"/>
      </g>
     </g>
     <g id="text_7">
      <!-- 0.000 -->
      <g transform="translate(18.371875 255.799219)scale(0.1 -0.1)">
       <use xlink:href="#DejaVuSans-30"/>
       <use x="63.623047" xlink:href="#DejaVuSans-2e"/>
       <use x="95.410156" xlink:href="#DejaVuSans-30"/>
       <use x="159.033203" xlink:href="#DejaVuSans-30"/>
       <use x="222.65625" xlink:href="#DejaVuSans-30"/>
      </g>
     </g>
    </g>
    <g id="ytick_2">
     <g id="line2d_7">
      <g>
       <use style="stroke:#000000;stroke-width:0.8;" x="54" xlink:href="#mf16731622e" y="226.527617"/>
      </g>
     </g>
     <g id="text_8">
      <!-- 0.025 -->
      <defs>
       <path d="M 10.796875 72.90625 
L 49.515625 72.90625 
L 49.515625 64.59375 
L 19.828125 64.59375 
L 19.828125 46.734375 
Q 21.96875 47.46875 24.109375 47.828125 
Q 26.265625 48.1875 28.421875 48.1875 
Q 40.625 48.1875 47.75 41.5 
Q 54.890625 34.8125 54.890625 23.390625 
Q 54.890625 11.625 47.5625 5.09375 
Q 40.234375 -1.421875 26.90625 -1.421875 
Q 22.3125 -1.421875 17.546875 -0.640625 
Q 12.796875 0.140625 7.71875 1.703125 
L 7.71875 11.625 
Q 12.109375 9.234375 16.796875 8.0625 
Q 21.484375 6.890625 26.703125 6.890625 
Q 35.15625 6.890625 40.078125 11.328125 
Q 45.015625 15.765625 45.015625 23.390625 
Q 45.015625 31 40.078125 35.4375 
Q 35.15625 39.890625 26.703125 39.890625 
Q 22.75 39.890625 18.8125 39.015625 
Q 14.890625 38.140625 10.796875 36.28125 
z
" id="DejaVuSans-35"/>
      </defs>
      <g transform="translate(18.371875 230.326835)scale(0.1 -0.1)">
       <use xlink:href="#DejaVuSans-30"/>
       <use x="63.623047" xlink:href="#DejaVuSans-2e"/>
       <use x="95.410156" xlink:href="#DejaVuSans-30"/>
       <use x="159.033203" xlink:href="#DejaVuSans-32"/>
       <use x="222.65625" xlink:href="#DejaVuSans-35"/>
      </g>
     </g>
    </g>
    <g id="ytick_3">
     <g id="line2d_8">
      <g>
       <use style="stroke:#000000;stroke-width:0.8;" x="54" xlink:href="#mf16731622e" y="201.055233"/>
      </g>
     </g>
     <g id="text_9">
      <!-- 0.050 -->
      <g transform="translate(18.371875 204.854452)scale(0.1 -0.1)">
       <use xlink:href="#DejaVuSans-30"/>
       <use x="63.623047" xlink:href="#DejaVuSans-2e"/>
       <use x="95.410156" xlink:href="#DejaVuSans-30"/>
       <use x="159.033203" xlink:href="#DejaVuSans-35"/>
       <use x="222.65625" xlink:href="#DejaVuSans-30"/>
      </g>
     </g>
    </g>
    <g id="ytick_4">
     <g id="line2d_9">
      <g>
       <use style="stroke:#000000;stroke-width:0.8;" x="54" xlink:href="#mf16731622e" y="175.58285"/>
      </g>
     </g>
     <g id="text_10">
      <!-- 0.075 -->
      <defs>
       <path d="M 8.203125 72.90625 
L 55.078125 72.90625 
L 55.078125 68.703125 
L 28.609375 0 
L 18.3125 0 
L 43.21875 64.59375 
L 8.203125 64.59375 
z
" id="DejaVuSans-37"/>
      </defs>
      <g transform="translate(18.371875 179.382069)scale(0.1 -0.1)">
       <use xlink:href="#DejaVuSans-30"/>
       <use x="63.623047" xlink:href="#DejaVuSans-2e"/>
       <use x="95.410156" xlink:href="#DejaVuSans-30"/>
       <use x="159.033203" xlink:href="#DejaVuSans-37"/>
       <use x="222.65625" xlink:href="#DejaVuSans-35"/>
      </g>
     </g>
    </g>
    <g id="ytick_5">
     <g id="line2d_10">
      <g>
       <use style="stroke:#000000;stroke-width:0.8;" x="54" xlink:href="#mf16731622e" y="150.110466"/>
      </g>
     </g>
     <g id="text_11">
      <!-- 0.100 -->
      <defs>
       <path d="M 12.40625 8.296875 
L 28.515625 8.296875 
L 28.515625 63.921875 
L 10.984375 60.40625 
L 10.984375 69.390625 
L 28.421875 72.90625 
L 38.28125 72.90625 
L 38.28125 8.296875 
L 54.390625 8.296875 
L 54.390625 0 
L 12.40625 0 
z
" id="DejaVuSans-31"/>
      </defs>
      <g transform="translate(18.371875 153.909685)scale(0.1 -0.1)">
       <use xlink:href="#DejaVuSans-30"/>
       <use x="63.623047" xlink:href="#DejaVuSans-2e"/>
       <use x="95.410156" xlink:href="#DejaVuSans-31"/>
       <use x="159.033203" xlink:href="#DejaVuSans-30"/>
       <use x="222.65625" xlink:href="#DejaVuSans-30"/>
      </g>
     </g>
    </g>
    <g id="ytick_6">
     <g id="line2d_11">
      <g>
       <use style="stroke:#000000;stroke-width:0.8;" x="54" xlink:href="#mf16731622e" y="124.638083"/>
      </g>
     </g>
     <g id="text_12">
      <!-- 0.125 -->
      <g transform="translate(18.371875 128.437302)scale(0.1 -0.1)">
       <use xlink:href="#DejaVuSans-30"/>
       <use x="63.623047" xlink:href="#DejaVuSans-2e"/>
       <use x="95.410156" xlink:href="#DejaVuSans-31"/>
       <use x="159.033203" xlink:href="#DejaVuSans-32"/>
       <use x="222.65625" xlink:href="#DejaVuSans-35"/>
      </g>
     </g>
    </g>
    <g id="ytick_7">
     <g id="line2d_12">
      <g>
       <use style="stroke:#000000;stroke-width:0.8;" x="54" xlink:href="#mf16731622e" y="99.1657"/>
      </g>
     </g>
     <g id="text_13">
      <!-- 0.150 -->
      <g transform="translate(18.371875 102.964918)scale(0.1 -0.1)">
       <use xlink:href="#DejaVuSans-30"/>
       <use x="63.623047" xlink:href="#DejaVuSans-2e"/>
       <use x="95.410156" xlink:href="#DejaVuSans-31"/>
       <use x="159.033203" xlink:href="#DejaVuSans-35"/>
       <use x="222.65625" xlink:href="#DejaVuSans-30"/>
      </g>
     </g>
    </g>
    <g id="ytick_8">
     <g id="line2d_13">
      <g>
       <use style="stroke:#000000;stroke-width:0.8;" x="54" xlink:href="#mf16731622e" y="73.693316"/>
      </g>
     </g>
     <g id="text_14">
      <!-- 0.175 -->
      <g transform="translate(18.371875 77.492535)scale(0.1 -0.1)">
       <use xlink:href="#DejaVuSans-30"/>
       <use x="63.623047" xlink:href="#DejaVuSans-2e"/>
       <use x="95.410156" xlink:href="#DejaVuSans-31"/>
       <use x="159.033203" xlink:href="#DejaVuSans-37"/>
       <use x="222.65625" xlink:href="#DejaVuSans-35"/>
      </g>
     </g>
    </g>
    <g id="ytick_9">
     <g id="line2d_14">
      <g>
       <use style="stroke:#000000;stroke-width:0.8;" x="54" xlink:href="#mf16731622e" y="48.220933"/>
      </g>
     </g>
     <g id="text_15">
      <!-- 0.200 -->
      <g transform="translate(18.371875 52.020152)scale(0.1 -0.1)">
       <use xlink:href="#DejaVuSans-30"/>
       <use x="63.623047" xlink:href="#DejaVuSans-2e"/>
       <use x="95.410156" xlink:href="#DejaVuSans-32"/>
       <use x="159.033203" xlink:href="#DejaVuSans-30"/>
       <use x="222.65625" xlink:href="#DejaVuSans-30"/>
      </g>
     </g>
    </g>
    <g id="text_16">
     <!-- fractional importance -->
     <defs>
      <path d="M 52 44.1875 
Q 55.375 50.25 60.0625 53.125 
Q 64.75 56 71.09375 56 
Q 79.640625 56 84.28125 50.015625 
Q 88.921875 44.046875 88.921875 33.015625 
L 88.921875 0 
L 79.890625 0 
L 79.890625 32.71875 
Q 79.890625 40.578125 77.09375 44.375 
Q 74.3125 48.1875 68.609375 48.1875 
Q 61.625 48.1875 57.5625 43.546875 
Q 53.515625 38.921875 53.515625 30.90625 
L 53.515625 0 
L 44.484375 0 
L 44.484375 32.71875 
Q 44.484375 40.625 41.703125 44.40625 
Q 38.921875 48.1875 33.109375 48.1875 
Q 26.21875 48.1875 22.15625 43.53125 
Q 18.109375 38.875 18.109375 30.90625 
L 18.109375 0 
L 9.078125 0 
L 9.078125 54.6875 
L 18.109375 54.6875 
L 18.109375 46.1875 
Q 21.1875 51.21875 25.484375 53.609375 
Q 29.78125 56 35.6875 56 
Q 41.65625 56 45.828125 52.96875 
Q 50 49.953125 52 44.1875 
z
" id="DejaVuSans-6d"/>
      <path d="M 18.109375 8.203125 
L 18.109375 -20.796875 
L 9.078125 -20.796875 
L 9.078125 54.6875 
L 18.109375 54.6875 
L 18.109375 46.390625 
Q 20.953125 51.265625 25.265625 53.625 
Q 29.59375 56 35.59375 56 
Q 45.5625 56 51.78125 48.09375 
Q 58.015625 40.1875 58.015625 27.296875 
Q 58.015625 14.40625 51.78125 6.484375 
Q 45.5625 -1.421875 35.59375 -1.421875 
Q 29.59375 -1.421875 25.265625 0.953125 
Q 20.953125 3.328125 18.109375 8.203125 
z
M 48.6875 27.296875 
Q 48.6875 37.203125 44.609375 42.84375 
Q 40.53125 48.484375 33.40625 48.484375 
Q 26.265625 48.484375 22.1875 42.84375 
Q 18.109375 37.203125 18.109375 27.296875 
Q 18.109375 17.390625 22.1875 11.75 
Q 26.265625 6.109375 33.40625 6.109375 
Q 40.53125 6.109375 44.609375 11.75 
Q 48.6875 17.390625 48.6875 27.296875 
z
" id="DejaVuSans-70"/>
      <path d="M 56.203125 29.59375 
L 56.203125 25.203125 
L 14.890625 25.203125 
Q 15.484375 15.921875 20.484375 11.0625 
Q 25.484375 6.203125 34.421875 6.203125 
Q 39.59375 6.203125 44.453125 7.46875 
Q 49.3125 8.734375 54.109375 11.28125 
L 54.109375 2.78125 
Q 49.265625 0.734375 44.1875 -0.34375 
Q 39.109375 -1.421875 33.890625 -1.421875 
Q 20.796875 -1.421875 13.15625 6.1875 
Q 5.515625 13.8125 5.515625 26.8125 
Q 5.515625 40.234375 12.765625 48.109375 
Q 20.015625 56 32.328125 56 
Q 43.359375 56 49.78125 48.890625 
Q 56.203125 41.796875 56.203125 29.59375 
z
M 47.21875 32.234375 
Q 47.125 39.59375 43.09375 43.984375 
Q 39.0625 48.390625 32.421875 48.390625 
Q 24.90625 48.390625 20.390625 44.140625 
Q 15.875 39.890625 15.1875 32.171875 
z
" id="DejaVuSans-65"/>
     </defs>
     <g transform="translate(12.292187 197.095625)rotate(-90)scale(0.1 -0.1)">
      <use xlink:href="#DejaVuSans-66"/>
      <use x="35.205078" xlink:href="#DejaVuSans-72"/>
      <use x="76.318359" xlink:href="#DejaVuSans-61"/>
      <use x="137.597656" xlink:href="#DejaVuSans-63"/>
      <use x="192.578125" xlink:href="#DejaVuSans-74"/>
      <use x="231.787109" xlink:href="#DejaVuSans-69"/>
      <use x="259.570312" xlink:href="#DejaVuSans-6f"/>
      <use x="320.751953" xlink:href="#DejaVuSans-6e"/>
      <use x="384.130859" xlink:href="#DejaVuSans-61"/>
      <use x="445.410156" xlink:href="#DejaVuSans-6c"/>
      <use x="473.193359" xlink:href="#DejaVuSans-20"/>
      <use x="504.980469" xlink:href="#DejaVuSans-69"/>
      <use x="532.763672" xlink:href="#DejaVuSans-6d"/>
      <use x="630.175781" xlink:href="#DejaVuSans-70"/>
      <use x="693.652344" xlink:href="#DejaVuSans-6f"/>
      <use x="754.833984" xlink:href="#DejaVuSans-72"/>
      <use x="795.947266" xlink:href="#DejaVuSans-74"/>
      <use x="835.15625" xlink:href="#DejaVuSans-61"/>
      <use x="896.435547" xlink:href="#DejaVuSans-6e"/>
      <use x="959.814453" xlink:href="#DejaVuSans-63"/>
      <use x="1014.794922" xlink:href="#DejaVuSans-65"/>
     </g>
    </g>
   </g>
   <g id="patch_3">
    <path d="M 54 252 
L 54 34.56 
" style="fill:none;stroke:#000000;stroke-linecap:square;stroke-linejoin:miter;stroke-width:0.8;"/>
   </g>
   <g id="patch_4">
    <path d="M 388.8 252 
L 388.8 34.56 
" style="fill:none;stroke:#000000;stroke-linecap:square;stroke-linejoin:miter;stroke-width:0.8;"/>
   </g>
   <g id="patch_5">
    <path d="M 54 252 
L 388.8 252 
" style="fill:none;stroke:#000000;stroke-linecap:square;stroke-linejoin:miter;stroke-width:0.8;"/>
   </g>
   <g id="patch_6">
    <path d="M 54 34.56 
L 388.8 34.56 
" style="fill:none;stroke:#000000;stroke-linecap:square;stroke-linejoin:miter;stroke-width:0.8;"/>
   </g>
   <g id="text_17">
    <!-- Neisseria flavescens -->
    <defs>
     <path d="M 9.8125 72.90625 
L 23.09375 72.90625 
L 55.421875 11.921875 
L 55.421875 72.90625 
L 64.984375 72.90625 
L 64.984375 0 
L 51.703125 0 
L 19.390625 60.984375 
L 19.390625 0 
L 9.8125 0 
z
" id="DejaVuSans-4e"/>
     <path d="M 44.28125 53.078125 
L 44.28125 44.578125 
Q 40.484375 46.53125 36.375 47.5 
Q 32.28125 48.484375 27.875 48.484375 
Q 21.1875 48.484375 17.84375 46.4375 
Q 14.5 44.390625 14.5 40.28125 
Q 14.5 37.15625 16.890625 35.375 
Q 19.28125 33.59375 26.515625 31.984375 
L 29.59375 31.296875 
Q 39.15625 29.25 43.1875 25.515625 
Q 47.21875 21.78125 47.21875 15.09375 
Q 47.21875 7.46875 41.1875 3.015625 
Q 35.15625 -1.421875 24.609375 -1.421875 
Q 20.21875 -1.421875 15.453125 -0.5625 
Q 10.6875 0.296875 5.421875 2 
L 5.421875 11.28125 
Q 10.40625 8.6875 15.234375 7.390625 
Q 20.0625 6.109375 24.8125 6.109375 
Q 31.15625 6.109375 34.5625 8.28125 
Q 37.984375 10.453125 37.984375 14.40625 
Q 37.984375 18.0625 35.515625 20.015625 
Q 33.0625 21.96875 24.703125 23.78125 
L 21.578125 24.515625 
Q 13.234375 26.265625 9.515625 29.90625 
Q 5.8125 33.546875 5.8125 39.890625 
Q 5.8125 47.609375 11.28125 51.796875 
Q 16.75 56 26.8125 56 
Q 31.78125 56 36.171875 55.265625 
Q 40.578125 54.546875 44.28125 53.078125 
z
" id="DejaVuSans-73"/>
     <path d="M 2.984375 54.6875 
L 12.5 54.6875 
L 29.59375 8.796875 
L 46.6875 54.6875 
L 56.203125 54.6875 
L 35.6875 0 
L 23.484375 0 
z
" id="DejaVuSans-76"/>
    </defs>
    <g transform="translate(160.148438 28.56)scale(0.12 -0.12)">
     <use xlink:href="#DejaVuSans-4e"/>
     <use x="74.804688" xlink:href="#DejaVuSans-65"/>
     <use x="136.328125" xlink:href="#DejaVuSans-69"/>
     <use x="164.111328" xlink:href="#DejaVuSans-73"/>
     <use x="216.210938" xlink:href="#DejaVuSans-73"/>
     <use x="268.310547" xlink:href="#DejaVuSans-65"/>
     <use x="329.833984" xlink:href="#DejaVuSans-72"/>
     <use x="370.947266" xlink:href="#DejaVuSans-69"/>
     <use x="398.730469" xlink:href="#DejaVuSans-61"/>
     <use x="460.009766" xlink:href="#DejaVuSans-20"/>
     <use x="491.796875" xlink:href="#DejaVuSans-66"/>
     <use x="527.001953" xlink:href="#DejaVuSans-6c"/>
     <use x="554.785156" xlink:href="#DejaVuSans-61"/>
     <use x="616.064453" xlink:href="#DejaVuSans-76"/>
     <use x="675.244141" xlink:href="#DejaVuSans-65"/>
     <use x="736.767578" xlink:href="#DejaVuSans-73"/>
     <use x="788.867188" xlink:href="#DejaVuSans-63"/>
     <use x="843.847656" xlink:href="#DejaVuSans-65"/>
     <use x="905.371094" xlink:href="#DejaVuSans-6e"/>
     <use x="968.75" xlink:href="#DejaVuSans-73"/>
    </g>
   </g>
  </g>
 </g>
 <defs>
  <clipPath id="p4b56dab80d">
   <rect height="217.44" width="334.8" x="54" y="34.56"/>
  </clipPath>
 </defs>
</svg>
