<?xml version="1.0" encoding="utf-8" standalone="no"?>
<!DOCTYPE svg PUBLIC "-//W3C//DTD SVG 1.1//EN"
  "http://www.w3.org/Graphics/SVG/1.1/DTD/svg11.dtd">
<!-- Created with matplotlib (http://matplotlib.org/) -->
<svg height="288pt" version="1.1" viewBox="0 0 432 288" width="432pt" xmlns="http://www.w3.org/2000/svg" xmlns:xlink="http://www.w3.org/1999/xlink">
 <defs>
  <style type="text/css">
*{stroke-linecap:butt;stroke-linejoin:round;}
  </style>
 </defs>
 <g id="figure_1">
  <g id="patch_1">
   <path d="M 0 288 
L 432 288 
L 432 0 
L 0 0 
z
" style="fill:#ffffff;"/>
  </g>
  <g id="axes_1">
   <g id="patch_2">
    <path d="M 54 252 
L 388.8 252 
L 388.8 34.56 
L 54 34.56 
z
" style="fill:#ffffff;"/>
   </g>
   <g id="PathCollection_1">
    <defs>
     <path d="M 0 5 
C 1.326016 5 2.597899 4.473168 3.535534 3.535534 
C 4.473168 2.597899 5 1.326016 5 0 
C 5 -1.326016 4.473168 -2.597899 3.535534 -3.535534 
C 2.597899 -4.473168 1.326016 -5 0 -5 
C -1.326016 -5 -2.597899 -4.473168 -3.535534 -3.535534 
C -4.473168 -2.597899 -5 -1.326016 -5 0 
C -5 1.326016 -4.473168 2.597899 -3.535534 3.535534 
C -2.597899 4.473168 -1.326016 5 0 5 
z
" id="m4b6b631c34" style="stroke:#000000;stroke-opacity:0.3;"/>
    </defs>
    <g clip-path="url(#pe7a8da68b7)">
     <use style="fill-opacity:0.3;stroke:#000000;stroke-opacity:0.3;" x="54" xlink:href="#m4b6b631c34" y="232.58161"/>
     <use style="fill-opacity:0.3;stroke:#000000;stroke-opacity:0.3;" x="239.298113" xlink:href="#m4b6b631c34" y="251.525684"/>
     <use style="fill-opacity:0.3;stroke:#000000;stroke-opacity:0.3;" x="54" xlink:href="#m4b6b631c34" y="251.875577"/>
     <use style="fill-opacity:0.3;stroke:#000000;stroke-opacity:0.3;" x="155.300115" xlink:href="#m4b6b631c34" y="251.634326"/>
     <use style="fill-opacity:0.3;stroke:#000000;stroke-opacity:0.3;" x="81.013364" xlink:href="#m4b6b631c34" y="251.0737"/>
     <use style="fill-opacity:0.3;stroke:#000000;stroke-opacity:0.3;" x="239.298113" xlink:href="#m4b6b631c34" y="251.86231"/>
     <use style="fill-opacity:0.3;stroke:#000000;stroke-opacity:0.3;" x="239.298113" xlink:href="#m4b6b631c34" y="251.61694"/>
     <use style="fill-opacity:0.3;stroke:#000000;stroke-opacity:0.3;" x="54" xlink:href="#m4b6b631c34" y="251.985022"/>
     <use style="fill-opacity:0.3;stroke:#000000;stroke-opacity:0.3;" x="54" xlink:href="#m4b6b631c34" y="178.583202"/>
     <use style="fill-opacity:0.3;stroke:#000000;stroke-opacity:0.3;" x="54" xlink:href="#m4b6b631c34" y="250.833144"/>
     <use style="fill-opacity:0.3;stroke:#000000;stroke-opacity:0.3;" x="100.324528" xlink:href="#m4b6b631c34" y="248.123522"/>
     <use style="fill-opacity:0.3;stroke:#000000;stroke-opacity:0.3;" x="378.160367" xlink:href="#m4b6b631c34" y="250.03487"/>
     <use style="fill-opacity:0.3;stroke:#000000;stroke-opacity:0.3;" x="54" xlink:href="#m4b6b631c34" y="251.956984"/>
     <use style="fill-opacity:0.3;stroke:#000000;stroke-opacity:0.3;" x="54" xlink:href="#m4b6b631c34" y="251.985022"/>
     <use style="fill-opacity:0.3;stroke:#000000;stroke-opacity:0.3;" x="54" xlink:href="#m4b6b631c34" y="148.686115"/>
     <use style="fill-opacity:0.3;stroke:#000000;stroke-opacity:0.3;" x="54" xlink:href="#m4b6b631c34" y="34.56"/>
     <use style="fill-opacity:0.3;stroke:#000000;stroke-opacity:0.3;" x="54" xlink:href="#m4b6b631c34" y="249.840482"/>
     <use style="fill-opacity:0.3;stroke:#000000;stroke-opacity:0.3;" x="54" xlink:href="#m4b6b631c34" y="204.012206"/>
     <use style="fill-opacity:0.3;stroke:#000000;stroke-opacity:0.3;" x="384.53177" xlink:href="#m4b6b631c34" y="248.696551"/>
     <use style="fill-opacity:0.3;stroke:#000000;stroke-opacity:0.3;" x="382.759268" xlink:href="#m4b6b631c34" y="251.843846"/>
     <use style="fill-opacity:0.3;stroke:#000000;stroke-opacity:0.3;" x="376.894115" xlink:href="#m4b6b631c34" y="249.895104"/>
     <use style="fill-opacity:0.3;stroke:#000000;stroke-opacity:0.3;" x="304.584495" xlink:href="#m4b6b631c34" y="248.413915"/>
     <use style="fill-opacity:0.3;stroke:#000000;stroke-opacity:0.3;" x="334.191806" xlink:href="#m4b6b631c34" y="249.454488"/>
     <use style="fill-opacity:0.3;stroke:#000000;stroke-opacity:0.3;" x="332.575315" xlink:href="#m4b6b631c34" y="250.65763"/>
     <use style="fill-opacity:0.3;stroke:#000000;stroke-opacity:0.3;" x="54" xlink:href="#m4b6b631c34" y="251.903725"/>
     <use style="fill-opacity:0.3;stroke:#000000;stroke-opacity:0.3;" x="81.627304" xlink:href="#m4b6b631c34" y="239.046911"/>
     <use style="fill-opacity:0.3;stroke:#000000;stroke-opacity:0.3;" x="81.627304" xlink:href="#m4b6b631c34" y="239.046911"/>
     <use style="fill-opacity:0.3;stroke:#000000;stroke-opacity:0.3;" x="54" xlink:href="#m4b6b631c34" y="247.388761"/>
     <use style="fill-opacity:0.3;stroke:#000000;stroke-opacity:0.3;" x="339.261569" xlink:href="#m4b6b631c34" y="243.554923"/>
     <use style="fill-opacity:0.3;stroke:#000000;stroke-opacity:0.3;" x="362.250655" xlink:href="#m4b6b631c34" y="245.797508"/>
     <use style="fill-opacity:0.3;stroke:#000000;stroke-opacity:0.3;" x="182.283309" xlink:href="#m4b6b631c34" y="250.899342"/>
     <use style="fill-opacity:0.3;stroke:#000000;stroke-opacity:0.3;" x="122.068695" xlink:href="#m4b6b631c34" y="237.726584"/>
     <use style="fill-opacity:0.3;stroke:#000000;stroke-opacity:0.3;" x="54" xlink:href="#m4b6b631c34" y="204.012206"/>
     <use style="fill-opacity:0.3;stroke:#000000;stroke-opacity:0.3;" x="54" xlink:href="#m4b6b631c34" y="251.751343"/>
     <use style="fill-opacity:0.3;stroke:#000000;stroke-opacity:0.3;" x="155.071698" xlink:href="#m4b6b631c34" y="250.092185"/>
     <use style="fill-opacity:0.3;stroke:#000000;stroke-opacity:0.3;" x="54" xlink:href="#m4b6b631c34" y="251.780641"/>
     <use style="fill-opacity:0.3;stroke:#000000;stroke-opacity:0.3;" x="54" xlink:href="#m4b6b631c34" y="251.313604"/>
     <use style="fill-opacity:0.3;stroke:#000000;stroke-opacity:0.3;" x="361.168089" xlink:href="#m4b6b631c34" y="248.892414"/>
     <use style="fill-opacity:0.3;stroke:#000000;stroke-opacity:0.3;" x="314.309384" xlink:href="#m4b6b631c34" y="246.012055"/>
     <use style="fill-opacity:0.3;stroke:#000000;stroke-opacity:0.3;" x="313.062588" xlink:href="#m4b6b631c34" y="249.897751"/>
     <use style="fill-opacity:0.3;stroke:#000000;stroke-opacity:0.3;" x="253.551814" xlink:href="#m4b6b631c34" y="247.533934"/>
     <use style="fill-opacity:0.3;stroke:#000000;stroke-opacity:0.3;" x="92.337541" xlink:href="#m4b6b631c34" y="243.948081"/>
     <use style="fill-opacity:0.3;stroke:#000000;stroke-opacity:0.3;" x="378.793492" xlink:href="#m4b6b631c34" y="250.544822"/>
     <use style="fill-opacity:0.3;stroke:#000000;stroke-opacity:0.3;" x="165.178868" xlink:href="#m4b6b631c34" y="250.676426"/>
     <use style="fill-opacity:0.3;stroke:#000000;stroke-opacity:0.3;" x="146.649057" xlink:href="#m4b6b631c34" y="249.829901"/>
     <use style="fill-opacity:0.3;stroke:#000000;stroke-opacity:0.3;" x="297.203774" xlink:href="#m4b6b631c34" y="249.932747"/>
     <use style="fill-opacity:0.3;stroke:#000000;stroke-opacity:0.3;" x="358.358439" xlink:href="#m4b6b631c34" y="249.184289"/>
     <use style="fill-opacity:0.3;stroke:#000000;stroke-opacity:0.3;" x="54" xlink:href="#m4b6b631c34" y="246.042719"/>
     <use style="fill-opacity:0.3;stroke:#000000;stroke-opacity:0.3;" x="332.575315" xlink:href="#m4b6b631c34" y="249.610009"/>
     <use style="fill-opacity:0.3;stroke:#000000;stroke-opacity:0.3;" x="376.894115" xlink:href="#m4b6b631c34" y="249.895104"/>
     <use style="fill-opacity:0.3;stroke:#000000;stroke-opacity:0.3;" x="54" xlink:href="#m4b6b631c34" y="251.267643"/>
     <use style="fill-opacity:0.3;stroke:#000000;stroke-opacity:0.3;" x="99.37913" xlink:href="#m4b6b631c34" y="246.081145"/>
     <use style="fill-opacity:0.3;stroke:#000000;stroke-opacity:0.3;" x="137.384151" xlink:href="#m4b6b631c34" y="250.362425"/>
     <use style="fill-opacity:0.3;stroke:#000000;stroke-opacity:0.3;" x="54" xlink:href="#m4b6b631c34" y="249.918484"/>
     <use style="fill-opacity:0.3;stroke:#000000;stroke-opacity:0.3;" x="119.399334" xlink:href="#m4b6b631c34" y="250.412404"/>
     <use style="fill-opacity:0.3;stroke:#000000;stroke-opacity:0.3;" x="54" xlink:href="#m4b6b631c34" y="248.750329"/>
     <use style="fill-opacity:0.3;stroke:#000000;stroke-opacity:0.3;" x="234.089093" xlink:href="#m4b6b631c34" y="249.650835"/>
     <use style="fill-opacity:0.3;stroke:#000000;stroke-opacity:0.3;" x="54" xlink:href="#m4b6b631c34" y="247.498659"/>
     <use style="fill-opacity:0.3;stroke:#000000;stroke-opacity:0.3;" x="256.600229" xlink:href="#m4b6b631c34" y="251.241734"/>
     <use style="fill-opacity:0.3;stroke:#000000;stroke-opacity:0.3;" x="335.336769" xlink:href="#m4b6b631c34" y="248.391132"/>
     <use style="fill-opacity:0.3;stroke:#000000;stroke-opacity:0.3;" x="276.860252" xlink:href="#m4b6b631c34" y="250.627831"/>
     <use style="fill-opacity:0.3;stroke:#000000;stroke-opacity:0.3;" x="182.283309" xlink:href="#m4b6b631c34" y="251.517222"/>
     <use style="fill-opacity:0.3;stroke:#000000;stroke-opacity:0.3;" x="317.909434" xlink:href="#m4b6b631c34" y="248.646057"/>
     <use style="fill-opacity:0.3;stroke:#000000;stroke-opacity:0.3;" x="335.917844" xlink:href="#m4b6b631c34" y="248.118808"/>
     <use style="fill-opacity:0.3;stroke:#000000;stroke-opacity:0.3;" x="54" xlink:href="#m4b6b631c34" y="250.300622"/>
     <use style="fill-opacity:0.3;stroke:#000000;stroke-opacity:0.3;" x="90.468041" xlink:href="#m4b6b631c34" y="245.435253"/>
     <use style="fill-opacity:0.3;stroke:#000000;stroke-opacity:0.3;" x="331.94717" xlink:href="#m4b6b631c34" y="251.967269"/>
     <use style="fill-opacity:0.3;stroke:#000000;stroke-opacity:0.3;" x="322.445304" xlink:href="#m4b6b631c34" y="248.430388"/>
     <use style="fill-opacity:0.3;stroke:#000000;stroke-opacity:0.3;" x="360.497783" xlink:href="#m4b6b631c34" y="248.007244"/>
     <use style="fill-opacity:0.3;stroke:#000000;stroke-opacity:0.3;" x="192.973585" xlink:href="#m4b6b631c34" y="251.380413"/>
     <use style="fill-opacity:0.3;stroke:#000000;stroke-opacity:0.3;" x="324.133639" xlink:href="#m4b6b631c34" y="251.418647"/>
     <use style="fill-opacity:0.3;stroke:#000000;stroke-opacity:0.3;" x="339.261569" xlink:href="#m4b6b631c34" y="243.554923"/>
     <use style="fill-opacity:0.3;stroke:#000000;stroke-opacity:0.3;" x="54" xlink:href="#m4b6b631c34" y="232.58161"/>
     <use style="fill-opacity:0.3;stroke:#000000;stroke-opacity:0.3;" x="177.532075" xlink:href="#m4b6b631c34" y="250.658083"/>
     <use style="fill-opacity:0.3;stroke:#000000;stroke-opacity:0.3;" x="177.532075" xlink:href="#m4b6b631c34" y="250.959878"/>
     <use style="fill-opacity:0.3;stroke:#000000;stroke-opacity:0.3;" x="220.768302" xlink:href="#m4b6b631c34" y="251.405723"/>
     <use style="fill-opacity:0.3;stroke:#000000;stroke-opacity:0.3;" x="212.826954" xlink:href="#m4b6b631c34" y="251.206739"/>
     <use style="fill-opacity:0.3;stroke:#000000;stroke-opacity:0.3;" x="199.015915" xlink:href="#m4b6b631c34" y="250.040202"/>
     <use style="fill-opacity:0.3;stroke:#000000;stroke-opacity:0.3;" x="54" xlink:href="#m4b6b631c34" y="251.156172"/>
     <use style="fill-opacity:0.3;stroke:#000000;stroke-opacity:0.3;" x="54" xlink:href="#m4b6b631c34" y="251.751343"/>
     <use style="fill-opacity:0.3;stroke:#000000;stroke-opacity:0.3;" x="362.250655" xlink:href="#m4b6b631c34" y="245.797508"/>
     <use style="fill-opacity:0.3;stroke:#000000;stroke-opacity:0.3;" x="228.461308" xlink:href="#m4b6b631c34" y="248.932402"/>
     <use style="fill-opacity:0.3;stroke:#000000;stroke-opacity:0.3;" x="114.423298" xlink:href="#m4b6b631c34" y="245.797277"/>
     <use style="fill-opacity:0.3;stroke:#000000;stroke-opacity:0.3;" x="133.413477" xlink:href="#m4b6b631c34" y="250.803848"/>
     <use style="fill-opacity:0.3;stroke:#000000;stroke-opacity:0.3;" x="177.532075" xlink:href="#m4b6b631c34" y="250.571257"/>
     <use style="fill-opacity:0.3;stroke:#000000;stroke-opacity:0.3;" x="202.238491" xlink:href="#m4b6b631c34" y="249.745992"/>
     <use style="fill-opacity:0.3;stroke:#000000;stroke-opacity:0.3;" x="228.461308" xlink:href="#m4b6b631c34" y="248.932402"/>
     <use style="fill-opacity:0.3;stroke:#000000;stroke-opacity:0.3;" x="262.460377" xlink:href="#m4b6b631c34" y="249.285591"/>
     <use style="fill-opacity:0.3;stroke:#000000;stroke-opacity:0.3;" x="370.323943" xlink:href="#m4b6b631c34" y="247.613663"/>
     <use style="fill-opacity:0.3;stroke:#000000;stroke-opacity:0.3;" x="54" xlink:href="#m4b6b631c34" y="251.956294"/>
     <use style="fill-opacity:0.3;stroke:#000000;stroke-opacity:0.3;" x="280.43555" xlink:href="#m4b6b631c34" y="251.039406"/>
     <use style="fill-opacity:0.3;stroke:#000000;stroke-opacity:0.3;" x="111.88578" xlink:href="#m4b6b631c34" y="251.887483"/>
     <use style="fill-opacity:0.3;stroke:#000000;stroke-opacity:0.3;" x="256.600229" xlink:href="#m4b6b631c34" y="251.82187"/>
     <use style="fill-opacity:0.3;stroke:#000000;stroke-opacity:0.3;" x="313.417358" xlink:href="#m4b6b631c34" y="250.700623"/>
     <use style="fill-opacity:0.3;stroke:#000000;stroke-opacity:0.3;" x="205.607547" xlink:href="#m4b6b631c34" y="251.00836"/>
     <use style="fill-opacity:0.3;stroke:#000000;stroke-opacity:0.3;" x="54" xlink:href="#m4b6b631c34" y="251.350314"/>
     <use style="fill-opacity:0.3;stroke:#000000;stroke-opacity:0.3;" x="353.765645" xlink:href="#m4b6b631c34" y="247.213603"/>
     <use style="fill-opacity:0.3;stroke:#000000;stroke-opacity:0.3;" x="375.833565" xlink:href="#m4b6b631c34" y="248.200377"/>
     <use style="fill-opacity:0.3;stroke:#000000;stroke-opacity:0.3;" x="378.620003" xlink:href="#m4b6b631c34" y="249.039407"/>
     <use style="fill-opacity:0.3;stroke:#000000;stroke-opacity:0.3;" x="276.860252" xlink:href="#m4b6b631c34" y="250.433778"/>
     <use style="fill-opacity:0.3;stroke:#000000;stroke-opacity:0.3;" x="91.059623" xlink:href="#m4b6b631c34" y="243.828484"/>
     <use style="fill-opacity:0.3;stroke:#000000;stroke-opacity:0.3;" x="269.262744" xlink:href="#m4b6b631c34" y="250.55147"/>
     <use style="fill-opacity:0.3;stroke:#000000;stroke-opacity:0.3;" x="373.639245" xlink:href="#m4b6b631c34" y="248.282987"/>
     <use style="fill-opacity:0.3;stroke:#000000;stroke-opacity:0.3;" x="388.8" xlink:href="#m4b6b631c34" y="248.096109"/>
     <use style="fill-opacity:0.3;stroke:#000000;stroke-opacity:0.3;" x="99.37913" xlink:href="#m4b6b631c34" y="246.081145"/>
     <use style="fill-opacity:0.3;stroke:#000000;stroke-opacity:0.3;" x="229.327121" xlink:href="#m4b6b631c34" y="248.429197"/>
     <use style="fill-opacity:0.3;stroke:#000000;stroke-opacity:0.3;" x="368.753928" xlink:href="#m4b6b631c34" y="248.071543"/>
     <use style="fill-opacity:0.3;stroke:#000000;stroke-opacity:0.3;" x="384.266637" xlink:href="#m4b6b631c34" y="248.180284"/>
    </g>
   </g>
   <g id="matplotlib.axis_1">
    <g id="xtick_1">
     <g id="line2d_1">
      <defs>
       <path d="M 0 0 
L 0 3.5 
" id="mf72e14f569" style="stroke:#000000;stroke-width:0.8;"/>
      </defs>
      <g>
       <use style="stroke:#000000;stroke-width:0.8;" x="54" xlink:href="#mf72e14f569" y="252"/>
      </g>
     </g>
     <g id="text_1">
      <!-- 0.0 -->
      <defs>
       <path d="M 31.78125 66.40625 
Q 24.171875 66.40625 20.328125 58.90625 
Q 16.5 51.421875 16.5 36.375 
Q 16.5 21.390625 20.328125 13.890625 
Q 24.171875 6.390625 31.78125 6.390625 
Q 39.453125 6.390625 43.28125 13.890625 
Q 47.125 21.390625 47.125 36.375 
Q 47.125 51.421875 43.28125 58.90625 
Q 39.453125 66.40625 31.78125 66.40625 
z
M 31.78125 74.21875 
Q 44.046875 74.21875 50.515625 64.515625 
Q 56.984375 54.828125 56.984375 36.375 
Q 56.984375 17.96875 50.515625 8.265625 
Q 44.046875 -1.421875 31.78125 -1.421875 
Q 19.53125 -1.421875 13.0625 8.265625 
Q 6.59375 17.96875 6.59375 36.375 
Q 6.59375 54.828125 13.0625 64.515625 
Q 19.53125 74.21875 31.78125 74.21875 
z
" id="DejaVuSans-30"/>
       <path d="M 10.6875 12.40625 
L 21 12.40625 
L 21 0 
L 10.6875 0 
z
" id="DejaVuSans-2e"/>
      </defs>
      <g transform="translate(46.048437 266.598437)scale(0.1 -0.1)">
       <use xlink:href="#DejaVuSans-30"/>
       <use x="63.623047" xlink:href="#DejaVuSans-2e"/>
       <use x="95.410156" xlink:href="#DejaVuSans-30"/>
      </g>
     </g>
    </g>
    <g id="xtick_2">
     <g id="line2d_2">
      <g>
       <use style="stroke:#000000;stroke-width:0.8;" x="121.119094" xlink:href="#mf72e14f569" y="252"/>
      </g>
     </g>
     <g id="text_2">
      <!-- 0.2 -->
      <defs>
       <path d="M 19.1875 8.296875 
L 53.609375 8.296875 
L 53.609375 0 
L 7.328125 0 
L 7.328125 8.296875 
Q 12.9375 14.109375 22.625 23.890625 
Q 32.328125 33.6875 34.8125 36.53125 
Q 39.546875 41.84375 41.421875 45.53125 
Q 43.3125 49.21875 43.3125 52.78125 
Q 43.3125 58.59375 39.234375 62.25 
Q 35.15625 65.921875 28.609375 65.921875 
Q 23.96875 65.921875 18.8125 64.3125 
Q 13.671875 62.703125 7.8125 59.421875 
L 7.8125 69.390625 
Q 13.765625 71.78125 18.9375 73 
Q 24.125 74.21875 28.421875 74.21875 
Q 39.75 74.21875 46.484375 68.546875 
Q 53.21875 62.890625 53.21875 53.421875 
Q 53.21875 48.921875 51.53125 44.890625 
Q 49.859375 40.875 45.40625 35.40625 
Q 44.1875 33.984375 37.640625 27.21875 
Q 31.109375 20.453125 19.1875 8.296875 
z
" id="DejaVuSans-32"/>
      </defs>
      <g transform="translate(113.167532 266.598437)scale(0.1 -0.1)">
       <use xlink:href="#DejaVuSans-30"/>
       <use x="63.623047" xlink:href="#DejaVuSans-2e"/>
       <use x="95.410156" xlink:href="#DejaVuSans-32"/>
      </g>
     </g>
    </g>
    <g id="xtick_3">
     <g id="line2d_3">
      <g>
       <use style="stroke:#000000;stroke-width:0.8;" x="188.238189" xlink:href="#mf72e14f569" y="252"/>
      </g>
     </g>
     <g id="text_3">
      <!-- 0.4 -->
      <defs>
       <path d="M 37.796875 64.3125 
L 12.890625 25.390625 
L 37.796875 25.390625 
z
M 35.203125 72.90625 
L 47.609375 72.90625 
L 47.609375 25.390625 
L 58.015625 25.390625 
L 58.015625 17.1875 
L 47.609375 17.1875 
L 47.609375 0 
L 37.796875 0 
L 37.796875 17.1875 
L 4.890625 17.1875 
L 4.890625 26.703125 
z
" id="DejaVuSans-34"/>
      </defs>
      <g transform="translate(180.286626 266.598437)scale(0.1 -0.1)">
       <use xlink:href="#DejaVuSans-30"/>
       <use x="63.623047" xlink:href="#DejaVuSans-2e"/>
       <use x="95.410156" xlink:href="#DejaVuSans-34"/>
      </g>
     </g>
    </g>
    <g id="xtick_4">
     <g id="line2d_4">
      <g>
       <use style="stroke:#000000;stroke-width:0.8;" x="255.357283" xlink:href="#mf72e14f569" y="252"/>
      </g>
     </g>
     <g id="text_4">
      <!-- 0.6 -->
      <defs>
       <path d="M 33.015625 40.375 
Q 26.375 40.375 22.484375 35.828125 
Q 18.609375 31.296875 18.609375 23.390625 
Q 18.609375 15.53125 22.484375 10.953125 
Q 26.375 6.390625 33.015625 6.390625 
Q 39.65625 6.390625 43.53125 10.953125 
Q 47.40625 15.53125 47.40625 23.390625 
Q 47.40625 31.296875 43.53125 35.828125 
Q 39.65625 40.375 33.015625 40.375 
z
M 52.59375 71.296875 
L 52.59375 62.3125 
Q 48.875 64.0625 45.09375 64.984375 
Q 41.3125 65.921875 37.59375 65.921875 
Q 27.828125 65.921875 22.671875 59.328125 
Q 17.53125 52.734375 16.796875 39.40625 
Q 19.671875 43.65625 24.015625 45.921875 
Q 28.375 48.1875 33.59375 48.1875 
Q 44.578125 48.1875 50.953125 41.515625 
Q 57.328125 34.859375 57.328125 23.390625 
Q 57.328125 12.15625 50.6875 5.359375 
Q 44.046875 -1.421875 33.015625 -1.421875 
Q 20.359375 -1.421875 13.671875 8.265625 
Q 6.984375 17.96875 6.984375 36.375 
Q 6.984375 53.65625 15.1875 63.9375 
Q 23.390625 74.21875 37.203125 74.21875 
Q 40.921875 74.21875 44.703125 73.484375 
Q 48.484375 72.75 52.59375 71.296875 
z
" id="DejaVuSans-36"/>
      </defs>
      <g transform="translate(247.405721 266.598437)scale(0.1 -0.1)">
       <use xlink:href="#DejaVuSans-30"/>
       <use x="63.623047" xlink:href="#DejaVuSans-2e"/>
       <use x="95.410156" xlink:href="#DejaVuSans-36"/>
      </g>
     </g>
    </g>
    <g id="xtick_5">
     <g id="line2d_5">
      <g>
       <use style="stroke:#000000;stroke-width:0.8;" x="322.476377" xlink:href="#mf72e14f569" y="252"/>
      </g>
     </g>
     <g id="text_5">
      <!-- 0.8 -->
      <defs>
       <path d="M 31.78125 34.625 
Q 24.75 34.625 20.71875 30.859375 
Q 16.703125 27.09375 16.703125 20.515625 
Q 16.703125 13.921875 20.71875 10.15625 
Q 24.75 6.390625 31.78125 6.390625 
Q 38.8125 6.390625 42.859375 10.171875 
Q 46.921875 13.96875 46.921875 20.515625 
Q 46.921875 27.09375 42.890625 30.859375 
Q 38.875 34.625 31.78125 34.625 
z
M 21.921875 38.8125 
Q 15.578125 40.375 12.03125 44.71875 
Q 8.5 49.078125 8.5 55.328125 
Q 8.5 64.0625 14.71875 69.140625 
Q 20.953125 74.21875 31.78125 74.21875 
Q 42.671875 74.21875 48.875 69.140625 
Q 55.078125 64.0625 55.078125 55.328125 
Q 55.078125 49.078125 51.53125 44.71875 
Q 48 40.375 41.703125 38.8125 
Q 48.828125 37.15625 52.796875 32.3125 
Q 56.78125 27.484375 56.78125 20.515625 
Q 56.78125 9.90625 50.3125 4.234375 
Q 43.84375 -1.421875 31.78125 -1.421875 
Q 19.734375 -1.421875 13.25 4.234375 
Q 6.78125 9.90625 6.78125 20.515625 
Q 6.78125 27.484375 10.78125 32.3125 
Q 14.796875 37.15625 21.921875 38.8125 
z
M 18.3125 54.390625 
Q 18.3125 48.734375 21.84375 45.5625 
Q 25.390625 42.390625 31.78125 42.390625 
Q 38.140625 42.390625 41.71875 45.5625 
Q 45.3125 48.734375 45.3125 54.390625 
Q 45.3125 60.0625 41.71875 63.234375 
Q 38.140625 66.40625 31.78125 66.40625 
Q 25.390625 66.40625 21.84375 63.234375 
Q 18.3125 60.0625 18.3125 54.390625 
z
" id="DejaVuSans-38"/>
      </defs>
      <g transform="translate(314.524815 266.598437)scale(0.1 -0.1)">
       <use xlink:href="#DejaVuSans-30"/>
       <use x="63.623047" xlink:href="#DejaVuSans-2e"/>
       <use x="95.410156" xlink:href="#DejaVuSans-38"/>
      </g>
     </g>
    </g>
    <g id="text_6">
     <!-- fractional ratio -->
     <defs>
      <path d="M 37.109375 75.984375 
L 37.109375 68.5 
L 28.515625 68.5 
Q 23.6875 68.5 21.796875 66.546875 
Q 19.921875 64.59375 19.921875 59.515625 
L 19.921875 54.6875 
L 34.71875 54.6875 
L 34.71875 47.703125 
L 19.921875 47.703125 
L 19.921875 0 
L 10.890625 0 
L 10.890625 47.703125 
L 2.296875 47.703125 
L 2.296875 54.6875 
L 10.890625 54.6875 
L 10.890625 58.5 
Q 10.890625 67.625 15.140625 71.796875 
Q 19.390625 75.984375 28.609375 75.984375 
z
" id="DejaVuSans-66"/>
      <path d="M 41.109375 46.296875 
Q 39.59375 47.171875 37.8125 47.578125 
Q 36.03125 48 33.890625 48 
Q 26.265625 48 22.1875 43.046875 
Q 18.109375 38.09375 18.109375 28.8125 
L 18.109375 0 
L 9.078125 0 
L 9.078125 54.6875 
L 18.109375 54.6875 
L 18.109375 46.1875 
Q 20.953125 51.171875 25.484375 53.578125 
Q 30.03125 56 36.53125 56 
Q 37.453125 56 38.578125 55.875 
Q 39.703125 55.765625 41.0625 55.515625 
z
" id="DejaVuSans-72"/>
      <path d="M 34.28125 27.484375 
Q 23.390625 27.484375 19.1875 25 
Q 14.984375 22.515625 14.984375 16.5 
Q 14.984375 11.71875 18.140625 8.90625 
Q 21.296875 6.109375 26.703125 6.109375 
Q 34.1875 6.109375 38.703125 11.40625 
Q 43.21875 16.703125 43.21875 25.484375 
L 43.21875 27.484375 
z
M 52.203125 31.203125 
L 52.203125 0 
L 43.21875 0 
L 43.21875 8.296875 
Q 40.140625 3.328125 35.546875 0.953125 
Q 30.953125 -1.421875 24.3125 -1.421875 
Q 15.921875 -1.421875 10.953125 3.296875 
Q 6 8.015625 6 15.921875 
Q 6 25.140625 12.171875 29.828125 
Q 18.359375 34.515625 30.609375 34.515625 
L 43.21875 34.515625 
L 43.21875 35.40625 
Q 43.21875 41.609375 39.140625 45 
Q 35.0625 48.390625 27.6875 48.390625 
Q 23 48.390625 18.546875 47.265625 
Q 14.109375 46.140625 10.015625 43.890625 
L 10.015625 52.203125 
Q 14.9375 54.109375 19.578125 55.046875 
Q 24.21875 56 28.609375 56 
Q 40.484375 56 46.34375 49.84375 
Q 52.203125 43.703125 52.203125 31.203125 
z
" id="DejaVuSans-61"/>
      <path d="M 48.78125 52.59375 
L 48.78125 44.1875 
Q 44.96875 46.296875 41.140625 47.34375 
Q 37.3125 48.390625 33.40625 48.390625 
Q 24.65625 48.390625 19.8125 42.84375 
Q 14.984375 37.3125 14.984375 27.296875 
Q 14.984375 17.28125 19.8125 11.734375 
Q 24.65625 6.203125 33.40625 6.203125 
Q 37.3125 6.203125 41.140625 7.25 
Q 44.96875 8.296875 48.78125 10.40625 
L 48.78125 2.09375 
Q 45.015625 0.34375 40.984375 -0.53125 
Q 36.96875 -1.421875 32.421875 -1.421875 
Q 20.0625 -1.421875 12.78125 6.34375 
Q 5.515625 14.109375 5.515625 27.296875 
Q 5.515625 40.671875 12.859375 48.328125 
Q 20.21875 56 33.015625 56 
Q 37.15625 56 41.109375 55.140625 
Q 45.0625 54.296875 48.78125 52.59375 
z
" id="DejaVuSans-63"/>
      <path d="M 18.3125 70.21875 
L 18.3125 54.6875 
L 36.8125 54.6875 
L 36.8125 47.703125 
L 18.3125 47.703125 
L 18.3125 18.015625 
Q 18.3125 11.328125 20.140625 9.421875 
Q 21.96875 7.515625 27.59375 7.515625 
L 36.8125 7.515625 
L 36.8125 0 
L 27.59375 0 
Q 17.1875 0 13.234375 3.875 
Q 9.28125 7.765625 9.28125 18.015625 
L 9.28125 47.703125 
L 2.6875 47.703125 
L 2.6875 54.6875 
L 9.28125 54.6875 
L 9.28125 70.21875 
z
" id="DejaVuSans-74"/>
      <path d="M 9.421875 54.6875 
L 18.40625 54.6875 
L 18.40625 0 
L 9.421875 0 
z
M 9.421875 75.984375 
L 18.40625 75.984375 
L 18.40625 64.59375 
L 9.421875 64.59375 
z
" id="DejaVuSans-69"/>
      <path d="M 30.609375 48.390625 
Q 23.390625 48.390625 19.1875 42.75 
Q 14.984375 37.109375 14.984375 27.296875 
Q 14.984375 17.484375 19.15625 11.84375 
Q 23.34375 6.203125 30.609375 6.203125 
Q 37.796875 6.203125 41.984375 11.859375 
Q 46.1875 17.53125 46.1875 27.296875 
Q 46.1875 37.015625 41.984375 42.703125 
Q 37.796875 48.390625 30.609375 48.390625 
z
M 30.609375 56 
Q 42.328125 56 49.015625 48.375 
Q 55.71875 40.765625 55.71875 27.296875 
Q 55.71875 13.875 49.015625 6.21875 
Q 42.328125 -1.421875 30.609375 -1.421875 
Q 18.84375 -1.421875 12.171875 6.21875 
Q 5.515625 13.875 5.515625 27.296875 
Q 5.515625 40.765625 12.171875 48.375 
Q 18.84375 56 30.609375 56 
z
" id="DejaVuSans-6f"/>
      <path d="M 54.890625 33.015625 
L 54.890625 0 
L 45.90625 0 
L 45.90625 32.71875 
Q 45.90625 40.484375 42.875 44.328125 
Q 39.84375 48.1875 33.796875 48.1875 
Q 26.515625 48.1875 22.3125 43.546875 
Q 18.109375 38.921875 18.109375 30.90625 
L 18.109375 0 
L 9.078125 0 
L 9.078125 54.6875 
L 18.109375 54.6875 
L 18.109375 46.1875 
Q 21.34375 51.125 25.703125 53.5625 
Q 30.078125 56 35.796875 56 
Q 45.21875 56 50.046875 50.171875 
Q 54.890625 44.34375 54.890625 33.015625 
z
" id="DejaVuSans-6e"/>
      <path d="M 9.421875 75.984375 
L 18.40625 75.984375 
L 18.40625 0 
L 9.421875 0 
z
" id="DejaVuSans-6c"/>
      <path id="DejaVuSans-20"/>
     </defs>
     <g transform="translate(184.623437 280.276563)scale(0.1 -0.1)">
      <use xlink:href="#DejaVuSans-66"/>
      <use x="35.205078" xlink:href="#DejaVuSans-72"/>
      <use x="76.318359" xlink:href="#DejaVuSans-61"/>
      <use x="137.597656" xlink:href="#DejaVuSans-63"/>
      <use x="192.578125" xlink:href="#DejaVuSans-74"/>
      <use x="231.787109" xlink:href="#DejaVuSans-69"/>
      <use x="259.570312" xlink:href="#DejaVuSans-6f"/>
      <use x="320.751953" xlink:href="#DejaVuSans-6e"/>
      <use x="384.130859" xlink:href="#DejaVuSans-61"/>
      <use x="445.410156" xlink:href="#DejaVuSans-6c"/>
      <use x="473.193359" xlink:href="#DejaVuSans-20"/>
      <use x="504.980469" xlink:href="#DejaVuSans-72"/>
      <use x="546.09375" xlink:href="#DejaVuSans-61"/>
      <use x="607.373047" xlink:href="#DejaVuSans-74"/>
      <use x="646.582031" xlink:href="#DejaVuSans-69"/>
      <use x="674.365234" xlink:href="#DejaVuSans-6f"/>
     </g>
    </g>
   </g>
   <g id="matplotlib.axis_2">
    <g id="ytick_1">
     <g id="line2d_6">
      <defs>
       <path d="M 0 0 
L -3.5 0 
" id="m868165f780" style="stroke:#000000;stroke-width:0.8;"/>
      </defs>
      <g>
       <use style="stroke:#000000;stroke-width:0.8;" x="54" xlink:href="#m868165f780" y="252"/>
      </g>
     </g>
     <g id="text_7">
      <!-- 0.00 -->
      <g transform="translate(24.734375 255.799219)scale(0.1 -0.1)">
       <use xlink:href="#DejaVuSans-30"/>
       <use x="63.623047" xlink:href="#DejaVuSans-2e"/>
       <use x="95.410156" xlink:href="#DejaVuSans-30"/>
       <use x="159.033203" xlink:href="#DejaVuSans-30"/>
      </g>
     </g>
    </g>
    <g id="ytick_2">
     <g id="line2d_7">
      <g>
       <use style="stroke:#000000;stroke-width:0.8;" x="54" xlink:href="#m868165f780" y="216.740043"/>
      </g>
     </g>
     <g id="text_8">
      <!-- 0.05 -->
      <defs>
       <path d="M 10.796875 72.90625 
L 49.515625 72.90625 
L 49.515625 64.59375 
L 19.828125 64.59375 
L 19.828125 46.734375 
Q 21.96875 47.46875 24.109375 47.828125 
Q 26.265625 48.1875 28.421875 48.1875 
Q 40.625 48.1875 47.75 41.5 
Q 54.890625 34.8125 54.890625 23.390625 
Q 54.890625 11.625 47.5625 5.09375 
Q 40.234375 -1.421875 26.90625 -1.421875 
Q 22.3125 -1.421875 17.546875 -0.640625 
Q 12.796875 0.140625 7.71875 1.703125 
L 7.71875 11.625 
Q 12.109375 9.234375 16.796875 8.0625 
Q 21.484375 6.890625 26.703125 6.890625 
Q 35.15625 6.890625 40.078125 11.328125 
Q 45.015625 15.765625 45.015625 23.390625 
Q 45.015625 31 40.078125 35.4375 
Q 35.15625 39.890625 26.703125 39.890625 
Q 22.75 39.890625 18.8125 39.015625 
Q 14.890625 38.140625 10.796875 36.28125 
z
" id="DejaVuSans-35"/>
      </defs>
      <g transform="translate(24.734375 220.539262)scale(0.1 -0.1)">
       <use xlink:href="#DejaVuSans-30"/>
       <use x="63.623047" xlink:href="#DejaVuSans-2e"/>
       <use x="95.410156" xlink:href="#DejaVuSans-30"/>
       <use x="159.033203" xlink:href="#DejaVuSans-35"/>
      </g>
     </g>
    </g>
    <g id="ytick_3">
     <g id="line2d_8">
      <g>
       <use style="stroke:#000000;stroke-width:0.8;" x="54" xlink:href="#m868165f780" y="181.480086"/>
      </g>
     </g>
     <g id="text_9">
      <!-- 0.10 -->
      <defs>
       <path d="M 12.40625 8.296875 
L 28.515625 8.296875 
L 28.515625 63.921875 
L 10.984375 60.40625 
L 10.984375 69.390625 
L 28.421875 72.90625 
L 38.28125 72.90625 
L 38.28125 8.296875 
L 54.390625 8.296875 
L 54.390625 0 
L 12.40625 0 
z
" id="DejaVuSans-31"/>
      </defs>
      <g transform="translate(24.734375 185.279305)scale(0.1 -0.1)">
       <use xlink:href="#DejaVuSans-30"/>
       <use x="63.623047" xlink:href="#DejaVuSans-2e"/>
       <use x="95.410156" xlink:href="#DejaVuSans-31"/>
       <use x="159.033203" xlink:href="#DejaVuSans-30"/>
      </g>
     </g>
    </g>
    <g id="ytick_4">
     <g id="line2d_9">
      <g>
       <use style="stroke:#000000;stroke-width:0.8;" x="54" xlink:href="#m868165f780" y="146.22013"/>
      </g>
     </g>
     <g id="text_10">
      <!-- 0.15 -->
      <g transform="translate(24.734375 150.019348)scale(0.1 -0.1)">
       <use xlink:href="#DejaVuSans-30"/>
       <use x="63.623047" xlink:href="#DejaVuSans-2e"/>
       <use x="95.410156" xlink:href="#DejaVuSans-31"/>
       <use x="159.033203" xlink:href="#DejaVuSans-35"/>
      </g>
     </g>
    </g>
    <g id="ytick_5">
     <g id="line2d_10">
      <g>
       <use style="stroke:#000000;stroke-width:0.8;" x="54" xlink:href="#m868165f780" y="110.960173"/>
      </g>
     </g>
     <g id="text_11">
      <!-- 0.20 -->
      <g transform="translate(24.734375 114.759392)scale(0.1 -0.1)">
       <use xlink:href="#DejaVuSans-30"/>
       <use x="63.623047" xlink:href="#DejaVuSans-2e"/>
       <use x="95.410156" xlink:href="#DejaVuSans-32"/>
       <use x="159.033203" xlink:href="#DejaVuSans-30"/>
      </g>
     </g>
    </g>
    <g id="ytick_6">
     <g id="line2d_11">
      <g>
       <use style="stroke:#000000;stroke-width:0.8;" x="54" xlink:href="#m868165f780" y="75.700216"/>
      </g>
     </g>
     <g id="text_12">
      <!-- 0.25 -->
      <g transform="translate(24.734375 79.499435)scale(0.1 -0.1)">
       <use xlink:href="#DejaVuSans-30"/>
       <use x="63.623047" xlink:href="#DejaVuSans-2e"/>
       <use x="95.410156" xlink:href="#DejaVuSans-32"/>
       <use x="159.033203" xlink:href="#DejaVuSans-35"/>
      </g>
     </g>
    </g>
    <g id="ytick_7">
     <g id="line2d_12">
      <g>
       <use style="stroke:#000000;stroke-width:0.8;" x="54" xlink:href="#m868165f780" y="40.440259"/>
      </g>
     </g>
     <g id="text_13">
      <!-- 0.30 -->
      <defs>
       <path d="M 40.578125 39.3125 
Q 47.65625 37.796875 51.625 33 
Q 55.609375 28.21875 55.609375 21.1875 
Q 55.609375 10.40625 48.1875 4.484375 
Q 40.765625 -1.421875 27.09375 -1.421875 
Q 22.515625 -1.421875 17.65625 -0.515625 
Q 12.796875 0.390625 7.625 2.203125 
L 7.625 11.71875 
Q 11.71875 9.328125 16.59375 8.109375 
Q 21.484375 6.890625 26.8125 6.890625 
Q 36.078125 6.890625 40.9375 10.546875 
Q 45.796875 14.203125 45.796875 21.1875 
Q 45.796875 27.640625 41.28125 31.265625 
Q 36.765625 34.90625 28.71875 34.90625 
L 20.21875 34.90625 
L 20.21875 43.015625 
L 29.109375 43.015625 
Q 36.375 43.015625 40.234375 45.921875 
Q 44.09375 48.828125 44.09375 54.296875 
Q 44.09375 59.90625 40.109375 62.90625 
Q 36.140625 65.921875 28.71875 65.921875 
Q 24.65625 65.921875 20.015625 65.03125 
Q 15.375 64.15625 9.8125 62.3125 
L 9.8125 71.09375 
Q 15.4375 72.65625 20.34375 73.4375 
Q 25.25 74.21875 29.59375 74.21875 
Q 40.828125 74.21875 47.359375 69.109375 
Q 53.90625 64.015625 53.90625 55.328125 
Q 53.90625 49.265625 50.4375 45.09375 
Q 46.96875 40.921875 40.578125 39.3125 
z
" id="DejaVuSans-33"/>
      </defs>
      <g transform="translate(24.734375 44.239478)scale(0.1 -0.1)">
       <use xlink:href="#DejaVuSans-30"/>
       <use x="63.623047" xlink:href="#DejaVuSans-2e"/>
       <use x="95.410156" xlink:href="#DejaVuSans-33"/>
       <use x="159.033203" xlink:href="#DejaVuSans-30"/>
      </g>
     </g>
    </g>
    <g id="text_14">
     <!-- fractional importance -->
     <defs>
      <path d="M 52 44.1875 
Q 55.375 50.25 60.0625 53.125 
Q 64.75 56 71.09375 56 
Q 79.640625 56 84.28125 50.015625 
Q 88.921875 44.046875 88.921875 33.015625 
L 88.921875 0 
L 79.890625 0 
L 79.890625 32.71875 
Q 79.890625 40.578125 77.09375 44.375 
Q 74.3125 48.1875 68.609375 48.1875 
Q 61.625 48.1875 57.5625 43.546875 
Q 53.515625 38.921875 53.515625 30.90625 
L 53.515625 0 
L 44.484375 0 
L 44.484375 32.71875 
Q 44.484375 40.625 41.703125 44.40625 
Q 38.921875 48.1875 33.109375 48.1875 
Q 26.21875 48.1875 22.15625 43.53125 
Q 18.109375 38.875 18.109375 30.90625 
L 18.109375 0 
L 9.078125 0 
L 9.078125 54.6875 
L 18.109375 54.6875 
L 18.109375 46.1875 
Q 21.1875 51.21875 25.484375 53.609375 
Q 29.78125 56 35.6875 56 
Q 41.65625 56 45.828125 52.96875 
Q 50 49.953125 52 44.1875 
z
" id="DejaVuSans-6d"/>
      <path d="M 18.109375 8.203125 
L 18.109375 -20.796875 
L 9.078125 -20.796875 
L 9.078125 54.6875 
L 18.109375 54.6875 
L 18.109375 46.390625 
Q 20.953125 51.265625 25.265625 53.625 
Q 29.59375 56 35.59375 56 
Q 45.5625 56 51.78125 48.09375 
Q 58.015625 40.1875 58.015625 27.296875 
Q 58.015625 14.40625 51.78125 6.484375 
Q 45.5625 -1.421875 35.59375 -1.421875 
Q 29.59375 -1.421875 25.265625 0.953125 
Q 20.953125 3.328125 18.109375 8.203125 
z
M 48.6875 27.296875 
Q 48.6875 37.203125 44.609375 42.84375 
Q 40.53125 48.484375 33.40625 48.484375 
Q 26.265625 48.484375 22.1875 42.84375 
Q 18.109375 37.203125 18.109375 27.296875 
Q 18.109375 17.390625 22.1875 11.75 
Q 26.265625 6.109375 33.40625 6.109375 
Q 40.53125 6.109375 44.609375 11.75 
Q 48.6875 17.390625 48.6875 27.296875 
z
" id="DejaVuSans-70"/>
      <path d="M 56.203125 29.59375 
L 56.203125 25.203125 
L 14.890625 25.203125 
Q 15.484375 15.921875 20.484375 11.0625 
Q 25.484375 6.203125 34.421875 6.203125 
Q 39.59375 6.203125 44.453125 7.46875 
Q 49.3125 8.734375 54.109375 11.28125 
L 54.109375 2.78125 
Q 49.265625 0.734375 44.1875 -0.34375 
Q 39.109375 -1.421875 33.890625 -1.421875 
Q 20.796875 -1.421875 13.15625 6.1875 
Q 5.515625 13.8125 5.515625 26.8125 
Q 5.515625 40.234375 12.765625 48.109375 
Q 20.015625 56 32.328125 56 
Q 43.359375 56 49.78125 48.890625 
Q 56.203125 41.796875 56.203125 29.59375 
z
M 47.21875 32.234375 
Q 47.125 39.59375 43.09375 43.984375 
Q 39.0625 48.390625 32.421875 48.390625 
Q 24.90625 48.390625 20.390625 44.140625 
Q 15.875 39.890625 15.1875 32.171875 
z
" id="DejaVuSans-65"/>
     </defs>
     <g transform="translate(18.654687 197.095625)rotate(-90)scale(0.1 -0.1)">
      <use xlink:href="#DejaVuSans-66"/>
      <use x="35.205078" xlink:href="#DejaVuSans-72"/>
      <use x="76.318359" xlink:href="#DejaVuSans-61"/>
      <use x="137.597656" xlink:href="#DejaVuSans-63"/>
      <use x="192.578125" xlink:href="#DejaVuSans-74"/>
      <use x="231.787109" xlink:href="#DejaVuSans-69"/>
      <use x="259.570312" xlink:href="#DejaVuSans-6f"/>
      <use x="320.751953" xlink:href="#DejaVuSans-6e"/>
      <use x="384.130859" xlink:href="#DejaVuSans-61"/>
      <use x="445.410156" xlink:href="#DejaVuSans-6c"/>
      <use x="473.193359" xlink:href="#DejaVuSans-20"/>
      <use x="504.980469" xlink:href="#DejaVuSans-69"/>
      <use x="532.763672" xlink:href="#DejaVuSans-6d"/>
      <use x="630.175781" xlink:href="#DejaVuSans-70"/>
      <use x="693.652344" xlink:href="#DejaVuSans-6f"/>
      <use x="754.833984" xlink:href="#DejaVuSans-72"/>
      <use x="795.947266" xlink:href="#DejaVuSans-74"/>
      <use x="835.15625" xlink:href="#DejaVuSans-61"/>
      <use x="896.435547" xlink:href="#DejaVuSans-6e"/>
      <use x="959.814453" xlink:href="#DejaVuSans-63"/>
      <use x="1014.794922" xlink:href="#DejaVuSans-65"/>
     </g>
    </g>
   </g>
   <g id="patch_3">
    <path d="M 54 252 
L 54 34.56 
" style="fill:none;stroke:#000000;stroke-linecap:square;stroke-linejoin:miter;stroke-width:0.8;"/>
   </g>
   <g id="patch_4">
    <path d="M 388.8 252 
L 388.8 34.56 
" style="fill:none;stroke:#000000;stroke-linecap:square;stroke-linejoin:miter;stroke-width:0.8;"/>
   </g>
   <g id="patch_5">
    <path d="M 54 252 
L 388.8 252 
" style="fill:none;stroke:#000000;stroke-linecap:square;stroke-linejoin:miter;stroke-width:0.8;"/>
   </g>
   <g id="patch_6">
    <path d="M 54 34.56 
L 388.8 34.56 
" style="fill:none;stroke:#000000;stroke-linecap:square;stroke-linejoin:miter;stroke-width:0.8;"/>
   </g>
   <g id="text_15">
    <!-- Pseudomonas putida -->
    <defs>
     <path d="M 19.671875 64.796875 
L 19.671875 37.40625 
L 32.078125 37.40625 
Q 38.96875 37.40625 42.71875 40.96875 
Q 46.484375 44.53125 46.484375 51.125 
Q 46.484375 57.671875 42.71875 61.234375 
Q 38.96875 64.796875 32.078125 64.796875 
z
M 9.8125 72.90625 
L 32.078125 72.90625 
Q 44.34375 72.90625 50.609375 67.359375 
Q 56.890625 61.8125 56.890625 51.125 
Q 56.890625 40.328125 50.609375 34.8125 
Q 44.34375 29.296875 32.078125 29.296875 
L 19.671875 29.296875 
L 19.671875 0 
L 9.8125 0 
z
" id="DejaVuSans-50"/>
     <path d="M 44.28125 53.078125 
L 44.28125 44.578125 
Q 40.484375 46.53125 36.375 47.5 
Q 32.28125 48.484375 27.875 48.484375 
Q 21.1875 48.484375 17.84375 46.4375 
Q 14.5 44.390625 14.5 40.28125 
Q 14.5 37.15625 16.890625 35.375 
Q 19.28125 33.59375 26.515625 31.984375 
L 29.59375 31.296875 
Q 39.15625 29.25 43.1875 25.515625 
Q 47.21875 21.78125 47.21875 15.09375 
Q 47.21875 7.46875 41.1875 3.015625 
Q 35.15625 -1.421875 24.609375 -1.421875 
Q 20.21875 -1.421875 15.453125 -0.5625 
Q 10.6875 0.296875 5.421875 2 
L 5.421875 11.28125 
Q 10.40625 8.6875 15.234375 7.390625 
Q 20.0625 6.109375 24.8125 6.109375 
Q 31.15625 6.109375 34.5625 8.28125 
Q 37.984375 10.453125 37.984375 14.40625 
Q 37.984375 18.0625 35.515625 20.015625 
Q 33.0625 21.96875 24.703125 23.78125 
L 21.578125 24.515625 
Q 13.234375 26.265625 9.515625 29.90625 
Q 5.8125 33.546875 5.8125 39.890625 
Q 5.8125 47.609375 11.28125 51.796875 
Q 16.75 56 26.8125 56 
Q 31.78125 56 36.171875 55.265625 
Q 40.578125 54.546875 44.28125 53.078125 
z
" id="DejaVuSans-73"/>
     <path d="M 8.5 21.578125 
L 8.5 54.6875 
L 17.484375 54.6875 
L 17.484375 21.921875 
Q 17.484375 14.15625 20.5 10.265625 
Q 23.53125 6.390625 29.59375 6.390625 
Q 36.859375 6.390625 41.078125 11.03125 
Q 45.3125 15.671875 45.3125 23.6875 
L 45.3125 54.6875 
L 54.296875 54.6875 
L 54.296875 0 
L 45.3125 0 
L 45.3125 8.40625 
Q 42.046875 3.421875 37.71875 1 
Q 33.40625 -1.421875 27.6875 -1.421875 
Q 18.265625 -1.421875 13.375 4.4375 
Q 8.5 10.296875 8.5 21.578125 
z
M 31.109375 56 
z
" id="DejaVuSans-75"/>
     <path d="M 45.40625 46.390625 
L 45.40625 75.984375 
L 54.390625 75.984375 
L 54.390625 0 
L 45.40625 0 
L 45.40625 8.203125 
Q 42.578125 3.328125 38.25 0.953125 
Q 33.9375 -1.421875 27.875 -1.421875 
Q 17.96875 -1.421875 11.734375 6.484375 
Q 5.515625 14.40625 5.515625 27.296875 
Q 5.515625 40.1875 11.734375 48.09375 
Q 17.96875 56 27.875 56 
Q 33.9375 56 38.25 53.625 
Q 42.578125 51.265625 45.40625 46.390625 
z
M 14.796875 27.296875 
Q 14.796875 17.390625 18.875 11.75 
Q 22.953125 6.109375 30.078125 6.109375 
Q 37.203125 6.109375 41.296875 11.75 
Q 45.40625 17.390625 45.40625 27.296875 
Q 45.40625 37.203125 41.296875 42.84375 
Q 37.203125 48.484375 30.078125 48.484375 
Q 22.953125 48.484375 18.875 42.84375 
Q 14.796875 37.203125 14.796875 27.296875 
z
" id="DejaVuSans-64"/>
    </defs>
    <g transform="translate(158.53875 28.56)scale(0.12 -0.12)">
     <use xlink:href="#DejaVuSans-50"/>
     <use x="60.287109" xlink:href="#DejaVuSans-73"/>
     <use x="112.386719" xlink:href="#DejaVuSans-65"/>
     <use x="173.910156" xlink:href="#DejaVuSans-75"/>
     <use x="237.289062" xlink:href="#DejaVuSans-64"/>
     <use x="300.765625" xlink:href="#DejaVuSans-6f"/>
     <use x="361.947266" xlink:href="#DejaVuSans-6d"/>
     <use x="459.359375" xlink:href="#DejaVuSans-6f"/>
     <use x="520.541016" xlink:href="#DejaVuSans-6e"/>
     <use x="583.919922" xlink:href="#DejaVuSans-61"/>
     <use x="645.199219" xlink:href="#DejaVuSans-73"/>
     <use x="697.298828" xlink:href="#DejaVuSans-20"/>
     <use x="729.085938" xlink:href="#DejaVuSans-70"/>
     <use x="792.5625" xlink:href="#DejaVuSans-75"/>
     <use x="855.941406" xlink:href="#DejaVuSans-74"/>
     <use x="895.150391" xlink:href="#DejaVuSans-69"/>
     <use x="922.933594" xlink:href="#DejaVuSans-64"/>
     <use x="986.410156" xlink:href="#DejaVuSans-61"/>
    </g>
   </g>
  </g>
 </g>
 <defs>
  <clipPath id="pe7a8da68b7">
   <rect height="217.44" width="334.8" x="54" y="34.56"/>
  </clipPath>
 </defs>
</svg>
