<?xml version="1.0" encoding="utf-8" standalone="no"?>
<!DOCTYPE svg PUBLIC "-//W3C//DTD SVG 1.1//EN"
  "http://www.w3.org/Graphics/SVG/1.1/DTD/svg11.dtd">
<!-- Created with matplotlib (https://matplotlib.org/) -->
<svg height="252pt" version="1.1" viewBox="0 0 360 252" width="360pt" xmlns="http://www.w3.org/2000/svg" xmlns:xlink="http://www.w3.org/1999/xlink">
 <defs>
  <style type="text/css">
*{stroke-linecap:butt;stroke-linejoin:round;}
  </style>
 </defs>
 <g id="figure_1">
  <g id="patch_1">
   <path d="M 0 252 
L 360 252 
L 360 0 
L 0 0 
z
" style="fill:#ffffff;"/>
  </g>
  <g id="axes_1">
   <g id="patch_2">
    <path d="M 45 220.5 
L 324 220.5 
L 324 30.24 
L 45 30.24 
z
" style="fill:#ffffff;"/>
   </g>
   <g id="patch_3">
    <path clip-path="url(#pd9980bde2f)" d="M 57.681818 108997.209743 
L 62.754545 108997.209743 
L 62.754545 38.888182 
L 57.681818 38.888182 
z
" style="opacity:0.5;"/>
   </g>
   <g id="patch_4">
    <path clip-path="url(#pd9980bde2f)" d="M 62.754545 108997.209743 
L 67.827273 108997.209743 
L 67.827273 174.627263 
L 62.754545 174.627263 
z
" style="opacity:0.5;"/>
   </g>
   <g id="patch_5">
    <path clip-path="url(#pd9980bde2f)" d="M 67.827273 108997.209743 
L 72.9 108997.209743 
L 72.9 211.851818 
L 67.827273 211.851818 
z
" style="opacity:0.5;"/>
   </g>
   <g id="patch_6">
    <path clip-path="url(#pd9980bde2f)" d="M 72.9 108997.209743 
L 77.972727 108997.209743 
L 77.972727 189.662063 
L 72.9 189.662063 
z
" style="opacity:0.5;"/>
   </g>
   <g id="patch_7">
    <path clip-path="url(#pd9980bde2f)" d="M 77.972727 108997.209743 
L 83.045455 108997.209743 
L 83.045455 184.101304 
L 77.972727 184.101304 
z
" style="opacity:0.5;"/>
   </g>
   <g id="patch_8">
    <path clip-path="url(#pd9980bde2f)" d="M 83.045455 108997.209743 
L 88.118182 108997.209743 
L 88.118182 189.662063 
L 83.045455 189.662063 
z
" style="opacity:0.5;"/>
   </g>
   <g id="patch_9">
    <path clip-path="url(#pd9980bde2f)" d="M 88.118182 108997.209743 
L 93.190909 108997.209743 
L 93.190909 146.402254 
L 88.118182 146.402254 
z
" style="opacity:0.5;"/>
   </g>
   <g id="patch_10">
    <path clip-path="url(#pd9980bde2f)" d="M 93.190909 108997.209743 
L 98.263636 108997.209743 
L 98.263636 189.662063 
L 93.190909 189.662063 
z
" style="opacity:0.5;"/>
   </g>
   <g id="patch_11">
    <path clip-path="url(#pd9980bde2f)" d="M 98.263636 108997.209743 
L 103.336364 108997.209743 
L 103.336364 156.937281 
L 98.263636 156.937281 
z
" style="opacity:0.5;"/>
   </g>
   <g id="patch_12">
    <path clip-path="url(#pd9980bde2f)" d="M 103.336364 108997.209743 
L 108.409091 108997.209743 
L 108.409091 159.984266 
L 103.336364 159.984266 
z
" style="opacity:0.5;"/>
   </g>
   <g id="patch_13">
    <path clip-path="url(#pd9980bde2f)" d="M 108.409091 108997.209743 
L 113.481818 108997.209743 
L 113.481818 166.740326 
L 108.409091 166.740326 
z
" style="opacity:0.5;"/>
   </g>
   <g id="patch_14">
    <path clip-path="url(#pd9980bde2f)" d="M 113.481818 108997.209743 
L 118.554545 108997.209743 
L 118.554545 163.241549 
L 113.481818 163.241549 
z
" style="opacity:0.5;"/>
   </g>
   <g id="patch_15">
    <path clip-path="url(#pd9980bde2f)" d="M 118.554545 108997.209743 
L 123.627273 108997.209743 
L 123.627273 163.241549 
L 118.554545 163.241549 
z
" style="opacity:0.5;"/>
   </g>
   <g id="patch_16">
    <path clip-path="url(#pd9980bde2f)" d="M 123.627273 108997.209743 
L 128.7 108997.209743 
L 128.7 125.711414 
L 123.627273 125.711414 
z
" style="opacity:0.5;"/>
   </g>
   <g id="patch_17">
    <path clip-path="url(#pd9980bde2f)" d="M 128.7 108997.209743 
L 133.772727 108997.209743 
L 133.772727 128.860039 
L 128.7 128.860039 
z
" style="opacity:0.5;"/>
   </g>
   <g id="patch_18">
    <path clip-path="url(#pd9980bde2f)" d="M 133.772727 108997.209743 
L 138.845455 108997.209743 
L 138.845455 146.402254 
L 133.772727 146.402254 
z
" style="opacity:0.5;"/>
   </g>
   <g id="patch_19">
    <path clip-path="url(#pd9980bde2f)" d="M 138.845455 108997.209743 
L 143.918182 108997.209743 
L 143.918182 144.098778 
L 138.845455 144.098778 
z
" style="opacity:0.5;"/>
   </g>
   <g id="patch_20">
    <path clip-path="url(#pd9980bde2f)" d="M 143.918182 108997.209743 
L 148.990909 108997.209743 
L 148.990909 127.259483 
L 143.918182 127.259483 
z
" style="opacity:0.5;"/>
   </g>
   <g id="patch_21">
    <path clip-path="url(#pd9980bde2f)" d="M 148.990909 108997.209743 
L 154.063636 108997.209743 
L 154.063636 125.711414 
L 148.990909 125.711414 
z
" style="opacity:0.5;"/>
   </g>
   <g id="patch_22">
    <path clip-path="url(#pd9980bde2f)" d="M 154.063636 108997.209743 
L 159.136364 108997.209743 
L 159.136364 139.80383 
L 154.063636 139.80383 
z
" style="opacity:0.5;"/>
   </g>
   <g id="patch_23">
    <path clip-path="url(#pd9980bde2f)" d="M 159.136364 108997.209743 
L 164.209091 108997.209743 
L 164.209091 154.075078 
L 159.136364 154.075078 
z
" style="opacity:0.5;"/>
   </g>
   <g id="patch_24">
    <path clip-path="url(#pd9980bde2f)" d="M 164.209091 108997.209743 
L 169.281818 108997.209743 
L 169.281818 141.902481 
L 164.209091 141.902481 
z
" style="opacity:0.5;"/>
   </g>
   <g id="patch_25">
    <path clip-path="url(#pd9980bde2f)" d="M 169.281818 108997.209743 
L 174.354545 108997.209743 
L 174.354545 113.677472 
L 169.281818 113.677472 
z
" style="opacity:0.5;"/>
   </g>
   <g id="patch_26">
    <path clip-path="url(#pd9980bde2f)" d="M 174.354545 108997.209743 
L 179.427273 108997.209743 
L 179.427273 146.402254 
L 174.354545 146.402254 
z
" style="opacity:0.5;"/>
   </g>
   <g id="patch_27">
    <path clip-path="url(#pd9980bde2f)" d="M 179.427273 108997.209743 
L 184.5 108997.209743 
L 184.5 116.099125 
L 179.427273 116.099125 
z
" style="opacity:0.5;"/>
   </g>
   <g id="patch_28">
    <path clip-path="url(#pd9980bde2f)" d="M 184.5 108997.209743 
L 189.572727 108997.209743 
L 189.572727 134.015543 
L 184.5 134.015543 
z
" style="opacity:0.5;"/>
   </g>
   <g id="patch_29">
    <path clip-path="url(#pd9980bde2f)" d="M 189.572727 108997.209743 
L 194.645455 108997.209743 
L 194.645455 121.350296 
L 189.572727 121.350296 
z
" style="opacity:0.5;"/>
   </g>
   <g id="patch_30">
    <path clip-path="url(#pd9980bde2f)" d="M 194.645455 108997.209743 
L 199.718182 108997.209743 
L 199.718182 128.860039 
L 194.645455 128.860039 
z
" style="opacity:0.5;"/>
   </g>
   <g id="patch_31">
    <path clip-path="url(#pd9980bde2f)" d="M 199.718182 108997.209743 
L 204.790909 108997.209743 
L 204.790909 144.098778 
L 199.718182 144.098778 
z
" style="opacity:0.5;"/>
   </g>
   <g id="patch_32">
    <path clip-path="url(#pd9980bde2f)" d="M 204.790909 108997.209743 
L 209.863636 108997.209743 
L 209.863636 114.872773 
L 204.790909 114.872773 
z
" style="opacity:0.5;"/>
   </g>
   <g id="patch_33">
    <path clip-path="url(#pd9980bde2f)" d="M 209.863636 108997.209743 
L 214.936364 108997.209743 
L 214.936364 135.867227 
L 209.863636 135.867227 
z
" style="opacity:0.5;"/>
   </g>
   <g id="patch_34">
    <path clip-path="url(#pd9980bde2f)" d="M 214.936364 108997.209743 
L 220.009091 108997.209743 
L 220.009091 125.711414 
L 214.936364 125.711414 
z
" style="opacity:0.5;"/>
   </g>
   <g id="patch_35">
    <path clip-path="url(#pd9980bde2f)" d="M 220.009091 108997.209743 
L 225.081818 108997.209743 
L 225.081818 130.516767 
L 220.009091 130.516767 
z
" style="opacity:0.5;"/>
   </g>
   <g id="patch_36">
    <path clip-path="url(#pd9980bde2f)" d="M 225.081818 108997.209743 
L 230.154545 108997.209743 
L 230.154545 137.79451 
L 225.081818 137.79451 
z
" style="opacity:0.5;"/>
   </g>
   <g id="patch_37">
    <path clip-path="url(#pd9980bde2f)" d="M 230.154545 108997.209743 
L 235.227273 108997.209743 
L 235.227273 144.098778 
L 230.154545 144.098778 
z
" style="opacity:0.5;"/>
   </g>
   <g id="patch_38">
    <path clip-path="url(#pd9980bde2f)" d="M 235.227273 108997.209743 
L 240.3 108997.209743 
L 240.3 146.402254 
L 235.227273 146.402254 
z
" style="opacity:0.5;"/>
   </g>
   <g id="patch_39">
    <path clip-path="url(#pd9980bde2f)" d="M 240.3 108997.209743 
L 245.372727 108997.209743 
L 245.372727 146.402254 
L 240.3 146.402254 
z
" style="opacity:0.5;"/>
   </g>
   <g id="patch_40">
    <path clip-path="url(#pd9980bde2f)" d="M 245.372727 108997.209743 
L 250.445455 108997.209743 
L 250.445455 159.984266 
L 245.372727 159.984266 
z
" style="opacity:0.5;"/>
   </g>
   <g id="patch_41">
    <path clip-path="url(#pd9980bde2f)" d="M 250.445455 108997.209743 
L 255.518182 108997.209743 
L 255.518182 156.937281 
L 250.445455 156.937281 
z
" style="opacity:0.5;"/>
   </g>
   <g id="patch_42">
    <path clip-path="url(#pd9980bde2f)" d="M 255.518182 108997.209743 
L 260.590909 108997.209743 
L 260.590909 151.376522 
L 255.518182 151.376522 
z
" style="opacity:0.5;"/>
   </g>
   <g id="patch_43">
    <path clip-path="url(#pd9980bde2f)" d="M 260.590909 108997.209743 
L 265.663636 108997.209743 
L 265.663636 174.627263 
L 260.590909 174.627263 
z
" style="opacity:0.5;"/>
   </g>
   <g id="patch_44">
    <path clip-path="url(#pd9980bde2f)" d="M 265.663636 108997.209743 
L 270.736364 108997.209743 
L 270.736364 195.966331 
L 265.663636 195.966331 
z
" style="opacity:0.5;"/>
   </g>
   <g id="patch_45">
    <path clip-path="url(#pd9980bde2f)" d="M 270.736364 108997.209743 
L 275.809091 108997.209743 
L 275.809091 163.241549 
L 270.736364 163.241549 
z
" style="opacity:0.5;"/>
   </g>
   <g id="patch_46">
    <path clip-path="url(#pd9980bde2f)" d="M 275.809091 108997.209743 
L 280.881818 108997.209743 
L 280.881818 174.627263 
L 275.809091 174.627263 
z
" style="opacity:0.5;"/>
   </g>
   <g id="patch_47">
    <path clip-path="url(#pd9980bde2f)" d="M 280.881818 108997.209743 
L 285.954545 108997.209743 
L 285.954545 166.740326 
L 280.881818 166.740326 
z
" style="opacity:0.5;"/>
   </g>
   <g id="patch_48">
    <path clip-path="url(#pd9980bde2f)" d="M 285.954545 108997.209743 
L 291.027273 108997.209743 
L 291.027273 179.127036 
L 285.954545 179.127036 
z
" style="opacity:0.5;"/>
   </g>
   <g id="patch_49">
    <path clip-path="url(#pd9980bde2f)" d="M 291.027273 108997.209743 
L 296.1 108997.209743 
L 296.1 203.244075 
L 291.027273 203.244075 
z
" style="opacity:0.5;"/>
   </g>
   <g id="patch_50">
    <path clip-path="url(#pd9980bde2f)" d="M 296.1 108997.209743 
L 301.172727 108997.209743 
L 301.172727 163.241549 
L 296.1 163.241549 
z
" style="opacity:0.5;"/>
   </g>
   <g id="patch_51">
    <path clip-path="url(#pd9980bde2f)" d="M 301.172727 108997.209743 
L 306.245455 108997.209743 
L 306.245455 211.851818 
L 301.172727 211.851818 
z
" style="opacity:0.5;"/>
   </g>
   <g id="patch_52">
    <path clip-path="url(#pd9980bde2f)" d="M 306.245455 108997.209743 
L 311.318182 108997.209743 
L 311.318182 170.519292 
L 306.245455 170.519292 
z
" style="opacity:0.5;"/>
   </g>
   <g id="matplotlib.axis_1">
    <g id="xtick_1">
     <g id="line2d_1">
      <defs>
       <path d="M 0 0 
L 0 3.5 
" id="mc48bf4cf08" style="stroke:#000000;stroke-width:0.8;"/>
      </defs>
      <g>
       <use style="stroke:#000000;stroke-width:0.8;" x="57.681818" xlink:href="#mc48bf4cf08" y="220.5"/>
      </g>
     </g>
     <g id="text_1">
      <!-- 0.0 -->
      <defs>
       <path d="M 31.78125 66.40625 
Q 24.171875 66.40625 20.328125 58.90625 
Q 16.5 51.421875 16.5 36.375 
Q 16.5 21.390625 20.328125 13.890625 
Q 24.171875 6.390625 31.78125 6.390625 
Q 39.453125 6.390625 43.28125 13.890625 
Q 47.125 21.390625 47.125 36.375 
Q 47.125 51.421875 43.28125 58.90625 
Q 39.453125 66.40625 31.78125 66.40625 
z
M 31.78125 74.21875 
Q 44.046875 74.21875 50.515625 64.515625 
Q 56.984375 54.828125 56.984375 36.375 
Q 56.984375 17.96875 50.515625 8.265625 
Q 44.046875 -1.421875 31.78125 -1.421875 
Q 19.53125 -1.421875 13.0625 8.265625 
Q 6.59375 17.96875 6.59375 36.375 
Q 6.59375 54.828125 13.0625 64.515625 
Q 19.53125 74.21875 31.78125 74.21875 
z
" id="DejaVuSans-48"/>
       <path d="M 10.6875 12.40625 
L 21 12.40625 
L 21 0 
L 10.6875 0 
z
" id="DejaVuSans-46"/>
      </defs>
      <g transform="translate(49.730256 235.098437)scale(0.1 -0.1)">
       <use xlink:href="#DejaVuSans-48"/>
       <use x="63.623047" xlink:href="#DejaVuSans-46"/>
       <use x="95.410156" xlink:href="#DejaVuSans-48"/>
      </g>
     </g>
    </g>
    <g id="xtick_2">
     <g id="line2d_2">
      <g>
       <use style="stroke:#000000;stroke-width:0.8;" x="108.414082" xlink:href="#mc48bf4cf08" y="220.5"/>
      </g>
     </g>
     <g id="text_2">
      <!-- 0.2 -->
      <defs>
       <path d="M 19.1875 8.296875 
L 53.609375 8.296875 
L 53.609375 0 
L 7.328125 0 
L 7.328125 8.296875 
Q 12.9375 14.109375 22.625 23.890625 
Q 32.328125 33.6875 34.8125 36.53125 
Q 39.546875 41.84375 41.421875 45.53125 
Q 43.3125 49.21875 43.3125 52.78125 
Q 43.3125 58.59375 39.234375 62.25 
Q 35.15625 65.921875 28.609375 65.921875 
Q 23.96875 65.921875 18.8125 64.3125 
Q 13.671875 62.703125 7.8125 59.421875 
L 7.8125 69.390625 
Q 13.765625 71.78125 18.9375 73 
Q 24.125 74.21875 28.421875 74.21875 
Q 39.75 74.21875 46.484375 68.546875 
Q 53.21875 62.890625 53.21875 53.421875 
Q 53.21875 48.921875 51.53125 44.890625 
Q 49.859375 40.875 45.40625 35.40625 
Q 44.1875 33.984375 37.640625 27.21875 
Q 31.109375 20.453125 19.1875 8.296875 
z
" id="DejaVuSans-50"/>
      </defs>
      <g transform="translate(100.462519 235.098437)scale(0.1 -0.1)">
       <use xlink:href="#DejaVuSans-48"/>
       <use x="63.623047" xlink:href="#DejaVuSans-46"/>
       <use x="95.410156" xlink:href="#DejaVuSans-50"/>
      </g>
     </g>
    </g>
    <g id="xtick_3">
     <g id="line2d_3">
      <g>
       <use style="stroke:#000000;stroke-width:0.8;" x="159.146345" xlink:href="#mc48bf4cf08" y="220.5"/>
      </g>
     </g>
     <g id="text_3">
      <!-- 0.4 -->
      <defs>
       <path d="M 37.796875 64.3125 
L 12.890625 25.390625 
L 37.796875 25.390625 
z
M 35.203125 72.90625 
L 47.609375 72.90625 
L 47.609375 25.390625 
L 58.015625 25.390625 
L 58.015625 17.1875 
L 47.609375 17.1875 
L 47.609375 0 
L 37.796875 0 
L 37.796875 17.1875 
L 4.890625 17.1875 
L 4.890625 26.703125 
z
" id="DejaVuSans-52"/>
      </defs>
      <g transform="translate(151.194783 235.098437)scale(0.1 -0.1)">
       <use xlink:href="#DejaVuSans-48"/>
       <use x="63.623047" xlink:href="#DejaVuSans-46"/>
       <use x="95.410156" xlink:href="#DejaVuSans-52"/>
      </g>
     </g>
    </g>
    <g id="xtick_4">
     <g id="line2d_4">
      <g>
       <use style="stroke:#000000;stroke-width:0.8;" x="209.878609" xlink:href="#mc48bf4cf08" y="220.5"/>
      </g>
     </g>
     <g id="text_4">
      <!-- 0.6 -->
      <defs>
       <path d="M 33.015625 40.375 
Q 26.375 40.375 22.484375 35.828125 
Q 18.609375 31.296875 18.609375 23.390625 
Q 18.609375 15.53125 22.484375 10.953125 
Q 26.375 6.390625 33.015625 6.390625 
Q 39.65625 6.390625 43.53125 10.953125 
Q 47.40625 15.53125 47.40625 23.390625 
Q 47.40625 31.296875 43.53125 35.828125 
Q 39.65625 40.375 33.015625 40.375 
z
M 52.59375 71.296875 
L 52.59375 62.3125 
Q 48.875 64.0625 45.09375 64.984375 
Q 41.3125 65.921875 37.59375 65.921875 
Q 27.828125 65.921875 22.671875 59.328125 
Q 17.53125 52.734375 16.796875 39.40625 
Q 19.671875 43.65625 24.015625 45.921875 
Q 28.375 48.1875 33.59375 48.1875 
Q 44.578125 48.1875 50.953125 41.515625 
Q 57.328125 34.859375 57.328125 23.390625 
Q 57.328125 12.15625 50.6875 5.359375 
Q 44.046875 -1.421875 33.015625 -1.421875 
Q 20.359375 -1.421875 13.671875 8.265625 
Q 6.984375 17.96875 6.984375 36.375 
Q 6.984375 53.65625 15.1875 63.9375 
Q 23.390625 74.21875 37.203125 74.21875 
Q 40.921875 74.21875 44.703125 73.484375 
Q 48.484375 72.75 52.59375 71.296875 
z
" id="DejaVuSans-54"/>
      </defs>
      <g transform="translate(201.927046 235.098437)scale(0.1 -0.1)">
       <use xlink:href="#DejaVuSans-48"/>
       <use x="63.623047" xlink:href="#DejaVuSans-46"/>
       <use x="95.410156" xlink:href="#DejaVuSans-54"/>
      </g>
     </g>
    </g>
    <g id="xtick_5">
     <g id="line2d_5">
      <g>
       <use style="stroke:#000000;stroke-width:0.8;" x="260.610873" xlink:href="#mc48bf4cf08" y="220.5"/>
      </g>
     </g>
     <g id="text_5">
      <!-- 0.8 -->
      <defs>
       <path d="M 31.78125 34.625 
Q 24.75 34.625 20.71875 30.859375 
Q 16.703125 27.09375 16.703125 20.515625 
Q 16.703125 13.921875 20.71875 10.15625 
Q 24.75 6.390625 31.78125 6.390625 
Q 38.8125 6.390625 42.859375 10.171875 
Q 46.921875 13.96875 46.921875 20.515625 
Q 46.921875 27.09375 42.890625 30.859375 
Q 38.875 34.625 31.78125 34.625 
z
M 21.921875 38.8125 
Q 15.578125 40.375 12.03125 44.71875 
Q 8.5 49.078125 8.5 55.328125 
Q 8.5 64.0625 14.71875 69.140625 
Q 20.953125 74.21875 31.78125 74.21875 
Q 42.671875 74.21875 48.875 69.140625 
Q 55.078125 64.0625 55.078125 55.328125 
Q 55.078125 49.078125 51.53125 44.71875 
Q 48 40.375 41.703125 38.8125 
Q 48.828125 37.15625 52.796875 32.3125 
Q 56.78125 27.484375 56.78125 20.515625 
Q 56.78125 9.90625 50.3125 4.234375 
Q 43.84375 -1.421875 31.78125 -1.421875 
Q 19.734375 -1.421875 13.25 4.234375 
Q 6.78125 9.90625 6.78125 20.515625 
Q 6.78125 27.484375 10.78125 32.3125 
Q 14.796875 37.15625 21.921875 38.8125 
z
M 18.3125 54.390625 
Q 18.3125 48.734375 21.84375 45.5625 
Q 25.390625 42.390625 31.78125 42.390625 
Q 38.140625 42.390625 41.71875 45.5625 
Q 45.3125 48.734375 45.3125 54.390625 
Q 45.3125 60.0625 41.71875 63.234375 
Q 38.140625 66.40625 31.78125 66.40625 
Q 25.390625 66.40625 21.84375 63.234375 
Q 18.3125 60.0625 18.3125 54.390625 
z
" id="DejaVuSans-56"/>
      </defs>
      <g transform="translate(252.65931 235.098437)scale(0.1 -0.1)">
       <use xlink:href="#DejaVuSans-48"/>
       <use x="63.623047" xlink:href="#DejaVuSans-46"/>
       <use x="95.410156" xlink:href="#DejaVuSans-56"/>
      </g>
     </g>
    </g>
    <g id="xtick_6">
     <g id="line2d_6">
      <g>
       <use style="stroke:#000000;stroke-width:0.8;" x="311.343136" xlink:href="#mc48bf4cf08" y="220.5"/>
      </g>
     </g>
     <g id="text_6">
      <!-- 1.0 -->
      <defs>
       <path d="M 12.40625 8.296875 
L 28.515625 8.296875 
L 28.515625 63.921875 
L 10.984375 60.40625 
L 10.984375 69.390625 
L 28.421875 72.90625 
L 38.28125 72.90625 
L 38.28125 8.296875 
L 54.390625 8.296875 
L 54.390625 0 
L 12.40625 0 
z
" id="DejaVuSans-49"/>
      </defs>
      <g transform="translate(303.391574 235.098437)scale(0.1 -0.1)">
       <use xlink:href="#DejaVuSans-49"/>
       <use x="63.623047" xlink:href="#DejaVuSans-46"/>
       <use x="95.410156" xlink:href="#DejaVuSans-48"/>
      </g>
     </g>
    </g>
    <g id="text_7">
     <!-- Fractional ratio between clusters -->
     <defs>
      <path d="M 9.8125 72.90625 
L 51.703125 72.90625 
L 51.703125 64.59375 
L 19.671875 64.59375 
L 19.671875 43.109375 
L 48.578125 43.109375 
L 48.578125 34.8125 
L 19.671875 34.8125 
L 19.671875 0 
L 9.8125 0 
z
" id="DejaVuSans-70"/>
      <path d="M 41.109375 46.296875 
Q 39.59375 47.171875 37.8125 47.578125 
Q 36.03125 48 33.890625 48 
Q 26.265625 48 22.1875 43.046875 
Q 18.109375 38.09375 18.109375 28.8125 
L 18.109375 0 
L 9.078125 0 
L 9.078125 54.6875 
L 18.109375 54.6875 
L 18.109375 46.1875 
Q 20.953125 51.171875 25.484375 53.578125 
Q 30.03125 56 36.53125 56 
Q 37.453125 56 38.578125 55.875 
Q 39.703125 55.765625 41.0625 55.515625 
z
" id="DejaVuSans-114"/>
      <path d="M 34.28125 27.484375 
Q 23.390625 27.484375 19.1875 25 
Q 14.984375 22.515625 14.984375 16.5 
Q 14.984375 11.71875 18.140625 8.90625 
Q 21.296875 6.109375 26.703125 6.109375 
Q 34.1875 6.109375 38.703125 11.40625 
Q 43.21875 16.703125 43.21875 25.484375 
L 43.21875 27.484375 
z
M 52.203125 31.203125 
L 52.203125 0 
L 43.21875 0 
L 43.21875 8.296875 
Q 40.140625 3.328125 35.546875 0.953125 
Q 30.953125 -1.421875 24.3125 -1.421875 
Q 15.921875 -1.421875 10.953125 3.296875 
Q 6 8.015625 6 15.921875 
Q 6 25.140625 12.171875 29.828125 
Q 18.359375 34.515625 30.609375 34.515625 
L 43.21875 34.515625 
L 43.21875 35.40625 
Q 43.21875 41.609375 39.140625 45 
Q 35.0625 48.390625 27.6875 48.390625 
Q 23 48.390625 18.546875 47.265625 
Q 14.109375 46.140625 10.015625 43.890625 
L 10.015625 52.203125 
Q 14.9375 54.109375 19.578125 55.046875 
Q 24.21875 56 28.609375 56 
Q 40.484375 56 46.34375 49.84375 
Q 52.203125 43.703125 52.203125 31.203125 
z
" id="DejaVuSans-97"/>
      <path d="M 48.78125 52.59375 
L 48.78125 44.1875 
Q 44.96875 46.296875 41.140625 47.34375 
Q 37.3125 48.390625 33.40625 48.390625 
Q 24.65625 48.390625 19.8125 42.84375 
Q 14.984375 37.3125 14.984375 27.296875 
Q 14.984375 17.28125 19.8125 11.734375 
Q 24.65625 6.203125 33.40625 6.203125 
Q 37.3125 6.203125 41.140625 7.25 
Q 44.96875 8.296875 48.78125 10.40625 
L 48.78125 2.09375 
Q 45.015625 0.34375 40.984375 -0.53125 
Q 36.96875 -1.421875 32.421875 -1.421875 
Q 20.0625 -1.421875 12.78125 6.34375 
Q 5.515625 14.109375 5.515625 27.296875 
Q 5.515625 40.671875 12.859375 48.328125 
Q 20.21875 56 33.015625 56 
Q 37.15625 56 41.109375 55.140625 
Q 45.0625 54.296875 48.78125 52.59375 
z
" id="DejaVuSans-99"/>
      <path d="M 18.3125 70.21875 
L 18.3125 54.6875 
L 36.8125 54.6875 
L 36.8125 47.703125 
L 18.3125 47.703125 
L 18.3125 18.015625 
Q 18.3125 11.328125 20.140625 9.421875 
Q 21.96875 7.515625 27.59375 7.515625 
L 36.8125 7.515625 
L 36.8125 0 
L 27.59375 0 
Q 17.1875 0 13.234375 3.875 
Q 9.28125 7.765625 9.28125 18.015625 
L 9.28125 47.703125 
L 2.6875 47.703125 
L 2.6875 54.6875 
L 9.28125 54.6875 
L 9.28125 70.21875 
z
" id="DejaVuSans-116"/>
      <path d="M 9.421875 54.6875 
L 18.40625 54.6875 
L 18.40625 0 
L 9.421875 0 
z
M 9.421875 75.984375 
L 18.40625 75.984375 
L 18.40625 64.59375 
L 9.421875 64.59375 
z
" id="DejaVuSans-105"/>
      <path d="M 30.609375 48.390625 
Q 23.390625 48.390625 19.1875 42.75 
Q 14.984375 37.109375 14.984375 27.296875 
Q 14.984375 17.484375 19.15625 11.84375 
Q 23.34375 6.203125 30.609375 6.203125 
Q 37.796875 6.203125 41.984375 11.859375 
Q 46.1875 17.53125 46.1875 27.296875 
Q 46.1875 37.015625 41.984375 42.703125 
Q 37.796875 48.390625 30.609375 48.390625 
z
M 30.609375 56 
Q 42.328125 56 49.015625 48.375 
Q 55.71875 40.765625 55.71875 27.296875 
Q 55.71875 13.875 49.015625 6.21875 
Q 42.328125 -1.421875 30.609375 -1.421875 
Q 18.84375 -1.421875 12.171875 6.21875 
Q 5.515625 13.875 5.515625 27.296875 
Q 5.515625 40.765625 12.171875 48.375 
Q 18.84375 56 30.609375 56 
z
" id="DejaVuSans-111"/>
      <path d="M 54.890625 33.015625 
L 54.890625 0 
L 45.90625 0 
L 45.90625 32.71875 
Q 45.90625 40.484375 42.875 44.328125 
Q 39.84375 48.1875 33.796875 48.1875 
Q 26.515625 48.1875 22.3125 43.546875 
Q 18.109375 38.921875 18.109375 30.90625 
L 18.109375 0 
L 9.078125 0 
L 9.078125 54.6875 
L 18.109375 54.6875 
L 18.109375 46.1875 
Q 21.34375 51.125 25.703125 53.5625 
Q 30.078125 56 35.796875 56 
Q 45.21875 56 50.046875 50.171875 
Q 54.890625 44.34375 54.890625 33.015625 
z
" id="DejaVuSans-110"/>
      <path d="M 9.421875 75.984375 
L 18.40625 75.984375 
L 18.40625 0 
L 9.421875 0 
z
" id="DejaVuSans-108"/>
      <path id="DejaVuSans-32"/>
      <path d="M 48.6875 27.296875 
Q 48.6875 37.203125 44.609375 42.84375 
Q 40.53125 48.484375 33.40625 48.484375 
Q 26.265625 48.484375 22.1875 42.84375 
Q 18.109375 37.203125 18.109375 27.296875 
Q 18.109375 17.390625 22.1875 11.75 
Q 26.265625 6.109375 33.40625 6.109375 
Q 40.53125 6.109375 44.609375 11.75 
Q 48.6875 17.390625 48.6875 27.296875 
z
M 18.109375 46.390625 
Q 20.953125 51.265625 25.265625 53.625 
Q 29.59375 56 35.59375 56 
Q 45.5625 56 51.78125 48.09375 
Q 58.015625 40.1875 58.015625 27.296875 
Q 58.015625 14.40625 51.78125 6.484375 
Q 45.5625 -1.421875 35.59375 -1.421875 
Q 29.59375 -1.421875 25.265625 0.953125 
Q 20.953125 3.328125 18.109375 8.203125 
L 18.109375 0 
L 9.078125 0 
L 9.078125 75.984375 
L 18.109375 75.984375 
z
" id="DejaVuSans-98"/>
      <path d="M 56.203125 29.59375 
L 56.203125 25.203125 
L 14.890625 25.203125 
Q 15.484375 15.921875 20.484375 11.0625 
Q 25.484375 6.203125 34.421875 6.203125 
Q 39.59375 6.203125 44.453125 7.46875 
Q 49.3125 8.734375 54.109375 11.28125 
L 54.109375 2.78125 
Q 49.265625 0.734375 44.1875 -0.34375 
Q 39.109375 -1.421875 33.890625 -1.421875 
Q 20.796875 -1.421875 13.15625 6.1875 
Q 5.515625 13.8125 5.515625 26.8125 
Q 5.515625 40.234375 12.765625 48.109375 
Q 20.015625 56 32.328125 56 
Q 43.359375 56 49.78125 48.890625 
Q 56.203125 41.796875 56.203125 29.59375 
z
M 47.21875 32.234375 
Q 47.125 39.59375 43.09375 43.984375 
Q 39.0625 48.390625 32.421875 48.390625 
Q 24.90625 48.390625 20.390625 44.140625 
Q 15.875 39.890625 15.1875 32.171875 
z
" id="DejaVuSans-101"/>
      <path d="M 4.203125 54.6875 
L 13.1875 54.6875 
L 24.421875 12.015625 
L 35.59375 54.6875 
L 46.1875 54.6875 
L 57.421875 12.015625 
L 68.609375 54.6875 
L 77.59375 54.6875 
L 63.28125 0 
L 52.6875 0 
L 40.921875 44.828125 
L 29.109375 0 
L 18.5 0 
z
" id="DejaVuSans-119"/>
      <path d="M 8.5 21.578125 
L 8.5 54.6875 
L 17.484375 54.6875 
L 17.484375 21.921875 
Q 17.484375 14.15625 20.5 10.265625 
Q 23.53125 6.390625 29.59375 6.390625 
Q 36.859375 6.390625 41.078125 11.03125 
Q 45.3125 15.671875 45.3125 23.6875 
L 45.3125 54.6875 
L 54.296875 54.6875 
L 54.296875 0 
L 45.3125 0 
L 45.3125 8.40625 
Q 42.046875 3.421875 37.71875 1 
Q 33.40625 -1.421875 27.6875 -1.421875 
Q 18.265625 -1.421875 13.375 4.4375 
Q 8.5 10.296875 8.5 21.578125 
z
M 31.109375 56 
z
" id="DejaVuSans-117"/>
      <path d="M 44.28125 53.078125 
L 44.28125 44.578125 
Q 40.484375 46.53125 36.375 47.5 
Q 32.28125 48.484375 27.875 48.484375 
Q 21.1875 48.484375 17.84375 46.4375 
Q 14.5 44.390625 14.5 40.28125 
Q 14.5 37.15625 16.890625 35.375 
Q 19.28125 33.59375 26.515625 31.984375 
L 29.59375 31.296875 
Q 39.15625 29.25 43.1875 25.515625 
Q 47.21875 21.78125 47.21875 15.09375 
Q 47.21875 7.46875 41.1875 3.015625 
Q 35.15625 -1.421875 24.609375 -1.421875 
Q 20.21875 -1.421875 15.453125 -0.5625 
Q 10.6875 0.296875 5.421875 2 
L 5.421875 11.28125 
Q 10.40625 8.6875 15.234375 7.390625 
Q 20.0625 6.109375 24.8125 6.109375 
Q 31.15625 6.109375 34.5625 8.28125 
Q 37.984375 10.453125 37.984375 14.40625 
Q 37.984375 18.0625 35.515625 20.015625 
Q 33.0625 21.96875 24.703125 23.78125 
L 21.578125 24.515625 
Q 13.234375 26.265625 9.515625 29.90625 
Q 5.8125 33.546875 5.8125 39.890625 
Q 5.8125 47.609375 11.28125 51.796875 
Q 16.75 56 26.8125 56 
Q 31.78125 56 36.171875 55.265625 
Q 40.578125 54.546875 44.28125 53.078125 
z
" id="DejaVuSans-115"/>
     </defs>
     <g transform="translate(102.204687 248.776563)scale(0.1 -0.1)">
      <use xlink:href="#DejaVuSans-70"/>
      <use x="57.410156" xlink:href="#DejaVuSans-114"/>
      <use x="98.523438" xlink:href="#DejaVuSans-97"/>
      <use x="159.802734" xlink:href="#DejaVuSans-99"/>
      <use x="214.783203" xlink:href="#DejaVuSans-116"/>
      <use x="253.992188" xlink:href="#DejaVuSans-105"/>
      <use x="281.775391" xlink:href="#DejaVuSans-111"/>
      <use x="342.957031" xlink:href="#DejaVuSans-110"/>
      <use x="406.335938" xlink:href="#DejaVuSans-97"/>
      <use x="467.615234" xlink:href="#DejaVuSans-108"/>
      <use x="495.398438" xlink:href="#DejaVuSans-32"/>
      <use x="527.185547" xlink:href="#DejaVuSans-114"/>
      <use x="568.298828" xlink:href="#DejaVuSans-97"/>
      <use x="629.578125" xlink:href="#DejaVuSans-116"/>
      <use x="668.787109" xlink:href="#DejaVuSans-105"/>
      <use x="696.570312" xlink:href="#DejaVuSans-111"/>
      <use x="757.751953" xlink:href="#DejaVuSans-32"/>
      <use x="789.539062" xlink:href="#DejaVuSans-98"/>
      <use x="853.015625" xlink:href="#DejaVuSans-101"/>
      <use x="914.539062" xlink:href="#DejaVuSans-116"/>
      <use x="953.748047" xlink:href="#DejaVuSans-119"/>
      <use x="1035.535156" xlink:href="#DejaVuSans-101"/>
      <use x="1097.058594" xlink:href="#DejaVuSans-101"/>
      <use x="1158.582031" xlink:href="#DejaVuSans-110"/>
      <use x="1221.960938" xlink:href="#DejaVuSans-32"/>
      <use x="1253.748047" xlink:href="#DejaVuSans-99"/>
      <use x="1308.728516" xlink:href="#DejaVuSans-108"/>
      <use x="1336.511719" xlink:href="#DejaVuSans-117"/>
      <use x="1399.890625" xlink:href="#DejaVuSans-115"/>
      <use x="1451.990234" xlink:href="#DejaVuSans-116"/>
      <use x="1491.199219" xlink:href="#DejaVuSans-101"/>
      <use x="1552.722656" xlink:href="#DejaVuSans-114"/>
      <use x="1593.835938" xlink:href="#DejaVuSans-115"/>
     </g>
    </g>
   </g>
   <g id="matplotlib.axis_2">
    <g id="ytick_1">
     <g id="line2d_7">
      <defs>
       <path d="M 0 0 
L -3.5 0 
" id="me619b69388" style="stroke:#000000;stroke-width:0.8;"/>
      </defs>
      <g>
       <use style="stroke:#000000;stroke-width:0.8;" x="45" xlink:href="#me619b69388" y="179.127036"/>
      </g>
     </g>
     <g id="text_8">
      <!-- $\mathdefault{10^{1}}$ -->
      <g transform="translate(20.4 182.926255)scale(0.1 -0.1)">
       <use transform="translate(0 0.684375)" xlink:href="#DejaVuSans-49"/>
       <use transform="translate(63.623047 0.684375)" xlink:href="#DejaVuSans-48"/>
       <use transform="translate(128.203125 38.965625)scale(0.7)" xlink:href="#DejaVuSans-49"/>
      </g>
     </g>
    </g>
    <g id="ytick_2">
     <g id="line2d_8">
      <g>
       <use style="stroke:#000000;stroke-width:0.8;" x="45" xlink:href="#me619b69388" y="70.417663"/>
      </g>
     </g>
     <g id="text_9">
      <!-- $\mathdefault{10^{2}}$ -->
      <g transform="translate(20.4 74.216881)scale(0.1 -0.1)">
       <use transform="translate(0 0.765625)" xlink:href="#DejaVuSans-49"/>
       <use transform="translate(63.623047 0.765625)" xlink:href="#DejaVuSans-48"/>
       <use transform="translate(128.203125 39.046875)scale(0.7)" xlink:href="#DejaVuSans-50"/>
      </g>
     </g>
    </g>
    <g id="ytick_3">
     <g id="line2d_9">
      <defs>
       <path d="M 0 0 
L -2 0 
" id="m3ee0f778bf" style="stroke:#000000;stroke-width:0.6;"/>
      </defs>
      <g>
       <use style="stroke:#000000;stroke-width:0.6;" x="45" xlink:href="#m3ee0f778bf" y="211.851818"/>
      </g>
     </g>
    </g>
    <g id="ytick_4">
     <g id="line2d_10">
      <g>
       <use style="stroke:#000000;stroke-width:0.6;" x="45" xlink:href="#m3ee0f778bf" y="203.244075"/>
      </g>
     </g>
    </g>
    <g id="ytick_5">
     <g id="line2d_11">
      <g>
       <use style="stroke:#000000;stroke-width:0.6;" x="45" xlink:href="#m3ee0f778bf" y="195.966331"/>
      </g>
     </g>
    </g>
    <g id="ytick_6">
     <g id="line2d_12">
      <g>
       <use style="stroke:#000000;stroke-width:0.6;" x="45" xlink:href="#m3ee0f778bf" y="189.662063"/>
      </g>
     </g>
    </g>
    <g id="ytick_7">
     <g id="line2d_13">
      <g>
       <use style="stroke:#000000;stroke-width:0.6;" x="45" xlink:href="#m3ee0f778bf" y="184.101304"/>
      </g>
     </g>
    </g>
    <g id="ytick_8">
     <g id="line2d_14">
      <g>
       <use style="stroke:#000000;stroke-width:0.6;" x="45" xlink:href="#m3ee0f778bf" y="146.402254"/>
      </g>
     </g>
    </g>
    <g id="ytick_9">
     <g id="line2d_15">
      <g>
       <use style="stroke:#000000;stroke-width:0.6;" x="45" xlink:href="#m3ee0f778bf" y="127.259483"/>
      </g>
     </g>
    </g>
    <g id="ytick_10">
     <g id="line2d_16">
      <g>
       <use style="stroke:#000000;stroke-width:0.6;" x="45" xlink:href="#m3ee0f778bf" y="113.677472"/>
      </g>
     </g>
    </g>
    <g id="ytick_11">
     <g id="line2d_17">
      <g>
       <use style="stroke:#000000;stroke-width:0.6;" x="45" xlink:href="#m3ee0f778bf" y="103.142445"/>
      </g>
     </g>
    </g>
    <g id="ytick_12">
     <g id="line2d_18">
      <g>
       <use style="stroke:#000000;stroke-width:0.6;" x="45" xlink:href="#m3ee0f778bf" y="94.534701"/>
      </g>
     </g>
    </g>
    <g id="ytick_13">
     <g id="line2d_19">
      <g>
       <use style="stroke:#000000;stroke-width:0.6;" x="45" xlink:href="#m3ee0f778bf" y="87.256958"/>
      </g>
     </g>
    </g>
    <g id="ytick_14">
     <g id="line2d_20">
      <g>
       <use style="stroke:#000000;stroke-width:0.6;" x="45" xlink:href="#m3ee0f778bf" y="80.952689"/>
      </g>
     </g>
    </g>
    <g id="ytick_15">
     <g id="line2d_21">
      <g>
       <use style="stroke:#000000;stroke-width:0.6;" x="45" xlink:href="#m3ee0f778bf" y="75.391931"/>
      </g>
     </g>
    </g>
    <g id="ytick_16">
     <g id="line2d_22">
      <g>
       <use style="stroke:#000000;stroke-width:0.6;" x="45" xlink:href="#m3ee0f778bf" y="37.69288"/>
      </g>
     </g>
    </g>
    <g id="text_10">
     <!-- Feature count -->
     <g transform="translate(14.320312 160.337187)rotate(-90)scale(0.1 -0.1)">
      <use xlink:href="#DejaVuSans-70"/>
      <use x="57.441406" xlink:href="#DejaVuSans-101"/>
      <use x="118.964844" xlink:href="#DejaVuSans-97"/>
      <use x="180.244141" xlink:href="#DejaVuSans-116"/>
      <use x="219.453125" xlink:href="#DejaVuSans-117"/>
      <use x="282.832031" xlink:href="#DejaVuSans-114"/>
      <use x="323.914062" xlink:href="#DejaVuSans-101"/>
      <use x="385.4375" xlink:href="#DejaVuSans-32"/>
      <use x="417.224609" xlink:href="#DejaVuSans-99"/>
      <use x="472.205078" xlink:href="#DejaVuSans-111"/>
      <use x="533.386719" xlink:href="#DejaVuSans-117"/>
      <use x="596.765625" xlink:href="#DejaVuSans-110"/>
      <use x="660.144531" xlink:href="#DejaVuSans-116"/>
     </g>
    </g>
   </g>
   <g id="patch_53">
    <path d="M 45 220.5 
L 45 30.24 
" style="fill:none;stroke:#000000;stroke-linecap:square;stroke-linejoin:miter;stroke-width:0.8;"/>
   </g>
   <g id="patch_54">
    <path d="M 324 220.5 
L 324 30.24 
" style="fill:none;stroke:#000000;stroke-linecap:square;stroke-linejoin:miter;stroke-width:0.8;"/>
   </g>
   <g id="patch_55">
    <path d="M 45 220.5 
L 324 220.5 
" style="fill:none;stroke:#000000;stroke-linecap:square;stroke-linejoin:miter;stroke-width:0.8;"/>
   </g>
   <g id="patch_56">
    <path d="M 45 30.24 
L 324 30.24 
" style="fill:none;stroke:#000000;stroke-linecap:square;stroke-linejoin:miter;stroke-width:0.8;"/>
   </g>
   <g id="text_11">
    <!-- Pan-species distribution of  -->
    <defs>
     <path d="M 19.671875 64.796875 
L 19.671875 37.40625 
L 32.078125 37.40625 
Q 38.96875 37.40625 42.71875 40.96875 
Q 46.484375 44.53125 46.484375 51.125 
Q 46.484375 57.671875 42.71875 61.234375 
Q 38.96875 64.796875 32.078125 64.796875 
z
M 9.8125 72.90625 
L 32.078125 72.90625 
Q 44.34375 72.90625 50.609375 67.359375 
Q 56.890625 61.8125 56.890625 51.125 
Q 56.890625 40.328125 50.609375 34.8125 
Q 44.34375 29.296875 32.078125 29.296875 
L 19.671875 29.296875 
L 19.671875 0 
L 9.8125 0 
z
" id="DejaVuSans-80"/>
     <path d="M 4.890625 31.390625 
L 31.203125 31.390625 
L 31.203125 23.390625 
L 4.890625 23.390625 
z
" id="DejaVuSans-45"/>
     <path d="M 18.109375 8.203125 
L 18.109375 -20.796875 
L 9.078125 -20.796875 
L 9.078125 54.6875 
L 18.109375 54.6875 
L 18.109375 46.390625 
Q 20.953125 51.265625 25.265625 53.625 
Q 29.59375 56 35.59375 56 
Q 45.5625 56 51.78125 48.09375 
Q 58.015625 40.1875 58.015625 27.296875 
Q 58.015625 14.40625 51.78125 6.484375 
Q 45.5625 -1.421875 35.59375 -1.421875 
Q 29.59375 -1.421875 25.265625 0.953125 
Q 20.953125 3.328125 18.109375 8.203125 
z
M 48.6875 27.296875 
Q 48.6875 37.203125 44.609375 42.84375 
Q 40.53125 48.484375 33.40625 48.484375 
Q 26.265625 48.484375 22.1875 42.84375 
Q 18.109375 37.203125 18.109375 27.296875 
Q 18.109375 17.390625 22.1875 11.75 
Q 26.265625 6.109375 33.40625 6.109375 
Q 40.53125 6.109375 44.609375 11.75 
Q 48.6875 17.390625 48.6875 27.296875 
z
" id="DejaVuSans-112"/>
     <path d="M 45.40625 46.390625 
L 45.40625 75.984375 
L 54.390625 75.984375 
L 54.390625 0 
L 45.40625 0 
L 45.40625 8.203125 
Q 42.578125 3.328125 38.25 0.953125 
Q 33.9375 -1.421875 27.875 -1.421875 
Q 17.96875 -1.421875 11.734375 6.484375 
Q 5.515625 14.40625 5.515625 27.296875 
Q 5.515625 40.1875 11.734375 48.09375 
Q 17.96875 56 27.875 56 
Q 33.9375 56 38.25 53.625 
Q 42.578125 51.265625 45.40625 46.390625 
z
M 14.796875 27.296875 
Q 14.796875 17.390625 18.875 11.75 
Q 22.953125 6.109375 30.078125 6.109375 
Q 37.203125 6.109375 41.296875 11.75 
Q 45.40625 17.390625 45.40625 27.296875 
Q 45.40625 37.203125 41.296875 42.84375 
Q 37.203125 48.484375 30.078125 48.484375 
Q 22.953125 48.484375 18.875 42.84375 
Q 14.796875 37.203125 14.796875 27.296875 
z
" id="DejaVuSans-100"/>
     <path d="M 37.109375 75.984375 
L 37.109375 68.5 
L 28.515625 68.5 
Q 23.6875 68.5 21.796875 66.546875 
Q 19.921875 64.59375 19.921875 59.515625 
L 19.921875 54.6875 
L 34.71875 54.6875 
L 34.71875 47.703125 
L 19.921875 47.703125 
L 19.921875 0 
L 10.890625 0 
L 10.890625 47.703125 
L 2.296875 47.703125 
L 2.296875 54.6875 
L 10.890625 54.6875 
L 10.890625 58.5 
Q 10.890625 67.625 15.140625 71.796875 
Q 19.390625 75.984375 28.609375 75.984375 
z
" id="DejaVuSans-102"/>
    </defs>
    <g transform="translate(103.13625 10.802625)scale(0.12 -0.12)">
     <use xlink:href="#DejaVuSans-80"/>
     <use x="60.240234" xlink:href="#DejaVuSans-97"/>
     <use x="121.519531" xlink:href="#DejaVuSans-110"/>
     <use x="184.898438" xlink:href="#DejaVuSans-45"/>
     <use x="220.982422" xlink:href="#DejaVuSans-115"/>
     <use x="273.082031" xlink:href="#DejaVuSans-112"/>
     <use x="336.558594" xlink:href="#DejaVuSans-101"/>
     <use x="398.082031" xlink:href="#DejaVuSans-99"/>
     <use x="453.0625" xlink:href="#DejaVuSans-105"/>
     <use x="480.845703" xlink:href="#DejaVuSans-101"/>
     <use x="542.369141" xlink:href="#DejaVuSans-115"/>
     <use x="594.46875" xlink:href="#DejaVuSans-32"/>
     <use x="626.255859" xlink:href="#DejaVuSans-100"/>
     <use x="689.732422" xlink:href="#DejaVuSans-105"/>
     <use x="717.515625" xlink:href="#DejaVuSans-115"/>
     <use x="769.615234" xlink:href="#DejaVuSans-116"/>
     <use x="808.824219" xlink:href="#DejaVuSans-114"/>
     <use x="849.9375" xlink:href="#DejaVuSans-105"/>
     <use x="877.720703" xlink:href="#DejaVuSans-98"/>
     <use x="941.197266" xlink:href="#DejaVuSans-117"/>
     <use x="1004.576172" xlink:href="#DejaVuSans-116"/>
     <use x="1043.785156" xlink:href="#DejaVuSans-105"/>
     <use x="1071.568359" xlink:href="#DejaVuSans-111"/>
     <use x="1132.75" xlink:href="#DejaVuSans-110"/>
     <use x="1196.128906" xlink:href="#DejaVuSans-32"/>
     <use x="1227.916016" xlink:href="#DejaVuSans-111"/>
     <use x="1289.097656" xlink:href="#DejaVuSans-102"/>
     <use x="1324.302734" xlink:href="#DejaVuSans-32"/>
    </g>
    <!-- mean cluster membership ratios -->
    <defs>
     <path d="M 52 44.1875 
Q 55.375 50.25 60.0625 53.125 
Q 64.75 56 71.09375 56 
Q 79.640625 56 84.28125 50.015625 
Q 88.921875 44.046875 88.921875 33.015625 
L 88.921875 0 
L 79.890625 0 
L 79.890625 32.71875 
Q 79.890625 40.578125 77.09375 44.375 
Q 74.3125 48.1875 68.609375 48.1875 
Q 61.625 48.1875 57.5625 43.546875 
Q 53.515625 38.921875 53.515625 30.90625 
L 53.515625 0 
L 44.484375 0 
L 44.484375 32.71875 
Q 44.484375 40.625 41.703125 44.40625 
Q 38.921875 48.1875 33.109375 48.1875 
Q 26.21875 48.1875 22.15625 43.53125 
Q 18.109375 38.875 18.109375 30.90625 
L 18.109375 0 
L 9.078125 0 
L 9.078125 54.6875 
L 18.109375 54.6875 
L 18.109375 46.1875 
Q 21.1875 51.21875 25.484375 53.609375 
Q 29.78125 56 35.6875 56 
Q 41.65625 56 45.828125 52.96875 
Q 50 49.953125 52 44.1875 
z
" id="DejaVuSans-109"/>
     <path d="M 54.890625 33.015625 
L 54.890625 0 
L 45.90625 0 
L 45.90625 32.71875 
Q 45.90625 40.484375 42.875 44.328125 
Q 39.84375 48.1875 33.796875 48.1875 
Q 26.515625 48.1875 22.3125 43.546875 
Q 18.109375 38.921875 18.109375 30.90625 
L 18.109375 0 
L 9.078125 0 
L 9.078125 75.984375 
L 18.109375 75.984375 
L 18.109375 46.1875 
Q 21.34375 51.125 25.703125 53.5625 
Q 30.078125 56 35.796875 56 
Q 45.21875 56 50.046875 50.171875 
Q 54.890625 44.34375 54.890625 33.015625 
z
" id="DejaVuSans-104"/>
    </defs>
    <g transform="translate(86.6475 24.24)scale(0.12 -0.12)">
     <use xlink:href="#DejaVuSans-109"/>
     <use x="97.412109" xlink:href="#DejaVuSans-101"/>
     <use x="158.935547" xlink:href="#DejaVuSans-97"/>
     <use x="220.214844" xlink:href="#DejaVuSans-110"/>
     <use x="283.59375" xlink:href="#DejaVuSans-32"/>
     <use x="315.380859" xlink:href="#DejaVuSans-99"/>
     <use x="370.361328" xlink:href="#DejaVuSans-108"/>
     <use x="398.144531" xlink:href="#DejaVuSans-117"/>
     <use x="461.523438" xlink:href="#DejaVuSans-115"/>
     <use x="513.623047" xlink:href="#DejaVuSans-116"/>
     <use x="552.832031" xlink:href="#DejaVuSans-101"/>
     <use x="614.355469" xlink:href="#DejaVuSans-114"/>
     <use x="655.46875" xlink:href="#DejaVuSans-32"/>
     <use x="687.255859" xlink:href="#DejaVuSans-109"/>
     <use x="784.667969" xlink:href="#DejaVuSans-101"/>
     <use x="846.191406" xlink:href="#DejaVuSans-109"/>
     <use x="943.603516" xlink:href="#DejaVuSans-98"/>
     <use x="1007.080078" xlink:href="#DejaVuSans-101"/>
     <use x="1068.603516" xlink:href="#DejaVuSans-114"/>
     <use x="1109.716797" xlink:href="#DejaVuSans-115"/>
     <use x="1161.816406" xlink:href="#DejaVuSans-104"/>
     <use x="1225.195312" xlink:href="#DejaVuSans-105"/>
     <use x="1252.978516" xlink:href="#DejaVuSans-112"/>
     <use x="1316.455078" xlink:href="#DejaVuSans-32"/>
     <use x="1348.242188" xlink:href="#DejaVuSans-114"/>
     <use x="1389.355469" xlink:href="#DejaVuSans-97"/>
     <use x="1450.634766" xlink:href="#DejaVuSans-116"/>
     <use x="1489.84375" xlink:href="#DejaVuSans-105"/>
     <use x="1517.626953" xlink:href="#DejaVuSans-111"/>
     <use x="1578.808594" xlink:href="#DejaVuSans-115"/>
    </g>
   </g>
  </g>
 </g>
 <defs>
  <clipPath id="pd9980bde2f">
   <rect height="190.26" width="279" x="45" y="30.24"/>
  </clipPath>
 </defs>
</svg>
