<?xml version="1.0" encoding="utf-8" standalone="no"?>
<!DOCTYPE svg PUBLIC "-//W3C//DTD SVG 1.1//EN"
  "http://www.w3.org/Graphics/SVG/1.1/DTD/svg11.dtd">
<!-- Created with matplotlib (http://matplotlib.org/) -->
<svg height="288pt" version="1.1" viewBox="0 0 432 288" width="432pt" xmlns="http://www.w3.org/2000/svg" xmlns:xlink="http://www.w3.org/1999/xlink">
 <defs>
  <style type="text/css">
*{stroke-linecap:butt;stroke-linejoin:round;}
  </style>
 </defs>
 <g id="figure_1">
  <g id="patch_1">
   <path d="M 0 288 
L 432 288 
L 432 0 
L 0 0 
z
" style="fill:#ffffff;"/>
  </g>
  <g id="axes_1">
   <g id="patch_2">
    <path d="M 54 252 
L 388.8 252 
L 388.8 34.56 
L 54 34.56 
z
" style="fill:#ffffff;"/>
   </g>
   <g id="PathCollection_1">
    <defs>
     <path d="M 0 5 
C 1.326016 5 2.597899 4.473168 3.535534 3.535534 
C 4.473168 2.597899 5 1.326016 5 0 
C 5 -1.326016 4.473168 -2.597899 3.535534 -3.535534 
C 2.597899 -4.473168 1.326016 -5 0 -5 
C -1.326016 -5 -2.597899 -4.473168 -3.535534 -3.535534 
C -4.473168 -2.597899 -5 -1.326016 -5 0 
C -5 1.326016 -4.473168 2.597899 -3.535534 3.535534 
C -2.597899 4.473168 -1.326016 5 0 5 
z
" id="mca8bafc547" style="stroke:#000000;stroke-opacity:0.3;"/>
    </defs>
    <g clip-path="url(#pe0e84e8402)">
     <use style="fill-opacity:0.3;stroke:#000000;stroke-opacity:0.3;" x="373.257062" xlink:href="#mca8bafc547" y="246.610483"/>
     <use style="fill-opacity:0.3;stroke:#000000;stroke-opacity:0.3;" x="337.824147" xlink:href="#mca8bafc547" y="246.692404"/>
     <use style="fill-opacity:0.3;stroke:#000000;stroke-opacity:0.3;" x="330.945905" xlink:href="#mca8bafc547" y="250.325297"/>
     <use style="fill-opacity:0.3;stroke:#000000;stroke-opacity:0.3;" x="382.307843" xlink:href="#mca8bafc547" y="246.287356"/>
     <use style="fill-opacity:0.3;stroke:#000000;stroke-opacity:0.3;" x="341.397429" xlink:href="#mca8bafc547" y="245.599389"/>
     <use style="fill-opacity:0.3;stroke:#000000;stroke-opacity:0.3;" x="363.827529" xlink:href="#mca8bafc547" y="246.120459"/>
     <use style="fill-opacity:0.3;stroke:#000000;stroke-opacity:0.3;" x="371.914234" xlink:href="#mca8bafc547" y="245.493565"/>
     <use style="fill-opacity:0.3;stroke:#000000;stroke-opacity:0.3;" x="352.841201" xlink:href="#mca8bafc547" y="244.729799"/>
     <use style="fill-opacity:0.3;stroke:#000000;stroke-opacity:0.3;" x="348.336152" xlink:href="#mca8bafc547" y="247.965692"/>
     <use style="fill-opacity:0.3;stroke:#000000;stroke-opacity:0.3;" x="234.708707" xlink:href="#mca8bafc547" y="248.913104"/>
     <use style="fill-opacity:0.3;stroke:#000000;stroke-opacity:0.3;" x="342.377068" xlink:href="#mca8bafc547" y="245.642257"/>
     <use style="fill-opacity:0.3;stroke:#000000;stroke-opacity:0.3;" x="323.107339" xlink:href="#mca8bafc547" y="248.691357"/>
     <use style="fill-opacity:0.3;stroke:#000000;stroke-opacity:0.3;" x="223.537624" xlink:href="#mca8bafc547" y="250.482369"/>
     <use style="fill-opacity:0.3;stroke:#000000;stroke-opacity:0.3;" x="54" xlink:href="#mca8bafc547" y="52.926809"/>
     <use style="fill-opacity:0.3;stroke:#000000;stroke-opacity:0.3;" x="54" xlink:href="#mca8bafc547" y="34.56"/>
     <use style="fill-opacity:0.3;stroke:#000000;stroke-opacity:0.3;" x="211.460882" xlink:href="#mca8bafc547" y="231.656846"/>
     <use style="fill-opacity:0.3;stroke:#000000;stroke-opacity:0.3;" x="252.207217" xlink:href="#mca8bafc547" y="232.262747"/>
     <use style="fill-opacity:0.3;stroke:#000000;stroke-opacity:0.3;" x="358.336159" xlink:href="#mca8bafc547" y="244.596688"/>
     <use style="fill-opacity:0.3;stroke:#000000;stroke-opacity:0.3;" x="388.8" xlink:href="#mca8bafc547" y="250.208683"/>
     <use style="fill-opacity:0.3;stroke:#000000;stroke-opacity:0.3;" x="381.608924" xlink:href="#mca8bafc547" y="246.218053"/>
     <use style="fill-opacity:0.3;stroke:#000000;stroke-opacity:0.3;" x="373.552967" xlink:href="#mca8bafc547" y="251.132726"/>
     <use style="fill-opacity:0.3;stroke:#000000;stroke-opacity:0.3;" x="230.601691" xlink:href="#mca8bafc547" y="251.000822"/>
     <use style="fill-opacity:0.3;stroke:#000000;stroke-opacity:0.3;" x="269.846512" xlink:href="#mca8bafc547" y="245.483928"/>
     <use style="fill-opacity:0.3;stroke:#000000;stroke-opacity:0.3;" x="381.459696" xlink:href="#mca8bafc547" y="245.323292"/>
     <use style="fill-opacity:0.3;stroke:#000000;stroke-opacity:0.3;" x="145.697808" xlink:href="#mca8bafc547" y="237.610208"/>
     <use style="fill-opacity:0.3;stroke:#000000;stroke-opacity:0.3;" x="54" xlink:href="#mca8bafc547" y="199.767732"/>
     <use style="fill-opacity:0.3;stroke:#000000;stroke-opacity:0.3;" x="373.552967" xlink:href="#mca8bafc547" y="251.132726"/>
     <use style="fill-opacity:0.3;stroke:#000000;stroke-opacity:0.3;" x="355.326636" xlink:href="#mca8bafc547" y="245.119814"/>
     <use style="fill-opacity:0.3;stroke:#000000;stroke-opacity:0.3;" x="355.326636" xlink:href="#mca8bafc547" y="245.119814"/>
     <use style="fill-opacity:0.3;stroke:#000000;stroke-opacity:0.3;" x="366.671847" xlink:href="#mca8bafc547" y="244.92592"/>
     <use style="fill-opacity:0.3;stroke:#000000;stroke-opacity:0.3;" x="376.716858" xlink:href="#mca8bafc547" y="245.421746"/>
     <use style="fill-opacity:0.3;stroke:#000000;stroke-opacity:0.3;" x="376.716858" xlink:href="#mca8bafc547" y="245.421746"/>
     <use style="fill-opacity:0.3;stroke:#000000;stroke-opacity:0.3;" x="366.671847" xlink:href="#mca8bafc547" y="244.92592"/>
     <use style="fill-opacity:0.3;stroke:#000000;stroke-opacity:0.3;" x="381.608924" xlink:href="#mca8bafc547" y="246.218053"/>
     <use style="fill-opacity:0.3;stroke:#000000;stroke-opacity:0.3;" x="374.016488" xlink:href="#mca8bafc547" y="245.711003"/>
     <use style="fill-opacity:0.3;stroke:#000000;stroke-opacity:0.3;" x="247.897733" xlink:href="#mca8bafc547" y="224.839495"/>
     <use style="fill-opacity:0.3;stroke:#000000;stroke-opacity:0.3;" x="203.970707" xlink:href="#mca8bafc547" y="227.380888"/>
     <use style="fill-opacity:0.3;stroke:#000000;stroke-opacity:0.3;" x="275.228977" xlink:href="#mca8bafc547" y="249.2078"/>
     <use style="fill-opacity:0.3;stroke:#000000;stroke-opacity:0.3;" x="350.727755" xlink:href="#mca8bafc547" y="250.310124"/>
     <use style="fill-opacity:0.3;stroke:#000000;stroke-opacity:0.3;" x="54" xlink:href="#mca8bafc547" y="251.999952"/>
     <use style="fill-opacity:0.3;stroke:#000000;stroke-opacity:0.3;" x="357.91919" xlink:href="#mca8bafc547" y="247.589541"/>
     <use style="fill-opacity:0.3;stroke:#000000;stroke-opacity:0.3;" x="54" xlink:href="#mca8bafc547" y="251.91733"/>
     <use style="fill-opacity:0.3;stroke:#000000;stroke-opacity:0.3;" x="298.031428" xlink:href="#mca8bafc547" y="248.601301"/>
     <use style="fill-opacity:0.3;stroke:#000000;stroke-opacity:0.3;" x="315.370503" xlink:href="#mca8bafc547" y="244.924192"/>
     <use style="fill-opacity:0.3;stroke:#000000;stroke-opacity:0.3;" x="255.200016" xlink:href="#mca8bafc547" y="243.549593"/>
     <use style="fill-opacity:0.3;stroke:#000000;stroke-opacity:0.3;" x="384.310571" xlink:href="#mca8bafc547" y="246.098651"/>
     <use style="fill-opacity:0.3;stroke:#000000;stroke-opacity:0.3;" x="363.566937" xlink:href="#mca8bafc547" y="245.310328"/>
     <use style="fill-opacity:0.3;stroke:#000000;stroke-opacity:0.3;" x="380.814624" xlink:href="#mca8bafc547" y="246.340488"/>
     <use style="fill-opacity:0.3;stroke:#000000;stroke-opacity:0.3;" x="381.788869" xlink:href="#mca8bafc547" y="245.267704"/>
     <use style="fill-opacity:0.3;stroke:#000000;stroke-opacity:0.3;" x="309.642374" xlink:href="#mca8bafc547" y="250.840359"/>
     <use style="fill-opacity:0.3;stroke:#000000;stroke-opacity:0.3;" x="365.564143" xlink:href="#mca8bafc547" y="245.163395"/>
     <use style="fill-opacity:0.3;stroke:#000000;stroke-opacity:0.3;" x="309.091332" xlink:href="#mca8bafc547" y="250.830351"/>
     <use style="fill-opacity:0.3;stroke:#000000;stroke-opacity:0.3;" x="160.517656" xlink:href="#mca8bafc547" y="250.328626"/>
     <use style="fill-opacity:0.3;stroke:#000000;stroke-opacity:0.3;" x="186.451268" xlink:href="#mca8bafc547" y="251.326572"/>
     <use style="fill-opacity:0.3;stroke:#000000;stroke-opacity:0.3;" x="230.601691" xlink:href="#mca8bafc547" y="251.763578"/>
     <use style="fill-opacity:0.3;stroke:#000000;stroke-opacity:0.3;" x="54" xlink:href="#mca8bafc547" y="251.939242"/>
     <use style="fill-opacity:0.3;stroke:#000000;stroke-opacity:0.3;" x="54" xlink:href="#mca8bafc547" y="251.869084"/>
     <use style="fill-opacity:0.3;stroke:#000000;stroke-opacity:0.3;" x="121.783963" xlink:href="#mca8bafc547" y="248.075043"/>
     <use style="fill-opacity:0.3;stroke:#000000;stroke-opacity:0.3;" x="189.847455" xlink:href="#mca8bafc547" y="250.588755"/>
     <use style="fill-opacity:0.3;stroke:#000000;stroke-opacity:0.3;" x="196.023541" xlink:href="#mca8bafc547" y="251.043082"/>
     <use style="fill-opacity:0.3;stroke:#000000;stroke-opacity:0.3;" x="373.552967" xlink:href="#mca8bafc547" y="251.154019"/>
     <use style="fill-opacity:0.3;stroke:#000000;stroke-opacity:0.3;" x="140.365667" xlink:href="#mca8bafc547" y="248.686258"/>
     <use style="fill-opacity:0.3;stroke:#000000;stroke-opacity:0.3;" x="146.140013" xlink:href="#mca8bafc547" y="250.480184"/>
     <use style="fill-opacity:0.3;stroke:#000000;stroke-opacity:0.3;" x="122.475636" xlink:href="#mca8bafc547" y="250.562623"/>
     <use style="fill-opacity:0.3;stroke:#000000;stroke-opacity:0.3;" x="195.281353" xlink:href="#mca8bafc547" y="251.145981"/>
     <use style="fill-opacity:0.3;stroke:#000000;stroke-opacity:0.3;" x="289.468922" xlink:href="#mca8bafc547" y="251.589684"/>
     <use style="fill-opacity:0.3;stroke:#000000;stroke-opacity:0.3;" x="318.902537" xlink:href="#mca8bafc547" y="251.467835"/>
     <use style="fill-opacity:0.3;stroke:#000000;stroke-opacity:0.3;" x="54" xlink:href="#mca8bafc547" y="251.926285"/>
     <use style="fill-opacity:0.3;stroke:#000000;stroke-opacity:0.3;" x="341.272085" xlink:href="#mca8bafc547" y="243.608779"/>
     <use style="fill-opacity:0.3;stroke:#000000;stroke-opacity:0.3;" x="308.634997" xlink:href="#mca8bafc547" y="248.640594"/>
     <use style="fill-opacity:0.3;stroke:#000000;stroke-opacity:0.3;" x="320.294139" xlink:href="#mca8bafc547" y="249.774662"/>
     <use style="fill-opacity:0.3;stroke:#000000;stroke-opacity:0.3;" x="323.54995" xlink:href="#mca8bafc547" y="248.199522"/>
     <use style="fill-opacity:0.3;stroke:#000000;stroke-opacity:0.3;" x="373.552967" xlink:href="#mca8bafc547" y="251.71742"/>
     <use style="fill-opacity:0.3;stroke:#000000;stroke-opacity:0.3;" x="54" xlink:href="#mca8bafc547" y="251.913787"/>
     <use style="fill-opacity:0.3;stroke:#000000;stroke-opacity:0.3;" x="54" xlink:href="#mca8bafc547" y="251.926285"/>
     <use style="fill-opacity:0.3;stroke:#000000;stroke-opacity:0.3;" x="205.372878" xlink:href="#mca8bafc547" y="251.673746"/>
     <use style="fill-opacity:0.3;stroke:#000000;stroke-opacity:0.3;" x="386.826264" xlink:href="#mca8bafc547" y="246.60787"/>
     <use style="fill-opacity:0.3;stroke:#000000;stroke-opacity:0.3;" x="369.482633" xlink:href="#mca8bafc547" y="246.590676"/>
     <use style="fill-opacity:0.3;stroke:#000000;stroke-opacity:0.3;" x="320.294139" xlink:href="#mca8bafc547" y="249.774662"/>
     <use style="fill-opacity:0.3;stroke:#000000;stroke-opacity:0.3;" x="275.136031" xlink:href="#mca8bafc547" y="246.154505"/>
     <use style="fill-opacity:0.3;stroke:#000000;stroke-opacity:0.3;" x="380.814624" xlink:href="#mca8bafc547" y="246.340488"/>
     <use style="fill-opacity:0.3;stroke:#000000;stroke-opacity:0.3;" x="379.958261" xlink:href="#mca8bafc547" y="248.370695"/>
     <use style="fill-opacity:0.3;stroke:#000000;stroke-opacity:0.3;" x="230.601691" xlink:href="#mca8bafc547" y="251.637419"/>
     <use style="fill-opacity:0.3;stroke:#000000;stroke-opacity:0.3;" x="230.601691" xlink:href="#mca8bafc547" y="251.244346"/>
     <use style="fill-opacity:0.3;stroke:#000000;stroke-opacity:0.3;" x="160.517656" xlink:href="#mca8bafc547" y="250.328626"/>
     <use style="fill-opacity:0.3;stroke:#000000;stroke-opacity:0.3;" x="246.656391" xlink:href="#mca8bafc547" y="251.258453"/>
     <use style="fill-opacity:0.3;stroke:#000000;stroke-opacity:0.3;" x="251.37095" xlink:href="#mca8bafc547" y="248.283084"/>
     <use style="fill-opacity:0.3;stroke:#000000;stroke-opacity:0.3;" x="259.426908" xlink:href="#mca8bafc547" y="248.512366"/>
     <use style="fill-opacity:0.3;stroke:#000000;stroke-opacity:0.3;" x="378.116045" xlink:href="#mca8bafc547" y="247.303818"/>
     <use style="fill-opacity:0.3;stroke:#000000;stroke-opacity:0.3;" x="373.552967" xlink:href="#mca8bafc547" y="248.600026"/>
     <use style="fill-opacity:0.3;stroke:#000000;stroke-opacity:0.3;" x="354.06803" xlink:href="#mca8bafc547" y="245.5628"/>
     <use style="fill-opacity:0.3;stroke:#000000;stroke-opacity:0.3;" x="54" xlink:href="#mca8bafc547" y="251.993971"/>
     <use style="fill-opacity:0.3;stroke:#000000;stroke-opacity:0.3;" x="340.60895" xlink:href="#mca8bafc547" y="241.652962"/>
     <use style="fill-opacity:0.3;stroke:#000000;stroke-opacity:0.3;" x="373.882309" xlink:href="#mca8bafc547" y="249.178139"/>
     <use style="fill-opacity:0.3;stroke:#000000;stroke-opacity:0.3;" x="294.974369" xlink:href="#mca8bafc547" y="248.240973"/>
     <use style="fill-opacity:0.3;stroke:#000000;stroke-opacity:0.3;" x="303.407194" xlink:href="#mca8bafc547" y="244.454387"/>
     <use style="fill-opacity:0.3;stroke:#000000;stroke-opacity:0.3;" x="351.366083" xlink:href="#mca8bafc547" y="245.410736"/>
     <use style="fill-opacity:0.3;stroke:#000000;stroke-opacity:0.3;" x="388.711059" xlink:href="#mca8bafc547" y="246.586812"/>
     <use style="fill-opacity:0.3;stroke:#000000;stroke-opacity:0.3;" x="376.446908" xlink:href="#mca8bafc547" y="245.890161"/>
     <use style="fill-opacity:0.3;stroke:#000000;stroke-opacity:0.3;" x="309.642374" xlink:href="#mca8bafc547" y="250.840359"/>
     <use style="fill-opacity:0.3;stroke:#000000;stroke-opacity:0.3;" x="250.64798" xlink:href="#mca8bafc547" y="248.504271"/>
     <use style="fill-opacity:0.3;stroke:#000000;stroke-opacity:0.3;" x="345.148259" xlink:href="#mca8bafc547" y="245.40865"/>
     <use style="fill-opacity:0.3;stroke:#000000;stroke-opacity:0.3;" x="248.26186" xlink:href="#mca8bafc547" y="248.883014"/>
     <use style="fill-opacity:0.3;stroke:#000000;stroke-opacity:0.3;" x="384.076971" xlink:href="#mca8bafc547" y="245.134563"/>
     <use style="fill-opacity:0.3;stroke:#000000;stroke-opacity:0.3;" x="312.595334" xlink:href="#mca8bafc547" y="247.769362"/>
     <use style="fill-opacity:0.3;stroke:#000000;stroke-opacity:0.3;" x="324.096704" xlink:href="#mca8bafc547" y="249.467137"/>
     <use style="fill-opacity:0.3;stroke:#000000;stroke-opacity:0.3;" x="318.902537" xlink:href="#mca8bafc547" y="251.624582"/>
     <use style="fill-opacity:0.3;stroke:#000000;stroke-opacity:0.3;" x="318.902537" xlink:href="#mca8bafc547" y="251.624582"/>
     <use style="fill-opacity:0.3;stroke:#000000;stroke-opacity:0.3;" x="373.552967" xlink:href="#mca8bafc547" y="245.70066"/>
     <use style="fill-opacity:0.3;stroke:#000000;stroke-opacity:0.3;" x="318.902537" xlink:href="#mca8bafc547" y="251.177698"/>
     <use style="fill-opacity:0.3;stroke:#000000;stroke-opacity:0.3;" x="293.664725" xlink:href="#mca8bafc547" y="251.694748"/>
     <use style="fill-opacity:0.3;stroke:#000000;stroke-opacity:0.3;" x="363.732197" xlink:href="#mca8bafc547" y="245.201544"/>
     <use style="fill-opacity:0.3;stroke:#000000;stroke-opacity:0.3;" x="354.660731" xlink:href="#mca8bafc547" y="245.319643"/>
     <use style="fill-opacity:0.3;stroke:#000000;stroke-opacity:0.3;" x="370.665102" xlink:href="#mca8bafc547" y="246.548045"/>
     <use style="fill-opacity:0.3;stroke:#000000;stroke-opacity:0.3;" x="366.671847" xlink:href="#mca8bafc547" y="244.92592"/>
     <use style="fill-opacity:0.3;stroke:#000000;stroke-opacity:0.3;" x="246.656391" xlink:href="#mca8bafc547" y="251.258453"/>
     <use style="fill-opacity:0.3;stroke:#000000;stroke-opacity:0.3;" x="54" xlink:href="#mca8bafc547" y="251.991997"/>
     <use style="fill-opacity:0.3;stroke:#000000;stroke-opacity:0.3;" x="378.757473" xlink:href="#mca8bafc547" y="245.202965"/>
     <use style="fill-opacity:0.3;stroke:#000000;stroke-opacity:0.3;" x="54" xlink:href="#mca8bafc547" y="251.955154"/>
     <use style="fill-opacity:0.3;stroke:#000000;stroke-opacity:0.3;" x="309.642374" xlink:href="#mca8bafc547" y="248.503294"/>
     <use style="fill-opacity:0.3;stroke:#000000;stroke-opacity:0.3;" x="303.650756" xlink:href="#mca8bafc547" y="246.701451"/>
     <use style="fill-opacity:0.3;stroke:#000000;stroke-opacity:0.3;" x="54" xlink:href="#mca8bafc547" y="251.816089"/>
     <use style="fill-opacity:0.3;stroke:#000000;stroke-opacity:0.3;" x="205.372878" xlink:href="#mca8bafc547" y="251.745663"/>
     <use style="fill-opacity:0.3;stroke:#000000;stroke-opacity:0.3;" x="373.552967" xlink:href="#mca8bafc547" y="251.812643"/>
     <use style="fill-opacity:0.3;stroke:#000000;stroke-opacity:0.3;" x="309.642374" xlink:href="#mca8bafc547" y="248.503294"/>
     <use style="fill-opacity:0.3;stroke:#000000;stroke-opacity:0.3;" x="54" xlink:href="#mca8bafc547" y="251.979721"/>
     <use style="fill-opacity:0.3;stroke:#000000;stroke-opacity:0.3;" x="382.561286" xlink:href="#mca8bafc547" y="245.661764"/>
     <use style="fill-opacity:0.3;stroke:#000000;stroke-opacity:0.3;" x="265.92203" xlink:href="#mca8bafc547" y="251.385272"/>
     <use style="fill-opacity:0.3;stroke:#000000;stroke-opacity:0.3;" x="230.601691" xlink:href="#mca8bafc547" y="251.720317"/>
     <use style="fill-opacity:0.3;stroke:#000000;stroke-opacity:0.3;" x="387.407323" xlink:href="#mca8bafc547" y="247.065071"/>
     <use style="fill-opacity:0.3;stroke:#000000;stroke-opacity:0.3;" x="54" xlink:href="#mca8bafc547" y="251.834814"/>
     <use style="fill-opacity:0.3;stroke:#000000;stroke-opacity:0.3;" x="364.93973" xlink:href="#mca8bafc547" y="246.287903"/>
     <use style="fill-opacity:0.3;stroke:#000000;stroke-opacity:0.3;" x="293.664725" xlink:href="#mca8bafc547" y="251.627094"/>
     <use style="fill-opacity:0.3;stroke:#000000;stroke-opacity:0.3;" x="339.915813" xlink:href="#mca8bafc547" y="247.885198"/>
     <use style="fill-opacity:0.3;stroke:#000000;stroke-opacity:0.3;" x="292.702217" xlink:href="#mca8bafc547" y="247.022284"/>
     <use style="fill-opacity:0.3;stroke:#000000;stroke-opacity:0.3;" x="54" xlink:href="#mca8bafc547" y="251.816089"/>
     <use style="fill-opacity:0.3;stroke:#000000;stroke-opacity:0.3;" x="104.457626" xlink:href="#mca8bafc547" y="59.723103"/>
     <use style="fill-opacity:0.3;stroke:#000000;stroke-opacity:0.3;" x="240.990026" xlink:href="#mca8bafc547" y="236.072669"/>
     <use style="fill-opacity:0.3;stroke:#000000;stroke-opacity:0.3;" x="183.342084" xlink:href="#mca8bafc547" y="229.378842"/>
     <use style="fill-opacity:0.3;stroke:#000000;stroke-opacity:0.3;" x="291.24387" xlink:href="#mca8bafc547" y="244.332284"/>
     <use style="fill-opacity:0.3;stroke:#000000;stroke-opacity:0.3;" x="167.291651" xlink:href="#mca8bafc547" y="210.655289"/>
     <use style="fill-opacity:0.3;stroke:#000000;stroke-opacity:0.3;" x="363.514654" xlink:href="#mca8bafc547" y="244.551685"/>
    </g>
   </g>
   <g id="matplotlib.axis_1">
    <g id="xtick_1">
     <g id="line2d_1">
      <defs>
       <path d="M 0 0 
L 0 3.5 
" id="m936cc8b8ba" style="stroke:#000000;stroke-width:0.8;"/>
      </defs>
      <g>
       <use style="stroke:#000000;stroke-width:0.8;" x="54" xlink:href="#m936cc8b8ba" y="252"/>
      </g>
     </g>
     <g id="text_1">
      <!-- 0.0 -->
      <defs>
       <path d="M 31.78125 66.40625 
Q 24.171875 66.40625 20.328125 58.90625 
Q 16.5 51.421875 16.5 36.375 
Q 16.5 21.390625 20.328125 13.890625 
Q 24.171875 6.390625 31.78125 6.390625 
Q 39.453125 6.390625 43.28125 13.890625 
Q 47.125 21.390625 47.125 36.375 
Q 47.125 51.421875 43.28125 58.90625 
Q 39.453125 66.40625 31.78125 66.40625 
z
M 31.78125 74.21875 
Q 44.046875 74.21875 50.515625 64.515625 
Q 56.984375 54.828125 56.984375 36.375 
Q 56.984375 17.96875 50.515625 8.265625 
Q 44.046875 -1.421875 31.78125 -1.421875 
Q 19.53125 -1.421875 13.0625 8.265625 
Q 6.59375 17.96875 6.59375 36.375 
Q 6.59375 54.828125 13.0625 64.515625 
Q 19.53125 74.21875 31.78125 74.21875 
z
" id="DejaVuSans-30"/>
       <path d="M 10.6875 12.40625 
L 21 12.40625 
L 21 0 
L 10.6875 0 
z
" id="DejaVuSans-2e"/>
      </defs>
      <g transform="translate(46.048437 266.598437)scale(0.1 -0.1)">
       <use xlink:href="#DejaVuSans-30"/>
       <use x="63.623047" xlink:href="#DejaVuSans-2e"/>
       <use x="95.410156" xlink:href="#DejaVuSans-30"/>
      </g>
     </g>
    </g>
    <g id="xtick_2">
     <g id="line2d_2">
      <g>
       <use style="stroke:#000000;stroke-width:0.8;" x="121.191425" xlink:href="#m936cc8b8ba" y="252"/>
      </g>
     </g>
     <g id="text_2">
      <!-- 0.2 -->
      <defs>
       <path d="M 19.1875 8.296875 
L 53.609375 8.296875 
L 53.609375 0 
L 7.328125 0 
L 7.328125 8.296875 
Q 12.9375 14.109375 22.625 23.890625 
Q 32.328125 33.6875 34.8125 36.53125 
Q 39.546875 41.84375 41.421875 45.53125 
Q 43.3125 49.21875 43.3125 52.78125 
Q 43.3125 58.59375 39.234375 62.25 
Q 35.15625 65.921875 28.609375 65.921875 
Q 23.96875 65.921875 18.8125 64.3125 
Q 13.671875 62.703125 7.8125 59.421875 
L 7.8125 69.390625 
Q 13.765625 71.78125 18.9375 73 
Q 24.125 74.21875 28.421875 74.21875 
Q 39.75 74.21875 46.484375 68.546875 
Q 53.21875 62.890625 53.21875 53.421875 
Q 53.21875 48.921875 51.53125 44.890625 
Q 49.859375 40.875 45.40625 35.40625 
Q 44.1875 33.984375 37.640625 27.21875 
Q 31.109375 20.453125 19.1875 8.296875 
z
" id="DejaVuSans-32"/>
      </defs>
      <g transform="translate(113.239862 266.598437)scale(0.1 -0.1)">
       <use xlink:href="#DejaVuSans-30"/>
       <use x="63.623047" xlink:href="#DejaVuSans-2e"/>
       <use x="95.410156" xlink:href="#DejaVuSans-32"/>
      </g>
     </g>
    </g>
    <g id="xtick_3">
     <g id="line2d_3">
      <g>
       <use style="stroke:#000000;stroke-width:0.8;" x="188.382849" xlink:href="#m936cc8b8ba" y="252"/>
      </g>
     </g>
     <g id="text_3">
      <!-- 0.4 -->
      <defs>
       <path d="M 37.796875 64.3125 
L 12.890625 25.390625 
L 37.796875 25.390625 
z
M 35.203125 72.90625 
L 47.609375 72.90625 
L 47.609375 25.390625 
L 58.015625 25.390625 
L 58.015625 17.1875 
L 47.609375 17.1875 
L 47.609375 0 
L 37.796875 0 
L 37.796875 17.1875 
L 4.890625 17.1875 
L 4.890625 26.703125 
z
" id="DejaVuSans-34"/>
      </defs>
      <g transform="translate(180.431287 266.598437)scale(0.1 -0.1)">
       <use xlink:href="#DejaVuSans-30"/>
       <use x="63.623047" xlink:href="#DejaVuSans-2e"/>
       <use x="95.410156" xlink:href="#DejaVuSans-34"/>
      </g>
     </g>
    </g>
    <g id="xtick_4">
     <g id="line2d_4">
      <g>
       <use style="stroke:#000000;stroke-width:0.8;" x="255.574274" xlink:href="#m936cc8b8ba" y="252"/>
      </g>
     </g>
     <g id="text_4">
      <!-- 0.6 -->
      <defs>
       <path d="M 33.015625 40.375 
Q 26.375 40.375 22.484375 35.828125 
Q 18.609375 31.296875 18.609375 23.390625 
Q 18.609375 15.53125 22.484375 10.953125 
Q 26.375 6.390625 33.015625 6.390625 
Q 39.65625 6.390625 43.53125 10.953125 
Q 47.40625 15.53125 47.40625 23.390625 
Q 47.40625 31.296875 43.53125 35.828125 
Q 39.65625 40.375 33.015625 40.375 
z
M 52.59375 71.296875 
L 52.59375 62.3125 
Q 48.875 64.0625 45.09375 64.984375 
Q 41.3125 65.921875 37.59375 65.921875 
Q 27.828125 65.921875 22.671875 59.328125 
Q 17.53125 52.734375 16.796875 39.40625 
Q 19.671875 43.65625 24.015625 45.921875 
Q 28.375 48.1875 33.59375 48.1875 
Q 44.578125 48.1875 50.953125 41.515625 
Q 57.328125 34.859375 57.328125 23.390625 
Q 57.328125 12.15625 50.6875 5.359375 
Q 44.046875 -1.421875 33.015625 -1.421875 
Q 20.359375 -1.421875 13.671875 8.265625 
Q 6.984375 17.96875 6.984375 36.375 
Q 6.984375 53.65625 15.1875 63.9375 
Q 23.390625 74.21875 37.203125 74.21875 
Q 40.921875 74.21875 44.703125 73.484375 
Q 48.484375 72.75 52.59375 71.296875 
z
" id="DejaVuSans-36"/>
      </defs>
      <g transform="translate(247.622712 266.598437)scale(0.1 -0.1)">
       <use xlink:href="#DejaVuSans-30"/>
       <use x="63.623047" xlink:href="#DejaVuSans-2e"/>
       <use x="95.410156" xlink:href="#DejaVuSans-36"/>
      </g>
     </g>
    </g>
    <g id="xtick_5">
     <g id="line2d_5">
      <g>
       <use style="stroke:#000000;stroke-width:0.8;" x="322.765699" xlink:href="#m936cc8b8ba" y="252"/>
      </g>
     </g>
     <g id="text_5">
      <!-- 0.8 -->
      <defs>
       <path d="M 31.78125 34.625 
Q 24.75 34.625 20.71875 30.859375 
Q 16.703125 27.09375 16.703125 20.515625 
Q 16.703125 13.921875 20.71875 10.15625 
Q 24.75 6.390625 31.78125 6.390625 
Q 38.8125 6.390625 42.859375 10.171875 
Q 46.921875 13.96875 46.921875 20.515625 
Q 46.921875 27.09375 42.890625 30.859375 
Q 38.875 34.625 31.78125 34.625 
z
M 21.921875 38.8125 
Q 15.578125 40.375 12.03125 44.71875 
Q 8.5 49.078125 8.5 55.328125 
Q 8.5 64.0625 14.71875 69.140625 
Q 20.953125 74.21875 31.78125 74.21875 
Q 42.671875 74.21875 48.875 69.140625 
Q 55.078125 64.0625 55.078125 55.328125 
Q 55.078125 49.078125 51.53125 44.71875 
Q 48 40.375 41.703125 38.8125 
Q 48.828125 37.15625 52.796875 32.3125 
Q 56.78125 27.484375 56.78125 20.515625 
Q 56.78125 9.90625 50.3125 4.234375 
Q 43.84375 -1.421875 31.78125 -1.421875 
Q 19.734375 -1.421875 13.25 4.234375 
Q 6.78125 9.90625 6.78125 20.515625 
Q 6.78125 27.484375 10.78125 32.3125 
Q 14.796875 37.15625 21.921875 38.8125 
z
M 18.3125 54.390625 
Q 18.3125 48.734375 21.84375 45.5625 
Q 25.390625 42.390625 31.78125 42.390625 
Q 38.140625 42.390625 41.71875 45.5625 
Q 45.3125 48.734375 45.3125 54.390625 
Q 45.3125 60.0625 41.71875 63.234375 
Q 38.140625 66.40625 31.78125 66.40625 
Q 25.390625 66.40625 21.84375 63.234375 
Q 18.3125 60.0625 18.3125 54.390625 
z
" id="DejaVuSans-38"/>
      </defs>
      <g transform="translate(314.814136 266.598437)scale(0.1 -0.1)">
       <use xlink:href="#DejaVuSans-30"/>
       <use x="63.623047" xlink:href="#DejaVuSans-2e"/>
       <use x="95.410156" xlink:href="#DejaVuSans-38"/>
      </g>
     </g>
    </g>
    <g id="text_6">
     <!-- fractional ratio -->
     <defs>
      <path d="M 37.109375 75.984375 
L 37.109375 68.5 
L 28.515625 68.5 
Q 23.6875 68.5 21.796875 66.546875 
Q 19.921875 64.59375 19.921875 59.515625 
L 19.921875 54.6875 
L 34.71875 54.6875 
L 34.71875 47.703125 
L 19.921875 47.703125 
L 19.921875 0 
L 10.890625 0 
L 10.890625 47.703125 
L 2.296875 47.703125 
L 2.296875 54.6875 
L 10.890625 54.6875 
L 10.890625 58.5 
Q 10.890625 67.625 15.140625 71.796875 
Q 19.390625 75.984375 28.609375 75.984375 
z
" id="DejaVuSans-66"/>
      <path d="M 41.109375 46.296875 
Q 39.59375 47.171875 37.8125 47.578125 
Q 36.03125 48 33.890625 48 
Q 26.265625 48 22.1875 43.046875 
Q 18.109375 38.09375 18.109375 28.8125 
L 18.109375 0 
L 9.078125 0 
L 9.078125 54.6875 
L 18.109375 54.6875 
L 18.109375 46.1875 
Q 20.953125 51.171875 25.484375 53.578125 
Q 30.03125 56 36.53125 56 
Q 37.453125 56 38.578125 55.875 
Q 39.703125 55.765625 41.0625 55.515625 
z
" id="DejaVuSans-72"/>
      <path d="M 34.28125 27.484375 
Q 23.390625 27.484375 19.1875 25 
Q 14.984375 22.515625 14.984375 16.5 
Q 14.984375 11.71875 18.140625 8.90625 
Q 21.296875 6.109375 26.703125 6.109375 
Q 34.1875 6.109375 38.703125 11.40625 
Q 43.21875 16.703125 43.21875 25.484375 
L 43.21875 27.484375 
z
M 52.203125 31.203125 
L 52.203125 0 
L 43.21875 0 
L 43.21875 8.296875 
Q 40.140625 3.328125 35.546875 0.953125 
Q 30.953125 -1.421875 24.3125 -1.421875 
Q 15.921875 -1.421875 10.953125 3.296875 
Q 6 8.015625 6 15.921875 
Q 6 25.140625 12.171875 29.828125 
Q 18.359375 34.515625 30.609375 34.515625 
L 43.21875 34.515625 
L 43.21875 35.40625 
Q 43.21875 41.609375 39.140625 45 
Q 35.0625 48.390625 27.6875 48.390625 
Q 23 48.390625 18.546875 47.265625 
Q 14.109375 46.140625 10.015625 43.890625 
L 10.015625 52.203125 
Q 14.9375 54.109375 19.578125 55.046875 
Q 24.21875 56 28.609375 56 
Q 40.484375 56 46.34375 49.84375 
Q 52.203125 43.703125 52.203125 31.203125 
z
" id="DejaVuSans-61"/>
      <path d="M 48.78125 52.59375 
L 48.78125 44.1875 
Q 44.96875 46.296875 41.140625 47.34375 
Q 37.3125 48.390625 33.40625 48.390625 
Q 24.65625 48.390625 19.8125 42.84375 
Q 14.984375 37.3125 14.984375 27.296875 
Q 14.984375 17.28125 19.8125 11.734375 
Q 24.65625 6.203125 33.40625 6.203125 
Q 37.3125 6.203125 41.140625 7.25 
Q 44.96875 8.296875 48.78125 10.40625 
L 48.78125 2.09375 
Q 45.015625 0.34375 40.984375 -0.53125 
Q 36.96875 -1.421875 32.421875 -1.421875 
Q 20.0625 -1.421875 12.78125 6.34375 
Q 5.515625 14.109375 5.515625 27.296875 
Q 5.515625 40.671875 12.859375 48.328125 
Q 20.21875 56 33.015625 56 
Q 37.15625 56 41.109375 55.140625 
Q 45.0625 54.296875 48.78125 52.59375 
z
" id="DejaVuSans-63"/>
      <path d="M 18.3125 70.21875 
L 18.3125 54.6875 
L 36.8125 54.6875 
L 36.8125 47.703125 
L 18.3125 47.703125 
L 18.3125 18.015625 
Q 18.3125 11.328125 20.140625 9.421875 
Q 21.96875 7.515625 27.59375 7.515625 
L 36.8125 7.515625 
L 36.8125 0 
L 27.59375 0 
Q 17.1875 0 13.234375 3.875 
Q 9.28125 7.765625 9.28125 18.015625 
L 9.28125 47.703125 
L 2.6875 47.703125 
L 2.6875 54.6875 
L 9.28125 54.6875 
L 9.28125 70.21875 
z
" id="DejaVuSans-74"/>
      <path d="M 9.421875 54.6875 
L 18.40625 54.6875 
L 18.40625 0 
L 9.421875 0 
z
M 9.421875 75.984375 
L 18.40625 75.984375 
L 18.40625 64.59375 
L 9.421875 64.59375 
z
" id="DejaVuSans-69"/>
      <path d="M 30.609375 48.390625 
Q 23.390625 48.390625 19.1875 42.75 
Q 14.984375 37.109375 14.984375 27.296875 
Q 14.984375 17.484375 19.15625 11.84375 
Q 23.34375 6.203125 30.609375 6.203125 
Q 37.796875 6.203125 41.984375 11.859375 
Q 46.1875 17.53125 46.1875 27.296875 
Q 46.1875 37.015625 41.984375 42.703125 
Q 37.796875 48.390625 30.609375 48.390625 
z
M 30.609375 56 
Q 42.328125 56 49.015625 48.375 
Q 55.71875 40.765625 55.71875 27.296875 
Q 55.71875 13.875 49.015625 6.21875 
Q 42.328125 -1.421875 30.609375 -1.421875 
Q 18.84375 -1.421875 12.171875 6.21875 
Q 5.515625 13.875 5.515625 27.296875 
Q 5.515625 40.765625 12.171875 48.375 
Q 18.84375 56 30.609375 56 
z
" id="DejaVuSans-6f"/>
      <path d="M 54.890625 33.015625 
L 54.890625 0 
L 45.90625 0 
L 45.90625 32.71875 
Q 45.90625 40.484375 42.875 44.328125 
Q 39.84375 48.1875 33.796875 48.1875 
Q 26.515625 48.1875 22.3125 43.546875 
Q 18.109375 38.921875 18.109375 30.90625 
L 18.109375 0 
L 9.078125 0 
L 9.078125 54.6875 
L 18.109375 54.6875 
L 18.109375 46.1875 
Q 21.34375 51.125 25.703125 53.5625 
Q 30.078125 56 35.796875 56 
Q 45.21875 56 50.046875 50.171875 
Q 54.890625 44.34375 54.890625 33.015625 
z
" id="DejaVuSans-6e"/>
      <path d="M 9.421875 75.984375 
L 18.40625 75.984375 
L 18.40625 0 
L 9.421875 0 
z
" id="DejaVuSans-6c"/>
      <path id="DejaVuSans-20"/>
     </defs>
     <g transform="translate(184.623437 280.276563)scale(0.1 -0.1)">
      <use xlink:href="#DejaVuSans-66"/>
      <use x="35.205078" xlink:href="#DejaVuSans-72"/>
      <use x="76.318359" xlink:href="#DejaVuSans-61"/>
      <use x="137.597656" xlink:href="#DejaVuSans-63"/>
      <use x="192.578125" xlink:href="#DejaVuSans-74"/>
      <use x="231.787109" xlink:href="#DejaVuSans-69"/>
      <use x="259.570312" xlink:href="#DejaVuSans-6f"/>
      <use x="320.751953" xlink:href="#DejaVuSans-6e"/>
      <use x="384.130859" xlink:href="#DejaVuSans-61"/>
      <use x="445.410156" xlink:href="#DejaVuSans-6c"/>
      <use x="473.193359" xlink:href="#DejaVuSans-20"/>
      <use x="504.980469" xlink:href="#DejaVuSans-72"/>
      <use x="546.09375" xlink:href="#DejaVuSans-61"/>
      <use x="607.373047" xlink:href="#DejaVuSans-74"/>
      <use x="646.582031" xlink:href="#DejaVuSans-69"/>
      <use x="674.365234" xlink:href="#DejaVuSans-6f"/>
     </g>
    </g>
   </g>
   <g id="matplotlib.axis_2">
    <g id="ytick_1">
     <g id="line2d_6">
      <defs>
       <path d="M 0 0 
L -3.5 0 
" id="m70697624dd" style="stroke:#000000;stroke-width:0.8;"/>
      </defs>
      <g>
       <use style="stroke:#000000;stroke-width:0.8;" x="54" xlink:href="#m70697624dd" y="252"/>
      </g>
     </g>
     <g id="text_7">
      <!-- 0.00 -->
      <g transform="translate(24.734375 255.799219)scale(0.1 -0.1)">
       <use xlink:href="#DejaVuSans-30"/>
       <use x="63.623047" xlink:href="#DejaVuSans-2e"/>
       <use x="95.410156" xlink:href="#DejaVuSans-30"/>
       <use x="159.033203" xlink:href="#DejaVuSans-30"/>
      </g>
     </g>
    </g>
    <g id="ytick_2">
     <g id="line2d_7">
      <g>
       <use style="stroke:#000000;stroke-width:0.8;" x="54" xlink:href="#m70697624dd" y="226.720162"/>
      </g>
     </g>
     <g id="text_8">
      <!-- 0.02 -->
      <g transform="translate(24.734375 230.51938)scale(0.1 -0.1)">
       <use xlink:href="#DejaVuSans-30"/>
       <use x="63.623047" xlink:href="#DejaVuSans-2e"/>
       <use x="95.410156" xlink:href="#DejaVuSans-30"/>
       <use x="159.033203" xlink:href="#DejaVuSans-32"/>
      </g>
     </g>
    </g>
    <g id="ytick_3">
     <g id="line2d_8">
      <g>
       <use style="stroke:#000000;stroke-width:0.8;" x="54" xlink:href="#m70697624dd" y="201.440323"/>
      </g>
     </g>
     <g id="text_9">
      <!-- 0.04 -->
      <g transform="translate(24.734375 205.239542)scale(0.1 -0.1)">
       <use xlink:href="#DejaVuSans-30"/>
       <use x="63.623047" xlink:href="#DejaVuSans-2e"/>
       <use x="95.410156" xlink:href="#DejaVuSans-30"/>
       <use x="159.033203" xlink:href="#DejaVuSans-34"/>
      </g>
     </g>
    </g>
    <g id="ytick_4">
     <g id="line2d_9">
      <g>
       <use style="stroke:#000000;stroke-width:0.8;" x="54" xlink:href="#m70697624dd" y="176.160485"/>
      </g>
     </g>
     <g id="text_10">
      <!-- 0.06 -->
      <g transform="translate(24.734375 179.959704)scale(0.1 -0.1)">
       <use xlink:href="#DejaVuSans-30"/>
       <use x="63.623047" xlink:href="#DejaVuSans-2e"/>
       <use x="95.410156" xlink:href="#DejaVuSans-30"/>
       <use x="159.033203" xlink:href="#DejaVuSans-36"/>
      </g>
     </g>
    </g>
    <g id="ytick_5">
     <g id="line2d_10">
      <g>
       <use style="stroke:#000000;stroke-width:0.8;" x="54" xlink:href="#m70697624dd" y="150.880647"/>
      </g>
     </g>
     <g id="text_11">
      <!-- 0.08 -->
      <g transform="translate(24.734375 154.679865)scale(0.1 -0.1)">
       <use xlink:href="#DejaVuSans-30"/>
       <use x="63.623047" xlink:href="#DejaVuSans-2e"/>
       <use x="95.410156" xlink:href="#DejaVuSans-30"/>
       <use x="159.033203" xlink:href="#DejaVuSans-38"/>
      </g>
     </g>
    </g>
    <g id="ytick_6">
     <g id="line2d_11">
      <g>
       <use style="stroke:#000000;stroke-width:0.8;" x="54" xlink:href="#m70697624dd" y="125.600808"/>
      </g>
     </g>
     <g id="text_12">
      <!-- 0.10 -->
      <defs>
       <path d="M 12.40625 8.296875 
L 28.515625 8.296875 
L 28.515625 63.921875 
L 10.984375 60.40625 
L 10.984375 69.390625 
L 28.421875 72.90625 
L 38.28125 72.90625 
L 38.28125 8.296875 
L 54.390625 8.296875 
L 54.390625 0 
L 12.40625 0 
z
" id="DejaVuSans-31"/>
      </defs>
      <g transform="translate(24.734375 129.400027)scale(0.1 -0.1)">
       <use xlink:href="#DejaVuSans-30"/>
       <use x="63.623047" xlink:href="#DejaVuSans-2e"/>
       <use x="95.410156" xlink:href="#DejaVuSans-31"/>
       <use x="159.033203" xlink:href="#DejaVuSans-30"/>
      </g>
     </g>
    </g>
    <g id="ytick_7">
     <g id="line2d_12">
      <g>
       <use style="stroke:#000000;stroke-width:0.8;" x="54" xlink:href="#m70697624dd" y="100.32097"/>
      </g>
     </g>
     <g id="text_13">
      <!-- 0.12 -->
      <g transform="translate(24.734375 104.120189)scale(0.1 -0.1)">
       <use xlink:href="#DejaVuSans-30"/>
       <use x="63.623047" xlink:href="#DejaVuSans-2e"/>
       <use x="95.410156" xlink:href="#DejaVuSans-31"/>
       <use x="159.033203" xlink:href="#DejaVuSans-32"/>
      </g>
     </g>
    </g>
    <g id="ytick_8">
     <g id="line2d_13">
      <g>
       <use style="stroke:#000000;stroke-width:0.8;" x="54" xlink:href="#m70697624dd" y="75.041131"/>
      </g>
     </g>
     <g id="text_14">
      <!-- 0.14 -->
      <g transform="translate(24.734375 78.84035)scale(0.1 -0.1)">
       <use xlink:href="#DejaVuSans-30"/>
       <use x="63.623047" xlink:href="#DejaVuSans-2e"/>
       <use x="95.410156" xlink:href="#DejaVuSans-31"/>
       <use x="159.033203" xlink:href="#DejaVuSans-34"/>
      </g>
     </g>
    </g>
    <g id="ytick_9">
     <g id="line2d_14">
      <g>
       <use style="stroke:#000000;stroke-width:0.8;" x="54" xlink:href="#m70697624dd" y="49.761293"/>
      </g>
     </g>
     <g id="text_15">
      <!-- 0.16 -->
      <g transform="translate(24.734375 53.560512)scale(0.1 -0.1)">
       <use xlink:href="#DejaVuSans-30"/>
       <use x="63.623047" xlink:href="#DejaVuSans-2e"/>
       <use x="95.410156" xlink:href="#DejaVuSans-31"/>
       <use x="159.033203" xlink:href="#DejaVuSans-36"/>
      </g>
     </g>
    </g>
    <g id="text_16">
     <!-- fractional importance -->
     <defs>
      <path d="M 52 44.1875 
Q 55.375 50.25 60.0625 53.125 
Q 64.75 56 71.09375 56 
Q 79.640625 56 84.28125 50.015625 
Q 88.921875 44.046875 88.921875 33.015625 
L 88.921875 0 
L 79.890625 0 
L 79.890625 32.71875 
Q 79.890625 40.578125 77.09375 44.375 
Q 74.3125 48.1875 68.609375 48.1875 
Q 61.625 48.1875 57.5625 43.546875 
Q 53.515625 38.921875 53.515625 30.90625 
L 53.515625 0 
L 44.484375 0 
L 44.484375 32.71875 
Q 44.484375 40.625 41.703125 44.40625 
Q 38.921875 48.1875 33.109375 48.1875 
Q 26.21875 48.1875 22.15625 43.53125 
Q 18.109375 38.875 18.109375 30.90625 
L 18.109375 0 
L 9.078125 0 
L 9.078125 54.6875 
L 18.109375 54.6875 
L 18.109375 46.1875 
Q 21.1875 51.21875 25.484375 53.609375 
Q 29.78125 56 35.6875 56 
Q 41.65625 56 45.828125 52.96875 
Q 50 49.953125 52 44.1875 
z
" id="DejaVuSans-6d"/>
      <path d="M 18.109375 8.203125 
L 18.109375 -20.796875 
L 9.078125 -20.796875 
L 9.078125 54.6875 
L 18.109375 54.6875 
L 18.109375 46.390625 
Q 20.953125 51.265625 25.265625 53.625 
Q 29.59375 56 35.59375 56 
Q 45.5625 56 51.78125 48.09375 
Q 58.015625 40.1875 58.015625 27.296875 
Q 58.015625 14.40625 51.78125 6.484375 
Q 45.5625 -1.421875 35.59375 -1.421875 
Q 29.59375 -1.421875 25.265625 0.953125 
Q 20.953125 3.328125 18.109375 8.203125 
z
M 48.6875 27.296875 
Q 48.6875 37.203125 44.609375 42.84375 
Q 40.53125 48.484375 33.40625 48.484375 
Q 26.265625 48.484375 22.1875 42.84375 
Q 18.109375 37.203125 18.109375 27.296875 
Q 18.109375 17.390625 22.1875 11.75 
Q 26.265625 6.109375 33.40625 6.109375 
Q 40.53125 6.109375 44.609375 11.75 
Q 48.6875 17.390625 48.6875 27.296875 
z
" id="DejaVuSans-70"/>
      <path d="M 56.203125 29.59375 
L 56.203125 25.203125 
L 14.890625 25.203125 
Q 15.484375 15.921875 20.484375 11.0625 
Q 25.484375 6.203125 34.421875 6.203125 
Q 39.59375 6.203125 44.453125 7.46875 
Q 49.3125 8.734375 54.109375 11.28125 
L 54.109375 2.78125 
Q 49.265625 0.734375 44.1875 -0.34375 
Q 39.109375 -1.421875 33.890625 -1.421875 
Q 20.796875 -1.421875 13.15625 6.1875 
Q 5.515625 13.8125 5.515625 26.8125 
Q 5.515625 40.234375 12.765625 48.109375 
Q 20.015625 56 32.328125 56 
Q 43.359375 56 49.78125 48.890625 
Q 56.203125 41.796875 56.203125 29.59375 
z
M 47.21875 32.234375 
Q 47.125 39.59375 43.09375 43.984375 
Q 39.0625 48.390625 32.421875 48.390625 
Q 24.90625 48.390625 20.390625 44.140625 
Q 15.875 39.890625 15.1875 32.171875 
z
" id="DejaVuSans-65"/>
     </defs>
     <g transform="translate(18.654687 197.095625)rotate(-90)scale(0.1 -0.1)">
      <use xlink:href="#DejaVuSans-66"/>
      <use x="35.205078" xlink:href="#DejaVuSans-72"/>
      <use x="76.318359" xlink:href="#DejaVuSans-61"/>
      <use x="137.597656" xlink:href="#DejaVuSans-63"/>
      <use x="192.578125" xlink:href="#DejaVuSans-74"/>
      <use x="231.787109" xlink:href="#DejaVuSans-69"/>
      <use x="259.570312" xlink:href="#DejaVuSans-6f"/>
      <use x="320.751953" xlink:href="#DejaVuSans-6e"/>
      <use x="384.130859" xlink:href="#DejaVuSans-61"/>
      <use x="445.410156" xlink:href="#DejaVuSans-6c"/>
      <use x="473.193359" xlink:href="#DejaVuSans-20"/>
      <use x="504.980469" xlink:href="#DejaVuSans-69"/>
      <use x="532.763672" xlink:href="#DejaVuSans-6d"/>
      <use x="630.175781" xlink:href="#DejaVuSans-70"/>
      <use x="693.652344" xlink:href="#DejaVuSans-6f"/>
      <use x="754.833984" xlink:href="#DejaVuSans-72"/>
      <use x="795.947266" xlink:href="#DejaVuSans-74"/>
      <use x="835.15625" xlink:href="#DejaVuSans-61"/>
      <use x="896.435547" xlink:href="#DejaVuSans-6e"/>
      <use x="959.814453" xlink:href="#DejaVuSans-63"/>
      <use x="1014.794922" xlink:href="#DejaVuSans-65"/>
     </g>
    </g>
   </g>
   <g id="patch_3">
    <path d="M 54 252 
L 54 34.56 
" style="fill:none;stroke:#000000;stroke-linecap:square;stroke-linejoin:miter;stroke-width:0.8;"/>
   </g>
   <g id="patch_4">
    <path d="M 388.8 252 
L 388.8 34.56 
" style="fill:none;stroke:#000000;stroke-linecap:square;stroke-linejoin:miter;stroke-width:0.8;"/>
   </g>
   <g id="patch_5">
    <path d="M 54 252 
L 388.8 252 
" style="fill:none;stroke:#000000;stroke-linecap:square;stroke-linejoin:miter;stroke-width:0.8;"/>
   </g>
   <g id="patch_6">
    <path d="M 54 34.56 
L 388.8 34.56 
" style="fill:none;stroke:#000000;stroke-linecap:square;stroke-linejoin:miter;stroke-width:0.8;"/>
   </g>
   <g id="text_17">
    <!-- Staphylococcus epidermidis -->
    <defs>
     <path d="M 53.515625 70.515625 
L 53.515625 60.890625 
Q 47.90625 63.578125 42.921875 64.890625 
Q 37.9375 66.21875 33.296875 66.21875 
Q 25.25 66.21875 20.875 63.09375 
Q 16.5 59.96875 16.5 54.203125 
Q 16.5 49.359375 19.40625 46.890625 
Q 22.3125 44.4375 30.421875 42.921875 
L 36.375 41.703125 
Q 47.40625 39.59375 52.65625 34.296875 
Q 57.90625 29 57.90625 20.125 
Q 57.90625 9.515625 50.796875 4.046875 
Q 43.703125 -1.421875 29.984375 -1.421875 
Q 24.8125 -1.421875 18.96875 -0.25 
Q 13.140625 0.921875 6.890625 3.21875 
L 6.890625 13.375 
Q 12.890625 10.015625 18.65625 8.296875 
Q 24.421875 6.59375 29.984375 6.59375 
Q 38.421875 6.59375 43.015625 9.90625 
Q 47.609375 13.234375 47.609375 19.390625 
Q 47.609375 24.75 44.3125 27.78125 
Q 41.015625 30.8125 33.5 32.328125 
L 27.484375 33.5 
Q 16.453125 35.6875 11.515625 40.375 
Q 6.59375 45.0625 6.59375 53.421875 
Q 6.59375 63.09375 13.40625 68.65625 
Q 20.21875 74.21875 32.171875 74.21875 
Q 37.3125 74.21875 42.625 73.28125 
Q 47.953125 72.359375 53.515625 70.515625 
z
" id="DejaVuSans-53"/>
     <path d="M 54.890625 33.015625 
L 54.890625 0 
L 45.90625 0 
L 45.90625 32.71875 
Q 45.90625 40.484375 42.875 44.328125 
Q 39.84375 48.1875 33.796875 48.1875 
Q 26.515625 48.1875 22.3125 43.546875 
Q 18.109375 38.921875 18.109375 30.90625 
L 18.109375 0 
L 9.078125 0 
L 9.078125 75.984375 
L 18.109375 75.984375 
L 18.109375 46.1875 
Q 21.34375 51.125 25.703125 53.5625 
Q 30.078125 56 35.796875 56 
Q 45.21875 56 50.046875 50.171875 
Q 54.890625 44.34375 54.890625 33.015625 
z
" id="DejaVuSans-68"/>
     <path d="M 32.171875 -5.078125 
Q 28.375 -14.84375 24.75 -17.8125 
Q 21.140625 -20.796875 15.09375 -20.796875 
L 7.90625 -20.796875 
L 7.90625 -13.28125 
L 13.1875 -13.28125 
Q 16.890625 -13.28125 18.9375 -11.515625 
Q 21 -9.765625 23.484375 -3.21875 
L 25.09375 0.875 
L 2.984375 54.6875 
L 12.5 54.6875 
L 29.59375 11.921875 
L 46.6875 54.6875 
L 56.203125 54.6875 
z
" id="DejaVuSans-79"/>
     <path d="M 8.5 21.578125 
L 8.5 54.6875 
L 17.484375 54.6875 
L 17.484375 21.921875 
Q 17.484375 14.15625 20.5 10.265625 
Q 23.53125 6.390625 29.59375 6.390625 
Q 36.859375 6.390625 41.078125 11.03125 
Q 45.3125 15.671875 45.3125 23.6875 
L 45.3125 54.6875 
L 54.296875 54.6875 
L 54.296875 0 
L 45.3125 0 
L 45.3125 8.40625 
Q 42.046875 3.421875 37.71875 1 
Q 33.40625 -1.421875 27.6875 -1.421875 
Q 18.265625 -1.421875 13.375 4.4375 
Q 8.5 10.296875 8.5 21.578125 
z
M 31.109375 56 
z
" id="DejaVuSans-75"/>
     <path d="M 44.28125 53.078125 
L 44.28125 44.578125 
Q 40.484375 46.53125 36.375 47.5 
Q 32.28125 48.484375 27.875 48.484375 
Q 21.1875 48.484375 17.84375 46.4375 
Q 14.5 44.390625 14.5 40.28125 
Q 14.5 37.15625 16.890625 35.375 
Q 19.28125 33.59375 26.515625 31.984375 
L 29.59375 31.296875 
Q 39.15625 29.25 43.1875 25.515625 
Q 47.21875 21.78125 47.21875 15.09375 
Q 47.21875 7.46875 41.1875 3.015625 
Q 35.15625 -1.421875 24.609375 -1.421875 
Q 20.21875 -1.421875 15.453125 -0.5625 
Q 10.6875 0.296875 5.421875 2 
L 5.421875 11.28125 
Q 10.40625 8.6875 15.234375 7.390625 
Q 20.0625 6.109375 24.8125 6.109375 
Q 31.15625 6.109375 34.5625 8.28125 
Q 37.984375 10.453125 37.984375 14.40625 
Q 37.984375 18.0625 35.515625 20.015625 
Q 33.0625 21.96875 24.703125 23.78125 
L 21.578125 24.515625 
Q 13.234375 26.265625 9.515625 29.90625 
Q 5.8125 33.546875 5.8125 39.890625 
Q 5.8125 47.609375 11.28125 51.796875 
Q 16.75 56 26.8125 56 
Q 31.78125 56 36.171875 55.265625 
Q 40.578125 54.546875 44.28125 53.078125 
z
" id="DejaVuSans-73"/>
     <path d="M 45.40625 46.390625 
L 45.40625 75.984375 
L 54.390625 75.984375 
L 54.390625 0 
L 45.40625 0 
L 45.40625 8.203125 
Q 42.578125 3.328125 38.25 0.953125 
Q 33.9375 -1.421875 27.875 -1.421875 
Q 17.96875 -1.421875 11.734375 6.484375 
Q 5.515625 14.40625 5.515625 27.296875 
Q 5.515625 40.1875 11.734375 48.09375 
Q 17.96875 56 27.875 56 
Q 33.9375 56 38.25 53.625 
Q 42.578125 51.265625 45.40625 46.390625 
z
M 14.796875 27.296875 
Q 14.796875 17.390625 18.875 11.75 
Q 22.953125 6.109375 30.078125 6.109375 
Q 37.203125 6.109375 41.296875 11.75 
Q 45.40625 17.390625 45.40625 27.296875 
Q 45.40625 37.203125 41.296875 42.84375 
Q 37.203125 48.484375 30.078125 48.484375 
Q 22.953125 48.484375 18.875 42.84375 
Q 14.796875 37.203125 14.796875 27.296875 
z
" id="DejaVuSans-64"/>
    </defs>
    <g transform="translate(137.410313 28.56)scale(0.12 -0.12)">
     <use xlink:href="#DejaVuSans-53"/>
     <use x="63.476562" xlink:href="#DejaVuSans-74"/>
     <use x="102.685547" xlink:href="#DejaVuSans-61"/>
     <use x="163.964844" xlink:href="#DejaVuSans-70"/>
     <use x="227.441406" xlink:href="#DejaVuSans-68"/>
     <use x="290.820312" xlink:href="#DejaVuSans-79"/>
     <use x="350" xlink:href="#DejaVuSans-6c"/>
     <use x="377.783203" xlink:href="#DejaVuSans-6f"/>
     <use x="438.964844" xlink:href="#DejaVuSans-63"/>
     <use x="493.945312" xlink:href="#DejaVuSans-6f"/>
     <use x="555.126953" xlink:href="#DejaVuSans-63"/>
     <use x="610.107422" xlink:href="#DejaVuSans-63"/>
     <use x="665.087891" xlink:href="#DejaVuSans-75"/>
     <use x="728.466797" xlink:href="#DejaVuSans-73"/>
     <use x="780.566406" xlink:href="#DejaVuSans-20"/>
     <use x="812.353516" xlink:href="#DejaVuSans-65"/>
     <use x="873.876953" xlink:href="#DejaVuSans-70"/>
     <use x="937.353516" xlink:href="#DejaVuSans-69"/>
     <use x="965.136719" xlink:href="#DejaVuSans-64"/>
     <use x="1028.613281" xlink:href="#DejaVuSans-65"/>
     <use x="1090.136719" xlink:href="#DejaVuSans-72"/>
     <use x="1131.234375" xlink:href="#DejaVuSans-6d"/>
     <use x="1228.646484" xlink:href="#DejaVuSans-69"/>
     <use x="1256.429688" xlink:href="#DejaVuSans-64"/>
     <use x="1319.90625" xlink:href="#DejaVuSans-69"/>
     <use x="1347.689453" xlink:href="#DejaVuSans-73"/>
    </g>
   </g>
  </g>
 </g>
 <defs>
  <clipPath id="pe0e84e8402">
   <rect height="217.44" width="334.8" x="54" y="34.56"/>
  </clipPath>
 </defs>
</svg>
