<?xml version="1.0" encoding="utf-8" standalone="no"?>
<!DOCTYPE svg PUBLIC "-//W3C//DTD SVG 1.1//EN"
  "http://www.w3.org/Graphics/SVG/1.1/DTD/svg11.dtd">
<!-- Created with matplotlib (https://matplotlib.org/) -->
<svg height="252pt" version="1.1" viewBox="0 0 360 252" width="360pt" xmlns="http://www.w3.org/2000/svg" xmlns:xlink="http://www.w3.org/1999/xlink">
 <defs>
  <style type="text/css">
*{stroke-linecap:butt;stroke-linejoin:round;}
  </style>
 </defs>
 <g id="figure_1">
  <g id="patch_1">
   <path d="M 0 252 
L 360 252 
L 360 0 
L 0 0 
z
" style="fill:#ffffff;"/>
  </g>
  <g id="axes_1">
   <g id="patch_2">
    <path d="M 63.05 202.2 
L 342.185294 202.2 
L 342.185294 29.003125 
L 63.05 29.003125 
z
" style="fill:#ffffff;"/>
   </g>
   <g id="PathCollection_1">
    <defs>
     <path d="M 0 5 
C 1.326016 5 2.597899 4.473168 3.535534 3.535534 
C 4.473168 2.597899 5 1.326016 5 0 
C 5 -1.326016 4.473168 -2.597899 3.535534 -3.535534 
C 2.597899 -4.473168 1.326016 -5 0 -5 
C -1.326016 -5 -2.597899 -4.473168 -3.535534 -3.535534 
C -4.473168 -2.597899 -5 -1.326016 -5 0 
C -5 1.326016 -4.473168 2.597899 -3.535534 3.535534 
C -2.597899 4.473168 -1.326016 5 0 5 
z
" id="mc87a28d0f8" style="stroke:#000000;stroke-opacity:0.3;"/>
    </defs>
    <g clip-path="url(#pab4e779441)">
     <use style="fill-opacity:0.3;stroke:#000000;stroke-opacity:0.3;" x="273.469321" xlink:href="#mc87a28d0f8" y="202.184753"/>
     <use style="fill-opacity:0.3;stroke:#000000;stroke-opacity:0.3;" x="75.531263" xlink:href="#mc87a28d0f8" y="202.189646"/>
     <use style="fill-opacity:0.3;stroke:#000000;stroke-opacity:0.3;" x="107.10295" xlink:href="#mc87a28d0f8" y="201.584669"/>
     <use style="fill-opacity:0.3;stroke:#000000;stroke-opacity:0.3;" x="338.532294" xlink:href="#mc87a28d0f8" y="119.162712"/>
     <use style="fill-opacity:0.3;stroke:#000000;stroke-opacity:0.3;" x="77.767852" xlink:href="#mc87a28d0f8" y="201.764642"/>
     <use style="fill-opacity:0.3;stroke:#000000;stroke-opacity:0.3;" x="150.271008" xlink:href="#mc87a28d0f8" y="202.198831"/>
     <use style="fill-opacity:0.3;stroke:#000000;stroke-opacity:0.3;" x="339.448674" xlink:href="#mc87a28d0f8" y="200.583293"/>
     <use style="fill-opacity:0.3;stroke:#000000;stroke-opacity:0.3;" x="339.448674" xlink:href="#mc87a28d0f8" y="202.151095"/>
     <use style="fill-opacity:0.3;stroke:#000000;stroke-opacity:0.3;" x="339.448674" xlink:href="#mc87a28d0f8" y="201.364737"/>
     <use style="fill-opacity:0.3;stroke:#000000;stroke-opacity:0.3;" x="338.746766" xlink:href="#mc87a28d0f8" y="161.80538"/>
     <use style="fill-opacity:0.3;stroke:#000000;stroke-opacity:0.3;" x="100.666255" xlink:href="#mc87a28d0f8" y="200.550641"/>
     <use style="fill-opacity:0.3;stroke:#000000;stroke-opacity:0.3;" x="238.287203" xlink:href="#mc87a28d0f8" y="156.379423"/>
     <use style="fill-opacity:0.3;stroke:#000000;stroke-opacity:0.3;" x="114.364766" xlink:href="#mc87a28d0f8" y="201.912877"/>
     <use style="fill-opacity:0.3;stroke:#000000;stroke-opacity:0.3;" x="150.271008" xlink:href="#mc87a28d0f8" y="202.187858"/>
     <use style="fill-opacity:0.3;stroke:#000000;stroke-opacity:0.3;" x="295.462439" xlink:href="#mc87a28d0f8" y="202.071108"/>
     <use style="fill-opacity:0.3;stroke:#000000;stroke-opacity:0.3;" x="339.448674" xlink:href="#mc87a28d0f8" y="202.199844"/>
     <use style="fill-opacity:0.3;stroke:#000000;stroke-opacity:0.3;" x="339.448674" xlink:href="#mc87a28d0f8" y="201.714607"/>
     <use style="fill-opacity:0.3;stroke:#000000;stroke-opacity:0.3;" x="339.448674" xlink:href="#mc87a28d0f8" y="201.468878"/>
     <use style="fill-opacity:0.3;stroke:#000000;stroke-opacity:0.3;" x="90.88629" xlink:href="#mc87a28d0f8" y="200.422913"/>
     <use style="fill-opacity:0.3;stroke:#000000;stroke-opacity:0.3;" x="80.398593" xlink:href="#mc87a28d0f8" y="200.820141"/>
     <use style="fill-opacity:0.3;stroke:#000000;stroke-opacity:0.3;" x="207.489968" xlink:href="#mc87a28d0f8" y="202.2"/>
     <use style="fill-opacity:0.3;stroke:#000000;stroke-opacity:0.3;" x="339.448674" xlink:href="#mc87a28d0f8" y="197.108895"/>
     <use style="fill-opacity:0.3;stroke:#000000;stroke-opacity:0.3;" x="260.273451" xlink:href="#mc87a28d0f8" y="202.166454"/>
     <use style="fill-opacity:0.3;stroke:#000000;stroke-opacity:0.3;" x="339.448674" xlink:href="#mc87a28d0f8" y="202.2"/>
     <use style="fill-opacity:0.3;stroke:#000000;stroke-opacity:0.3;" x="93.800063" xlink:href="#mc87a28d0f8" y="202.114641"/>
     <use style="fill-opacity:0.3;stroke:#000000;stroke-opacity:0.3;" x="104.85542" xlink:href="#mc87a28d0f8" y="202.144016"/>
     <use style="fill-opacity:0.3;stroke:#000000;stroke-opacity:0.3;" x="150.271008" xlink:href="#mc87a28d0f8" y="202.2"/>
     <use style="fill-opacity:0.3;stroke:#000000;stroke-opacity:0.3;" x="339.448674" xlink:href="#mc87a28d0f8" y="202.2"/>
     <use style="fill-opacity:0.3;stroke:#000000;stroke-opacity:0.3;" x="339.448674" xlink:href="#mc87a28d0f8" y="200.332078"/>
     <use style="fill-opacity:0.3;stroke:#000000;stroke-opacity:0.3;" x="89.421653" xlink:href="#mc87a28d0f8" y="202.141407"/>
     <use style="fill-opacity:0.3;stroke:#000000;stroke-opacity:0.3;" x="339.448674" xlink:href="#mc87a28d0f8" y="201.437727"/>
     <use style="fill-opacity:0.3;stroke:#000000;stroke-opacity:0.3;" x="82.4526" xlink:href="#mc87a28d0f8" y="201.960188"/>
     <use style="fill-opacity:0.3;stroke:#000000;stroke-opacity:0.3;" x="126.6238" xlink:href="#mc87a28d0f8" y="202.2"/>
     <use style="fill-opacity:0.3;stroke:#000000;stroke-opacity:0.3;" x="196.49341" xlink:href="#mc87a28d0f8" y="202.137655"/>
     <use style="fill-opacity:0.3;stroke:#000000;stroke-opacity:0.3;" x="196.49341" xlink:href="#mc87a28d0f8" y="202.137655"/>
     <use style="fill-opacity:0.3;stroke:#000000;stroke-opacity:0.3;" x="336.065117" xlink:href="#mc87a28d0f8" y="192.093573"/>
     <use style="fill-opacity:0.3;stroke:#000000;stroke-opacity:0.3;" x="94.382507" xlink:href="#mc87a28d0f8" y="202.187275"/>
     <use style="fill-opacity:0.3;stroke:#000000;stroke-opacity:0.3;" x="313.630666" xlink:href="#mc87a28d0f8" y="200.110351"/>
     <use style="fill-opacity:0.3;stroke:#000000;stroke-opacity:0.3;" x="151.66202" xlink:href="#mc87a28d0f8" y="200.506736"/>
     <use style="fill-opacity:0.3;stroke:#000000;stroke-opacity:0.3;" x="338.634114" xlink:href="#mc87a28d0f8" y="29.003125"/>
     <use style="fill-opacity:0.3;stroke:#000000;stroke-opacity:0.3;" x="338.616127" xlink:href="#mc87a28d0f8" y="73.503392"/>
     <use style="fill-opacity:0.3;stroke:#000000;stroke-opacity:0.3;" x="339.448674" xlink:href="#mc87a28d0f8" y="201.326832"/>
     <use style="fill-opacity:0.3;stroke:#000000;stroke-opacity:0.3;" x="338.474809" xlink:href="#mc87a28d0f8" y="117.202916"/>
     <use style="fill-opacity:0.3;stroke:#000000;stroke-opacity:0.3;" x="339.448674" xlink:href="#mc87a28d0f8" y="202.192441"/>
     <use style="fill-opacity:0.3;stroke:#000000;stroke-opacity:0.3;" x="339.448674" xlink:href="#mc87a28d0f8" y="202.142694"/>
     <use style="fill-opacity:0.3;stroke:#000000;stroke-opacity:0.3;" x="338.532294" xlink:href="#mc87a28d0f8" y="119.162712"/>
     <use style="fill-opacity:0.3;stroke:#000000;stroke-opacity:0.3;" x="87.902392" xlink:href="#mc87a28d0f8" y="202.050161"/>
     <use style="fill-opacity:0.3;stroke:#000000;stroke-opacity:0.3;" x="320.59743" xlink:href="#mc87a28d0f8" y="202.04346"/>
     <use style="fill-opacity:0.3;stroke:#000000;stroke-opacity:0.3;" x="77.290713" xlink:href="#mc87a28d0f8" y="201.949737"/>
     <use style="fill-opacity:0.3;stroke:#000000;stroke-opacity:0.3;" x="70.11098" xlink:href="#mc87a28d0f8" y="201.677884"/>
     <use style="fill-opacity:0.3;stroke:#000000;stroke-opacity:0.3;" x="335.794433" xlink:href="#mc87a28d0f8" y="104.633336"/>
     <use style="fill-opacity:0.3;stroke:#000000;stroke-opacity:0.3;" x="117.139864" xlink:href="#mc87a28d0f8" y="201.82863"/>
     <use style="fill-opacity:0.3;stroke:#000000;stroke-opacity:0.3;" x="78.614411" xlink:href="#mc87a28d0f8" y="201.863134"/>
     <use style="fill-opacity:0.3;stroke:#000000;stroke-opacity:0.3;" x="339.448674" xlink:href="#mc87a28d0f8" y="202.156339"/>
     <use style="fill-opacity:0.3;stroke:#000000;stroke-opacity:0.3;" x="339.448674" xlink:href="#mc87a28d0f8" y="201.787566"/>
     <use style="fill-opacity:0.3;stroke:#000000;stroke-opacity:0.3;" x="339.448674" xlink:href="#mc87a28d0f8" y="202.037569"/>
     <use style="fill-opacity:0.3;stroke:#000000;stroke-opacity:0.3;" x="339.448674" xlink:href="#mc87a28d0f8" y="202.13095"/>
     <use style="fill-opacity:0.3;stroke:#000000;stroke-opacity:0.3;" x="339.448674" xlink:href="#mc87a28d0f8" y="188.131529"/>
     <use style="fill-opacity:0.3;stroke:#000000;stroke-opacity:0.3;" x="339.448674" xlink:href="#mc87a28d0f8" y="174.233781"/>
     <use style="fill-opacity:0.3;stroke:#000000;stroke-opacity:0.3;" x="339.448674" xlink:href="#mc87a28d0f8" y="202.2"/>
     <use style="fill-opacity:0.3;stroke:#000000;stroke-opacity:0.3;" x="339.448674" xlink:href="#mc87a28d0f8" y="202.154239"/>
     <use style="fill-opacity:0.3;stroke:#000000;stroke-opacity:0.3;" x="66.598674" xlink:href="#mc87a28d0f8" y="202.2"/>
     <use style="fill-opacity:0.3;stroke:#000000;stroke-opacity:0.3;" x="339.448674" xlink:href="#mc87a28d0f8" y="202.2"/>
     <use style="fill-opacity:0.3;stroke:#000000;stroke-opacity:0.3;" x="339.448674" xlink:href="#mc87a28d0f8" y="201.714607"/>
     <use style="fill-opacity:0.3;stroke:#000000;stroke-opacity:0.3;" x="301.613141" xlink:href="#mc87a28d0f8" y="202.015151"/>
     <use style="fill-opacity:0.3;stroke:#000000;stroke-opacity:0.3;" x="339.448674" xlink:href="#mc87a28d0f8" y="202.171157"/>
     <use style="fill-opacity:0.3;stroke:#000000;stroke-opacity:0.3;" x="89.336174" xlink:href="#mc87a28d0f8" y="201.605147"/>
     <use style="fill-opacity:0.3;stroke:#000000;stroke-opacity:0.3;" x="189.572002" xlink:href="#mc87a28d0f8" y="200.81165"/>
     <use style="fill-opacity:0.3;stroke:#000000;stroke-opacity:0.3;" x="339.448674" xlink:href="#mc87a28d0f8" y="202.2"/>
     <use style="fill-opacity:0.3;stroke:#000000;stroke-opacity:0.3;" x="339.448674" xlink:href="#mc87a28d0f8" y="202.194218"/>
     <use style="fill-opacity:0.3;stroke:#000000;stroke-opacity:0.3;" x="339.448674" xlink:href="#mc87a28d0f8" y="202.2"/>
     <use style="fill-opacity:0.3;stroke:#000000;stroke-opacity:0.3;" x="163.503733" xlink:href="#mc87a28d0f8" y="202.091094"/>
     <use style="fill-opacity:0.3;stroke:#000000;stroke-opacity:0.3;" x="339.448674" xlink:href="#mc87a28d0f8" y="202.124946"/>
     <use style="fill-opacity:0.3;stroke:#000000;stroke-opacity:0.3;" x="339.448674" xlink:href="#mc87a28d0f8" y="199.740945"/>
     <use style="fill-opacity:0.3;stroke:#000000;stroke-opacity:0.3;" x="339.448674" xlink:href="#mc87a28d0f8" y="190.537407"/>
     <use style="fill-opacity:0.3;stroke:#000000;stroke-opacity:0.3;" x="339.448674" xlink:href="#mc87a28d0f8" y="174.233781"/>
     <use style="fill-opacity:0.3;stroke:#000000;stroke-opacity:0.3;" x="339.448674" xlink:href="#mc87a28d0f8" y="202.193154"/>
     <use style="fill-opacity:0.3;stroke:#000000;stroke-opacity:0.3;" x="317.455556" xlink:href="#mc87a28d0f8" y="202.191018"/>
     <use style="fill-opacity:0.3;stroke:#000000;stroke-opacity:0.3;" x="317.455556" xlink:href="#mc87a28d0f8" y="202.191018"/>
     <use style="fill-opacity:0.3;stroke:#000000;stroke-opacity:0.3;" x="77.013945" xlink:href="#mc87a28d0f8" y="201.900429"/>
     <use style="fill-opacity:0.3;stroke:#000000;stroke-opacity:0.3;" x="105.983272" xlink:href="#mc87a28d0f8" y="201.953293"/>
     <use style="fill-opacity:0.3;stroke:#000000;stroke-opacity:0.3;" x="339.448674" xlink:href="#mc87a28d0f8" y="201.714607"/>
     <use style="fill-opacity:0.3;stroke:#000000;stroke-opacity:0.3;" x="119.517498" xlink:href="#mc87a28d0f8" y="202.2"/>
     <use style="fill-opacity:0.3;stroke:#000000;stroke-opacity:0.3;" x="339.448674" xlink:href="#mc87a28d0f8" y="201.904022"/>
     <use style="fill-opacity:0.3;stroke:#000000;stroke-opacity:0.3;" x="339.448674" xlink:href="#mc87a28d0f8" y="202.2"/>
     <use style="fill-opacity:0.3;stroke:#000000;stroke-opacity:0.3;" x="339.448674" xlink:href="#mc87a28d0f8" y="202.088955"/>
     <use style="fill-opacity:0.3;stroke:#000000;stroke-opacity:0.3;" x="339.448674" xlink:href="#mc87a28d0f8" y="174.233781"/>
     <use style="fill-opacity:0.3;stroke:#000000;stroke-opacity:0.3;" x="339.448674" xlink:href="#mc87a28d0f8" y="201.468878"/>
     <use style="fill-opacity:0.3;stroke:#000000;stroke-opacity:0.3;" x="339.448674" xlink:href="#mc87a28d0f8" y="201.468878"/>
     <use style="fill-opacity:0.3;stroke:#000000;stroke-opacity:0.3;" x="66.254698" xlink:href="#mc87a28d0f8" y="202.148842"/>
     <use style="fill-opacity:0.3;stroke:#000000;stroke-opacity:0.3;" x="320.59743" xlink:href="#mc87a28d0f8" y="202.04346"/>
     <use style="fill-opacity:0.3;stroke:#000000;stroke-opacity:0.3;" x="339.448674" xlink:href="#mc87a28d0f8" y="199.399676"/>
     <use style="fill-opacity:0.3;stroke:#000000;stroke-opacity:0.3;" x="339.448674" xlink:href="#mc87a28d0f8" y="199.399676"/>
     <use style="fill-opacity:0.3;stroke:#000000;stroke-opacity:0.3;" x="67.343812" xlink:href="#mc87a28d0f8" y="202.077267"/>
     <use style="fill-opacity:0.3;stroke:#000000;stroke-opacity:0.3;" x="73.57736" xlink:href="#mc87a28d0f8" y="202.109762"/>
     <use style="fill-opacity:0.3;stroke:#000000;stroke-opacity:0.3;" x="66.823329" xlink:href="#mc87a28d0f8" y="202.075654"/>
     <use style="fill-opacity:0.3;stroke:#000000;stroke-opacity:0.3;" x="66.628658" xlink:href="#mc87a28d0f8" y="202.174555"/>
     <use style="fill-opacity:0.3;stroke:#000000;stroke-opacity:0.3;" x="339.448674" xlink:href="#mc87a28d0f8" y="202.2"/>
     <use style="fill-opacity:0.3;stroke:#000000;stroke-opacity:0.3;" x="338.746766" xlink:href="#mc87a28d0f8" y="161.80538"/>
     <use style="fill-opacity:0.3;stroke:#000000;stroke-opacity:0.3;" x="105.983272" xlink:href="#mc87a28d0f8" y="201.953293"/>
     <use style="fill-opacity:0.3;stroke:#000000;stroke-opacity:0.3;" x="339.448674" xlink:href="#mc87a28d0f8" y="52.922322"/>
     <use style="fill-opacity:0.3;stroke:#000000;stroke-opacity:0.3;" x="339.448674" xlink:href="#mc87a28d0f8" y="196.709544"/>
     <use style="fill-opacity:0.3;stroke:#000000;stroke-opacity:0.3;" x="339.448674" xlink:href="#mc87a28d0f8" y="201.946316"/>
     <use style="fill-opacity:0.3;stroke:#000000;stroke-opacity:0.3;" x="339.448674" xlink:href="#mc87a28d0f8" y="201.946316"/>
     <use style="fill-opacity:0.3;stroke:#000000;stroke-opacity:0.3;" x="339.448674" xlink:href="#mc87a28d0f8" y="198.804247"/>
     <use style="fill-opacity:0.3;stroke:#000000;stroke-opacity:0.3;" x="339.448674" xlink:href="#mc87a28d0f8" y="198.804247"/>
     <use style="fill-opacity:0.3;stroke:#000000;stroke-opacity:0.3;" x="339.448674" xlink:href="#mc87a28d0f8" y="202.014728"/>
     <use style="fill-opacity:0.3;stroke:#000000;stroke-opacity:0.3;" x="339.448674" xlink:href="#mc87a28d0f8" y="202.2"/>
     <use style="fill-opacity:0.3;stroke:#000000;stroke-opacity:0.3;" x="339.448674" xlink:href="#mc87a28d0f8" y="202.031135"/>
     <use style="fill-opacity:0.3;stroke:#000000;stroke-opacity:0.3;" x="339.448674" xlink:href="#mc87a28d0f8" y="197.108895"/>
     <use style="fill-opacity:0.3;stroke:#000000;stroke-opacity:0.3;" x="339.448674" xlink:href="#mc87a28d0f8" y="201.742414"/>
     <use style="fill-opacity:0.3;stroke:#000000;stroke-opacity:0.3;" x="339.448674" xlink:href="#mc87a28d0f8" y="200.845146"/>
     <use style="fill-opacity:0.3;stroke:#000000;stroke-opacity:0.3;" x="103.821135" xlink:href="#mc87a28d0f8" y="199.811832"/>
     <use style="fill-opacity:0.3;stroke:#000000;stroke-opacity:0.3;" x="339.448674" xlink:href="#mc87a28d0f8" y="200.568719"/>
     <use style="fill-opacity:0.3;stroke:#000000;stroke-opacity:0.3;" x="339.448674" xlink:href="#mc87a28d0f8" y="200.568719"/>
     <use style="fill-opacity:0.3;stroke:#000000;stroke-opacity:0.3;" x="77.013945" xlink:href="#mc87a28d0f8" y="201.900429"/>
     <use style="fill-opacity:0.3;stroke:#000000;stroke-opacity:0.3;" x="76.870946" xlink:href="#mc87a28d0f8" y="202.068891"/>
     <use style="fill-opacity:0.3;stroke:#000000;stroke-opacity:0.3;" x="339.448674" xlink:href="#mc87a28d0f8" y="202.124946"/>
     <use style="fill-opacity:0.3;stroke:#000000;stroke-opacity:0.3;" x="75.531263" xlink:href="#mc87a28d0f8" y="202.186305"/>
     <use style="fill-opacity:0.3;stroke:#000000;stroke-opacity:0.3;" x="78.319123" xlink:href="#mc87a28d0f8" y="201.963886"/>
     <use style="fill-opacity:0.3;stroke:#000000;stroke-opacity:0.3;" x="339.448674" xlink:href="#mc87a28d0f8" y="196.709544"/>
     <use style="fill-opacity:0.3;stroke:#000000;stroke-opacity:0.3;" x="339.448674" xlink:href="#mc87a28d0f8" y="199.399676"/>
     <use style="fill-opacity:0.3;stroke:#000000;stroke-opacity:0.3;" x="197.565425" xlink:href="#mc87a28d0f8" y="202.174921"/>
     <use style="fill-opacity:0.3;stroke:#000000;stroke-opacity:0.3;" x="116.054015" xlink:href="#mc87a28d0f8" y="201.933885"/>
     <use style="fill-opacity:0.3;stroke:#000000;stroke-opacity:0.3;" x="339.448674" xlink:href="#mc87a28d0f8" y="201.596154"/>
     <use style="fill-opacity:0.3;stroke:#000000;stroke-opacity:0.3;" x="337.623809" xlink:href="#mc87a28d0f8" y="175.806773"/>
     <use style="fill-opacity:0.3;stroke:#000000;stroke-opacity:0.3;" x="127.816788" xlink:href="#mc87a28d0f8" y="201.901341"/>
     <use style="fill-opacity:0.3;stroke:#000000;stroke-opacity:0.3;" x="85.378928" xlink:href="#mc87a28d0f8" y="202.009576"/>
     <use style="fill-opacity:0.3;stroke:#000000;stroke-opacity:0.3;" x="116.133942" xlink:href="#mc87a28d0f8" y="201.965067"/>
     <use style="fill-opacity:0.3;stroke:#000000;stroke-opacity:0.3;" x="125.015778" xlink:href="#mc87a28d0f8" y="202.184244"/>
     <use style="fill-opacity:0.3;stroke:#000000;stroke-opacity:0.3;" x="133.073039" xlink:href="#mc87a28d0f8" y="202.18415"/>
     <use style="fill-opacity:0.3;stroke:#000000;stroke-opacity:0.3;" x="75.531263" xlink:href="#mc87a28d0f8" y="202.186305"/>
     <use style="fill-opacity:0.3;stroke:#000000;stroke-opacity:0.3;" x="90.667086" xlink:href="#mc87a28d0f8" y="202.05745"/>
     <use style="fill-opacity:0.3;stroke:#000000;stroke-opacity:0.3;" x="98.681913" xlink:href="#mc87a28d0f8" y="202.125204"/>
     <use style="fill-opacity:0.3;stroke:#000000;stroke-opacity:0.3;" x="339.448674" xlink:href="#mc87a28d0f8" y="202.2"/>
     <use style="fill-opacity:0.3;stroke:#000000;stroke-opacity:0.3;" x="339.448674" xlink:href="#mc87a28d0f8" y="201.94586"/>
     <use style="fill-opacity:0.3;stroke:#000000;stroke-opacity:0.3;" x="141.510616" xlink:href="#mc87a28d0f8" y="201.259527"/>
     <use style="fill-opacity:0.3;stroke:#000000;stroke-opacity:0.3;" x="339.448674" xlink:href="#mc87a28d0f8" y="202.2"/>
     <use style="fill-opacity:0.3;stroke:#000000;stroke-opacity:0.3;" x="339.448674" xlink:href="#mc87a28d0f8" y="202.158005"/>
     <use style="fill-opacity:0.3;stroke:#000000;stroke-opacity:0.3;" x="207.489968" xlink:href="#mc87a28d0f8" y="202.175756"/>
     <use style="fill-opacity:0.3;stroke:#000000;stroke-opacity:0.3;" x="339.448674" xlink:href="#mc87a28d0f8" y="202.18007"/>
     <use style="fill-opacity:0.3;stroke:#000000;stroke-opacity:0.3;" x="337.354091" xlink:href="#mc87a28d0f8" y="193.246071"/>
     <use style="fill-opacity:0.3;stroke:#000000;stroke-opacity:0.3;" x="339.448674" xlink:href="#mc87a28d0f8" y="202.198816"/>
     <use style="fill-opacity:0.3;stroke:#000000;stroke-opacity:0.3;" x="68.586068" xlink:href="#mc87a28d0f8" y="202.124503"/>
     <use style="fill-opacity:0.3;stroke:#000000;stroke-opacity:0.3;" x="339.448674" xlink:href="#mc87a28d0f8" y="202.179909"/>
     <use style="fill-opacity:0.3;stroke:#000000;stroke-opacity:0.3;" x="184.775765" xlink:href="#mc87a28d0f8" y="194.002629"/>
     <use style="fill-opacity:0.3;stroke:#000000;stroke-opacity:0.3;" x="338.474809" xlink:href="#mc87a28d0f8" y="117.202916"/>
     <use style="fill-opacity:0.3;stroke:#000000;stroke-opacity:0.3;" x="82.40045" xlink:href="#mc87a28d0f8" y="201.381148"/>
     <use style="fill-opacity:0.3;stroke:#000000;stroke-opacity:0.3;" x="339.448674" xlink:href="#mc87a28d0f8" y="202.120735"/>
     <use style="fill-opacity:0.3;stroke:#000000;stroke-opacity:0.3;" x="249.604449" xlink:href="#mc87a28d0f8" y="201.632734"/>
     <use style="fill-opacity:0.3;stroke:#000000;stroke-opacity:0.3;" x="244.959724" xlink:href="#mc87a28d0f8" y="200.007195"/>
     <use style="fill-opacity:0.3;stroke:#000000;stroke-opacity:0.3;" x="249.604449" xlink:href="#mc87a28d0f8" y="201.632734"/>
     <use style="fill-opacity:0.3;stroke:#000000;stroke-opacity:0.3;" x="295.462439" xlink:href="#mc87a28d0f8" y="199.039082"/>
     <use style="fill-opacity:0.3;stroke:#000000;stroke-opacity:0.3;" x="112.435475" xlink:href="#mc87a28d0f8" y="202.143079"/>
     <use style="fill-opacity:0.3;stroke:#000000;stroke-opacity:0.3;" x="105.983272" xlink:href="#mc87a28d0f8" y="202.031621"/>
     <use style="fill-opacity:0.3;stroke:#000000;stroke-opacity:0.3;" x="273.469321" xlink:href="#mc87a28d0f8" y="202.190456"/>
     <use style="fill-opacity:0.3;stroke:#000000;stroke-opacity:0.3;" x="339.448674" xlink:href="#mc87a28d0f8" y="199.681237"/>
     <use style="fill-opacity:0.3;stroke:#000000;stroke-opacity:0.3;" x="339.448674" xlink:href="#mc87a28d0f8" y="202.178906"/>
     <use style="fill-opacity:0.3;stroke:#000000;stroke-opacity:0.3;" x="72.985011" xlink:href="#mc87a28d0f8" y="202.030982"/>
     <use style="fill-opacity:0.3;stroke:#000000;stroke-opacity:0.3;" x="339.448674" xlink:href="#mc87a28d0f8" y="202.059486"/>
     <use style="fill-opacity:0.3;stroke:#000000;stroke-opacity:0.3;" x="95.832603" xlink:href="#mc87a28d0f8" y="201.99847"/>
     <use style="fill-opacity:0.3;stroke:#000000;stroke-opacity:0.3;" x="339.448674" xlink:href="#mc87a28d0f8" y="202.133324"/>
     <use style="fill-opacity:0.3;stroke:#000000;stroke-opacity:0.3;" x="99.095318" xlink:href="#mc87a28d0f8" y="202.126571"/>
     <use style="fill-opacity:0.3;stroke:#000000;stroke-opacity:0.3;" x="244.959724" xlink:href="#mc87a28d0f8" y="200.007195"/>
     <use style="fill-opacity:0.3;stroke:#000000;stroke-opacity:0.3;" x="244.959724" xlink:href="#mc87a28d0f8" y="200.007195"/>
     <use style="fill-opacity:0.3;stroke:#000000;stroke-opacity:0.3;" x="66.286305" xlink:href="#mc87a28d0f8" y="202.2"/>
     <use style="fill-opacity:0.3;stroke:#000000;stroke-opacity:0.3;" x="339.448674" xlink:href="#mc87a28d0f8" y="202.167602"/>
     <use style="fill-opacity:0.3;stroke:#000000;stroke-opacity:0.3;" x="95.832603" xlink:href="#mc87a28d0f8" y="201.99847"/>
     <use style="fill-opacity:0.3;stroke:#000000;stroke-opacity:0.3;" x="337.285416" xlink:href="#mc87a28d0f8" y="196.977323"/>
     <use style="fill-opacity:0.3;stroke:#000000;stroke-opacity:0.3;" x="339.448674" xlink:href="#mc87a28d0f8" y="202.175217"/>
     <use style="fill-opacity:0.3;stroke:#000000;stroke-opacity:0.3;" x="339.448674" xlink:href="#mc87a28d0f8" y="201.370054"/>
     <use style="fill-opacity:0.3;stroke:#000000;stroke-opacity:0.3;" x="339.448674" xlink:href="#mc87a28d0f8" y="192.748545"/>
     <use style="fill-opacity:0.3;stroke:#000000;stroke-opacity:0.3;" x="339.448674" xlink:href="#mc87a28d0f8" y="202.19999"/>
     <use style="fill-opacity:0.3;stroke:#000000;stroke-opacity:0.3;" x="125.047319" xlink:href="#mc87a28d0f8" y="201.826329"/>
     <use style="fill-opacity:0.3;stroke:#000000;stroke-opacity:0.3;" x="339.448674" xlink:href="#mc87a28d0f8" y="201.714607"/>
     <use style="fill-opacity:0.3;stroke:#000000;stroke-opacity:0.3;" x="339.448674" xlink:href="#mc87a28d0f8" y="202.192441"/>
     <use style="fill-opacity:0.3;stroke:#000000;stroke-opacity:0.3;" x="339.448674" xlink:href="#mc87a28d0f8" y="196.709544"/>
     <use style="fill-opacity:0.3;stroke:#000000;stroke-opacity:0.3;" x="77.013945" xlink:href="#mc87a28d0f8" y="201.900429"/>
     <use style="fill-opacity:0.3;stroke:#000000;stroke-opacity:0.3;" x="335.794433" xlink:href="#mc87a28d0f8" y="104.633336"/>
     <use style="fill-opacity:0.3;stroke:#000000;stroke-opacity:0.3;" x="72.985011" xlink:href="#mc87a28d0f8" y="202.030982"/>
     <use style="fill-opacity:0.3;stroke:#000000;stroke-opacity:0.3;" x="339.448674" xlink:href="#mc87a28d0f8" y="202.2"/>
     <use style="fill-opacity:0.3;stroke:#000000;stroke-opacity:0.3;" x="68.250783" xlink:href="#mc87a28d0f8" y="201.718877"/>
     <use style="fill-opacity:0.3;stroke:#000000;stroke-opacity:0.3;" x="339.448674" xlink:href="#mc87a28d0f8" y="198.448688"/>
     <use style="fill-opacity:0.3;stroke:#000000;stroke-opacity:0.3;" x="169.77386" xlink:href="#mc87a28d0f8" y="201.962385"/>
     <use style="fill-opacity:0.3;stroke:#000000;stroke-opacity:0.3;" x="226.959286" xlink:href="#mc87a28d0f8" y="201.586016"/>
     <use style="fill-opacity:0.3;stroke:#000000;stroke-opacity:0.3;" x="75.177584" xlink:href="#mc87a28d0f8" y="202.017412"/>
     <use style="fill-opacity:0.3;stroke:#000000;stroke-opacity:0.3;" x="273.469321" xlink:href="#mc87a28d0f8" y="202.194046"/>
     <use style="fill-opacity:0.3;stroke:#000000;stroke-opacity:0.3;" x="339.448674" xlink:href="#mc87a28d0f8" y="201.899254"/>
     <use style="fill-opacity:0.3;stroke:#000000;stroke-opacity:0.3;" x="339.448674" xlink:href="#mc87a28d0f8" y="202.178875"/>
     <use style="fill-opacity:0.3;stroke:#000000;stroke-opacity:0.3;" x="101.923004" xlink:href="#mc87a28d0f8" y="202.131153"/>
     <use style="fill-opacity:0.3;stroke:#000000;stroke-opacity:0.3;" x="339.448674" xlink:href="#mc87a28d0f8" y="52.922322"/>
     <use style="fill-opacity:0.3;stroke:#000000;stroke-opacity:0.3;" x="336.065117" xlink:href="#mc87a28d0f8" y="192.093573"/>
     <use style="fill-opacity:0.3;stroke:#000000;stroke-opacity:0.3;" x="339.448674" xlink:href="#mc87a28d0f8" y="202.178875"/>
     <use style="fill-opacity:0.3;stroke:#000000;stroke-opacity:0.3;" x="85.552333" xlink:href="#mc87a28d0f8" y="201.662142"/>
     <use style="fill-opacity:0.3;stroke:#000000;stroke-opacity:0.3;" x="85.552333" xlink:href="#mc87a28d0f8" y="201.662142"/>
     <use style="fill-opacity:0.3;stroke:#000000;stroke-opacity:0.3;" x="339.448674" xlink:href="#mc87a28d0f8" y="202.167602"/>
     <use style="fill-opacity:0.3;stroke:#000000;stroke-opacity:0.3;" x="339.448674" xlink:href="#mc87a28d0f8" y="202.193816"/>
     <use style="fill-opacity:0.3;stroke:#000000;stroke-opacity:0.3;" x="105.983272" xlink:href="#mc87a28d0f8" y="201.953293"/>
     <use style="fill-opacity:0.3;stroke:#000000;stroke-opacity:0.3;" x="89.421653" xlink:href="#mc87a28d0f8" y="202.141407"/>
     <use style="fill-opacity:0.3;stroke:#000000;stroke-opacity:0.3;" x="339.448674" xlink:href="#mc87a28d0f8" y="197.108895"/>
     <use style="fill-opacity:0.3;stroke:#000000;stroke-opacity:0.3;" x="339.448674" xlink:href="#mc87a28d0f8" y="201.257924"/>
     <use style="fill-opacity:0.3;stroke:#000000;stroke-opacity:0.3;" x="75.531263" xlink:href="#mc87a28d0f8" y="202.165518"/>
     <use style="fill-opacity:0.3;stroke:#000000;stroke-opacity:0.3;" x="83.651799" xlink:href="#mc87a28d0f8" y="202.020736"/>
     <use style="fill-opacity:0.3;stroke:#000000;stroke-opacity:0.3;" x="96.220247" xlink:href="#mc87a28d0f8" y="202.022895"/>
     <use style="fill-opacity:0.3;stroke:#000000;stroke-opacity:0.3;" x="109.585123" xlink:href="#mc87a28d0f8" y="201.850636"/>
     <use style="fill-opacity:0.3;stroke:#000000;stroke-opacity:0.3;" x="75.531263" xlink:href="#mc87a28d0f8" y="202.165518"/>
     <use style="fill-opacity:0.3;stroke:#000000;stroke-opacity:0.3;" x="339.448674" xlink:href="#mc87a28d0f8" y="201.468878"/>
     <use style="fill-opacity:0.3;stroke:#000000;stroke-opacity:0.3;" x="339.448674" xlink:href="#mc87a28d0f8" y="202.183685"/>
     <use style="fill-opacity:0.3;stroke:#000000;stroke-opacity:0.3;" x="197.565425" xlink:href="#mc87a28d0f8" y="202.2"/>
     <use style="fill-opacity:0.3;stroke:#000000;stroke-opacity:0.3;" x="154.251456" xlink:href="#mc87a28d0f8" y="195.765313"/>
     <use style="fill-opacity:0.3;stroke:#000000;stroke-opacity:0.3;" x="67.410728" xlink:href="#mc87a28d0f8" y="202.2"/>
     <use style="fill-opacity:0.3;stroke:#000000;stroke-opacity:0.3;" x="339.448674" xlink:href="#mc87a28d0f8" y="201.468878"/>
     <use style="fill-opacity:0.3;stroke:#000000;stroke-opacity:0.3;" x="112.03048" xlink:href="#mc87a28d0f8" y="201.86429"/>
     <use style="fill-opacity:0.3;stroke:#000000;stroke-opacity:0.3;" x="339.448674" xlink:href="#mc87a28d0f8" y="202.070454"/>
     <use style="fill-opacity:0.3;stroke:#000000;stroke-opacity:0.3;" x="207.489968" xlink:href="#mc87a28d0f8" y="202.165866"/>
     <use style="fill-opacity:0.3;stroke:#000000;stroke-opacity:0.3;" x="336.065117" xlink:href="#mc87a28d0f8" y="192.093573"/>
     <use style="fill-opacity:0.3;stroke:#000000;stroke-opacity:0.3;" x="260.273451" xlink:href="#mc87a28d0f8" y="202.166454"/>
     <use style="fill-opacity:0.3;stroke:#000000;stroke-opacity:0.3;" x="77.013945" xlink:href="#mc87a28d0f8" y="201.900429"/>
     <use style="fill-opacity:0.3;stroke:#000000;stroke-opacity:0.3;" x="69.560281" xlink:href="#mc87a28d0f8" y="202.096189"/>
     <use style="fill-opacity:0.3;stroke:#000000;stroke-opacity:0.3;" x="339.448674" xlink:href="#mc87a28d0f8" y="202.183685"/>
     <use style="fill-opacity:0.3;stroke:#000000;stroke-opacity:0.3;" x="339.448674" xlink:href="#mc87a28d0f8" y="202.2"/>
     <use style="fill-opacity:0.3;stroke:#000000;stroke-opacity:0.3;" x="339.448674" xlink:href="#mc87a28d0f8" y="202.160685"/>
     <use style="fill-opacity:0.3;stroke:#000000;stroke-opacity:0.3;" x="339.448674" xlink:href="#mc87a28d0f8" y="202.2"/>
     <use style="fill-opacity:0.3;stroke:#000000;stroke-opacity:0.3;" x="86.272088" xlink:href="#mc87a28d0f8" y="201.907897"/>
     <use style="fill-opacity:0.3;stroke:#000000;stroke-opacity:0.3;" x="66.734016" xlink:href="#mc87a28d0f8" y="202.163789"/>
     <use style="fill-opacity:0.3;stroke:#000000;stroke-opacity:0.3;" x="109.366829" xlink:href="#mc87a28d0f8" y="201.911981"/>
     <use style="fill-opacity:0.3;stroke:#000000;stroke-opacity:0.3;" x="339.448674" xlink:href="#mc87a28d0f8" y="202.2"/>
     <use style="fill-opacity:0.3;stroke:#000000;stroke-opacity:0.3;" x="339.448674" xlink:href="#mc87a28d0f8" y="202.2"/>
     <use style="fill-opacity:0.3;stroke:#000000;stroke-opacity:0.3;" x="339.448674" xlink:href="#mc87a28d0f8" y="202.144696"/>
     <use style="fill-opacity:0.3;stroke:#000000;stroke-opacity:0.3;" x="287.854765" xlink:href="#mc87a28d0f8" y="202.2"/>
     <use style="fill-opacity:0.3;stroke:#000000;stroke-opacity:0.3;" x="87.527509" xlink:href="#mc87a28d0f8" y="202.098201"/>
     <use style="fill-opacity:0.3;stroke:#000000;stroke-opacity:0.3;" x="174.500292" xlink:href="#mc87a28d0f8" y="202.158599"/>
     <use style="fill-opacity:0.3;stroke:#000000;stroke-opacity:0.3;" x="102.976592" xlink:href="#mc87a28d0f8" y="202.171827"/>
     <use style="fill-opacity:0.3;stroke:#000000;stroke-opacity:0.3;" x="150.271008" xlink:href="#mc87a28d0f8" y="202.198831"/>
     <use style="fill-opacity:0.3;stroke:#000000;stroke-opacity:0.3;" x="81.47913" xlink:href="#mc87a28d0f8" y="202.187628"/>
     <use style="fill-opacity:0.3;stroke:#000000;stroke-opacity:0.3;" x="150.271008" xlink:href="#mc87a28d0f8" y="202.184399"/>
     <use style="fill-opacity:0.3;stroke:#000000;stroke-opacity:0.3;" x="109.366829" xlink:href="#mc87a28d0f8" y="202.114326"/>
     <use style="fill-opacity:0.3;stroke:#000000;stroke-opacity:0.3;" x="141.510616" xlink:href="#mc87a28d0f8" y="202.105558"/>
     <use style="fill-opacity:0.3;stroke:#000000;stroke-opacity:0.3;" x="273.469321" xlink:href="#mc87a28d0f8" y="202.2"/>
     <use style="fill-opacity:0.3;stroke:#000000;stroke-opacity:0.3;" x="139.335883" xlink:href="#mc87a28d0f8" y="202.058446"/>
     <use style="fill-opacity:0.3;stroke:#000000;stroke-opacity:0.3;" x="198.692721" xlink:href="#mc87a28d0f8" y="202.038233"/>
     <use style="fill-opacity:0.3;stroke:#000000;stroke-opacity:0.3;" x="87.211786" xlink:href="#mc87a28d0f8" y="202.193191"/>
     <use style="fill-opacity:0.3;stroke:#000000;stroke-opacity:0.3;" x="339.448674" xlink:href="#mc87a28d0f8" y="202.2"/>
     <use style="fill-opacity:0.3;stroke:#000000;stroke-opacity:0.3;" x="114.342647" xlink:href="#mc87a28d0f8" y="201.867491"/>
     <use style="fill-opacity:0.3;stroke:#000000;stroke-opacity:0.3;" x="67.37293" xlink:href="#mc87a28d0f8" y="202.043826"/>
     <use style="fill-opacity:0.3;stroke:#000000;stroke-opacity:0.3;" x="69.194866" xlink:href="#mc87a28d0f8" y="202.041083"/>
     <use style="fill-opacity:0.3;stroke:#000000;stroke-opacity:0.3;" x="339.448674" xlink:href="#mc87a28d0f8" y="201.980038"/>
     <use style="fill-opacity:0.3;stroke:#000000;stroke-opacity:0.3;" x="169.188775" xlink:href="#mc87a28d0f8" y="202.138475"/>
     <use style="fill-opacity:0.3;stroke:#000000;stroke-opacity:0.3;" x="207.489968" xlink:href="#mc87a28d0f8" y="202.2"/>
     <use style="fill-opacity:0.3;stroke:#000000;stroke-opacity:0.3;" x="339.448674" xlink:href="#mc87a28d0f8" y="202.2"/>
     <use style="fill-opacity:0.3;stroke:#000000;stroke-opacity:0.3;" x="339.448674" xlink:href="#mc87a28d0f8" y="202.080216"/>
     <use style="fill-opacity:0.3;stroke:#000000;stroke-opacity:0.3;" x="116.375624" xlink:href="#mc87a28d0f8" y="201.910716"/>
     <use style="fill-opacity:0.3;stroke:#000000;stroke-opacity:0.3;" x="141.510616" xlink:href="#mc87a28d0f8" y="202.050977"/>
     <use style="fill-opacity:0.3;stroke:#000000;stroke-opacity:0.3;" x="339.448674" xlink:href="#mc87a28d0f8" y="202.095373"/>
     <use style="fill-opacity:0.3;stroke:#000000;stroke-opacity:0.3;" x="339.448674" xlink:href="#mc87a28d0f8" y="202.188922"/>
     <use style="fill-opacity:0.3;stroke:#000000;stroke-opacity:0.3;" x="339.448674" xlink:href="#mc87a28d0f8" y="202.2"/>
     <use style="fill-opacity:0.3;stroke:#000000;stroke-opacity:0.3;" x="339.448674" xlink:href="#mc87a28d0f8" y="202.2"/>
     <use style="fill-opacity:0.3;stroke:#000000;stroke-opacity:0.3;" x="339.448674" xlink:href="#mc87a28d0f8" y="202.173998"/>
     <use style="fill-opacity:0.3;stroke:#000000;stroke-opacity:0.3;" x="120.623762" xlink:href="#mc87a28d0f8" y="201.760553"/>
     <use style="fill-opacity:0.3;stroke:#000000;stroke-opacity:0.3;" x="67.37293" xlink:href="#mc87a28d0f8" y="202.043826"/>
     <use style="fill-opacity:0.3;stroke:#000000;stroke-opacity:0.3;" x="126.698925" xlink:href="#mc87a28d0f8" y="201.547224"/>
     <use style="fill-opacity:0.3;stroke:#000000;stroke-opacity:0.3;" x="339.448674" xlink:href="#mc87a28d0f8" y="202.2"/>
     <use style="fill-opacity:0.3;stroke:#000000;stroke-opacity:0.3;" x="112.435475" xlink:href="#mc87a28d0f8" y="202.17207"/>
     <use style="fill-opacity:0.3;stroke:#000000;stroke-opacity:0.3;" x="163.503733" xlink:href="#mc87a28d0f8" y="202.091094"/>
     <use style="fill-opacity:0.3;stroke:#000000;stroke-opacity:0.3;" x="329.298004" xlink:href="#mc87a28d0f8" y="202.121541"/>
     <use style="fill-opacity:0.3;stroke:#000000;stroke-opacity:0.3;" x="78.673137" xlink:href="#mc87a28d0f8" y="202.058833"/>
     <use style="fill-opacity:0.3;stroke:#000000;stroke-opacity:0.3;" x="339.448674" xlink:href="#mc87a28d0f8" y="196.316689"/>
     <use style="fill-opacity:0.3;stroke:#000000;stroke-opacity:0.3;" x="339.448674" xlink:href="#mc87a28d0f8" y="200.911362"/>
     <use style="fill-opacity:0.3;stroke:#000000;stroke-opacity:0.3;" x="174.500292" xlink:href="#mc87a28d0f8" y="202.015587"/>
     <use style="fill-opacity:0.3;stroke:#000000;stroke-opacity:0.3;" x="339.448674" xlink:href="#mc87a28d0f8" y="195.188744"/>
     <use style="fill-opacity:0.3;stroke:#000000;stroke-opacity:0.3;" x="126.6238" xlink:href="#mc87a28d0f8" y="202.184719"/>
     <use style="fill-opacity:0.3;stroke:#000000;stroke-opacity:0.3;" x="172.527204" xlink:href="#mc87a28d0f8" y="202.11993"/>
     <use style="fill-opacity:0.3;stroke:#000000;stroke-opacity:0.3;" x="339.448674" xlink:href="#mc87a28d0f8" y="202.2"/>
    </g>
   </g>
   <g id="matplotlib.axis_1">
    <g id="xtick_1">
     <g id="line2d_1">
      <defs>
       <path d="M 0 0 
L 0 3.5 
" id="mb1ee424147" style="stroke:#000000;stroke-width:0.8;"/>
      </defs>
      <g>
       <use style="stroke:#000000;stroke-width:0.8;" x="65.786621" xlink:href="#mb1ee424147" y="202.2"/>
      </g>
     </g>
     <g id="text_1">
      <!-- 0.0 -->
      <defs>
       <path d="M 4.15625 35.296875 
Q 4.15625 48 6.765625 55.734375 
Q 9.375 63.484375 14.515625 67.671875 
Q 19.671875 71.875 27.484375 71.875 
Q 33.25 71.875 37.59375 69.546875 
Q 41.9375 67.234375 44.765625 62.859375 
Q 47.609375 58.5 49.21875 52.21875 
Q 50.828125 45.953125 50.828125 35.296875 
Q 50.828125 22.703125 48.234375 14.96875 
Q 45.65625 7.234375 40.5 3 
Q 35.359375 -1.21875 27.484375 -1.21875 
Q 17.140625 -1.21875 11.234375 6.203125 
Q 4.15625 15.140625 4.15625 35.296875 
z
M 13.1875 35.296875 
Q 13.1875 17.671875 17.3125 11.828125 
Q 21.4375 6 27.484375 6 
Q 33.546875 6 37.671875 11.859375 
Q 41.796875 17.71875 41.796875 35.296875 
Q 41.796875 52.984375 37.671875 58.78125 
Q 33.546875 64.59375 27.390625 64.59375 
Q 21.34375 64.59375 17.71875 59.46875 
Q 13.1875 52.9375 13.1875 35.296875 
z
" id="ArialMT-48"/>
       <path d="M 9.078125 0 
L 9.078125 10.015625 
L 19.09375 10.015625 
L 19.09375 0 
z
" id="ArialMT-46"/>
      </defs>
      <g transform="translate(56.056621 219.220938)scale(0.14 -0.14)">
       <use xlink:href="#ArialMT-48"/>
       <use x="55.615234" xlink:href="#ArialMT-46"/>
       <use x="83.398438" xlink:href="#ArialMT-48"/>
      </g>
     </g>
    </g>
    <g id="xtick_2">
     <g id="line2d_2">
      <g>
       <use style="stroke:#000000;stroke-width:0.8;" x="120.519031" xlink:href="#mb1ee424147" y="202.2"/>
      </g>
     </g>
     <g id="text_2">
      <!-- 0.2 -->
      <defs>
       <path d="M 50.34375 8.453125 
L 50.34375 0 
L 3.03125 0 
Q 2.9375 3.171875 4.046875 6.109375 
Q 5.859375 10.9375 9.828125 15.625 
Q 13.8125 20.3125 21.34375 26.46875 
Q 33.015625 36.03125 37.109375 41.625 
Q 41.21875 47.21875 41.21875 52.203125 
Q 41.21875 57.421875 37.46875 61 
Q 33.734375 64.59375 27.734375 64.59375 
Q 21.390625 64.59375 17.578125 60.78125 
Q 13.765625 56.984375 13.71875 50.25 
L 4.6875 51.171875 
Q 5.609375 61.28125 11.65625 66.578125 
Q 17.71875 71.875 27.9375 71.875 
Q 38.234375 71.875 44.234375 66.15625 
Q 50.25 60.453125 50.25 52 
Q 50.25 47.703125 48.484375 43.546875 
Q 46.734375 39.40625 42.65625 34.8125 
Q 38.578125 30.21875 29.109375 22.21875 
Q 21.1875 15.578125 18.9375 13.203125 
Q 16.703125 10.84375 15.234375 8.453125 
z
" id="ArialMT-50"/>
      </defs>
      <g transform="translate(110.789031 219.220938)scale(0.14 -0.14)">
       <use xlink:href="#ArialMT-48"/>
       <use x="55.615234" xlink:href="#ArialMT-46"/>
       <use x="83.398438" xlink:href="#ArialMT-50"/>
      </g>
     </g>
    </g>
    <g id="xtick_3">
     <g id="line2d_3">
      <g>
       <use style="stroke:#000000;stroke-width:0.8;" x="175.251442" xlink:href="#mb1ee424147" y="202.2"/>
      </g>
     </g>
     <g id="text_3">
      <!-- 0.4 -->
      <defs>
       <path d="M 32.328125 0 
L 32.328125 17.140625 
L 1.265625 17.140625 
L 1.265625 25.203125 
L 33.9375 71.578125 
L 41.109375 71.578125 
L 41.109375 25.203125 
L 50.78125 25.203125 
L 50.78125 17.140625 
L 41.109375 17.140625 
L 41.109375 0 
z
M 32.328125 25.203125 
L 32.328125 57.46875 
L 9.90625 25.203125 
z
" id="ArialMT-52"/>
      </defs>
      <g transform="translate(165.521442 219.220938)scale(0.14 -0.14)">
       <use xlink:href="#ArialMT-48"/>
       <use x="55.615234" xlink:href="#ArialMT-46"/>
       <use x="83.398438" xlink:href="#ArialMT-52"/>
      </g>
     </g>
    </g>
    <g id="xtick_4">
     <g id="line2d_4">
      <g>
       <use style="stroke:#000000;stroke-width:0.8;" x="229.983852" xlink:href="#mb1ee424147" y="202.2"/>
      </g>
     </g>
     <g id="text_4">
      <!-- 0.6 -->
      <defs>
       <path d="M 49.75 54.046875 
L 41.015625 53.375 
Q 39.84375 58.546875 37.703125 60.890625 
Q 34.125 64.65625 28.90625 64.65625 
Q 24.703125 64.65625 21.53125 62.3125 
Q 17.390625 59.28125 14.984375 53.46875 
Q 12.59375 47.65625 12.5 36.921875 
Q 15.671875 41.75 20.265625 44.09375 
Q 24.859375 46.4375 29.890625 46.4375 
Q 38.671875 46.4375 44.84375 39.96875 
Q 51.03125 33.5 51.03125 23.25 
Q 51.03125 16.5 48.125 10.71875 
Q 45.21875 4.9375 40.140625 1.859375 
Q 35.0625 -1.21875 28.609375 -1.21875 
Q 17.625 -1.21875 10.6875 6.859375 
Q 3.765625 14.9375 3.765625 33.5 
Q 3.765625 54.25 11.421875 63.671875 
Q 18.109375 71.875 29.4375 71.875 
Q 37.890625 71.875 43.28125 67.140625 
Q 48.6875 62.40625 49.75 54.046875 
z
M 13.875 23.1875 
Q 13.875 18.65625 15.796875 14.5 
Q 17.71875 10.359375 21.1875 8.171875 
Q 24.65625 6 28.46875 6 
Q 34.03125 6 38.03125 10.484375 
Q 42.046875 14.984375 42.046875 22.703125 
Q 42.046875 30.125 38.078125 34.390625 
Q 34.125 38.671875 28.125 38.671875 
Q 22.171875 38.671875 18.015625 34.390625 
Q 13.875 30.125 13.875 23.1875 
z
" id="ArialMT-54"/>
      </defs>
      <g transform="translate(220.253852 219.220938)scale(0.14 -0.14)">
       <use xlink:href="#ArialMT-48"/>
       <use x="55.615234" xlink:href="#ArialMT-46"/>
       <use x="83.398438" xlink:href="#ArialMT-54"/>
      </g>
     </g>
    </g>
    <g id="xtick_5">
     <g id="line2d_5">
      <g>
       <use style="stroke:#000000;stroke-width:0.8;" x="284.716263" xlink:href="#mb1ee424147" y="202.2"/>
      </g>
     </g>
     <g id="text_5">
      <!-- 0.8 -->
      <defs>
       <path d="M 17.671875 38.8125 
Q 12.203125 40.828125 9.5625 44.53125 
Q 6.9375 48.25 6.9375 53.421875 
Q 6.9375 61.234375 12.546875 66.546875 
Q 18.171875 71.875 27.484375 71.875 
Q 36.859375 71.875 42.578125 66.421875 
Q 48.296875 60.984375 48.296875 53.171875 
Q 48.296875 48.1875 45.671875 44.5 
Q 43.0625 40.828125 37.75 38.8125 
Q 44.34375 36.671875 47.78125 31.875 
Q 51.21875 27.09375 51.21875 20.453125 
Q 51.21875 11.28125 44.71875 5.03125 
Q 38.234375 -1.21875 27.640625 -1.21875 
Q 17.046875 -1.21875 10.546875 5.046875 
Q 4.046875 11.328125 4.046875 20.703125 
Q 4.046875 27.6875 7.59375 32.390625 
Q 11.140625 37.109375 17.671875 38.8125 
z
M 15.921875 53.71875 
Q 15.921875 48.640625 19.1875 45.40625 
Q 22.46875 42.1875 27.6875 42.1875 
Q 32.765625 42.1875 36.015625 45.375 
Q 39.265625 48.578125 39.265625 53.21875 
Q 39.265625 58.0625 35.90625 61.359375 
Q 32.5625 64.65625 27.59375 64.65625 
Q 22.5625 64.65625 19.234375 61.421875 
Q 15.921875 58.203125 15.921875 53.71875 
z
M 13.09375 20.65625 
Q 13.09375 16.890625 14.875 13.375 
Q 16.65625 9.859375 20.171875 7.921875 
Q 23.6875 6 27.734375 6 
Q 34.03125 6 38.125 10.046875 
Q 42.234375 14.109375 42.234375 20.359375 
Q 42.234375 26.703125 38.015625 30.859375 
Q 33.796875 35.015625 27.4375 35.015625 
Q 21.234375 35.015625 17.15625 30.90625 
Q 13.09375 26.8125 13.09375 20.65625 
z
" id="ArialMT-56"/>
      </defs>
      <g transform="translate(274.986263 219.220938)scale(0.14 -0.14)">
       <use xlink:href="#ArialMT-48"/>
       <use x="55.615234" xlink:href="#ArialMT-46"/>
       <use x="83.398438" xlink:href="#ArialMT-56"/>
      </g>
     </g>
    </g>
    <g id="xtick_6">
     <g id="line2d_6">
      <g>
       <use style="stroke:#000000;stroke-width:0.8;" x="339.448674" xlink:href="#mb1ee424147" y="202.2"/>
      </g>
     </g>
     <g id="text_6">
      <!-- 1.0 -->
      <defs>
       <path d="M 37.25 0 
L 28.46875 0 
L 28.46875 56 
Q 25.296875 52.984375 20.140625 49.953125 
Q 14.984375 46.921875 10.890625 45.40625 
L 10.890625 53.90625 
Q 18.265625 57.375 23.78125 62.296875 
Q 29.296875 67.234375 31.59375 71.875 
L 37.25 71.875 
z
" id="ArialMT-49"/>
      </defs>
      <g transform="translate(329.718674 219.220938)scale(0.14 -0.14)">
       <use xlink:href="#ArialMT-49"/>
       <use x="55.615234" xlink:href="#ArialMT-46"/>
       <use x="83.398438" xlink:href="#ArialMT-48"/>
      </g>
     </g>
    </g>
    <g id="text_7">
     <!-- cluster ratio -->
     <defs>
      <path d="M 40.4375 19 
L 49.078125 17.875 
Q 47.65625 8.9375 41.8125 3.875 
Q 35.984375 -1.171875 27.484375 -1.171875 
Q 16.84375 -1.171875 10.375 5.78125 
Q 3.90625 12.75 3.90625 25.734375 
Q 3.90625 34.125 6.6875 40.421875 
Q 9.46875 46.734375 15.15625 49.875 
Q 20.84375 53.03125 27.546875 53.03125 
Q 35.984375 53.03125 41.359375 48.75 
Q 46.734375 44.484375 48.25 36.625 
L 39.703125 35.296875 
Q 38.484375 40.53125 35.375 43.15625 
Q 32.28125 45.796875 27.875 45.796875 
Q 21.234375 45.796875 17.078125 41.03125 
Q 12.9375 36.28125 12.9375 25.984375 
Q 12.9375 15.53125 16.9375 10.796875 
Q 20.953125 6.0625 27.390625 6.0625 
Q 32.5625 6.0625 36.03125 9.234375 
Q 39.5 12.40625 40.4375 19 
z
" id="ArialMT-99"/>
      <path d="M 6.390625 0 
L 6.390625 71.578125 
L 15.1875 71.578125 
L 15.1875 0 
z
" id="ArialMT-108"/>
      <path d="M 40.578125 0 
L 40.578125 7.625 
Q 34.515625 -1.171875 24.125 -1.171875 
Q 19.53125 -1.171875 15.546875 0.578125 
Q 11.578125 2.34375 9.640625 5 
Q 7.71875 7.671875 6.9375 11.53125 
Q 6.390625 14.109375 6.390625 19.734375 
L 6.390625 51.859375 
L 15.1875 51.859375 
L 15.1875 23.09375 
Q 15.1875 16.21875 15.71875 13.8125 
Q 16.546875 10.359375 19.234375 8.375 
Q 21.921875 6.390625 25.875 6.390625 
Q 29.828125 6.390625 33.296875 8.421875 
Q 36.765625 10.453125 38.203125 13.9375 
Q 39.65625 17.4375 39.65625 24.078125 
L 39.65625 51.859375 
L 48.4375 51.859375 
L 48.4375 0 
z
" id="ArialMT-117"/>
      <path d="M 3.078125 15.484375 
L 11.765625 16.84375 
Q 12.5 11.625 15.84375 8.84375 
Q 19.1875 6.0625 25.203125 6.0625 
Q 31.25 6.0625 34.171875 8.515625 
Q 37.109375 10.984375 37.109375 14.3125 
Q 37.109375 17.28125 34.515625 19 
Q 32.71875 20.171875 25.53125 21.96875 
Q 15.875 24.421875 12.140625 26.203125 
Q 8.40625 27.984375 6.46875 31.125 
Q 4.546875 34.28125 4.546875 38.09375 
Q 4.546875 41.546875 6.125 44.5 
Q 7.71875 47.46875 10.453125 49.421875 
Q 12.5 50.921875 16.03125 51.96875 
Q 19.578125 53.03125 23.640625 53.03125 
Q 29.734375 53.03125 34.34375 51.265625 
Q 38.96875 49.515625 41.15625 46.5 
Q 43.359375 43.5 44.1875 38.484375 
L 35.59375 37.3125 
Q 35.015625 41.3125 32.203125 43.546875 
Q 29.390625 45.796875 24.265625 45.796875 
Q 18.21875 45.796875 15.625 43.796875 
Q 13.03125 41.796875 13.03125 39.109375 
Q 13.03125 37.40625 14.109375 36.03125 
Q 15.1875 34.625 17.484375 33.6875 
Q 18.796875 33.203125 25.25 31.453125 
Q 34.578125 28.953125 38.25 27.359375 
Q 41.9375 25.78125 44.03125 22.75 
Q 46.140625 19.734375 46.140625 15.234375 
Q 46.140625 10.84375 43.578125 6.953125 
Q 41.015625 3.078125 36.171875 0.953125 
Q 31.34375 -1.171875 25.25 -1.171875 
Q 15.140625 -1.171875 9.84375 3.03125 
Q 4.546875 7.234375 3.078125 15.484375 
z
" id="ArialMT-115"/>
      <path d="M 25.78125 7.859375 
L 27.046875 0.09375 
Q 23.34375 -0.6875 20.40625 -0.6875 
Q 15.625 -0.6875 12.984375 0.828125 
Q 10.359375 2.34375 9.28125 4.8125 
Q 8.203125 7.28125 8.203125 15.1875 
L 8.203125 45.015625 
L 1.765625 45.015625 
L 1.765625 51.859375 
L 8.203125 51.859375 
L 8.203125 64.703125 
L 16.9375 69.96875 
L 16.9375 51.859375 
L 25.78125 51.859375 
L 25.78125 45.015625 
L 16.9375 45.015625 
L 16.9375 14.703125 
Q 16.9375 10.9375 17.40625 9.859375 
Q 17.875 8.796875 18.921875 8.15625 
Q 19.96875 7.515625 21.921875 7.515625 
Q 23.390625 7.515625 25.78125 7.859375 
z
" id="ArialMT-116"/>
      <path d="M 42.09375 16.703125 
L 51.171875 15.578125 
Q 49.03125 7.625 43.21875 3.21875 
Q 37.40625 -1.171875 28.375 -1.171875 
Q 17 -1.171875 10.328125 5.828125 
Q 3.65625 12.84375 3.65625 25.484375 
Q 3.65625 38.578125 10.390625 45.796875 
Q 17.140625 53.03125 27.875 53.03125 
Q 38.28125 53.03125 44.875 45.953125 
Q 51.46875 38.875 51.46875 26.03125 
Q 51.46875 25.25 51.421875 23.6875 
L 12.75 23.6875 
Q 13.234375 15.140625 17.578125 10.59375 
Q 21.921875 6.0625 28.421875 6.0625 
Q 33.25 6.0625 36.671875 8.59375 
Q 40.09375 11.140625 42.09375 16.703125 
z
M 13.234375 30.90625 
L 42.1875 30.90625 
Q 41.609375 37.453125 38.875 40.71875 
Q 34.671875 45.796875 27.984375 45.796875 
Q 21.921875 45.796875 17.796875 41.75 
Q 13.671875 37.703125 13.234375 30.90625 
z
" id="ArialMT-101"/>
      <path d="M 6.5 0 
L 6.5 51.859375 
L 14.40625 51.859375 
L 14.40625 44 
Q 17.4375 49.515625 20 51.265625 
Q 22.5625 53.03125 25.640625 53.03125 
Q 30.078125 53.03125 34.671875 50.203125 
L 31.640625 42.046875 
Q 28.421875 43.953125 25.203125 43.953125 
Q 22.3125 43.953125 20.015625 42.21875 
Q 17.71875 40.484375 16.75 37.40625 
Q 15.28125 32.71875 15.28125 27.15625 
L 15.28125 0 
z
" id="ArialMT-114"/>
      <path id="ArialMT-32"/>
      <path d="M 40.4375 6.390625 
Q 35.546875 2.25 31.03125 0.53125 
Q 26.515625 -1.171875 21.34375 -1.171875 
Q 12.796875 -1.171875 8.203125 3 
Q 3.609375 7.171875 3.609375 13.671875 
Q 3.609375 17.484375 5.34375 20.625 
Q 7.078125 23.78125 9.890625 25.6875 
Q 12.703125 27.59375 16.21875 28.5625 
Q 18.796875 29.25 24.03125 29.890625 
Q 34.671875 31.15625 39.703125 32.90625 
Q 39.75 34.71875 39.75 35.203125 
Q 39.75 40.578125 37.25 42.78125 
Q 33.890625 45.75 27.25 45.75 
Q 21.046875 45.75 18.09375 43.578125 
Q 15.140625 41.40625 13.71875 35.890625 
L 5.125 37.0625 
Q 6.296875 42.578125 8.984375 45.96875 
Q 11.671875 49.359375 16.75 51.1875 
Q 21.828125 53.03125 28.515625 53.03125 
Q 35.15625 53.03125 39.296875 51.46875 
Q 43.453125 49.90625 45.40625 47.53125 
Q 47.359375 45.171875 48.140625 41.546875 
Q 48.578125 39.3125 48.578125 33.453125 
L 48.578125 21.734375 
Q 48.578125 9.46875 49.140625 6.21875 
Q 49.703125 2.984375 51.375 0 
L 42.1875 0 
Q 40.828125 2.734375 40.4375 6.390625 
z
M 39.703125 26.03125 
Q 34.90625 24.078125 25.34375 22.703125 
Q 19.921875 21.921875 17.671875 20.9375 
Q 15.4375 19.96875 14.203125 18.09375 
Q 12.984375 16.21875 12.984375 13.921875 
Q 12.984375 10.40625 15.640625 8.0625 
Q 18.3125 5.71875 23.4375 5.71875 
Q 28.515625 5.71875 32.46875 7.9375 
Q 36.421875 10.15625 38.28125 14.015625 
Q 39.703125 17 39.703125 22.796875 
z
" id="ArialMT-97"/>
      <path d="M 6.640625 61.46875 
L 6.640625 71.578125 
L 15.4375 71.578125 
L 15.4375 61.46875 
z
M 6.640625 0 
L 6.640625 51.859375 
L 15.4375 51.859375 
L 15.4375 0 
z
" id="ArialMT-105"/>
      <path d="M 3.328125 25.921875 
Q 3.328125 40.328125 11.328125 47.265625 
Q 18.015625 53.03125 27.640625 53.03125 
Q 38.328125 53.03125 45.109375 46.015625 
Q 51.90625 39.015625 51.90625 26.65625 
Q 51.90625 16.65625 48.90625 10.90625 
Q 45.90625 5.171875 40.15625 2 
Q 34.421875 -1.171875 27.640625 -1.171875 
Q 16.75 -1.171875 10.03125 5.8125 
Q 3.328125 12.796875 3.328125 25.921875 
z
M 12.359375 25.921875 
Q 12.359375 15.96875 16.703125 11.015625 
Q 21.046875 6.0625 27.640625 6.0625 
Q 34.1875 6.0625 38.53125 11.03125 
Q 42.875 16.015625 42.875 26.21875 
Q 42.875 35.84375 38.5 40.796875 
Q 34.125 45.75 27.640625 45.75 
Q 21.046875 45.75 16.703125 40.8125 
Q 12.359375 35.890625 12.359375 25.921875 
z
" id="ArialMT-111"/>
     </defs>
     <g transform="translate(166.440772 236.024375)scale(0.14 -0.14)">
      <use xlink:href="#ArialMT-99"/>
      <use x="50" xlink:href="#ArialMT-108"/>
      <use x="72.216797" xlink:href="#ArialMT-117"/>
      <use x="127.832031" xlink:href="#ArialMT-115"/>
      <use x="177.832031" xlink:href="#ArialMT-116"/>
      <use x="205.615234" xlink:href="#ArialMT-101"/>
      <use x="261.230469" xlink:href="#ArialMT-114"/>
      <use x="294.53125" xlink:href="#ArialMT-32"/>
      <use x="322.314453" xlink:href="#ArialMT-114"/>
      <use x="355.615234" xlink:href="#ArialMT-97"/>
      <use x="411.230469" xlink:href="#ArialMT-116"/>
      <use x="439.013672" xlink:href="#ArialMT-105"/>
      <use x="461.230469" xlink:href="#ArialMT-111"/>
     </g>
    </g>
   </g>
   <g id="matplotlib.axis_2">
    <g id="ytick_1">
     <g id="line2d_7">
      <defs>
       <path d="M 0 0 
L -3.5 0 
" id="m735aa8da3a" style="stroke:#000000;stroke-width:0.8;"/>
      </defs>
      <g>
       <use style="stroke:#000000;stroke-width:0.8;" x="63.05" xlink:href="#m735aa8da3a" y="202.2"/>
      </g>
     </g>
     <g id="text_8">
      <!-- 0.00 -->
      <g transform="translate(28.804688 207.210469)scale(0.14 -0.14)">
       <use xlink:href="#ArialMT-48"/>
       <use x="55.615234" xlink:href="#ArialMT-46"/>
       <use x="83.398438" xlink:href="#ArialMT-48"/>
       <use x="139.013672" xlink:href="#ArialMT-48"/>
      </g>
     </g>
    </g>
    <g id="ytick_2">
     <g id="line2d_8">
      <g>
       <use style="stroke:#000000;stroke-width:0.8;" x="63.05" xlink:href="#m735aa8da3a" y="151.009329"/>
      </g>
     </g>
     <g id="text_9">
      <!-- 0.05 -->
      <defs>
       <path d="M 4.15625 18.75 
L 13.375 19.53125 
Q 14.40625 12.796875 18.140625 9.390625 
Q 21.875 6 27.15625 6 
Q 33.5 6 37.890625 10.78125 
Q 42.28125 15.578125 42.28125 23.484375 
Q 42.28125 31 38.0625 35.34375 
Q 33.84375 39.703125 27 39.703125 
Q 22.75 39.703125 19.328125 37.765625 
Q 15.921875 35.84375 13.96875 32.765625 
L 5.71875 33.84375 
L 12.640625 70.609375 
L 48.25 70.609375 
L 48.25 62.203125 
L 19.671875 62.203125 
L 15.828125 42.96875 
Q 22.265625 47.46875 29.34375 47.46875 
Q 38.71875 47.46875 45.15625 40.96875 
Q 51.609375 34.46875 51.609375 24.265625 
Q 51.609375 14.546875 45.953125 7.46875 
Q 39.0625 -1.21875 27.15625 -1.21875 
Q 17.390625 -1.21875 11.203125 4.25 
Q 5.03125 9.71875 4.15625 18.75 
z
" id="ArialMT-53"/>
      </defs>
      <g transform="translate(28.804688 156.019798)scale(0.14 -0.14)">
       <use xlink:href="#ArialMT-48"/>
       <use x="55.615234" xlink:href="#ArialMT-46"/>
       <use x="83.398438" xlink:href="#ArialMT-48"/>
       <use x="139.013672" xlink:href="#ArialMT-53"/>
      </g>
     </g>
    </g>
    <g id="ytick_3">
     <g id="line2d_9">
      <g>
       <use style="stroke:#000000;stroke-width:0.8;" x="63.05" xlink:href="#m735aa8da3a" y="99.818658"/>
      </g>
     </g>
     <g id="text_10">
      <!-- 0.10 -->
      <g transform="translate(28.804688 104.829127)scale(0.14 -0.14)">
       <use xlink:href="#ArialMT-48"/>
       <use x="55.615234" xlink:href="#ArialMT-46"/>
       <use x="83.398438" xlink:href="#ArialMT-49"/>
       <use x="139.013672" xlink:href="#ArialMT-48"/>
      </g>
     </g>
    </g>
    <g id="ytick_4">
     <g id="line2d_10">
      <g>
       <use style="stroke:#000000;stroke-width:0.8;" x="63.05" xlink:href="#m735aa8da3a" y="48.627987"/>
      </g>
     </g>
     <g id="text_11">
      <!-- 0.15 -->
      <g transform="translate(28.804688 53.638456)scale(0.14 -0.14)">
       <use xlink:href="#ArialMT-48"/>
       <use x="55.615234" xlink:href="#ArialMT-46"/>
       <use x="83.398438" xlink:href="#ArialMT-49"/>
       <use x="139.013672" xlink:href="#ArialMT-53"/>
      </g>
     </g>
    </g>
    <g id="text_12">
     <!-- fractional importance -->
     <defs>
      <path d="M 8.6875 0 
L 8.6875 45.015625 
L 0.921875 45.015625 
L 0.921875 51.859375 
L 8.6875 51.859375 
L 8.6875 57.375 
Q 8.6875 62.59375 9.625 65.140625 
Q 10.890625 68.5625 14.078125 70.671875 
Q 17.28125 72.796875 23.046875 72.796875 
Q 26.765625 72.796875 31.25 71.921875 
L 29.9375 64.265625 
Q 27.203125 64.75 24.75 64.75 
Q 20.75 64.75 19.09375 63.03125 
Q 17.4375 61.328125 17.4375 56.640625 
L 17.4375 51.859375 
L 27.546875 51.859375 
L 27.546875 45.015625 
L 17.4375 45.015625 
L 17.4375 0 
z
" id="ArialMT-102"/>
      <path d="M 6.59375 0 
L 6.59375 51.859375 
L 14.5 51.859375 
L 14.5 44.484375 
Q 20.21875 53.03125 31 53.03125 
Q 35.6875 53.03125 39.625 51.34375 
Q 43.5625 49.65625 45.515625 46.921875 
Q 47.46875 44.1875 48.25 40.4375 
Q 48.734375 37.984375 48.734375 31.890625 
L 48.734375 0 
L 39.9375 0 
L 39.9375 31.546875 
Q 39.9375 36.921875 38.90625 39.578125 
Q 37.890625 42.234375 35.28125 43.8125 
Q 32.671875 45.40625 29.15625 45.40625 
Q 23.53125 45.40625 19.453125 41.84375 
Q 15.375 38.28125 15.375 28.328125 
L 15.375 0 
z
" id="ArialMT-110"/>
      <path d="M 6.59375 0 
L 6.59375 51.859375 
L 14.453125 51.859375 
L 14.453125 44.578125 
Q 16.890625 48.390625 20.9375 50.703125 
Q 25 53.03125 30.171875 53.03125 
Q 35.9375 53.03125 39.625 50.640625 
Q 43.3125 48.25 44.828125 43.953125 
Q 50.984375 53.03125 60.84375 53.03125 
Q 68.5625 53.03125 72.703125 48.75 
Q 76.859375 44.484375 76.859375 35.59375 
L 76.859375 0 
L 68.109375 0 
L 68.109375 32.671875 
Q 68.109375 37.9375 67.25 40.25 
Q 66.40625 42.578125 64.15625 43.984375 
Q 61.921875 45.40625 58.890625 45.40625 
Q 53.421875 45.40625 49.796875 41.765625 
Q 46.1875 38.140625 46.1875 30.125 
L 46.1875 0 
L 37.40625 0 
L 37.40625 33.6875 
Q 37.40625 39.546875 35.25 42.46875 
Q 33.109375 45.40625 28.21875 45.40625 
Q 24.515625 45.40625 21.359375 43.453125 
Q 18.21875 41.5 16.796875 37.734375 
Q 15.375 33.984375 15.375 26.90625 
L 15.375 0 
z
" id="ArialMT-109"/>
      <path d="M 6.59375 -19.875 
L 6.59375 51.859375 
L 14.59375 51.859375 
L 14.59375 45.125 
Q 17.4375 49.078125 21 51.046875 
Q 24.5625 53.03125 29.640625 53.03125 
Q 36.28125 53.03125 41.359375 49.609375 
Q 46.4375 46.1875 49.015625 39.953125 
Q 51.609375 33.734375 51.609375 26.3125 
Q 51.609375 18.359375 48.75 11.984375 
Q 45.90625 5.609375 40.453125 2.21875 
Q 35.015625 -1.171875 29 -1.171875 
Q 24.609375 -1.171875 21.109375 0.6875 
Q 17.625 2.546875 15.375 5.375 
L 15.375 -19.875 
z
M 14.546875 25.640625 
Q 14.546875 15.625 18.59375 10.84375 
Q 22.65625 6.0625 28.421875 6.0625 
Q 34.28125 6.0625 38.453125 11.015625 
Q 42.625 15.96875 42.625 26.375 
Q 42.625 36.28125 38.546875 41.203125 
Q 34.46875 46.140625 28.8125 46.140625 
Q 23.1875 46.140625 18.859375 40.890625 
Q 14.546875 35.640625 14.546875 25.640625 
z
" id="ArialMT-112"/>
     </defs>
     <g transform="translate(22.022187 180.5725)rotate(-90)scale(0.14 -0.14)">
      <use xlink:href="#ArialMT-102"/>
      <use x="27.783203" xlink:href="#ArialMT-114"/>
      <use x="61.083984" xlink:href="#ArialMT-97"/>
      <use x="116.699219" xlink:href="#ArialMT-99"/>
      <use x="166.699219" xlink:href="#ArialMT-116"/>
      <use x="194.482422" xlink:href="#ArialMT-105"/>
      <use x="216.699219" xlink:href="#ArialMT-111"/>
      <use x="272.314453" xlink:href="#ArialMT-110"/>
      <use x="327.929688" xlink:href="#ArialMT-97"/>
      <use x="383.544922" xlink:href="#ArialMT-108"/>
      <use x="405.761719" xlink:href="#ArialMT-32"/>
      <use x="433.544922" xlink:href="#ArialMT-105"/>
      <use x="455.761719" xlink:href="#ArialMT-109"/>
      <use x="539.0625" xlink:href="#ArialMT-112"/>
      <use x="594.677734" xlink:href="#ArialMT-111"/>
      <use x="650.292969" xlink:href="#ArialMT-114"/>
      <use x="683.59375" xlink:href="#ArialMT-116"/>
      <use x="711.376953" xlink:href="#ArialMT-97"/>
      <use x="766.992188" xlink:href="#ArialMT-110"/>
      <use x="822.607422" xlink:href="#ArialMT-99"/>
      <use x="872.607422" xlink:href="#ArialMT-101"/>
     </g>
    </g>
   </g>
   <g id="patch_3">
    <path d="M 63.05 202.2 
L 63.05 29.003125 
" style="fill:none;stroke:#000000;stroke-linecap:square;stroke-linejoin:miter;stroke-width:0.8;"/>
   </g>
   <g id="patch_4">
    <path d="M 342.185294 202.2 
L 342.185294 29.003125 
" style="fill:none;stroke:#000000;stroke-linecap:square;stroke-linejoin:miter;stroke-width:0.8;"/>
   </g>
   <g id="patch_5">
    <path d="M 63.05 202.2 
L 342.185294 202.2 
" style="fill:none;stroke:#000000;stroke-linecap:square;stroke-linejoin:miter;stroke-width:0.8;"/>
   </g>
   <g id="patch_6">
    <path d="M 63.05 29.003125 
L 342.185294 29.003125 
" style="fill:none;stroke:#000000;stroke-linecap:square;stroke-linejoin:miter;stroke-width:0.8;"/>
   </g>
   <g id="text_13">
    <!-- Streptococcus vestibularis -->
    <defs>
     <path d="M 7.03125 23.140625 
L 16.40625 24.03125 
L 16.3125 21.53125 
Q 16.3125 17.390625 18.21875 13.9375 
Q 20.125 10.5 24.515625 8.609375 
Q 28.90625 6.734375 34.96875 6.734375 
Q 43.5625 6.734375 48.078125 10.5 
Q 52.59375 14.265625 52.59375 19.09375 
Q 52.59375 22.46875 50.203125 25.25 
Q 47.75 27.984375 36.859375 32.671875 
Q 28.421875 36.328125 25.34375 38.28125 
Q 20.515625 41.453125 18.21875 45.1875 
Q 15.921875 48.921875 15.921875 53.71875 
Q 15.921875 59.234375 18.9375 63.671875 
Q 21.96875 68.109375 27.796875 70.453125 
Q 33.640625 72.796875 40.96875 72.796875 
Q 49.703125 72.796875 55.703125 69.859375 
Q 61.71875 66.9375 64.421875 62.046875 
Q 67.140625 57.171875 67.140625 52.734375 
Q 67.140625 52.296875 67.09375 51.265625 
L 57.859375 50.53125 
Q 57.859375 53.5625 57.328125 55.28125 
Q 56.34375 58.25 54.296875 60.296875 
Q 52.25 62.359375 48.65625 63.59375 
Q 45.0625 64.84375 40.625 64.84375 
Q 32.8125 64.84375 28.46875 61.328125 
Q 25.140625 58.640625 25.140625 54.203125 
Q 25.140625 51.5625 26.5 49.484375 
Q 27.875 47.40625 31.453125 45.40625 
Q 33.984375 44 43.5 39.796875 
Q 51.21875 36.375 54.15625 34.421875 
Q 58.0625 31.84375 60.15625 28.15625 
Q 62.25 24.46875 62.25 19.78125 
Q 62.25 13.96875 58.703125 9.0625 
Q 55.171875 4.15625 48.921875 1.46875 
Q 42.671875 -1.21875 34.625 -1.21875 
Q 22.46875 -1.21875 14.765625 4.078125 
Q 7.078125 9.375 7.03125 23.140625 
z
" id="Arial-ItalicMT-83"/>
     <path d="M 23.96875 7.171875 
L 22.515625 -0.046875 
Q 19.34375 -0.875 16.359375 -0.875 
Q 11.078125 -0.875 7.953125 1.703125 
Q 5.609375 3.65625 5.609375 7.03125 
Q 5.609375 8.734375 6.890625 14.890625 
L 13.1875 45.015625 
L 6.203125 45.015625 
L 7.625 51.859375 
L 14.59375 51.859375 
L 17.28125 64.59375 
L 27.390625 70.703125 
L 23.4375 51.859375 
L 32.125 51.859375 
L 30.671875 45.015625 
L 22.015625 45.015625 
L 16.015625 16.359375 
Q 14.890625 10.890625 14.890625 9.8125 
Q 14.890625 8.25 15.796875 7.421875 
Q 16.703125 6.59375 18.75 6.59375 
Q 21.6875 6.59375 23.96875 7.171875 
z
" id="Arial-ItalicMT-116"/>
     <path d="M 3.328125 0 
L 14.15625 51.859375 
L 21.96875 51.859375 
L 19.78125 41.265625 
Q 23.78125 47.265625 27.609375 50.140625 
Q 31.453125 53.03125 35.453125 53.03125 
Q 38.09375 53.03125 41.9375 51.125 
L 38.328125 42.921875 
Q 36.03125 44.578125 33.296875 44.578125 
Q 28.65625 44.578125 23.765625 39.40625 
Q 18.890625 34.234375 16.109375 20.796875 
L 11.71875 0 
z
" id="Arial-ItalicMT-114"/>
     <path d="M 41.40625 17.625 
L 50 16.75 
Q 48.140625 10.359375 41.46875 4.59375 
Q 34.8125 -1.171875 25.59375 -1.171875 
Q 19.828125 -1.171875 15.015625 1.484375 
Q 10.203125 4.15625 7.6875 9.234375 
Q 5.171875 14.3125 5.171875 20.796875 
Q 5.171875 29.296875 9.09375 37.28125 
Q 13.03125 45.265625 19.28125 49.140625 
Q 25.53125 53.03125 32.8125 53.03125 
Q 42.09375 53.03125 47.625 47.265625 
Q 53.171875 41.5 53.171875 31.546875 
Q 53.171875 27.734375 52.484375 23.734375 
L 14.3125 23.734375 
Q 14.109375 22.21875 14.109375 21 
Q 14.109375 13.71875 17.453125 9.890625 
Q 20.796875 6.0625 25.640625 6.0625 
Q 30.171875 6.0625 34.5625 9.03125 
Q 38.96875 12.015625 41.40625 17.625 
z
M 15.71875 30.46875 
L 44.828125 30.46875 
Q 44.875 31.84375 44.875 32.421875 
Q 44.875 39.0625 41.546875 42.59375 
Q 38.234375 46.140625 33.015625 46.140625 
Q 27.34375 46.140625 22.671875 42.234375 
Q 18.015625 38.328125 15.71875 30.46875 
z
" id="Arial-ItalicMT-101"/>
     <path d="M -1.03125 -19.875 
L 13.96875 51.859375 
L 22.125 51.859375 
L 20.609375 44.625 
Q 25.140625 49.359375 28.734375 51.1875 
Q 32.328125 53.03125 36.328125 53.03125 
Q 43.75 53.03125 48.625 47.625 
Q 53.515625 42.234375 53.515625 32.171875 
Q 53.515625 24.078125 50.828125 17.40625 
Q 48.140625 10.75 44.234375 6.6875 
Q 40.328125 2.640625 36.328125 0.734375 
Q 32.328125 -1.171875 28.125 -1.171875 
Q 18.796875 -1.171875 13.671875 8.296875 
L 7.8125 -19.875 
z
M 16.453125 21.1875 
Q 16.453125 15.375 17.28125 13.140625 
Q 18.5 9.96875 21.28125 8.015625 
Q 24.078125 6.0625 27.734375 6.0625 
Q 35.359375 6.0625 40.046875 14.625 
Q 44.734375 23.1875 44.734375 32.125 
Q 44.734375 38.71875 41.578125 42.3125 
Q 38.421875 45.90625 33.734375 45.90625 
Q 30.375 45.90625 27.484375 44.109375 
Q 24.609375 42.328125 22.140625 38.78125 
Q 19.671875 35.25 18.0625 30.125 
Q 16.453125 25 16.453125 21.1875 
z
" id="Arial-ItalicMT-112"/>
     <path d="M 4.890625 19.671875 
Q 4.890625 34.859375 13.8125 44.828125 
Q 21.1875 53.03125 33.15625 53.03125 
Q 42.53125 53.03125 48.265625 47.171875 
Q 54 41.3125 54 31.34375 
Q 54 22.40625 50.390625 14.71875 
Q 46.78125 7.03125 40.109375 2.921875 
Q 33.453125 -1.171875 26.078125 -1.171875 
Q 20.015625 -1.171875 15.0625 1.40625 
Q 10.109375 4 7.5 8.734375 
Q 4.890625 13.484375 4.890625 19.671875 
z
M 13.71875 20.5625 
Q 13.71875 13.234375 17.234375 9.453125 
Q 20.75 5.671875 26.171875 5.671875 
Q 29 5.671875 31.78125 6.8125 
Q 34.578125 7.953125 36.96875 10.296875 
Q 39.359375 12.640625 41.03125 15.640625 
Q 42.71875 18.65625 43.75 22.125 
Q 45.265625 26.953125 45.265625 31.390625 
Q 45.265625 38.421875 41.71875 42.296875 
Q 38.1875 46.1875 32.8125 46.1875 
Q 28.65625 46.1875 25.234375 44.203125 
Q 21.828125 42.234375 19.0625 38.421875 
Q 16.3125 34.625 15.015625 29.5625 
Q 13.71875 24.515625 13.71875 20.5625 
z
" id="Arial-ItalicMT-111"/>
     <path d="M 39.109375 18.890625 
L 47.953125 17.96875 
Q 44.625 8.25 38.5 3.53125 
Q 32.375 -1.171875 24.5625 -1.171875 
Q 16.109375 -1.171875 10.859375 4.296875 
Q 5.609375 9.765625 5.609375 19.578125 
Q 5.609375 28.078125 8.984375 36.28125 
Q 12.359375 44.484375 18.625 48.75 
Q 24.90625 53.03125 32.953125 53.03125 
Q 41.3125 53.03125 46.1875 48.3125 
Q 51.078125 43.609375 51.078125 35.84375 
L 42.390625 35.25 
Q 42.328125 40.1875 39.515625 42.96875 
Q 36.71875 45.75 32.125 45.75 
Q 26.8125 45.75 22.90625 42.375 
Q 19 39.015625 16.765625 32.15625 
Q 14.546875 25.296875 14.546875 18.953125 
Q 14.546875 12.3125 17.46875 8.984375 
Q 20.40625 5.671875 24.703125 5.671875 
Q 29 5.671875 32.921875 8.9375 
Q 36.859375 12.203125 39.109375 18.890625 
z
" id="Arial-ItalicMT-99"/>
     <path d="M 38.71875 9.375 
Q 29.390625 -1.171875 19.625 -1.171875 
Q 13.625 -1.171875 9.9375 2.265625 
Q 6.25 5.71875 6.25 10.6875 
Q 6.25 13.96875 7.90625 21.921875 
L 14.15625 51.859375 
L 23 51.859375 
L 16.0625 18.703125 
Q 15.1875 14.546875 15.1875 12.25 
Q 15.1875 9.328125 16.96875 7.6875 
Q 18.75 6.0625 22.21875 6.0625 
Q 25.921875 6.0625 29.46875 7.859375 
Q 33.015625 9.671875 35.578125 12.75 
Q 38.140625 15.828125 39.75 20.015625 
Q 40.828125 22.703125 42.234375 29.4375 
L 46.921875 51.859375 
L 55.765625 51.859375 
L 44.921875 0 
L 36.765625 0 
z
" id="Arial-ItalicMT-117"/>
     <path d="M 4.15625 17.71875 
L 12.984375 18.265625 
Q 12.984375 14.453125 14.15625 11.765625 
Q 15.328125 9.078125 18.46875 7.375 
Q 21.625 5.671875 25.828125 5.671875 
Q 31.6875 5.671875 34.609375 8.015625 
Q 37.546875 10.359375 37.546875 13.53125 
Q 37.546875 15.828125 35.796875 17.875 
Q 33.984375 19.921875 26.96875 22.921875 
Q 19.96875 25.921875 18.015625 27.15625 
Q 14.75 29.15625 13.078125 31.859375 
Q 11.421875 34.578125 11.421875 38.09375 
Q 11.421875 44.234375 16.296875 48.625 
Q 21.1875 53.03125 29.984375 53.03125 
Q 39.75 53.03125 44.84375 48.515625 
Q 49.953125 44 50.140625 36.625 
L 41.5 36.03125 
Q 41.3125 40.71875 38.1875 43.453125 
Q 35.0625 46.1875 29.34375 46.1875 
Q 24.75 46.1875 22.203125 44.09375 
Q 19.671875 42 19.671875 39.546875 
Q 19.671875 37.109375 21.875 35.25 
Q 23.34375 33.984375 29.4375 31.34375 
Q 39.59375 26.953125 42.234375 24.421875 
Q 46.4375 20.359375 46.4375 14.546875 
Q 46.4375 10.6875 44.0625 6.96875 
Q 41.703125 3.265625 36.84375 1.046875 
Q 31.984375 -1.171875 25.390625 -1.171875 
Q 16.40625 -1.171875 10.109375 3.265625 
Q 3.8125 7.71875 4.15625 17.71875 
z
" id="Arial-ItalicMT-115"/>
     <path id="Arial-ItalicMT-32"/>
     <path d="M 16.40625 0 
L 7.90625 51.859375 
L 16.5 51.859375 
L 20.953125 23.296875 
Q 21.6875 18.609375 22.75 8.015625 
Q 25.296875 13.53125 29.25 20.65625 
L 46.578125 51.859375 
L 55.90625 51.859375 
L 26.21875 0 
z
" id="Arial-ItalicMT-118"/>
     <path d="M 15.875 61.578125 
L 17.96875 71.578125 
L 26.765625 71.578125 
L 24.65625 61.578125 
z
M 2.984375 0 
L 13.8125 51.859375 
L 22.65625 51.859375 
L 11.8125 0 
z
" id="Arial-ItalicMT-105"/>
     <path d="M 3.328125 0 
L 18.265625 71.578125 
L 27.09375 71.578125 
L 21.78125 46 
Q 25.984375 49.859375 29.390625 51.4375 
Q 32.8125 53.03125 36.53125 53.03125 
Q 43.796875 53.03125 48.65625 47.609375 
Q 53.515625 42.1875 53.515625 31.84375 
Q 53.515625 24.953125 51.5625 19.234375 
Q 49.609375 13.53125 46.71875 9.640625 
Q 43.84375 5.765625 40.765625 3.4375 
Q 37.703125 1.125 34.46875 -0.015625 
Q 31.25 -1.171875 28.265625 -1.171875 
Q 23.140625 -1.171875 19.234375 1.53125 
Q 15.328125 4.25 13.140625 9.8125 
L 11.078125 0 
z
M 16.40625 21.296875 
L 16.359375 19.625 
Q 16.359375 12.984375 19.53125 9.515625 
Q 22.703125 6.0625 27.4375 6.0625 
Q 32.078125 6.0625 35.953125 9.296875 
Q 39.84375 12.546875 42.328125 19.421875 
Q 44.828125 26.3125 44.828125 32.125 
Q 44.828125 38.671875 41.671875 42.28125 
Q 38.53125 45.90625 33.890625 45.90625 
Q 29.109375 45.90625 25.09375 42.21875 
Q 21.09375 38.53125 18.40625 30.859375 
Q 16.40625 25.140625 16.40625 21.296875 
z
" id="Arial-ItalicMT-98"/>
     <path d="M 2.640625 0 
L 17.578125 71.578125 
L 26.421875 71.578125 
L 11.46875 0 
z
" id="Arial-ItalicMT-108"/>
     <path d="M 38.28125 6.453125 
Q 33.6875 2.484375 29.4375 0.65625 
Q 25.203125 -1.171875 20.359375 -1.171875 
Q 13.1875 -1.171875 8.78125 3.046875 
Q 4.390625 7.28125 4.390625 13.875 
Q 4.390625 18.21875 6.359375 21.5625 
Q 8.34375 24.90625 11.609375 26.921875 
Q 14.890625 28.953125 19.625 29.828125 
Q 22.609375 30.421875 30.9375 30.765625 
Q 39.265625 31.109375 42.875 32.515625 
Q 43.890625 36.140625 43.890625 38.53125 
Q 43.890625 41.609375 41.65625 43.359375 
Q 38.578125 45.796875 32.671875 45.796875 
Q 27.09375 45.796875 23.546875 43.328125 
Q 20.015625 40.875 18.40625 36.328125 
L 9.46875 37.109375 
Q 12.203125 44.828125 18.140625 48.921875 
Q 24.078125 53.03125 33.109375 53.03125 
Q 42.71875 53.03125 48.34375 48.4375 
Q 52.640625 45.015625 52.640625 39.546875 
Q 52.640625 35.40625 51.421875 29.9375 
L 48.53125 17.046875 
Q 47.171875 10.890625 47.171875 7.03125 
Q 47.171875 4.59375 48.25 0 
L 39.3125 0 
Q 38.578125 2.546875 38.28125 6.453125 
z
M 41.546875 26.265625 
Q 39.703125 25.53125 37.578125 25.140625 
Q 35.453125 24.75 30.46875 24.3125 
Q 22.75 23.640625 19.578125 22.578125 
Q 16.40625 21.53125 14.796875 19.234375 
Q 13.1875 16.9375 13.1875 14.15625 
Q 13.1875 10.453125 15.75 8.0625 
Q 18.3125 5.671875 23.046875 5.671875 
Q 27.4375 5.671875 31.484375 7.984375 
Q 35.546875 10.296875 37.890625 14.453125 
Q 40.234375 18.609375 41.546875 26.265625 
z
" id="Arial-ItalicMT-97"/>
    </defs>
    <g transform="translate(109.692647 23.003125)scale(0.16 -0.16)">
     <use xlink:href="#Arial-ItalicMT-83"/>
     <use x="66.699219" xlink:href="#Arial-ItalicMT-116"/>
     <use x="94.482422" xlink:href="#Arial-ItalicMT-114"/>
     <use x="127.783203" xlink:href="#Arial-ItalicMT-101"/>
     <use x="183.398438" xlink:href="#Arial-ItalicMT-112"/>
     <use x="239.013672" xlink:href="#Arial-ItalicMT-116"/>
     <use x="266.796875" xlink:href="#Arial-ItalicMT-111"/>
     <use x="322.412109" xlink:href="#Arial-ItalicMT-99"/>
     <use x="372.412109" xlink:href="#Arial-ItalicMT-111"/>
     <use x="428.027344" xlink:href="#Arial-ItalicMT-99"/>
     <use x="478.027344" xlink:href="#Arial-ItalicMT-99"/>
     <use x="528.027344" xlink:href="#Arial-ItalicMT-117"/>
     <use x="583.642578" xlink:href="#Arial-ItalicMT-115"/>
     <use x="633.642578" xlink:href="#Arial-ItalicMT-32"/>
     <use x="661.425781" xlink:href="#Arial-ItalicMT-118"/>
     <use x="711.425781" xlink:href="#Arial-ItalicMT-101"/>
     <use x="767.041016" xlink:href="#Arial-ItalicMT-115"/>
     <use x="817.041016" xlink:href="#Arial-ItalicMT-116"/>
     <use x="844.824219" xlink:href="#Arial-ItalicMT-105"/>
     <use x="867.041016" xlink:href="#Arial-ItalicMT-98"/>
     <use x="922.65625" xlink:href="#Arial-ItalicMT-117"/>
     <use x="978.271484" xlink:href="#Arial-ItalicMT-108"/>
     <use x="1000.488281" xlink:href="#Arial-ItalicMT-97"/>
     <use x="1056.103516" xlink:href="#Arial-ItalicMT-114"/>
     <use x="1089.404297" xlink:href="#Arial-ItalicMT-105"/>
     <use x="1111.621094" xlink:href="#Arial-ItalicMT-115"/>
    </g>
   </g>
  </g>
 </g>
 <defs>
  <clipPath id="pab4e779441">
   <rect height="173.196875" width="279.135294" x="63.05" y="29.003125"/>
  </clipPath>
 </defs>
</svg>
